<svg width="128" height="128" xmlns="http://www.w3.org/2000/svg" xmlns:xlink="http://www.w3.org/1999/xlink"><defs><linearGradient id="A" xlink:href="#X"><stop stop-color="#ccc" offset="0"/><stop stop-color="#f1f1f1" offset="1"/></linearGradient><linearGradient id="B" xlink:href="#X"><stop stop-color="#fff" offset="0"/><stop stop-color="#fff" stop-opacity="0" offset="1"/></linearGradient><radialGradient id="C" cx="42.7" cy="103.58" r="42.559" gradientTransform="matrix(-1.2006 0 0 1.2006 115.28 -32.292)" xlink:href="#X"><stop stop-color="#ff5900" offset="0"/><stop stop-color="#8d0000" offset="1"/></radialGradient><linearGradient id="D" x1="13.508" x2="7.602" y1="13.721" y2="19.627" spreadMethod="reflect" xlink:href="#B"/><filter id="E"><feGaussianBlur stdDeviation=".284"/></filter><linearGradient id="F" x1="21.508" x2="15.54" y1="21.721" y2="27.689" spreadMethod="reflect" xlink:href="#B"/><linearGradient id="G" x1="21.508" x2="14.374" y1="21.721" y2="28.855" spreadMethod="reflect" xlink:href="#B"/><linearGradient id="H" x1="61.966" x2="61.966" y1="14.122" y2="50.236" xlink:href="#X"><stop stop-color="#ff6565" offset="0"/><stop stop-color="#ffdfbf" stop-opacity="0" offset="1"/></linearGradient><linearGradient id="I" x1="59.192" x2="59.192" y1="-32.632" y2="98.501" xlink:href="#B"/><linearGradient id="J" x1="59.488" x2="59.488" y1="8.897" y2="47.229" xlink:href="#B"/><linearGradient id="K" x1="116" x2="31.61" y1="73" y2="22.946" xlink:href="#B"/><linearGradient id="L" x1="-60.945" x2="-59.415" y1="105.83" y2="45.631" xlink:href="#X"><stop stop-color="#ffeb8b" offset="0"/><stop stop-color="#fff" stop-opacity="0" offset="1"/></linearGradient><filter id="M"><feGaussianBlur stdDeviation=".329"/></filter><filter id="N"><feGaussianBlur stdDeviation=".333"/></filter><filter id="O"><feGaussianBlur stdDeviation=".466"/></filter><clipPath id="P"><path d="M-213.658 29.55c-1.285-1.285-3.356-1.285-4.64 0l-23.136 23.136-23.136-23.136c-1.285-1.285-3.356-1.285-4.64 0l-6.673 6.673c-1.285 1.285-1.285 3.356 0 4.64L-252.748 64l-23.136 23.136c-1.285 1.285-1.285 3.356 0 4.64l6.673 6.673c1.285 1.285 3.356 1.285 4.64 0l23.136-23.136L-218.3 98.45c1.285 1.285 3.356 1.285 4.64 0l6.673-6.673c1.285-1.285 1.285-3.356 0-4.64L-230.12 64l23.136-23.136c1.285-1.285 1.285-3.356 0-4.64l-6.673-6.673z" fill="url(#Q)"/></clipPath><radialGradient id="Q" cx="-20" cy="64" r="35.413" fx="-9.132" fy="76.906" gradientTransform="translate(-221.43 -2.5853e-6)" xlink:href="#A"/><clipPath id="R"><path d="M-121.28 29.55c-1.285-1.285-3.356-1.285-4.64 0l-23.136 23.136-23.136-23.136c-1.285-1.285-3.356-1.285-4.64 0l-6.673 6.673c-1.285 1.285-1.285 3.356 0 4.64L-160.37 64l-23.136 23.136c-1.285 1.285-1.285 3.356 0 4.64l6.673 6.673c1.285 1.285 3.356 1.285 4.64 0l23.136-23.136 23.136 23.136c1.285 1.285 3.356 1.285 4.64 0l6.673-6.673c1.285-1.285 1.285-3.356 0-4.64L-137.743 64l23.136-23.136c1.285-1.285 1.285-3.356 0-4.64l-6.673-6.673z" fill="url(#S)"/></clipPath><radialGradient id="S" cx="-20" cy="64" r="35.413" fx="-9.132" fy="76.906" gradientTransform="translate(-129.06 -2.5853e-6)" xlink:href="#A"/><radialGradient id="T" cx="-20" cy="64" r="35.413" fx="-9.132" fy="76.906" gradientTransform="translate(-40.755 -2.5853e-6)" xlink:href="#A"/><linearGradient id="U" x1="-236" x2="-236" y1="17.767" y2="89.767" xlink:href="#X"><stop offset="0"/><stop stop-opacity=".156" offset=".5"/><stop stop-opacity=".687" offset=".623"/><stop stop-opacity=".364" offset="1"/></linearGradient><linearGradient id="V" x1="38.838" x2="9.499" y1="115.4" y2="11.107" xlink:href="#X"><stop stop-color="#700" offset="0"/><stop stop-color="#c10000" offset="1"/></linearGradient><path id="W" d="M26.247 16.98c-4.7 0-9.477 3.655-9.477 9.485l4.008-.825c.452-2.13 2.852-4.27 4.527-4.603l.943-4.057z"/><linearGradient id="X" gradientUnits="userSpaceOnUse"/></defs><path d="M19.132 5.914h89.736c5.795 0 13.22 8.346 13.22 14.14v88.815c0 5.795-7.426 13.22-13.22 13.22H19.132c-5.795 0-13.22-7.426-13.22-13.22V20.054c0-5.795 7.426-14.14 13.22-14.14z" fill="url(#V)"/><path d="M109.834 12.123H19.2c-3.916 0-7.07 3.153-7.07 7.07v89.624c0 3.916 3.153 7.07 7.07 7.07h90.634c3.916 0 7.07-3.153 7.07-7.07V19.192c0-3.916-3.153-7.07-7.07-7.07z" fill="url(#C)"/><path transform="matrix(1.4363 0 0 1.4363 -5.7815 -5.6961)" d="M17.907 8.3c-4.7 0-9.398 3.568-9.398 9.4l4.267-.06c.452-2.13 2.852-4.27 4.527-4.603l.604-4.736z" fill="url(#D)" filter="url(#E)" opacity=".888"/><path transform="matrix(-1.3858 0 0 1.3858 144.27 -16.422)" d="M25.398 16.47c-4.7 0-8.968 3.655-8.968 9.485l4.347-.315c.452-2.13 2.852-4.27 4.527-4.603l.094-4.567z" fill="url(#F)" filter="url(#E)" opacity=".87"/><use transform="matrix(1.4326 0 0 -1.4326 -17.314 145.49)" fill="url(#G)" filter="url(#E)" opacity=".326" xlink:href="#W"/><use transform="matrix(-1.2679 0 0 -1.2679 142.41 142.69)" fill="url(#G)" filter="url(#E)" opacity=".176" xlink:href="#W"/><path d="M5.912 24.157v-4.182c0-5.795 8.356-14.15 14.15-14.15h87.874c5.795 0 14.15 8.356 14.15 14.15v4.182c0-5.795-8.356-11.4-14.15-11.4H20.063c-5.795 0-14.15 5.596-14.15 11.4z" fill="url(#H)" opacity=".39"/><g transform="matrix(1.0096 0 0 1.0096 -.60518 -1.6232)"><path d="M19.44 13.28a7.16 7.16 0 0 0-7.188 7.188v1a7.16 7.16 0 0 1 7.188-7.187h89.625a7.16 7.16 0 0 1 7.188 7.188v-1a7.16 7.16 0 0 0-7.187-7.187H19.44z" fill="url(#J)"/><path d="M112.21 14.946c1.595 1.315 2.625 3.287 2.625 5.53v34.5c-.193.328-.437.667-.72 1C86.87 66.464 40.805 69.466 12.242 62.603v.563c28.98 7.307 75.585 4.378 103.28-6.28.282-.333.525-.672.72-1v-34.5c0-2.853-1.64-5.274-4.03-6.437z" fill="url(#K)"/></g><path transform="matrix(-1.0096 0 0 1.0096 -.60518 -.61351)" d="m-109.38 13.615h89.768c3.88 0 7 3.123 7 7v87.768c0 3.88-3.123 7-7 7h-89.768c-3.88 0-7-3.123-7-7v-87.767c0-3.88 3.123-7 7-7z" fill="none" filter="url(#M)" stroke="url(#L)" stroke-linejoin="round"/><path d="M18.767 11.786a7.23 7.23 0 0 0-7.257 7.257v42.184c29.26 7.377 76.315 4.42 104.278-6.342a7.37 7.37 0 0 0 .726-1.01V19.043a7.23 7.23 0 0 0-7.257-7.257h-90.5z" fill="url(#I)"/><g transform="matrix(1.1407 0 0 1.1407 133.31 -8.999)"><path d="M-32.98 29.55c-1.285-1.285-3.356-1.285-4.64 0l-23.136 23.136L-83.9 29.55c-1.285-1.285-3.356-1.285-4.64 0l-6.673 6.673c-1.285 1.285-1.285 3.356 0 4.64L-72.07 64-95.204 87.136c-1.285 1.285-1.285 3.356 0 4.64l6.673 6.673c1.285 1.285 3.356 1.285 4.64 0l23.136-23.136L-37.62 98.45c1.285 1.285 3.356 1.285 4.64 0l6.673-6.673c1.285-1.285 1.285-3.356 0-4.64L-49.44 64l23.136-23.136c1.285-1.285 1.285-3.356 0-4.64l-6.673-6.673z" fill="url(#T)"/><path transform="translate(88.315)" d="M-183.094 39.246c-.64 1.236-.445 2.774.594 3.813l21.625 21.656 1.5-1.5L-182.5 40.06c-.25-.25-.44-.515-.594-.812zm68.063 0c-.152.295-.315.565-.562.813l-23.156 23.156 1.5 1.5 21.656-21.656c1.04-1.04 1.207-2.576.563-3.812zm-34.03 34.28l-23.125 23.125c-1.285 1.285-3.372 1.285-4.656 0l-6.656-6.687c-.25-.25-.44-.515-.594-.812-.64 1.236-.445 2.774.594 3.813l6.656 6.688c1.285 1.285 3.372 1.285 4.656 0l23.125-23.125 23.156 23.125c1.285 1.285 3.34 1.285 4.625 0l6.688-6.687c1.04-1.04 1.207-2.576.563-3.812-.152.295-.315.565-.562.813l-6.687 6.688c-1.285 1.285-3.34 1.285-4.625 0l-23.156-23.125z" clip-path="url(#R)" fill="#fff" filter="url(#N)"/><path transform="translate(180.67)" d="M-266.875 27.36a3.33 3.33 0 0 0-2.344.969l-6.656 6.688c-1.035 1.035-1.226 2.58-.594 3.813a3.28 3.28 0 0 1 .594-.812l6.656-6.688c1.285-1.285 3.372-1.285 4.656 0l23.125 23.156 23.125-23.156c1.285-1.285 3.372-1.285 4.656 0l6.656 6.688c.244.244.442.522.594.813a3.26 3.26 0 0 0-.594-3.812l-6.656-6.688c-1.285-1.285-3.372-1.285-4.656 0l-23.125 23.156-23.125-23.156a3.26 3.26 0 0 0-2.312-.969zm13.225 36.537l-21.625 21.625c-1.035 1.035-1.226 2.58-.594 3.813a3.28 3.28 0 0 1 .594-.812l23.125-23.125-1.5-1.5zm24.925-.1l-1.5 1.5 23.125 23.125c.244.244.442.522.594.813a3.26 3.26 0 0 0-.594-3.812l-21.625-21.625z" clip-path="url(#P)" fill="url(#U)" filter="url(#O)"/></g></svg>
