<svg width="128" height="128" xmlns="http://www.w3.org/2000/svg" xmlns:xlink="http://www.w3.org/1999/xlink"><defs><filter id="A"><feGaussianBlur stdDeviation="2.4"/></filter><radialGradient id="B" cx="59.511" cy="124" r="125.17" gradientTransform="translate(145.71 -237.21)" xlink:href="#H"><stop stop-color="#f0f0f0" offset=".178"/><stop stop-color="#a5a5bb" offset=".533"/></radialGradient><linearGradient id="C" x1="205.71" x2="205.71" y1="-225.37" y2="-118" xlink:href="#H"><stop stop-color="#fff" offset="0"/><stop stop-color="#fff" stop-opacity="0" offset="1"/></linearGradient><linearGradient id="D" x1="205.72" x2="205.72" y1="-144.21" y2="-212.21" xlink:href="#H"><stop stop-color="#fff" offset=".296"/><stop stop-color="#4a4a55" offset="1"/></linearGradient><linearGradient id="E" x1="205.72" x2="205.72" y1="-146.21" y2="-210.21" xlink:href="#H"><stop stop-color="#e9e9f0" offset=".195"/><stop stop-color="#dadae2" offset=".26"/><stop stop-color="#b1b1bb" offset=".461"/><stop stop-color="#93939f" offset=".644"/><stop stop-color="#81818e" offset=".8"/><stop stop-color="#7a7a88" offset=".911"/><stop stop-color="#696975" offset="1"/></linearGradient><linearGradient id="F" x1="205.72" x2="205.72" y1="-152.21" y2="-204.21" xlink:href="#H"><stop stop-color="#bbb" offset="0"/><stop stop-color="#555" offset="1"/></linearGradient><path id="G" d="M265.715-171.212v-12.002l-12.44-.415c-.552-4.127-1.622-8.09-3.153-11.816l10.555-6.572-6-10.394-10.98 5.86c-2.503-3.236-5.408-6.142-8.645-8.645l5.86-10.98-10.393-6-6.572 10.555c-3.728-1.532-7.69-2.603-11.817-3.155l-.416-12.44h-12l-.415 12.44c-4.128.552-8.1 1.623-11.817 3.154l-6.572-10.554-10.393 6 5.86 10.98a48.27 48.27 0 0 0-8.646 8.646l-10.98-5.86-6 10.392 10.556 6.573c-1.532 3.727-2.603 7.69-3.154 11.817l-12.44.413-.001 12 12.44.415c.552 4.128 1.623 8.1 3.154 11.817l-10.555 6.573 6 10.393 10.983-5.862c2.503 3.236 5.41 6.143 8.646 8.646l-5.862 10.982 10.392 6 6.573-10.557a47.67 47.67 0 0 0 11.817 3.154l.414 12.44h12l.415-12.44a47.65 47.65 0 0 0 11.816-3.154l6.572 10.556 10.393-6-5.86-10.983a48.29 48.29 0 0 0 8.645-8.645l10.98 5.86 6-10.393-10.556-6.572c1.53-3.727 2.603-7.688 3.154-11.816l12.44-.413zm-60 23.998c-16.542 0-30-13.458-30-30s13.458-30 30-30 30 13.458 30 30-13.458 30-30 30z"/><linearGradient id="H" gradientUnits="userSpaceOnUse"/></defs><g transform="matrix(.99999 0 0 1 -141.71 242.21)"><use filter="url(#A)" xlink:href="#G"/><use y="-1" fill="url(#B)" xlink:href="#G"/><path d="M200.682-237.214l-.382 11.473a1 1 0 0 1-.867.958 46.71 46.71 0 0 0-11.569 3.088 1 1 0 0 1-1.229-.396l-6.06-9.734-8.717 5.033 5.406 10.128c.08.15.118.31.118.47a1 1 0 0 1-.388.792c-3.167 2.45-6.016 5.3-8.466 8.466a1 1 0 0 1-1.262.271l-10.128-5.406-5.033 8.717 9.734 6.06a1 1 0 0 1 .472.85c0 .127-.024.256-.075.38a46.66 46.66 0 0 0-3.088 11.569 1 1 0 0 1-.958.867l-11.473.382v3.17c8.88 1.79 18.332 3.162 28.128 4.095l-.13-2.235c0-17.093 13.907-31 31-31s31 13.907 31 31l-.13 2.25c9.79-.925 19.24-2.292 28.13-4.074v-3.21l-11.473-.382a1 1 0 0 1-.958-.867c-.533-3.988-1.572-7.88-3.087-11.568a.99.99 0 0 1-.075-.379 1 1 0 0 1 .472-.85l9.733-6.06-5.033-8.718-10.128 5.406a1 1 0 0 1-1.262-.271c-2.45-3.168-5.3-6.017-8.465-8.466-.253-.195-.39-.5-.39-.792a.99.99 0 0 1 .118-.47l5.405-10.128-8.717-5.034-6.062 9.734a1 1 0 0 1-1.229.396c-3.69-1.516-7.582-2.555-11.57-3.088a1 1 0 0 1-.866-.958l-.383-11.473-10.064.001z" fill="url(#C)"/><path d="m205.72-212.21c-18.777 0-34 15.223-34 34s15.223 34 34 34 34-15.222 34-34-15.222-34-34-34zm0 59c-13.785 0-25-11.215-25-25s11.215-25 25-25 25 11.215 25 25-11.215 25-25 25z" fill="url(#D)"/><path d="m205.72-210.21c-17.645 0-32 14.355-32 32s14.355 32 32 32 32-14.355 32-32-14.355-32-32-32zm0 57c-13.785 0-25-11.215-25-25s11.215-25 25-25 25 11.215 25 25-11.215 25-25 25z" fill="url(#E)"/><path d="m205.72-204.21c-14.336 0-26 11.664-26 26s11.664 26 26 26 26-11.663 26-26-11.663-26-26-26zm0 50c-13.233 0-24-10.767-24-24s10.767-24 24-24 24 10.767 24 24-10.767 24-24 24z" fill="url(#F)"/><g fill="#fff"><path d="M161.006-159.793l-10.253 6.384.425.735 10.13-6.308-.303-.8zm19.904-72.382l6.572 10.555a47.64 47.64 0 0 1 11.817-3.154l.415-12.44h12l.415 12.44c4.128.552 8.1 1.623 11.817 3.155l6.572-10.555 9.984 5.766.408-.765-10.4-6-6.572 10.555c-3.728-1.532-7.7-2.603-11.817-3.155l-.416-12.44h-12l-.415 12.44c-4.128.552-8.1 1.623-11.817 3.154l-6.572-10.554-10.393 6 .408.765 9.985-5.765zm54.5 16.288l-.37.694a48.26 48.26 0 0 1 8.645 8.645l10.98-5.86 5.575 9.658.425-.265-6-10.394-10.98 5.86c-2.406-3.108-5.2-5.903-8.275-8.338zM176-139.54l-5.5 10.288.408.235 5.454-10.218-.37-.305z"/><path d="M249.696-176.83c-.394 23.923-19.966 43.267-43.98 43.267s-43.587-19.344-43.98-43.267l-.02.732c0 24.262 19.738 44 44 44s44-19.738 44-44c0-.245-.015-.488-.02-.732z" opacity=".5"/><path d="M253.276-184.628a47.68 47.68 0 0 0-2.85-11.005l-.304.2a47.66 47.66 0 0 1 3.153 11.816l12.44.414v-1l-12.44-.414zm-3.156 25.646l10.13 6.308.425-.735-10.252-6.384-.304.8zM156.753-212.4l10.98 5.86a48.27 48.27 0 0 1 8.646-8.646l-.37-.694c-3.084 2.435-5.87 5.23-8.275 8.34l-10.98-5.86-6 10.392.425.265 5.575-9.656zm78.297 73.166l5.453 10.217.408-.235-5.5-10.287-.37.305zm-89.335-43.98l12.44-.415a47.67 47.67 0 0 1 3.154-11.817l-.303-.2c-1.36 3.5-2.34 7.173-2.85 11.006l-12.44.415v1z"/></g></g></svg>
