<svg xmlns="http://www.w3.org/2000/svg" xmlns:xlink="http://www.w3.org/1999/xlink" width="128" height="128"><defs><linearGradient id="A" xlink:href="#X"><stop offset="0" stop-color="#ccc"/><stop offset="1" stop-color="#f1f1f1"/></linearGradient><linearGradient id="B" xlink:href="#X"><stop offset="0" stop-color="#fff"/><stop offset="1" stop-color="#fff" stop-opacity="0"/></linearGradient><radialGradient id="C" gradientTransform="matrix(-1.2005511,0,0,1.2005511,115.2762,-32.291922)" spreadMethod="pad" cx="42.7" cy="103.58" fx="42.7" fy="103.58" r="42.559" xlink:href="#X"><stop offset="0" stop-color="#ff5900"/><stop offset="1" stop-color="#8d0000"/></radialGradient><linearGradient xlink:href="#B" id="D" x1="13.508" y1="13.721" x2="7.602" y2="19.627" spreadMethod="reflect"/><filter id="E"><feGaussianBlur stdDeviation=".284"/></filter><linearGradient xlink:href="#B" id="F" spreadMethod="reflect" x1="21.508" y1="21.721" x2="15.54" y2="27.689"/><linearGradient xlink:href="#B" id="G" spreadMethod="reflect" x1="21.508" y1="21.721" x2="14.374" y2="28.855"/><linearGradient id="H" x1="61.966" y1="14.122" x2="61.966" y2="50.236" xlink:href="#X"><stop offset="0" stop-color="#ff6565"/><stop offset="1" stop-color="#ffdfbf" stop-opacity="0"/></linearGradient><linearGradient xlink:href="#B" id="I" x1="59.192" y1="-32.632" x2="59.192" y2="98.501"/><linearGradient xlink:href="#B" id="J" x1="59.488" y1="8.897" x2="59.488" y2="47.229"/><linearGradient xlink:href="#B" id="K" x1="116" y1="73" x2="31.61" y2="22.946"/><linearGradient id="L" x1="-60.945" y1="105.831" x2="-59.415" y2="45.631" xlink:href="#X"><stop offset="0" stop-color="#ffeb8b"/><stop offset="1" stop-color="#fff" stop-opacity="0"/></linearGradient><filter id="M"><feGaussianBlur stdDeviation=".329"/></filter><filter id="N"><feGaussianBlur stdDeviation=".333"/></filter><filter id="O"><feGaussianBlur stdDeviation=".466"/></filter><clipPath id="P"><path d="M-213.658 29.55c-1.285-1.285-3.356-1.285-4.64 0l-23.136 23.136-23.136-23.136c-1.285-1.285-3.356-1.285-4.64 0l-6.673 6.673c-1.285 1.285-1.285 3.356 0 4.64L-252.748 64l-23.136 23.136c-1.285 1.285-1.285 3.356 0 4.64l6.673 6.673c1.285 1.285 3.356 1.285 4.64 0l23.136-23.136L-218.3 98.45c1.285 1.285 3.356 1.285 4.64 0l6.673-6.673c1.285-1.285 1.285-3.356 0-4.64L-230.12 64l23.136-23.136c1.285-1.285 1.285-3.356 0-4.64l-6.673-6.673z" opacity="1" fill="url(#Q)" fill-opacity="1" stroke="none"/></clipPath><radialGradient xlink:href="#A" id="Q" gradientTransform="translate(-221.43454,-2.5852934e-6)" cx="-20" cy="64" fx="-9.132" fy="76.906" r="35.413"/><clipPath id="R"><path d="M-121.28 29.55c-1.285-1.285-3.356-1.285-4.64 0l-23.136 23.136-23.136-23.136c-1.285-1.285-3.356-1.285-4.64 0l-6.673 6.673c-1.285 1.285-1.285 3.356 0 4.64L-160.37 64l-23.136 23.136c-1.285 1.285-1.285 3.356 0 4.64l6.673 6.673c1.285 1.285 3.356 1.285 4.64 0l23.136-23.136 23.136 23.136c1.285 1.285 3.356 1.285 4.64 0l6.673-6.673c1.285-1.285 1.285-3.356 0-4.64L-137.743 64l23.136-23.136c1.285-1.285 1.285-3.356 0-4.64l-6.673-6.673z" opacity="1" fill="url(#S)" fill-opacity="1" stroke="none"/></clipPath><radialGradient xlink:href="#A" id="S" gradientTransform="translate(-129.05694,-2.5852934e-6)" cx="-20" cy="64" fx="-9.132" fy="76.906" r="35.413"/><radialGradient xlink:href="#A" id="T" gradientTransform="translate(-40.754823,-2.5852934e-6)" cx="-20" cy="64" fx="-9.132" fy="76.906" r="35.413"/><linearGradient id="U" x1="-236" y1="17.767" x2="-236" y2="89.767" xlink:href="#X"><stop offset="0"/><stop offset=".5" stop-opacity=".156"/><stop offset=".623" stop-opacity=".687"/><stop offset="1" stop-opacity=".364"/></linearGradient><linearGradient id="V" x1="38.838" y1="115.397" x2="9.499" y2="11.107" xlink:href="#X"><stop offset="0" stop-color="#700"/><stop offset="1" stop-color="#c10000"/></linearGradient><path id="W" d="M26.247 16.98c-4.7 0-9.477 3.655-9.477 9.485l4.008-.825c.452-2.13 2.852-4.27 4.527-4.603l.943-4.057z"/><linearGradient id="X" gradientUnits="userSpaceOnUse"/></defs><path d="M19.132 5.914h89.736c5.795 0 13.22 8.346 13.22 14.14v88.815c0 5.795-7.426 13.22-13.22 13.22H19.132c-5.795 0-13.22-7.426-13.22-13.22V20.054c0-5.795 7.426-14.14 13.22-14.14z" fill="url(#V)"/><path d="M109.834 12.123H19.2c-3.916 0-7.07 3.153-7.07 7.07v89.624c0 3.916 3.153 7.07 7.07 7.07h90.634c3.916 0 7.07-3.153 7.07-7.07V19.192c0-3.916-3.153-7.07-7.07-7.07z" fill="url(#C)"/><path d="M17.907 8.3c-4.7 0-9.398 3.568-9.398 9.4l4.267-.06c.452-2.13 2.852-4.27 4.527-4.603l.604-4.736z" transform="matrix(1.436293 0 0 1.436293 -5.781498 -5.696075)" opacity=".888" fill="url(#D)" filter="url(#E)"/><path d="M25.398 16.47c-4.7 0-8.968 3.655-8.968 9.485l4.347-.315c.452-2.13 2.852-4.27 4.527-4.603l.094-4.567z" transform="matrix(-1.385765 0 0 1.385765 144.2723 -16.422028)" opacity=".87" fill="url(#F)" filter="url(#E)"/><use xlink:href="#W" transform="matrix(1.432645 0 0 -1.432645 -17.314333 145.48986)" opacity=".326" fill="url(#G)" filter="url(#E)"/><use xlink:href="#W" transform="matrix(-1.267911 0 0 -1.267911 142.41433 142.69291)" opacity=".176" fill="url(#G)" filter="url(#E)"/><path d="M5.912 24.157v-4.182c0-5.795 8.356-14.15 14.15-14.15h87.874c5.795 0 14.15 8.356 14.15 14.15v4.182c0-5.795-8.356-11.4-14.15-11.4H20.063c-5.795 0-14.15 5.596-14.15 11.4z" opacity=".39" fill="url(#H)"/><g transform="matrix(1.009647 0 0 1.009647 -.605184 -1.623155)"><path d="M19.44 13.28a7.16 7.16 0 0 0-7.188 7.188v1a7.16 7.16 0 0 1 7.188-7.187h89.625a7.16 7.16 0 0 1 7.188 7.188v-1a7.16 7.16 0 0 0-7.187-7.187H19.44z" fill="url(#J)"/><path d="M112.21 14.946c1.595 1.315 2.625 3.287 2.625 5.53v34.5c-.193.328-.437.667-.72 1C86.87 66.464 40.805 69.466 12.242 62.603v.563c28.98 7.307 75.585 4.378 103.28-6.28.282-.333.525-.672.72-1v-34.5c0-2.853-1.64-5.274-4.03-6.437z" fill="url(#K)"/></g><path transform="matrix(-1.009647 0 0 1.009647 -.605184 -.613508)" d="M-109.384 13.615h89.768c3.88 0 7 3.123 7 7v87.768c0 3.88-3.123 7-7 7h-89.768c-3.88 0-7-3.123-7-7V20.616c0-3.88 3.123-7 7-7z" fill="none" stroke="url(#L)" stroke-linejoin="round" filter="url(#M)"/><path d="M18.767 11.786a7.23 7.23 0 0 0-7.257 7.257v42.184c29.26 7.377 76.315 4.42 104.278-6.342a7.37 7.37 0 0 0 .726-1.01V19.043a7.23 7.23 0 0 0-7.257-7.257h-90.5z" fill="url(#I)"/><g transform="matrix(1.140671 0 0 1.140671 133.30977 -8.999041)"><path d="M-32.98 29.55c-1.285-1.285-3.356-1.285-4.64 0l-23.136 23.136L-83.9 29.55c-1.285-1.285-3.356-1.285-4.64 0l-6.673 6.673c-1.285 1.285-1.285 3.356 0 4.64L-72.07 64-95.204 87.136c-1.285 1.285-1.285 3.356 0 4.64l6.673 6.673c1.285 1.285 3.356 1.285 4.64 0l23.136-23.136L-37.62 98.45c1.285 1.285 3.356 1.285 4.64 0l6.673-6.673c1.285-1.285 1.285-3.356 0-4.64L-49.44 64l23.136-23.136c1.285-1.285 1.285-3.356 0-4.64l-6.673-6.673z" fill="url(#T)"/><path transform="translate(88.315)" clip-path="url(#R)" d="M-183.094 39.246c-.64 1.236-.445 2.774.594 3.813l21.625 21.656 1.5-1.5L-182.5 40.06c-.25-.25-.44-.515-.594-.812zm68.063 0c-.152.295-.315.565-.562.813l-23.156 23.156 1.5 1.5 21.656-21.656c1.04-1.04 1.207-2.576.563-3.812zm-34.03 34.28l-23.125 23.125c-1.285 1.285-3.372 1.285-4.656 0l-6.656-6.687c-.25-.25-.44-.515-.594-.812-.64 1.236-.445 2.774.594 3.813l6.656 6.688c1.285 1.285 3.372 1.285 4.656 0l23.125-23.125 23.156 23.125c1.285 1.285 3.34 1.285 4.625 0l6.688-6.687c1.04-1.04 1.207-2.576.563-3.812-.152.295-.315.565-.562.813l-6.687 6.688c-1.285 1.285-3.34 1.285-4.625 0l-23.156-23.125z" fill="#fff" filter="url(#N)"/><path transform="translate(180.673)" clip-path="url(#P)" d="M-266.875 27.36a3.33 3.33 0 0 0-2.344.969l-6.656 6.688c-1.035 1.035-1.226 2.58-.594 3.813a3.28 3.28 0 0 1 .594-.812l6.656-6.688c1.285-1.285 3.372-1.285 4.656 0l23.125 23.156 23.125-23.156c1.285-1.285 3.372-1.285 4.656 0l6.656 6.688c.244.244.442.522.594.813a3.26 3.26 0 0 0-.594-3.812l-6.656-6.688c-1.285-1.285-3.372-1.285-4.656 0l-23.125 23.156-23.125-23.156a3.26 3.26 0 0 0-2.312-.969zm13.225 36.537l-21.625 21.625c-1.035 1.035-1.226 2.58-.594 3.813a3.28 3.28 0 0 1 .594-.812l23.125-23.125-1.5-1.5zm24.925-.1l-1.5 1.5 23.125 23.125c.244.244.442.522.594.813a3.26 3.26 0 0 0-.594-3.812l-21.625-21.625z" fill="url(#U)" filter="url(#O)"/></g></svg>