<?xml version="1.0" encoding="UTF-8" standalone="no"?>
<!-- Created with Inkscape (http://www.inkscape.org/) -->

<svg
   xmlns:dc="http://purl.org/dc/elements/1.1/"
   xmlns:cc="http://creativecommons.org/ns#"
   xmlns:rdf="http://www.w3.org/1999/02/22-rdf-syntax-ns#"
   xmlns:svg="http://www.w3.org/2000/svg"
   xmlns="http://www.w3.org/2000/svg"
   xmlns:sodipodi="http://sodipodi.sourceforge.net/DTD/sodipodi-0.dtd"
   xmlns:inkscape="http://www.inkscape.org/namespaces/inkscape"
   version="1.1"
   width="20"
   height="20"
   id="svg2"
   inkscape:version="0.48.4 r9939"
   sodipodi:docname="color-check.svg">
  <sodipodi:namedview
     pagecolor="#ffffff"
     bordercolor="#666666"
     borderopacity="1"
     objecttolerance="10"
     gridtolerance="10"
     guidetolerance="10"
     inkscape:pageopacity="0"
     inkscape:pageshadow="2"
     inkscape:window-width="1354"
     inkscape:window-height="667"
     id="namedview8"
     showgrid="false"
     inkscape:zoom="11.313708"
     inkscape:cx="9.7333772"
     inkscape:cy="11.859919"
     inkscape:window-x="0"
     inkscape:window-y="38"
     inkscape:window-maximized="1"
     inkscape:current-layer="svg2" />
  <defs
     id="defs4" />
  <metadata
     id="metadata7">
    <rdf:RDF>
      <cc:Work
         rdf:about="">
        <dc:format>image/svg+xml</dc:format>
        <dc:type
           rdf:resource="http://purl.org/dc/dcmitype/StillImage" />
        <dc:title />
      </cc:Work>
    </rdf:RDF>
  </metadata>
  <path
     style="fill:#000000;fill-opacity:1;fill-rule:nonzero;stroke:none"
     d="M 1.34375 0 C 0.60508335 0 0 0.60508328 0 1.34375 L 0 18.65625 C 0 19.394916 0.60508335 20 1.34375 20 L 18.65625 20 C 19.394917 20 20 19.394916 20 18.65625 L 20 1.34375 C 20 0.60508328 19.394917 0 18.65625 0 L 1.34375 0 z M 10 3 C 13.865993 3 17 6.1340067 17 10 C 17 13.865993 13.865993 17 10 17 C 6.1340067 17 3 13.865993 3 10 C 3 6.1340067 6.1340067 3 10 3 z "
     id="rectangle" />
  <path id="check"
     transform="matrix(1.1193676,0,0,1.3950739,1.6758894,-0.61083768)"
     d="m 12.79661,7.6059322 a 5.3601694,4.3008475 0 1 1 -10.7203389,0 5.3601694,4.3008475 0 1 1 10.7203389,0 z"
     sodipodi:ry="4.3008475"
     sodipodi:rx="5.3601694"
     sodipodi:cy="7.6059322"
     sodipodi:cx="7.4364405"
     style="fill:#000000;fill-opacity:1;fill-rule:nonzero;stroke:none"
     sodipodi:type="arc" />
</svg>
