<svg xmlns="http://www.w3.org/2000/svg" width="128" height="128"><defs><linearGradient id="A" x1="9.181" y1="120.988" x2="93.587" y2="36.997" gradientUnits="userSpaceOnUse"><stop offset="0"/><stop offset="1" stop-color="#535353"/></linearGradient></defs><path d="M0 116.476V11.524A11.497 11.497 0 0 1 11.524 0h104.952a11.497 11.497 0 0 1 11.525 11.525v104.952a11.497 11.497 0 0 1-11.525 11.525H11.524A11.497 11.497 0 0 1 0 116.477z" fill="url(#A)"/><path d="M67.544 81.422v31.393c0 2.174 1.75 3.924 3.924 3.924h41.2c2.174 0 3.924-1.75 3.924-3.924v-30.72l-.385-.673zm0 0" fill="#dadada"/><path d="M71.468 67.688a3.916 3.916 0 0 0-3.924 3.924v9.8H116.2l.385-.603v-9.207c0-2.174-1.75-3.924-3.924-3.924zm0 0" fill="#95008d"/><g fill="none" stroke="#000"><path d="M67.544 81.422H116.2M71.47 67.688h41.2c2.174 0 3.924 1.75 3.924 3.924v41.203c0 2.174-1.75 3.924-3.924 3.924h-41.2a3.916 3.916 0 0 1-3.924-3.924V71.612a3.916 3.916 0 0 1 3.924-3.924zm0 0" stroke-width="1.668"/><path d="M79.947 65.148v10.158m23.825-10.158v10.158" stroke-width="2.747" stroke-linecap="round"/></g><text y="108.046" x="91.971" xml:space="preserve" font-size="28.748" font-family="sans-serif" letter-spacing="0" word-spacing="0" fill="#0a0a0a"><tspan y="108.046" x="91.971" text-anchor="middle">15</tspan></text><path d="M11.24 25.096V56.49c0 2.174 1.75 3.924 3.924 3.924h41.2c2.174 0 3.924-1.75 3.924-3.924V25.77l-.385-.673zm0 0" fill="#dadada"/><path d="M15.164 11.362a3.916 3.916 0 0 0-3.924 3.924v9.8h48.666l.385-.603v-9.207c0-2.174-1.75-3.924-3.924-3.924zm0 0" fill="#00950e"/><g fill="none" stroke="#000"><path d="M11.24 25.096h48.666M15.164 11.36h41.2c2.174 0 3.924 1.75 3.924 3.924V56.49c0 2.174-1.75 3.924-3.924 3.924h-41.2c-1.04.002-2.04-.41-2.777-1.147s-1.15-1.736-1.147-2.777V15.286c-.002-1.04.41-2.04 1.147-2.777s1.736-1.15 2.777-1.147zm0 0" stroke-width="1.668"/><path d="M23.642 8.822V18.98M47.467 8.822V18.98" stroke-linecap="round" stroke-width="2.747"/></g><text xml:space="preserve" x="35.611" y="51.929" font-size="29.407" font-family="sans-serif" letter-spacing="0" word-spacing="0" fill="#0a0a0a"><tspan x="35.611" y="51.929" text-anchor="middle">7</tspan></text><path d="M88.864 37.75l-13.393-.005m.005 13.393l-.005-13.394m14.88 14.88l-14.88-14.88M53.055 76.67l.005 13.393m-13.393-.005l13.393.005m-14.88-14.88l14.88 14.88" fill="none" stroke-linecap="round" stroke="#fdecec" stroke-width="6.208" stroke-linejoin="round"/></svg>