<svg xmlns="http://www.w3.org/2000/svg" xmlns:xlink="http://www.w3.org/1999/xlink" width="128" height="128"><defs><linearGradient id="A" xlink:href="#X"><stop offset="0" stop-color="#fff"/><stop offset="1" stop-color="#fff" stop-opacity="0"/></linearGradient><linearGradient id="B" x1="60.667" y1="5.443" x2="60.667" y2="113.119" spreadMethod="pad" xlink:href="#X"><stop offset="0" stop-color="#8c0000"/><stop offset="1" stop-color="#470000"/></linearGradient><radialGradient id="C" cx="64" cy="73.475" fx="64" fy="77.238" r="40" gradientTransform="matrix(2.0783306,-9.927972e-8,6.9726035e-8,1.4596512,-69.013166,-26.914)" xlink:href="#X"><stop offset="0" stop-color="#ff1212"/><stop offset="1" stop-color="#750000"/></radialGradient><linearGradient id="D" x1="80.079" y1="8.853" x2="80.079" y2="94.417" xlink:href="#X"><stop offset="0" stop-color="#ffb5b5"/><stop offset="1" stop-color="#ffbfbf" stop-opacity="0"/></linearGradient><linearGradient id="E" x1="123.077" y1="78.807" x2="109.415" y2="33.648" xlink:href="#X"><stop offset="0" stop-color="#fff"/><stop offset="1" stop-color="#ffbebe" stop-opacity="0"/></linearGradient><linearGradient id="F" x1="80.079" y1="8.853" x2="80.079" y2="68.498" xlink:href="#X"><stop offset="0" stop-color="#fff"/><stop offset="1" stop-color="#fff" stop-opacity="0"/></linearGradient><linearGradient id="G" x1="82.55" y1="108.25" x2="82.55" y2="35.434" xlink:href="#X"><stop offset="0" stop-color="#ff7e00"/><stop offset="1" stop-color="#ff7e00" stop-opacity="0"/></linearGradient><radialGradient xlink:href="#A" id="H" cx="26.031" cy="26.031" fx="26.031" fy="26.031" r="5.969" gradientTransform="matrix(4.0188417,4.0188417,-0.7071068,0.7071068,-60.177349,-96.991095)"/><filter x="-.12" width="1.24" y="-.12" height="1.24" id="I"><feGaussianBlur stdDeviation=".597"/></filter><radialGradient id="J" gradientTransform="matrix(4.0188417,4.0188417,-0.7071068,0.7071068,-60.177349,-96.991095)" cx="26.031" cy="26.031" fx="26.031" fy="26.031" r="5.969" xlink:href="#X"><stop offset="0" stop-color="#e16e00"/><stop offset="1" stop-color="#803f00" stop-opacity="0"/></radialGradient><radialGradient xlink:href="#A" id="K" gradientTransform="matrix(4.0188417,4.0188417,-0.7071068,0.7071068,-60.177349,-96.991095)" cx="26.031" cy="26.031" fx="26.031" fy="26.031" r="5.969"/><radialGradient id="L" cx="64" cy="26.932" fx="64" fy="26.932" r="44" gradientTransform="matrix(1.1954201,0,0,0.2784785,-12.506884,12.187875)" xlink:href="#X"><stop offset="0" stop-color="#fff"/><stop offset="1" stop-color="#fff" stop-opacity="0"/></radialGradient><radialGradient id="M" cx="64" cy="21.661" fx="64" fy="21.661" r="44" gradientTransform="matrix(3.3075569,0,0,0.427102,-147.68366,4.135353)" xlink:href="#X"><stop offset="0" stop-color="#fff"/><stop offset="1" stop-color="#fff" stop-opacity="0"/></radialGradient><radialGradient id="N" cx="64" cy="82" fx="64" fy="82" r="37.817" xlink:href="#X"><stop offset="0" stop-color="red"/><stop offset="1" stop-color="red" stop-opacity="0"/></radialGradient><filter x="-.135" width="1.269" y="-.135" height="1.269" id="O"><feGaussianBlur stdDeviation="4.243"/></filter><filter id="P"><feGaussianBlur stdDeviation=".402"/></filter><filter id="Q"><feGaussianBlur stdDeviation=".521"/></filter><filter id="R"><feGaussianBlur stdDeviation=".577"/></filter><filter id="S"><feGaussianBlur stdDeviation="1.234"/></filter><linearGradient id="T" x1="69.5" y1="39.156" x2="69.5" y2="103.657" xlink:href="#X"><stop offset="0" stop-color="#fff"/><stop offset="1" stop-color="#dfdfdf"/></linearGradient><radialGradient id="U" gradientTransform="matrix(1.3513697,0,0,1.3513697,-21.49693,-22.68578)" cx="62.781" cy="66.176" fx="62.781" fy="77.98" r="29.844" xlink:href="#X"><stop offset="0" stop-color="#590000"/><stop offset="1" stop-color="#590000" stop-opacity="0"/></radialGradient><path id="V" d="M28.03 20.063c-4.14.474-7.495 3.83-7.97 7.97L32 32l-3.97-11.937z"/><path id="W" d="M46.313 35.813L34.5 47.594l17.063 17.063L34.5 81.688 46.313 93.5l17.03-17.062L80.406 93.5l11.78-11.812-17.03-17.03 17.03-17.062-11.78-11.78-17.062 17.03-17.03-17.03z"/><linearGradient id="X" gradientUnits="userSpaceOnUse"/></defs><rect width="95.634" height="95.634" x="16.183" y="16.183" rx="6.005" opacity=".75" fill="#9c0f0f" stroke="#9c0f0f" stroke-width="8.5" filter="url(#Q)"/><g fill="none" stroke-width="8"><rect width="95.634" height="95.634" x="16.183" y="16.183" rx="6.005" stroke="url(#L)"/><rect width="95.634" height="95.634" x="16.183" y="16.183" rx="6.005" stroke="url(#B)"/><rect rx="6.005" y="16.183" x="16.183" height="95.634" width="95.634" opacity=".727" stroke="url(#M)"/></g><use xlink:href="#V" transform="matrix(0 1.19542 -1.19542 0 140.50776 -12.509486)" opacity=".6" fill="url(#K)" filter="url(#I)"/><use xlink:href="#V" transform="matrix(-1.19542 0 0 -1.19542 140.51037 140.50515)" opacity=".517" fill="url(#J)" filter="url(#I)"/><use xlink:href="#V" transform="matrix(0 -1.19542 1.19542 0 -12.504272 140.50777)" opacity=".517" fill="url(#J)" filter="url(#I)"/><use xlink:href="#V" transform="matrix(1.19542 0 0 1.19542 -12.506884 -12.506884)" opacity=".75" fill="url(#H)" filter="url(#I)"/><rect rx="6.245" y="16.183" x="16.183" height="95.634" width="95.634" fill="url(#C)"/><rect width="75.634" height="75.634" x="26.183" y="26.183" rx="25.502" transform="matrix(1.132216 0 0 1.07933 -8.461849 -3.077109)" fill="url(#N)" filter="url(#O)"/><path d="M22.422 16.183a6.22 6.22 0 0 0-6.239 6.239v42.1c12.542 2.732 26.265 4.26 40.644 4.26 20.094 0 38.9-2.95 54.99-8.07v-38.29a6.22 6.22 0 0 0-6.239-6.239H22.422z" fill="url(#D)"/><path d="M110.883 19.172c.184.595.26 1.247.26 1.905v38.85c-16.33 5.19-35.4 8.18-55.774 8.18-13.823 0-27.013-1.418-39.187-3.922v.336c12.542 2.732 26.265 4.26 40.644 4.26 20.094 0 38.9-2.95 54.99-8.07v-38.29c0-1.197-.356-2.303-.934-3.25z" fill="url(#E)"/><path d="M22.422 16.183a6.22 6.22 0 0 0-6.239 6.239v42.1l1.457.3V24.028c0-3.428 2.696-6.164 6.052-6.164h80.616c3.356 0 6.052 2.736 6.052 6.164V61.16l1.457-.448v-38.29a6.22 6.22 0 0 0-6.239-6.239H22.422z" fill="url(#F)"/><g fill="none"><rect width="80" height="80" x="24" y="24" rx="5.224" transform="matrix(1.19542 0 0 1.19542 -12.506884 -12.506884)" stroke="url(#G)" stroke-width=".418" filter="url(#P)"/><use xlink:href="#W" stroke="url(#U)" stroke-width="5" stroke-linejoin="round" filter="url(#S)"/></g><use xlink:href="#W" fill="url(#T)"/><path d="M46.313 35.813L34.5 47.594l17.063 17.063-2.97 2.97c5.04.777 10.4 1.188 15.97 1.188a106.1 106.1 0 0 0 13.844-.906l-3.25-3.25 17.03-17.062-11.78-11.78-17.062 17.03-17.03-17.03z" fill="#fff" filter="url(#R)"/></svg>