<svg xmlns="http://www.w3.org/2000/svg" xmlns:xlink="http://www.w3.org/1999/xlink" width="128" height="128"><defs><linearGradient id="A" xlink:href="#V"><stop offset="0" stop-color="#ff0"/><stop offset="1" stop-color="#ff0" stop-opacity="0"/></linearGradient><linearGradient id="B" xlink:href="#V"><stop offset="0" stop-color="#ffd500"/><stop offset="1" stop-color="#ff9" stop-opacity="0"/></linearGradient><radialGradient id="C" cx="63.684" cy="85.945" fx="63.684" fy="85.945" r="48.004" gradientTransform="matrix(4.125192,-0.4335743,0.1499795,1.4269598,-211.59742,-0.8510997)" xlink:href="#V"><stop offset="0" stop-color="#ff0"/><stop offset="1" stop-color="#ff7e00"/></radialGradient><linearGradient id="D" x1="74.715" y1="39.034" x2="74.715" y2="115.799" xlink:href="#V"><stop offset="0" stop-color="#fd0"/><stop offset="1" stop-color="#e15800"/></linearGradient><filter id="E"><feGaussianBlur stdDeviation=".455"/></filter><linearGradient id="F" x1="72.743" y1="102.715" x2="72.743" y2="42.471" xlink:href="#V"><stop offset="0" stop-color="#ffffbf"/><stop offset="1" stop-color="#ffffbf" stop-opacity="0"/></linearGradient><linearGradient id="G" x1="65.618" y1="14.326" x2="66.846" y2="88.39" xlink:href="#V"><stop offset="0" stop-color="#fff"/><stop offset="1" stop-color="#fff" stop-opacity="0"/></linearGradient><radialGradient xlink:href="#B" id="H" cx="22.005" cy="102" fx="22.005" fy="102" r="5.995" gradientTransform="matrix(8.2879791,-4.7852502,0.5464445,0.9465058,-219.3366,117.99253)"/><radialGradient xlink:href="#B" id="I" gradientTransform="matrix(-8.2879791,-4.7852502,-0.5464445,0.9465058,347.61812,117.99253)" cx="22.005" cy="102" fx="22.005" fy="102" r="5.995"/><radialGradient id="J" cx="64" cy="21.994" fx="64" fy="21.994" r="4.219" gradientTransform="matrix(-1,0,0,-12.343127,128,293.46933)" xlink:href="#V"><stop offset="0" stop-color="#fff"/><stop offset="1" stop-color="#fff" stop-opacity="0"/></radialGradient><filter x="-.102" width="1.204" y="-.072" height="1.143" id="K"><feGaussianBlur stdDeviation=".358"/></filter><linearGradient id="L" x1="56.716" y1="23.144" x2="73.133" y2="83.024" xlink:href="#V"><stop offset="0" stop-color="#fff"/><stop offset="1" stop-color="#fff" stop-opacity="0"/></linearGradient><linearGradient id="M" x1="64.654" y1="20.94" x2="82.169" y2="149.08" xlink:href="#V"><stop offset="0" stop-color="#ffc404"/><stop offset="1" stop-color="#ffc404" stop-opacity="0"/></linearGradient><filter id="N"><feGaussianBlur stdDeviation="1.443"/></filter><radialGradient id="O" cx="64.025" cy="25.957" fx="64.025" fy="25.957" r="52.025" gradientTransform="matrix(1.4073524,-0.049145829,0.033701767,0.9650923,-26.955636,5.4114576)" xlink:href="#V"><stop offset="0" stop-color="#ea3b18"/><stop offset="1" stop-color="#ea3b18" stop-opacity="0"/></radialGradient><linearGradient id="P" x1="85.398" y1="82.806" x2="61.265" y2="46.196" xlink:href="#V"><stop offset="0" stop-color="#fff"/><stop offset="1" stop-color="#fff" stop-opacity="0"/></linearGradient><linearGradient id="Q" x1="67.097" y1="35.312" x2="67.097" y2="105.405" xlink:href="#V"><stop offset="0" stop-color="#ac4311"/><stop offset="1" stop-color="#ea5418"/></linearGradient><filter x="-.114" width="1.228" y="-.03" height="1.061" id="R"><feGaussianBlur stdDeviation=".855"/></filter><radialGradient xlink:href="#A" id="S" cx="63.75" cy="68.478" fx="63.75" fy="68.478" r="9" gradientTransform="matrix(4.5093795,0,0,4.2142344,-223.72294,-220.10349)"/><radialGradient xlink:href="#A" id="T" gradientTransform="matrix(4.5093795,0,0,1.3282315,-223.72294,-5.5119394)" cx="63.75" cy="74.356" fx="63.75" fy="74.356" r="9"/><path id="U" d="M63.588 15.323c-2.705.16-5.152 1.805-6.502 4.368l-44.014 82.994a9.44 9.44 0 0 0 .003 8.74c1.432 2.703 4.076 4.367 6.937 4.364h88.028c2.86.003 5.505-1.66 6.937-4.364a9.44 9.44 0 0 0 .003-8.74L70.965 19.69c-1.507-2.86-4.36-4.55-7.377-4.368z"/><linearGradient id="V" gradientUnits="userSpaceOnUse"/></defs><g fill-rule="evenodd"><path d="M63.595 15.807c-2.506.148-4.773 1.66-6.024 4.017l-40.78 76.32a8.62 8.62 0 0 0 .003 8.037c1.326 2.486 3.777 4.016 6.427 4.013h81.558c2.65.003 5.1-1.527 6.427-4.013a8.62 8.62 0 0 0 .003-8.037l-40.78-76.32c-1.396-2.63-4.04-4.183-6.835-4.017z" transform="matrix(1.096723 0 0 1.100259 -6.190253 -2.209408)" fill="#ffc404" stroke="url(#M)" stroke-width="1.821" stroke-linejoin="round" filter="url(#N)"/><use xlink:href="#U" fill="url(#D)"/><use xlink:href="#U" fill="url(#O)" opacity=".367"/><path d="M63.594 16c-1.39.082-2.704.603-3.812 1.438L64 28l4.22-10.562C66.9 16.434 65.27 15.9 63.594 16z" transform="matrix(1.091984 0 0 1.092026 -7.251622 -2.149748)" opacity=".922" fill="url(#J)" filter="url(#K)"/><path d="M25.324 102.685l-12.83 2.15c-.53 2.196-.258 4.57.82 6.586 1.442 2.703 4.114 4.37 6.996 4.368h2.832l2.184-13.104z" opacity=".8" fill="url(#H)"/><path d="M102.958 102.685l12.83 2.15c.53 2.196.258 4.57-.82 6.586-1.442 2.703-4.114 4.37-6.996 4.368h-2.832l-2.184-13.104z" opacity=".72" fill="url(#I)"/><path d="M63.78 20.007c-1.352.08-2.575.905-3.25 2.2L16.536 105.43c-.715 1.356-.714 3.027.002 4.383s2.037 2.2 3.467 2.188h87.992c1.43.002 2.75-.833 3.467-2.188s.716-3.026.002-4.383L67.468 22.197c-.753-1.434-2.18-2.28-3.687-2.2z" fill="url(#C)"/></g><g fill="none"><path d="M63.406 36.72c-3.14.195-6.074 2.546-5.53 7.28l3.563 35.72c.752-.127 1.525-.22 2.313-.22.95 0 1.886.098 2.78.28L70.094 44c.7-4.956-3.13-7.502-6.687-7.28z" stroke="url(#S)" stroke-width="4" filter="url(#R)" opacity=".75"/><path d="M63.78 20a4 4 0 0 0-3.25 2l-44 76A4 4 0 0 0 20 104h88a4 4 0 0 0 3.469-6l-44-76a4 4 0 0 0-3.687-2z" transform="matrix(.998214 0 0 1.099224 -.250384 -2.696826)" stroke="url(#F)" stroke-width=".955" stroke-linejoin="round" filter="url(#E)"/></g><path d="M63.386 19.69c-1.373.08-2.614.902-3.3 2.184L34.132 70.163l25.954-47.025c.685-1.25 1.927-2.037 3.3-2.116 1.53-.088 2.98.722 3.744 2.116l25.224 45.66c.01-.002.022.002.032 0L67.13 21.875c-.765-1.43-2.213-2.275-3.744-2.184z" fill="url(#G)" fill-rule="evenodd"/><path d="M63.75 86.25c-3.864 0-7 3.136-7 7s3.136 7 7 7 7-3.136 7-7-3.136-7-7-7z" fill="none" stroke="url(#T)" stroke-width="4" filter="url(#R)" opacity=".75"/><path d="M63.406 36.72c-3.14.195-6.074 2.546-5.53 7.28l3.563 35.72c.752-.127 1.525-.22 2.313-.22.95 0 1.886.098 2.78.28L70.094 44c.7-4.956-3.13-7.502-6.687-7.28zm.344 49.53c-3.864 0-7 3.136-7 7s3.136 7 7 7 7-3.136 7-7-3.136-7-7-7z" fill="url(#Q)"/><g fill-rule="evenodd"><path d="M63.782 20.007c-1.383.08-2.634.902-3.325 2.184L34.275 70.48c8.03 1.265 16.654 1.945 25.638 1.945 11.833 0 23.044-1.176 33.087-3.3L67.554 22.19c-.77-1.43-2.23-2.275-3.772-2.184z" opacity=".867" fill="url(#L)"/><path d="M64.344 20.03c1.208.18 2.284.945 2.906 2.094L92.125 67.75c-9.813 2.075-20.782 3.22-32.344 3.22-8.675 0-16.983-.673-24.75-1.875l-.75 1.375c8.03 1.265 16.64 1.97 25.625 1.97 11.833 0 23.05-1.178 33.094-3.312L67.563 22.188c-.674-1.25-1.895-2.036-3.22-2.156z" fill="url(#P)"/></g></svg>