<svg xmlns="http://www.w3.org/2000/svg" xmlns:xlink="http://www.w3.org/1999/xlink" width="128" height="128"><defs><linearGradient id="A" xlink:href="#V"><stop offset="0" stop-color="#fff"/><stop offset="1" stop-color="#fff" stop-opacity="0"/></linearGradient><linearGradient id="B" xlink:href="#V"><stop offset="0" stop-color="#fff"/><stop offset="1" stop-color="#fff" stop-opacity="0"/></linearGradient><radialGradient id="C" cx="54.538" cy="85.874" fx="54.538" fy="108.216" r="48" gradientTransform="matrix(0.8464424,0,0,0.6348316,8.4693722,28.372944)" xlink:href="#V"><stop offset="0" stop-color="#9abcee"/><stop offset="1" stop-color="#092042"/></radialGradient><linearGradient id="D" x1="89.091" y1="107.897" x2="89.091" y2="34.849" xlink:href="#V"><stop offset="0" stop-color="#0c1f39"/><stop offset="1" stop-color="#204d90"/></linearGradient><linearGradient id="E" x1="83.325" y1="28.063" x2="83.325" y2="93.995" xlink:href="#V"><stop offset="0" stop-color="#c2e2f4"/><stop offset="1" stop-color="#c0e0f2" stop-opacity="0"/></linearGradient><radialGradient id="F" cx="52.792" cy="95.459" fx="53.16" fy="87.081" r="52" gradientTransform="matrix(1.0122143,0.078518053,-0.070968649,0.9148913,7.5716186,-3.7388379)" xlink:href="#V"><stop offset="0" stop-color="#001400"/><stop offset="1" stop-color="#001400" stop-opacity="0"/></radialGradient><radialGradient xlink:href="#B" id="G" cx="99.766" cy="29.375" fx="99.766" fy="29.375" r="3.016" gradientTransform="matrix(1.9646726,3.4242959e-7,-0.0000010414508,5.9752716,-167.24113699999998,-126.14811)"/><radialGradient xlink:href="#B" id="H" gradientTransform="matrix(1.9646726,3.4242959e-7,-0.0000010414508,5.9752716,-167.24113699999998,-126.14811)" cx="99.766" cy="29.375" fx="99.766" fy="29.375" r="3.016"/><radialGradient xlink:href="#B" id="I" gradientTransform="matrix(1.9646726,3.4242959e-7,-0.0000010414508,5.9752716,-167.24116,-126.14811)" cx="99.766" cy="29.375" fx="99.766" fy="29.375" r="3.016"/><linearGradient id="J" x1="71.604" y1="96.884" x2="71.604" y2="47.379" xlink:href="#V"><stop offset="0" stop-color="#a8dde0"/><stop offset="1" stop-color="#a8dde0" stop-opacity=".206"/></linearGradient><filter id="K"><feGaussianBlur stdDeviation=".425"/></filter><linearGradient xlink:href="#A" id="L" x1="87.533" y1="74.839" x2="77.138" y2="46.277"/><linearGradient xlink:href="#A" id="M" x1="83.325" y1="28.063" x2="83.325" y2="73.838"/><radialGradient id="N" gradientTransform="matrix(1.9646726,3.4242959e-7,-1.0414508e-6,5.9752716,-167.24116,-126.14811)" cx="99.766" cy="29.375" fx="99.766" fy="29.375" r="3.016" xlink:href="#V"><stop offset="0" stop-color="#00c4cc"/><stop offset="1" stop-color="#00c4cc" stop-opacity="0"/></radialGradient><filter id="O"><feGaussianBlur stdDeviation=".461"/></filter><radialGradient xlink:href="#B" id="P" gradientTransform="matrix(1.0961401,0.087912098,-0.1002304,1.2497316,1.0599334,-18.687387)" cx="53.633" cy="51.92" fx="53.633" fy="51.92" r="52"/><filter id="Q"><feBlend mode="lighten" in2="BackgroundImage"/></filter><filter id="R" x="-.182" width="1.365" y="-.103" height="1.206"><feGaussianBlur stdDeviation=".458"/></filter><filter id="S" x="-.104" width="1.208" y="-.185" height="1.37"><feGaussianBlur stdDeviation=".458"/></filter><path id="T" d="M54.394 74.154L28.63 47.75 16 60.698l38.394 39.355L112 41 99.367 28.053l-44.973 46.1z"/><path id="U" d="M28.406 44.03c-.15-.002-.287.017-.437.03a3.98 3.98 0 0 0-2.219.969l1.688 9.688.938-.937.375.375 3.03-8.344-.562-.562c-.74-.76-1.763-1.202-2.812-1.22z"/><linearGradient id="V" gradientUnits="userSpaceOnUse"/></defs><g fill="none" stroke-linejoin="round"><use xlink:href="#T" stroke="#081c39" stroke-width="8.1" filter="url(#O)"/><g stroke-width="8"><use xlink:href="#T" stroke="url(#D)"/><use xlink:href="#T" stroke="url(#P)" opacity=".286" filter="url(#Q)"/></g></g><use xlink:href="#U" transform="matrix(1 0 0 -1 26 147.74979)" opacity=".4" fill="url(#N)" filter="url(#R)"/><use xlink:href="#U" x="71" y="-20" transform="matrix(-.34202 .939693 .939693 .34202 24.20981 -42.203299)" opacity=".238" fill="url(#H)" filter="url(#S)"/><use xlink:href="#U" opacity=".776" fill="url(#I)" filter="url(#R)"/><use xlink:href="#U" x="71" y="-20" transform="matrix(.34202 .939693 -.939693 .34202 104.53338 -62.203299)" opacity=".37" fill="url(#H)" filter="url(#S)"/><use xlink:href="#U" x="71" y="-20" fill="url(#G)" filter="url(#R)" opacity=".87"/><use xlink:href="#T" fill="none" stroke="url(#F)" stroke-width="8" stroke-linejoin="round"/><use xlink:href="#T" fill="url(#C)"/><path d="M99.375 28.063c0 0-35.257 36.14-44.97 46.094L28.625 47.75 16 60.688l16.47 16.875h.563c17.53 0 34.136-2.093 49.03-5.844L112 41 99.375 28.063z" fill="url(#E)"/><use xlink:href="#T" fill="none" stroke="url(#J)" filter="url(#K)"/><path d="M99.375 28.063l-.406.438 12.188 12.28-30 30.22C66.23 74.688 50.1 77.22 32.53 77.22c-.126 0-.25 0-.375 0l.313.344h.563c17.53 0 34.136-2.093 49.03-5.844L112 41 99.375 28.063z" fill="url(#L)"/><path d="M99.375 28.063c0 0-35.257 36.14-44.97 46.094L28.625 47.75 16 60.688l.5.5L28.625 48.75l25.78 26.406 44.97-46.094L111.5 41.5l.5-.5-12.625-12.937z" fill="url(#M)"/></svg>