<svg xmlns="http://www.w3.org/2000/svg" xmlns:xlink="http://www.w3.org/1999/xlink" width="128" height="128"><defs><linearGradient id="A" xlink:href="#W"><stop offset="0" stop-color="#fff"/><stop offset="1" stop-color="#fff" stop-opacity="0"/></linearGradient><linearGradient id="B" xlink:href="#W"><stop offset="0" stop-color="#f0ff80"/><stop offset="1" stop-color="#f0ff80" stop-opacity="0"/></linearGradient><linearGradient id="C" xlink:href="#W"><stop offset="0" stop-color="#fff"/><stop offset="1" stop-color="#fff" stop-opacity="0"/></linearGradient><radialGradient id="D" cx="54.538" cy="77.542" fx="54.538" fy="99.884" r="48" gradientTransform="matrix(1.3117247,5.8470212e-8,-4.3852649e-8,0.9837933,-16.905997,1.313725)" xlink:href="#W"><stop offset="0" stop-color="#66f515"/><stop offset="1" stop-color="#002e00"/></radialGradient><linearGradient id="E" x1="89.091" y1="107.897" x2="89.091" y2="34.849" xlink:href="#W"><stop offset="0" stop-color="#003100"/><stop offset="1" stop-color="#008c00"/></linearGradient><linearGradient id="F" x1="83.325" y1="28.063" x2="83.325" y2="93.995" xlink:href="#W"><stop offset="0" stop-color="#bfffbf"/><stop offset="1" stop-color="#bfffbf" stop-opacity="0"/></linearGradient><radialGradient id="G" cx="52.792" cy="95.459" fx="53.16" fy="87.081" r="52" gradientTransform="matrix(0.5646619,8.5323328e-8,-1.386601e-7,0.9176397,24.424169,0.1439155)" xlink:href="#W"><stop offset="0" stop-color="#001400"/><stop offset="1" stop-color="#001400" stop-opacity="0"/></radialGradient><radialGradient xlink:href="#C" id="H" cx="99.766" cy="29.375" fx="99.766" fy="29.375" r="3.016" gradientTransform="matrix(1.9646726,3.4242959e-7,-0.0000010414508,5.9752716,-167.24113699999998,-126.14811)"/><radialGradient xlink:href="#C" id="I" gradientTransform="matrix(1.9646726,3.4242959e-7,-0.0000010414508,5.9752716,-167.24113699999998,-126.14811)" cx="99.766" cy="29.375" fx="99.766" fy="29.375" r="3.016"/><radialGradient xlink:href="#C" id="J" gradientTransform="matrix(1.9646726,3.4242959e-7,-0.0000010414508,5.9752716,-167.24116,-126.14811)" cx="99.766" cy="29.375" fx="99.766" fy="29.375" r="3.016"/><linearGradient xlink:href="#B" id="K" x1="71.604" y1="96.884" x2="71.604" y2="47.379"/><filter id="L"><feGaussianBlur stdDeviation=".425"/></filter><linearGradient xlink:href="#A" id="M" x1="87.533" y1="74.839" x2="77.138" y2="46.277"/><linearGradient xlink:href="#A" id="N" x1="83.325" y1="28.063" x2="83.325" y2="73.838"/><radialGradient xlink:href="#B" id="O" gradientTransform="matrix(1.9646726,3.4242959e-7,-1.0414508e-6,5.9752716,-167.24116,-126.14811)" cx="99.766" cy="29.375" fx="99.766" fy="29.375" r="3.016"/><filter id="P"><feGaussianBlur stdDeviation=".461"/></filter><radialGradient xlink:href="#C" id="Q" gradientTransform="matrix(1.0961401,0.087912098,-0.1002304,1.2497316,1.0599334,-18.687387)" cx="53.633" cy="51.92" fx="53.633" fy="51.92" r="52"/><filter id="R"><feBlend mode="lighten" in2="BackgroundImage"/></filter><filter id="S" x="-.182" width="1.365" y="-.103" height="1.206"><feGaussianBlur stdDeviation=".458"/></filter><filter id="T" x="-.104" width="1.208" y="-.185" height="1.37"><feGaussianBlur stdDeviation=".458"/></filter><path id="U" d="M54.394 74.154L28.63 47.75 16 60.698l38.394 39.355L112 41 99.367 28.053l-44.973 46.1z"/><path id="V" d="M28.406 44.03c-.15-.002-.287.017-.437.03a3.98 3.98 0 0 0-2.219.969l1.688 9.688.938-.937.375.375 3.03-8.344-.562-.562c-.74-.76-1.763-1.202-2.812-1.22z"/><linearGradient id="W" gradientUnits="userSpaceOnUse"/></defs><g fill="none" stroke-linejoin="round"><use xlink:href="#U" stroke="#004d00" stroke-width="8.1" filter="url(#P)"/><g stroke-width="8"><use xlink:href="#U" stroke="url(#E)"/><use xlink:href="#U" stroke="url(#Q)" opacity=".286" filter="url(#R)"/></g></g><use xlink:href="#V" transform="matrix(1 0 0 -1 26 147.74979)" opacity=".4" fill="url(#O)" filter="url(#S)"/><use xlink:href="#V" x="71" y="-20" transform="matrix(-.34202 .939693 .939693 .34202 24.20981 -42.203299)" opacity=".238" fill="url(#I)" filter="url(#T)"/><use xlink:href="#V" opacity=".776" fill="url(#J)" filter="url(#S)"/><use xlink:href="#V" x="71" y="-20" transform="matrix(.34202 .939693 -.939693 .34202 104.53338 -62.203299)" opacity=".37" fill="url(#I)" filter="url(#T)"/><use xlink:href="#V" x="71" y="-20" fill="url(#H)" filter="url(#S)" opacity=".87"/><use xlink:href="#U" fill="none" stroke="url(#G)" stroke-width="8" stroke-linejoin="round" opacity=".286"/><use xlink:href="#U" fill="url(#D)"/><path d="M99.375 28.063c0 0-35.257 36.14-44.97 46.094L28.625 47.75 16 60.688l16.47 16.875h.563c17.53 0 34.136-2.093 49.03-5.844L112 41 99.375 28.063z" fill="url(#F)"/><use xlink:href="#U" fill="none" stroke="url(#K)" filter="url(#L)"/><path d="M99.375 28.063l-.406.438 12.188 12.28-30 30.22C66.23 74.688 50.1 77.22 32.53 77.22c-.126 0-.25 0-.375 0l.313.344h.563c17.53 0 34.136-2.093 49.03-5.844L112 41 99.375 28.063z" fill="url(#M)"/><path d="M99.375 28.063c0 0-35.257 36.14-44.97 46.094L28.625 47.75 16 60.688l.5.5L28.625 48.75l25.78 26.406 44.97-46.094L111.5 41.5l.5-.5-12.625-12.937z" fill="url(#N)"/></svg>