<svg xmlns="http://www.w3.org/2000/svg" xmlns:xlink="http://www.w3.org/1999/xlink" width="128" height="128"><defs><linearGradient id="A" xlink:href="#a"><stop offset="0" stop-color="#fff"/><stop offset="1" stop-color="#fff" stop-opacity="0"/></linearGradient><linearGradient id="B" xlink:href="#a"><stop offset="0" stop-color="#ffbfbf"/><stop offset="1" stop-color="#ffbfbf" stop-opacity="0"/></linearGradient><linearGradient id="C" xlink:href="#a"><stop offset="0" stop-color="#1a0000"/><stop offset="1" stop-color="#a20000" stop-opacity="0"/></linearGradient><filter id="D"><feGaussianBlur stdDeviation=".164"/></filter><filter id="E"><feGaussianBlur stdDeviation=".287"/></filter><filter height="1.207" y="-.104" width="1.173" x="-.087" id="F"><feGaussianBlur stdDeviation="1.31"/></filter><filter height="1.256" y="-.128" width="1.081" x="-.04" id="G"><feGaussianBlur stdDeviation=".598"/></filter><filter height="1.516" y="-.258" width="1.109" x="-.054" id="H"><feGaussianBlur stdDeviation=".669"/></filter><clipPath id="I"><path d="M-826.904 227.344c-31.725 0-57.53 25.806-57.53 57.53s25.806 57.53 57.53 57.53 57.563-25.806 57.563-57.53-25.837-57.53-57.562-57.53zm0 18.313c7.044 0 13.604 1.913 19.313 5.156l-53.375 53.375c-3.243-5.708-5.156-12.268-5.156-19.312 0-21.688 17.53-39.22 39.22-39.22zm35.563 22.78c2.328 5.002 3.656 10.554 3.656 16.438 0 21.688-17.53 39.22-39.22 39.22-5.883 0-11.435-1.328-16.437-3.656l52-52z" opacity="1" fill="url(#J)" fill-opacity="1" stroke="none"/></clipPath><linearGradient x1="-815.435" y1="365.376" x2="-807.889" y2="206.375" id="J" xlink:href="#C"/><linearGradient xlink:href="#C" id="K" x1="85.383" y1="326.132" x2="90.101" y2="160.767"/><radialGradient id="L" gradientTransform="matrix(1,7.1693163e-7,-7.7186683e-7,1.0766255,1.795441e-4,-17.823295)" cx="-824.581" cy="232.61" fx="-824.581" fy="232.61" r="23.938" xlink:href="#a"><stop offset="0" stop-color="#fff"/><stop offset="1" stop-color="#fff" stop-opacity="0"/></radialGradient><radialGradient id="M" gradientTransform="matrix(1,0,0,0.3160957,0,222.83692)" cx="-825.971" cy="315.764" fx="-825.971" fy="315.764" r="17.75" xlink:href="#a"><stop offset="0" stop-color="#fff"/><stop offset="1" stop-color="#fff" stop-opacity="0"/></radialGradient><radialGradient xlink:href="#B" id="N" gradientTransform="matrix(1,-5.9653348e-8,1.4682541e-7,2.4613106,-4.8987084e-5,-487.55424)" cx="-825.225" cy="337.203" fx="-825.225" fy="337.203" r="14.766"/><radialGradient xlink:href="#A" id="O" gradientTransform="matrix(0.383106,0.3947293,-1.3121017,1.2734652,-149.51024,248.31073)" cx="-830.375" cy="275.741" fx="-830.375" fy="275.741" r="18.125"/><linearGradient id="P" x1="80.022" y1="344.783" x2="83.016" y2="238.207" xlink:href="#a"><stop offset="0" stop-color="#efa040"/><stop offset="1" stop-color="#c0a331" stop-opacity="0"/></linearGradient><linearGradient xlink:href="#A" id="Q" x1="131.618" y1="101.022" x2="59.21" y2="34.983"/><linearGradient xlink:href="#A" id="R" x1="54.078" y1="-14.119" x2="70.203" y2="92.115"/><linearGradient xlink:href="#B" id="S" x1="54.364" y1="-13.904" x2="70.489" y2="92.33"/><radialGradient id="T" gradientTransform="matrix(1.2632322,0,0,1.5245906,165.09903,-31.579826)" cx="-79.25" cy="81.75" fx="-79.25" fy="81.75" r="43.5" xlink:href="#a"><stop offset="0" stop-color="red"/><stop offset="1" stop-color="#7f0000"/></radialGradient><linearGradient xlink:href="#C" id="U" x1="76.588" y1="145.447" x2="84.223" y2="-15.423"/><linearGradient id="V" x1="67.988" y1="15.437" x2="65" y2="131.788" xlink:href="#a"><stop offset="0" stop-color="#bf0000"/><stop offset="1" stop-color="#8c0000"/></linearGradient><filter id="W"><feGaussianBlur stdDeviation=".575"/></filter><filter id="X"><feGaussianBlur stdDeviation=".275"/></filter><path id="Y" d="M64.984 5.792C32.886 5.792 6.777 31.902 6.777 64s26.11 58.208 58.208 58.208 58.24-26.11 58.24-58.208-26.14-58.208-58.24-58.208zm0 18.528c7.127 0 13.764 1.936 19.54 5.217L30.52 83.54c-3.28-5.775-5.217-12.413-5.217-19.54 0-21.943 17.737-39.68 39.68-39.68zm35.98 23.05c2.356 5.06 3.7 10.678 3.7 16.63 0 21.943-17.737 39.68-39.68 39.68-5.952 0-11.57-1.344-16.63-3.7l52.61-52.61z"/><path id="Z" d="M76.04 236.533c-29.808 0-54 24.192-54 54s24.192 54 54 54 54-24.192 54-54-24.192-54-54-54zm0 11.237c9.31 0 17.947 2.98 24.97 8.038l-59.697 59.697c-5.06-7.024-8.038-15.66-8.038-24.97 0-23.605 19.158-42.763 42.763-42.763zm36.442 20.445c3.992 6.502 6.32 14.134 6.32 22.318 0 23.605-19.158 42.763-42.763 42.763-8.184 0-15.816-2.33-22.318-6.32l58.76-58.76z"/><linearGradient id="a" gradientUnits="userSpaceOnUse"/></defs><path d="M76.035 233c-31.725 0-57.53 25.806-57.53 57.53s25.806 57.53 57.53 57.53 57.563-25.806 57.563-57.53S107.76 233 76.035 233zm0 18.313c7.044 0 13.604 1.913 19.313 5.156l-53.375 53.375c-3.243-5.708-5.156-12.268-5.156-19.312 0-21.688 17.53-39.22 39.22-39.22zm35.563 22.78c2.328 5.002 3.656 10.554 3.656 16.438 0 21.688-17.53 39.22-39.22 39.22-5.883 0-11.435-1.328-16.437-3.656l52-52z" transform="matrix(1.011755 0 0 1.011755 -11.945064 -229.64717)" fill="url(#K)" filter="url(#W)"/><use xlink:href="#Y" fill="url(#V)"/><use xlink:href="#Y" fill="url(#U)"/><g transform="matrix(1.011755 0 0 1.011755 901.39965 -224.22382)" clip-path="url(#I)"><path d="M-825.55 227.345c-8.163 0-15.928 1.734-22.97 4.813 5.963 3.5 14.81 5.72 24.72 5.72 9.068 0 17.26-1.846 23.156-4.844-7.54-3.632-15.994-5.687-24.906-5.687z" fill="url(#L)" filter="url(#E)"/><path d="M-809.85 320.22a39.07 39.07 0 0 1-17 3.875c-3.677 0-7.23-.51-10.594-1.47l-4.156 6.25c10.114 2.625 21.402 3.687 35.5 1l-3.72-9.656h-.03z" fill="url(#M)" filter="url(#G)"/><path d="M-813.35 336.2c-7.61 2.106-15.22 3.255-22.828.686l-3.812 4.25c3.887.832 7.93 1.28 12.063 1.28a57.34 57.34 0 0 0 17.469-2.719l-2.9-3.5z" opacity=".436" fill="url(#N)" filter="url(#H)"/><path d="M-816.838 260.064l-25.062 25.063 2.75 5.25 33.5-28-11.187-2.312z" fill="url(#O)" filter="url(#F)"/></g><path d="M64.988 9.366C34.83 9.366 10.353 33.843 10.353 64s24.476 54.635 54.635 54.635S119.623 94.16 119.623 64 95.146 9.366 64.988 9.366zm0 11.37c9.42 0 18.158 3.014 25.265 8.132L29.854 89.266C24.736 82.16 21.722 73.422 21.722 64c0-23.883 19.383-43.266 43.266-43.266zm36.87 20.685c4.04 6.578 6.395 14.3 6.395 22.58 0 23.883-19.383 43.266-43.266 43.266-8.28 0-16.002-2.356-22.58-6.395l59.45-59.45z" fill="url(#T)"/><path d="M64.988 9.366C34.83 9.366 10.353 33.843 10.353 64c0 .424.022.843.032 1.265 3.7.744 7.508 1.36 11.445 1.897-.075-1.04-.095-2.102-.095-3.162 0-23.883 19.37-43.253 43.253-43.253 9.42 0 18.155 3.007 25.262 8.126L50.064 69.06h.253c8.795 0 17.3-.515 25.39-1.486l26.148-26.148a43.07 43.07 0 0 1 6.26 19.129c3.9-1.296 7.544-2.73 10.94-4.268C115.3 29.78 92.527 9.366 64.988 9.366z" fill="url(#S)"/><path d="M64.702 9.15c-30.158 0-54.635 24.476-54.635 54.635v.474c.3-29.9 24.656-54.097 54.635-54.097 27.208 0 49.75 19.93 53.908 45.972.05-.023.107-.04.158-.063C115.014 29.564 92.24 9.15 64.702 9.15zM49.778 68.845H50.8L89.76 29.367 49.778 68.845zm-28.33-4.458v.41c0 .72.034 1.435.063 2.15.01.001.02-.001.032 0-.06-.843-.088-1.703-.095-2.56z" fill="url(#R)"/><path d="M91.925 16.46c13.507 8.343 23.098 22.395 25.42 38.794-2.993 1.356-5.89 3.23-9.277 4.4.052.463.02.316.057.784 3.9-1.296 7.342-2.73 10.737-4.268-2.407-17-12.644-31.502-26.938-39.71zm-26.723 3.66c-23.883 0-44.467 18.965-44.467 42.848 0 1.06-.688 2.12-.613 3.162-3.4-.463-6.706-1-9.928-1.612.007.2-.005.422 0 .632 3.7.744 7.508 1.36 11.445 1.897-.075-1.04-.095-2.102-.095-3.162 0-23.883 19.37-43.253 43.253-43.253 7.614 0 14.774 1.95 20.994 5.407-6.562-4.005-12.346-5.92-20.59-5.92zm8.796 46.42c-7.405.89-15.17 1.375-23.176 1.454l-.95.95h.253c8.795 0 17.3-.515 25.39-1.486l25.515-25.515-27.033 24.598z" fill="url(#Q)"/><g transform="matrix(1.011755 0 0 1.011755 -11.945064 -229.94717)" fill="none"><use xlink:href="#Z" stroke="url(#P)" stroke-width="1.483" stroke-dashoffset="4.15000000000000036" stroke-opacity=".44" filter="url(#X)"/><use xlink:href="#Z" stroke="url(#P)" stroke-width=".87" stroke-dashoffset="4.15" stroke-opacity=".44" filter="url(#D)"/></g></svg>