<svg xmlns="http://www.w3.org/2000/svg" xmlns:xlink="http://www.w3.org/1999/xlink" width="128" height="128" overflow="visible" viewBox="0 0 121 120"><defs><linearGradient id="A" xlink:href="#V"><stop stop-color="#fff" offset="0"/><stop stop-color="#fff" stop-opacity="0" offset="1"/></linearGradient><filter id="B"><feGaussianBlur stdDeviation=".554"/></filter><filter id="C"><feGaussianBlur stdDeviation="1.914"/></filter><clipPath id="D"><path d="m-135.84 93.332a30.69 30.69 0 1 1-61.38 0 30.69 30.69 0 1 1 61.38 0z" fill="url(#E)" filter="url(#C)"/></clipPath><radialGradient id="E" cx="-166.53" cy="65.938" r="31.19" gradientTransform="matrix(1 0 0 .65782 0 22.563)" xlink:href="#A"/><radialGradient id="F" cx="-166.53" cy="65.938" r="31.19" gradientTransform="matrix(0.53756,0,0,0.65782,-77.01,22.563)" xlink:href="#V"><stop stop-color="#00c4cc" offset="0"/><stop stop-color="#fff" stop-opacity="0" offset="1"/></radialGradient><radialGradient id="G" cx="-166.53" cy="84.275" r="31.19" gradientTransform="matrix(0,1,-1,0,-39.998,140)" xlink:href="#V"><stop stop-color="#0081ec" offset="0"/><stop stop-color="#003871" offset="1"/></radialGradient><radialGradient id="H" cx="-166.53" cy="116.62" r="31.19" gradientTransform="matrix(0,1,-1,0,-39.998,140)" xlink:href="#V"><stop stop-color="#0081ec" offset="0"/><stop stop-color="#004c98" offset="1"/></radialGradient><linearGradient id="I" x1="55.865" x2="57.011" y1="10.812" y2="50.314" xlink:href="#A"/><linearGradient id="J" x1="85.645" x2="47.068" y1="75.638" y2="37.825" xlink:href="#V"><stop stop-color="#fff" offset="0"/><stop stop-color="#fff" stop-opacity="0" offset="1"/></linearGradient><linearGradient id="K" x1="55.865" x2="55.865" y1="-101.139" y2="72.676" xlink:href="#V"><stop stop-color="#fff" offset="0"/><stop stop-color="#fff" stop-opacity="0" offset="1"/></linearGradient><linearGradient id="L" x1="94.804" x2="94.804" y1="10.788" y2="99.454" xlink:href="#V"><stop stop-color="#a4c0e4" offset="0"/><stop stop-color="#a4c0e4" stop-opacity="0" offset="1"/></linearGradient><filter id="M"><feGaussianBlur stdDeviation=".614"/></filter><linearGradient id="N" x1="-175.86" x2="-174.98" y1="125.06" y2="67.386" xlink:href="#V"><stop stop-color="#00316e" offset="0"/><stop stop-color="#00316e" stop-opacity="0" offset="1"/></linearGradient><radialGradient id="O" cx="58.609" cy="39.362" r="11.462" gradientTransform="matrix(3.9306 0 0 1.1237 -171.76 -4.5553)" xlink:href="#V"><stop stop-color="#00316e" offset="0"/><stop stop-color="#00316e" stop-opacity="0" offset="1"/></radialGradient><filter id="P"><feGaussianBlur stdDeviation=".458"/></filter><radialGradient id="Q" cx="61.031" cy="77.887" r="17.016" gradientTransform="matrix(2.8702 0 0 2.3396 -113.15 -101.55)" xlink:href="#V"><stop stop-color="#00316e" offset="0"/><stop stop-color="#00316e" stop-opacity="0" offset="1"/></radialGradient><filter id="R"><feGaussianBlur stdDeviation=".87"/></filter><filter id="S"><feGaussianBlur stdDeviation=".115"/></filter><path id="T" d="m-135.84 93.332a30.69 30.69 0 1 1-61.38 0 30.69 30.69 0 1 1 61.38 0z"/><path id="U" d="M68.062 86.47h7.563v7.563h-30.25V86.47h7.563V56.22h-7.562v-7.562h22.688V86.47z"/><linearGradient id="V" gradientUnits="userSpaceOnUse"/></defs><filter><feGaussianBlur stdDeviation="3"/></filter><filter ><feGaussianBlur stdDeviation="2"/></filter><filter ><feGaussianBlur stdDeviation="1"/></filter><g transform="matrix(-1.7332 0 0 1.7332 -228.14 -101.76)"><use xlink:href="#T" fill="url(#N)" filter="url(#M)"/><path d="m-135.84 93.332a30.69 30.69 0 1 1-61.38 0 30.69 30.69 0 1 1 61.38 0z" fill="url(#E)" filter="url(#C)"/></g><use xlink:href="#T" transform="matrix(-1.7208 0 0 -1.7208 -226.07 220.61)" clip-path="url(#D)" fill="url(#F)" filter="url(#C)"/><g transform="matrix(-1.7208 0 0 1.7208 -226.07 -100.61)"><use xlink:href="#T" fill="url(#G)"/><path d="m-135.84 93.332a30.69 30.69 0 1 1-61.38 0 30.69 30.69 0 1 1 61.38 0z" clip-path="url(#D)" fill="url(#E)" filter="url(#C)"/></g><use xlink:href="#T" transform="matrix(-1.5966 0 0 1.5966 -205.38 -89.237)" fill="url(#H)"/><path d="M60.495 10.793c-27.048 0-48.98 21.93-48.98 48.98 0 2.518.16 5 .527 7.426.003.017-.003.036 0 .053 10.3 1.647 21.266 2.475 32.653 2.475 24.328 0 46.784-4.065 64.78-10.902-.506-26.61-22.248-48.03-48.98-48.03z" fill="url(#L)" opacity=".892"/><path transform="matrix(.88063 0 0 .88063 8.8868 3.2756)" d="m68.062 35.422a9.4531 9.4531 0 1 1-18.906 0 9.4531 9.4531 0 1 1 18.906 0z" fill="none" filter="url(#P)" opacity=".3" stroke="url(#O)" stroke-linejoin="round" stroke-width="4.294"/><path transform="matrix(-1.6853 0 0 1.6853 -116.54 -106.77)" d="M-134.1 98.625l-.03.5c0 16.05 13.044 29.062 29.094 29.062s29.063-13.013 29.062-29.062v-.5c-.267 15.82-13.18 28.562-29.062 28.562s-28.795-12.744-29.062-28.562z" fill="#007fea" filter="url(#B)"/><path d="M60.466 10.828c-27.048 0-48.98 21.93-48.98 48.98v.737c.505-26.6 22.248-48.03 48.98-48.03 26.163 0 47.555 20.524 48.927 46.346.015-.006.037.006.053 0-.506-26.61-22.248-48.03-48.98-48.03z" fill="url(#K)"/><path d="M60.466 10.828c-27.048 0-48.98 21.93-48.98 48.98v.737c.505-26.6 22.248-48.705 48.98-48.705 26.163 0 47.555 21.198 48.927 47.02.015-.006.037.006.053 0-.506-26.61-22.248-48.03-48.98-48.03z" fill="url(#I)" opacity=".8"/><path d="M78.82 14.338c16.25 7.746 29.61 24.946 29.974 44.056C90.798 65.23 65.348 68.998 41.02 68.998c-9.474.2-18.647-.127-29.033-1.783.003.017-.003.036 0 .053 10.3 1.647 21.266 2.475 32.653 2.475 24.328 0 46.784-4.065 64.78-10.902-.383-20.144-12.926-37.347-30.6-44.503z" fill="url(#J)" opacity=".6"/><use xlink:href="#U" fill="none" filter="url(#R)" opacity=".5" stroke="url(#Q)" stroke-width="3.781"/><path d="M68.824 34.47c.014 2.983-1.57 5.746-4.15 7.24s-5.766 1.496-8.347 0-4.165-4.258-4.15-7.24c-.014-2.983 1.57-5.746 4.15-7.24s5.766-1.496 8.347 0 4.165 4.258 4.15 7.24z" fill="#fff"/><use xlink:href="#U" fill="#eee"/><path transform="matrix(.96254 0 0 .96254 -.8268 -1.3957)" d="M48 52v8l7.857-.143v14.125c5.452-.208 10.503-.464 15.714-1.044V52H48z" fill="#fff" filter="url(#S)"/></svg>