<svg width="128" height="128" xmlns="http://www.w3.org/2000/svg" xmlns:xlink="http://www.w3.org/1999/xlink"><defs><linearGradient id="A" xlink:href="#V"><stop stop-color="#fff" offset="0"/><stop stop-color="#fff" stop-opacity="0" offset="1"/></linearGradient><radialGradient id="C" cx="54.538" cy="85.874" r="48" fy="108.22" gradientTransform="matrix(.84644 0 0 .63483 8.4694 28.373)" xlink:href="#V"><stop stop-color="#9abcee" offset="0"/><stop stop-color="#092042" offset="1"/></radialGradient><linearGradient id="D" x1="89.091" x2="89.091" y1="107.9" y2="34.849" xlink:href="#V"><stop stop-color="#0c1f39" offset="0"/><stop stop-color="#204d90" offset="1"/></linearGradient><linearGradient id="E" x1="83.325" x2="83.325" y1="28.063" y2="93.995" xlink:href="#V"><stop stop-color="#c2e2f4" offset="0"/><stop stop-color="#c0e0f2" stop-opacity="0" offset="1"/></linearGradient><radialGradient id="F" cx="52.792" cy="95.459" r="52" fx="53.16" fy="87.081" gradientTransform="matrix(1.0122 .078518 -.070969 .91489 7.5716 -3.7388)" xlink:href="#V"><stop stop-color="#001400" offset="0"/><stop stop-color="#001400" stop-opacity="0" offset="1"/></radialGradient><radialGradient id="G" cx="99.766" cy="29.375" r="3.016" gradientTransform="matrix(1.9647 3.4243e-7 -1.0415e-6 5.9753 -167.24 -126.15)" xlink:href="#A"/><linearGradient id="J" x1="71.604" x2="71.604" y1="96.884" y2="47.379" xlink:href="#V"><stop stop-color="#a8dde0" offset="0"/><stop stop-color="#a8dde0" stop-opacity=".206" offset="1"/></linearGradient><filter id="K"><feGaussianBlur stdDeviation=".425"/></filter><linearGradient id="L" x1="87.533" x2="77.138" y1="74.839" y2="46.277" xlink:href="#A"/><linearGradient id="M" x1="83.325" x2="83.325" y1="28.063" y2="73.838" xlink:href="#A"/><radialGradient id="N" cx="99.766" cy="29.375" r="3.016" gradientTransform="matrix(1.9647 3.4243e-7 -1.0415e-6 5.9753 -167.24 -126.15)" xlink:href="#V"><stop stop-color="#00c4cc" offset="0"/><stop stop-color="#00c4cc" stop-opacity="0" offset="1"/></radialGradient><filter id="O"><feGaussianBlur stdDeviation=".461"/></filter><radialGradient id="P" cx="53.633" cy="51.92" r="52" gradientTransform="matrix(1.0961 .087912 -.10023 1.2497 1.0599 -18.687)" xlink:href="#A"/><filter id="Q"><feBlend in2="BackgroundImage" mode="lighten"/></filter><filter id="R" x="-.182" y="-.103" width="1.365" height="1.206"><feGaussianBlur stdDeviation=".458"/></filter><filter id="S" x="-.104" y="-.185" width="1.208" height="1.37"><feGaussianBlur stdDeviation=".458"/></filter><path id="T" d="M54.394 74.154L28.63 47.75 16 60.698l38.394 39.355L112 41 99.367 28.053l-44.973 46.1z"/><path id="U" d="M28.406 44.03c-.15-.002-.287.017-.437.03a3.98 3.98 0 0 0-2.219.969l1.688 9.688.938-.937.375.375 3.03-8.344-.562-.562c-.74-.76-1.763-1.202-2.812-1.22z"/><linearGradient id="V" gradientUnits="userSpaceOnUse"/></defs><g fill="none" stroke-linejoin="round"><use filter="url(#O)" stroke="#081c39" stroke-width="8.1" xlink:href="#T"/><g stroke-width="8"><use stroke="url(#D)" xlink:href="#T"/><use filter="url(#Q)" opacity=".286" stroke="url(#P)" xlink:href="#T"/></g></g><use transform="matrix(1 0 0 -1 26 147.75)" fill="url(#N)" filter="url(#R)" opacity=".4" xlink:href="#U"/><use transform="matrix(-.34202 .93969 .93969 .34202 24.21 -42.203)" x="71" y="-20" fill="url(#G)" filter="url(#S)" opacity=".238" xlink:href="#U"/><use fill="url(#G)" filter="url(#R)" opacity=".776" xlink:href="#U"/><use transform="matrix(.34202 .93969 -.93969 .34202 104.53 -62.203)" x="71" y="-20" fill="url(#G)" filter="url(#S)" opacity=".37" xlink:href="#U"/><use x="71" y="-20" fill="url(#G)" filter="url(#R)" opacity=".87" xlink:href="#U"/><use fill="none" stroke="url(#F)" stroke-linejoin="round" stroke-width="8" xlink:href="#T"/><use fill="url(#C)" xlink:href="#T"/><path d="M99.375 28.063c0 0-35.257 36.14-44.97 46.094L28.625 47.75 16 60.688l16.47 16.875h.563c17.53 0 34.136-2.093 49.03-5.844L112 41 99.375 28.063z" fill="url(#E)"/><use fill="none" filter="url(#K)" stroke="url(#J)" xlink:href="#T"/><path d="M99.375 28.063l-.406.438 12.188 12.28-30 30.22C66.23 74.688 50.1 77.22 32.53 77.22c-.126 0-.25 0-.375 0l.313.344h.563c17.53 0 34.136-2.093 49.03-5.844L112 41 99.375 28.063z" fill="url(#L)"/><path d="M99.375 28.063c0 0-35.257 36.14-44.97 46.094L28.625 47.75 16 60.688l.5.5L28.625 48.75l25.78 26.406 44.97-46.094L111.5 41.5l.5-.5-12.625-12.937z" fill="url(#M)"/></svg>
