<svg width="128" height="128" xmlns="http://www.w3.org/2000/svg" xmlns:xlink="http://www.w3.org/1999/xlink"><defs><linearGradient id="B" x1="60.667" x2="60.667" y1="5.443" y2="113.12" xlink:href="#X"><stop stop-color="#8c0000" offset="0"/><stop stop-color="#470000" offset="1"/></linearGradient><radialGradient id="C" cx="64" cy="73.475" r="40" fy="77.238" gradientTransform="matrix(2.0783 -9.928e-8 6.9726e-8 1.4597 -69.013 -26.914)" xlink:href="#X"><stop stop-color="#ff1212" offset="0"/><stop stop-color="#750000" offset="1"/></radialGradient><linearGradient id="D" x1="80.079" x2="80.079" y1="8.853" y2="94.417" xlink:href="#X"><stop stop-color="#ffb5b5" offset="0"/><stop stop-color="#ffbfbf" stop-opacity="0" offset="1"/></linearGradient><linearGradient id="E" x1="123.08" x2="109.42" y1="78.807" y2="33.648" xlink:href="#X"><stop stop-color="#fff" offset="0"/><stop stop-color="#ffbebe" stop-opacity="0" offset="1"/></linearGradient><linearGradient id="F" x1="80.079" x2="80.079" y1="8.853" y2="68.498" xlink:href="#X"><stop stop-color="#fff" offset="0"/><stop stop-color="#fff" stop-opacity="0" offset="1"/></linearGradient><linearGradient id="G" x1="82.55" x2="82.55" y1="108.25" y2="35.434" xlink:href="#X"><stop stop-color="#ff7e00" offset="0"/><stop stop-color="#ff7e00" stop-opacity="0" offset="1"/></linearGradient><radialGradient id="H" cx="26.031" cy="26.031" r="5.969" gradientTransform="matrix(4.0188 4.0188 -.70711 .70711 -60.177 -96.991)" xlink:href="#X"><stop stop-color="#fff" offset="0"/><stop stop-color="#fff" stop-opacity="0" offset="1"/></radialGradient><filter id="I" x="-.12" y="-.12" width="1.24" height="1.24"><feGaussianBlur stdDeviation=".597"/></filter><radialGradient id="J" cx="26.031" cy="26.031" r="5.969" gradientTransform="matrix(4.0188 4.0188 -.70711 .70711 -60.177 -96.991)" xlink:href="#X"><stop stop-color="#e16e00" offset="0"/><stop stop-color="#803f00" stop-opacity="0" offset="1"/></radialGradient><radialGradient id="L" cx="64" cy="26.932" r="44" gradientTransform="matrix(1.1954 0 0 .27848 -12.507 12.188)" xlink:href="#X"><stop stop-color="#fff" offset="0"/><stop stop-color="#fff" stop-opacity="0" offset="1"/></radialGradient><radialGradient id="M" cx="64" cy="21.661" r="44" gradientTransform="matrix(3.3076 0 0 .4271 -147.68 4.1354)" xlink:href="#X"><stop stop-color="#fff" offset="0"/><stop stop-color="#fff" stop-opacity="0" offset="1"/></radialGradient><radialGradient id="N" cx="64" cy="82" r="37.817" xlink:href="#X"><stop stop-color="red" offset="0"/><stop stop-color="red" stop-opacity="0" offset="1"/></radialGradient><filter id="O" x="-.135" y="-.135" width="1.269" height="1.269"><feGaussianBlur stdDeviation="4.243"/></filter><filter id="P"><feGaussianBlur stdDeviation=".402"/></filter><filter id="Q"><feGaussianBlur stdDeviation=".521"/></filter><filter id="R"><feGaussianBlur stdDeviation=".577"/></filter><filter id="S"><feGaussianBlur stdDeviation="1.234"/></filter><linearGradient id="T" x1="69.5" x2="69.5" y1="39.156" y2="103.66" xlink:href="#X"><stop stop-color="#fff" offset="0"/><stop stop-color="#dfdfdf" offset="1"/></linearGradient><radialGradient id="U" cx="62.781" cy="66.176" r="29.844" fy="77.98" gradientTransform="matrix(1.3514 0 0 1.3514 -21.497 -22.686)" xlink:href="#X"><stop stop-color="#590000" offset="0"/><stop stop-color="#590000" stop-opacity="0" offset="1"/></radialGradient><path id="V" d="M28.03 20.063c-4.14.474-7.495 3.83-7.97 7.97L32 32l-3.97-11.937z"/><path id="W" d="M46.313 35.813L34.5 47.594l17.063 17.063L34.5 81.688 46.313 93.5l17.03-17.062L80.406 93.5l11.78-11.812-17.03-17.03 17.03-17.062-11.78-11.78-17.062 17.03-17.03-17.03z"/><linearGradient id="X" gradientUnits="userSpaceOnUse"/></defs><rect x="16.183" y="16.183" width="95.634" height="95.634" rx="6.005" fill="#9c0f0f" filter="url(#Q)" opacity=".75" stroke="#9c0f0f" stroke-width="8.5"/><g fill="none" stroke-width="8"><rect x="16.183" y="16.183" width="95.634" height="95.634" rx="6.005" stroke="url(#L)"/><rect x="16.183" y="16.183" width="95.634" height="95.634" rx="6.005" stroke="url(#B)"/><rect x="16.183" y="16.183" width="95.634" height="95.634" rx="6.005" opacity=".727" stroke="url(#M)"/></g><use transform="matrix(0 1.1954 -1.1954 0 140.51 -12.509)" fill="url(#H)" filter="url(#I)" opacity=".6" xlink:href="#V"/><use transform="matrix(-1.1954 0 0 -1.1954 140.51 140.51)" fill="url(#J)" filter="url(#I)" opacity=".517" xlink:href="#V"/><use transform="matrix(0 -1.1954 1.1954 0 -12.504 140.51)" fill="url(#J)" filter="url(#I)" opacity=".517" xlink:href="#V"/><use transform="matrix(1.1954 0 0 1.1954 -12.507 -12.507)" fill="url(#H)" filter="url(#I)" opacity=".75" xlink:href="#V"/><rect x="16.183" y="16.183" width="95.634" height="95.634" rx="6.245" fill="url(#C)"/><rect transform="matrix(1.1322 0 0 1.0793 -8.4618 -3.0771)" x="26.183" y="26.183" width="75.634" height="75.634" rx="25.502" fill="url(#N)" filter="url(#O)"/><path d="M22.422 16.183a6.22 6.22 0 0 0-6.239 6.239v42.1c12.542 2.732 26.265 4.26 40.644 4.26 20.094 0 38.9-2.95 54.99-8.07v-38.29a6.22 6.22 0 0 0-6.239-6.239H22.422z" fill="url(#D)"/><path d="M110.883 19.172c.184.595.26 1.247.26 1.905v38.85c-16.33 5.19-35.4 8.18-55.774 8.18-13.823 0-27.013-1.418-39.187-3.922v.336c12.542 2.732 26.265 4.26 40.644 4.26 20.094 0 38.9-2.95 54.99-8.07v-38.29c0-1.197-.356-2.303-.934-3.25z" fill="url(#E)"/><path d="M22.422 16.183a6.22 6.22 0 0 0-6.239 6.239v42.1l1.457.3V24.028c0-3.428 2.696-6.164 6.052-6.164h80.616c3.356 0 6.052 2.736 6.052 6.164V61.16l1.457-.448v-38.29a6.22 6.22 0 0 0-6.239-6.239H22.422z" fill="url(#F)"/><g fill="none"><rect transform="matrix(1.1954 0 0 1.1954 -12.507 -12.507)" x="24" y="24" width="80" height="80" rx="5.224" filter="url(#P)" stroke="url(#G)" stroke-width=".418"/><use filter="url(#S)" stroke="url(#U)" stroke-linejoin="round" stroke-width="5" xlink:href="#W"/></g><use fill="url(#T)" xlink:href="#W"/><path d="M46.313 35.813L34.5 47.594l17.063 17.063-2.97 2.97c5.04.777 10.4 1.188 15.97 1.188a106.1 106.1 0 0 0 13.844-.906l-3.25-3.25 17.03-17.062-11.78-11.78-17.062 17.03-17.03-17.03z" fill="#fff" filter="url(#R)"/></svg>
