<svg width="128" height="128" xmlns="http://www.w3.org/2000/svg" xmlns:xlink="http://www.w3.org/1999/xlink"><defs><radialGradient id="u" cx="22.05" cy="8.86" r="1.91" fx="22.38" fy="9.25" gradientTransform="matrix(1.007 0 0 .94636 -.58 15.33)" xlink:href="#a"><stop stop-color="#eee" offset="0"/><stop stop-color="#cecece" offset=".16"/><stop stop-color="#888" offset=".47"/><stop stop-color="#555" offset=".69"/><stop stop-color="#323232" offset="1"/></radialGradient><radialGradient id="s" cx="105.95" cy="8.86" r="1.91" fx="106.62" fy="9.25" gradientTransform="matrix(1.007 0 0 .94636 -.58 15.33)" xlink:href="#a"><stop stop-color="#eee" offset="0"/><stop stop-color="#cecece" offset=".16"/><stop stop-color="#888" offset=".47"/><stop stop-color="#555" offset=".69"/><stop stop-color="#323232" offset="1"/></radialGradient><radialGradient id="q" cx="19.16" cy="44.9" r="2.17" fx="19.5" fy="45.63" gradientTransform="matrix(1.007 0 0 .94636 -.58 15.33)" xlink:href="#a"><stop stop-color="#eee" offset="0"/><stop stop-color="#cecece" offset=".16"/><stop stop-color="#888" offset=".47"/><stop stop-color="#555" offset=".69"/><stop stop-color="#323232" offset="1"/></radialGradient><radialGradient id="o" cx="108.84" cy="44.9" r="2.17" fx="109.38" fy="45.5" gradientTransform="matrix(1.007 0 0 .94636 -.58 15.33)" xlink:href="#a"><stop stop-color="#eee" offset="0"/><stop stop-color="#cecece" offset=".16"/><stop stop-color="#888" offset=".47"/><stop stop-color="#555" offset=".69"/><stop stop-color="#323232" offset="1"/></radialGradient><radialGradient id="m" cx="14.93" cy="97.59" r="2.56" fx="15" fy="98" gradientTransform="matrix(1.007 0 0 .94636 -.58 15.33)" xlink:href="#a"><stop stop-color="#eee" offset=".13"/><stop stop-color="#cecece" offset=".25"/><stop stop-color="#888" offset=".47"/><stop stop-color="#555" offset="1"/></radialGradient><radialGradient id="k" cx="113.06" cy="97.59" r="2.56" fx="113.67" fy="98" gradientTransform="matrix(1.007 0 0 .94636 -.58 15.33)" xlink:href="#a"><stop stop-color="#eee" offset="0"/><stop stop-color="#cecece" offset=".16"/><stop stop-color="#888" offset=".47"/><stop stop-color="#555" offset="1"/></radialGradient><radialGradient id="i" cx="54" cy="44" r="60.83" gradientTransform="matrix(1.007 0 0 .94636 -.58 15.33)" xlink:href="#a"><stop stop-color="#fff" offset=".45"/><stop stop-color="#ededed" offset=".46"/><stop stop-color="#bfbfbf" offset=".5"/><stop stop-color="#999" offset=".54"/><stop stop-color="#7b7b7b" offset=".57"/><stop stop-color="#666" offset=".61"/><stop stop-color="#595959" offset=".65"/><stop stop-color="#555" offset=".68"/><stop stop-color="#888" offset=".96"/></radialGradient><radialGradient id="h" cx="58" cy="53" r="70.12" gradientTransform="matrix(1.007 0 0 .94636 -.58 15.33)" xlink:href="#a"><stop stop-color="#fff" offset=".45"/><stop stop-color="#f1f1f1" offset=".47"/><stop stop-color="#ccc" offset=".52"/><stop stop-color="#aeaeae" offset=".58"/><stop stop-color="#999" offset=".64"/><stop stop-color="#8c8c8c" offset=".69"/><stop stop-color="#888" offset=".74"/><stop stop-color="#6c6c6c" offset=".84"/><stop stop-color="#5b5b5b" offset=".92"/><stop stop-color="#555" offset=".99"/></radialGradient><radialGradient id="g" cx="63.5" cy="75" r="31.5" gradientTransform="matrix(1.007 0 0 .94636 -.58 15.33)" xlink:href="#a"><stop stop-color="#fff" offset=".33"/><stop stop-color="#f4f4f4" offset=".36"/><stop stop-color="#d7d7d7" offset=".43"/><stop stop-color="#a8a8a8" offset=".51"/><stop stop-color="#888" offset=".56"/><stop stop-color="#a4a4a4" offset=".59"/><stop stop-color="#cbcbcb" offset=".65"/><stop stop-color="#e8e8e8" offset=".69"/><stop stop-color="#f9f9f9" offset=".73"/><stop stop-color="#fff" offset=".76"/></radialGradient><radialGradient id="f" cx="64" cy="100.22" r="90" gradientTransform="matrix(1.007 0 0 .92459 -.58 15.37)" xlink:href="#a"><stop stop-color="#fff" offset=".33"/><stop stop-color="#f4f4f4" offset=".37"/><stop stop-color="#d7d7d7" offset=".45"/><stop stop-color="#a8a8a8" offset=".56"/><stop stop-color="#888" offset=".62"/><stop stop-color="#a3a3a3" offset=".68"/><stop stop-color="#bbb" offset=".74"/><stop stop-color="#b3b3b3" offset=".75"/><stop stop-color="#a0a0a0" offset=".79"/><stop stop-color="#929292" offset=".84"/><stop stop-color="#8a8a8a" offset=".9"/><stop stop-color="#888" offset="1"/></radialGradient><radialGradient id="c" cx="65.28" cy="131.45" r="58.76" gradientTransform="matrix(2.0694 .00192 -.0033 2.6965 -72.6 -220.94)" xlink:href="#a"><stop stop-color="#888" offset="0"/><stop stop-color="#aaa" offset=".15"/><stop stop-color="#c6c6c6" offset=".3"/><stop stop-color="#d7d7d7" offset=".44"/><stop stop-color="#ddd" offset=".54"/><stop stop-color="#d9d9d9" offset=".61"/><stop stop-color="#cdcdcd" offset=".68"/><stop stop-color="#bbb" offset=".75"/><stop stop-color="#bfbfbf" offset=".78"/><stop stop-color="#cbcbcb" offset=".82"/><stop stop-color="#ddd" offset=".86"/></radialGradient><linearGradient id="t" x1="21.62" x2="21.62" y1="25.84" y2="21.58" xlink:href="#a"><stop stop-color="#eee" offset="0"/><stop stop-color="#cecece" offset=".29"/><stop stop-color="#888" offset=".85"/><stop stop-color="#555" offset="1"/></linearGradient><linearGradient id="r" x1="106.11" x2="106.11" y1="25.84" y2="21.58" xlink:href="#a"><stop stop-color="#eee" offset="0"/><stop stop-color="#cecece" offset=".29"/><stop stop-color="#888" offset=".85"/><stop stop-color="#555" offset="1"/></linearGradient><linearGradient id="p" x1="18.71" x2="18.71" y1="60.25" y2="55.39" xlink:href="#a"><stop stop-color="#eee" offset="0"/><stop stop-color="#cecece" offset=".55"/><stop stop-color="#bbb" offset=".85"/><stop stop-color="#555" offset="1"/></linearGradient><linearGradient id="n" x1="109.02" x2="109.02" y1="60.25" y2="55.39" xlink:href="#a"><stop stop-color="#eee" offset="0"/><stop stop-color="#cecece" offset=".55"/><stop stop-color="#bbb" offset=".85"/><stop stop-color="#555" offset="1"/></linearGradient><linearGradient id="l" x1="14.46" x2="14.46" y1="110.59" y2="104.77" xlink:href="#a"><stop stop-color="#eee" offset="0"/><stop stop-color="#ddd" offset=".67"/><stop stop-color="#555" offset="1"/></linearGradient><linearGradient id="j" x1="113.28" x2="113.28" y1="110.59" y2="104.77" xlink:href="#a"><stop stop-color="#eee" offset="0"/><stop stop-color="#ddd" offset=".67"/><stop stop-color="#555" offset="1"/></linearGradient><linearGradient id="v" x1="29.75" x2="69.03" y1="24.45" y2="24.45" xlink:href="#a"><stop stop-color="#fff" offset="0"/><stop stop-color="#fdfdfd" offset=".06"/><stop stop-color="#f2f2f0" offset=".54"/><stop stop-color="#eeeeec" offset="1"/></linearGradient><linearGradient id="w" x1="245.71" x2="245.44" y1="7924.1" y2="8841.5" xlink:href="#a"><stop stop-color="#82f543" stop-opacity="0" offset="0"/><stop stop-color="#cafbaf" stop-opacity=".5" offset=".25"/><stop stop-color="#97f543" offset=".5"/><stop stop-color="#7bf543" stop-opacity="0" offset="1"/></linearGradient><linearGradient id="a" gradientUnits="userSpaceOnUse"/><linearGradient id="x" x1="-35.89" x2="-36" y1="1.28" y2="86.73" gradientUnits="userSpaceOnUse"><stop stop-color="#8eec1f" offset="0"/><stop stop-color="#6cba10" offset="1"/></linearGradient><filter id="b" color-interpolation-filters="sRGB"><feGaussianBlur stdDeviation="1.75"/></filter><filter id="e" x="-.17" y="-.19" width="1.34" height="1.38" color-interpolation-filters="sRGB"><feGaussianBlur stdDeviation=".46"/></filter><path id="d" d="M8.83 119.04s1.08 1.66 2 1.66h112.3c.76 0 2.04-1.91 2.04-1.91"/></defs><path transform="matrix(.98276 0 0 .8758 -2.56 15.06)" d="m108.56 13.37-82.33-.12a3.34 3.34 0 0 0-3.38 3.34l-12.63 92.78c0 .22.03.43.06.63v.06c-.26 1.73-.22 3.93-.22 4.53l.5 8.75c0 1.03 2.42 2.19 3.97 2.19h106.03c1.56 0 3.85-1.16 3.85-2.19l.31-8.75c0-.6.12-2.7-.06-4.4v-.03a3.16 3.16 0 0 0 .06-.63L111.9 16.74a3.34 3.34 0 0 0-3.34-3.37z" filter="url(#b)" opacity=".7"/><path d="M8.67 107.56h110.2c1.52 0 1.14 4.88 1.14 5.76l-.3 7.5c0 .87-2.28 1.86-3.8 1.86H11.72c-1.52 0-3.9-1-3.9-1.87l-.5-7.49c0-.88-.18-5.76 1.35-5.76z" fill="#1b1b1b"/><path d="m19.4 21.12 88.53-.26a3.3 2.87 0 0 1 3.31 2.88l8.78 85.24a3.3 2.87 0 0 1-3.32 2.88l-105.9-.13a3.3 2.87 0 0 1-3.32-2.88L16.08 24a3.3 2.87 0 0 1 3.32-2.88z" fill="url(#c)"/><g transform="matrix(.95753 0 0 .83312 -.46 17.53)" fill="none" stroke-linecap="round" stroke-width="1.52"><use stroke="#111" xlink:href="#d"/><use y="-.91" stroke="#3d3d3d" xlink:href="#d"/></g><g stroke-dashoffset=".15" stroke-linejoin="round"><path d="M99.24 118.63v.1c0 1.3 1.95 2.35 4.36 2.35s4.36-1.04 4.36-2.35v-.1h-8.71z" fill="none" stroke="#111" stroke-width="1.05"/><path d="M99.73 117.68v.1c0 1.34 1.73 2.4 3.87 2.4s3.87-1.07 3.87-2.4v-.1z" fill="none" stroke="#3d3d3d"/><path d="M106.68 116.93c0 1.36-1.38 2.46-3.08 2.46s-3.08-1.1-3.08-2.46 1.38-2.46 3.08-2.46 3.08 1.1 3.08 2.46z" fill="#97dc00" stroke="#141414" stroke-width=".9"/></g><path transform="matrix(.59128 0 0 .51446 111.34 56.71)" d="M-9.9 117.06c0 1.6-1.43 2.92-3.18 2.92s-3.18-1.3-3.18-2.92 1.42-2.92 3.18-2.92 3.18 1.3 3.18 2.92z" fill="#ddff91" filter="url(#e)" opacity=".84"/><path d="M108.07 74.33c-.57-6.7-4.37-13.1-10.68-18.13l-1.75-26.73c-.12-1.9-2-3.34-4.38-3.34H76.32c-2.4 0-4.25 1.45-4.3 3.4-.27 8.73-8.63 13.3-21.09 17.43-4.36.98-15.74 5.55-18.35 7.56-7.7 5.28-12.28 12.32-12.9 19.82-.58 6.83 2.2 13.67 7.82 19.25 8.23 8.16 21.83 13.04 36.38 13.04s28.14-4.87 36.37-13.04c5.14-5.1 7.9-11.24 7.9-17.47 0-.58-.02-1.18-.07-1.77zm-44.2 28.9c-24.23 0-42.79-13.68-41.44-29.55.58-6.84 4.83-14.14 11.87-18.95 1.32-1.28 13.22-6.25 17.49-7.13 11.83-3.93 22.66-9.03 23-19.78.02-.52.7-.93 1.53-.93h14.93c.86 0 1.59.43 1.62.96l1.82 27.78c6.27 4.68 10.07 11.67 10.61 18.05 1.34 15.86-17.2 29.55-41.44 29.55z" fill="url(#f)"/><path d="M63.87 65.49c-8.04 0-14.2 3.82-14.33 8.9v.16a7 7 0 0 0 2.34 5.07c2.6 2.5 7.07 3.99 12 3.99s9.38-1.5 11.98-4a6.92 6.92 0 0 0 2.34-5.22c-.13-5.07-6.29-8.9-14.33-8.9zm0 15.28c-7.55 0-11.4-3.8-11.31-7.26.08-3.4 5.15-6.13 11.3-6.13S75.1 70.1 75.19 73.5c.1 3.46-3.76 7.26-11.31 7.26z" fill="url(#g)"/><path d="m67.64 32.29-.23-.75c-.3-1.07-.9-3.05-3.7-3.05H28.83a6.05 6.05 0 0 0-6.08 5.5l-.93 12.35a5.58 5.58 0 0 0 1.65 4.43c1.68 1.64 4.03 1.18 4.9 1 22.75-4.55 37.1-14.3 38.98-17.43.54-.89.45-1.6.3-2.05zm-1.9.61c.55 1.52-13.84 12.23-37.78 17.02-1.1.22-2.25.3-3.04-.47s-1.17-1.84-1.09-2.98l.02-.26c-.02-.23-.04-.45-.02-.68l.93-12.35a4.12 4.12 0 0 1 4.07-3.74H63.7c1.61 0 1.5 1 2.04 2.51.04.12-.01.3-.14.51l.14.44z" fill="url(#h)"/><path d="m67.64 32.29-.23-.75c-.3-1-.83-2.75-3.17-3 1.05.22 1.02 1.15 1.5 2.47.04.11-.01.29-.14.5l.14.44c.55 1.52-13.84 12.23-37.78 17.02-1.1.22-2.25.3-3.04-.46s-1.17-1.85-1.09-2.98l.02-.27c-.02-.22-.03-.45-.02-.68l.93-12.35a4.12 4.12 0 0 1 4.07-3.74 6.05 6.05 0 0 0-6.07 5.5l-.93 12.35a5.58 5.58 0 0 0 1.65 4.43c1.68 1.64 4.02 1.18 4.9 1 22.74-4.55 37.1-14.31 38.98-17.43.53-.89.45-1.6.3-2.05z" fill="url(#i)"/><path d="M109.28 107.66c.13 1.6 2.03 2.92 4.24 2.92s3.9-1.32 3.75-2.92-2.05-2.9-4.24-2.9-3.87 1.3-3.75 2.9z" fill="url(#j)"/><path d="M110.72 106.53c-.2.2-.44.53-.44.97v.1c.1 1.1 1.58 2.04 3.24 2.04.95 0 1.82-.3 2.32-.82.22-.22.47-.6.42-1.08-.1-1.1-1.58-2.03-3.23-2.03-.95 0-1.81.3-2.32.82z" fill="url(#k)"/><path d="M10.47 107.66c-.15 1.6 1.52 2.92 3.74 2.92s4.12-1.32 4.24-2.92-1.55-2.9-3.74-2.9-4.1 1.3-4.24 2.9z" fill="url(#l)"/><path d="M11.47 107.75c-.04.48.2.85.42 1.07.5.52 1.37.82 2.32.82 1.67 0 3.16-.93 3.24-2.04.03-.49-.22-.85-.43-1.07a3.3 3.3 0 0 0-2.31-.81c-1.66 0-3.14.93-3.24 2.03z" fill="url(#m)"/><path d="M105.37 57.8c.1 1.35 1.84 2.45 3.86 2.45s3.57-1.1 3.44-2.44c-.12-1.34-1.85-2.42-3.85-2.42s-3.55 1.08-3.44 2.42z" fill="url(#n)"/><path d="M106.67 57.05c-.2.2-.3.4-.3.63v.06c.07.74 1.25 1.56 2.86 1.56.9 0 1.72-.27 2.15-.72.21-.22.3-.45.29-.7-.07-.74-1.26-1.55-2.85-1.55-.9 0-1.7.27-2.15.71z" fill="url(#o)"/><path d="M15.06 57.8c-.12 1.35 1.42 2.45 3.44 2.45s3.76-1.1 3.86-2.44c.1-1.34-1.43-2.42-3.44-2.42s-3.73 1.08-3.86 2.42z" fill="url(#p)"/><path d="M16.07 57.89c-.03.25.07.47.28.7.44.44 1.26.72 2.16.72 1.6 0 2.79-.82 2.85-1.56.02-.25-.08-.48-.3-.7-.43-.43-1.25-.7-2.14-.7-1.6 0-2.78.81-2.85 1.55z" fill="url(#q)"/><path d="M102.7 23.7c.1 1.18 1.7 2.14 3.6 2.14s3.34-.96 3.23-2.14c-.11-1.17-1.72-2.12-3.6-2.12s-3.32.95-3.23 2.12z" fill="url(#r)"/><path d="M103.91 23.17c-.19.2-.2.34-.2.42v.04c.05.58 1.2 1.26 2.6 1.26 1.02 0 1.72-.33 2.02-.65.22-.23.21-.4.2-.46-.05-.58-1.17-1.25-2.6-1.25-1.02 0-1.72.33-2.02.64z" fill="url(#s)"/><path d="M18.2 23.7c-.1 1.18 1.35 2.14 3.24 2.14s3.5-.96 3.6-2.14c.09-1.17-1.36-2.12-3.24-2.12s-3.48.95-3.6 2.12z" fill="url(#t)"/><path d="M19.2 23.78c0 .06-.02.23.2.46.3.32 1 .65 2.03.65 1.4 0 2.54-.68 2.59-1.26 0-.06.02-.23-.2-.46-.31-.31-1-.64-2.02-.64-1.42 0-2.54.66-2.6 1.25z" fill="url(#u)"/><path d="M30.05 22.11c-.53 0-.97.32-1 .72l-.31 3.63a.82.72 0 0 0 .27.57c.2.16.46.25.73.25h39.29c.27 0 .52-.09.71-.23s.3-.35.3-.55L70 22.87c0-.42-.45-.76-1-.76H30.04z" fill="#bbb"/><path d="M30.05 22.23h38.93l.05 4.46H29.75z" fill="url(#v)"/><path d="M62.81 25.59v-.32h-1.46v.32h-.4v-.77h.4v.36h1.46v-.36h.4v.77h-.4zm-2.54-.01-.84.02c-.57 0-.96-.04-1.23-.1-.27-.06-.43-.15-.43-.28s.16-.22.44-.3c.3-.07.77-.1 1.35-.1l.71.01v.76zm-.4-.68-.4-.01c-.83 0-1.29.12-1.29.33 0 .18.4.3 1.23.3l.46-.02v-.6zm-2.61.68-.84.02c-.58 0-.97-.04-1.23-.1-.28-.06-.43-.15-.43-.28s.16-.22.44-.3c.3-.07.76-.1 1.35-.1l.71.01v.76zm-.39-.68-.4-.01c-.83 0-1.29.12-1.3.33 0 .18.4.3 1.23.3l.46-.02zm-5.34.66v-.07l1.3-.66h.4l-1.28.65h1.43v.09h-1.85zm-.4-.75v.06l-.31.08c-.76.18-1.1.28-1.1.39 0 .08.13.14.57.14a3.13 3.13 0 0 0 .63-.06l.12.07a4.16 4.16 0 0 1-.83.08c-.63 0-.9-.1-.89-.21 0-.14.4-.25 1.02-.4l.23-.06h-1.29v-.08h1.87zm-3.25 0c.57 0 .96.13.96.38s-.44.38-1.03.38c-.62 0-.97-.14-.96-.37 0-.25.39-.4 1.03-.4zm-.02.07c-.4 0-.6.12-.6.31s.17.3.58.3c.36 0 .6-.11.6-.3.02-.2-.21-.3-.57-.3h-.01zm-2.28-.07c.57 0 .96.13.96.38s-.44.38-1.04.38c-.6 0-.96-.14-.95-.37 0-.25.4-.4 1.03-.4zm-.02.07c-.4 0-.6.12-.6.31s.16.3.57.3c.36 0 .6-.11.6-.3.02-.2-.2-.3-.57-.3zm-1.53.7-.75.01c-.42 0-.7-.02-.88-.06-.15-.03-.24-.08-.24-.15 0-.1.27-.16.58-.2v.01c-.23-.02-.36-.08-.44-.15-.1-.1-.16-.18-.22-.2h.4a.7.7 0 0 1 .2.18c.1.1.25.15.6.15h.38v-.33h.4l-.04.75zm-.38-.35h-.4c-.42 0-.69.05-.7.14 0 .1.29.15.7.15l.4-.01.01-.28zm-2.04.35-.76.02c-.39 0-.67-.03-.85-.07-.16-.03-.26-.08-.26-.16s.1-.12.25-.16c.2-.06.55-.08.93-.08h.32l.01-.3h.39l-.04.75zm-.38-.37h-.32c-.48 0-.77.05-.77.15s.28.16.7.16l.37-.01.01-.3zm-4.56-.05a1.89 1.89 0 0 1 .03.33h.01l.4-.3.56-.37h.28l.48.37a1.94 1.94 0 0 1 .33.3h.01a2.43 2.43 0 0 1 .08-.33l.1-.33h.38l-.25.77h-.5l-.5-.37-.3-.25a2.45 2.45 0 0 1-.34.25l-.56.37h-.5l-.15-.77h.39l.05.34z" fill="#888"/><path d="m78.22 3.23-.01 29.3-.62 2.08.02-29.3z" fill="url(#w)"/><path d="M50.67 1.84c-.83 0-1.5.67-1.5 1.5l-.03 33.09-17.66.02c-.64 0-1.23.53-1.5 1.15-.3.7-.01 1.5.38 2.08L64 86.73l33.7-47.38c.4-.59.43-1.35.1-1.98-.28-.52-.8-1-1.38-.99l-17.59.02V3.34c0-.83-.67-1.5-1.5-1.5z" fill="url(#x)" stroke="#000" stroke-linejoin="round" stroke-width="3" paint-order="stroke fill markers"/></svg>