<svg xmlns="http://www.w3.org/2000/svg" xmlns:xlink="http://www.w3.org/1999/xlink" height="128" width="128"><link type="text/css" rel="stylesheet" href=""/><defs><filter id="A" color-interpolation-filters="sRGB"><feGaussianBlur stdDeviation="1.753"/></filter><filter height="1.376" id="B" width="1.345" x="-.172" y="-.188" color-interpolation-filters="sRGB"><feGaussianBlur stdDeviation=".457"/></filter><radialGradient gradientTransform="matrix(1.0069811,0,0,0.94636108,-0.57913676,15.326006)" id="C" cx="22.047" cy="8.859" fx="22.375" fy="9.25" r="1.91" xlink:href="#W"><stop offset="0" stop-color="#eee"/><stop offset=".16" stop-color="#cecece"/><stop offset=".468" stop-color="#888"/><stop offset=".686" stop-color="#555"/><stop offset="1" stop-color="#323232"/></radialGradient><linearGradient id="D" x1="21.621" x2="21.621" y1="25.838" y2="21.583" xlink:href="#W"><stop offset="0" stop-color="#eee"/><stop offset=".291" stop-color="#cecece"/><stop offset=".85" stop-color="#888"/><stop offset="1" stop-color="#555"/></linearGradient><radialGradient gradientTransform="matrix(1.0069811,0,0,0.94636108,-0.57913676,15.326006)" id="E" cx="105.953" cy="8.859" fx="106.625" fy="9.25" r="1.91" xlink:href="#W"><stop offset="0" stop-color="#eee"/><stop offset=".16" stop-color="#cecece"/><stop offset=".468" stop-color="#888"/><stop offset=".686" stop-color="#555"/><stop offset="1" stop-color="#323232"/></radialGradient><linearGradient id="F" x1="106.114" x2="106.114" y1="25.838" y2="21.583" xlink:href="#W"><stop offset="0" stop-color="#eee"/><stop offset=".291" stop-color="#cecece"/><stop offset=".85" stop-color="#888"/><stop offset="1" stop-color="#555"/></linearGradient><radialGradient gradientTransform="matrix(1.0069811,0,0,0.94636108,-0.57913676,15.326006)" id="G" cx="19.157" cy="44.9" fx="19.5" fy="45.625" r="2.165" xlink:href="#W"><stop offset="0" stop-color="#eee"/><stop offset=".16" stop-color="#cecece"/><stop offset=".468" stop-color="#888"/><stop offset=".686" stop-color="#555"/><stop offset="1" stop-color="#323232"/></radialGradient><linearGradient id="H" x1="18.712" x2="18.712" y1="60.248" y2="55.388" xlink:href="#W"><stop offset="0" stop-color="#eee"/><stop offset=".547" stop-color="#cecece"/><stop offset=".85" stop-color="#bbb"/><stop offset="1" stop-color="#555"/></linearGradient><radialGradient gradientTransform="matrix(1.0069811,0,0,0.94636108,-0.57913676,15.326006)" id="I" cx="108.842" cy="44.9" fx="109.375" fy="45.5" r="2.165" xlink:href="#W"><stop offset="0" stop-color="#eee"/><stop offset=".16" stop-color="#cecece"/><stop offset=".468" stop-color="#888"/><stop offset=".686" stop-color="#555"/><stop offset="1" stop-color="#323232"/></radialGradient><linearGradient id="J" x1="109.023" x2="109.023" y1="60.248" y2="55.388" xlink:href="#W"><stop offset="0" stop-color="#eee"/><stop offset=".547" stop-color="#cecece"/><stop offset=".85" stop-color="#bbb"/><stop offset="1" stop-color="#555"/></linearGradient><radialGradient gradientTransform="matrix(1.0069811,0,0,0.94636108,-0.57913676,15.326006)" id="K" cx="14.934" cy="97.588" fx="15" fy="98" r="2.563" xlink:href="#W"><stop offset=".13" stop-color="#eee"/><stop offset=".246" stop-color="#cecece"/><stop offset=".468" stop-color="#888"/><stop offset="1" stop-color="#555"/></radialGradient><linearGradient id="L" x1="14.46" x2="14.46" y1="110.589" y2="104.769" xlink:href="#W"><stop offset="0" stop-color="#eee"/><stop offset=".669" stop-color="#ddd"/><stop offset="1" stop-color="#555"/></linearGradient><radialGradient gradientTransform="matrix(1.0069811,0,0,0.94636108,-0.57913676,15.326006)" id="M" cx="113.065" cy="97.588" fx="113.667" fy="98" r="2.563" xlink:href="#W"><stop offset="0" stop-color="#eee"/><stop offset=".16" stop-color="#cecece"/><stop offset=".468" stop-color="#888"/><stop offset="1" stop-color="#555"/></radialGradient><linearGradient id="N" x1="113.275" x2="113.275" y1="110.589" y2="104.769" xlink:href="#W"><stop offset="0" stop-color="#eee"/><stop offset=".669" stop-color="#ddd"/><stop offset="1" stop-color="#555"/></linearGradient><radialGradient gradientTransform="matrix(1.0069811,0,0,0.94636108,-0.57913676,15.326006)" id="O" cx="54" cy="44" r="60.828" xlink:href="#W"><stop offset=".45" stop-color="#fff"/><stop offset=".463" stop-color="#ededed"/><stop offset=".5" stop-color="#bfbfbf"/><stop offset=".538" stop-color="#999"/><stop offset=".575" stop-color="#7b7b7b"/><stop offset=".611" stop-color="#666"/><stop offset=".647" stop-color="#595959"/><stop offset=".68" stop-color="#555"/><stop offset=".965" stop-color="#888"/></radialGradient><radialGradient gradientTransform="matrix(1.0069811,0,0,0.94636108,-0.57913676,15.326006)" id="P" cx="58" cy="53" r="70.118" xlink:href="#W"><stop offset=".45" stop-color="#fff"/><stop offset=".467" stop-color="#f1f1f1"/><stop offset=".524" stop-color="#ccc"/><stop offset=".58" stop-color="#aeaeae"/><stop offset=".635" stop-color="#999"/><stop offset=".689" stop-color="#8c8c8c"/><stop offset=".74" stop-color="#888"/><stop offset=".837" stop-color="#6c6c6c"/><stop offset=".924" stop-color="#5b5b5b"/><stop offset=".988" stop-color="#555"/></radialGradient><radialGradient gradientTransform="matrix(1.0069811,0,0,0.94636108,-0.57913676,15.326006)" id="Q" cx="63.5" cy="75" r="31.5" xlink:href="#W"><stop offset=".325" stop-color="#fff"/><stop offset=".362" stop-color="#f4f4f4"/><stop offset=".427" stop-color="#d7d7d7"/><stop offset=".511" stop-color="#a8a8a8"/><stop offset=".562" stop-color="#888"/><stop offset=".593" stop-color="#a4a4a4"/><stop offset=".645" stop-color="#cbcbcb"/><stop offset=".692" stop-color="#e8e8e8"/><stop offset=".733" stop-color="#f9f9f9"/><stop offset=".763" stop-color="#fff"/></radialGradient><radialGradient gradientTransform="matrix(1.0069811,0,0,0.92459157,-0.57913676,15.369536)" id="R" cx="64" cy="100.225" r="90" xlink:href="#W"><stop offset=".325" stop-color="#fff"/><stop offset=".371" stop-color="#f4f4f4"/><stop offset=".452" stop-color="#d7d7d7"/><stop offset=".557" stop-color="#a8a8a8"/><stop offset=".621" stop-color="#888"/><stop offset=".679" stop-color="#a3a3a3"/><stop offset=".74" stop-color="#bbb"/><stop offset=".752" stop-color="#b3b3b3"/><stop offset=".791" stop-color="#a0a0a0"/><stop offset=".837" stop-color="#929292"/><stop offset=".895" stop-color="#8a8a8a"/><stop offset="1" stop-color="#888"/></radialGradient><linearGradient id="S" x1="29.746" x2="69.029" y1="24.455" y2="24.455" xlink:href="#W"><stop offset="0" stop-color="#fff"/><stop offset=".058" stop-color="#fdfdfd"/><stop offset=".542" stop-color="#f2f2f0"/><stop offset="1" stop-color="#eeeeec"/></linearGradient><radialGradient cx="65.282" cy="131.454" fx="65.282" fy="131.454" gradientTransform="matrix(2.0694129,0.00191519,-0.00329657,2.6965442,-72.607508,-220.93676)" id="T" r="58.763" xlink:href="#W"><stop offset="0" stop-color="#888"/><stop offset=".147" stop-color="#aaa"/><stop offset=".302" stop-color="#c6c6c6"/><stop offset=".438" stop-color="#d7d7d7"/><stop offset=".539" stop-color="#ddd"/><stop offset=".61" stop-color="#d9d9d9"/><stop offset=".68" stop-color="#cdcdcd"/><stop offset=".746" stop-color="#bbb"/><stop offset=".784" stop-color="#bfbfbf"/><stop offset=".823" stop-color="#cbcbcb"/><stop offset=".858" stop-color="#ddd"/></radialGradient><linearGradient id="U" x1="245.712" x2="245.442" y1="7924.11" y2="8841.531" xlink:href="#W"><stop offset="0" stop-color="#82f543" stop-opacity="0"/><stop offset=".25" stop-color="#cafbaf" stop-opacity=".498"/><stop offset=".5" stop-color="#97f543"/><stop offset="1" stop-color="#7bf543" stop-opacity="0"/></linearGradient><path id="V" d="M8.827 119.043s1.086 1.66 1.996 1.66h112.312c.758-.003 2.04-1.913 2.04-1.913"/><linearGradient id="W" gradientUnits="userSpaceOnUse"/><linearGradient id="X" x1="-35.89" y1="1.285" x2="-36" y2="86.728" gradientUnits="userSpaceOnUse" spreadMethod="pad"><stop offset="0" stop-color="#8eec1f"/><stop offset="1" stop-color="#6cba10"/></linearGradient></defs><path d="M108.556 13.37l-82.33-.12c-1.867 0-3.375 1.477-3.375 3.344l-12.63 92.78c0 .212.025.424.063.625.004.02-.004.043 0 .063-.26 1.728-.22 3.926-.22 4.53l.5 8.75c0 1.03 2.416 2.188 3.97 2.188h106.03c1.553 0 3.844-1.157 3.844-2.187l.313-8.75c0-.6.122-2.698-.062-4.406.002-.01-.002-.02 0-.03a3.16 3.16 0 0 0 .063-.625L111.9 16.744c0-1.867-1.477-3.375-3.344-3.375z" transform="matrix(.982755 0 0 .875804 -2.560181 15.059456)" opacity=".7" filter="url(#A)"/><path d="M8.67 107.56h110.197c1.526 0 1.147 4.882 1.147 5.763l-.3 7.488c0 .88-2.28 1.873-3.804 1.873H11.725c-1.526 0-3.902-1-3.902-1.873l-.494-7.488c0-.88-.185-5.763 1.34-5.763z" fill="#1b1b1b"/><path d="M19.4 21.12l88.528-.26a3.303 2.874 0 0 1 3.312 2.882l8.776 85.24a3.303 2.874 0 0 1-3.312 2.882l-105.913-.13a3.303 2.874 0 0 1-3.312-2.882L16.087 24a3.303 2.874 0 0 1 3.312-2.882z" fill="url(#T)"/><g transform="matrix(.957534 0 0 .833123 -.455023 17.5272)" fill="none" stroke-width="1.516" stroke-linecap="round"><use xlink:href="#V" stroke="#111"/><use y="-.91" xlink:href="#V" stroke="#3d3d3d"/></g><g stroke-linejoin="round" stroke-dashoffset="0.15000001"><path d="M99.243 118.63c-.003.033 0 .07 0 .103 0 1.304 1.946 2.35 4.357 2.35s4.357-1.044 4.357-2.35v-.103h-8.712z" fill="none" stroke="#111" stroke-width="1.054"/><path d="M99.73 117.68c-.002.033 0 .07 0 .105 0 1.33 1.728 2.394 3.87 2.394s3.87-1.065 3.87-2.394v-.105z" fill="none" stroke="#3d3d3d" stroke-width="1.004"/><path d="M106.683 116.93c0 1.356-1.38 2.455-3.078 2.455s-3.078-1.1-3.078-2.455 1.38-2.455 3.078-2.455 3.078 1.1 3.078 2.455z" fill="#97dc00" stroke="#141414" stroke-width=".902"/></g><path d="M-9.9 117.057c0 1.6-1.425 2.917-3.182 2.917s-3.182-1.306-3.182-2.917 1.425-2.917 3.182-2.917 3.182 1.306 3.182 2.917z" transform="matrix(.59128 0 0 .514456 111.3388 56.709955)" opacity=".844" fill="#ddff91" filter="url(#B)"/><path d="M108.068 74.335c-.567-6.7-4.366-13.1-10.68-18.133L95.643 29.47c-.124-1.906-2-3.344-4.388-3.344H76.33c-2.396 0-4.248 1.458-4.3 3.4-.274 8.73-8.625 13.3-21.085 17.437-4.366.975-15.747 5.55-18.358 7.56-7.7 5.278-12.276 12.314-12.9 19.822-.578 6.83 2.2 13.663 7.823 19.243 8.23 8.167 21.828 13.043 36.377 13.043s28.146-4.876 36.377-13.043c5.135-5.095 7.898-11.24 7.898-17.467 0-.583-.026-1.183-.075-1.775zm-44.2 28.9c-24.23 0-42.783-13.685-41.442-29.55.58-6.84 4.83-14.14 11.87-18.952 1.32-1.28 13.224-6.248 17.494-7.132 11.835-3.932 22.66-9.033 23-19.784.016-.515.697-.923 1.532-.923h14.924c.864 0 1.593.427 1.628.956l1.813 27.776c6.274 4.682 10.075 11.67 10.614 18.056 1.343 15.863-17.2 29.55-41.44 29.55z" fill="url(#R)"/><path d="M63.867 65.486c-8.038 0-14.2 3.827-14.33 8.904l-.002.162c0 1.837.807 3.584 2.342 5.063 2.595 2.5 7.078 3.992 12 3.992s9.384-1.5 11.988-3.992c1.58-1.52 2.4-3.328 2.34-5.224-.132-5.076-6.294-8.904-14.33-8.904zm0 15.282c-7.552 0-11.4-3.793-11.308-7.257.086-3.4 5.152-6.132 11.308-6.132s11.233 2.725 11.31 6.13c.1 3.463-3.757 7.257-11.308 7.257z" fill="url(#Q)"/><path d="M67.645 32.288l-.237-.75c-.3-1.065-.9-3.045-3.7-3.045H28.83c-3.175 0-5.845 2.414-6.077 5.496l-.93 12.354c-.124 1.666.475 3.28 1.65 4.426 1.68 1.645 4.024 1.177 4.906 1 22.74-4.55 37.095-14.3 38.976-17.43.533-.885.45-1.604.3-2.052zm-1.905.612c.552 1.518-13.84 12.227-37.78 17.017-1.097.22-2.254.302-3.035-.462s-1.176-1.846-1.092-2.98l.02-.265c-.02-.225-.038-.45-.02-.68l.93-12.353c.156-2.072 1.976-3.737 4.07-3.737H63.7c1.615 0 1.5 1.008 2.04 2.514.042.117-.014.292-.144.508l.144.437z" fill="url(#P)"/><path d="M67.645 32.288l-.237-.75c-.3-1-.833-2.75-3.17-2.996 1.056.217 1.025 1.15 1.503 2.466.042.117-.014.292-.144.508l.144.437C66.293 33.47 51.9 44.18 27.96 48.97c-1.097.22-2.254.302-3.035-.462s-1.176-1.846-1.092-2.98l.02-.265c-.02-.225-.038-.45-.02-.68l.93-12.353c.156-2.072 1.976-3.737 4.07-3.737-3.175 0-5.845 2.414-6.077 5.496l-.93 12.354c-.124 1.666.475 3.28 1.65 4.426 1.68 1.645 4.024 1.177 4.906 1 22.738-4.55 37.095-14.313 38.975-17.43.533-.885.45-1.604.3-2.052z" fill="url(#O)"/><path d="M109.282 107.664c.126 1.6 2.027 2.916 4.242 2.916s3.9-1.314 3.744-2.916-2.046-2.896-4.24-2.896-3.87 1.294-3.746 2.896z" fill="url(#N)"/><path d="M110.715 106.53c-.2.204-.434.532-.434.966l.004.096c.086 1.1 1.57 2.048 3.238 2.048.95 0 1.817-.308 2.32-.825.216-.22.463-.586.418-1.072-.102-1.1-1.583-2.03-3.236-2.03-.942.001-1.808.306-2.312.816z" fill="url(#M)"/><path d="M10.468 107.664c-.148 1.6 1.527 2.916 3.744 2.916s4.115-1.314 4.242-2.916-1.553-2.896-3.746-2.896-4.1 1.294-4.238 2.896z" fill="url(#L)"/><path d="M11.47 107.746c-.044.487.203.85.418 1.072.504.517 1.37.825 2.322.825 1.668 0 3.16-.937 3.236-2.047.038-.483-.213-.844-.428-1.063-.506-.512-1.37-.816-2.313-.816-1.654 0-3.136.93-3.236 2.03z" fill="url(#K)"/><path d="M105.374 57.806c.096 1.345 1.833 2.44 3.86 2.44s3.564-1.096 3.44-2.44c-.123-1.338-1.85-2.42-3.855-2.42s-3.548 1.08-3.443 2.42z" fill="url(#J)"/><path d="M106.67 57.05c-.195.197-.295.4-.295.63l.002.057c.06.74 1.245 1.566 2.853 1.566.892 0 1.716-.277 2.15-.722.213-.217.308-.45.287-.7-.067-.736-1.254-1.554-2.852-1.554-.886-.001-1.7.273-2.145.716z" fill="url(#I)"/><path d="M15.065 57.806c-.124 1.345 1.417 2.44 3.44 2.44s3.752-1.096 3.857-2.44c.105-1.338-1.436-2.42-3.442-2.42s-3.732 1.08-3.856 2.42z" fill="url(#H)"/><path d="M16.067 57.888c-.022.25.075.475.287.7.435.446 1.26.722 2.152.722 1.6 0 2.794-.825 2.853-1.565.02-.242-.08-.472-.292-.686-.437-.442-1.26-.716-2.145-.716-1.597 0-2.786.82-2.853 1.554z" fill="url(#G)"/><path d="M102.7 23.7c.093 1.177 1.703 2.136 3.596 2.136s3.34-.958 3.232-2.136c-.108-1.17-1.718-2.118-3.594-2.118s-3.323.946-3.234 2.118z" fill="url(#F)"/><path d="M103.912 23.173c-.188.188-.2.34-.2.418l.002.04c.046.583 1.187 1.26 2.592 1.26 1.027 0 1.72-.335 2.026-.65.223-.23.208-.402.2-.46-.055-.583-1.174-1.253-2.6-1.253-1.02.001-1.724.333-2.02.645z" fill="url(#E)"/><path d="M18.207 23.7c-.1 1.177 1.34 2.136 3.232 2.136s3.505-.958 3.596-2.136c.092-1.17-1.358-2.118-3.234-2.118s-3.485.946-3.594 2.118z" fill="url(#D)"/><path d="M19.2 23.782c-.005.058-.02.23.2.46.306.313 1 .648 2.026.648 1.405 0 2.547-.676 2.592-1.26.004-.057.02-.23-.2-.458-.308-.312-1-.645-2.02-.645-1.417 0-2.536.662-2.6 1.253z" fill="url(#C)"/><path d="M30.05 22.11c-.53 0-.97.315-1.005.72l-.306 3.627a.823.716 0 0 0 .271.576c.192.155.456.243.734.243h39.284c.268 0 .527-.083.716-.228s.294-.343.29-.55L70 22.87c-.006-.42-.454-.76-1.007-.76H30.05z" fill="#bbb"/><path d="M30.05 22.225h38.933l.046 4.46H29.747z" fill="url(#S)"/><path d="M62.814 25.588v-.32h-1.468l-.002.322h-.396l.004-.77h.395l-.002.36h1.47v-.362h.395v.77h-.395zm-2.542-.01l-.84.017c-.575 0-.964-.03-1.23-.095-.275-.062-.43-.153-.43-.277s.16-.228.44-.3c.3-.072.766-.1 1.347-.1l.715.008-.005.756zm-.4-.683l-.395-.005c-.838-.001-1.293.12-1.296.327-.007.183.397.297 1.228.297l.46-.01.005-.608zm-2.614.683l-.84.017c-.575 0-.964-.03-1.23-.095-.274-.062-.43-.153-.428-.277s.163-.228.442-.3c.3-.072.758-.1 1.347-.1l.715.008-.008.756zm-.387-.683l-.396-.005c-.838-.001-1.293.12-1.298.327-.007.183.396.297 1.226.297l.46-.01zm-5.34.665l.001-.067 1.293-.666h.405l-1.28.656v.002h1.432l-.002.083h-1.848zm-.4-.75v.062l-.313.077c-.754.18-1.097.277-1.1.388-.002.083.136.145.573.145a3.13 3.13 0 0 0 .624-.062l.124.07a4.16 4.16 0 0 1-.833.083c-.627 0-.9-.1-.886-.217.004-.137.398-.248 1.02-.398l.232-.055H49.28v-.083h1.87zm-3.25-.003c.572 0 .96.135.96.38-.007.25-.44.386-1.034.386-.613 0-.964-.14-.958-.375.01-.252.388-.392 1.027-.392zm-.02.077c-.402 0-.6.12-.605.308s.17.302.586.302c.36 0 .6-.117.603-.302.015-.193-.215-.308-.58-.308h-.005zm-2.28-.077c.572 0 .96.135.96.38-.01.25-.442.386-1.037.386-.613 0-.964-.14-.955-.375.01-.252.4-.392 1.028-.392zm-.02.077c-.402 0-.6.12-.607.308s.17.302.575.302c.36 0 .6-.117.606-.302.016-.193-.214-.308-.58-.308h-.004zm-1.53.693l-.755.017c-.418 0-.693-.02-.88-.063-.147-.033-.236-.086-.233-.147.004-.1.265-.167.58-.195v.005c-.23-.02-.366-.083-.44-.155-.096-.108-.163-.182-.22-.2h.405c.048.022.115.088.192.183.096.106.25.146.606.15h.37l.013-.333h.383l-.03.75zm-.377-.35h-.402c-.418 0-.687.058-.7.146-.004.1.287.143.7.143l.4-.008.01-.28zm-2.047.352l-.755.017c-.388 0-.67-.022-.85-.063-.165-.037-.266-.083-.262-.16s.096-.125.25-.165c.2-.056.548-.083.932-.083l.316.008.014-.308h.383l-.034.75zm-.375-.37l-.326-.008c-.477 0-.764.06-.77.162s.287.152.7.152l.37-.008.014-.3zm-4.562-.052a1.89 1.89 0 0 1 .032.333h.01l.398-.292.555-.373h.287l.476.367a1.94 1.94 0 0 1 .332.3h.01a2.43 2.43 0 0 1 .077-.333l.098-.33h.383l-.25.77h-.5l-.5-.373-.293-.25h-.01a2.45 2.45 0 0 1-.337.25l-.56.373h-.5l-.147-.77h.388l.054.337z" fill="#888"/><path d="M78.22 3.233l-.014 29.298-.613 2.082.014-29.298z" fill="url(#U)"/><path d="M50.67 1.84c-.83 0-1.5.67-1.5 1.5l-.027 33.088-17.658.02c-.64.004-1.23.535-1.5 1.152-.3.706-.017 1.5.38 2.076L64 86.728l33.695-47.373c.398-.59.44-1.35.105-1.98-.28-.53-.796-1.005-1.383-.994L78.83 36.4V3.34c0-.83-.67-1.5-1.5-1.5z" fill="url(#X)" stroke="#000" stroke-width="3" stroke-linejoin="round" paint-order="stroke fill markers"/></svg>