<svg xmlns="http://www.w3.org/2000/svg" xmlns:xlink="http://www.w3.org/1999/xlink" overflow="visible" viewBox="0 0 128 128"><defs><linearGradient id="A" xlink:href="#Z"><stop stop-color="#fff" offset="0"/><stop stop-color="#252525" stop-opacity="0" offset="1"/></linearGradient><linearGradient id="B" x1="94.344" x2="86.536" y1="102.34" y2="94.537" xlink:href="#Z"><stop stop-color="#fff" offset="0"/><stop stop-color="#555753" offset="1"/></linearGradient><linearGradient id="C" x1="95" x2="86.586" y1="103" y2="94.586" xlink:href="#Z"><stop stop-color="#fff" offset="0"/><stop stop-color="#555753" offset="1"/></linearGradient><linearGradient id="D" x1="95" x2="87.293" y1="103" y2="95.293" xlink:href="#Z"><stop stop-color="#fff" offset="0"/><stop stop-color="#393b38" offset="1"/></linearGradient><linearGradient id="E" x1="96" x2="88" y1="104" y2="96" xlink:href="#Z"><stop stop-color="#888a85" offset="0"/><stop stop-color="#8c8e89" offset=".007"/><stop stop-color="#abaca9" offset=".067"/><stop stop-color="#c5c6c4" offset=".135"/><stop stop-color="#dbdbda" offset=".212"/><stop stop-color="#ebebeb" offset=".301"/><stop stop-color="#f7f7f6" offset=".412"/><stop stop-color="#fdfdfd" offset=".568"/><stop stop-color="#fff" offset="1"/></linearGradient><radialGradient id="F" cx="102" cy="112.3" r="139.56" gradientTransform="matrix(.97872 0 0 .98182 1.3617 1.1636)" xlink:href="#Z"><stop stop-color="#535557" offset="0"/><stop stop-color="#898a8c" offset=".114"/><stop stop-color="#ececec" offset=".203"/><stop stop-color="#fafafa" offset=".236"/><stop stop-color="#fff" offset=".272"/><stop stop-color="#fafafa" offset=".531"/><stop stop-color="#ebecec" offset=".845"/><stop stop-color="#e1e2e3" offset="1"/></radialGradient><radialGradient id="G" cx="102" cy="112.3" r="139.56" gradientTransform="translate(2.4e-6)" xlink:href="#Z"><stop stop-color="#00537d" offset="0"/><stop stop-color="#186389" offset=".015"/><stop stop-color="#558ca8" offset=".056"/><stop stop-color="#89afc3" offset=".096"/><stop stop-color="#b3ccd8" offset=".136"/><stop stop-color="#d4e2e9" offset=".174"/><stop stop-color="#ecf2f5" offset=".21"/><stop stop-color="#fafcfd" offset=".244"/><stop stop-color="#fff" offset=".272"/></radialGradient><filter id="H"><feGaussianBlur stdDeviation="1.039"/></filter><filter id="I"><feGaussianBlur stdDeviation=".501"/></filter><radialGradient id="J" cx="49.012" cy="2.674" r="1.725" gradientTransform="matrix(1.5496 0 0 .18768 -193.24 -23.536)" xlink:href="#A" /><radialGradient id="K" cx="49.012" cy="2.674" r="1.725" gradientTransform="matrix(1.5506 0 0 .18731 21.622 -31.864)" xlink:href="#A" /><radialGradient id="L" cx="49.012" cy="2.674" r="1.725" gradientTransform="matrix(2.26 0 0 .27524 -2.259 -25.415)" xlink:href="#A" /><linearGradient id="M" x1="92.258" x2="96.6" y1="54.118" y2="57.149" xlink:href="#Z"><stop stop-color="#ea3838" offset="0"/><stop stop-color="#c40000" offset="1"/></linearGradient><linearGradient id="N" x1="98.606" x2="96.665" y1="50.573" y2="53.559" xlink:href="#Z"><stop stop-color="#fff" offset="0"/><stop stop-color="#fff" stop-opacity="0" offset="1"/></linearGradient><linearGradient id="O" x1="44.721" x2="39.224" y1="121.44" y2="114.908" xlink:href="#Z"><stop offset="0"/><stop stop-color="#515151" offset="1"/></linearGradient><radialGradient id="P" cx="34.678" cy="7.462" r="47.595" gradientTransform="matrix(-1.5103 .0026413 -.00011671 -.0091102 87.052 7.4387)" xlink:href="#Z"><stop stop-color="#fff" offset="0"/><stop stop-color="#fff" stop-opacity="0" offset="1"/></radialGradient><linearGradient id="Q" x1="-12.818" x2="82.173" y1="7.462" y2="7.462" xlink:href="#Z"><stop stop-color="#fff" stop-opacity=".683" offset="0"/><stop stop-color="#fff" stop-opacity="0" offset="1"/></linearGradient><linearGradient id="R" x1="114.948" x2="100.689" y1="-22.635" y2="-22.129" xlink:href="#Z"><stop stop-color="#980000" offset="0"/><stop stop-color="#db5c5c" offset="1"/></linearGradient><linearGradient id="S" x1="64.904" x2="68.983" y1="76.905" y2="80.493" xlink:href="#Z"><stop stop-color="#9a7600" offset="0"/><stop stop-color="#e3ad00" offset=".093"/><stop stop-color="#ffcd2c" offset=".504"/><stop stop-color="#e3ad00" offset=".916"/><stop stop-color="#b98d00" offset="1"/></linearGradient><linearGradient id="T" x1="76.746" x2="80.612" y1="83.322" y2="87.151" xlink:href="#Z"><stop stop-color="#d4a100" stop-opacity=".976" offset="0"/><stop stop-color="#ffc712" offset="1"/></linearGradient><linearGradient id="U" x1="75.886" x2="81.483" y1="72.801" y2="77.044" xlink:href="#Z"><stop stop-color="#252525" offset="0"/><stop stop-color="#252525" offset=".75"/><stop offset="1"/></linearGradient><radialGradient id="V" cx="42.618" cy="120.64" r="3.407" gradientTransform="matrix(1.9091 1.8392 -8.6223 7.5766 1009.9 -881.36)" xlink:href="#Z"><stop stop-color="#b4942a" offset="0"/><stop stop-color="#e4dcc9" offset="1"/></radialGradient><linearGradient id="W" x1="65.362" x2="98.162" y1="61.871" y2="76.134" xlink:href="#Z"><stop offset="0"/><stop stop-opacity="0" offset="1"/></linearGradient><filter id="X"><feGaussianBlur stdDeviation=".315"/></filter><filter id="Y"><feGaussianBlur stdDeviation="1.476"/></filter><linearGradient id="Z" gradientUnits="userSpaceOnUse"/></defs><g transform="matrix(1.0417 0 0 1.0357 -9.9583 -3.3215)"><path d="M24.92 10.93v108.14h58.676a2 2 0 0 0 1.414-.586l31.484-31.766a2 2 0 0 0 .586-1.414V10.933H24.92z" filter="url(#I)" opacity=".896"/><path d="M23 9.966l.04 111.03h61.13a2 2 0 0 0 1.414-.586l32.828-32.828a2 2 0 0 0 .586-1.414V9.962H23z" filter="url(#H)" opacity=".307"/></g><path d="M16 8v112h61.172a2 2 0 0 0 1.414-.586l32.828-32.828a2 2 0 0 0 .586-1.414V8H16z" fill="url(#G)"/><path d="M18.98 10c-.54 0-.98.44-.98.982v106.04a.98.98 0 0 0 .979.982h57.913a.98.98 0 0 0 .692-.288l32.13-32.23a.99.99 0 0 0 .287-.694V10.986a.98.98 0 0 0-.979-.982H18.98z" fill="url(#F)"/><path d="M111.4 86.586c.25-.25-18.38 6.414-23.414 6.414-1.654 0-3 1.346-3 3 0 5.035-6.664 23.664-6.414 23.414L111.4 86.586z" fill="url(#B)" opacity=".1"/><path d="M111.4 86.586C111.785 86.21 97.44 94 87.996 94c-1.103 0-2 .897-2 2 0 9.444-7.79 23.79-7.414 23.414L111.4 86.586z" fill="url(#C)" opacity=".1"/><path d="M111.4 86.586c.24-.24-13.607 8.414-23.414 8.414a1 1 0 0 0-1 1c0 9.807-8.653 23.653-8.414 23.414L111.4 86.586z" fill="url(#D)" opacity=".1"/><path d="M78.586 119.4S90.5 109.496 96 103.996s15.414-17.414 15.414-17.414S98.25 95.996 88 95.996c0 10.25-9.414 23.414-9.414 23.414z" fill="url(#E)"/><g transform="matrix(1.4512 0 0 1.4512 -23.108 -69.655)"><g fill-rule="evenodd"><path d="M90.068 48.288c.614-.692 4.65-.363 8.944 3.537 4.338 3.938 5.2 7.748 4.44 8.615l-1.5 1.693L88.567 49.98l1.5-1.693" fill="#bf0000"/><path d="M36 124l20.247-9.427.094-.108-13.27-12.284-.128.146L36 124z" fill="#b3925d"/><path d="M97.75 56.002c-1.026-.045-1.882.615-2.666.987-4.175 3.7-21.57 21.653-22 22.17l-17.38 20.776-9.682 17.633 23.6-5.262 29.942-36.05 3.6-4.294c.647-1.2 1.24-7.813-1.742-12.767-1.453-2.415-2.635-3.147-3.66-3.192zm5.402 15.96c-.027.05-.045.144-.07.174-.013.015 1.492-1.05.675-.87l-.604.696z" fill="url(#W)" filter="url(#Y)"/><path d="M37.004 123.02l18.885-8.78.094-.108-12.552-11.61-.128.146-6.3 20.35z" fill="url(#V)"/></g><path d="M49.164 108.94c1.65 1.5 2.755 1.51 3.345 2.047.095.087.175.19.244.292l44.64-51.266-6.48-5.9-44.725 51.363c.215.056.416.135.602.304.54.5.718 1.65 2.374 3.16z" fill="url(#U)"/><path d="M54.22 109.12l-1.75 2.002c.54.53.432 1.465 1.422 2.367 1.067.972 1.63.458 2.322 1.085l1.77-2.026-3.765-3.427z" opacity=".353"/><path d="M97.156 59.802L52.55 111.03c.542.534.517 1.377 1.513 2.284 1.073.977 1.555.556 2.25 1.185l44.627-51.252-3.784-3.445z" fill="url(#T)"/><path d="M47.64 104.8l-.898 1.027-.034.038c.448.42.396 1.4 1.878 2.86l.082.075.67.61c1.616 1.35 2.547 1.167 3.136 1.704l.948-1.096-5.78-5.217z" fill="#252525" opacity=".386"/><path d="M43.885 101.37l-.94.955c.02.02-.053.105-.032.124.423.385.413 1.368 1.2 2.202l.432.393c.926.722 1.702.464 2.175.83l.94-1.076-3.765-3.427z" fill="#131313" opacity=".353"/><path d="M44.502 104.67c1.032.93 1.738.61 2.288 1.11l44.606-51.228-3.825-3.48-44.627 51.252.063.057c.43.39.455 1.353 1.495 2.29z" fill="url(#S)"/><path transform="matrix(.74093 .67158 -.66557 .74634 0 0)" fill="url(#R)" d="M99.38-24.645h18.073v4.252H99.38z"/><path transform="matrix(.38549 -.44037 -1.7345 -1.5765 62.874 110.46)" d="m82.173 7.4623a47.495 0.97142 0 1 1-94.99 0 47.495 0.97142 0 1 1 94.99 0z" fill="url(#Q)" filter="url(#X)"/><path transform="matrix(.31849 -.36653 -1.2576 -1.1453 66.926 101.48)" d="m106.56 7.4623a71.883 0.42305 0 1 1-0.03548-0.01329" fill="url(#P)"/><g fill-rule="evenodd"><path d="M44.72 119.98c-1.895-.778-4.47-3.936-5.788-5.078L36 123.99l8.72-4.01z" fill="url(#O)"/><path d="M97.676 50.958c2.773 2.158 4.755 5.137 4.864 5.423s-2.587-3.046-4.878-4.572c-2.274-1.514-5.45-1.552-5.686-1.737s-1.823-1.877-.382-1.815c1.507.065 3.94 1.036 6.082 2.7z" fill="url(#N)"/></g><path d="M93.653 51.593L90.88 54.81l6.483 5.874 2.774-3.187-6.482-5.905z" fill="url(#M)"/><path transform="matrix(.74042 .67215 -.66342 .74824 0 0)" fill="url(#L)" d="M104.6-25.365h7.795v1.708H104.6z"/><path transform="matrix(.69422 .71976 -.76934 .63884 0 0)" fill="url(#K)" d="M94.947-31.83h5.348v1.163h-5.348z"/><path transform="matrix(-.75146 -.65978 -.58931 .8079 0 0)" fill="url(#J)" d="M-119.97-23.5h5.345v1.165h-5.345z"/></g></svg>