<svg xmlns="http://www.w3.org/2000/svg" xmlns:xlink="http://www.w3.org/1999/xlink" width="128" height="128"><defs><linearGradient id="A" xlink:href="#a"><stop offset="0" stop-color="#765c44"/><stop offset="1" stop-color="#765c44" stop-opacity="0"/></linearGradient><filter x="-.021" width="1.042" y="-.132" height="1.264" ><feGaussianBlur stdDeviation=".609"/></filter><linearGradient id="C" xlink:href="#a"><stop offset="0" stop-color="#fff"/><stop offset="1" stop-color="#790000" stop-opacity="0"/></linearGradient><linearGradient y2="-15.689" x2="-37.423" y1="78.411" x1="-37.423" id="D" xlink:href="#I"/><clipPath id="E"><path d="M-64.5 10.75a4 4 0 0 0-2.781 1.156l-16.97 16.97a4 4 0 0 0 0 5.656L-58.823 60-84.26 85.47a4 4 0 0 0 0 5.656l16.97 16.97a4 4 0 0 0 5.656 0l25.47-25.437 25.47 25.438a4 4 0 0 0 5.656 0l16.97-16.97a4 4 0 0 0 0-5.656L-13.5 60l25.438-25.47a4 4 0 0 0 0-5.656l-16.97-16.97a4 4 0 0 0-5.656 0l-25.47 25.438-25.47-25.437a4 4 0 0 0-2.875-1.156zm31.188 63.406a4 4 0 0 0-5.687 0h5.688z" fill="url(#D)" fill-opacity="1" stroke="none"/></clipPath><filter id="F" height="1.296" y="-.148" width="1.233" x="-.116"><feGaussianBlur stdDeviation="2.57"/></filter><filter id="G" height="1.277" y="-.139" width="1.28" x="-.14"><feGaussianBlur stdDeviation=".288"/></filter><filter id="H"><feGaussianBlur stdDeviation=".458"/></filter><linearGradient id="I" xlink:href="#a"><stop offset="0" stop-color="#810000"/><stop offset="1" stop-color="#c50000"/></linearGradient><linearGradient id="J" xlink:href="#a"><stop offset="0" stop-color="#ff8787"/><stop offset="1" stop-color="#ff8787" stop-opacity="0"/></linearGradient><linearGradient id="K" x1="28.638" y1="13.536" x2="34.575" y2="13.536" xlink:href="#a"><stop offset="0" stop-color="#fff"/><stop offset="1" stop-color="#fff" stop-opacity="0"/></linearGradient><linearGradient xlink:href="#A" id="L" x1="28.638" y1="13.536" x2="34.575" y2="13.536"/><linearGradient xlink:href="#A" id="M" x1="304.887" y1="385.861" x2="345.62" y2="384.624"/><linearGradient xlink:href="#J" id="N" spreadMethod="reflect" x1="88.606" y1="13.51" x2="91.575" y2="13.51"/><linearGradient id="O" x1="60" y1="92.973" x2="57.434" y2="55.079" xlink:href="#a"><stop offset="0" stop-color="#fff5e4"/><stop offset=".25" stop-color="#ffecd0"/><stop offset=".5" stop-color="#ffd390"/><stop offset="1" stop-color="#ffc46a"/></linearGradient><radialGradient id="P" gradientTransform="matrix(0.4576062,0,0,0.782313,-19.847694,18.82067)" cx="-36.593" cy="90.073" fx="-36.593" fy="90.073" r="25.986" xlink:href="#a"><stop offset="0"/><stop offset="1" stop-opacity="0"/></radialGradient><linearGradient xlink:href="#C" id="Q" spreadMethod="reflect" x1="31.606" y1="13.51" x2="34.575" y2="13.51"/><linearGradient xlink:href="#C" id="R" spreadMethod="reflect" x1="88.606" y1="13.51" x2="91.575" y2="13.51"/><linearGradient id="S" x1="61.727" y1="76.739" x2="60.866" y2="26.598" xlink:href="#a"><stop offset="0" stop-color="#fff" stop-opacity="0"/><stop offset="1" stop-color="#fff"/></linearGradient><linearGradient xlink:href="#J" id="T" x1="51.591" y1="26.721" x2="51.591" y2="74.091"/><linearGradient id="U" x1="99.899" y1="161.778" x2="76.738" y2="-52.604" xlink:href="#a"><stop offset="0" stop-color="#f4f5f8"/><stop offset="1" stop-color="#fdfdfe"/></linearGradient><linearGradient id="V" x1="59.135" y1="91.73" x2="59.135" y2="41.255" xlink:href="#a"><stop offset="0" stop-color="red"/><stop offset="1" stop-color="#7f0000"/></linearGradient><linearGradient xlink:href="#I" id="W" x1="62.776" y1="81.939" x2="62.776" y2="-9.745"/><path id="X" d="M-62.58 106.787l26.163-26.87 25.81 26.517-25.81-40.305-26.163 40.66z"/><path id="Y" d="M31.7 16l2.875-3.375c-1.05-1.696-3.935-2.288-5.938-.312l2.813 3.375.25.313z"/><path id="Z" d="M88.7 16l2.875-3.375c-1.05-1.696-3.935-2.288-5.937-.312l2.813 3.375.25.313z"/><linearGradient id="a" gradientUnits="userSpaceOnUse"/></defs><path d="M-259.402 132.756v-2.795 2.795zM215.36-31.058v-2.795 2.795zm34.376 53.394V20.8v1.527z" fill-opacity=".757" fill="#fff"/><path d="M36.384 16.014a3.9 3.9 0 0 0-2.71 1.127L17.14 33.674a3.9 3.9 0 0 0 0 5.511L41.925 64 17.14 88.815a3.9 3.9 0 0 0 0 5.511l16.533 16.533a3.9 3.9 0 0 0 5.511 0L64 86.075l24.815 24.784a3.9 3.9 0 0 0 5.511 0l16.533-16.533a3.9 3.9 0 0 0 0-5.511L86.075 64l24.784-24.815a3.9 3.9 0 0 0 0-5.511L94.326 17.14a3.9 3.9 0 0 0-5.511 0L64 41.925 39.185 17.14a3.9 3.9 0 0 0-2.801-1.127zM66.77 77.793a3.9 3.9 0 0 0-5.541 0h5.54z" fill="url(#W)"/><g fill-rule="evenodd"><use xlink:href="#X" clip-path="url(#E)" transform="matrix(.974326 0 0 .974326 99.290143 5.540481)" stroke="#000" stroke-width=".494" filter="url(#F)"/><use xlink:href="#Y" transform="matrix(0 1.816378 -1.816377 0 130.55195 34.179955)" opacity=".498" fill="url(#K)" filter="url(#G)"/><use xlink:href="#Y" transform="matrix(1.793818 0 0 -1.793818 -20.276758 130.94405)" opacity=".8" fill="url(#L)" filter="url(#G)"/><use xlink:href="#Y" transform="matrix(0 1.64482 1.64482 0 -.724353 39.584706)" opacity=".498" fill="url(#M)" filter="url(#G)"/></g><path d="M91.558 23.437L64 50.995 36.442 23.437 23.437 36.442 50.995 64 23.437 91.558l13.005 13.005L64 77.005l27.558 27.558 13.005-13.005L77.005 64l27.558-27.558-13.005-13.005z" opacity=".92" fill="url(#V)"/><g fill-rule="evenodd"><use xlink:href="#Z" transform="matrix(1.64482 0 0 -1.644819 -53.800876 129.5366)" opacity=".8" fill="url(#N)" filter="url(#G)"/><use xlink:href="#X" transform="matrix(.974326 0 0 -.974325 99.290147 122.00005)" clip-path="url(#E)" fill="url(#P)" filter="url(#F)"/><use xlink:href="#Y" transform="matrix(1.495821 0 0 1.495821 -10.888668 .614396)" opacity=".8" fill="url(#Q)" filter="url(#G)"/><use xlink:href="#Z" transform="matrix(1.535694 0 0 1.535694 -44.142789 .237756)" opacity=".8" fill="url(#R)" filter="url(#G)"/></g><path d="M88.284 18.368L60 46.653 31.716 18.368 18.368 31.716 46.653 60 18.368 88.284l13.347 13.347L60 73.347l28.284 28.284 13.347-13.347L73.347 60l28.284-28.284-13.347-13.347z" transform="matrix(.974326 0 0 .974326 5.540478 5.540485)" opacity=".92" fill="none" stroke="url(#O)" stroke-width="1.54" stroke-linejoin="round" stroke-dashoffset="1.08779998" filter="url(#H)"/><path d="M36.427 23.375L23.424 36.377l12.76-11.785L64 50.998l27.293-26.406 10.932 10.932c-.096.495-.225.974-.365 1.46L90.016 50.78c-10.683 5.326-25.58 10.58-41.593 10.596l.274.274 1.37.03c16.063 0 27.108-3.308 37.818-8.647l15.742-15.742.183-.67a13.12 13.12 0 0 0 .183-.792L91.537 23.375l-.73.73L64 50.998 36.427 23.375z" fill="url(#U)"/><path d="M36.445 23.442L23.442 36.445l25.272 25.272 1.37.03c16.063 0 27.108-3.308 37.818-8.647l15.742-15.742c.14-.487.27-.967.365-1.46L91.555 23.442 64 50.997 36.445 23.442z" fill="url(#T)"/><path d="M36.427 23.375L23.424 36.377l12.76-11.785 27.824 28.244L64 50.998l.01 1.824 27.283-28.23 10.932 10.932c-.096.495-.225.974-.365 1.46L90.016 50.78c-10.683 5.326-25.58 10.58-41.593 10.596l.274.274 1.37.03c16.063 0 27.108-3.308 37.818-8.647l15.742-15.742.183-.67a13.12 13.12 0 0 0 .183-.792L91.537 23.375l-.73.73L64 50.998 36.427 23.375z" fill="url(#S)"/></svg>