<svg width="128" height="128" overflow="visible" xmlns="http://www.w3.org/2000/svg" xmlns:xlink="http://www.w3.org/1999/xlink"><defs><filter id="A"><feGaussianBlur stdDeviation="1.207"/></filter><radialGradient id="B" cx="102" cy="112.3" r="139.56" gradientTransform="matrix(.875 0 0 .85714 10 17.143)" gradientUnits="userSpaceOnUse"><stop stop-color="#00537d" offset="0"/><stop stop-color="#186389" offset=".015"/><stop stop-color="#558ca8" offset=".056"/><stop stop-color="#89afc3" offset=".096"/><stop stop-color="#b3ccd8" offset=".136"/><stop stop-color="#d4e2e9" offset=".174"/><stop stop-color="#ecf2f5" offset=".21"/><stop stop-color="#fafcfd" offset=".244"/><stop stop-color="#fff" offset=".272"/></radialGradient><radialGradient id="C" cx="99.081" cy="109.33" r="139.56" gradientTransform="matrix(.85638 0 0 .84156 11.191 18.14)" gradientUnits="userSpaceOnUse"><stop stop-color="#7a7d80" offset="0"/><stop stop-color="#c2c2c2" offset=".126"/><stop stop-color="#fafafa" offset=".233"/><stop stop-color="#fff" offset=".272"/><stop stop-color="#fafafa" offset=".531"/><stop stop-color="#ebecec" offset=".845"/><stop stop-color="#e1e2e3" offset="1"/></radialGradient><linearGradient id="D" x1="94" x2="85.75" y1="106.29" y2="97.804" gradientUnits="userSpaceOnUse"><stop stop-color="#888a85" offset="0"/><stop stop-color="#8c8e89" offset=".007"/><stop stop-color="#abaca9" offset=".067"/><stop stop-color="#c5c6c4" offset=".135"/><stop stop-color="#dbdbda" offset=".212"/><stop stop-color="#ebebeb" offset=".301"/><stop stop-color="#f7f7f6" offset=".412"/><stop stop-color="#fdfdfd" offset=".568"/><stop stop-color="#fff" offset="1"/></linearGradient><filter id="E"><feGaussianBlur stdDeviation=".9"/></filter></defs><linearGradient x1="94.344" x2="86.536" y1="102.34" y2="94.537" gradientUnits="userSpaceOnUse"><stop stop-color="#fff" offset="0"/><stop stop-color="#555753" offset="1"/></linearGradient><linearGradient x1="95" x2="86.587" y1="103" y2="94.587" gradientUnits="userSpaceOnUse"><stop stop-color="#fff" offset="0"/><stop stop-color="#555753" offset="1"/></linearGradient><linearGradient x1="95" x2="87.293" y1="103" y2="95.293" gradientUnits="userSpaceOnUse"><stop stop-color="#fff" offset="0"/><stop stop-color="#393b38" offset="1"/></linearGradient><g id="I" transform="translate(12)"><path transform="matrix(1.0476 0 0 1.0417 -2.0952 -4.0417)" d="M23 25v96h53.525C76.99 121 107 91.602 107 91.147V25H23z" filter="url(#E)" opacity=".6"/><path d="M24 24v96h53.525C77.99 120 108 90.602 108 90.147V24H24z" fill="url(#B)"/><path d="M26.606 25.714a.85.85 0 0 0-.856.842v90.888a.85.85 0 0 0 .856.842H77.28c.225 0 .446-.09.605-.247L106 90.412a.84.84 0 0 0 .251-.595V26.556a.85.85 0 0 0-.856-.842H26.606z" fill="url(#C)"/><path d="M76.526 120S88.187 111 93 106.286s14-16.138 14-16.138S99 96 83 96c0 16-6.475 24-6.475 24z" filter="url(#A)" opacity=".5"/><path d="M77.526 120S89.187 111 94 106.286s14-16.138 14-16.138S100 96 84 96c0 16-6.475 24-6.475 24z" fill="url(#D)"/></g><use x="-28" y="-16" width="128" height="128" xlink:href="#I"/></svg>
