<svg xmlns="http://www.w3.org/2000/svg" xmlns:xlink="http://www.w3.org/1999/xlink" width="128" height="128" overflow="visible"><defs><filter id="A"><feGaussianBlur stdDeviation="1.207"/></filter><radialGradient id="B" gradientTransform="matrix(0.8749999,0,0,0.8571428,10.000003,17.142857)" cx="102" cy="112.305" r="139.559" gradientUnits="userSpaceOnUse"><stop offset="0" stop-color="#00537d"/><stop offset=".015" stop-color="#186389"/><stop offset=".056" stop-color="#558ca8"/><stop offset=".096" stop-color="#89afc3"/><stop offset=".136" stop-color="#b3ccd8"/><stop offset=".174" stop-color="#d4e2e9"/><stop offset=".21" stop-color="#ecf2f5"/><stop offset=".244" stop-color="#fafcfd"/><stop offset=".272" stop-color="#fff"/></radialGradient><radialGradient id="C" gradientTransform="matrix(0.856383,0,0,0.8415585,11.191492,18.14026)" cx="99.081" cy="109.334" fx="99.081" fy="109.334" r="139.559" gradientUnits="userSpaceOnUse"><stop offset="0" stop-color="#7a7d80"/><stop offset=".126" stop-color="#c2c2c2"/><stop offset=".233" stop-color="#fafafa"/><stop offset=".272" stop-color="#fff"/><stop offset=".531" stop-color="#fafafa"/><stop offset=".845" stop-color="#ebecec"/><stop offset="1" stop-color="#e1e2e3"/></radialGradient><linearGradient id="D" x1="94" y1="106.286" x2="85.75" y2="97.804" gradientUnits="userSpaceOnUse"><stop offset="0" stop-color="#888a85"/><stop offset=".007" stop-color="#8c8e89"/><stop offset=".067" stop-color="#abaca9"/><stop offset=".135" stop-color="#c5c6c4"/><stop offset=".212" stop-color="#dbdbda"/><stop offset=".301" stop-color="#ebebeb"/><stop offset=".412" stop-color="#f7f7f6"/><stop offset=".568" stop-color="#fdfdfd"/><stop offset="1" stop-color="#fff"/></linearGradient><filter id="E"><feGaussianBlur stdDeviation=".9"/></filter></defs><linearGradient  gradientUnits="userSpaceOnUse" x1="94.344" y1="102.345" x2="86.536" y2="94.537"><stop offset="0" stop-color="#fff"/><stop offset="1" stop-color="#555753"/></linearGradient><linearGradient  gradientUnits="userSpaceOnUse" x1="95" y1="103" x2="86.587" y2="94.587"><stop offset="0" stop-color="#fff"/><stop offset="1" stop-color="#555753"/></linearGradient><linearGradient  gradientUnits="userSpaceOnUse" x1="95" y1="103" x2="87.293" y2="95.293"><stop offset="0" stop-color="#fff"/><stop offset="1" stop-color="#393b38"/></linearGradient><g id="I" transform="translate(12)"><path d="M23 25v96h53.525C76.99 121 107 91.602 107 91.147V25H23z" transform="matrix(1.047619 0 0 1.041667 -2.095238 -4.041666)" opacity=".6" filter="url(#E)"/><path d="M24 24v96h53.525C77.99 120 108 90.602 108 90.147V24H24z" fill="url(#B)"/><path d="M26.606 25.714a.85.85 0 0 0-.856.842v90.888a.85.85 0 0 0 .856.842H77.28c.225 0 .446-.09.605-.247L106 90.412a.84.84 0 0 0 .251-.595V26.556a.85.85 0 0 0-.856-.842H26.606z" fill="url(#C)"/><path d="M76.526 120S88.187 111 93 106.286s14-16.138 14-16.138S99 96 83 96c0 16-6.475 24-6.475 24z" opacity=".5" filter="url(#A)"/><path d="M77.526 120S89.187 111 94 106.286s14-16.138 14-16.138S100 96 84 96c0 16-6.475 24-6.475 24z" fill="url(#D)"/></g><use xlink:href="#I" width="128" height="128" x="-28" y="-16"/></svg>