<svg xmlns="http://www.w3.org/2000/svg" xmlns:xlink="http://www.w3.org/1999/xlink" width="128" height="128"><defs><linearGradient id="A" xlink:href="#g"><stop offset="0" stop-color="#fff"/><stop offset="1" stop-color="#fff" stop-opacity="0"/></linearGradient><linearGradient id="B" xlink:href="#g"><stop offset="0" stop-color="#fff"/><stop offset="1" stop-color="#fff" stop-opacity="0"/></linearGradient><linearGradient id="C" xlink:href="#g"><stop offset="0" stop-color="#00181d"/><stop offset="1" stop-color="#00181d" stop-opacity="0"/></linearGradient><filter id="D"><feGaussianBlur stdDeviation=".784"/></filter><linearGradient id="E" x1="87.007" y1="102.509" x2="80.426" y2="95.104" xlink:href="#g"><stop offset="0" stop-color="#8c8c8c"/><stop offset=".25" stop-color="#a8a8a8"/><stop offset=".5" stop-color="#c5c5c5"/><stop offset=".75" stop-color="#e2e2e2"/><stop offset="1" stop-color="#fff"/></linearGradient><linearGradient id="F" x1="69.393" y1="11.673" x2="69.393" y2="28.14" xlink:href="#g"><stop offset="0" stop-color="#fff"/><stop offset=".533" stop-color="#8b8b8b"/><stop offset=".632" stop-color="#a5a5a5"/><stop offset=".699" stop-color="#f4f4f4"/><stop offset=".75" stop-color="#bbb"/><stop offset="1" stop-color="#b1b1b1"/></linearGradient><filter id="G" x="-.038" width="1.076" y="-.114" height="1.227"><feGaussianBlur stdDeviation=".758"/></filter><radialGradient id="H" gradientTransform="matrix(1.2012551,0,0,2.8954253,-22.675344,-132.37182)" cx="61.332" cy="49.168" fx="61.332" fy="49.168" r="50.665" xlink:href="#g"><stop offset="0"/><stop offset=".52" stop-color="#171717"/><stop offset=".66" stop-color="#424242"/><stop offset=".757" stop-color="#131313"/><stop offset="1"/></radialGradient><radialGradient id="I" gradientTransform="matrix(1.7468693,0,0,4.1370271,-56.139944,-215.50024)" cx="61.332" cy="66.668" fx="61.332" fy="66.668" r="50.665" xlink:href="#g"><stop offset="0" stop-color="#878787"/><stop offset=".355" stop-color="#646464"/><stop offset=".619" stop-color="#2d2d2d"/><stop offset=".757" stop-color="#232323"/><stop offset="1" stop-color="#1f1f1f"/></radialGradient><linearGradient id="J" x1="72.204" y1="114.943" x2="72.204" y2="60.62" xlink:href="#g"><stop offset="0"/><stop offset="1" stop-color="#343839" stop-opacity="0"/></linearGradient><filter id="K"><feGaussianBlur stdDeviation=".202"/></filter><radialGradient id="L" gradientTransform="matrix(0.35940398,-0.60895758,1.206368,0.71199291,-73.218973,98.746762)" cx="106.664" cy="117.334" fx="106.664" fy="121.105" r="5.333" xlink:href="#g"><stop offset="0" stop-color="#eefcff"/><stop offset="1" stop-color="#eefcff" stop-opacity="0"/></radialGradient><linearGradient id="M" x1="64" y1="-1.997" x2="64" y2="-20.663" xlink:href="#g"><stop offset="0" stop-color="#fff"/><stop offset="1" stop-color="#555"/></linearGradient><radialGradient id="N" gradientTransform="matrix(2.3934915,0,0,2.5013966,-138.30664,-157.69354)" cx="91.455" cy="103.261" fx="91.455" fy="103.261" r="37.362" xlink:href="#g"><stop offset="0" stop-color="#ededed"/><stop offset=".25" stop-color="#fff"/><stop offset=".5" stop-color="#f6f6f6"/><stop offset="1" stop-color="#eee"/></radialGradient><linearGradient xlink:href="#C" id="O" x1="53.716" y1="5.975" x2="53.716" y2="3.331"/><linearGradient xlink:href="#B" id="P" x1="58" y1="5.375" x2="58" y2="10.007"/><linearGradient xlink:href="#C" id="Q" x1="53.716" y1="11.962" x2="53.716" y2="7.996"/><linearGradient xlink:href="#B" id="R" x1="58" y1="11.484" x2="58" y2="15.306"/><linearGradient y2="69.336" x2="61.336" y1="93.22" x1="85.22" id="S" xlink:href="#g"><stop offset="0"/><stop offset="1" stop-color="#393b38"/></linearGradient><linearGradient id="T" x1="95.151" y1="104.853" x2="86.76" y2="96.461" xlink:href="#g"><stop offset="0" stop-color="#888a85"/><stop offset=".007" stop-color="#8c8e89"/><stop offset=".067" stop-color="#abaca9"/><stop offset=".135" stop-color="#c5c6c4"/><stop offset=".212" stop-color="#dbdbda"/><stop offset=".301" stop-color="#ebebeb"/><stop offset=".412" stop-color="#f7f7f6"/><stop offset=".568" stop-color="#fdfdfd"/><stop offset="1" stop-color="#fff"/></linearGradient><radialGradient id="U" gradientTransform="matrix(0.62169285,0,0,0.62112799,53.04303,44.337645)" fx="102" fy="112.305" cx="102" cy="112.305" r="139.559" xlink:href="#g"><stop offset="0" stop-color="#535557"/><stop offset=".114" stop-color="#898a8c"/><stop offset=".203" stop-color="#ececec"/><stop offset=".236" stop-color="#fafafa"/><stop offset=".272" stop-color="#fff"/><stop offset=".531" stop-color="#fafafa"/><stop offset=".845" stop-color="#ebecec"/><stop offset="1" stop-color="#e1e2e3"/></radialGradient><radialGradient id="V" gradientTransform="translate(14.9986,2.6668016)" cx="102" cy="112.305" r="139.559" xlink:href="#g"><stop offset="0"/><stop offset=".015" stop-color="#515151"/><stop offset=".056" stop-color="#7f7f7f"/><stop offset=".096" stop-color="#a6a6a6"/><stop offset=".136" stop-color="#c5c5c5"/><stop offset=".174" stop-color="#dfdfdf"/><stop offset=".21" stop-color="#f1f1f1"/><stop offset=".244" stop-color="#fafcfd"/><stop offset=".272" stop-color="#fff"/></radialGradient><filter color-interpolation-filters="sRGB" id="W"><feGaussianBlur stdDeviation="1.039"/></filter><filter id="X"><feGaussianBlur stdDeviation="1.184"/></filter><filter id="Y" x="-.063" width="1.126" y="-.126" height="1.252"><feGaussianBlur stdDeviation=".7"/></filter><filter id="Z" x="-.156" width="1.312" y="-.156" height="1.312"><feGaussianBlur stdDeviation="2.131"/></filter><filter id="a"><feGaussianBlur stdDeviation=".77"/></filter><radialGradient id="b" gradientTransform="matrix(1.7468693,0,0,4.1370271,-56.139944,-215.50024)" cx="61.332" cy="66.668" fx="61.332" fy="66.668" r="50.665" xlink:href="#g"><stop offset="0" stop-color="#9b9b9b"/><stop offset=".355" stop-color="#7c7c7c"/><stop offset=".619" stop-color="#3f3f3f"/><stop offset=".757" stop-color="#4d4d4d"/><stop offset="1" stop-color="#696969"/></radialGradient><radialGradient xlink:href="#A" id="c" cx="92" cy="-3.907" fx="92" fy="-3.907" r="43" gradientTransform="matrix(0.13953488,0,0,0.18604651,79.162791,14.726855)"/><radialGradient xlink:href="#A" id="d" gradientTransform="matrix(0.13953488,0,0,0.18604651,79.162791,14.726855)" cx="-495.667" cy="-3.907" fx="-495.667" fy="-3.907" r="43"/><path id="e" d="M13.354 12C10.376 12 8 14.404 8 17.378v95.918C8 114.782 9.188 116 10.677 116H91.29c1.49 0 2.708-1.218 2.708-2.705V17.378A5.38 5.38 0 0 0 88.612 12z"/><path id="f" d="M13.355 12C10.377 12 8 14.39 8 17.344v1.438c.272-2.697 2.563-5.78 5.355-5.78h75.258C91.592 13 94 16.39 94 19.344v-2C94 14.39 91.592 12 88.613 12z"/><linearGradient id="g" gradientUnits="userSpaceOnUse"/></defs><path transform="matrix(1.041667 0 0 1.035714 5.04027 -.654731)" d="M46.04 36.68l1.92 83.354h36.17a2 2 0 0 0 1.414-.586l28.067-27.035A2 2 0 0 0 114.2 91V36.68z" opacity=".307" filter="url(#W)"/><path transform="matrix(.975846 0 0 1 .917331 0)" d="M37.978 1.997h26.666V15.33H37.978z" opacity=".923" fill-rule="evenodd" filter="url(#Y)"/><path d="M13.94 10C9.542 10 6 13.568 6 18v94.656C6 115.61 8.37 118 11.304 118h79.39c2.933 0 5.305-2.39 5.305-5.344V18c0-4.432-3.542-8-7.94-8z" fill="url(#H)"/><path d="M14 43.007c-4.432 0-8 3.568-8 8v61.65A5.34 5.34 0 0 0 11.343 118H91.32a5.34 5.34 0 0 0 5.344-5.344v-61.65c0-4.432-3.568-8-8-8z" fill="url(#J)"/><path d="M111.997 117.334c0 2.945-2.388 5.333-5.333 5.333v-5.333z" transform="matrix(-1 0 0 1 118.2302 -3.536403)" opacity=".633" fill="url(#L)" filter="url(#K)"/><use xlink:href="#e" fill="url(#b)" filter="url(#a)"/><use xlink:href="#e" fill="url(#I)"/><path d="M15.088 19h71.988a1.75 1.75 0 0 1 1.754 1.754v67.415c-.448 6.24-1.18 13.612-2.2 18.706a1.75 1.75 0 0 1-1.754 1.754c-4.27 1.104-10.012.614-15.403.8H14.087c-.972 0-.753-.782-.753-1.754v-86.92A1.75 1.75 0 0 1 15.088 19z" transform="matrix(.998983 0 0 1.010934 .012544 .792651)" fill="#191919" filter="url(#D)"/><path d="M13.98 20H88v69.857c0 5.388-2.814 14.526-3.568 16.64-1.276.927-10.74 3.5-16.03 3.5H13.98z" fill="url(#E)"/><path d="M16.017 21.002A1.18 1.18 0 0 0 15 22.151v85.52c-.005.603.542 1.154 1.14 1.15h53.532c5.79-.135 11.753-1.926 13.905-2.92a1.15 1.15 0 0 0 .586-.59c.224-.555.43-1.38.71-2.58a98.17 98.17 0 0 0 .894-4.319c.6-3.24 1.166-6.95 1.233-9.725V22.15c0-.603-.542-1.154-1.14-1.15H16.14c-.04-.002-.082-.002-.123 0z" fill="url(#N)"/><use xlink:href="#f" opacity=".475" fill="#fff"/><path d="M27.332 12.666h49c1.257 4.58 1.145 11.7-.3 17.9l-49 .1c-1.77-5.776-2.228-13.298.3-18z" transform="matrix(.945224 0 0 .962999 2.315349 .468667)" fill-opacity=".636" filter="url(#G)"/><path d="M28 12h46v16H28z" fill="url(#F)"/><path transform="scale(1 -1)" d="M37.92-15.33H64v13.333H37.92z" fill="url(#M)"/><path d="M43.96 3.333H58V6H43.96z" opacity=".4" fill="url(#O)"/><path d="M43.96 6H58v4H43.96z" opacity=".4" fill="url(#P)"/><path d="M43.96 8H58v4H43.96z" opacity=".4" fill="url(#Q)"/><path d="M43.96 12H58v3.3H43.96z" opacity=".4" fill="url(#R)"/><path transform="matrix(1.041667 0 0 1.035714 5.04027 -.654731)" d="M48.92 37.322v80.782h38.9a2 2 0 0 0 1.414-.586l24.38-23.076a2 2 0 0 0 .586-1.414V37.322z" opacity=".702" filter="url(#X)"/><path d="M56 38v84h41.173a2 2 0 0 0 1.414-.586l24.828-22.828a2 2 0 0 0 .586-1.414V38z" fill="url(#V)"/><path d="M57.983 39.002c-.54 0-.983.44-.983.982l.297 80.4c0 .542.44.982.983.982h38.777c.258 0 .512-.104.695-.288l24.96-22.23c.184-.184.288-.436.288-.694V39.982c0-.54-.44-.982-.983-.982z" fill="url(#U)"/><g transform="matrix(.707024 0 0 .651436 42.308871 42.638128)"><path d="M111.414 86.586c-4.86 3.2-19.14 2.45-28.402 2.236-.553-.013-.93.452-1 1-1.132 8.863-.38 27.89-3.426 29.592z" opacity=".254" fill="url(#S)" filter="url(#Z)"/><path d="M78.768 121.826l16.383-16.973 20.39-19.87s-11.17 3.07-31.116 3.07c0 22.36-5.658 33.772-5.658 33.772z" fill="url(#T)"/></g><path d="M37.92 1.997H64v1.065H37.92z" fill="#fff" fill-rule="evenodd"/><use xlink:href="#f" opacity=".475" fill="url(#c)"/><use xlink:href="#f" opacity=".475" fill="url(#d)"/></svg>