<svg width="128" height="128" xmlns="http://www.w3.org/2000/svg" xmlns:xlink="http://www.w3.org/1999/xlink"><style><![CDATA[.B{fill-opacity:1}.C{filter:url(#U)}.D{filter:url(#W)}.E{fill-rule:evenodd}]]></style><defs><linearGradient id="A" xlink:href="#i"><stop offset="0"/><stop stop-opacity="0" offset="1"/></linearGradient><linearGradient id="C" xlink:href="#i"><stop stop-color="#fffe63" offset="0"/><stop stop-color="#fff" stop-opacity="0" offset="1"/></linearGradient><radialGradient id="D" cx="48" cy="-.215" r="55.148" gradientTransform="matrix(.9792 0 0 .9725 133 20.876)" xlink:href="#i"><stop stop-color="#cfd13d" offset="0"/><stop stop-color="#db8900" offset="1"/></radialGradient><linearGradient id="E" xlink:href="#i"><stop stop-color="#fff" offset="0"/><stop stop-color="#fff" stop-opacity="0" offset="1"/></linearGradient><linearGradient id="G" x1="147.09" x2="8.084" y1="33.406" y2="123.91" xlink:href="#D"/><radialGradient id="H" cx="67.094" cy="116.91" r="56" xlink:href="#D"/><radialGradient id="I" cx="99.726" cy="27.418" r="56" fx="64.69" fy="68.232" gradientTransform="matrix(.69374 .058671 -.036243 .42854 33.939 26.881)" xlink:href="#i"><stop stop-color="#eaf209" offset="0"/><stop stop-color="#c7c634" stop-opacity="0" offset="1"/></radialGradient><linearGradient id="J" x1="75.094" x2="75.094" y1="4.532" y2="80.172" xlink:href="#C"/><linearGradient id="K" x1="75.098" x2="75.098" y1="4.534" y2="80.174" xlink:href="#E"/><filter id="L"><feGaussianBlur stdDeviation="1.058"/></filter><radialGradient id="M" cx="-10.165" cy="66.906" r="59.995" gradientTransform="matrix(.45829 -2.1036e-8 4.5904e-8 1.0001 20.448 -.0051974)" xlink:href="#A"/><radialGradient id="N" cx="167.67" cy="80.405" r="59.995" gradientTransform="matrix(.26767 .52138 -.70375 .3613 108.99 -36.063)" xlink:href="#A"/><linearGradient id="O" x1="120.06" x2="125.3" y1="12.569" y2="14.444" spreadMethod="reflect" xlink:href="#E"/><filter id="P" x="-.151" y="-.137" width="1.302" height="1.275"><feGaussianBlur stdDeviation=".393"/></filter><radialGradient id="Q" cx="72.685" cy="48.229" r="59.995" fx="74.871" fy="26.863" gradientTransform="matrix(.98237 .016717 -.0035801 .21038 -18.563 30.478)" xlink:href="#A"/><radialGradient id="R" cx="66.015" cy="126.69" r="59.995" gradientTransform="matrix(.67502 0 0 .35836 19.527 41.005)" xlink:href="#i"><stop stop-color="#beba2c" offset="0"/><stop stop-color="#b6be2c" stop-opacity="0" offset="1"/></radialGradient><radialGradient id="S" cx="64.089" cy="7.411" r="59.995" gradientTransform="matrix(.30939 0 0 .47792 44.261 3.8644)" xlink:href="#E"/><linearGradient id="T" x1="120.06" x2="125.3" y1="12.569" y2="14.444" spreadMethod="reflect" xlink:href="#i"><stop stop-color="#fdff63" offset="0"/><stop stop-color="#fff" stop-opacity="0" offset="1"/></linearGradient><filter id="U"><feGaussianBlur stdDeviation="1.334"/></filter><filter id="V"><feGaussianBlur stdDeviation=".899"/></filter><filter id="W" x="-.088" y="-.102" width="1.175" height="1.204"><feGaussianBlur stdDeviation="3.053"/></filter><radialGradient id="X" cx="-112.17" cy="118.6" r="59.995" fx="-113.15" fy="59.708" gradientTransform="matrix(.64843 .10172 -.031257 .19925 -4.5626 53.159)" xlink:href="#i"><stop stop-color="#fff" stop-opacity="0" offset="0"/><stop stop-color="#fff" stop-opacity=".187" offset=".5"/><stop stop-color="#fff" offset="1"/></radialGradient><linearGradient id="Y" x1="-151.44" x2="-152.27" y1="37.682" y2="57.25" xlink:href="#A"/><linearGradient id="Z" x1="-132.51" x2="-158.92" y1="39.803" y2="72.882" xlink:href="#A"/><linearGradient id="a" x1="-83.013" x2="-158.92" y1="44.753" y2="72.882" xlink:href="#A"/><linearGradient id="b" x1="-73" x2="-163" y1="105.62" y2="86.125" xlink:href="#A"/><linearGradient id="c" x1="-124.09" x2="-178.5" y1="135.63" y2="91.104" xlink:href="#A"/><linearGradient id="d" x1="-102.3" x2="-177.01" y1="98.48" y2="111.2" xlink:href="#A"/><mask id="e" maskUnits="userSpaceOnUse"><g transform="translate(167.5 -.004)"><g transform="translate(80.516 30.885)"><path class="B" d="M-184.422-32.472c-33.125 0-64 32.375-64 65.5s31.375 64 64.5 64c30.29 0 55.337-26.216 59.406-55.344l-35.03-5.03c-1.625 11.96-11.93 20.97-24.375 20.97-13.572 0-22.094-11.522-22.094-25.094s6.022-20.094 19.594-20.094c6.786 0 9.92-2.235 14.375 2.22l-4.827 11.327c-2.056 2.056-2.244 3.306-1.68 4.616.51 1.18 1.52 2.526 4.2 2.526h43.953c3.846 0 6.46-2.654 6.46-6.25l-.07-44.078c0-2.48-.903-3.843-2.18-4.35-1.314-.52-3.033-.123-5.107 1.95l-10.195.195c-10.86-10.86-26.375-13.063-42.937-13.063z" fill="url(#X)"/><g class="E"><path class="B C" d="M-161.5 34.5C-162 37-180 54-180 54l47.5 26 20.5-41.5-49.5-4z" fill="url(#Y)"/><path class="B C" d="M-161.5 34.5c-.5 2.5-19.778 19.89-19.778 19.89l29.65 43.203L-112 38.5l-49.5-4z" fill="url(#Z)"/><path class="B C" d="M-161.5 34.5c-.5 2.5-19.778 19.89-19.778 19.89l29.65 43.203L-112 38.5l-49.5-4z" fill="url(#a)"/></g></g><path class="B D" d="M-119 69.75h83.5v71.75H-119z" fill="url(#b)"/><g transform="matrix(.63938 .76889 -.76889 .63938 37.598 128.09)"><path class="B D" d="m-159.5 68.25 120.36-12.266-54.315 106.57-104.34-33.588 38.293-60.716z" fill="url(#c)"/><path class="B D" d="m-159.5 68.25 120.36-12.266-54.315 106.57-104.34-33.588 38.293-60.716z" fill="url(#d)"/></g></g></mask><linearGradient id="f" x1="71.594" x2="71.594" y1="130.41" y2="63.427" xlink:href="#C"/><path id="g" d="M64.094 3.906c-33.125 0-60 26.875-60 60s26.875 60 60 60c30.29 0 55.337-22.216 59.406-51.344l-35.03-5.03C86.844 79.492 76.54 88.5 64.094 88.5 50.522 88.5 39.5 77.478 39.5 63.906s11.022-24.594 24.594-24.594c6.786 0 12.92 2.765 17.375 7.22L71.142 56.858c-2.056 2.056-2.244 3.306-1.68 4.616.51 1.18 1.52 2.526 4.2 2.526h43.953c3.846 0 6.46-2.654 6.46-6.25l-.07-44.078c0-2.48-.903-3.843-2.18-4.35-1.314-.52-3.033-.123-5.107 1.95L106.53 21.47C95.672 10.61 80.656 3.906 64.094 3.906z"/><path id="h" d="M64.094 7.906c-30.962 0-56 25.038-56 56s25.038 56 56 56c26.933 0 49.122-18.807 54.53-44L91.5 72.03C88.06 83.93 77.06 92.5 64.094 92.5 48.356 92.5 35.5 79.644 35.5 63.906s12.856-28.594 28.594-28.594c7.872 0 15.052 3.208 20.22 8.375a4 4 0 0 1 0 5.688L73.688 60h43.938c2.005 0 2.47-.592 2.47-2.25L120 13.656l-10.625 10.656a4 4 0 0 1-5.687 0C93.55 14.175 79.577 7.906 64.094 7.906z"/><linearGradient id="i" gradientUnits="userSpaceOnUse"/></defs><g transform="matrix(-1 0 0 1 128.18 0)" mask="url(#e)"><use fill="url(#G)" xlink:href="#g"/><use fill="url(#R)" opacity=".798" xlink:href="#g"/><use fill="url(#N)" opacity=".69" xlink:href="#g"/><use fill="url(#M)" xlink:href="#g"/><use fill="url(#Q)" opacity=".798" xlink:href="#g"/><path d="M64.094 4.206c-33.125 0-60 26.575-60 59.7s26.875 60 60 60c30.29 0 55.337-22.216 59.406-51.344l-35.03-5.03C86.844 79.492 76.54 88.5 64.094 88.5 50.522 88.5 39.5 77.478 39.5 63.906s11.022-24.594 24.594-24.594c6.786 0 12.92 2.765 17.375 7.22L71.142 56.858c-2.056 2.056-2.244 3.306-1.68 4.616.51 1.18 1.52 2.526 4.2 2.526h43.953c3.846 0 6.46-2.654 6.46-6.25l-.07-44.078c0-2.48-.903-3.843-2.18-4.35-1.314-.52-3.033-.123-5.107 1.95L106.53 21.47C95.672 10.61 80.656 4.206 64.094 4.206z" fill="url(#S)" filter="url(#V)" opacity=".745"/><g class="E"><path d="M117.688 10.75l.938 4.375 1.25.875 4-2.625c.247-1.724-.35-3.347-1.937-4s-3.16.127-4.25 1.375z" fill="url(#O)" filter="url(#P)" opacity=".82"/><path transform="matrix(0 1 1 0 60.364 -60.364)" d="M117.688 10.75l2.188 3.125.5-.125 3.5-.375c.247-1.724-.35-3.347-1.937-4s-3.16.127-4.25 1.375z" fill="url(#T)" filter="url(#P)" opacity=".82"/></g><use fill="url(#H)" xlink:href="#h"/><use fill="url(#I)" xlink:href="#h"/><path d="M64.094 7.906c-30.962 0-56 25.038-56 56a56.52 56.52 0 0 0 .031 1.688c5.99.678 12.14 1.15 18.406 1.406-.27-10.46 3.672-20.975 11.813-28.78 15.34-14.71 39.73-14.214 54.438 1.125 2.764 2.882 4.757 5.688 6.563 9.25L78.844 59H98c7.928-2.027 15.186-3.437 22.094-6.187L120 13.656l-10.625 10.656a4 4 0 0 1-5.687 0C93.55 14.175 79.577 7.906 64.094 7.906z" fill="url(#J)"/><path d="M64.1 7.91c-30.962 0-56 25.038-56 56v.53c.253-30.744 25.196-55.53 56-55.53 15.483 0 29.456 6.27 39.594 16.406a4 4 0 0 0 5.688 0l10.125-10.156.494 37.55c-6.908 2.75-14.566 3.86-22.494 5.887l-18.656.406h19.156c7.928-2.027 15.186-3.437 22.094-6.187l-.094-39.156-.5.5-10.125 10.156a4 4 0 0 1-5.687 0l-.187-.187c-.574-.568-1.15-1.115-1.75-1.656-.082-.074-.168-.145-.25-.22-9.916-8.9-23-14.344-37.406-14.344zm-.656 19.22c-9.238.25-18.403 3.793-25.594 10.687-7.632 7.318-11.128 17.373-11.312 27.22.24-9.802 4.18-19.494 11.813-26.813 13.316-12.77 33.453-14.098 48.156-4.187-6.88-4.805-14.987-7.125-23.063-6.906z" fill="url(#K)"/><path d="M63.594 7.906c-30.962 0-56 25.038-56 56s25.038 56 56 56c26.933 0 49.122-18.807 54.53-44L91 72.03C87.56 83.93 76.56 92.5 63.594 92.5 47.856 92.5 35 79.644 35 63.906s12.856-28.594 28.594-28.594c7.872 0 15.052 3.208 20.22 8.375a4 4 0 0 1 0 5.688L73.188 60h43.938c2.005 0 2.47-.592 2.47-2.25l-.094-44.094-10.625 10.656a4 4 0 0 1-5.687 0C93.05 14.175 79.077 7.906 63.594 7.906z" fill="none" filter="url(#L)" stroke="url(#f)" stroke-dashoffset="1.0878" stroke-linejoin="round"/></g></svg>
