<svg width="128" height="128" xmlns="http://www.w3.org/2000/svg" xmlns:xlink="http://www.w3.org/1999/xlink"><defs><linearGradient id="A" xlink:href="#g"><stop stop-color="#fff" offset="0"/><stop stop-color="#fff" stop-opacity="0" offset="1"/></linearGradient><linearGradient id="C" xlink:href="#g"><stop stop-color="#00181d" offset="0"/><stop stop-color="#00181d" stop-opacity="0" offset="1"/></linearGradient><filter id="D"><feGaussianBlur stdDeviation=".784"/></filter><linearGradient id="E" x1="87.007" x2="80.426" y1="102.51" y2="95.104" xlink:href="#g"><stop stop-color="#8c8c8c" offset="0"/><stop stop-color="#a8a8a8" offset=".25"/><stop stop-color="#c5c5c5" offset=".5"/><stop stop-color="#e2e2e2" offset=".75"/><stop stop-color="#fff" offset="1"/></linearGradient><linearGradient id="F" x1="69.393" x2="69.393" y1="11.673" y2="28.14" xlink:href="#g"><stop stop-color="#fff" offset="0"/><stop stop-color="#8b8b8b" offset=".533"/><stop stop-color="#a5a5a5" offset=".632"/><stop stop-color="#f4f4f4" offset=".699"/><stop stop-color="#bbb" offset=".75"/><stop stop-color="#b1b1b1" offset="1"/></linearGradient><filter id="G" x="-.038" y="-.114" width="1.076" height="1.227"><feGaussianBlur stdDeviation=".758"/></filter><radialGradient id="H" cx="61.332" cy="49.168" r="50.665" gradientTransform="matrix(1.2013 0 0 2.8954 -22.675 -132.37)" xlink:href="#g"><stop offset="0"/><stop stop-color="#171717" offset=".52"/><stop stop-color="#424242" offset=".66"/><stop stop-color="#131313" offset=".757"/><stop offset="1"/></radialGradient><radialGradient id="I" cx="61.332" cy="66.668" r="50.665" gradientTransform="matrix(1.7469 0 0 4.137 -56.14 -215.5)" xlink:href="#g"><stop stop-color="#878787" offset="0"/><stop stop-color="#646464" offset=".355"/><stop stop-color="#2d2d2d" offset=".619"/><stop stop-color="#232323" offset=".757"/><stop stop-color="#1f1f1f" offset="1"/></radialGradient><linearGradient id="J" x1="72.204" x2="72.204" y1="114.94" y2="60.62" xlink:href="#g"><stop offset="0"/><stop stop-color="#343839" stop-opacity="0" offset="1"/></linearGradient><filter id="K"><feGaussianBlur stdDeviation=".202"/></filter><radialGradient id="L" cx="106.66" cy="117.33" r="5.333" fy="121.1" gradientTransform="matrix(.3594 -.60896 1.2064 .71199 -73.219 98.747)" xlink:href="#g"><stop stop-color="#eefcff" offset="0"/><stop stop-color="#eefcff" stop-opacity="0" offset="1"/></radialGradient><linearGradient id="M" x1="64" x2="64" y1="-1.997" y2="-20.663" xlink:href="#g"><stop stop-color="#fff" offset="0"/><stop stop-color="#555" offset="1"/></linearGradient><radialGradient id="N" cx="91.455" cy="103.26" r="37.362" gradientTransform="matrix(2.3935 0 0 2.5014 -138.31 -157.69)" xlink:href="#g"><stop stop-color="#ededed" offset="0"/><stop stop-color="#fff" offset=".25"/><stop stop-color="#f6f6f6" offset=".5"/><stop stop-color="#eee" offset="1"/></radialGradient><linearGradient id="O" x1="53.716" x2="53.716" y1="5.975" y2="3.331" xlink:href="#C"/><linearGradient id="P" x1="58" x2="58" y1="5.375" y2="10.007" xlink:href="#A"/><linearGradient id="Q" x1="53.716" x2="53.716" y1="11.962" y2="7.996" xlink:href="#C"/><linearGradient id="R" x1="58" x2="58" y1="11.484" y2="15.306" xlink:href="#A"/><linearGradient id="S" x1="85.22" x2="61.336" y1="93.22" y2="69.336" xlink:href="#g"><stop offset="0"/><stop stop-color="#393b38" offset="1"/></linearGradient><linearGradient id="T" x1="95.151" x2="86.76" y1="104.85" y2="96.461" xlink:href="#g"><stop stop-color="#888a85" offset="0"/><stop stop-color="#8c8e89" offset=".007"/><stop stop-color="#abaca9" offset=".067"/><stop stop-color="#c5c6c4" offset=".135"/><stop stop-color="#dbdbda" offset=".212"/><stop stop-color="#ebebeb" offset=".301"/><stop stop-color="#f7f7f6" offset=".412"/><stop stop-color="#fdfdfd" offset=".568"/><stop stop-color="#fff" offset="1"/></linearGradient><radialGradient id="U" cx="102" cy="112.3" r="139.56" gradientTransform="matrix(.62169 0 0 .62113 53.043 44.338)" xlink:href="#g"><stop stop-color="#535557" offset="0"/><stop stop-color="#898a8c" offset=".114"/><stop stop-color="#ececec" offset=".203"/><stop stop-color="#fafafa" offset=".236"/><stop stop-color="#fff" offset=".272"/><stop stop-color="#fafafa" offset=".531"/><stop stop-color="#ebecec" offset=".845"/><stop stop-color="#e1e2e3" offset="1"/></radialGradient><radialGradient id="V" cx="102" cy="112.3" r="139.56" gradientTransform="translate(14.999 2.6668)" xlink:href="#g"><stop offset="0"/><stop stop-color="#515151" offset=".015"/><stop stop-color="#7f7f7f" offset=".056"/><stop stop-color="#a6a6a6" offset=".096"/><stop stop-color="#c5c5c5" offset=".136"/><stop stop-color="#dfdfdf" offset=".174"/><stop stop-color="#f1f1f1" offset=".21"/><stop stop-color="#fafcfd" offset=".244"/><stop stop-color="#fff" offset=".272"/></radialGradient><filter id="W" color-interpolation-filters="sRGB"><feGaussianBlur stdDeviation="1.039"/></filter><filter id="X"><feGaussianBlur stdDeviation="1.184"/></filter><filter id="Y" x="-.063" y="-.126" width="1.126" height="1.252"><feGaussianBlur stdDeviation=".7"/></filter><filter id="Z" x="-.156" y="-.156" width="1.312" height="1.312"><feGaussianBlur stdDeviation="2.131"/></filter><filter id="a"><feGaussianBlur stdDeviation=".77"/></filter><radialGradient id="b" cx="61.332" cy="66.668" r="50.665" gradientTransform="matrix(1.7469 0 0 4.137 -56.14 -215.5)" xlink:href="#g"><stop stop-color="#9b9b9b" offset="0"/><stop stop-color="#7c7c7c" offset=".355"/><stop stop-color="#3f3f3f" offset=".619"/><stop stop-color="#4d4d4d" offset=".757"/><stop stop-color="#696969" offset="1"/></radialGradient><radialGradient id="c" cx="92" cy="-3.907" r="43" gradientTransform="matrix(.13953 0 0 .18605 79.163 14.727)" xlink:href="#A"/><radialGradient id="d" cx="-495.67" cy="-3.907" r="43" gradientTransform="matrix(.13953 0 0 .18605 79.163 14.727)" xlink:href="#A"/><path id="e" d="M13.354 12C10.376 12 8 14.404 8 17.378v95.918C8 114.782 9.188 116 10.677 116H91.29c1.49 0 2.708-1.218 2.708-2.705V17.378A5.38 5.38 0 0 0 88.612 12z"/><path id="f" d="M13.355 12C10.377 12 8 14.39 8 17.344v1.438c.272-2.697 2.563-5.78 5.355-5.78h75.258C91.592 13 94 16.39 94 19.344v-2C94 14.39 91.592 12 88.613 12z"/><linearGradient id="g" gradientUnits="userSpaceOnUse"/></defs><path transform="matrix(1.0417 0 0 1.0357 5.0403 -.65473)" d="M46.04 36.68l1.92 83.354h36.17a2 2 0 0 0 1.414-.586l28.067-27.035A2 2 0 0 0 114.2 91V36.68z" filter="url(#W)" opacity=".307"/><path transform="matrix(.97585 0 0 1 .91733 0)" d="M37.978 1.997h26.666V15.33H37.978z" fill-rule="evenodd" filter="url(#Y)" opacity=".923"/><path d="M13.94 10C9.542 10 6 13.568 6 18v94.656C6 115.61 8.37 118 11.304 118h79.39c2.933 0 5.305-2.39 5.305-5.344V18c0-4.432-3.542-8-7.94-8z" fill="url(#H)"/><path d="M14 43.007c-4.432 0-8 3.568-8 8v61.65A5.34 5.34 0 0 0 11.343 118H91.32a5.34 5.34 0 0 0 5.344-5.344v-61.65c0-4.432-3.568-8-8-8z" fill="url(#J)"/><path transform="matrix(-1 0 0 1 118.23 -3.5364)" d="m112 117.33c0 2.945-2.388 5.333-5.333 5.333v-5.333z" fill="url(#L)" filter="url(#K)" opacity=".633"/><use fill="url(#b)" filter="url(#a)" xlink:href="#e"/><use fill="url(#I)" xlink:href="#e"/><path transform="matrix(.99898 0 0 1.0109 .012544 .79265)" d="M15.088 19h71.988a1.75 1.75 0 0 1 1.754 1.754v67.415c-.448 6.24-1.18 13.612-2.2 18.706a1.75 1.75 0 0 1-1.754 1.754c-4.27 1.104-10.012.614-15.403.8H14.087c-.972 0-.753-.782-.753-1.754v-86.92A1.75 1.75 0 0 1 15.088 19z" fill="#191919" filter="url(#D)"/><path d="M13.98 20H88v69.857c0 5.388-2.814 14.526-3.568 16.64-1.276.927-10.74 3.5-16.03 3.5H13.98z" fill="url(#E)"/><path d="M16.017 21.002A1.18 1.18 0 0 0 15 22.151v85.52c-.005.603.542 1.154 1.14 1.15h53.532c5.79-.135 11.753-1.926 13.905-2.92a1.15 1.15 0 0 0 .586-.59c.224-.555.43-1.38.71-2.58a98.17 98.17 0 0 0 .894-4.319c.6-3.24 1.166-6.95 1.233-9.725V22.15c0-.603-.542-1.154-1.14-1.15H16.14c-.04-.002-.082-.002-.123 0z" fill="url(#N)"/><use fill="#fff" opacity=".475" xlink:href="#f"/><path transform="matrix(.94522 0 0 .963 2.3153 .46867)" d="M27.332 12.666h49c1.257 4.58 1.145 11.7-.3 17.9l-49 .1c-1.77-5.776-2.228-13.298.3-18z" fill-opacity=".636" filter="url(#G)"/><path d="M28 12h46v16H28z" fill="url(#F)"/><path transform="scale(1 -1)" d="M37.92-15.33H64v13.333H37.92z" fill="url(#M)"/><path d="M43.96 3.333H58V6H43.96z" fill="url(#O)" opacity=".4"/><path d="M43.96 6H58v4H43.96z" fill="url(#P)" opacity=".4"/><path d="M43.96 8H58v4H43.96z" fill="url(#Q)" opacity=".4"/><path d="M43.96 12H58v3.3H43.96z" fill="url(#R)" opacity=".4"/><path transform="matrix(1.0417 0 0 1.0357 5.0403 -.65473)" d="M48.92 37.322v80.782h38.9a2 2 0 0 0 1.414-.586l24.38-23.076a2 2 0 0 0 .586-1.414V37.322z" filter="url(#X)" opacity=".702"/><path d="M56 38v84h41.173a2 2 0 0 0 1.414-.586l24.828-22.828a2 2 0 0 0 .586-1.414V38z" fill="url(#V)"/><path d="M57.983 39.002c-.54 0-.983.44-.983.982l.297 80.4c0 .542.44.982.983.982h38.777c.258 0 .512-.104.695-.288l24.96-22.23c.184-.184.288-.436.288-.694V39.982c0-.54-.44-.982-.983-.982z" fill="url(#U)"/><g transform="matrix(.70702 0 0 .65144 42.309 42.638)"><path d="M111.414 86.586c-4.86 3.2-19.14 2.45-28.402 2.236-.553-.013-.93.452-1 1-1.132 8.863-.38 27.89-3.426 29.592z" fill="url(#S)" filter="url(#Z)" opacity=".254"/><path d="m78.768 121.83 16.383-16.973 20.39-19.87s-11.17 3.07-31.116 3.07c0 22.36-5.658 33.772-5.658 33.772z" fill="url(#T)"/></g><path d="M37.92 1.997H64v1.065H37.92z" fill="#fff" fill-rule="evenodd"/><use fill="url(#c)" opacity=".475" xlink:href="#f"/><use fill="url(#d)" opacity=".475" xlink:href="#f"/></svg>
