<svg width="128" height="128" xmlns="http://www.w3.org/2000/svg" xmlns:xlink="http://www.w3.org/1999/xlink"><style><![CDATA[.B{fill-rule:evenodd}.C{stroke-linejoin:round}.D{clip-path:url(#J)}]]></style><defs><linearGradient id="A" xlink:href="#Y"><stop stop-color="#fff" offset="0"/><stop stop-color="#fff" stop-opacity="0" offset="1"/></linearGradient><linearGradient id="C" xlink:href="#Y"><stop stop-color="#606060" offset="0"/><stop stop-color="#343434" offset="1"/></linearGradient><linearGradient id="D" xlink:href="#Y"><stop stop-color="#fff" offset="0"/><stop stop-color="#e7e7e7" offset="1"/></linearGradient><linearGradient id="E" x1="57.611" x2="48.605" y1="47.318" y2="52.522" xlink:href="#D"/><linearGradient id="F" x1="62.655" x2="58.59" y1="72.23" y2="74.551" xlink:href="#Y"><stop offset="0"/><stop stop-opacity="0" offset="1"/></linearGradient><linearGradient id="G" x1="70.992" x2="79.999" y1="47.318" y2="52.522" xlink:href="#D"/><linearGradient id="H" x1="65.415" x2="71.567" y1="63.219" y2="58.625" xlink:href="#Y"><stop offset="0"/><stop stop-opacity="0" offset="1"/></linearGradient><linearGradient id="I" x1="89.343" x2="81.288" y1="92.565" y2="97.568" xlink:href="#C"/><clipPath id="J"><path class="B" d="M75.188 70.063a2 2 0 0 0-1.812 1.469l-2.156 8.063a2 2 0 0 0 .219 1.5l18.188 31.47c2.348 4.064 5.543 7.162 9 8.906s7.35 2.15 10.53.313 4.78-5.414 5-9.28-.87-8.185-3.22-12.25-5.542-7.17-9-8.906-7.35-2.116-10.53-.28c-.752.434-.828.418-1.406.125s-1.57-1.206-2.75-2.844c-2.36-3.275-5.526-9.158-10.22-17.28a2 2 0 0 0-1.844-1zm22.75 28.97c1.9-.13 5.356 1.852 7.5 5.563 1.32 2.284 1.893 4.674 1.813 6.53s-.748 3.007-1.656 3.53-2.194.516-3.844-.344-3.46-2.56-4.78-4.844-1.893-4.705-1.812-6.562.717-3.007 1.625-3.53a2.57 2.57 0 0 1 1.156-.344z" fill="#343434"/></clipPath><filter id="K"><feGaussianBlur stdDeviation=".475"/></filter><linearGradient id="L" x1="101.16" x2="118.22" y1="84.037" y2="113.59" xlink:href="#A"/><linearGradient id="M" x1="39.5" x2="47.556" y1="92.565" y2="97.568" xlink:href="#C"/><linearGradient id="N" x1="27.688" x2="10.624" y1="84.037" y2="113.59" xlink:href="#A"/><linearGradient id="O" x1="24.636" x2="24.636" y1="118.54" y2="110.8" xlink:href="#A"/><filter id="P"><feGaussianBlur stdDeviation=".419"/></filter><filter id="R"><feGaussianBlur stdDeviation=".716"/></filter><radialGradient id="S" cx="66" cy="54" r="2" fx="66.496" fy="53.141" gradientTransform="matrix(1.0316 -.59596 .59557 1.0309 -34.243 37.667)" xlink:href="#Y"><stop stop-color="#dfdfdf" offset="0"/><stop stop-color="#606060" offset="1"/></radialGradient><linearGradient id="T" x1="64.469" x2="65.411" y1="67.045" y2="80.971" xlink:href="#Y"><stop offset="0"/><stop stop-opacity="0" offset="1"/></linearGradient><filter id="U"><feGaussianBlur stdDeviation=".987"/></filter><path id="V" d="M75.188 70.063a2 2 0 0 0-1.812 1.469l-2.156 8.063a2 2 0 0 0 .219 1.5l18.188 31.47c2.348 4.064 5.543 7.162 9 8.906s7.35 2.15 10.53.313 4.78-5.414 5-9.28-.87-8.185-3.22-12.25-5.542-7.17-9-8.906-7.35-2.116-10.53-.28c-.752.434-.828.418-1.406.125s-1.57-1.206-2.75-2.844c-2.36-3.275-5.526-9.158-10.22-17.28a2 2 0 0 0-1.844-1zm22.75 28.97c1.9-.13 5.356 1.852 7.5 5.563 1.32 2.284 1.893 4.674 1.813 6.53s-.748 3.007-1.656 3.53-2.194.516-3.844-.344-3.46-2.56-4.78-4.844-1.893-4.705-1.812-6.562.717-3.007 1.625-3.53a2.57 2.57 0 0 1 1.156-.344z"/><path id="W" d="M57.53 79.25L39.72 110.063c-2.348 4.064-5.543 7.162-9 8.906s-7.35 2.15-10.53.313-4.78-5.414-5-9.28c-.068-1.193.007-2.43.188-3.687-.563 2.114-.8 4.215-.687 6.188.22 3.867 1.817 7.445 5 9.28s7.074 1.432 10.53-.312 6.652-4.842 9-8.906l18.188-31.47a2 2 0 0 0 .219-1.5l-.094-.344zM31.406 96.53c-1.9-.13-5.356 1.852-7.5 5.563-1.065 1.844-1.64 3.76-1.78 5.406.298-.952.725-1.944 1.28-2.906 2.144-3.71 5.6-5.694 7.5-5.562a2.57 2.57 0 0 1 1.156.344c.908.524 1.545 1.674 1.625 3.53.016.362.003.757-.03 1.156.41-1.317.578-2.582.53-3.656-.08-1.857-.717-3.007-1.625-3.53a2.57 2.57 0 0 0-1.156-.344z"/><path id="X" d="M33.188 106.438c-.3.998-.732 2.027-1.312 3.03-1.32 2.285-3.132 3.984-4.78 4.844s-2.936.868-3.844.344-1.576-1.674-1.656-3.53c-.382 1.263-.545 2.46-.5 3.5.08 1.857.748 3.007 1.656 3.53s2.194.516 3.844-.344 3.46-2.56 4.78-4.844c1.313-2.272 1.885-4.678 1.813-6.53z"/><linearGradient id="Y" gradientUnits="userSpaceOnUse"/></defs><g class="B"><path class="C" transform="matrix(1.1279 0 0 1.1272 -8.2472 -11.606)" d="M35.28 14.47c-.955.55-.83 1.716-.594 2.313 7.137 18.6 13.536 35.567 23.47 53.97l-1.53 2.47c-.38-.67-1.138-1.075-1.937-1a2 2 0 0 0-1.562 1c-4.163 7.2-6.958 12.432-9.03 15.313-1.037 1.44-1.9 2.238-2.344 2.47s-.443.264-1.062-.094c-2.9-1.674-6.418-1.314-9.53.25s-5.992 4.328-8.094 7.97-3.074 7.517-2.875 11 1.66 6.73 4.563 8.406 6.45 1.3 9.563-.28 5.96-4.33 8.063-7.97L58.5 82.344c.175-.296.273-.63.28-.97 1.713-1.2 3.655-2.332 5.53-3.125 1.99.84 4.082 2.06 5.875 3.344.03.265.117.513.25.75l16.125 27.938c2.102 3.64 4.982 6.397 8.094 7.97s6.628 1.957 9.53.28 4.363-4.923 4.563-8.406-.773-7.36-2.875-11-4.98-6.404-8.094-7.97-6.63-1.924-9.53-.25c-.62.358-.61.324-1.062.094s-1.307-1.03-2.344-2.47c-2.074-2.88-4.87-8.102-9.03-15.312a2 2 0 0 0-1.844-1c-.8.05-1.474.554-1.75 1.28l-1.72-2.75c9.933-18.402 16.33-35.358 23.47-53.97.236-.597.36-1.76-.594-2.312L64.313 60.875 35.28 14.47zm-.5 83.906a1.97 1.97 0 0 1 .906.281c.72.416 1.275 1.373 1.344 2.97s-.412 3.663-1.562 5.656-2.71 3.48-4.125 4.22-2.498.73-3.22.313-1.275-1.34-1.344-2.937.412-3.695 1.563-5.687c1.87-3.237 4.88-4.92 6.438-4.812zm59.375 0c1.557-.107 4.568 1.575 6.438 4.813 1.15 1.993 1.63 4.09 1.563 5.688s-.59 2.52-1.312 2.938-1.803.426-3.22-.312-2.974-2.225-4.125-4.22-1.663-4.06-1.594-5.656.623-2.552 1.344-2.97a1.97 1.97 0 0 1 .906-.281z" filter="url(#U)" opacity=".5" stroke="url(#T)" stroke-width="3.548"/><path d="M53.656 70.063a2 2 0 0 1 1.813 1.469l2.156 8.063a2 2 0 0 1-.219 1.5l-18.187 31.47c-2.348 4.064-5.543 7.162-9 8.906s-7.35 2.15-10.53.313-4.78-5.414-5-9.28.87-8.185 3.22-12.25 5.542-7.17 9-8.906 7.35-2.116 10.53-.28c.752.434.828.418 1.406.125s1.57-1.206 2.75-2.844c2.36-3.275 5.526-9.158 10.22-17.28a2 2 0 0 1 1.844-1zm-22.75 28.97c-1.9-.13-5.356 1.852-7.5 5.563-1.32 2.284-1.893 4.674-1.812 6.53s.748 3.007 1.656 3.53 2.194.516 3.844-.344 3.46-2.56 4.78-4.844 1.893-4.705 1.813-6.562-.717-3.007-1.625-3.53a2.57 2.57 0 0 0-1.156-.344z" fill="url(#M)"/><path d="M55.652 70.313a2.15 2.15 0 0 1 1.943 1.59l.07.283c-.372-.425-.86-.707-1.448-.742-.812-.045-1.608.355-2.014 1.06-5.055 8.75-8.445 15.09-10.986 18.617-1.27 1.764-2.345 2.758-2.967 3.073s-.71.326-1.52-.14c-3.425-1.976-7.615-1.552-11.34.318s-7.15 5.195-9.68 9.573l-.565-1.13c2.53-4.378 5.955-7.703 9.68-9.573s7.915-2.294 11.34-.318c.8.467.896.457 1.52.14s1.697-1.3 2.967-3.073c2.54-3.527 5.932-9.868 10.986-18.617.406-.705 1.2-1.104 2.014-1.06z" fill="url(#N)" opacity=".772"/></g><use class="C D" transform="matrix(-1 0 0 1 128.84 0)" fill="none" filter="url(#K)" opacity=".703" stroke="#000" stroke-width="3" xlink:href="#V"/><g class="B"><use fill="url(#I)" xlink:href="#V"/><path d="M73.19 70.313a2.15 2.15 0 0 0-1.943 1.59l-.07.283c.372-.425.86-.707 1.448-.742.812-.045 1.608.355 2.014 1.06 5.055 8.75 8.445 15.09 10.986 18.617 1.27 1.764 2.345 2.758 2.967 3.073s.71.326 1.52-.14c3.425-1.976 7.615-1.552 11.34.318s7.15 5.195 9.68 9.573l.565-1.13c-2.53-4.378-5.955-7.703-9.68-9.573s-7.915-2.294-11.34-.318c-.8.467-.896.457-1.52.14s-1.697-1.3-2.967-3.073c-2.54-3.527-5.932-9.868-10.986-18.617-.406-.705-1.2-1.104-2.014-1.06z" fill="url(#L)" opacity=".772"/></g><use class="C D" fill="none" filter="url(#K)" opacity=".703" stroke="#000" stroke-width="3" xlink:href="#V"/><path class="B" d="M97.96 1.91L53.63 72.75l-1.15 11.814c1.966-3.403 9.303-8.244 14.674-9.682C81.24 50.503 89.412 28.74 98.68 4.595c.274-.69.388-2.045-.72-2.684z" fill="url(#G)"/><path d="M97.692 2.385L61.74 59.428" fill="none" stroke="#fff"/><g class="B"><path d="M59.75 65.656l-2.03.563-1.437 2.28 4.313 9.22c1.826-1.044 3.742-1.948 5.5-2.53l-6.344-9.53z" fill="url(#F)"/><path d="M67.188 51.063L59 64.156l7.188 11 .97-.28c2.56-4.43 4.914-8.775 7.125-13.062l-7.094-10.75z" fill="url(#H)"/><path d="M30.643 1.91l44.33 70.84 1.15 11.814c-1.966-3.403-9.303-8.244-14.674-9.682C47.365 50.503 39.192 28.74 29.923 4.595c-.274-.69-.388-2.045.72-2.684z" fill="url(#E)"/></g><path d="m30.74 2.385 33.454 53.543" fill="none" stroke="#fff"/><path class="B" transform="matrix(1.4404 -.83106 .8316 1.4394 -75.999 45.513)" d="m68 54a2 2 0 1 1-4 0 2 2 0 1 1 4 0z" fill="url(#S)" opacity=".96"/><image x="160" width="128" height="128" xlink:href="/home/david/Oxygen/trunk/32x32/actions/edit-copy.png"/><image x="288" width="128" height="128" xlink:href="/home/david/Oxygen/trunk/32x32/actions/edit-paste.png"/><g class="B"><use filter="url(#R)" opacity=".708" xlink:href="#W"/><use transform="matrix(-1 0 0 1 128.84 0)" filter="url(#R)" opacity=".708" xlink:href="#W"/><use transform="matrix(1.6395 0 0 1.5188 -16 -58.98)" fill="url(#O)" filter="url(#P)" opacity=".485" xlink:href="#X"/><use transform="matrix(-1.6395 0 0 1.5188 144.99 -58.98)" fill="url(#O)" filter="url(#P)" opacity=".485" xlink:href="#X"/></g><path d="m65.77 66.283-3.587 4.274" fill="none" opacity=".777" stroke="#fff"/></svg>
