<svg width="128" height="128" xmlns="http://www.w3.org/2000/svg" xmlns:xlink="http://www.w3.org/1999/xlink"><defs><linearGradient id="A" xlink:href="#a"><stop stop-color="#765c44" offset="0"/><stop stop-color="#765c44" stop-opacity="0" offset="1"/></linearGradient><linearGradient id="C" xlink:href="#a"><stop stop-color="#fff" offset="0"/><stop stop-color="#790000" stop-opacity="0" offset="1"/></linearGradient><linearGradient id="D" x1="-37.423" x2="-37.423" y1="78.411" y2="-15.689" xlink:href="#I"/><clipPath id="E"><path d="M-64.5 10.75a4 4 0 0 0-2.781 1.156l-16.97 16.97a4 4 0 0 0 0 5.656L-58.823 60-84.26 85.47a4 4 0 0 0 0 5.656l16.97 16.97a4 4 0 0 0 5.656 0l25.47-25.437 25.47 25.438a4 4 0 0 0 5.656 0l16.97-16.97a4 4 0 0 0 0-5.656L-13.5 60l25.438-25.47a4 4 0 0 0 0-5.656l-16.97-16.97a4 4 0 0 0-5.656 0l-25.47 25.438-25.47-25.437a4 4 0 0 0-2.875-1.156zm31.188 63.406a4 4 0 0 0-5.687 0h5.688z" fill="url(#D)"/></clipPath><filter id="F" x="-.116" y="-.148" width="1.233" height="1.296"><feGaussianBlur stdDeviation="2.57"/></filter><filter id="G" x="-.14" y="-.139" width="1.28" height="1.277"><feGaussianBlur stdDeviation=".288"/></filter><filter id="H"><feGaussianBlur stdDeviation=".458"/></filter><linearGradient id="I" xlink:href="#a"><stop stop-color="#810000" offset="0"/><stop stop-color="#c50000" offset="1"/></linearGradient><linearGradient id="J" xlink:href="#a"><stop stop-color="#ff8787" offset="0"/><stop stop-color="#ff8787" stop-opacity="0" offset="1"/></linearGradient><linearGradient id="K" x1="28.638" x2="34.575" y1="13.536" y2="13.536" xlink:href="#a"><stop stop-color="#fff" offset="0"/><stop stop-color="#fff" stop-opacity="0" offset="1"/></linearGradient><linearGradient id="L" x1="28.638" x2="34.575" y1="13.536" y2="13.536" xlink:href="#A"/><linearGradient id="M" x1="304.89" x2="345.62" y1="385.86" y2="384.62" xlink:href="#A"/><linearGradient id="N" x1="88.606" x2="91.575" y1="13.51" y2="13.51" spreadMethod="reflect" xlink:href="#J"/><linearGradient id="O" x1="60" x2="57.434" y1="92.973" y2="55.079" xlink:href="#a"><stop stop-color="#fff5e4" offset="0"/><stop stop-color="#ffecd0" offset=".25"/><stop stop-color="#ffd390" offset=".5"/><stop stop-color="#ffc46a" offset="1"/></linearGradient><radialGradient id="P" cx="-36.593" cy="90.073" r="25.986" gradientTransform="matrix(.45761 0 0 .78231 -19.848 18.821)" xlink:href="#a"><stop offset="0"/><stop stop-opacity="0" offset="1"/></radialGradient><linearGradient id="Q" x1="31.606" x2="34.575" y1="13.51" y2="13.51" spreadMethod="reflect" xlink:href="#C"/><linearGradient id="R" x1="88.606" x2="91.575" y1="13.51" y2="13.51" spreadMethod="reflect" xlink:href="#C"/><linearGradient id="S" x1="61.727" x2="60.866" y1="76.739" y2="26.598" xlink:href="#a"><stop stop-color="#fff" stop-opacity="0" offset="0"/><stop stop-color="#fff" offset="1"/></linearGradient><linearGradient id="T" x1="51.591" x2="51.591" y1="26.721" y2="74.091" xlink:href="#J"/><linearGradient id="U" x1="99.899" x2="76.738" y1="161.78" y2="-52.604" xlink:href="#a"><stop stop-color="#f4f5f8" offset="0"/><stop stop-color="#fdfdfe" offset="1"/></linearGradient><linearGradient id="V" x1="59.135" x2="59.135" y1="91.73" y2="41.255" xlink:href="#a"><stop stop-color="red" offset="0"/><stop stop-color="#7f0000" offset="1"/></linearGradient><linearGradient id="W" x1="62.776" x2="62.776" y1="81.939" y2="-9.745" xlink:href="#I"/><path id="X" d="m-62.58 106.79 26.163-26.87 25.81 26.517-25.81-40.305-26.163 40.66z"/><path id="Y" d="M31.7 16l2.875-3.375c-1.05-1.696-3.935-2.288-5.938-.312l2.813 3.375.25.313z"/><path id="Z" d="M88.7 16l2.875-3.375c-1.05-1.696-3.935-2.288-5.937-.312l2.813 3.375.25.313z"/><linearGradient id="a" gradientUnits="userSpaceOnUse"/></defs><path d="m-259.4 132.76v-2.795 2.795zm474.76-163.81v-2.795 2.795zm34.376 53.394v-1.536 1.527z" fill="#fff" fill-opacity=".757"/><path d="M36.384 16.014a3.9 3.9 0 0 0-2.71 1.127L17.14 33.674a3.9 3.9 0 0 0 0 5.511L41.925 64 17.14 88.815a3.9 3.9 0 0 0 0 5.511l16.533 16.533a3.9 3.9 0 0 0 5.511 0L64 86.075l24.815 24.784a3.9 3.9 0 0 0 5.511 0l16.533-16.533a3.9 3.9 0 0 0 0-5.511L86.075 64l24.784-24.815a3.9 3.9 0 0 0 0-5.511L94.326 17.14a3.9 3.9 0 0 0-5.511 0L64 41.925 39.185 17.14a3.9 3.9 0 0 0-2.801-1.127zM66.77 77.793a3.9 3.9 0 0 0-5.541 0h5.54z" fill="url(#W)"/><g fill-rule="evenodd"><use transform="matrix(.97433 0 0 .97433 99.29 5.5405)" clip-path="url(#E)" filter="url(#F)" stroke="#000" stroke-width=".494" xlink:href="#X"/><use transform="matrix(0 1.8164 -1.8164 0 130.55 34.18)" fill="url(#K)" filter="url(#G)" opacity=".498" xlink:href="#Y"/><use transform="matrix(1.7938 0 0 -1.7938 -20.277 130.94)" fill="url(#L)" filter="url(#G)" opacity=".8" xlink:href="#Y"/><use transform="matrix(0 1.6448 1.6448 0 -.72435 39.585)" fill="url(#M)" filter="url(#G)" opacity=".498" xlink:href="#Y"/></g><path d="M91.558 23.437L64 50.995 36.442 23.437 23.437 36.442 50.995 64 23.437 91.558l13.005 13.005L64 77.005l27.558 27.558 13.005-13.005L77.005 64l27.558-27.558-13.005-13.005z" fill="url(#V)" opacity=".92"/><g fill-rule="evenodd"><use transform="matrix(1.6448 0 0 -1.6448 -53.801 129.54)" fill="url(#N)" filter="url(#G)" opacity=".8" xlink:href="#Z"/><use transform="matrix(.97433 0 0 -.97432 99.29 122)" clip-path="url(#E)" fill="url(#P)" filter="url(#F)" xlink:href="#X"/><use transform="matrix(1.4958 0 0 1.4958 -10.889 .6144)" fill="url(#Q)" filter="url(#G)" opacity=".8" xlink:href="#Y"/><use transform="matrix(1.5357 0 0 1.5357 -44.143 .23776)" fill="url(#R)" filter="url(#G)" opacity=".8" xlink:href="#Z"/></g><path transform="matrix(.97433 0 0 .97433 5.5405 5.5405)" d="M88.284 18.368L60 46.653 31.716 18.368 18.368 31.716 46.653 60 18.368 88.284l13.347 13.347L60 73.347l28.284 28.284 13.347-13.347L73.347 60l28.284-28.284-13.347-13.347z" fill="none" filter="url(#H)" opacity=".92" stroke="url(#O)" stroke-dashoffset="1.0878" stroke-linejoin="round" stroke-width="1.54"/><path d="M36.427 23.375L23.424 36.377l12.76-11.785L64 50.998l27.293-26.406 10.932 10.932c-.096.495-.225.974-.365 1.46L90.016 50.78c-10.683 5.326-25.58 10.58-41.593 10.596l.274.274 1.37.03c16.063 0 27.108-3.308 37.818-8.647l15.742-15.742.183-.67a13.12 13.12 0 0 0 .183-.792L91.537 23.375l-.73.73L64 50.998 36.427 23.375z" fill="url(#U)"/><path d="M36.445 23.442L23.442 36.445l25.272 25.272 1.37.03c16.063 0 27.108-3.308 37.818-8.647l15.742-15.742c.14-.487.27-.967.365-1.46L91.555 23.442 64 50.997 36.445 23.442z" fill="url(#T)"/><path d="M36.427 23.375L23.424 36.377l12.76-11.785 27.824 28.244L64 50.998l.01 1.824 27.283-28.23 10.932 10.932c-.096.495-.225.974-.365 1.46L90.016 50.78c-10.683 5.326-25.58 10.58-41.593 10.596l.274.274 1.37.03c16.063 0 27.108-3.308 37.818-8.647l15.742-15.742.183-.67a13.12 13.12 0 0 0 .183-.792L91.537 23.375l-.73.73L64 50.998 36.427 23.375z" fill="url(#S)"/></svg>
