<svg xmlns="http://www.w3.org/2000/svg" width="1209.449" height="1209.449" viewBox="0 0 320 320"><path d="M291.745 99.06H28.016c-6.593 0-11.988 5.394-11.988 11.988v37.76h287.704v-37.76c.001-6.593-5.394-11.988-11.987-11.988z" fill="#8a368b"/><path d="M16.028 148.82h287.704v166.03H16.028z" fill="#d162d2"/><rect x="31.012" y="163.806" width="257.734" height="136.06" rx="5" opacity=".525"/><g transform="matrix(-1 0 0 1 .529 23)"><circle r="11.061" cy="100.833" cx="-278.055" opacity=".56" fill="#ff5c5c"/><circle r="11.061" cy="100.833" cx="-248.033" opacity=".494" fill="#00e809"/><circle r="11.061" cy="100.833" cx="-218.012" opacity=".587" fill="#ffb046"/></g><path d="M43.78 110.647h101.895c7.193 0 12.587 5.994 12.587 12.587s-5.994 12.587-12.587 12.587H43.78c-7.193 0-12.587-5.994-12.587-12.587s5.994-12.587 12.587-12.587z" fill="#d162d2"/><path d="M159.754 168.048c35.635 0 64.522 28.648 64.522 63.988s-28.887 63.988-64.522 63.988-64.522-28.65-64.522-63.988 28.89-63.988 64.522-63.988z" fill="#0075de"/><path d="M159.754 168.048c25.558 0 47.643 14.737 58.09 36.11 1.573 5.803 2.416 11.9 2.416 18.196 0 38.6-31.56 69.91-70.495 69.91-5.794 0-11.423-.7-16.8-2.006-22.257-10.09-37.724-32.364-37.724-58.22 0-35.34 28.888-63.988 64.522-63.988z" fill="#feffff" fill-opacity=".306"/><path d="M200.066 182.077c11.998 9.533 20.488 23.228 23.244 38.88-.194-.297-.393-.686-.592-1.263-1.26.4-1.3.443-2.79.69l-.065.1c-.592.836.03.482-1.01 1.353-1.238 1.034-2.045 2.443-3.428 3.28-.166 1.46.123 1.79-.248 3.53-.145.64-.87 2.362-1.715 2.232-.268-.048-1.404-2.84-1.672-3.6-.455-1.312-.97-2.28-1.3-3.79-.185-.805-.31-2.346-.496-2.888-.89.13-.848.69-1.694.1-.6-.428-.33-.69-.662-1.33l-2.148-1.97c-.56-.18-2.707.13-3.617.033-1.63-.15-1.775-.05-2.746-1.345-1.717.083-1.57.722-3.244-.705-1.095-.92-.888-2.395-2.478-1.558-.062 1.345.6 1.643 1.2 2.265.433.476.97.805 1.197 1.443.022.017.125.623.145.705 1.55.1 1.92-.64 2.767-1.263.828.77.02.904 1.22 1.508.95.476.765.197 1.384.968.31 1.034-2.127 3.84-2.934 4.348-.62.393-.95.163-1.507.622-.826.69.104.59-1.342 1.117-1.55.56-3.08 1.738-4.71 1.837l-1.054-2.886c-1.034-3.298-.992-2.017-2.047-3.725-.496-.74-.29-1.214-.62-1.87-.227-.492-.578-.705-.888-1.31-.475-.935-1.03-2.395-2.127-2.247-.227.738 1.012 3.23 1.322 3.84s.805.87.95 1.74c.206 1.196-.04 1.048.62 1.85 1.384 1.657-.062 1.363 2.088 2.987 1.61 1.215 1.197 1.576 1.88 3.2 1.054.293 4.193-1.1 4.73-.69.64 1.13-.742 2.935-1.095 3.92-1.158 3.298-3.182 3.248-4.732 5.775-.845 1.363-1.24 1.543-2.024 3.184-.89 1.853 1.797 6.987.186 9.137-.35.492-1.487.788-2.912 2.28-1.508 1.623.04 1.344-.54 4.05-.453.623-1.01.656-1.57 1.1-.206.64-.04 1.146-.393 1.934-.373.952-.433.443-.97 1.215-.392.606-.35.852-.805 1.4-.392.51-.6.654-.97.985-1.8 1.642-5.662 1.7-5.992 1.46-.9-.77-.29-.968-.516-2.05-.22-.952-.73-1.75-1.156-2.483l-.044-.077c-.206-.36-.393-.705-.496-1.034-.744-2.33-.474-4.1-1.775-6.462-1.63-3.052.908-4.644.804-6.365-.04-.46-.206-.738-.248-1.1-.31-1.9-.494-3.61-1.775-5.1-1.405-1.623-1.22-1.05-.765-3.723.578-3.068-.744-2.28-2.603-2.362-.91-2.788-2.686-1.428-4.463-.608-1.115.507-1.53-.147-2.79.033-2.8.377-.6 1.576-4.36-1.378-1.57-1.23-.516-.608-1.447-2.15-.31-.56-1.26-1.297-1.694-1.854-1.425-1.772.27-3.56.022-5.593-.435-3.773-1.054-.493 1.074-5.053 1.115-2.428 2.8-2.443 3.244-3.53.373-.966.123-1.657.826-2.542.62-.722 1.508-.575 1.86-1.705.494-1.394-.455-1.574-1.488-1.608-.433-1.46-.433-1.1-.104-2.443.186-.755.02-1.117.186-1.872.412-1.886 3.656-.014 4.586-.786.433-.803.496-1.6 0-2.362-.518-.77-1.197-.673-1.55-1.41.785-.525.206-.066.89-.215.805-.18.7-.4 1.652-.59.846-.164 1.387-.935 2.21-1.46 1.178-.755.62-1.428 2.045-1.657 2.293-.395.805-.33 1.055-2.445.35-.13.68-.28 1.01-.426.723.935-.185.56.682 1.18.227-.13.496-.26.744-.392-.125-1.02-.6-.82-.9-2.083-1.137.18-1.55 1.13-2.457.788-.89-.33-.93-1.59-.89-2.642.33-.788 1.982-1.214 2.623-1.41 1.034-.345.89-1.034 1.84-1.97 1.24-1.23.33.016.93-1.574 1.364-.05.723-.1 1.53-.51l.04-.016.082-.033c.475-.215 1.096-.263 1.715-.474 2.27-.755 3.2-.377 4.853.294 1.28.526 5.144.542 5.433 2.15-.93.966-1.818.26-3.16.345.248 1.247.35 1.247 1.488 1.6.186-.59-.082-.36.227-.738.373.082.744.147 1.115.215.374-1.264.807-1.082 2.067-1.23-.207-.87-.435-.623.04-1.312 1.303.132.248.017.89 1.05.9-.116 1.797-1.117 3.058-1.247.785-.082.744.215 1.86.1.9-.1.87-.426 1.78-.048.33-.608 0-.59.805-.738 1.238-.215 2.314.54 3.51.705-.888-1.082-1.736-.87-.64-2.674 1.384-.28 1.508-.082 2.107.952.34-.2.485-.38.652-.476zM96.74 218.236c2.907-13.115 9.87-24.723 19.517-33.462.75.26 1.74.087 2.486.058.267-.492.433-.92.908-1.1.186-.066.414-.082.723-.066.04.245.104.492.166.738 0 .017.043.182.022.15.02-.034.04.097.062.147 1.303-.755.207-.77.9-2.132-1.096-.215-.95-.083-1.633-.772.662-.722 1.94-.968 2.893-.902-.063.656-.373.64-.123 1.196.744-.46 1.26-1.688 2.457-1.46.227.163.498.312.744.46-.62.575-1.55.608-2.355.935-.352 3.56 1.136.575.64 3.018.89-.066 1.756-.705 2.086-1.36-.33-.426-.805-.426-1.074-.935.21-.656.652-1.153 1.28-1.45.425-.2.934-.307 1.508-.307 6.568.05 3.45.345 5.475 1.264.453.196 1.26.296 1.53.69.414.623.02 1.212.68 1.705.58.426.662-.016 1.426.935-.164.54-.557 1.098-1.363 1.115-1.115.016-.455-.738-1.654-.623.022 1.115 1.137 1.543.103 2.15-.908.542-.332-.196-1.012.182-.02.016-.084.048-.104.066a.56.56 0 0 0-.104.114l-.33.362c-1.652-.445-1.342-.246-2.334-1.328-.373-.4-.433-.51-1.095-.46-.412.014-.95.194-1.344-.164.807-1 1.2-.033 2.375-.623.207-.1 1.508-1.1 1.717-1.328-.352-.788-.043-.132-.557-.64-1.16-1.164-1.49-.87-3.058-.87-.736.84-1.286 1.876-2.086 2.332-.483.275-1.058.338-1.82.016.352 1.41 1.26.33 1.342 2.034-.6-.116-.9-.412-1.53-.197-1.322.492-.144.443-.04.705 0 .016.62.082 0 .312-.684.245-.104-.132-1.426-.902l.557-1.018c-1.074.33-2.418.854-3.677 1.46-1.426.705-2.77 1.51-3.574 2.247-.02 1.23.207.4.332 1.872 1.92.114 1.3.687 3.224 1.23.37.1.846.197 1.426.296 0 .92-.828 1.608-.25 2.56 1.344.934 1.385-.886 1.715-2.05 4.547-.943 2.356-2.268 3.53-4.747a5.46 5.46 0 0 1 .786-1.192c.35.016 1.775.164 2.086.23 1.033.18.475.426 1.592.918-.022.886-.475 2.034.846 1.823 1.012-.18.787-.968 2.024-1.167.557 1.297.412 1.854.66 3.413 2.975 1.15 1.652 2.083 1.074 4.234.373.18.765.345 1.158.507l-.062 1.84a130.69 130.69 0 0 1-3.389-.738c.475-1.347 1.342-1.36 1.9-2.74-1.115.196-1.034.54-1.84.786-.722.215-1.28.066-2.045.164-.268.885-.02-.772.063.36.04.428.248.017-.043.476-1.033-.476-.68-1.593-2.603-.56.435.197.867.377 1.322.56-.062 1.263-.164.3-.433 1.148-.662 2.15 1.797.82 2.437.705-.166 1.132-.87 1.132-1.86 1.444-1.093.33-1.425.772-2.293.97 0-1.347-.206-.215.393-1.15-.87.082-1.508.474-2.334.82l-.082.03c-1.063.43-1.222.493-1.344 1.84-.908.277-1.96.59-2.603 1.248l-1.9 1.804c-.062.05-.104.1-.144.13.227 1.7 0 1.723-1.034 2.38-.87.556-1.158.54-1.96 1.245-2.582 2.298-1.342 1.23-1.2 5.184a29.56 29.56 0 0 1-1.548-.525c-.393-2.625.144-1.756-1.984-2.362-2.293-.656-1.984.46-2.934.656-1.054.23-1.57-.952-3.1.033-.846.573-1.652.95-1.86 1.967-.248 1.23-.805 2.132-.723 3.496.145 3.692 3.533 3.903 4.4 2.182.578-1.148.435-1.772 2.314-1.475.186.985-.104 1.705-.352 2.46-.164.443-.62 1.247-.392 1.854 1.342.54 1.384-.476 3.16.573.125 1.756-.805 3.725.557 4.74 1.054.77 1.115.082 2.045-.082 1.034-.18.848.46 1.8.608.537-.656.31-.246.662-1.05.62-1.392.785-.738 2.252-1.6.144-.082.267-.164.414-.263.164.345.35.672.515 1 1.075-1.264 1.2-.033 2.438.312.534.145.913.197 1.205.2.902.012.993-.422 2.223.01.145.067.332.116.498.164.02 0 .082.033.082.066.022.016.082.066.103.083.206.23.227.46.393.705l2.52 2.395c1.63.64 1.63-.56 3.492 1.23.785.738.433.724.867 1.674.063.15.185.294.268.476.164.443.35.868.537 1.294.846 1.1 2.003.412 3.18 1.543.68.656.166.46 1.672.722 2.336.377 1.428.164 3.204 1.494.68.492.845.213 1.486.64.89 1.23.66 2.56-.082 3.643-2.293 3.314-1.508 2.772-1.613 5.397-.084 1.508-.516 4.625-1.943 5.002-5.185 1.444-2.17 2.445-3.53 4.988-.393.724-.682.902-.93 1.477-1.03 2.393-.31 3.198-3.367 2.658.3.507.103.163.393.622.908 1.394 1.054 2.446-.807 2.788-1.55.296-.89 0-1.033 1.705-.6.246-.87 0-1.26.393.537.985.04.164.95.724-.166.54-.3 1.067-.435 1.6-.35 1.28-.453.1-.578 1.59.537.245.9.196 1.382.838-.062.492-.557 1.837-.7 2.608.765 1.133 1.385 2.346 3.016 2.462-.022.95.206.852-.62 1.048-.703.164-2.19-.492-2.81-.82-1.074-.575-2.066-1.33-2.787-2.412-.412-.608-.248-.312-.682-.885-.785-1-.474-1.46-.7-2.133-.125-.393-.765-.82-.496-2.1.062-.36.64-2.083-.062-1.787-.703.28.537.163-.435.623-.227-.623-.414-1.543-.537-2.313-.248-1.297-.557-1.345-.703-2.132-.31-1.82.475-2.02-.393-5.054-.57-2.008-.34-6.76-.943-9.2-.096-.39-.213-.72-.358-.97-.557-.918-1.92-1.344-3.015-2.083-.063-.014-.104-.033-.123-.066-1.508-1.05-2.934-5.167-4.133-6.708-.557-.74-.9-.412-1.158-1.576-.268-1.067.144-.885.496-1.773-1.838-3.345 2.377-3.297 1.508-7.316-.185-.738-.722-1.772-1.178-2.1-.87.377-.455.59-.9 1.31l-2.086-1.18c-2.13-2.034-.992-.56-1.6-1.887-1.28-2.788-2.5-1.23-4.03-2.608-.684-.575-.807-1.478-1.943-1.312-1.714.23-.765.492-2.54-.33-1.508-.705-3.078-1.525-4.133-2.476-.055-1.992.556-1.8-.97-3.638zm20.228-34.09l1.185-1.016.032.064c.082.13.144.13.227.474-1.047.254-1.045.425-1.445.476zm55.22 19.023c.572.362 1.27.637 1.694 1.005.537 1.46-.144.755.9 2.28.6.82.475 1.4 1.095 1.87 1.137-.147.145.182.846-.507.125-.13.475-.542.578-.705-.37-.56-.6-.608-.93-1.183 1.28-1.688 1.838-.722 2.148.395.807 3.1 2.045 2.197 3.08 2.05 1.054-.147.144.035 1.095.28.9.23.474 0 1.115-.163 2.168-.526.498 3.643.27 4.102-1.178.147-.95-.114-1.8-.197-1.714-.18.104 1.02-3.945-.296-3.885-1.23-3.058-1.508-3.864 1.165-.888-.066-.845-.23-1.67-.507a9.85 9.85 0 0 0-.621-.219l-.04-.012c-.33-.114 0-.014-.68-.655-.6-.56-2.066-.69-3.1-1.23 0-.885.785-1.623-.166-2.674-.31-.082-4.71.1-5.412.246-1.425.296-1.674 1.492-3.637 1.23-1.074-.15-.7-.048-.97-.673.352-.345 0-.164.602-.377.226-.082.31-.048.537-.082 3.18-.476 1.548-2.07 3.53-3.594 1.654-1.312.352.016 1.26-1.576 1.117-.1.97.442 1.922-.016.786-.393.537-.738 1.652-.772.992.985.785 1.576 2.397 2.33.64.297 1.033.46 1.445 1.002.744 1.05.104.705.393 1.427.062-.033.142-.067.226-.1l.04-.02c.87-.412-.435-.542.97-1.77-.412-.296-.712-.503-.97-.65l-.04-.023c-1.095-.64-.66-.048-2.066-1.787-.373-.493-.475-.525-.453-1.28 1.01-.18 1.197.542 2.107 1.345.123.116.268.215.412.312l.04.028v.004zm22.063 44.167c-.908.46-1.033 1.5-1.714 2.1-.744.673-1.736.362-2.024 1.608-.37 1.557.62 1.082-.475 3.117-.392.754-.412 2.64.186 3.2 1.797 1.72 2.768-2.625 3.18-3.988.31-.968.6-2.067.93-2.97.332-.968.805-1.82-.084-3.068v.001zm-2.974-45.77c.144 2.003 1.342 2.774 2.2 3.692-.104.952-.332.705-.31 2.034 1.012.724 1.755 1.164 3.078.805.185-1.608-.33-1.527-.826-2.625.082-.132.31-.296.35-.33.373-.492.186.196.373-.64-.97-.3-2.54-1.295-2.665-2.59.474-.376.33-.15.68-.376.765-.493.186.26.64-.575-.392-.754-.826-.886-1.775-.51-.414.164-1.508.935-1.736 1.115zm-8.45.526c-.64-.885-.6-1.33-1.838-1.36-.494.526-1.074 1.312-1.342 2.116-.414 1.214-.125.377-.084 1.7-.02.048 0 .116 0 .164-.02.786-.207-.15-.084.575.97-.197.227-.182.95-.412.682-.23 2.768-.854 3.37-.705 1.425.33 2.623 1.444 4.234.33-.084-1.427-1.82-1.97-3.016-2.592.063-1.31.414-.277.33-1.54-.414-.016-.662-.082-1.054.082-.93.4-.414.525-.414.672.04.705.93-.147-.02.724-.268.23-.703.23-1.033.26zm-24.13-9.94c-.04 2.298.765 1.525 1.53 2.658-.35.968-.412.215-.804 1.214-.352.838.082.083-.145 1.543.6.033 1.486-.18 2.273-.246 1.117-.1 1.096-.197 1.488-1.33l-1.88-2.263c-.807-1.215 0-.38-.248-1.395a23.91 23.91 0 0 1-.516-1.082c-1.074.362-.97.263-1.694.902h-.001z" fill="#fff" fill-opacity=".483"/><path d="M23.82 3.056c-1.446 0-2.832.586-3.854 1.63S18.37 7.145 18.37 8.62v27.212c0 1.476.574 2.89 1.596 3.935s2.41 1.63 3.854 1.63h13.328c30.835 0 58.574 7.876 77.138 19.186 14.574 8.88 22.65 18.886 25.51 28.484l-23.62.037c-1.983.004-3.807 1.107-4.764 2.88s-.894 3.937.163 5.65l43.497 70.505c1 1.618 2.74 2.6 4.614 2.598s3.614-.984 4.61-2.603l43.5-70.642c1.057-1.716 1.116-3.883.154-5.657s-2.792-2.873-4.778-2.87l-25.235.04c-3.144-25.742-20.953-47.062-44.403-61.35-25.79-15.71-59.49-24.602-96.384-24.602z" fill="#ffb406" stroke="#000" stroke-width="6" stroke-linejoin="round"/></svg>