<svg xmlns="http://www.w3.org/2000/svg" xmlns:xlink="http://www.w3.org/1999/xlink" width="128" height="128"><defs><linearGradient id="A" xlink:href="#o"><stop offset="0" stop-color="#64d7eb"/><stop offset="1" stop-color="#64d7eb" stop-opacity="0"/></linearGradient><linearGradient id="B" xlink:href="#o"><stop offset="0"/><stop offset="1" stop-opacity="0"/></linearGradient><linearGradient id="C" xlink:href="#o"><stop offset="0" stop-color="#63e9ff"/><stop offset="1" stop-color="#fff" stop-opacity="0"/></linearGradient><linearGradient id="D" xlink:href="#o"><stop offset="0" stop-color="#fff"/><stop offset="1" stop-color="#fff" stop-opacity="0"/></linearGradient><linearGradient id="E" xlink:href="#o"><stop offset="0" stop-color="#cdeeff"/><stop offset="1" stop-color="#d2e8ed" stop-opacity="0"/></linearGradient><linearGradient xlink:href="#D" id="F" x1="77.743" y1="15.337" x2="82.939" y2="16.751" spreadMethod="reflect"/><filter x="-.102" width="1.204" y="-.125" height="1.25" id="G"><feGaussianBlur stdDeviation=".447"/></filter><linearGradient xlink:href="#D" id="H" spreadMethod="reflect" x1="74.75" y1="14.276" x2="78.939" y2="16.751"/><linearGradient xlink:href="#O" id="I" x1="52" y1="17.09" x2="50.734" y2="-38.839"/><filter x="-.116" width="1.231" y="-.128" height="1.255" id="J"><feGaussianBlur stdDeviation=".325"/></filter><radialGradient xlink:href="#B" id="K" cx="-23.234" cy="61.877" fx="-23.234" fy="61.877" r="60" gradientTransform="matrix(-0.01767767,-0.5816285,-0.8878982,0.026986249,122.02118,64.093894)"/><linearGradient xlink:href="#P" id="L" spreadMethod="reflect" x1="115.166" y1="44.874" x2="118.498" y2="47.884"/><linearGradient xlink:href="#C" id="M" x1="216.337" y1="59.541" x2="275.904" y2="61.05"/><radialGradient xlink:href="#B" id="N" gradientTransform="matrix(0.048084493,-0.579907,-1.1490691,-0.095278066,175.27772,88.77797)" cx="68.02" cy="88.271" fx="68.02" fy="88.271" r="60"/><linearGradient id="O" xlink:href="#o"><stop offset="0" stop-color="#081e3e"/><stop offset="1" stop-color="#387de4"/></linearGradient><linearGradient id="P" xlink:href="#o"><stop offset="0" stop-color="#fff"/><stop offset="1" stop-color="#fff" stop-opacity="0"/></linearGradient><linearGradient id="Q" xlink:href="#o"><stop offset="0" stop-color="#9fc1f2"/><stop offset=".5" stop-color="#587eb5"/><stop offset="1" stop-color="#0c2a58"/></linearGradient><filter id="R"><feGaussianBlur stdDeviation=".565"/></filter><radialGradient xlink:href="#Q" id="S" gradientTransform="matrix(1,0,0,1.1383929,0,-10.517857)" cx="136.614" cy="76.11" fx="136.614" fy="76.11" r="56"/><linearGradient xlink:href="#C" id="T" x1="63.933" y1="7.567" x2="66.207" y2="7.567" spreadMethod="reflect"/><filter id="U" x="-.101" width="1.201" y="-.077" height="1.154"><feGaussianBlur stdDeviation=".199"/></filter><radialGradient id="V" cx="64" cy="46.528" fx="64" fy="46.528" r="53.298" gradientTransform="matrix(2.4136387,0.02463228,-0.0029850441,0.2924948,-90.33399,-2.377065)" xlink:href="#o"><stop offset="0" stop-color="#2e6ac4"/><stop offset="1" stop-color="#2e6ac4" stop-opacity="0"/></radialGradient><linearGradient xlink:href="#E" id="W" x1="111.812" y1="-29.197" x2="112" y2="43.104"/><linearGradient xlink:href="#D" id="X" x1="-30.113" y1="2.803" x2="-29.925" y2="75.104"/><linearGradient xlink:href="#P" id="Y" x1="-62.187" y1="82.602" x2="-90.98" y2="22.887"/><filter id="Z"><feGaussianBlur stdDeviation=".277"/></filter><linearGradient id="a" x1="69.733" y1="81.281" x2="71.954" y2="130.411" xlink:href="#o"><stop offset="0" stop-color="#fff"/><stop offset="1" stop-color="#fff" stop-opacity="0"/></linearGradient><linearGradient xlink:href="#E" id="b" x1="69.733" y1="81.281" x2="71.954" y2="130.411"/><linearGradient xlink:href="#O" id="c" x1="18" y1="72" x2="18" y2="48.315"/><radialGradient xlink:href="#Q" id="d" cx="18" cy="61.16" fx="18" fy="61.16" r="6" gradientTransform="matrix(1,0,0,1.3333333,0,-21.333333)"/><linearGradient xlink:href="#C" id="e" x1="21.271" y1="55.8" x2="21.271" y2="66.04"/><filter id="f"><feGaussianBlur stdDeviation=".108"/></filter><linearGradient id="g" x1="21.796" y1="73.846" x2="21.796" y2="63.999" xlink:href="#o"><stop offset="0"/><stop offset="1" stop-opacity="0"/></linearGradient><radialGradient id="h" gradientTransform="matrix(0.3723975,0,0,0.3956041,11.422008,34.017713)" cx="17.664" cy="59.027" fx="17.664" fy="57.249" r="6" xlink:href="#o"><stop offset="0" stop-color="#fff"/><stop offset="1" stop-color="#fff" stop-opacity="0"/></radialGradient><radialGradient xlink:href="#A" id="i" cx="17.314" cy="58.086" fx="17.314" fy="58.086" r="6" gradientTransform="matrix(0.1242527,1.8509925e-7,-0.0000011212016,1.3333333,15.84871,-21.333337)"/><radialGradient xlink:href="#A" id="j" gradientTransform="matrix(0.5405358,1.1657396e-7,-1.600384e-7,1.2019727,8.6409226,-12.089524)" cx="17.314" cy="70.37" fx="17.314" fy="70.37" r="6"/><filter id="k"><feGaussianBlur stdDeviation=".168"/></filter><path id="l" d="M115.798 22.797L66.815 90.464c-.705.983-1.75 1.552-2.852 1.552s-2.147-.57-2.852-1.552L12.138 22.11c-2.63-4.143-3.003-10.094 2.825-10.094h25v-8c-.001-2.382 1.95-4 4-4h40c2.05-.001 4 1.618 4 4v8h24c3.89 0 6.553 7.02 3.835 10.78z"/><path id="m" d="M115.65 40c-.34 1.155-2.562 6.125-2.562 6.125l6.75-.03V44c.001-2.05-1.618-4-4-4h-.187z"/><path id="n" d="M 24,64 A 6,8 0 1 1 12,64 A 6,8 0 1 1 24,64 z"/><linearGradient id="o" gradientUnits="userSpaceOnUse"/></defs><g fill-rule="evenodd"><use xlink:href="#l" fill="url(#I)"/><use xlink:href="#l" opacity=".255" fill="url(#N)"/><path d="M76.5 11.063c-1.077.065-2.114.377-3 .938l2.375 7.625L84 16.47V16c0-2.918-3.94-5.153-7.5-4.937z" transform="matrix(0 -1 -1 0 127.96309 96.01574)" fill="url(#F)" filter="url(#G)"/><use xlink:href="#m" transform="matrix(0 -1 1 0 -.161918 120.01574)" fill="url(#L)" filter="url(#J)"/><use xlink:href="#l" fill="url(#K)"/><path d="M72.5 11.063c-1.077.065-2.114.377-3 .938l2.375 7.625L80 16.47V16c0-2.918-3.94-5.153-7.5-4.937z" transform="matrix(0 -.831641 1 0 -.821068 78.54704)" opacity=".704" fill="url(#H)" filter="url(#G)"/><use xlink:href="#m" transform="matrix(.999597 .028382 -.028382 .999597 -30.523448 -43.102306)" fill="url(#L)" filter="url(#J)"/><path d="M61.556 5.222c1.69-1.46 3.24-1.068 4.753-.134l-2.243 5.39-2.5-5.255z" transform="matrix(1 0 0 -1 0 96.03148)" fill="url(#T)" filter="url(#U)"/><use xlink:href="#l" fill="url(#V)"/><path d="M181.55 21.465l-62.645 52.1c-1.386 1.6-1.164 3.02-.102 4.254L180 129.08c4 3.582 8 3.773 8 0V99.23h12V52.77h-12V23.93c0-3.19-3.153-4.675-6.45-2.464z" fill="url(#S)" transform="matrix(0 -1 -.860986 0 129.39806 204.01574)"/></g><g transform="matrix(0 -1 -.860986 0 129.59806 301.21877)" fill="none" filter="url(#R)"><path d="M278.55 21.465l-62.445 52.342c-1.386 1.6-1.164 3.02-.102 4.254L277 129.08c4 3.582 8 3.773 8 0V99.23h36V52.77h-36V23.93c0-3.19-3.153-4.675-6.45-2.464z" stroke="url(#M)" stroke-linejoin="round" stroke-width="1.078"/></g><path d="M43.97 4.03v12H18.25c-3.25 0-3.084 4 0 8l9.156 13.063c5.054.34 10.205.53 15.438.53 23.712 0 45.8-3.61 64.313-9.812l3.75-5.344c1.903-3.297.622-6.437-2.125-6.437H83.97v-12h-40z" fill="url(#W)"/><g transform="translate(142.187 -32)"><path d="M-97.97 36.03v1h40v-1h-40zm-25.72 12c-1.763 0-2.512 1.2-2.344 2.906.174-1.162.946-1.906 2.344-1.906h25.72v-1h-25.72zm65.72 0v1h24.813c1.684 0 2.814 1.17 3 2.844.222-2.183-.997-3.844-3-3.844H-57.97z" fill="url(#X)"/><path d="M-58.557 36.03v10.563h.594V36.03h-.594zm27.844 13.25c.005.948.223 2.22-.406 3.325l-4.05 5.637c-18.523 6.615-40.8 10.32-64.512 10.85-5.072.113-10.064.055-14.97-.156l.125.156c5.054.34 10.205.53 15.437.53 23.712 0 45.8-3.61 64.313-9.812l3.75-5.344c1.162-2.012 1.132-3.97.313-5.187z" fill="url(#Y)"/></g><use xlink:href="#n" transform="matrix(2.666667 0 0 1.999999 16.000001 -16.028226)" fill="url(#c)"/><use xlink:href="#n" transform="matrix(2.566196 0 0 1.924646 17.808481 -11.205616)" fill="url(#h)" filter="url(#Z)"/><use xlink:href="#n" transform="matrix(2.666667 0 0 1.999999 16.000001 -16.028226)" opacity=".625" fill="url(#g)"/><use xlink:href="#n" transform="matrix(2.666667 0 0 1.999999 16.000001 -16.228226)" opacity=".625" fill="url(#i)"/><use xlink:href="#n" transform="matrix(2 0 0 -1.5 28.000001 207.97172)" fill="url(#d)"/><path d="M64 99.972c-6.55 0-11.882 5.26-12 11.78 4.548 1.123 9.898 1.78 15.625 1.78 2.89 0 5.668-.192 8.313-.5.03-.353.063-.7.063-1.062 0-6.624-5.376-12-12-12z" fill="url(#b)"/><path d="M64 99.972c-6.14 0-11.2 4.61-11.906 10.563.738-5.544 5.714-9.844 11.72-9.844 6.513 0 11.78 5.03 11.78 11.25 0 .34-.032.67-.062 1-2.6.29-5.313.47-8.156.47-5.632 0-10.903-.602-15.375-1.656 4.548 1.123 9.898 1.78 15.625 1.78 2.89 0 5.668-.192 8.313-.5.03-.353.063-.7.063-1.062 0-6.624-5.376-12-12-12z" fill="url(#a)"/><use xlink:href="#n" transform="matrix(2 0 0 -1.5 28.000001 207.97172)" fill="none" stroke="url(#e)" stroke-width=".52" stroke-linejoin="round" filter="url(#f)"/><use xlink:href="#n" transform="matrix(2.666667 0 0 1.999999 16.000001 -16.228226)" opacity=".413" fill="url(#j)" filter="url(#k)"/></svg>