<svg width="128" height="128" xmlns="http://www.w3.org/2000/svg" xmlns:xlink="http://www.w3.org/1999/xlink"><defs><linearGradient id="A" xlink:href="#o"><stop stop-color="#64d7eb" offset="0"/><stop stop-color="#64d7eb" stop-opacity="0" offset="1"/></linearGradient><linearGradient id="B" xlink:href="#o"><stop offset="0"/><stop stop-opacity="0" offset="1"/></linearGradient><linearGradient id="C" xlink:href="#o"><stop stop-color="#63e9ff" offset="0"/><stop stop-color="#fff" stop-opacity="0" offset="1"/></linearGradient><linearGradient id="D" xlink:href="#o"><stop stop-color="#fff" offset="0"/><stop stop-color="#fff" stop-opacity="0" offset="1"/></linearGradient><linearGradient id="E" xlink:href="#o"><stop stop-color="#cdeeff" offset="0"/><stop stop-color="#d2e8ed" stop-opacity="0" offset="1"/></linearGradient><linearGradient id="F" x1="77.743" x2="82.939" y1="15.337" y2="16.751" spreadMethod="reflect" xlink:href="#D"/><filter id="G" x="-.102" y="-.125" width="1.204" height="1.25"><feGaussianBlur stdDeviation=".447"/></filter><linearGradient id="H" x1="74.75" x2="78.939" y1="14.276" y2="16.751" spreadMethod="reflect" xlink:href="#D"/><linearGradient id="I" x1="52" x2="50.734" y1="17.09" y2="-38.839" xlink:href="#O"/><filter id="J" x="-.116" y="-.128" width="1.231" height="1.255"><feGaussianBlur stdDeviation=".325"/></filter><radialGradient id="K" cx="-23.234" cy="61.877" r="60" gradientTransform="matrix(-.017678 -.58163 -.8879 .026986 122.02 64.094)" xlink:href="#B"/><linearGradient id="L" x1="115.17" x2="118.5" y1="44.874" y2="47.884" spreadMethod="reflect" xlink:href="#D"/><linearGradient id="M" x1="216.34" x2="275.9" y1="59.541" y2="61.05" xlink:href="#C"/><radialGradient id="N" cx="68.02" cy="88.271" r="60" gradientTransform="matrix(.048084 -.57991 -1.1491 -.095278 175.28 88.778)" xlink:href="#B"/><linearGradient id="O" xlink:href="#o"><stop stop-color="#081e3e" offset="0"/><stop stop-color="#387de4" offset="1"/></linearGradient><linearGradient id="Q" xlink:href="#o"><stop stop-color="#9fc1f2" offset="0"/><stop stop-color="#587eb5" offset=".5"/><stop stop-color="#0c2a58" offset="1"/></linearGradient><filter id="R"><feGaussianBlur stdDeviation=".565"/></filter><radialGradient id="S" cx="136.61" cy="76.11" r="56" gradientTransform="matrix(1 0 0 1.1384 0 -10.518)" xlink:href="#Q"/><linearGradient id="T" x1="63.933" x2="66.207" y1="7.567" y2="7.567" spreadMethod="reflect" xlink:href="#C"/><filter id="U" x="-.101" y="-.077" width="1.201" height="1.154"><feGaussianBlur stdDeviation=".199"/></filter><radialGradient id="V" cx="64" cy="46.528" r="53.298" gradientTransform="matrix(2.4136 .024632 -.002985 .29249 -90.334 -2.3771)" xlink:href="#o"><stop stop-color="#2e6ac4" offset="0"/><stop stop-color="#2e6ac4" stop-opacity="0" offset="1"/></radialGradient><linearGradient id="W" x1="111.81" x2="112" y1="-29.197" y2="43.104" xlink:href="#E"/><linearGradient id="X" x1="-30.113" x2="-29.925" y1="2.803" y2="75.104" xlink:href="#D"/><linearGradient id="Y" x1="-62.187" x2="-90.98" y1="82.602" y2="22.887" xlink:href="#D"/><filter id="Z"><feGaussianBlur stdDeviation=".277"/></filter><linearGradient id="a" x1="69.733" x2="71.954" y1="81.281" y2="130.41" xlink:href="#o"><stop stop-color="#fff" offset="0"/><stop stop-color="#fff" stop-opacity="0" offset="1"/></linearGradient><linearGradient id="b" x1="69.733" x2="71.954" y1="81.281" y2="130.41" xlink:href="#E"/><linearGradient id="c" x1="18" x2="18" y1="72" y2="48.315" xlink:href="#O"/><radialGradient id="d" cx="18" cy="61.16" r="6" gradientTransform="matrix(1 0 0 1.3333 0 -21.333)" xlink:href="#Q"/><linearGradient id="e" x1="21.271" x2="21.271" y1="55.8" y2="66.04" xlink:href="#C"/><filter id="f"><feGaussianBlur stdDeviation=".108"/></filter><linearGradient id="g" x1="21.796" x2="21.796" y1="73.846" y2="63.999" xlink:href="#o"><stop offset="0"/><stop stop-opacity="0" offset="1"/></linearGradient><radialGradient id="h" cx="17.664" cy="59.027" r="6" fy="57.249" gradientTransform="matrix(.3724 0 0 .3956 11.422 34.018)" xlink:href="#o"><stop stop-color="#fff" offset="0"/><stop stop-color="#fff" stop-opacity="0" offset="1"/></radialGradient><radialGradient id="i" cx="17.314" cy="58.086" r="6" gradientTransform="matrix(.12425 1.851e-7 -1.1212e-6 1.3333 15.849 -21.333)" xlink:href="#A"/><radialGradient id="j" cx="17.314" cy="70.37" r="6" gradientTransform="matrix(.54054 1.1657e-7 -1.6004e-7 1.202 8.6409 -12.09)" xlink:href="#A"/><filter id="k"><feGaussianBlur stdDeviation=".168"/></filter><path id="l" d="M115.798 22.797L66.815 90.464c-.705.983-1.75 1.552-2.852 1.552s-2.147-.57-2.852-1.552L12.138 22.11c-2.63-4.143-3.003-10.094 2.825-10.094h25v-8c-.001-2.382 1.95-4 4-4h40c2.05-.001 4 1.618 4 4v8h24c3.89 0 6.553 7.02 3.835 10.78z"/><path id="m" d="M115.65 40c-.34 1.155-2.562 6.125-2.562 6.125l6.75-.03V44c.001-2.05-1.618-4-4-4h-.187z"/><path id="n" d="m24 64a6 8 0 1 1-12 0 6 8 0 1 1 12 0z"/><linearGradient id="o" gradientUnits="userSpaceOnUse"/></defs><g fill-rule="evenodd"><use fill="url(#I)" xlink:href="#l"/><use fill="url(#N)" opacity=".255" xlink:href="#l"/><path transform="matrix(0 -1 -1 0 127.96 96.016)" d="M76.5 11.063c-1.077.065-2.114.377-3 .938l2.375 7.625L84 16.47V16c0-2.918-3.94-5.153-7.5-4.937z" fill="url(#F)" filter="url(#G)"/><use transform="matrix(0 -1 1 0 -.16192 120.02)" fill="url(#L)" filter="url(#J)" xlink:href="#m"/><use fill="url(#K)" xlink:href="#l"/><path transform="matrix(0 -.83164 1 0 -.82107 78.547)" d="M72.5 11.063c-1.077.065-2.114.377-3 .938l2.375 7.625L80 16.47V16c0-2.918-3.94-5.153-7.5-4.937z" fill="url(#H)" filter="url(#G)" opacity=".704"/><use transform="matrix(.9996 .028382 -.028382 .9996 -30.523 -43.102)" fill="url(#L)" filter="url(#J)" xlink:href="#m"/><path transform="matrix(1 0 0 -1 0 96.031)" d="M61.556 5.222c1.69-1.46 3.24-1.068 4.753-.134l-2.243 5.39-2.5-5.255z" fill="url(#T)" filter="url(#U)"/><use fill="url(#V)" xlink:href="#l"/><path transform="matrix(0 -1 -.86099 0 129.4 204.02)" d="M181.55 21.465l-62.645 52.1c-1.386 1.6-1.164 3.02-.102 4.254L180 129.08c4 3.582 8 3.773 8 0V99.23h12V52.77h-12V23.93c0-3.19-3.153-4.675-6.45-2.464z" fill="url(#S)"/></g><g transform="matrix(0 -1 -.86099 0 129.6 301.22)" fill="none" filter="url(#R)"><path d="M278.55 21.465l-62.445 52.342c-1.386 1.6-1.164 3.02-.102 4.254L277 129.08c4 3.582 8 3.773 8 0V99.23h36V52.77h-36V23.93c0-3.19-3.153-4.675-6.45-2.464z" stroke="url(#M)" stroke-linejoin="round" stroke-width="1.078"/></g><path d="M43.97 4.03v12H18.25c-3.25 0-3.084 4 0 8l9.156 13.063c5.054.34 10.205.53 15.438.53 23.712 0 45.8-3.61 64.313-9.812l3.75-5.344c1.903-3.297.622-6.437-2.125-6.437H83.97v-12h-40z" fill="url(#W)"/><g transform="translate(142.19 -32)"><path d="M-97.97 36.03v1h40v-1h-40zm-25.72 12c-1.763 0-2.512 1.2-2.344 2.906.174-1.162.946-1.906 2.344-1.906h25.72v-1h-25.72zm65.72 0v1h24.813c1.684 0 2.814 1.17 3 2.844.222-2.183-.997-3.844-3-3.844H-57.97z" fill="url(#X)"/><path d="M-58.557 36.03v10.563h.594V36.03h-.594zm27.844 13.25c.005.948.223 2.22-.406 3.325l-4.05 5.637c-18.523 6.615-40.8 10.32-64.512 10.85-5.072.113-10.064.055-14.97-.156l.125.156c5.054.34 10.205.53 15.437.53 23.712 0 45.8-3.61 64.313-9.812l3.75-5.344c1.162-2.012 1.132-3.97.313-5.187z" fill="url(#Y)"/></g><use transform="matrix(2.6667 0 0 2 16 -16.028)" fill="url(#c)" xlink:href="#n"/><use transform="matrix(2.5662 0 0 1.9246 17.808 -11.206)" fill="url(#h)" filter="url(#Z)" xlink:href="#n"/><use transform="matrix(2.6667 0 0 2 16 -16.028)" fill="url(#g)" opacity=".625" xlink:href="#n"/><use transform="matrix(2.6667 0 0 2 16 -16.228)" fill="url(#i)" opacity=".625" xlink:href="#n"/><use transform="matrix(2 0 0 -1.5 28 207.97)" fill="url(#d)" xlink:href="#n"/><path d="M64 99.972c-6.55 0-11.882 5.26-12 11.78 4.548 1.123 9.898 1.78 15.625 1.78 2.89 0 5.668-.192 8.313-.5.03-.353.063-.7.063-1.062 0-6.624-5.376-12-12-12z" fill="url(#b)"/><path d="M64 99.972c-6.14 0-11.2 4.61-11.906 10.563.738-5.544 5.714-9.844 11.72-9.844 6.513 0 11.78 5.03 11.78 11.25 0 .34-.032.67-.062 1-2.6.29-5.313.47-8.156.47-5.632 0-10.903-.602-15.375-1.656 4.548 1.123 9.898 1.78 15.625 1.78 2.89 0 5.668-.192 8.313-.5.03-.353.063-.7.063-1.062 0-6.624-5.376-12-12-12z" fill="url(#a)"/><use transform="matrix(2 0 0 -1.5 28 207.97)" fill="none" filter="url(#f)" stroke="url(#e)" stroke-linejoin="round" stroke-width=".52" xlink:href="#n"/><use transform="matrix(2.6667 0 0 2 16 -16.228)" fill="url(#j)" filter="url(#k)" opacity=".413" xlink:href="#n"/></svg>
