<svg xmlns="http://www.w3.org/2000/svg" xmlns:xlink="http://www.w3.org/1999/xlink" width="128" height="128"><defs><linearGradient id="A" xlink:href="#X"><stop offset="0"/><stop offset="1" stop-opacity="0"/></linearGradient><linearGradient id="B" xlink:href="#X"><stop offset="0" stop-color="#63e9ff"/><stop offset="1" stop-color="#fff" stop-opacity="0"/></linearGradient><linearGradient id="C" xlink:href="#X"><stop offset="0" stop-color="#fff"/><stop offset="1" stop-color="#fff" stop-opacity="0"/></linearGradient><linearGradient xlink:href="#C" id="D" x1="77.743" y1="15.337" x2="82.939" y2="16.751" spreadMethod="reflect"/><filter x="-.102" width="1.204" y="-.125" height="1.25" id="E"><feGaussianBlur stdDeviation=".447"/></filter><linearGradient xlink:href="#C" id="F" spreadMethod="reflect" x1="74.75" y1="14.276" x2="78.939" y2="16.751"/><linearGradient id="G" x1="52" y1="49.09" x2="50.734" y2="-6.839" xlink:href="#X"><stop offset="0" stop-color="#081e3e"/><stop offset="1" stop-color="#387de4"/></linearGradient><filter x="-.116" width="1.231" y="-.128" height="1.255" id="H"><feGaussianBlur stdDeviation=".325"/></filter><radialGradient xlink:href="#A" id="I" cx="-23.234" cy="61.877" fx="-23.234" fy="61.877" r="60" gradientTransform="matrix(-0.01767767,-0.5816285,-0.8878982,0.026986249,122.02118,96.093894)"/><linearGradient xlink:href="#M" id="J" spreadMethod="reflect" x1="115.166" y1="44.874" x2="118.498" y2="47.884"/><linearGradient xlink:href="#B" id="K" x1="216.337" y1="59.541" x2="275.904" y2="61.05"/><radialGradient xlink:href="#A" id="L" gradientTransform="matrix(4.8084493e-2,-0.579907,-1.1490691,-9.5278066e-2,175.27772,120.77797)" cx="68.02" cy="88.271" fx="68.02" fy="88.271" r="60"/><linearGradient id="M" xlink:href="#X"><stop offset="0" stop-color="#fff"/><stop offset="1" stop-color="#fff" stop-opacity="0"/></linearGradient><filter id="N"><feGaussianBlur stdDeviation=".565"/></filter><radialGradient id="O" gradientTransform="matrix(1,0,0,1.1383929,0,-10.517857)" cx="136.614" cy="76.11" fx="136.614" fy="76.11" r="56" xlink:href="#X"><stop offset="0" stop-color="#9fc1f2"/><stop offset=".5" stop-color="#587eb5"/><stop offset="1" stop-color="#0c2a58"/></radialGradient><linearGradient xlink:href="#B" id="P" x1="63.933" y1="7.567" x2="66.207" y2="7.567" spreadMethod="reflect"/><filter id="Q" x="-.101" width="1.201" y="-.077" height="1.154"><feGaussianBlur stdDeviation=".199"/></filter><radialGradient id="R" cx="64" cy="46.528" fx="64" fy="46.528" r="53.298" gradientTransform="matrix(2.4136387,2.463228e-2,-2.9850441e-3,0.2924948,-90.33399,29.622935)" xlink:href="#X"><stop offset="0" stop-color="#2e6ac4"/><stop offset="1" stop-color="#2e6ac4" stop-opacity="0"/></radialGradient><linearGradient id="S" x1="111.812" y1="2.803" x2="112" y2="75.104" xlink:href="#X"><stop offset="0" stop-color="#cdeeff"/><stop offset="1" stop-color="#d2e8ed" stop-opacity="0"/></linearGradient><linearGradient xlink:href="#C" id="T" x1="-30.113" y1="2.803" x2="-29.925" y2="75.104"/><linearGradient xlink:href="#M" id="U" x1="-62.187" y1="82.602" x2="-90.98" y2="22.887"/><path id="V" d="M115.798 54.797l-48.982 67.667c-.705.983-1.75 1.552-2.852 1.552s-2.147-.57-2.852-1.552L12.138 54.11c-2.63-4.143-3.003-10.094 2.825-10.094h25v-24c-.001-2.382 1.95-4 4-4h40c2.05-.001 4 1.618 4 4v24h24c3.89 0 6.553 7.02 3.835 10.78z"/><path id="W" d="M115.65 40c-.34 1.155-2.562 6.125-2.562 6.125l6.75-.03V44c.001-2.05-1.618-4-4-4h-.187z"/><linearGradient id="X" gradientUnits="userSpaceOnUse"/></defs><g fill-rule="evenodd"><path d="M115.798 54.797l-48.982 67.667c-.705.983-1.75 1.552-2.852 1.552s-2.147-.57-2.852-1.552L12.138 54.11c-2.63-4.143-3.003-10.094 2.825-10.094h25v-32c-.001-2.382 1.95-4 4-4h40c2.05-.001 4 1.618 4 4v32h24c3.89 0 6.553 7.02 3.835 10.78z" fill="url(#G)"/><use xlink:href="#V" opacity=".255" fill="url(#L)"/><path d="M76.5 11.063c-1.077.065-2.114.377-3 .938l2.375 7.625L84 16.47V16c0-2.918-3.94-5.153-7.5-4.937z" transform="matrix(0 -1 -1 0 127.96309 128.01574)" fill="url(#D)" filter="url(#E)"/><use xlink:href="#W" transform="matrix(0 -1 1 0 -.161918 128.01574)" fill="url(#J)" filter="url(#H)"/><use xlink:href="#V" fill="url(#I)"/><path d="M72.5 11.063c-1.077.065-2.114.377-3 .938l2.375 7.625L80 16.47V16c0-2.918-3.94-5.153-7.5-4.937z" transform="matrix(0 -.831641 1 0 -.821068 110.54704)" opacity=".704" fill="url(#F)" filter="url(#E)"/><use xlink:href="#W" transform="matrix(.999597 .028382 -.028382 .999597 -30.523448 -35.102306)" fill="url(#J)" filter="url(#H)"/><path d="M61.556 5.222c1.69-1.46 3.24-1.068 4.753-.134l-2.243 5.39-2.5-5.255z" transform="matrix(1 0 0 -1 0 128.03148)" fill="url(#P)" filter="url(#Q)"/><path d="M115.798 54.797l-48.982 67.667c-.705.983-1.75 1.552-2.852 1.552s-2.147-.57-2.852-1.552L12.138 54.11c-2.63-4.143-3.003-10.094 2.825-10.094h25v-21c-.001-2.382 1.95-4 4-4h40c2.05-.001 4 1.618 4 4v21h24c3.89 0 6.553 7.02 3.835 10.78z" fill="url(#R)"/><path d="M181.55 21.465l-62.645 52.1c-1.386 1.6-1.164 3.02-.102 4.254L180 129.08c4 3.582 8 3.773 8 0V99.23h36V52.77h-36V23.93c0-3.19-3.153-4.675-6.45-2.464z" fill="url(#O)" transform="matrix(0 -1 -.860986 0 129.39806 236.01574)"/></g><g transform="matrix(0 -1 -.860986 0 129.59806 333.21877)" fill="none" filter="url(#N)"><path d="M278.55 21.465l-62.445 52.342c-1.386 1.6-1.164 3.02-.102 4.254L277 129.08c4 3.582 8 3.773 8 0V99.23h36V52.77h-36V23.93c0-3.19-3.153-4.675-6.45-2.464z" stroke="url(#K)" stroke-linejoin="round" stroke-width="1.078"/></g><path d="M43.97 12.03v36H18.25c-3.25 0-3.084 4 0 8l9.156 13.063c5.054.34 10.205.53 15.438.53 23.712 0 45.8-3.61 64.313-9.812l3.75-5.344c1.903-3.297.622-6.437-2.125-6.437H83.97v-36h-40z" fill="url(#S)"/><g transform="translate(142.187)"><path d="M-97.97 12.03v1h40v-1h-40zm-25.72 36c-1.763 0-2.512 1.2-2.344 2.906.174-1.162.946-1.906 2.344-1.906h25.72v-1h-25.72zm65.72 0v1h24.813c1.684 0 2.814 1.17 3 2.844.222-2.183-.997-3.844-3-3.844H-57.97z" fill="url(#T)"/><path d="M-58.557 12.03v34.563h.594V12.03h-.594zm27.844 37.25c.005.948.223 2.22-.406 3.325l-4.05 5.637c-18.523 6.615-40.8 10.32-64.512 10.85-5.072.113-10.064.055-14.97-.156l.125.156c5.054.34 10.205.53 15.437.53 23.712 0 45.8-3.61 64.313-9.812l3.75-5.344c1.162-2.012 1.132-3.97.313-5.187z" fill="url(#U)"/></g></svg>