<svg xmlns="http://www.w3.org/2000/svg" xmlns:xlink="http://www.w3.org/1999/xlink" width="128" height="128"><defs><linearGradient id="A" xlink:href="#v"><stop offset="0"/><stop offset=".721" stop-color="#909090"/><stop offset="1" stop-color="#fff"/></linearGradient><radialGradient r="20.351" cy="-3.394" cx="34.463" id="B" xlink:href="#v"><stop offset="0" stop-color="#bfd9ff"/><stop offset="1" stop-color="#fff"/></radialGradient><linearGradient id="C" xlink:href="#v"><stop offset=".006" stop-color="#9c773f"/><stop offset="1" stop-color="#8c6b3b"/></linearGradient><linearGradient id="D" xlink:href="#v"><stop offset=".2" stop-color="#fff"/><stop offset="1" stop-color="#daddde"/></linearGradient><linearGradient id="E" xlink:href="#v"><stop offset="0"/><stop offset="1" stop-opacity="0"/></linearGradient><radialGradient xlink:href="#E" id="F" gradientTransform="matrix(1,0,0,0.197802,0,92.82166)" cx="63.912" cy="115.709" fx="63.912" fy="115.709" r="63.912"/><radialGradient id="G" cx="57.5" cy="-2.5" r="2" fx="57.5" fy="-1" xlink:href="#v"><stop offset="0" stop-color="#e3ad00"/><stop offset=".728" stop-color="#ffea00"/><stop offset="1" stop-color="#ba7c00"/></radialGradient><linearGradient id="H" x1="56.085" y1="-1.085" x2="58.914" y2="-3.914" xlink:href="#v"><stop offset="0" stop-color="#e3ad00"/><stop offset=".728" stop-color="#ffea00"/><stop offset="1" stop-color="#ba7c00"/></linearGradient><linearGradient y2="-.501" x2="68.5" y1="-20.501" x1="68.5" id="I" xlink:href="#v"><stop offset="0" stop-color="#db6a00"/><stop offset="1" stop-color="#803f00"/></linearGradient><linearGradient y2="-.5" x2="58.5" y1="-20.5" x1="58.5" id="J" xlink:href="#v"><stop offset="0" stop-color="#db6a00"/><stop offset="1" stop-color="#803f00"/></linearGradient><linearGradient y2="13.499" x2="68.5" y1="-6.501" x1="68.5" id="K" xlink:href="#v"><stop offset="0" stop-color="#ec7331"/><stop offset="1" stop-color="#803f00"/></linearGradient><linearGradient y2="13.5" x2="58.5" y1="-6.5" x1="58.5" id="L" xlink:href="#v"><stop offset="0" stop-color="#ec7331"/><stop offset="1" stop-color="#803f00"/></linearGradient><linearGradient id="M" x1="51.169" y1="-30.393" x2="84.262" y2="33.726" xlink:href="#v"><stop offset=".154" stop-color="#b3925d"/><stop offset="1" stop-color="#8f6b32"/></linearGradient><filter id="N"><feGaussianBlur stdDeviation="1"/></filter><linearGradient id="O" x1="15.5" y1="-28.5" x2="111.5" y2="-28.5" xlink:href="#v"><stop offset=".047" stop-color="#4e4e4a"/><stop offset=".196" stop-color="#8c8f89"/><stop offset=".645" stop-color="#a5a7a3"/><stop offset="1" stop-color="#53504b"/></linearGradient><linearGradient id="P" x1="58" y1="92.493" x2="58" y2="93.805" xlink:href="#v"><stop offset="0" stop-color="#fff"/><stop offset="1" stop-color="#ffeb55"/></linearGradient><linearGradient xlink:href="#C" id="Q" x1="102.666" y1="86" x2="78.666" y2="86"/><radialGradient xlink:href="#B" id="R" gradientTransform="matrix(0.67365,0,0,0.9091,22.4185,96.7105)" cx="106.307" r="20.35"/><linearGradient xlink:href="#C" id="S" x1="94" y1="74.333" x2="94" y2="116.333"/><linearGradient xlink:href="#C" id="T" x1="38.667" y1="86" x2="14.667" y2="86"/><radialGradient xlink:href="#B" id="U" gradientTransform="matrix(0.67365,0,0,0.9091,10.816225,96.7105)"/><linearGradient xlink:href="#C" id="V" x1="34" y1="74.333" x2="34" y2="116.333"/><linearGradient xlink:href="#A" id="W" x1="64.001" y1="120" x2="64.001" y2="116"/><linearGradient xlink:href="#A" id="X" x1="64.001" y1="116" x2="64.001" y2="112"/><linearGradient id="Y" x1="64" y1="109.498" x2="64" y2="49.722" xlink:href="#v"><stop offset="0" stop-color="#bf5e00"/><stop offset=".296" stop-color="#db6a00"/><stop offset=".556" stop-color="#803f00"/></linearGradient><linearGradient xlink:href="#D" id="Z" x1="64.001" y1="24.342" x2="64.001" y2="15.448"/><linearGradient xlink:href="#D" id="a" x1="64.001" y1="32.342" x2="64.001" y2="23.448"/><linearGradient xlink:href="#D" id="b" x1="64.001" y1="40.342" x2="64.001" y2="31.448"/><linearGradient xlink:href="#D" id="c" x1="64.001" y1="48.342" x2="64.001" y2="39.448"/><linearGradient xlink:href="#D" id="d" x1="64.001" y1="56.342" x2="64.001" y2="47.448"/><linearGradient xlink:href="#D" id="e" x1="64" y1="64.342" x2="64" y2="55.448"/><linearGradient xlink:href="#D" id="f" x1="64" y1="72.343" x2="64" y2="63.449"/><linearGradient xlink:href="#D" id="g" x1="64" y1="80.343" x2="64" y2="71.449"/><linearGradient xlink:href="#D" id="h" x1="64" y1="88.343" x2="64" y2="79.449"/><linearGradient xlink:href="#D" id="i" x1="64" y1="96.343" x2="64" y2="87.448"/><linearGradient xlink:href="#D" id="j" x1="64" y1="104.343" x2="64" y2="95.449"/><linearGradient xlink:href="#D" id="k" x1="64" y1="112.343" x2="64" y2="103.449"/><linearGradient id="l" x1="64" y1="116.109" x2="64" y2="9.378" xlink:href="#v"><stop offset="0" stop-color="#b9b9b1"/><stop offset="1" stop-color="#72776c"/></linearGradient><linearGradient id="m" x1="104" y1="22" x2="88" y2="22" xlink:href="#v"><stop offset="0" stop-color="#555753"/><stop offset="1" stop-color="#2e3436"/></linearGradient><linearGradient id="n" x1="90" y1="35.273" x2="90" y2="30.182" xlink:href="#v"><stop offset=".13" stop-color="#888a85"/><stop offset="1" stop-color="#888a85"/></linearGradient><linearGradient id="o" x1="102" y1="32.728" x2="102" y2="37.819" xlink:href="#v"><stop offset="0" stop-color="#babdb6"/><stop offset="1" stop-color="#888a85"/></linearGradient><linearGradient id="p" x1="99" y1="31" x2="91" y2="39" xlink:href="#v"><stop offset="0" stop-color="#fff"/><stop offset=".13" stop-color="#f6f6f5"/><stop offset=".834" stop-color="#888a85"/><stop offset=".917" stop-color="#555753"/></linearGradient><linearGradient xlink:href="#E" id="q" x1="57.5" y1="-4.5" x2="57.5" y2=".876"/><linearGradient xlink:href="#E" id="r" x1="64" y1="0" x2="64" y2="57"/><linearGradient xlink:href="#E" id="s" x1="68.242" y1="112" x2="68.242" y2="107.984"/><radialGradient id="t" cy="-86.202" fx="63.5" fy="-86.202" cx="63.5" r="106" xlink:href="#v"><stop offset="0" stop-color="#555753"/><stop offset=".645" stop-color="#2e3436"/><stop offset="1" stop-color="#babdb6"/></radialGradient><linearGradient id="u" x1="62.728" y1="108" x2="62.974" y2="114.652" cx="62.5" cy="17" r="10.056" xlink:href="#v"><stop offset="0" stop-color="#004d00"/><stop offset=".409" stop-color="#008c00"/></linearGradient><linearGradient id="v" gradientUnits="userSpaceOnUse"/></defs><path d="M 127.82442,115.70919 A 63.912209,12.641975 0 1 1 0,115.70919 A 63.912209,12.641975 0 1 1 127.82442,115.70919 z" transform="matrix(1.001374 0 0 .474609 -.000024 67.083334)" opacity=".1" fill="url(#F)"/><path transform="translate(.5 96.5)" d="M15.5 11.5h96v12h-96v-12z" fill="url(#O)"/><path d="M88 20h16v28H88z" fill="url(#p)"/><path d="M100 20h4v28h-4z" fill="url(#o)"/><path d="M88 20h4v28h-4z" fill="url(#n)"/><path d="M88 20h16v4H88z" fill="url(#m)"/><path d="M16 64v48h96V64L63.562 16 16 64z" fill="url(#l)"/><path d="M20 104h88v8H20z" fill="url(#k)"/><path d="M20 96h88v8H20z" fill="url(#j)"/><path d="M20 88h88v8H20z" fill="url(#i)"/><path d="M20 80h88v8H20z" fill="url(#h)"/><path d="M20 72h88v8H20z" fill="url(#g)"/><path d="M20 64h88v8H20z" fill="url(#f)"/><path d="M20 56h88v8H20z" fill="url(#e)"/><path d="M24.5 48h79v8h-79z" fill="url(#d)"/><path d="M32.5 40h63v8h-63z" fill="url(#c)"/><path d="M41 32h46v8H41z" fill="url(#b)"/><path d="M49 24h30v8H49z" fill="url(#a)"/><path d="M57 16h14v8H57z" fill="url(#Z)"/><path d="M52 72h24v40H52z" fill="url(#Y)"/><g transform="translate(.5 96.5)"><g filter="url(#N)"><path d="M51.5-24.5v40h1.655v-39H75.5v39h1v-40h-25z"/></g><path d="M47.5-28.5v44h4v-40h24v40h4v-44h-32z" fill="url(#M)"/><g opacity=".4"><linearGradient gradientUnits="userSpaceOnUse" x1="58.5" y1="-6.5" x2="58.5" y2="13.5"><stop offset="0" stop-color="#ec7331"/><stop offset="1" stop-color="#803f00"/></linearGradient><path d="M53.5-6.5v20h10v-20h-10zm9 1v17h-7v-17h7z" fill="url(#L)"/></g><g opacity=".4"><linearGradient gradientUnits="userSpaceOnUse" x1="68.5" y1="-6.501" x2="68.5" y2="13.499"><stop offset="0" stop-color="#ec7331"/><stop offset="1" stop-color="#803f00"/></linearGradient><path d="M63.5-6.5v20h10v-20h-10zm8 1v17h-7v-17h7z" fill="url(#K)"/></g></g><path d="M47 108h34v4H47z" opacity=".5" fill="url(#s)"/><path d="M50 112a4 4 0 0 1 4-4h20a4 4 0 1 1 0 8H54a4 4 0 0 1-4-4z" fill="url(#u)"/><path d="M46 112h36v4H46z" fill="url(#X)"/><path d="M44 116h40v4H44z" fill="url(#W)"/><path d="M24 72h20v28H24z" fill="url(#V)"/><path d="M28 76h12v20H28z" fill="url(#U)"/><path d="M24 84h16v4H24z" fill="url(#T)"/><path d="M84 72h20v28H84z" fill="url(#S)"/><path d="M88 76h12v20H88z" fill="url(#R)"/><path d="M88 84h16v4H88z" fill="url(#Q)"/><g transform="translate(.5 96.5)"><g opacity=".4"><linearGradient gradientUnits="userSpaceOnUse" x1="58.5" y1="-20.5" x2="58.5" y2="-.5"><stop offset="0" stop-color="#db6a00"/><stop offset="1" stop-color="#803f00"/></linearGradient><path d="M53.5-20.5v20h10v-20h-10zm9 1v17h-7v-17h7z" fill="url(#J)"/></g><g opacity=".4"><linearGradient gradientUnits="userSpaceOnUse" x1="68.5" y1="-20.501" x2="68.5" y2="-.501"><stop offset="0" stop-color="#db6a00"/><stop offset="1" stop-color="#803f00"/></linearGradient><path d="M63.5-20.5v20h10v-20h-10zm8 1v17h-7v-17h7z" fill="url(#I)"/></g></g><ellipse ry="2.688" rx="2" cy="94.688" cx="58" opacity=".5" fill="url(#q)"/><circle cx="58" cy="94" r="2" fill="url(#H)"/><circle cx="58" cy="94" r="1" fill="url(#G)"/><path d="M56.688 93.806c0 .724.59 0 1.312 0s1.312.724 1.312 0-.59-1.312-1.312-1.312-1.312.587-1.312 1.312z" fill="url(#P)"/><path d="M16 64l48-48 48 48v4H16v-4z" opacity=".3" fill="url(#r)"/><g transform="translate(.5 96.5)"><path d="M115.5-28.5l-52-52-52 52-4-4 56-56 56 56-4 4z" fill="url(#t)"/><g opacity=".6" filter="url(#N)"><path d="M59.5-80.5l-45 47 3.063 2.063L63.5-76.5l46.938 45.063 2.832-2.125-46.707-47-7.062.063z"/></g></g></svg>