<svg width="128" height="128" xmlns="http://www.w3.org/2000/svg" xmlns:xlink="http://www.w3.org/1999/xlink"><defs><linearGradient id="A" xlink:href="#v"><stop offset="0"/><stop stop-color="#909090" offset=".721"/><stop stop-color="#fff" offset="1"/></linearGradient><radialGradient id="B" cx="34.463" cy="-3.394" r="20.351" xlink:href="#v"><stop stop-color="#bfd9ff" offset="0"/><stop stop-color="#fff" offset="1"/></radialGradient><linearGradient id="C" xlink:href="#v"><stop stop-color="#9c773f" offset=".006"/><stop stop-color="#8c6b3b" offset="1"/></linearGradient><linearGradient id="D" xlink:href="#v"><stop stop-color="#fff" offset=".2"/><stop stop-color="#daddde" offset="1"/></linearGradient><linearGradient id="E" xlink:href="#v"><stop offset="0"/><stop stop-opacity="0" offset="1"/></linearGradient><radialGradient id="F" cx="63.912" cy="115.71" r="63.912" gradientTransform="matrix(1 0 0 .1978 0 92.822)" xlink:href="#E"/><radialGradient id="G" cx="57.5" cy="-2.5" r="2" fy="-1" xlink:href="#v"><stop stop-color="#e3ad00" offset="0"/><stop stop-color="#ffea00" offset=".728"/><stop stop-color="#ba7c00" offset="1"/></radialGradient><linearGradient id="H" x1="56.085" x2="58.914" y1="-1.085" y2="-3.914" xlink:href="#v"><stop stop-color="#e3ad00" offset="0"/><stop stop-color="#ffea00" offset=".728"/><stop stop-color="#ba7c00" offset="1"/></linearGradient><linearGradient id="I" x1="68.5" x2="68.5" y1="-20.501" y2="-.501" xlink:href="#v"><stop stop-color="#db6a00" offset="0"/><stop stop-color="#803f00" offset="1"/></linearGradient><linearGradient id="J" x1="58.5" x2="58.5" y1="-20.5" y2="-.5" xlink:href="#v"><stop stop-color="#db6a00" offset="0"/><stop stop-color="#803f00" offset="1"/></linearGradient><linearGradient id="K" x1="68.5" x2="68.5" y1="-6.501" y2="13.499" xlink:href="#v"><stop stop-color="#ec7331" offset="0"/><stop stop-color="#803f00" offset="1"/></linearGradient><linearGradient id="L" x1="58.5" x2="58.5" y1="-6.5" y2="13.5" xlink:href="#v"><stop stop-color="#ec7331" offset="0"/><stop stop-color="#803f00" offset="1"/></linearGradient><linearGradient id="M" x1="51.169" x2="84.262" y1="-30.393" y2="33.726" xlink:href="#v"><stop stop-color="#b3925d" offset=".154"/><stop stop-color="#8f6b32" offset="1"/></linearGradient><filter id="N"><feGaussianBlur stdDeviation="1"/></filter><linearGradient id="O" x1="15.5" x2="111.5" y1="-28.5" y2="-28.5" xlink:href="#v"><stop stop-color="#4e4e4a" offset=".047"/><stop stop-color="#8c8f89" offset=".196"/><stop stop-color="#a5a7a3" offset=".645"/><stop stop-color="#53504b" offset="1"/></linearGradient><linearGradient id="P" x1="58" x2="58" y1="92.493" y2="93.805" xlink:href="#v"><stop stop-color="#fff" offset="0"/><stop stop-color="#ffeb55" offset="1"/></linearGradient><linearGradient id="Q" x1="102.67" x2="78.666" y1="86" y2="86" xlink:href="#C"/><radialGradient id="R" cx="106.31" r="20.35" gradientTransform="matrix(.67365 0 0 .9091 22.418 96.71)" xlink:href="#B"/><linearGradient id="S" x1="94" x2="94" y1="74.333" y2="116.33" xlink:href="#C"/><linearGradient id="T" x1="38.667" x2="14.667" y1="86" y2="86" xlink:href="#C"/><radialGradient id="U" gradientTransform="matrix(.67365 0 0 .9091 10.816 96.71)" xlink:href="#B"/><linearGradient id="V" x1="34" x2="34" y1="74.333" y2="116.33" xlink:href="#C"/><linearGradient id="W" x1="64.001" x2="64.001" y1="120" y2="116" xlink:href="#A"/><linearGradient id="X" x1="64.001" x2="64.001" y1="116" y2="112" xlink:href="#A"/><linearGradient id="Y" x1="64" x2="64" y1="109.5" y2="49.722" xlink:href="#v"><stop stop-color="#bf5e00" offset="0"/><stop stop-color="#db6a00" offset=".296"/><stop stop-color="#803f00" offset=".556"/></linearGradient><linearGradient id="Z" x1="64.001" x2="64.001" y1="24.342" y2="15.448" xlink:href="#D"/><linearGradient id="a" x1="64.001" x2="64.001" y1="32.342" y2="23.448" xlink:href="#D"/><linearGradient id="b" x1="64.001" x2="64.001" y1="40.342" y2="31.448" xlink:href="#D"/><linearGradient id="c" x1="64.001" x2="64.001" y1="48.342" y2="39.448" xlink:href="#D"/><linearGradient id="d" x1="64.001" x2="64.001" y1="56.342" y2="47.448" xlink:href="#D"/><linearGradient id="e" x1="64" x2="64" y1="64.342" y2="55.448" xlink:href="#D"/><linearGradient id="f" x1="64" x2="64" y1="72.343" y2="63.449" xlink:href="#D"/><linearGradient id="g" x1="64" x2="64" y1="80.343" y2="71.449" xlink:href="#D"/><linearGradient id="h" x1="64" x2="64" y1="88.343" y2="79.449" xlink:href="#D"/><linearGradient id="i" x1="64" x2="64" y1="96.343" y2="87.448" xlink:href="#D"/><linearGradient id="j" x1="64" x2="64" y1="104.34" y2="95.449" xlink:href="#D"/><linearGradient id="k" x1="64" x2="64" y1="112.34" y2="103.45" xlink:href="#D"/><linearGradient id="l" x1="64" x2="64" y1="116.11" y2="9.378" xlink:href="#v"><stop stop-color="#b9b9b1" offset="0"/><stop stop-color="#72776c" offset="1"/></linearGradient><linearGradient id="m" x1="104" x2="88" y1="22" y2="22" xlink:href="#v"><stop stop-color="#555753" offset="0"/><stop stop-color="#2e3436" offset="1"/></linearGradient><linearGradient id="n" x1="90" x2="90" y1="35.273" y2="30.182" xlink:href="#v"><stop stop-color="#888a85" offset=".13"/><stop stop-color="#888a85" offset="1"/></linearGradient><linearGradient id="o" x1="102" x2="102" y1="32.728" y2="37.819" xlink:href="#v"><stop stop-color="#babdb6" offset="0"/><stop stop-color="#888a85" offset="1"/></linearGradient><linearGradient id="p" x1="99" x2="91" y1="31" y2="39" xlink:href="#v"><stop stop-color="#fff" offset="0"/><stop stop-color="#f6f6f5" offset=".13"/><stop stop-color="#888a85" offset=".834"/><stop stop-color="#555753" offset=".917"/></linearGradient><linearGradient id="q" x1="57.5" x2="57.5" y1="-4.5" y2=".876" xlink:href="#E"/><linearGradient id="r" x1="64" x2="64" y2="57" xlink:href="#E"/><linearGradient id="s" x1="68.242" x2="68.242" y1="112" y2="107.98" xlink:href="#E"/><radialGradient id="t" cx="63.5" cy="-86.202" r="106" xlink:href="#v"><stop stop-color="#555753" offset="0"/><stop stop-color="#2e3436" offset=".645"/><stop stop-color="#babdb6" offset="1"/></radialGradient><linearGradient id="u" x1="62.728" x2="62.974" y1="108" y2="114.65" cx="62.5" cy="17" r="10.056" xlink:href="#v"><stop stop-color="#004d00" offset="0"/><stop stop-color="#008c00" offset=".409"/></linearGradient><linearGradient id="v" gradientUnits="userSpaceOnUse"/></defs><path transform="matrix(1.0014 0 0 .47461 -2.4e-5 67.083)" d="m127.82 115.71a63.912 12.642 0 1 1-127.82 0 63.912 12.642 0 1 1 127.82 0z" fill="url(#F)" opacity=".1"/><path transform="translate(.5 96.5)" d="m15.5 11.5h96v12h-96v-12z" fill="url(#O)"/><path d="M88 20h16v28H88z" fill="url(#p)"/><path d="m100 20h4v28h-4z" fill="url(#o)"/><path d="m88 20h4v28h-4z" fill="url(#n)"/><path d="M88 20h16v4H88z" fill="url(#m)"/><path d="M16 64v48h96V64L63.562 16 16 64z" fill="url(#l)"/><path d="M20 104h88v8H20z" fill="url(#k)"/><path d="M20 96h88v8H20z" fill="url(#j)"/><path d="M20 88h88v8H20z" fill="url(#i)"/><path d="M20 80h88v8H20z" fill="url(#h)"/><path d="M20 72h88v8H20z" fill="url(#g)"/><path d="M20 64h88v8H20z" fill="url(#f)"/><path d="M20 56h88v8H20z" fill="url(#e)"/><path d="m24.5 48h79v8h-79z" fill="url(#d)"/><path d="m32.5 40h63v8h-63z" fill="url(#c)"/><path d="M41 32h46v8H41z" fill="url(#b)"/><path d="M49 24h30v8H49z" fill="url(#a)"/><path d="M57 16h14v8H57z" fill="url(#Z)"/><path d="M52 72h24v40H52z" fill="url(#Y)"/><g transform="translate(.5 96.5)"><g filter="url(#N)"><path d="M51.5-24.5v40h1.655v-39H75.5v39h1v-40h-25z"/></g><path d="m47.5-28.5v44h4v-40h24v40h4v-44h-32z" fill="url(#M)"/><g opacity=".4"><linearGradient x1="58.5" x2="58.5" y1="-6.5" y2="13.5" gradientUnits="userSpaceOnUse"><stop stop-color="#ec7331" offset="0"/><stop stop-color="#803f00" offset="1"/></linearGradient><path d="m53.5-6.5v20h10v-20h-10zm9 1v17h-7v-17h7z" fill="url(#L)"/><linearGradient x1="68.5" x2="68.5" y1="-6.501" y2="13.499" gradientUnits="userSpaceOnUse"><stop stop-color="#ec7331" offset="0"/><stop stop-color="#803f00" offset="1"/></linearGradient><path d="m63.5-6.5v20h10v-20h-10zm8 1v17h-7v-17h7z" fill="url(#K)"/></g></g><path d="M47 108h34v4H47z" fill="url(#s)" opacity=".5"/><path d="M50 112a4 4 0 0 1 4-4h20a4 4 0 1 1 0 8H54a4 4 0 0 1-4-4z" fill="url(#u)"/><path d="M46 112h36v4H46z" fill="url(#X)"/><path d="M44 116h40v4H44z" fill="url(#W)"/><path d="M24 72h20v28H24z" fill="url(#V)"/><path d="M28 76h12v20H28z" fill="url(#U)"/><path d="M24 84h16v4H24z" fill="url(#T)"/><path d="M84 72h20v28H84z" fill="url(#S)"/><path d="M88 76h12v20H88z" fill="url(#R)"/><path d="M88 84h16v4H88z" fill="url(#Q)"/><g transform="translate(.5 96.5)"><g opacity=".4"><linearGradient x1="58.5" x2="58.5" y1="-20.5" y2="-.5" gradientUnits="userSpaceOnUse"><stop stop-color="#db6a00" offset="0"/><stop stop-color="#803f00" offset="1"/></linearGradient><path d="m53.5-20.5v20h10v-20h-10zm9 1v17h-7v-17h7z" fill="url(#J)"/><linearGradient x1="68.5" x2="68.5" y1="-20.501" y2="-.501" gradientUnits="userSpaceOnUse"><stop stop-color="#db6a00" offset="0"/><stop stop-color="#803f00" offset="1"/></linearGradient><path d="m63.5-20.5v20h10v-20h-10zm8 1v17h-7v-17h7z" fill="url(#I)"/></g></g><ellipse cx="58" cy="94.688" rx="2" ry="2.688" fill="url(#q)" opacity=".5"/><circle cx="58" cy="94" r="2" fill="url(#H)"/><circle cx="58" cy="94" r="1" fill="url(#G)"/><path d="M56.688 93.806c0 .724.59 0 1.312 0s1.312.724 1.312 0-.59-1.312-1.312-1.312-1.312.587-1.312 1.312z" fill="url(#P)"/><path d="M16 64l48-48 48 48v4H16v-4z" fill="url(#r)" opacity=".3"/><g transform="translate(.5 96.5)"><path d="m115.5-28.5-52-52-52 52-4-4 56-56 56 56-4 4z" fill="url(#t)"/><g filter="url(#N)" opacity=".6"><path d="M59.5-80.5l-45 47 3.063 2.063L63.5-76.5l46.938 45.063 2.832-2.125-46.707-47-7.062.063z"/></g></g></svg>
