<svg xmlns="http://www.w3.org/2000/svg" xmlns:xlink="http://www.w3.org/1999/xlink" width="128" height="128"><defs><linearGradient id="A" xlink:href="#X"><stop offset="0"/><stop offset="1" stop-opacity="0"/></linearGradient><linearGradient id="B" xlink:href="#X"><stop offset="0" stop-color="#63e9ff"/><stop offset="1" stop-color="#fff" stop-opacity="0"/></linearGradient><linearGradient id="C" xlink:href="#X"><stop offset="0" stop-color="#fff"/><stop offset="1" stop-color="#fff" stop-opacity="0"/></linearGradient><linearGradient id="D" xlink:href="#X"><stop offset="0" stop-color="#cdeeff"/><stop offset="1" stop-color="#d2e8ed" stop-opacity="0"/></linearGradient><radialGradient id="E" gradientTransform="matrix(1,0,0,1.1383929,0,-10.517857)" cx="172" cy="76" fx="188.882" fy="121.442" r="56" xlink:href="#X"><stop offset="0" stop-color="#9fc1f2"/><stop offset=".5" stop-color="#587eb5"/><stop offset="1" stop-color="#0c2a58"/></radialGradient><linearGradient xlink:href="#C" id="F" x1="73.743" y1="15.337" x2="78.939" y2="16.751" spreadMethod="reflect"/><filter x="-.102" width="1.204" y="-.125" height="1.25" id="G"><feGaussianBlur stdDeviation=".447"/></filter><linearGradient xlink:href="#B" id="H" spreadMethod="reflect" x1="74.75" y1="14.276" x2="78.939" y2="16.751"/><linearGradient id="I" x1="41.5" y1="123.086" x2="131.75" y2="-14.829" xlink:href="#X"><stop offset="0" stop-color="#081e3e"/><stop offset="1" stop-color="#387de4"/></linearGradient><filter x="-.116" width="1.231" y="-.128" height="1.255" id="J"><feGaussianBlur stdDeviation=".325"/></filter><radialGradient xlink:href="#A" id="K" cx="72.021" cy="66.345" fx="72.021" fy="66.345" r="60" gradientTransform="matrix(-0.5816285,0.01767767,0.026986249,0.8878982,96.078154,5.9419094)"/><linearGradient xlink:href="#D" id="L" spreadMethod="reflect" x1="115.166" y1="44.874" x2="118.498" y2="47.884"/><linearGradient xlink:href="#B" id="M" x1="276.172" y1="123.759" x2="270.981" y2="65.448"/><linearGradient xlink:href="#D" id="N" x1="47.468" y1="16.139" x2="48.718" y2="85.428"/><linearGradient xlink:href="#C" id="O" x1="87.256" y1="-.5" x2="116.506" y2="106.289"/><linearGradient xlink:href="#C" id="P" x1="196.256" y1="63" x2="52.006" y2="66.086"/><linearGradient xlink:href="#C" id="Q" spreadMethod="reflect" x1="115.166" y1="44.874" x2="118.498" y2="47.884"/><radialGradient xlink:href="#A" id="R" gradientTransform="matrix(-0.2586607,-0.5212474,-0.8274344,0.4106011,163.53945,50.055595)" cx="-16.668" cy="86.827" fx="-16.668" fy="86.827" r="60"/><filter id="S"><feGaussianBlur stdDeviation=".565"/></filter><path id="T" d="M54.78 12.165l67.667 48.982c.983.705 1.552 1.75 1.552 2.852s-.57 2.147-1.552 2.852l-68.354 48.973C49.95 118.456 44 118.828 44 113V88H12c-2.382.001-4-1.95-4-4V44c-.001-2.05 1.618-4 4-4h32V16c0-3.89 7.02-6.553 10.78-3.835z"/><path id="U" d="M72.5 11.063c-1.077.065-2.114.377-3 .938l2.375 7.625L80 16.47V16c0-2.918-3.94-5.153-7.5-4.937z"/><path id="V" d="M115.65 40c-.34 1.155-2.562 6.125-2.562 6.125l6.75-.03V44c.001-2.05-1.618-4-4-4h-.187z"/><path id="W" d="M50.97 16.117c-.873.076-1.598.412-2.125.938-.255.255-.485.532-.625.875-.004.01.004.023 0 .03a2.93 2.93 0 0 0-.156.531c-.002.01.002.02 0 .03-.034.187-.062.4-.062.594v24.625h.03l1.1-24.744c.372-2.274 3.3-2.184 5.306-.975l54.85 38.02c-13.526 4.923-31.227 8.423-48.975 10.044 18.304-1.447 35.04-4.726 49.063-9.406l.03.03.97-.312-.03-.03-55.906-39.344c-1.058-.61-2.075-.866-3-.875.022-.008.04-.023.063-.03-.177-.004-.362-.015-.53 0zM12 43.96v21.156l.938-20.125 35.063-1H13v-.03h-1z"/><linearGradient id="X" gradientUnits="userSpaceOnUse"/></defs><g fill-rule="evenodd"><use xlink:href="#T" fill="url(#I)"/><use xlink:href="#T" opacity=".255" fill="url(#R)"/><use xlink:href="#U" transform="matrix(-1 0 0 1 124 0)" fill="url(#F)" filter="url(#G)"/><use xlink:href="#V" transform="matrix(-1 0 0 -1 128 128.125)" opacity=".614" fill="url(#L)" filter="url(#J)"/><use xlink:href="#T" fill="url(#K)"/><use xlink:href="#U" transform="matrix(-.831641 0 0 -1 110.5313 128.78415)" opacity=".704" fill="url(#H)" filter="url(#G)"/><use xlink:href="#V" transform="matrix(.028382 -.999597 .999597 .028382 -35.118048 158.48653)" opacity=".75" fill="url(#Q)" filter="url(#J)"/><path d="M181.55 21.465l-64.045 52.342c-1.386 1.6-1.164 3.02-.102 4.254L180 129.08c4 3.582 8 3.773 8 0V99.23h36V52.77h-36V23.93c0-3.19-3.153-4.675-6.45-2.464z" fill="url(#E)" transform="matrix(-1 0 0 .860987 236 -1.434978)"/></g><g transform="matrix(-1 0 0 .860987 333.40303 -1.434978)" fill="none" filter="url(#S)"><path d="M278.55 21.465l-64.445 52.342c-1.386 1.6-1.164 3.02-.102 4.254L277 129.08c4 3.582 8 3.773 8 0V99.23h36V52.77h-36V23.93c0-3.19-3.153-4.675-6.45-2.464z" stroke="url(#M)" stroke-linejoin="round" stroke-width="1.078"/></g><g fill-rule="evenodd"><path d="M50.97 16.156c-1.73.15-2.97 1.283-2.97 3V44H12v21.156C21.94 66.36 28.452 67 39.313 67c26.942 0 51.673-3.972 71.063-10.594L54.438 17.03c-1.236-.714-2.432-.966-3.47-.875z" fill="url(#N)"/><use xlink:href="#W" fill="url(#O)"/><use xlink:href="#W" fill="url(#P)"/></g></svg>