<svg xmlns="http://www.w3.org/2000/svg" xmlns:xlink="http://www.w3.org/1999/xlink" width="128" height="128"><defs><linearGradient id="A" xlink:href="#V"><stop offset="0"/><stop offset="1" stop-opacity="0"/></linearGradient><linearGradient id="B" xlink:href="#V"><stop offset="0" stop-color="#63e9ff"/><stop offset="1" stop-color="#fff" stop-opacity="0"/></linearGradient><linearGradient id="C" xlink:href="#V"><stop offset="0" stop-color="#fff"/><stop offset="1" stop-color="#fff" stop-opacity="0"/></linearGradient><linearGradient id="D" xlink:href="#V"><stop offset="0" stop-color="#cdeeff"/><stop offset="1" stop-color="#d2e8ed" stop-opacity="0"/></linearGradient><linearGradient xlink:href="#C" id="E" x1="77.743" y1="15.337" x2="82.939" y2="16.751" spreadMethod="reflect"/><filter x="-.102" width="1.204" y="-.125" height="1.25" id="F"><feGaussianBlur stdDeviation=".447"/></filter><linearGradient xlink:href="#B" id="G" spreadMethod="reflect" x1="74.75" y1="14.276" x2="78.939" y2="16.751"/><linearGradient id="H" x1="86.5" y1="105.253" x2="-3.75" y2="3.003" xlink:href="#V"><stop offset="0" stop-color="#081e3e"/><stop offset="1" stop-color="#387de4"/></linearGradient><filter x="-.116" width="1.231" y="-.128" height="1.255" id="I"><feGaussianBlur stdDeviation=".325"/></filter><radialGradient xlink:href="#A" id="J" cx="72.021" cy="66.345" fx="72.021" fy="66.345" r="60" gradientTransform="matrix(0.5816285,0.01767767,-0.026986249,0.8878982,31.921846,5.9419094)"/><linearGradient xlink:href="#D" id="K" spreadMethod="reflect" x1="115.166" y1="44.874" x2="118.498" y2="47.884"/><linearGradient xlink:href="#B" id="L" x1="276.172" y1="123.759" x2="270.981" y2="65.448"/><linearGradient xlink:href="#C" id="M" spreadMethod="reflect" x1="115.166" y1="44.874" x2="118.498" y2="47.884"/><radialGradient xlink:href="#A" id="N" gradientTransform="matrix(0.2586607,-0.5212474,0.8274344,0.4106011,-35.53945,50.055595)" cx="-16.668" cy="86.827" fx="-16.668" fy="86.827" r="60"/><filter id="O"><feGaussianBlur stdDeviation=".565"/></filter><radialGradient id="P" gradientTransform="matrix(1,0,0,1.1383929,0,-10.517857)" cx="180.331" cy="95.705" fx="180.331" fy="95.705" r="56" xlink:href="#V"><stop offset="0" stop-color="#9fc1f2"/><stop offset=".5" stop-color="#587eb5"/><stop offset="1" stop-color="#0c2a58"/></radialGradient><linearGradient xlink:href="#D" id="Q" x1="86.547" y1="16.154" x2="88.733" y2="85.672"/><linearGradient xlink:href="#C" id="R" x1="128" y1="83.912" x2="83.548" y2="16.188"/><linearGradient xlink:href="#C" id="S" x1="88.374" y1="19.503" x2="84.086" y2="64.535"/><path id="T" d="M73.22 12.165L5.552 61.148C4.57 61.853 4 62.898 4 64s.57 2.147 1.552 2.852l68.354 48.973C78.05 118.456 84 118.828 84 113V88h32c2.382.001 4-1.95 4-4V44c.001-2.05-1.618-4-4-4H84V16c0-3.89-7.02-6.553-10.78-3.835z"/><path id="U" d="M115.65 40c-.34 1.155-2.562 6.125-2.562 6.125l6.75-.03V44c.001-2.05-1.618-4-4-4h-.187z"/><linearGradient id="V" gradientUnits="userSpaceOnUse"/></defs><g fill-rule="evenodd"><use xlink:href="#T" fill="url(#H)"/><use xlink:href="#T" opacity=".255" fill="url(#N)"/><path d="M76.5 11.063c-1.077.065-2.114.377-3 .938l2.375 7.625L84 16.47V16c0-2.918-3.94-5.153-7.5-4.937z" fill="url(#E)" filter="url(#F)"/><use xlink:href="#U" transform="matrix(1 0 0 -1 0 128.125)" opacity=".614" fill="url(#K)" filter="url(#I)"/><use xlink:href="#T" fill="url(#J)"/><path d="M72.5 11.063c-1.077.065-2.114.377-3 .938l2.375 7.625L80 16.47V16c0-2.918-3.94-5.153-7.5-4.937z" transform="matrix(.831641 0 0 -1 17.4687 128.78415)" opacity=".704" fill="url(#G)" filter="url(#F)"/><use xlink:href="#U" transform="matrix(-.028382 -.999597 -.999597 .028382 163.11805 158.48653)" opacity=".75" fill="url(#M)" filter="url(#I)"/><path d="M181.55 21.465l-64.045 52.342c-1.386 1.6-1.164 3.02-.102 4.254L180 129.08c4 3.582 8 3.773 8 0V99.23h36V52.77h-36V23.93c0-3.19-3.153-4.675-6.45-2.464z" transform="matrix(1 0 0 .860987 -108 -1.434978)" fill="url(#P)"/></g><g transform="matrix(1 0 0 .860987 -205.20303 -1.634978)" fill="none" filter="url(#O)"><path d="M278.55 21.465l-64.445 52.342c-1.386 1.6-1.164 3.02-.102 4.254L277 129.08c4 3.582 8 3.773 8 0V99.23h36V52.77h-36V23.93c0-3.19-3.153-4.675-6.45-2.464z" stroke="url(#L)" stroke-linejoin="round" stroke-width="1.078"/></g><path d="M76.5 16.156c-.9.026-1.907.28-2.937.875L9.5 62.125c-1.386 1.386-1.155 2.595-.094 3.656l1.406 1c13.962 3.262 29.518 5.094 45.938 5.094 21.858 0 42.197-3.225 59.25-8.78V44H80V19.156c0-1.89-1.497-3.057-3.5-3z" fill="url(#Q)"/><path d="M76.5 16.128c-.9.026-1.907.28-2.937.875L9.5 62.097c-.88.88-1.1 1.692-.875 2.438.118-.452.38-.942.875-1.437l64.063-45.094c1.03-.595 2.027-.85 2.938-.875 2.003-.057 3.5 1.11 3.5 3v-1c0-1.89-1.497-3.057-3.5-3zM80 43.972v1h36v-1H80z" fill="url(#S)"/><path d="M78.06 16.188c.593.52.938 1.27.938 2.188V43.22l1-24.062c0-1.712-.216-2.816-1.937-2.97zM116 44l-1.002 18.313c-17.053 5.556-37.392 8.78-59.25 8.78-15.913 0-31-1.737-44.625-4.812l.688.5c13.962 3.262 29.518 5.094 45.938 5.094 21.858 0 41.197-3.225 58.25-8.78L116 44z" fill="url(#R)"/></svg>