<svg width="128" height="128" xmlns="http://www.w3.org/2000/svg" xmlns:xlink="http://www.w3.org/1999/xlink"><defs><linearGradient id="A" xlink:href="#V"><stop offset="0"/><stop stop-opacity="0" offset="1"/></linearGradient><linearGradient id="B" xlink:href="#V"><stop stop-color="#63e9ff" offset="0"/><stop stop-color="#fff" stop-opacity="0" offset="1"/></linearGradient><linearGradient id="C" xlink:href="#V"><stop stop-color="#fff" offset="0"/><stop stop-color="#fff" stop-opacity="0" offset="1"/></linearGradient><linearGradient id="D" xlink:href="#V"><stop stop-color="#cdeeff" offset="0"/><stop stop-color="#d2e8ed" stop-opacity="0" offset="1"/></linearGradient><linearGradient id="E" x1="77.743" x2="82.939" y1="15.337" y2="16.751" spreadMethod="reflect" xlink:href="#C"/><filter id="F" x="-.102" y="-.125" width="1.204" height="1.25"><feGaussianBlur stdDeviation=".447"/></filter><linearGradient id="G" x1="74.75" x2="78.939" y1="14.276" y2="16.751" spreadMethod="reflect" xlink:href="#B"/><linearGradient id="H" x1="86.5" x2="-3.75" y1="105.25" y2="3.003" xlink:href="#V"><stop stop-color="#081e3e" offset="0"/><stop stop-color="#387de4" offset="1"/></linearGradient><filter id="I" x="-.116" y="-.128" width="1.231" height="1.255"><feGaussianBlur stdDeviation=".325"/></filter><radialGradient id="J" cx="72.021" cy="66.345" r="60" gradientTransform="matrix(.58163 .017678 -.026986 .8879 31.922 5.9419)" xlink:href="#A"/><linearGradient id="K" x1="115.17" x2="118.5" y1="44.874" y2="47.884" spreadMethod="reflect" xlink:href="#D"/><linearGradient id="L" x1="276.17" x2="270.98" y1="123.76" y2="65.448" xlink:href="#B"/><linearGradient id="M" x1="115.17" x2="118.5" y1="44.874" y2="47.884" spreadMethod="reflect" xlink:href="#C"/><radialGradient id="N" cx="-16.668" cy="86.827" r="60" gradientTransform="matrix(.25866 -.52125 .82743 .4106 -35.539 50.056)" xlink:href="#A"/><filter id="O"><feGaussianBlur stdDeviation=".565"/></filter><radialGradient id="P" cx="180.33" cy="95.705" r="56" gradientTransform="matrix(1 0 0 1.1384 0 -10.518)" xlink:href="#V"><stop stop-color="#9fc1f2" offset="0"/><stop stop-color="#587eb5" offset=".5"/><stop stop-color="#0c2a58" offset="1"/></radialGradient><linearGradient id="Q" x1="86.547" x2="88.733" y1="16.154" y2="85.672" xlink:href="#D"/><linearGradient id="R" x1="128" x2="83.548" y1="83.912" y2="16.188" xlink:href="#C"/><linearGradient id="S" x1="88.374" x2="84.086" y1="19.503" y2="64.535" xlink:href="#C"/><path id="T" d="M73.22 12.165L5.552 61.148C4.57 61.853 4 62.898 4 64s.57 2.147 1.552 2.852l68.354 48.973C78.05 118.456 84 118.828 84 113V88h32c2.382.001 4-1.95 4-4V44c.001-2.05-1.618-4-4-4H84V16c0-3.89-7.02-6.553-10.78-3.835z"/><path id="U" d="M115.65 40c-.34 1.155-2.562 6.125-2.562 6.125l6.75-.03V44c.001-2.05-1.618-4-4-4h-.187z"/><linearGradient id="V" gradientUnits="userSpaceOnUse"/></defs><g fill-rule="evenodd"><use fill="url(#H)" xlink:href="#T"/><use fill="url(#N)" opacity=".255" xlink:href="#T"/><path d="M76.5 11.063c-1.077.065-2.114.377-3 .938l2.375 7.625L84 16.47V16c0-2.918-3.94-5.153-7.5-4.937z" fill="url(#E)" filter="url(#F)"/><use transform="matrix(1 0 0 -1 0 128.12)" fill="url(#K)" filter="url(#I)" opacity=".614" xlink:href="#U"/><use fill="url(#J)" xlink:href="#T"/><path transform="matrix(.83164 0 0 -1 17.469 128.78)" d="M72.5 11.063c-1.077.065-2.114.377-3 .938l2.375 7.625L80 16.47V16c0-2.918-3.94-5.153-7.5-4.937z" fill="url(#G)" filter="url(#F)" opacity=".704"/><use transform="matrix(-.028382 -.9996 -.9996 .028382 163.12 158.49)" fill="url(#M)" filter="url(#I)" opacity=".75" xlink:href="#U"/><path transform="matrix(1 0 0 .86099 -108 -1.435)" d="M181.55 21.465l-64.045 52.342c-1.386 1.6-1.164 3.02-.102 4.254L180 129.08c4 3.582 8 3.773 8 0V99.23h36V52.77h-36V23.93c0-3.19-3.153-4.675-6.45-2.464z" fill="url(#P)"/></g><g transform="matrix(1 0 0 .86099 -205.2 -1.635)" fill="none" filter="url(#O)"><path d="M278.55 21.465l-64.445 52.342c-1.386 1.6-1.164 3.02-.102 4.254L277 129.08c4 3.582 8 3.773 8 0V99.23h36V52.77h-36V23.93c0-3.19-3.153-4.675-6.45-2.464z" stroke="url(#L)" stroke-linejoin="round" stroke-width="1.078"/></g><path d="M76.5 16.156c-.9.026-1.907.28-2.937.875L9.5 62.125c-1.386 1.386-1.155 2.595-.094 3.656l1.406 1c13.962 3.262 29.518 5.094 45.938 5.094 21.858 0 42.197-3.225 59.25-8.78V44H80V19.156c0-1.89-1.497-3.057-3.5-3z" fill="url(#Q)"/><path d="M76.5 16.128c-.9.026-1.907.28-2.937.875L9.5 62.097c-.88.88-1.1 1.692-.875 2.438.118-.452.38-.942.875-1.437l64.063-45.094c1.03-.595 2.027-.85 2.938-.875 2.003-.057 3.5 1.11 3.5 3v-1c0-1.89-1.497-3.057-3.5-3zM80 43.972v1h36v-1H80z" fill="url(#S)"/><path d="M78.06 16.188c.593.52.938 1.27.938 2.188V43.22l1-24.062c0-1.712-.216-2.816-1.937-2.97zM116 44l-1.002 18.313c-17.053 5.556-37.392 8.78-59.25 8.78-15.913 0-31-1.737-44.625-4.812l.688.5c13.962 3.262 29.518 5.094 45.938 5.094 21.858 0 41.197-3.225 58.25-8.78L116 44z" fill="url(#R)"/></svg>
