<svg xmlns="http://www.w3.org/2000/svg" xmlns:xlink="http://www.w3.org/1999/xlink" width="128" height="128"><defs><linearGradient id="A" xlink:href="#l"><stop offset="0"/><stop offset="1" stop-opacity="0"/></linearGradient><linearGradient id="B" xlink:href="#l"><stop offset="0" stop-color="#63e9ff"/><stop offset="1" stop-color="#fff" stop-opacity="0"/></linearGradient><linearGradient id="C" xlink:href="#l"><stop offset="0" stop-color="#cdeeff"/><stop offset="1" stop-color="#d2e8ed" stop-opacity="0"/></linearGradient><linearGradient xlink:href="#B" id="D" x1="77.743" y1="15.337" x2="82.939" y2="16.751" spreadMethod="reflect"/><filter x="-.102" width="1.204" y="-.125" height="1.25" id="E"><feGaussianBlur stdDeviation=".447"/></filter><linearGradient xlink:href="#B" id="F" spreadMethod="reflect" x1="74.75" y1="14.276" x2="78.939" y2="16.751"/><linearGradient xlink:href="#M" id="G" x1="22.71" y1="106.846" x2="124.96" y2="39.935"/><filter x="-.116" width="1.231" y="-.128" height="1.255" id="H"><feGaussianBlur stdDeviation=".325"/></filter><radialGradient xlink:href="#A" id="I" cx="79.407" cy="56.848" fx="79.407" fy="56.848" r="60" gradientTransform="matrix(-0.01767767,0.5816285,-0.8878982,-0.026986249,122.02118,63.93759)"/><linearGradient xlink:href="#B" id="J" spreadMethod="reflect" x1="115.166" y1="44.874" x2="118.498" y2="47.884"/><linearGradient xlink:href="#B" id="K" x1="310.634" y1="59.981" x2="262.271" y2="60.61"/><radialGradient xlink:href="#A" id="L" gradientTransform="matrix(0.5212474,0.2586607,-0.4106011,0.8274344,77.907487,-3.523706)" cx="-16.668" cy="86.827" fx="-16.668" fy="86.827" r="60"/><linearGradient id="M" xlink:href="#l"><stop offset="0" stop-color="#081e3e"/><stop offset="1" stop-color="#387de4"/></linearGradient><linearGradient id="N" xlink:href="#l"><stop offset="0" stop-color="#9fc1f2"/><stop offset=".5" stop-color="#587eb5"/><stop offset="1" stop-color="#0c2a58"/></linearGradient><filter id="O"><feGaussianBlur stdDeviation=".565"/></filter><radialGradient xlink:href="#N" id="P" gradientTransform="matrix(1,0,0,1.1383929,0,-10.517857)" cx="197.737" cy="76.11" fx="197.737" fy="76.11" r="56"/><linearGradient id="Q" x1="63.933" y1="39.567" x2="66.207" y2="39.567" spreadMethod="reflect" xlink:href="#l"><stop offset="0" stop-color="#fff"/><stop offset="1" stop-color="#fff" stop-opacity="0"/></linearGradient><filter id="R" x="-.101" width="1.201" y="-.077" height="1.154"><feGaussianBlur stdDeviation=".199"/></filter><linearGradient xlink:href="#C" id="S" x1="84.481" y1="34.01" x2="85.488" y2="120.884"/><linearGradient id="T" x1="84.28" y1="34.11" x2="85.822" y2="98.222" xlink:href="#l"><stop offset="0" stop-color="#fff"/><stop offset="1" stop-color="#fff" stop-opacity="0"/></linearGradient><linearGradient id="U" x1="103.564" y1="117.615" x2="86.897" y2="81.084" xlink:href="#l"><stop offset="0" stop-color="#fff"/><stop offset="1" stop-color="#fff" stop-opacity="0"/></linearGradient><filter id="V"><feGaussianBlur stdDeviation=".168"/></filter><radialGradient r="6" fy="70.37" fx="17.314" cy="70.37" cx="17.314" gradientTransform="matrix(0.5405358,1.1657396e-7,-1.600384e-7,1.2019727,8.6409226,-12.089524)" id="W" xlink:href="#f"/><radialGradient gradientTransform="matrix(0.1242527,1.8509925e-7,-0.0000011212016,1.3333333,15.84871,-21.333337)" r="6" fy="70" fx="17.314" cy="70" cx="17.314" id="X" xlink:href="#f"/><radialGradient r="6" fy="57.249" fx="17.664" cy="59.027" cx="17.664" gradientTransform="matrix(0.3723975,0,0,0.3956041,11.422008,34.017713)" id="Y" xlink:href="#l"><stop offset="0" stop-color="#fff"/><stop offset="1" stop-color="#fff" stop-opacity="0"/></radialGradient><linearGradient y2="63.999" x2="21.796" y1="73.846" x1="21.796" id="Z" xlink:href="#l"><stop offset="0"/><stop offset="1" stop-opacity="0"/></linearGradient><filter id="a"><feGaussianBlur stdDeviation=".108"/></filter><linearGradient y2="66.04" x2="21.271" y1="55.8" x1="21.271" id="b" xlink:href="#B"/><radialGradient gradientTransform="matrix(1,0,0,1.3333333,0,-21.333333)" r="6" fy="61.16" fx="18" cy="61.16" cx="18" id="c" xlink:href="#N"/><linearGradient y2="48.315" x2="18" y1="72" x1="18" id="d" xlink:href="#M"/><filter id="e"><feGaussianBlur stdDeviation=".277"/></filter><linearGradient id="f" xlink:href="#l"><stop offset="0" stop-color="#64d7eb"/><stop offset="1" stop-color="#64d7eb" stop-opacity="0"/></linearGradient><linearGradient id="g" x1="69.727" y1="-14.724" x2="71.948" y2="34.406" xlink:href="#l"><stop offset="0" stop-color="#fff"/><stop offset="1" stop-color="#fff" stop-opacity="0"/></linearGradient><linearGradient xlink:href="#C" id="h" x1="69.727" y1="-14.724" x2="71.948" y2="34.406"/><path id="i" d="M115.798 105.234L66.815 37.568c-.705-.983-1.75-1.552-2.852-1.552s-2.147.57-2.852 1.552l-48.973 68.354c-2.63 4.143-3.003 10.094 2.825 10.094h25v8c-.001 2.382 1.95 4 4 4h40c2.05.001 4-1.618 4-4v-8h24c3.89 0 6.553-7.02 3.835-10.78z"/><path id="j" d="M115.65 40c-.34 1.155-2.562 6.125-2.562 6.125l6.75-.03V44c.001-2.05-1.618-4-4-4h-.187z"/><path id="k" d="M 24,64 A 6,8 0 1 1 12,64 A 6,8 0 1 1 24,64 z"/><linearGradient id="l" gradientUnits="userSpaceOnUse"/></defs><g fill-rule="evenodd"><use xlink:href="#i" fill="url(#G)"/><use xlink:href="#i" opacity=".255" fill="url(#L)"/><path d="M76.5 11.063c-1.077.065-2.114.377-3 .938l2.375 7.625L84 16.47V16c0-2.918-3.94-5.153-7.5-4.937z" transform="matrix(0 1 -1 0 127.96309 32.015744)" fill="url(#D)" filter="url(#E)"/><use xlink:href="#j" transform="matrix(0 1 1 0 -.161918 8.015744)" opacity=".614" fill="url(#J)" filter="url(#H)"/><use xlink:href="#i" fill="url(#I)"/><path d="M72.5 11.063c-1.077.065-2.114.377-3 .938l2.375 7.625L80 16.47V16c0-2.918-3.94-5.153-7.5-4.937z" transform="matrix(0 .831641 1 0 -.821068 49.484444)" opacity=".704" fill="url(#F)" filter="url(#E)"/><use xlink:href="#j" transform="matrix(.999597 -.028382 -.028382 -.999597 -30.523448 171.13379)" opacity=".75" fill="url(#J)" filter="url(#H)"/><path d="M61.556 37.222c1.69-1.46 3.24-1.068 4.753-.134l-2.243 5.39-2.5-5.255z" fill="url(#Q)" filter="url(#R)"/><path d="M181.55 21.465l-64.045 52.342c-1.386 1.6-1.164 3.02-.102 4.254L180 129.08c4 3.582 8 3.773 8 0V99.23h12V52.77h-12V23.93c0-3.19-3.153-4.675-6.45-2.464z" fill="url(#P)" transform="matrix(0 1 -.860986 0 129.39806 -75.98426)"/></g><g transform="matrix(0 1 -.860986 0 129.59806 -173.18729)" fill="none" filter="url(#O)"><path d="M278.55 21.465l-64.445 52.342c-1.386 1.6-1.164 3.02-.102 4.254L277 129.08c4 3.582 8 3.773 8 0V99.23h12V52.887h-12V23.93c0-3.19-3.153-4.675-6.45-2.464z" stroke="url(#K)" stroke-linejoin="round" stroke-width="1.078"/></g><path d="M63.906 40.438c-.6.015-1.188.344-1.72.875L18.25 103.97c-.5.66-.902 1.325-1.25 1.97l8.438.063c29.66 0 57.37-2.552 80.938-6.906l-40.53-57.656c-.693-.694-1.328-1.015-1.937-1z" fill="url(#S)"/><path d="M63.705 40.538c-.6.015-1.188.344-1.72.875L18.05 104.07c-.5.66-.902 1.325-1.25 1.97h.594l.656-.97 43.938-62.656c.53-.53 1.11-.86 1.72-.875s1.245.306 1.938 1l39.906 56.78.625-.125-40.53-57.656c-.693-.694-1.328-1.015-1.937-1z" fill="url(#T)"/><path d="M65.618 41.484l39.058 56.585c-23.567 4.637-51.277 7.52-80.937 7.875l-6.906.03c-.01.02-.02.042-.03.063l8.438.063c29.66 0 57.37-2.552 80.937-6.906l-40.53-57.656-.027-.054z" fill="url(#U)"/><use xlink:href="#k" transform="matrix(2.666667 0 0 1.999999 15.993451 -112.03359)" fill="url(#d)"/><use xlink:href="#k" transform="matrix(2.566196 0 0 1.924646 17.801931 -107.21098)" fill="url(#Y)" filter="url(#e)"/><use xlink:href="#k" transform="matrix(2.666667 0 0 1.999999 15.993451 -112.03359)" opacity=".625" fill="url(#Z)"/><use xlink:href="#k" transform="matrix(2.666667 0 0 1.999999 15.993451 -112.23359)" opacity=".625" fill="url(#X)"/><use xlink:href="#k" transform="matrix(2 0 0 -1.5 27.993451 111.96635)" fill="url(#c)"/><path d="M63.993 3.966c-6.55 0-11.882 5.26-12 11.78 4.548 1.123 9.898 1.78 15.625 1.78 2.89 0 5.668-.192 8.313-.5.03-.353.063-.7.063-1.062 0-6.624-5.376-12-12-12z" fill="url(#h)"/><path d="M63.993 3.966c-6.14 0-11.2 4.61-11.906 10.562.738-5.544 5.714-9.844 11.72-9.844 6.513 0 11.78 5.03 11.78 11.25 0 .34-.032.67-.062 1-2.6.29-5.313.47-8.156.47-5.632 0-10.903-.602-15.375-1.656 4.548 1.123 9.898 1.78 15.625 1.78 2.89 0 5.668-.192 8.313-.5.03-.353.063-.7.063-1.062 0-6.624-5.376-12-12-12z" fill="url(#g)"/><use xlink:href="#k" transform="matrix(2 0 0 -1.5 27.993451 111.96635)" fill="none" stroke="url(#b)" stroke-width=".52" stroke-linejoin="round" filter="url(#a)"/><use xlink:href="#k" transform="matrix(2.638773 0 0 1.979079 16.495543 -110.72731)" opacity=".413" fill="url(#W)" filter="url(#V)"/></svg>