<svg width="128" height="128" xmlns="http://www.w3.org/2000/svg" xmlns:xlink="http://www.w3.org/1999/xlink"><defs><linearGradient id="A" xlink:href="#l"><stop offset="0"/><stop stop-opacity="0" offset="1"/></linearGradient><linearGradient id="B" xlink:href="#l"><stop stop-color="#63e9ff" offset="0"/><stop stop-color="#fff" stop-opacity="0" offset="1"/></linearGradient><linearGradient id="C" xlink:href="#l"><stop stop-color="#cdeeff" offset="0"/><stop stop-color="#d2e8ed" stop-opacity="0" offset="1"/></linearGradient><linearGradient id="D" x1="77.743" x2="82.939" y1="15.337" y2="16.751" spreadMethod="reflect" xlink:href="#B"/><filter id="E" x="-.102" y="-.125" width="1.204" height="1.25"><feGaussianBlur stdDeviation=".447"/></filter><linearGradient id="F" x1="74.75" x2="78.939" y1="14.276" y2="16.751" spreadMethod="reflect" xlink:href="#B"/><linearGradient id="G" x1="22.71" x2="124.96" y1="106.85" y2="39.935" xlink:href="#M"/><filter id="H" x="-.116" y="-.128" width="1.231" height="1.255"><feGaussianBlur stdDeviation=".325"/></filter><radialGradient id="I" cx="79.407" cy="56.848" r="60" gradientTransform="matrix(-.017678 .58163 -.8879 -.026986 122.02 63.938)" xlink:href="#A"/><linearGradient id="J" x1="115.17" x2="118.5" y1="44.874" y2="47.884" spreadMethod="reflect" xlink:href="#B"/><linearGradient id="K" x1="310.63" x2="262.27" y1="59.981" y2="60.61" xlink:href="#B"/><radialGradient id="L" cx="-16.668" cy="86.827" r="60" gradientTransform="matrix(.52125 .25866 -.4106 .82743 77.907 -3.5237)" xlink:href="#A"/><linearGradient id="M" xlink:href="#l"><stop stop-color="#081e3e" offset="0"/><stop stop-color="#387de4" offset="1"/></linearGradient><linearGradient id="N" xlink:href="#l"><stop stop-color="#9fc1f2" offset="0"/><stop stop-color="#587eb5" offset=".5"/><stop stop-color="#0c2a58" offset="1"/></linearGradient><filter id="O"><feGaussianBlur stdDeviation=".565"/></filter><radialGradient id="P" cx="197.74" cy="76.11" r="56" gradientTransform="matrix(1 0 0 1.1384 0 -10.518)" xlink:href="#N"/><linearGradient id="Q" x1="63.933" x2="66.207" y1="39.567" y2="39.567" spreadMethod="reflect" xlink:href="#l"><stop stop-color="#fff" offset="0"/><stop stop-color="#fff" stop-opacity="0" offset="1"/></linearGradient><filter id="R" x="-.101" y="-.077" width="1.201" height="1.154"><feGaussianBlur stdDeviation=".199"/></filter><linearGradient id="S" x1="84.481" x2="85.488" y1="34.01" y2="120.88" xlink:href="#C"/><linearGradient id="T" x1="84.28" x2="85.822" y1="34.11" y2="98.222" xlink:href="#l"><stop stop-color="#fff" offset="0"/><stop stop-color="#fff" stop-opacity="0" offset="1"/></linearGradient><linearGradient id="U" x1="103.56" x2="86.897" y1="117.62" y2="81.084" xlink:href="#l"><stop stop-color="#fff" offset="0"/><stop stop-color="#fff" stop-opacity="0" offset="1"/></linearGradient><filter id="V"><feGaussianBlur stdDeviation=".168"/></filter><radialGradient id="W" cx="17.314" cy="70.37" r="6" gradientTransform="matrix(.54054 1.1657e-7 -1.6004e-7 1.202 8.6409 -12.09)" xlink:href="#f"/><radialGradient id="X" cx="17.314" cy="70" r="6" gradientTransform="matrix(.12425 1.851e-7 -1.1212e-6 1.3333 15.849 -21.333)" xlink:href="#f"/><radialGradient id="Y" cx="17.664" cy="59.027" r="6" fy="57.249" gradientTransform="matrix(.3724 0 0 .3956 11.422 34.018)" xlink:href="#l"><stop stop-color="#fff" offset="0"/><stop stop-color="#fff" stop-opacity="0" offset="1"/></radialGradient><linearGradient id="Z" x1="21.796" x2="21.796" y1="73.846" y2="63.999" xlink:href="#l"><stop offset="0"/><stop stop-opacity="0" offset="1"/></linearGradient><filter id="a"><feGaussianBlur stdDeviation=".108"/></filter><linearGradient id="b" x1="21.271" x2="21.271" y1="55.8" y2="66.04" xlink:href="#B"/><radialGradient id="c" cx="18" cy="61.16" r="6" gradientTransform="matrix(1 0 0 1.3333 0 -21.333)" xlink:href="#N"/><linearGradient id="d" x1="18" x2="18" y1="72" y2="48.315" xlink:href="#M"/><filter id="e"><feGaussianBlur stdDeviation=".277"/></filter><linearGradient id="f" xlink:href="#l"><stop stop-color="#64d7eb" offset="0"/><stop stop-color="#64d7eb" stop-opacity="0" offset="1"/></linearGradient><linearGradient id="g" x1="69.727" x2="71.948" y1="-14.724" y2="34.406" xlink:href="#l"><stop stop-color="#fff" offset="0"/><stop stop-color="#fff" stop-opacity="0" offset="1"/></linearGradient><linearGradient id="h" x1="69.727" x2="71.948" y1="-14.724" y2="34.406" xlink:href="#C"/><path id="i" d="M115.798 105.234L66.815 37.568c-.705-.983-1.75-1.552-2.852-1.552s-2.147.57-2.852 1.552l-48.973 68.354c-2.63 4.143-3.003 10.094 2.825 10.094h25v8c-.001 2.382 1.95 4 4 4h40c2.05.001 4-1.618 4-4v-8h24c3.89 0 6.553-7.02 3.835-10.78z"/><path id="j" d="M115.65 40c-.34 1.155-2.562 6.125-2.562 6.125l6.75-.03V44c.001-2.05-1.618-4-4-4h-.187z"/><path id="k" d="m24 64a6 8 0 1 1-12 0 6 8 0 1 1 12 0z"/><linearGradient id="l" gradientUnits="userSpaceOnUse"/></defs><g fill-rule="evenodd"><use fill="url(#G)" xlink:href="#i"/><use fill="url(#L)" opacity=".255" xlink:href="#i"/><path transform="matrix(0 1 -1 0 127.96 32.016)" d="M76.5 11.063c-1.077.065-2.114.377-3 .938l2.375 7.625L84 16.47V16c0-2.918-3.94-5.153-7.5-4.937z" fill="url(#D)" filter="url(#E)"/><use transform="matrix(0 1 1 0 -.16192 8.0157)" fill="url(#J)" filter="url(#H)" opacity=".614" xlink:href="#j"/><use fill="url(#I)" xlink:href="#i"/><path transform="matrix(0 .83164 1 0 -.82107 49.484)" d="M72.5 11.063c-1.077.065-2.114.377-3 .938l2.375 7.625L80 16.47V16c0-2.918-3.94-5.153-7.5-4.937z" fill="url(#F)" filter="url(#E)" opacity=".704"/><use transform="matrix(.9996 -.028382 -.028382 -.9996 -30.523 171.13)" fill="url(#J)" filter="url(#H)" opacity=".75" xlink:href="#j"/><path d="M61.556 37.222c1.69-1.46 3.24-1.068 4.753-.134l-2.243 5.39-2.5-5.255z" fill="url(#Q)" filter="url(#R)"/><path transform="matrix(0 1 -.86099 0 129.4 -75.984)" d="M181.55 21.465l-64.045 52.342c-1.386 1.6-1.164 3.02-.102 4.254L180 129.08c4 3.582 8 3.773 8 0V99.23h12V52.77h-12V23.93c0-3.19-3.153-4.675-6.45-2.464z" fill="url(#P)"/></g><g transform="matrix(0 1 -.86099 0 129.6 -173.19)" fill="none" filter="url(#O)"><path d="M278.55 21.465l-64.445 52.342c-1.386 1.6-1.164 3.02-.102 4.254L277 129.08c4 3.582 8 3.773 8 0V99.23h12V52.887h-12V23.93c0-3.19-3.153-4.675-6.45-2.464z" stroke="url(#K)" stroke-linejoin="round" stroke-width="1.078"/></g><path d="M63.906 40.438c-.6.015-1.188.344-1.72.875L18.25 103.97c-.5.66-.902 1.325-1.25 1.97l8.438.063c29.66 0 57.37-2.552 80.938-6.906l-40.53-57.656c-.693-.694-1.328-1.015-1.937-1z" fill="url(#S)"/><path d="M63.705 40.538c-.6.015-1.188.344-1.72.875L18.05 104.07c-.5.66-.902 1.325-1.25 1.97h.594l.656-.97 43.938-62.656c.53-.53 1.11-.86 1.72-.875s1.245.306 1.938 1l39.906 56.78.625-.125-40.53-57.656c-.693-.694-1.328-1.015-1.937-1z" fill="url(#T)"/><path d="M65.618 41.484l39.058 56.585c-23.567 4.637-51.277 7.52-80.937 7.875l-6.906.03c-.01.02-.02.042-.03.063l8.438.063c29.66 0 57.37-2.552 80.937-6.906l-40.53-57.656-.027-.054z" fill="url(#U)"/><use transform="matrix(2.6667 0 0 2 15.993 -112.03)" fill="url(#d)" xlink:href="#k"/><use transform="matrix(2.5662 0 0 1.9246 17.802 -107.21)" fill="url(#Y)" filter="url(#e)" xlink:href="#k"/><use transform="matrix(2.6667 0 0 2 15.993 -112.03)" fill="url(#Z)" opacity=".625" xlink:href="#k"/><use transform="matrix(2.6667 0 0 2 15.993 -112.23)" fill="url(#X)" opacity=".625" xlink:href="#k"/><use transform="matrix(2 0 0 -1.5 27.993 111.97)" fill="url(#c)" xlink:href="#k"/><path d="M63.993 3.966c-6.55 0-11.882 5.26-12 11.78 4.548 1.123 9.898 1.78 15.625 1.78 2.89 0 5.668-.192 8.313-.5.03-.353.063-.7.063-1.062 0-6.624-5.376-12-12-12z" fill="url(#h)"/><path d="M63.993 3.966c-6.14 0-11.2 4.61-11.906 10.562.738-5.544 5.714-9.844 11.72-9.844 6.513 0 11.78 5.03 11.78 11.25 0 .34-.032.67-.062 1-2.6.29-5.313.47-8.156.47-5.632 0-10.903-.602-15.375-1.656 4.548 1.123 9.898 1.78 15.625 1.78 2.89 0 5.668-.192 8.313-.5.03-.353.063-.7.063-1.062 0-6.624-5.376-12-12-12z" fill="url(#g)"/><use transform="matrix(2 0 0 -1.5 27.993 111.97)" fill="none" filter="url(#a)" stroke="url(#b)" stroke-linejoin="round" stroke-width=".52" xlink:href="#k"/><use transform="matrix(2.6388 0 0 1.9791 16.496 -110.73)" fill="url(#W)" filter="url(#V)" opacity=".413" xlink:href="#k"/></svg>
