<svg xmlns="http://www.w3.org/2000/svg" xmlns:xlink="http://www.w3.org/1999/xlink" width="128" height="128"><defs><linearGradient id="A" xlink:href="#U"><stop offset="0"/><stop offset="1" stop-opacity="0"/></linearGradient><linearGradient id="B" xlink:href="#U"><stop offset="0" stop-color="#63e9ff"/><stop offset="1" stop-color="#fff" stop-opacity="0"/></linearGradient><linearGradient xlink:href="#B" id="C" x1="77.743" y1="15.337" x2="82.939" y2="16.751" spreadMethod="reflect"/><filter x="-.102" width="1.204" y="-.125" height="1.25" id="D"><feGaussianBlur stdDeviation=".447"/></filter><linearGradient xlink:href="#B" id="E" spreadMethod="reflect" x1="74.75" y1="14.276" x2="78.939" y2="16.751"/><linearGradient id="F" x1="22.71" y1="74.846" x2="124.96" y2="7.935" xlink:href="#U"><stop offset="0" stop-color="#081e3e"/><stop offset="1" stop-color="#387de4"/></linearGradient><filter x="-.116" width="1.231" y="-.128" height="1.255" id="G"><feGaussianBlur stdDeviation=".325"/></filter><radialGradient xlink:href="#A" id="H" cx="79.407" cy="56.848" fx="79.407" fy="56.848" r="60" gradientTransform="matrix(-0.01767767,0.5816285,-0.8878982,-0.026986249,122.02118,31.93759)"/><linearGradient xlink:href="#B" id="I" spreadMethod="reflect" x1="115.166" y1="44.874" x2="118.498" y2="47.884"/><linearGradient xlink:href="#B" id="J" x1="310.634" y1="59.981" x2="262.271" y2="60.61"/><radialGradient xlink:href="#A" id="K" gradientTransform="matrix(0.5212474,0.2586607,-0.4106011,0.8274344,77.907487,-35.523706)" cx="-16.668" cy="86.827" fx="-16.668" fy="86.827" r="60"/><filter id="L"><feGaussianBlur stdDeviation=".565"/></filter><radialGradient id="M" gradientTransform="matrix(1,0,0,1.1383929,0,-10.517857)" cx="212.733" cy="76.11" fx="212.733" fy="76.11" r="56" xlink:href="#U"><stop offset="0" stop-color="#9fc1f2"/><stop offset=".5" stop-color="#587eb5"/><stop offset="1" stop-color="#0c2a58"/></radialGradient><linearGradient id="N" x1="63.933" y1="7.567" x2="66.207" y2="7.567" spreadMethod="reflect" xlink:href="#U"><stop offset="0" stop-color="#fff"/><stop offset="1" stop-color="#fff" stop-opacity="0"/></linearGradient><filter id="O" x="-.101" width="1.201" y="-.077" height="1.154"><feGaussianBlur stdDeviation=".199"/></filter><linearGradient id="P" x1="84.481" y1="2.01" x2="85.488" y2="88.884" xlink:href="#U"><stop offset="0" stop-color="#cdeeff"/><stop offset="1" stop-color="#d2e8ed" stop-opacity="0"/></linearGradient><linearGradient id="Q" x1="84.28" y1="2.11" x2="85.822" y2="66.222" xlink:href="#U"><stop offset="0" stop-color="#fff"/><stop offset="1" stop-color="#fff" stop-opacity="0"/></linearGradient><linearGradient id="R" x1="103.564" y1="85.615" x2="86.897" y2="49.084" xlink:href="#U"><stop offset="0" stop-color="#fff"/><stop offset="1" stop-color="#fff" stop-opacity="0"/></linearGradient><path id="S" d="M115.798 73.234L66.815 5.568c-.705-.983-1.75-1.552-2.852-1.552s-2.147.57-2.852 1.552L12.138 73.922c-2.63 4.143-3.003 10.094 2.825 10.094h25v32c-.001 2.382 1.95 4 4 4h40c2.05.001 4-1.618 4-4v-32h24c3.89 0 6.553-7.02 3.835-10.78z"/><path id="T" d="M115.65 40c-.34 1.155-2.562 6.125-2.562 6.125l6.75-.03V44c.001-2.05-1.618-4-4-4h-.187z"/><linearGradient id="U" gradientUnits="userSpaceOnUse"/></defs><g fill-rule="evenodd"><use xlink:href="#S" fill="url(#F)"/><use xlink:href="#S" opacity=".255" fill="url(#K)"/><path d="M76.5 11.063c-1.077.065-2.114.377-3 .938l2.375 7.625L84 16.47V16c0-2.918-3.94-5.153-7.5-4.937z" transform="matrix(0 1 -1 0 127.96309 .015744)" fill="url(#C)" filter="url(#D)"/><use xlink:href="#T" transform="matrix(0 1 1 0 -.161918 .015744)" opacity=".614" fill="url(#I)" filter="url(#G)"/><use xlink:href="#S" fill="url(#H)"/><path d="M72.5 11.063c-1.077.065-2.114.377-3 .938l2.375 7.625L80 16.47V16c0-2.918-3.94-5.153-7.5-4.937z" transform="matrix(0 .831641 1 0 -.821068 17.484444)" opacity=".704" fill="url(#E)" filter="url(#D)"/><use xlink:href="#T" transform="matrix(.999597 -.028382 -.028382 -.999597 -30.523448 163.13379)" opacity=".75" fill="url(#I)" filter="url(#G)"/><path d="M61.556 5.222c1.69-1.46 3.24-1.068 4.753-.134l-2.243 5.39-2.5-5.255z" fill="url(#N)" filter="url(#O)"/><path d="M181.55 21.465l-64.045 52.342c-1.386 1.6-1.164 3.02-.102 4.254L180 129.08c4 3.582 8 3.773 8 0V99.23h36V52.77h-36V23.93c0-3.19-3.153-4.675-6.45-2.464z" fill="url(#M)" transform="matrix(0 1 -.860986 0 129.39806 -107.98426)"/></g><g transform="matrix(0 1 -.860986 0 129.59806 -205.18729)" fill="none" filter="url(#L)"><path d="M278.55 21.465l-64.445 52.342c-1.386 1.6-1.164 3.02-.102 4.254L277 129.08c4 3.582 8 3.773 8 0V99.23h36V52.77h-36V23.93c0-3.19-3.153-4.675-6.45-2.464z" stroke="url(#J)" stroke-linejoin="round" stroke-width="1.078"/></g><path d="M63.906 8.438c-.6.015-1.188.344-1.72.875L18.25 71.97c-.5.66-.902 1.325-1.25 1.97l8.438.063c29.66 0 57.37-2.552 80.938-6.906L65.844 9.438c-.693-.694-1.328-1.015-1.937-1z" fill="url(#P)"/><path d="M63.705 8.538c-.6.015-1.188.344-1.72.875L18.05 72.07c-.5.66-.902 1.325-1.25 1.97h.594l.656-.97 43.938-62.656c.53-.53 1.11-.86 1.72-.875s1.245.306 1.938 1l39.906 56.78.625-.125-40.53-57.656c-.693-.694-1.328-1.015-1.937-1z" fill="url(#Q)"/><path d="M65.618 9.484l39.058 56.585C81.1 70.706 53.4 73.588 23.74 73.944l-6.906.03c-.01.02-.02.042-.03.063l8.438.063c29.66 0 57.37-2.552 80.937-6.906L65.646 9.538l-.027-.054z" fill="url(#R)"/></svg>