<svg width="128" height="128" xmlns="http://www.w3.org/2000/svg" xmlns:xlink="http://www.w3.org/1999/xlink"><defs><linearGradient id="A" xlink:href="#U"><stop offset="0"/><stop stop-opacity="0" offset="1"/></linearGradient><linearGradient id="B" xlink:href="#U"><stop stop-color="#63e9ff" offset="0"/><stop stop-color="#fff" stop-opacity="0" offset="1"/></linearGradient><linearGradient id="C" x1="77.743" x2="82.939" y1="15.337" y2="16.751" spreadMethod="reflect" xlink:href="#B"/><filter id="D" x="-.102" y="-.125" width="1.204" height="1.25"><feGaussianBlur stdDeviation=".447"/></filter><linearGradient id="E" x1="74.75" x2="78.939" y1="14.276" y2="16.751" spreadMethod="reflect" xlink:href="#B"/><linearGradient id="F" x1="22.71" x2="124.96" y1="74.846" y2="7.935" xlink:href="#U"><stop stop-color="#081e3e" offset="0"/><stop stop-color="#387de4" offset="1"/></linearGradient><filter id="G" x="-.116" y="-.128" width="1.231" height="1.255"><feGaussianBlur stdDeviation=".325"/></filter><radialGradient id="H" cx="79.407" cy="56.848" r="60" gradientTransform="matrix(-.017678 .58163 -.8879 -.026986 122.02 31.938)" xlink:href="#A"/><linearGradient id="I" x1="115.17" x2="118.5" y1="44.874" y2="47.884" spreadMethod="reflect" xlink:href="#B"/><linearGradient id="J" x1="310.63" x2="262.27" y1="59.981" y2="60.61" xlink:href="#B"/><radialGradient id="K" cx="-16.668" cy="86.827" r="60" gradientTransform="matrix(.52125 .25866 -.4106 .82743 77.907 -35.524)" xlink:href="#A"/><filter id="L"><feGaussianBlur stdDeviation=".565"/></filter><radialGradient id="M" cx="212.73" cy="76.11" r="56" gradientTransform="matrix(1 0 0 1.1384 0 -10.518)" xlink:href="#U"><stop stop-color="#9fc1f2" offset="0"/><stop stop-color="#587eb5" offset=".5"/><stop stop-color="#0c2a58" offset="1"/></radialGradient><linearGradient id="N" x1="63.933" x2="66.207" y1="7.567" y2="7.567" spreadMethod="reflect" xlink:href="#U"><stop stop-color="#fff" offset="0"/><stop stop-color="#fff" stop-opacity="0" offset="1"/></linearGradient><filter id="O" x="-.101" y="-.077" width="1.201" height="1.154"><feGaussianBlur stdDeviation=".199"/></filter><linearGradient id="P" x1="84.481" x2="85.488" y1="2.01" y2="88.884" xlink:href="#U"><stop stop-color="#cdeeff" offset="0"/><stop stop-color="#d2e8ed" stop-opacity="0" offset="1"/></linearGradient><linearGradient id="Q" x1="84.28" x2="85.822" y1="2.11" y2="66.222" xlink:href="#U"><stop stop-color="#fff" offset="0"/><stop stop-color="#fff" stop-opacity="0" offset="1"/></linearGradient><linearGradient id="R" x1="103.56" x2="86.897" y1="85.615" y2="49.084" xlink:href="#U"><stop stop-color="#fff" offset="0"/><stop stop-color="#fff" stop-opacity="0" offset="1"/></linearGradient><path id="S" d="M115.798 73.234L66.815 5.568c-.705-.983-1.75-1.552-2.852-1.552s-2.147.57-2.852 1.552L12.138 73.922c-2.63 4.143-3.003 10.094 2.825 10.094h25v32c-.001 2.382 1.95 4 4 4h40c2.05.001 4-1.618 4-4v-32h24c3.89 0 6.553-7.02 3.835-10.78z"/><path id="T" d="M115.65 40c-.34 1.155-2.562 6.125-2.562 6.125l6.75-.03V44c.001-2.05-1.618-4-4-4h-.187z"/><linearGradient id="U" gradientUnits="userSpaceOnUse"/></defs><g fill-rule="evenodd"><use fill="url(#F)" xlink:href="#S"/><use fill="url(#K)" opacity=".255" xlink:href="#S"/><path transform="matrix(0 1 -1 0 127.96 .015744)" d="M76.5 11.063c-1.077.065-2.114.377-3 .938l2.375 7.625L84 16.47V16c0-2.918-3.94-5.153-7.5-4.937z" fill="url(#C)" filter="url(#D)"/><use transform="matrix(0 1 1 0 -.16192 .015744)" fill="url(#I)" filter="url(#G)" opacity=".614" xlink:href="#T"/><use fill="url(#H)" xlink:href="#S"/><path transform="matrix(0 .83164 1 0 -.82107 17.484)" d="M72.5 11.063c-1.077.065-2.114.377-3 .938l2.375 7.625L80 16.47V16c0-2.918-3.94-5.153-7.5-4.937z" fill="url(#E)" filter="url(#D)" opacity=".704"/><use transform="matrix(.9996 -.028382 -.028382 -.9996 -30.523 163.13)" fill="url(#I)" filter="url(#G)" opacity=".75" xlink:href="#T"/><path d="M61.556 5.222c1.69-1.46 3.24-1.068 4.753-.134l-2.243 5.39-2.5-5.255z" fill="url(#N)" filter="url(#O)"/><path transform="matrix(0 1 -.86099 0 129.4 -107.98)" d="M181.55 21.465l-64.045 52.342c-1.386 1.6-1.164 3.02-.102 4.254L180 129.08c4 3.582 8 3.773 8 0V99.23h36V52.77h-36V23.93c0-3.19-3.153-4.675-6.45-2.464z" fill="url(#M)"/></g><g transform="matrix(0 1 -.86099 0 129.6 -205.19)" fill="none" filter="url(#L)"><path d="M278.55 21.465l-64.445 52.342c-1.386 1.6-1.164 3.02-.102 4.254L277 129.08c4 3.582 8 3.773 8 0V99.23h36V52.77h-36V23.93c0-3.19-3.153-4.675-6.45-2.464z" stroke="url(#J)" stroke-linejoin="round" stroke-width="1.078"/></g><path d="M63.906 8.438c-.6.015-1.188.344-1.72.875L18.25 71.97c-.5.66-.902 1.325-1.25 1.97l8.438.063c29.66 0 57.37-2.552 80.938-6.906L65.844 9.438c-.693-.694-1.328-1.015-1.937-1z" fill="url(#P)"/><path d="M63.705 8.538c-.6.015-1.188.344-1.72.875L18.05 72.07c-.5.66-.902 1.325-1.25 1.97h.594l.656-.97 43.938-62.656c.53-.53 1.11-.86 1.72-.875s1.245.306 1.938 1l39.906 56.78.625-.125-40.53-57.656c-.693-.694-1.328-1.015-1.937-1z" fill="url(#Q)"/><path d="M65.618 9.484l39.058 56.585C81.1 70.706 53.4 73.588 23.74 73.944l-6.906.03c-.01.02-.02.042-.03.063l8.438.063c29.66 0 57.37-2.552 80.937-6.906L65.646 9.538l-.027-.054z" fill="url(#R)"/></svg>
