<svg xmlns="http://www.w3.org/2000/svg" width="320" height="320"><path d="M41.73 0h236.54C301.316 0 320 18.684 320 41.73v236.54c0 23.047-18.684 41.73-41.73 41.73H41.73C18.684 320 0 301.316 0 278.27V41.73C0 18.684 18.684 0 41.73 0zm0 0" fill="rgb(67.450982%,88.235295%,100%)"/><path d="M97.758 31.805c-2.11-.047-3.86 1.62-3.9 3.73L92.8 63.098c-.082 2.164 1.648 3.965 3.813 3.97l40.543.117c5.148.066 5.172-7.684.023-7.648l-36.586-.102.895-23.61c.113-2.148-1.574-3.97-3.73-4.02zm.105-29.918c-32.44 0-58.687 27.19-58.687 60.344s26.246 60.34 58.688 60.34 58.688-27.19 58.688-60.34S130.31 1.887 97.863 1.887zm0 12.28c25.598 0 46.406 21.344 46.406 48.063s-20.81 48.06-46.406 48.06-46.406-21.344-46.406-48.06S72.27 14.168 97.863 14.168zm64.61 37.324c.55 3.5.848 7.086.848 10.738a69.22 69.22 0 0 1-.367 7.063h87.25V288.56H108.87V128.48c-3.578.63-7.25.973-11.008.973a64.03 64.03 0 0 1-6.793-.363v168.367c0 4.918 3.984 8.898 8.902 8.902h159.13a8.91 8.91 0 0 0 8.902-8.902V60.39a8.91 8.91 0 0 0-8.902-8.898zm-13.07 52.06c-2.7 3.543-5.734 6.805-9.062 9.734h77.227a4.87 4.87 0 0 0 4.934-4.867 4.87 4.87 0 0 0-4.934-4.867zm-10.53 36.79c-6.578-.1-6.578 9.82 0 9.73h78.695c2.715.04 4.934-2.152 4.934-4.867s-2.22-4.902-4.934-4.863zm0 36.785c-6.574-.1-6.574 9.82 0 9.734h78.695a4.87 4.87 0 0 0 4.934-4.867 4.87 4.87 0 0 0-4.934-4.867zm0 36.785c-6.574-.086-6.574 9.824 0 9.734h78.695a4.87 4.87 0 0 0 4.934-4.867 4.87 4.87 0 0 0-4.934-4.867zm0 36.79c-6.578-.1-6.578 9.82 0 9.73h78.695c2.715.04 4.934-2.152 4.934-4.863s-2.22-4.906-4.934-4.867zm0 0" fill-rule="evenodd" fill="rgb(0%,0%,0%)"/></svg>