<svg width="96" height="96" xmlns="http://www.w3.org/2000/svg" xmlns:xlink="http://www.w3.org/1999/xlink"><defs><linearGradient id="b" xlink:href="#a"><stop stop-color="#fff" offset="0"/><stop stop-color="#fff" stop-opacity="0" offset="1"/></linearGradient><linearGradient id="g" x1="36.36" x2="36.36" y1="6" y2="63.89" xlink:href="#b"/><linearGradient id="j" x1="48" x2="48" y1="20.22" y2="138.66" xlink:href="#b"/><linearGradient id="f" x1="48" x2="48" y1="90" y2="5.99" xlink:href="#a"><stop stop-color="#65a31b" offset="0"/><stop stop-color="#a0de42" offset="1"/></linearGradient><linearGradient id="l" x1="48.08" x2="46.66" y1="76.56" y2="17.97" xlink:href="#a"><stop stop-color="#dcdcdc" offset="0"/><stop stop-color="#ebebeb" offset=".31"/><stop stop-color="#fff" offset=".71"/><stop stop-color="#fafafa" offset=".84"/><stop stop-color="#f0f0f0" offset="1"/></linearGradient><linearGradient id="m" x1="15" x2="81" y1="48.27" y2="48.27" xlink:href="#a"><stop stop-color="#fff" offset="0"/><stop stop-color="#fff" stop-opacity="0" offset="1"/></linearGradient><linearGradient id="c" xlink:href="#a"><stop offset="0"/><stop stop-opacity=".59" offset="1"/></linearGradient><linearGradient id="d" x1="31.88" x2="31.88" y1="-91.87" y2="-6.76" xlink:href="#c"/><linearGradient id="e" x1="32.25" x2="32.25" y1="-90.87" y2="-6.76" xlink:href="#c"/><linearGradient id="a" gradientUnits="userSpaceOnUse"/><radialGradient id="h" cx="48" cy="90.17" r="42" gradientTransform="matrix(1.1573 0 0 .99591 -7.55 .2)" xlink:href="#b"/><clipPath id="i"><rect x="6" y="6" width="84" height="84" rx="6" fill="#fff"/></clipPath><filter id="k" x="-.19" y="-.19" width="1.38" height="1.38" color-interpolation-filters="sRGB"><feGaussianBlur stdDeviation="5.28"/></filter></defs><g transform="scale(1 -1)"><g fill="url(#d)"><path d="M12-95.03C6.5-95.03 1.97-90.5 1.97-85v71C1.97-8.5 6.5-3.97 12-3.97h72c5.5 0 10.03-4.52 10.03-10.03v-71c0-5.5-4.52-10.03-10.03-10.03H12z" opacity=".08"/><path d="M12-94.03A9.05 9.05 0 0 0 2.97-85v71A9.05 9.05 0 0 0 12-4.97h72A9.05 9.05 0 0 0 93.03-14v-71A9.05 9.05 0 0 0 84-94.03H12z" opacity=".1"/><path d="M12-93c-4.4 0-8 3.6-8 8v71c0 4.4 3.6 8 8 8h72c4.4 0 8-3.6 8-8v-71c0-4.4-3.6-8-8-8H12z" opacity=".2"/><rect x="5" y="-92" width="86" height="85" rx="7" opacity=".3"/></g><rect x="6" y="-91" width="84" height="84" rx="6" fill="url(#e)" opacity=".45"/></g><rect x="6" y="6" width="84" height="84" rx="6" fill="url(#f)"/><path d="M12 6a6 6 0 0 0-6 6v72c0 .34.04.65.1.97l.18.88.03.09a5.69 5.69 0 0 0 .38.81c.14.28.31.54.5.78s.37.47.6.69a6.1 6.1 0 0 0 2.37 1.44 4.1 4.1 0 0 1-.72-.38H9.4l-.1-.06-.34-.25-.31-.25a5.01 5.01 0 0 1-.5-.53l-.32-.4c-.02-.04-.03-.1-.06-.13l-.18-.31a5.37 5.37 0 0 1-.29-.63l-.03-.06c-.03-.1-.03-.19-.06-.28l-.1-.31C7.06 85.72 7 85.37 7 85V13c0-2.78 2.22-5 5-5h72c2.78 0 5 2.22 5 5v72c0 .36-.05.72-.13 1.06l-.15.6-.03.06-.22.53-.13.25c-.05.1-.12.19-.18.28-.1.14-.2.28-.32.4a5.05 5.05 0 0 1-.46.5l-.03.04-.44.34-.31.22h-.03c-.23.14-.47.28-.72.38a6.13 6.13 0 0 0 2.38-1.44 5.79 5.79 0 0 0 .59-.69c.18-.25.35-.5.5-.78a5.69 5.69 0 0 0 .37-.81l.03-.1c.1-.27.14-.58.19-.87.05-.32.1-.63.1-.97V12a6 6 0 0 0-6-6H12z" fill="url(#g)" opacity=".4"/><path d="M12 90a6 6 0 0 1-6-6V12c0-.34.04-.65.1-.97l.18-.88.03-.09a5.69 5.69 0 0 1 .38-.81 5.85 5.85 0 0 1 1.1-1.47 6.1 6.1 0 0 1 1.5-1.1 6.14 6.14 0 0 1 .87-.34c-.26.1-.5.24-.72.38H9.4l-.1.06-.34.25-.31.25c-.18.16-.35.35-.5.53l-.32.4c-.02.05-.03.1-.06.13l-.18.32a5.37 5.37 0 0 0-.29.62l-.03.06c-.03.1-.03.2-.06.28l-.1.32c-.07.34-.12.7-.12 1.06v72c0 2.78 2.22 5 5 5h72c2.78 0 5-2.22 5-5V11a5.09 5.09 0 0 0-.13-1.06l-.15-.6-.03-.06-.22-.53-.13-.25c-.05-.1-.12-.19-.18-.28a5.33 5.33 0 0 0-.32-.4 5.05 5.05 0 0 0-.46-.5l-.03-.03a4.86 4.86 0 0 0-.44-.35l-.31-.22h-.03a4.68 4.68 0 0 0-.72-.37c.3.1.6.2.87.34a6.13 6.13 0 0 1 1.5 1.1 5.79 5.79 0 0 1 .6.68c.18.25.35.51.5.78a5.69 5.69 0 0 1 .37.82l.03.09c.1.28.14.58.19.88a6 6 0 0 1 .1.97v72a6 6 0 0 1-6 6H12z" fill="url(#h)" opacity=".2"/><rect x="15" y="15" width="66" height="66" rx="12" clip-path="url(#i)" fill="url(#j)" filter="url(#k)" opacity=".1" stroke="#fff" stroke-width=".5"/><path d="M48 14.75c-20.12 0-37.25 13.56-37.25 31.25 0 10.08 5.92 18.7 14.34 24.28-.15.53-.26 1.04-.62 1.6-.92 1.42-2.13 2.64-4.84 3.43h-.07a1.18 1.18 0 0 1-.12.03l-.16.06-.03.03-.12.03a1.2 1.2 0 0 0-.03 0v.04a1.2 1.2 0 0 0-.06 0v.03a1.2 1.2 0 0 0-.04 0 1.2 1.2 0 0 0-.12.06 1.2 1.2 0 0 0-.1.03s-.04.06-.09.1a1.2 1.2 0 0 0-.03 0l-.03.02h-.06v.03h-.03l-.06.03a1.2 1.2 0 0 0-.06.03l-.03.03c-.09.05-.02.03-.07.07h-.03a1.2 1.2 0 0 0-.06.06l-.03.03c-.02.02 0-.02-.03 0a1.2 1.2 0 0 0-.06.03v.03h-.03a1.2 1.2 0 0 0-.22.19s-.04.06-.1.12c-.02.03-.06.04-.09.07v.03h-.03v.06a1.2 1.2 0 0 0-.03.03 1.2 1.2 0 0 0-.03 0v.03a1.2 1.2 0 0 0-.03 0v.03h-.03a1.2 1.2 0 0 0-.06.06s-.06.07-.1.13c-.02.02 0 .03-.03.06l-.03.03a1.2 1.2 0 0 0-.03.03V77c0 .02.01-.03-.03.03a1.2 1.2 0 0 0-.03.03c.01 0-.03.09 0 .03h-.03v.03a1.2 1.2 0 0 0-.06.06 1.2 1.2 0 0 0-.06.13v.03l-.06.12-.03.1c-.01.03 0-.05-.07.1.1-.27.06-.17-.03.06 0 .02-.02 0-.03.03v.03l-.06.15a1.2 1.2 0 0 0-.06.31v.03l-.06.07v.06s-.03.01-.03.03v.03l-.03.15v.12h-.03c-.03.13 0 .12 0 .2a1.2 1.2 0 0 0-.03.3v.2a1.2 1.2 0 0 0 0 .09v.06a1.2 1.2 0 0 0 0 .1 1.2 1.2 0 0 0 0 .06v.12c0 .03.03.04.03.06s-.05-.1 0 .16c0 .02.02.02.03.03v.09l.03.16a1.2 1.2 0 0 0 .12.28v.03a2.89 2.89 0 0 0 0 .1c.01.01.02 0 .03.02l.03.03s.04.14 0 .03v.03l.07.16v.03c0 .02.02 0 .03.03s.02 0 .03.03v.06a1.2 1.2 0 0 0 .03.03v.03a1.2 1.2 0 0 0 .03.03 1.2 1.2 0 0 0 .06.12v.03a1.2 1.2 0 0 0 .03.1l.1.15a41.49 41.49 0 0 1 .12.2l.1.12a1.2 1.2 0 0 0 .24.25 1.2 1.2 0 0 0 .07.03c.03.04-.02.01.03.06a1.2 1.2 0 0 0 .1.1l.05.06h.03l.03.03.03.03a1.2 1.2 0 0 0 .04.03s.02 0 .03 0v.03a1.2 1.2 0 0 0 .09.1h.03a1.2 1.2 0 0 0 .1.09c-.27-.2-.2-.14.02.03.05.03.03 0 .07.03a1.2 1.2 0 0 0 .22.15 2.88 2.88 0 0 0 .15.07l.1.03c.03 0-.05 0 .09.06-.26-.1-.16-.06.06.03.02 0 .01.02.03.03h.03l.32.12a1.2 1.2 0 0 0 .3.07h.04l.06.06h.06c.02 0 .02.03.03.03h.03l.16.03a1.2 1.2 0 0 0 .19 0 39.76 39.76 0 0 1 .12 0h.12v.03h.1v-.03a26.6 26.6 0 0 0 20.9-6.94c2.1.34 4.24.6 6.53.6 20.12 0 37.25-13.56 37.25-31.25S68.12 14.75 48 14.75zm-27.56 68.5h.03v.16l-.03-.16z" opacity=".05"/><path d="M48 15.94c-19.58 0-36.06 13.15-36.06 30.06 0 9.95 5.97 18.5 14.6 23.88-.23.83-.44 1.68-1.07 2.65-1.03 1.6-2.55 3.08-5.53 3.94h-.03l-.19.06-.15.07.4 1-.43-1c-.02 0-.02.02-.03.03l-.07.03h-.03l-.25.15-.06.03-.06.03-.03.03h-.03l-.1.1-.06.03c-.02 0-.02.02-.03.03h-.03l-.22.25-.03.03v.03h-.03a.25.25 0 0 1-.03.03l-.03.03-.15.22-.03.06-.03.03-.03.03v.03h-.03l-.13.28-.03.06c0 .02-.02.02-.03.03v.03l-.06.16 1 .4 1.03.35-2.1-.53v.06c0 .02-.02.02-.02.03v.03l-.03.16.72.15-.72-.12v.06c0 .02-.03.02-.03.03v.03l1.06.22h-1.1v.19h1.1l-1.1.03v.12l.03.25c0 .02.03.02.03.03v.1l.03.15 1.07-.22 1.03-.28-2.03.72c0 .02.02.02.03.03l.03.07v.03l.06.15.81-.34a16.82 16.82 0 0 0-.8.37c0 .02.01.02.02.03l.03.07v.03l1-.41-.94.56.1.16.06.1.1.12.87-.66.84-.68-1.59 1.47c.01 0 .05.01.06.03l.03.06.16.12.03.03.03.03h.03v.03l.03.03.12.1c.02 0 .02.02.03.03l.07.03c.02 0 0 .03 0 .03l.28.12.06.03c.02 0 .02.03.03.03h.03l.31.13.41-1 .31-1.03-.5 2.1c.02 0 .05-.01.07 0l.03.02h.03l.15.03h.13l.06.03h.1v-.03c9.74 1 16.57-3.25 20.56-7 2.21.37 4.5.66 6.87.66 19.58 0 36.06-13.15 36.06-30.06S67.58 15.94 48 15.94zm2.78 15.12c.6 0 .6-.01 1 .38l.03.03.03.03c.46.44.34.17.34.72 0 .56.09.36-.3.72l-.04.03c-.37.34-.46.37-1.06.37-.6 0-.71-.03-1.1-.37l-.02-.03c-.4-.36-.32-.16-.32-.72 0-.59-.13-.3.35-.75.44-.4.47-.4 1.1-.4zM47.3 43.44c.52.09 1.14.14 1.34.31a39.46 39.46 0 0 0 .1.1c.26.22.33.31.37.4s.07.27.07.69c0 .22.03.6-.03 1.22l-.03.03c-.05.5-.13.98-.25 1.4v.04L47 54.25v.03a20.4 20.4 0 0 0-.75 4.22c0 .71.16 1.54.47 2.34-.7-.09-1.17-.24-1.44-.47-.52-.47-.47-.37-.47-1.1 0-.35 0-.77.07-1.21.06-.45.2-1.02.34-1.63.03-.1.04-.2.03-.3l1.66-5.95.03-.03a1.1 1.1 0 0 0 .09-.28.64.64 0 0 0 0-.06h.03v-.03l.03-.1v-.05a27.14 27.14 0 0 0 .4-1.78 6.96 6.96 0 0 0-.18-4.41z" opacity=".05"/><path d="M48 17.03c-19.1 0-34.97 12.76-34.97 28.97 0 9.81 6.02 18.3 14.81 23.5a10.3 10.3 0 0 1-7.69 8.03h-.03l-.3.13-.13.1-.16.08-.12.1-.1.12-.12.13-.1.15-.1.13-.05.16a1955.25 1955.25 0 0 1-.07.15l-.03.16a1348.62 1348.62 0 0 1-.03.15l-.03.16v.34l.03.16a829.92 829.92 0 0 1 .03.16l.07.15a770.25 770.25 0 0 1 .06.16l.06.15.1.16a813.8 813.8 0 0 1 .1.13l.12.12.12.1.13.12.12.1.16.06a959.18 959.18 0 0 1 .15.06l.16.06a685.01 685.01 0 0 1 .15.03l.16.03h.03c9.76 1.06 16.45-3.36 20.25-7.06 2.33.4 4.73.69 7.22.69 19.1 0 34.97-12.76 34.97-28.97S67.1 17.03 48 17.03zm2.78 12.94c.8 0 1.22.18 1.78.72h.03v.03c.54.5.69.8.69 1.5s-.12 1-.69 1.53c-.54.5-1.01.69-1.81.69s-1.3-.2-1.84-.7c-.57-.52-.7-.81-.7-1.52s.13-1 .7-1.53 1.05-.72 1.84-.72zm-4.19 12.19c1.4 0 2.2.3 2.75.75l.03.03.1.09c.62.55.8.93.81 1.9 0 .2 0 .68-.06 1.35a7.96 7.96 0 0 1-.31 1.63l-1.88 6.65a19.99 19.99 0 0 0-.47 2c-.13.74-.22 1.38-.22 1.94 0 1.15.24 2.48 1.31 3.34-.38.06-.66.19-1.12.19-1.52 0-2.39-.34-2.97-.84a2.18 2.18 0 0 1-.85-1.91c0-.4.03-.88.1-1.37.07-.52.2-1.1.34-1.72h-.03l1.85-6.57v-.03H46a.64.64 0 0 0 0-.06l.03-.12c.15-.6.3-1.17.4-1.72v-.03c.15-.68.23-1.32.23-1.94 0-1.1-.2-2.33-1.13-3.22-.06-.06-.15-.07-.22-.13.43-.08.91-.22 1.28-.22z" opacity=".12"/><path d="M48 18.03c-18.66 0-33.97 12.41-33.97 27.97 0 9.67 6 18.09 14.94 23.1a11.4 11.4 0 0 1-8.53 9.38.98.98 0 0 0 .19 1.9c9.7 1.05 16.24-3.5 19.84-7.13 2.43.46 4.93.72 7.53.72 18.66 0 33.97-12.4 33.97-27.97S66.66 18.03 48 18.03zm2.78 10.94c1 0 1.76.33 2.47 1a.98.98 0 0 0 .03 0c.71.66 1 1.33 1 2.25s-.29 1.58-1 2.25c-.7.65-1.48.97-2.5.97s-1.82-.32-2.53-.97c-.71-.67-1-1.34-1-2.25s.29-1.59 1-2.25c.72-.67 1.52-1 2.53-1zm-4.19 12.19c1.65 0 2.78.4 3.53 1.09a.98.98 0 0 0 0 .03 3.2 3.2 0 0 1 1.16 2.66c0 .25-.02.73-.1 1.44a8.83 8.83 0 0 1-.34 1.8l-1.87 6.66c-.17.58-.31 1.2-.44 1.91s-.19 1.28-.19 1.75c0 1.03.2 1.96.94 2.56.72.58 1.61.7 2.69.7.32 0 .7-.1 1.06-.16l-2.69 1a.98.98 0 0 0-.03 0c-.76.27-1.67.43-2.78.43-1.67 0-2.83-.4-3.62-1.1a3.31 3.31 0 0 1-1.19-2.65 18.27 18.27 0 0 1 .47-3.31l1.84-6.6a.98.98 0 0 0 0-.02c.18-.67.33-1.3.44-1.88a8.5 8.5 0 0 0 .19-1.75c0-1-.17-1.88-.81-2.5-.66-.63-1.57-.78-2.69-.78-.34 0-.65.1-.97.16.86-.33 1.7-.66 2.5-.9a.98.98 0 0 0 .03 0c1.06-.35 2-.54 2.88-.54z" opacity=".24"/><path d="M48 18c-18.23 0-33 12.09-33 27 0 9.5 6 17.84 15.06 22.66-.34 2.5-1.91 8.65-9.34 10.75 9.62 1.04 16.01-3.65 19.4-7.2 2.53.52 5.17.79 7.88.79 18.23 0 33-12.09 33-27S66.22 18 48 18zm2.78 9c1.23 0 2.29.43 3.16 1.25.88.82 1.3 1.8 1.3 2.97s-.42 2.15-1.3 2.97c-.87.8-1.92 1.22-3.16 1.22s-2.3-.4-3.19-1.22c-.88-.82-1.3-1.8-1.3-2.97s.42-2.15 1.3-2.97S49.56 27 50.79 27zm-4.19 12.19c1.82 0 3.22.46 4.2 1.34 1 .87 1.46 2 1.46 3.4 0 .3-.02.8-.1 1.54a9.54 9.54 0 0 1-.37 2l-1.87 6.65a18.3 18.3 0 0 0-.4 1.82 9.77 9.77 0 0 0-.2 1.56c0 .88.2 1.5.6 1.81s1.09.47 2.06.47a8.1 8.1 0 0 0 2.81-.65l-.5 2.06a82.18 82.18 0 0 1-3.62 1.34 9.3 9.3 0 0 1-3.13.47c-1.83 0-3.26-.43-4.28-1.3a4.4 4.4 0 0 1-1.5-3.41 12.05 12.05 0 0 1 .13-1.63 19 19 0 0 1 .34-1.9l1.88-6.66a26.84 26.84 0 0 0 .4-1.81c.13-.58.2-1.1.2-1.57 0-.85-.19-1.44-.54-1.78s-1-.53-2-.53c-.49 0-.98.1-1.5.25-.5.16-.94.3-1.31.44l.5-2.06c1.23-.5 2.44-.93 3.56-1.28 1.13-.37 2.19-.56 3.2-.56z" fill="url(#l)"/><path d="M48 18c-18.23 0-33 12.09-33 27l.03.63C15.91 31.36 30.34 20 48 20c17.8 0 32.32 11.56 32.97 26 .01-.34.03-.66.03-1 0-14.91-14.78-27-33-27zm-1.6 14.22a4.22 4.22 0 0 0-.12 1 3.9 3.9 0 0 0 1.31 2.97c.89.8 1.96 1.22 3.2 1.22s2.28-.4 3.15-1.22a3.89 3.89 0 0 0 1.31-2.97 4.22 4.22 0 0 0-.12-1 4.48 4.48 0 0 1-4.34 3.19c-1.24 0-2.31-.4-3.2-1.22a3.9 3.9 0 0 1-1.18-1.97zm-4.24 10.19c-.32 0-.65.05-.97.12-.45.17-.9.32-1.35.5l-.5 2.07c.37-.14.8-.29 1.31-.44a5.34 5.34 0 0 1 1.5-.25c1 0 1.66.2 2 .53.2.2.36.46.44.81a6.89 6.89 0 0 0 .1-1.03c0-.85-.18-1.44-.53-1.78s-1-.53-2-.53zm10.03 2.75-.03.31a9.54 9.54 0 0 1-.38 2l-1.87 6.66a18.3 18.3 0 0 0-.41 1.81 9.77 9.77 0 0 0-.19 1.56 3.84 3.84 0 0 0 .13.97l.06-.53a18.21 18.21 0 0 1 .4-1.8l1.88-6.66c.19-.6.32-1.27.38-2a15.31 15.31 0 0 0 .1-1.53 5.44 5.44 0 0 0-.07-.78zM41.8 59.06c-.04.4-.06.82-.06 1.22 0 1.37.5 2.51 1.5 3.4 1.02.89 2.45 1.32 4.28 1.32 1.2 0 2.23-.15 3.13-.47a82.18 82.18 0 0 0 3.62-1.35l.5-2.06c-.26.13-.67.27-1.25.44-.2.05-.35.06-.53.1l-2.34.87a9.3 9.3 0 0 1-3.13.47c-1.83 0-3.26-.43-4.28-1.31a4.34 4.34 0 0 1-1.43-2.63zM29.7 69.44a12.33 12.33 0 0 1-8.97 8.97c1.44.15 2.8.17 4.1.1 3.94-2.74 4.97-6.9 5.24-8.85l-.37-.22z" fill="url(#m)"/></svg>