<svg xmlns="http://www.w3.org/2000/svg" xmlns:xlink="http://www.w3.org/1999/xlink" width="96" height="96"><link type="text/css" rel="stylesheet" href=""/><defs><linearGradient id="A" xlink:href="#M"><stop offset="0" stop-color="#fff"/><stop offset="1" stop-color="#fff" stop-opacity="0"/></linearGradient><linearGradient x1="36.357" y1="6" x2="36.357" y2="63.893" id="B" xlink:href="#A" /><filter x="-.192" y="-.192" width="1.384" height="1.384" color-interpolation-filters="sRGB" id="C"><feGaussianBlur stdDeviation="5.28"/></filter><linearGradient x1="48" y1="20.221" x2="48" y2="138.661" id="D" xlink:href="#A" /><radialGradient cx="48" cy="90.172" r="42" fx="48" fy="90.172" id="E" xlink:href="#A" gradientTransform="matrix(1.1573129,0,0,0.99590774,-7.5510206,0.19713193)"/><clipPath id="F"><rect width="84" height="84" rx="6" x="6" y="6" fill="#fff" fill-opacity="1" fill-rule="nonzero" stroke="none"/></clipPath><linearGradient x1="48" y1="90" x2="48" y2="5.988" id="G" xlink:href="#M"><stop offset="0" stop-color="#65a31b"/><stop offset="1" stop-color="#a0de42"/></linearGradient><linearGradient x1="48.082" y1="76.562" x2="46.655" y2="17.973" id="H" xlink:href="#M"><stop offset="0" stop-color="#dcdcdc"/><stop offset=".307" stop-color="#ebebeb"/><stop offset=".707" stop-color="#fff"/><stop offset=".845" stop-color="#fafafa"/><stop offset="1" stop-color="#f0f0f0"/></linearGradient><linearGradient x1="15" y1="48.273" x2="81" y2="48.273" id="I" xlink:href="#M"><stop offset="0" stop-color="#fff"/><stop offset="1" stop-color="#fff" stop-opacity="0"/></linearGradient><linearGradient id="J" xlink:href="#M"><stop offset="0"/><stop offset="1" stop-opacity=".588"/></linearGradient><linearGradient x1="31.876" y1="-91.867" x2="31.876" y2="-6.759" id="K" xlink:href="#J" /><linearGradient x1="32.251" y1="-90.868" x2="32.251" y2="-6.761" id="L" xlink:href="#J" /><linearGradient id="M" gradientUnits="userSpaceOnUse"/></defs><g transform="scale(1 -1)"><g fill="url(#K)"><path d="M12-95.03C6.5-95.03 1.97-90.5 1.97-85v71C1.97-8.5 6.5-3.97 12-3.97h72c5.5 0 10.03-4.52 10.03-10.03v-71c0-5.5-4.52-10.03-10.03-10.03H12z" opacity=".08"/><path d="M12-94.03c-4.972 0-9.03 4.06-9.03 9.03v71c0 4.972 4.06 9.03 9.03 9.03h72c4.972 0 9.03-4.06 9.03-9.03v-71c0-4.972-4.06-9.03-9.03-9.03H12z" opacity=".1"/><path d="M12-93c-4.4 0-8 3.6-8 8v71c0 4.4 3.6 8 8 8h72c4.4 0 8-3.6 8-8v-71c0-4.4-3.6-8-8-8H12z" opacity=".2"/><rect width="86" height="85" rx="7" x="5" y="-92" opacity=".3"/></g><rect width="84" height="84" rx="6" x="6" y="-91" opacity=".45" fill="url(#L)"/></g><rect width="84" height="84" rx="6" x="6" y="6" fill="url(#G)"/><path d="M12 6c-3.324 0-6 2.676-6 6v72c0 .335.04.65.094.97l.188.875.03.094a5.69 5.69 0 0 0 .375.813c.145.274.316.536.5.78s.374.473.594.688c.44.428.943.815 1.5 1.094.28.14.573.247.875.344-.256-.1-.487-.236-.72-.375-.007-.004-.024.004-.03 0l-.094-.062c-.12-.077-.23-.164-.344-.25l-.312-.25c-.178-.16-.347-.345-.5-.53l-.312-.406c-.025-.038-.038-.086-.062-.125l-.187-.312a5.37 5.37 0 0 1-.281-.625c-.008-.022-.024-.04-.03-.062-.032-.092-.036-.187-.062-.28l-.094-.312C7.052 85.72 7 85.364 7 85V13c0-2.782 2.218-5 5-5h72c2.782 0 5 2.218 5 5v72c0 .364-.052.72-.125 1.063l-.156.594c-.008.022-.023.04-.03.063l-.22.53-.125.25c-.055.097-.127.188-.187.28-.094.14-.205.276-.312.406a5.05 5.05 0 0 1-.469.5l-.03.03c-.138.126-.285.234-.437.344l-.312.22c-.007.004-.024-.004-.03 0-.232.14-.463.275-.72.375.302-.097.596-.204.875-.344.557-.28 1.06-.666 1.5-1.094a5.79 5.79 0 0 0 .594-.687c.184-.246.355-.508.5-.78a5.69 5.69 0 0 0 .375-.812l.03-.094c.1-.278.14-.58.188-.875.052-.318.094-.634.094-.97V12c0-3.324-2.676-6-6-6H12z" opacity=".4" fill="url(#B)"/><path d="M12 90c-3.324 0-6-2.676-6-6V12c0-.335.04-.65.094-.97l.188-.875.03-.094a5.69 5.69 0 0 1 .375-.812c.145-.274.316-.536.5-.78s.374-.473.594-.687c.44-.428.943-.815 1.5-1.094a6.14 6.14 0 0 1 .875-.344c-.256.1-.487.236-.72.375-.007.004-.024-.005-.03 0l-.094.063c-.12.077-.23.164-.344.25l-.312.25c-.178.16-.347.345-.5.53l-.312.406c-.025.038-.038.086-.062.125l-.187.313a5.37 5.37 0 0 0-.281.625c-.008.022-.024.04-.03.063-.032.092-.036.187-.062.28l-.094.313C7.052 10.28 7 10.636 7 11v72c0 2.782 2.218 5 5 5h72c2.782 0 5-2.218 5-5V11a5.09 5.09 0 0 0-.125-1.062l-.156-.594c-.008-.022-.023-.04-.03-.062l-.22-.53-.125-.25c-.055-.097-.127-.188-.187-.28a5.33 5.33 0 0 0-.312-.406 5.05 5.05 0 0 0-.469-.5l-.03-.03a4.86 4.86 0 0 0-.437-.344l-.312-.22c-.007-.005-.024.004-.03 0a4.68 4.68 0 0 0-.72-.375c.302.097.596.204.875.344a6.13 6.13 0 0 1 1.5 1.094 5.79 5.79 0 0 1 .594.688c.184.246.355.508.5.78a5.69 5.69 0 0 1 .375.813l.03.094c.1.278.14.58.188.875.052.318.094.634.094.97v72c0 3.324-2.676 6-6 6H12z" opacity=".2" fill="url(#E)"/><rect width="66" height="66" rx="12" x="15" y="15" clip-path="url(#F)" opacity=".1" fill="url(#D)" stroke="#fff" stroke-width=".5" filter="url(#C)"/><path d="M48 14.75c-20.117 0-37.25 13.556-37.25 31.25 0 10.082 5.918 18.698 14.344 24.28-.157.525-.267 1.04-.625 1.594-.92 1.424-2.132 2.647-4.844 3.438-.01.003-.02-.003-.03 0-.017.004-.014-.005-.03 0a1.18 1.18 0 0 1-.125.03c.002-.002-.106.043-.156.063-.012.005-.032.032-.03.03l-.125.03a1.2 1.2 0 0 0-.031 0v.03a1.2 1.2 0 0 0-.062 0v.03a1.2 1.2 0 0 0-.031 0 1.2 1.2 0 0 0-.125.063 1.2 1.2 0 0 0-.094.031s-.043.062-.094.094a1.2 1.2 0 0 0-.031 0c-.012.007-.02.024-.03.03s-.024-.004-.03 0c0-.002-.03 0-.03 0-.01.005.006.028 0 .03s-.026-.003-.03 0c-.017.008-.014-.002-.062.03a1.2 1.2 0 0 0-.062.031c-.023.016-.003.01-.03.03-.083.05-.02.03-.062.063 0-.002-.03 0-.03 0a1.2 1.2 0 0 0-.062.063c-.02.013.004.006-.03.03-.022.016-.003-.022-.03 0a1.2 1.2 0 0 0-.062.031c0 .001-.004.033 0 .03s-.035.002-.03 0a1.2 1.2 0 0 0-.219.188s-.04.063-.094.125c-.027.03-.07.037-.094.063-.006.007.005.025 0 .03s-.027-.005-.03 0 .003.03 0 .03c-.008.007.007.024 0 .03a1.2 1.2 0 0 0-.031.031 1.2 1.2 0 0 0-.031 0c-.005.005.004.027 0 .03a1.2 1.2 0 0 0-.031 0c-.003.003.002.03 0 .03h-.03a1.2 1.2 0 0 0-.062.063s-.055.07-.094.125c-.02.027-.014.038-.03.063-.005.007-.034.037-.03.03a1.2 1.2 0 0 0-.031.031V77c-.012.018.006-.03-.03.03a1.2 1.2 0 0 0-.031.031c.008-.01-.034.088 0 .03-.007.01-.024-.01-.03 0s.006.022 0 .03a1.2 1.2 0 0 0-.062.063 1.2 1.2 0 0 0-.062.125c-.002.004 0 .03 0 .03-.008.018-.037.068-.062.125-.015.035-.02.065-.03.094s-.006-.047-.062.094c.104-.26.06-.162-.03.063-.01.02-.022.01-.03.03s.007.012 0 .03l-.062.156a1.2 1.2 0 0 0-.062.313v.03c-.008.01-.062.062-.062.063-.006.028.004.008 0 .03-.003.01.002.02 0 .03s-.028.015-.03.03.003.012 0 .03l-.03.156v.03c-.006.027.004.008 0 .03-.003.01.002.02 0 .03-.005.023.003.01 0 .03-.001.007-.03-.007-.03 0-.025.127-.001.114 0 .188a1.2 1.2 0 0 0-.031.313v.188a1.2 1.2 0 0 0 0 .094v.063a1.2 1.2 0 0 0 0 .094 1.2 1.2 0 0 0 0 .063s-.008.063 0 .125c.004.03.028.035.03.063s-.05-.1 0 .156c.003.016.027.015.03.03s-.003.02 0 .03c.004.023-.006.004 0 .03v.03l.03.156a1.2 1.2 0 0 0 .125.281v.03a2.89 2.89 0 0 0 0 .094c.01.022.02.01.03.03s.02.01.03.03c-.001-.004.04.135 0 .03v.03l.063.156v.03c.01.022.02.01.03.03s.02.01.03.03c.004.01-.005.022 0 .03v.03a1.2 1.2 0 0 0 .031.031v.03a1.2 1.2 0 0 0 .031.031 1.2 1.2 0 0 0 .063.125v.03a1.2 1.2 0 0 0 .031.094l.094.156a41.49 41.49 0 0 1 .125.188l.094.125a1.2 1.2 0 0 0 .25.25 1.2 1.2 0 0 0 .063.031c.034.04-.016.015.03.063a1.2 1.2 0 0 0 .094.094s.024.032.063.063c.006.005.03-.002.03 0l.03.03c.002.002.017.02.03.03a1.2 1.2 0 0 0 .031.031s.028-.002.03 0-.003.03 0 .03a1.2 1.2 0 0 0 .094.094h.03a1.2 1.2 0 0 0 .094.094c-.262-.196-.2-.134.03.03.046.035.03.01.063.03a1.2 1.2 0 0 0 .219.156 2.88 2.88 0 0 0 .156.063c.035.015.065.02.094.03s-.047.006.094.063c-.26-.104-.162-.06.063.03.02.01.01.022.03.03s.012-.007.03 0l.313.125a1.2 1.2 0 0 0 .313.063c.004.003.028-.002.03 0 .01.008.062.063.063.063.028.005.008-.004.03 0 .01.003.02-.002.03 0 .016.004.015.028.03.03s.012-.003.03 0l.156.03a1.2 1.2 0 0 0 .188 0 39.76 39.76 0 0 1 .125 0c-.002 0 .056.001.094 0 .01.001.02-.001.03 0v.03h.094v-.03c9.754.958 16.717-3.14 20.906-6.937 2.1.335 4.236.594 6.53.594 20.117 0 37.25-13.556 37.25-31.25S68.117 14.75 48 14.75zm-27.562 68.5h.03v.156l-.03-.156z" opacity=".05"/><path d="M48 15.938c-19.58 0-36.062 13.148-36.062 30.063 0 9.945 5.976 18.5 14.594 23.875-.22.834-.436 1.687-1.062 2.656-1.03 1.596-2.548 3.076-5.53 3.938-.01.003-.02-.003-.03 0-.064.015-.127.036-.188.063l-.156.063.406 1-.437-1c-.015.006-.012.023-.03.03s-.048.025-.062.03-.03 0-.03 0l-.25.156c-.012.01-.047.02-.062.03.015-.01-.062.03-.062.03-.01.007-.022.026-.03.03-.015.01-.03 0-.03 0s-.082.085-.094.094-.047.02-.062.03-.02.022-.03.03-.03 0-.03 0l-.22.25c-.01.012-.02.016-.03.03-.006.006.006.025 0 .03s-.03-.003-.03 0c-.013.016-.03.03-.03.03l-.03.03-.156.22c-.01.015-.02.043-.03.063s-.022.017-.03.03-.03.03-.03.03c-.004.006.003.027 0 .03-.01.012-.03 0-.03 0l-.125.28c-.006.015-.023.043-.03.063s-.025.017-.03.03 0 .03 0 .03l-.062.156 1 .406 1.03.344-2.094-.53c-.003.015.004.043 0 .063s-.028.017-.03.03 0 .03 0 .03l-.03.156.72.156-.72-.125c-.003.015.004.043 0 .063s-.028.017-.03.03 0 .03 0 .03l1.063.22h-1.094v.188h1.094l-1.094.03v.125l.03.25c.003.015.027.012.03.03s-.003.048 0 .063 0 .03 0 .03l.03.156 1.063-.22 1.03-.28-2.03.72c.006.015.023.012.03.03s.025.048.03.063 0 .03 0 .03l.063.156.813-.344a16.82 16.82 0 0 0-.812.375c.006.015.023.012.03.03s.025.048.03.063 0 .03 0 .03l1-.406-.937.563.094.156c.02.032.04.064.063.094l.094.125.875-.656.844-.687-1.594 1.47c.012.012.047.016.063.03s.02.05.03.063l.156.125c.012.01.016.02.03.03l.03.03c.008.007.026-.004.03 0s-.006.025 0 .03l.03.03.125.094c.012.01.016.02.03.03s.05.022.063.03 0 .03 0 .03l.28.125c.015.006.043.023.063.03s.017.025.03.03.03 0 .03 0l.313.125.406-1 .313-1.03-.5 2.094c.015.003.043-.004.063 0s.017.028.03.03.03 0 .03 0l.156.03c.042.002.083.002.125 0 .02.01.04.022.062.03-.001 0 .095 0 .094 0v-.03c9.746 1.002 16.58-3.248 20.563-7 2.215.37 4.5.656 6.875.656 19.58 0 36.063-13.148 36.063-30.062S67.58 15.938 48 15.938zm2.78 15.125c.6 0 .6-.013 1 .375.016.015.014.015.03.03l.03.03c.463.437.344.17.344.72 0 .558.084.364-.312.72-.014.013-.018.02-.03.03-.372.34-.46.375-1.062.375-.607 0-.713-.035-1.094-.375-.024-.022-.01-.012-.03-.03-.396-.355-.313-.16-.312-.72 0-.587-.133-.306.344-.75.44-.4.474-.406 1.094-.406zM47.3 43.438c.515.092 1.136.142 1.344.313a39.46 39.46 0 0 0 .094.094c.26.227.336.317.375.406s.062.27.063.688c0 .223.032.607-.03 1.22l-.03.03c-.042.505-.122.98-.25 1.406v.03L47 54.25v.03c-.177.622-.362 1.318-.5 2.094-.137.77-.25 1.456-.25 2.125 0 .713.16 1.542.47 2.344-.7-.093-1.173-.24-1.437-.47-.522-.476-.47-.372-.47-1.094 0-.355.002-.782.063-1.22.06-.45.198-1.015.344-1.625.026-.102.036-.207.03-.312l1.656-5.938.03-.03a1.1 1.1 0 0 0 .094-.28.64.64 0 0 0 0-.062h.03v-.03c.01-.04.026-.074.03-.094s.001-.042 0-.062c.15-.577.296-1.17.406-1.75.084-.437.08-.45 0-.03.147-.717.25-1.424.25-2.125 0-.695-.153-1.496-.437-2.28z" opacity=".05"/><path d="M48 17.03c-19.097 0-34.97 12.762-34.97 28.97 0 9.813 6.015 18.3 14.813 23.5-.228 1.047-.613 2.3-1.47 3.625-1.15 1.778-2.947 3.48-6.22 4.406h-.03l-.312.126-.125.094-.156.094-.125.094-.094.125-.125.125-.094.156-.094.125-.062.156a1955.25 1955.25 0 0 1-.062.156l-.03.156a1348.62 1348.62 0 0 1-.031.156l-.03.156v.344l.03.156a829.92 829.92 0 0 1 .031.156l.063.156a770.25 770.25 0 0 1 .063.156l.063.156.094.156a813.8 813.8 0 0 1 .094.125l.125.125.125.094.125.125.125.094.156.063a959.18 959.18 0 0 1 .156.063l.156.063a685.01 685.01 0 0 1 .156.031l.156.03h.03c9.755 1.06 16.452-3.36 20.25-7.062 2.33.4 4.728.688 7.22.688 19.097 0 34.97-12.76 34.97-28.97S67.097 17.03 48 17.03zm2.78 12.938c.8 0 1.215.182 1.78.72h.03v.03c.543.5.687.803.688 1.5s-.12 1.003-.687 1.53c-.538.493-1.014.688-1.812.688s-1.293-.2-1.844-.687c-.567-.528-.688-.822-.687-1.53s.12-1.003.688-1.53 1.052-.72 1.844-.72zm-4.187 12.188c1.4 0 2.2.306 2.75.75l.03.03c.03.033.06.065.094.094.625.548.812.932.813 1.906 0 .195.008.67-.062 1.344a7.96 7.96 0 0 1-.312 1.625L48.03 54.56a19.99 19.99 0 0 0-.47 2c-.133.742-.22 1.38-.22 1.938 0 1.153.245 2.482 1.313 3.344-.38.057-.66.188-1.125.188-1.516 0-2.385-.338-2.97-.844-.634-.58-.844-1.015-.844-1.906 0-.4.025-.88.094-1.375.07-.513.194-1.094.344-1.72h-.03l1.844-6.562v-.03H46a.64.64 0 0 0 0-.062l.03-.125c.154-.596.3-1.167.406-1.72.002-.01-.002-.022 0-.03.14-.673.22-1.318.22-1.937 0-1.102-.198-2.332-1.125-3.22-.065-.062-.15-.07-.22-.125.426-.08.914-.22 1.28-.22z" opacity=".12"/><path d="M48 18.03C29.34 18.03 14.03 30.44 14.03 46c0 9.667 5.998 18.09 14.938 23.094-.21 1.193-.65 2.862-1.75 4.563-1.255 1.943-3.3 3.826-6.78 4.813a.98.98 0 0 0 .188 1.906c9.7 1.053 16.246-3.496 19.844-7.125 2.43.454 4.934.72 7.53.72 18.66 0 33.97-12.408 33.97-27.97S66.66 18.03 48 18.03zm2.78 10.938c1.008 0 1.765.333 2.47 1a.98.98 0 0 0 .031 0c.713.664 1 1.334 1 2.25s-.287 1.586-1 2.25c-.7.65-1.484.97-2.5.97s-1.816-.315-2.53-.97c-.713-.664-1-1.334-1-2.25s.287-1.586 1-2.25c.72-.67 1.524-1 2.53-1zm-4.187 12.188c1.647 0 2.777.4 3.53 1.094a.98.98 0 0 0 0 .031c.79.692 1.156 1.478 1.156 2.656 0 .25-.02.737-.094 1.438a8.83 8.83 0 0 1-.344 1.813l-1.875 6.656c-.164.574-.31 1.196-.437 1.906s-.188 1.277-.187 1.75c0 1.03.192 1.96.938 2.563.715.577 1.612.688 2.688.688.324 0 .702-.1 1.063-.156l-2.687 1a.98.98 0 0 0-.031 0c-.765.272-1.675.438-2.78.438-1.675 0-2.83-.404-3.625-1.094a3.31 3.31 0 0 1-1.187-2.656c0-.473.053-.982.125-1.5.074-.55.187-1.157.344-1.812l1.844-6.594a.98.98 0 0 0 0-.031c.174-.665.327-1.293.438-1.875.13-.624.187-1.187.188-1.75 0-.992-.166-1.882-.812-2.5-.657-.628-1.567-.78-2.687-.78-.337 0-.648.096-.97.156.856-.325 1.707-.66 2.5-.906a.98.98 0 0 0 .031 0c1.055-.342 1.997-.53 2.875-.53z" opacity=".24"/><path d="M48 18c-18.225 0-33 12.088-33 27 0 9.498 6 17.843 15.063 22.656-.345 2.5-1.914 8.65-9.344 10.75 9.623 1.046 16.014-3.646 19.406-7.187 2.524.506 5.16.78 7.875.78 18.225 0 33-12.088 33-27S66.225 18 48 18zm2.78 9c1.234 0 2.288.427 3.156 1.25.884.823 1.312 1.8 1.313 2.97s-.43 2.146-1.312 2.97c-.87.808-1.922 1.22-3.156 1.22s-2.304-.4-3.187-1.22c-.884-.823-1.313-1.8-1.312-2.97s.43-2.146 1.313-2.97S49.547 27 50.78 27zm-4.187 12.188c1.813 0 3.212.46 4.188 1.344 1 .87 1.47 2.004 1.47 3.406 0 .3-.018.8-.094 1.53a9.54 9.54 0 0 1-.375 2l-1.875 6.656a18.3 18.3 0 0 0-.406 1.813c-.122.686-.188 1.212-.187 1.563 0 .884.198 1.493.594 1.813s1.087.47 2.063.47c.457 0 .983-.066 1.563-.22.58-.168 1-.316 1.25-.437l-.5 2.063a82.18 82.18 0 0 1-3.625 1.344c-.9.32-1.936.47-3.125.47-1.83 0-3.26-.43-4.28-1.312-1.006-.9-1.5-2.035-1.5-3.406a12.05 12.05 0 0 1 .125-1.625 19 19 0 0 1 .344-1.906l1.875-6.656a26.84 26.84 0 0 0 .406-1.812c.122-.58.187-1.1.188-1.562 0-.853-.18-1.446-.53-1.78s-1-.53-2-.53c-.488 0-.982.098-1.5.25-.503.152-.947.3-1.312.438l.5-2.062c1.234-.503 2.435-.93 3.563-1.28 1.128-.366 2.182-.562 3.188-.562z" fill="url(#H)"/><path d="M48 18c-18.225 0-33 12.088-33 27 0 .208.025.418.03.625C15.915 31.36 30.344 20 48 20c17.8 0 32.318 11.557 32.97 26 .015-.336.03-.66.03-1 0-14.912-14.775-27-33-27zm-1.594 14.22a4.22 4.22 0 0 0-.125 1c0 1.158.43 2.146 1.313 2.97.884.808 1.953 1.22 3.188 1.22s2.288-.4 3.156-1.22c.884-.823 1.312-1.8 1.313-2.97a4.22 4.22 0 0 0-.125-1c-.18.74-.568 1.392-1.187 1.97-.87.808-1.922 1.22-3.156 1.22s-2.304-.4-3.187-1.22c-.62-.577-1.006-1.228-1.187-1.97zm-4.25 10.188c-.316 0-.643.055-.97.125-.445.165-.887.314-1.344.5l-.5 2.063c.366-.137.8-.285 1.313-.437.518-.152 1.012-.25 1.5-.25 1 0 1.65.196 2 .53.197.2.35.46.438.813a6.89 6.89 0 0 0 .094-1.03c0-.853-.18-1.446-.53-1.78s-1-.53-2-.53zm10.03 2.75l-.03.313a9.54 9.54 0 0 1-.375 2l-1.875 6.656a18.3 18.3 0 0 0-.406 1.813c-.122.686-.188 1.212-.187 1.563a3.84 3.84 0 0 0 .125.97c.026-.173.027-.33.063-.53a18.21 18.21 0 0 1 .406-1.812l1.875-6.656c.183-.6.314-1.27.375-2a15.31 15.31 0 0 0 .094-1.53 5.44 5.44 0 0 0-.062-.78zM41.813 59.063c-.046.4-.062.82-.062 1.22 0 1.37.494 2.507 1.5 3.406 1.02.88 2.452 1.31 4.28 1.31 1.2 0 2.226-.15 3.125-.47a82.18 82.18 0 0 0 3.625-1.344l.5-2.062c-.26.122-.67.27-1.25.438-.2.05-.354.062-.53.094l-2.344.875c-.9.32-1.936.47-3.125.47-1.83 0-3.26-.43-4.28-1.312a4.34 4.34 0 0 1-1.437-2.625zM29.688 69.438c-.8 2.926-2.942 7.265-8.97 8.97 1.44.156 2.8.17 4.094.094 3.95-2.735 4.98-6.9 5.25-8.844-.13-.07-.247-.15-.375-.22z" fill="url(#I)"/></svg>