<svg xmlns="http://www.w3.org/2000/svg" xmlns:xlink="http://www.w3.org/1999/xlink" width="128" height="128"><style><![CDATA[.B{clip-path:none}.C{fill-rule:evenodd}]]></style><defs><linearGradient xlink:href="#E" id="A" gradientTransform="matrix(2.4999996,0,0,2.4999996,174,-145.99998)" x1="-13.757" y1="76.708" x2="-62.425" y2="104.807"/><linearGradient xlink:href="#I" id="B" spreadMethod="reflect" x1="73.743" y1="15.337" x2="80" y2="19.282"/><radialGradient id="C" gradientTransform="matrix(2.4999996,0,0,2.4999996,174,-145.99998)" cx="-44" cy="84" fx="-60" fy="100" r="24" xlink:href="#N"><stop offset="0" stop-opacity=".78"/><stop offset="1" stop-opacity="0"/></radialGradient><filter id="D" height="1.25" y="-.125" width="1.204" x="-.102"><feGaussianBlur stdDeviation=".447"/></filter><radialGradient r="55.148" cy="-.215" cx="48" id="E" xlink:href="#N"><stop offset="0" stop-color="#ff0101"/><stop offset="1" stop-color="maroon"/></radialGradient><radialGradient xlink:href="#E" id="F" gradientTransform="matrix(2.4999996,0,0,2.4999996,174,-145.99998)" cx="-44" cy="84" fx="-40" fy="96" r="20"/><linearGradient id="G" x1="46.484" y1="5.348" x2="46.484" y2="124.026" xlink:href="#N"><stop offset="0" stop-color="#ff8787"/><stop offset="1" stop-color="#ff8787" stop-opacity="0"/></linearGradient><linearGradient xlink:href="#I" id="H" x1="34" y1="-16" x2="46.459" y2="94.004"/><linearGradient id="I" xlink:href="#N"><stop offset="0" stop-color="#fff"/><stop offset="1" stop-color="#fff" stop-opacity="0"/></linearGradient><linearGradient xlink:href="#I" id="J" x1="84" y1="94" x2="54" y2="34"/><filter id="K"><feGaussianBlur stdDeviation=".203"/></filter><linearGradient id="L" x1="61.623" y1="57.513" x2="62.098" y2="85.106" xlink:href="#N"><stop offset="0" stop-color="#fff"/><stop offset="1" stop-color="#fff" stop-opacity="0"/></linearGradient><path id="M" d="M69.876 12.058c-1.077.065-2.528.22-3 .938l1.6 11.138L79 23.374v-.47c1.74-2.57-4.78-10.907-9.124-10.847z"/><linearGradient id="N" gradientUnits="userSpaceOnUse"/></defs><path d="M19.156 44C10.862 44 4 50.862 4 59.156v9.687C4 77.138 10.862 84 19.156 84h89.688C117.138 84 124 77.138 124 68.844v-9.687C124 50.862 117.138 44 108.844 44H19.156z" fill="url(#A)" class="B"/><use xlink:href="#M" transform="matrix(1.25 0 0 1.25 24.889073 28.928032)" opacity=".55" fill="url(#B)" filter="url(#D)" class="B C"/><path d="M19.156 44C10.862 44 4 47.135 4 55.43c0-2.366 0 8.478 0 13.415C4 77.138 10.862 84 19.156 84h89.688C117.138 84 124 77.138 124 68.844v-9.687C124 50.862 117.138 44 108.844 44H19.156z" opacity=".58" fill="url(#C)" class="B"/><use xlink:href="#M" transform="matrix(-1.25 0 0 1.25 103.11092 28.928032)" opacity=".55" fill="url(#B)" filter="url(#D)" class="B C"/><path d="M19.156 54C16.32 54 14 56.32 14 59.156v9.687C14 71.68 16.32 74 19.156 74h89.688c2.835 0 5.156-2.32 5.156-5.156v-9.687c0-2.835-2.32-5.156-5.156-5.156H19.156z" fill="url(#F)" class="B"/><path d="M19.156 54C16.32 54 14 56.32 14 59.156v9.687c0 .275.114.518.156.78C22.3 70.8 30.885 71.5 39.78 71.5c28.754 0 54.515-6.575 71.484-16.875-.723-.388-1.548-.625-2.422-.625H19.156z" fill="url(#G)" class="B"/><path d="M19.156 54C16.32 54 14 56.32 14 59.156v2.5C14 58.82 16.32 55 19.156 55v-1zm89.243 1.28C91.5 64.347 63.843 71.266 37.125 71.266c-4.448 0-8.85-.225-13.125-.547 5.15.467 10.45.78 15.86.78 26.925 0 51.21-5.81 68.125-15 .02-.01.058.01.078 0 1.106-.603 2.162-1.243 3.203-1.875-.34-.183-.713-.362-1.094-.47-.025-.007-.053.006-.078 0-.38-.1-.763-.15-1.172-.156h-1.25l.728 1.28z" fill="url(#H)" class="B"/><path d="M19.156 54C16.32 54 14 56.32 14 59.156v2.5C14 58.82 16.32 55 19.156 55v-1zm89.487 1.28c-16.898 9.068-44.8 15.986-71.52 15.986-4.448 0-8.85-.225-13.125-.547 5.15.467 10.45.78 15.86.78 26.925 0 51.21-5.81 68.125-15 .02-.01.058.01.078 0 1.106-.603 2.162-1.243 3.203-1.875-.34-.183-.713-.362-1.094-.47-.025-.007-.053.006-.078 0-.38-.1-.763-.15-1.172-.156h-1.25l.972 1.28z" fill="url(#J)" class="B"/><path d="M46.062 60A2.07 2.07 0 0 0 44 62.062v3.875A2.07 2.07 0 0 0 46.062 68h35.875A2.07 2.07 0 0 0 84 65.937v-3.875A2.07 2.07 0 0 0 81.938 60H46.062z" transform="matrix(2.5 0 0 2.5 -95.999962 -95.99996)" fill="none" stroke="url(#L)" stroke-width=".5" stroke-linejoin="round" stroke-dashoffset="1.08779998" filter="url(#K)" class="B"/></svg>