<svg xmlns="http://www.w3.org/2000/svg" width="128" height="128"><defs><filter id="A"><feGaussianBlur stdDeviation="4"/></filter><linearGradient id="B" x1="17.949" y1="40" x2="110.052" y2="40" gradientUnits="userSpaceOnUse"><stop offset="0" stop-color="#fff"/><stop offset=".8" stop-color="#fff" stop-opacity="0"/></linearGradient><radialGradient id="C" gradientTransform="matrix(1.0833333,0,0,1.0833333,1.1666673,1.1666673)" cx="58" cy="58" r="48" gradientUnits="userSpaceOnUse"><stop offset="0" stop-color="#fff"/><stop offset=".574" stop-color="#fff"/><stop offset=".684" stop-color="#fbfbfb"/><stop offset=".8" stop-color="#eee"/><stop offset=".9" stop-color="#ddd"/><stop offset="1" stop-color="#bbb"/></radialGradient><linearGradient id="D" gradientUnits="userSpaceOnUse" x1="58.001" y1="116" x2="58.001" y2="0"><stop offset="0" stop-color="#555"/><stop offset=".274" stop-color="#595959"/><stop offset=".562" stop-color="#666"/><stop offset=".856" stop-color="#7b7b7b"/><stop offset="1" stop-color="#888"/></linearGradient><radialGradient id="E" gradientUnits="userSpaceOnUse" gradientTransform="matrix(0.6667,0,0,0.7574,20.7214,14.064)" r="40.029" cy="59.187" cx="53.198"><stop offset="0"/><stop offset="1" stop-color="#666"/></radialGradient></defs><circle cx="58" cy="58" r="58" transform="matrix(1.103448 0 0 1.103448 0 -.000003)" fill="url(#D)"/><g transform="matrix(1.083333 0 0 1.083333 1.166669 1.166669)" filter="url(#A)" opacity=".8"><path d="M10 58c0 26.467 21.533 48 48 48s48-21.533 48-48-21.533-48-48-48-48 21.533-48 48z"/></g><path d="M12 64c0 28.673 23.327 52 52 52s52-23.327 52-52-23.327-52-52-52-52 23.327-52 52z" fill="url(#C)"/><path transform="translate(6 6)" d="M42 26l48 32-48 32V26z" fill="url(#E)"/><path d="M64 64c17.79 0 33.967-5.13 46.052-13.51C104.2 30.582 85.776 16 64 16S23.8 30.583 17.95 50.49C30.032 58.87 46.2 64 64 64z" opacity=".5" fill="url(#B)"/></svg>