<svg width="128" height="128" xmlns="http://www.w3.org/2000/svg" xmlns:xlink="http://www.w3.org/1999/xlink"><defs><radialGradient id="A" cx="80.342" cy="68.341" gradientTransform="matrix(.26311 4.7377e-8 -1.511e-8 .75193 26.861 12.612)" xlink:href="#B"/><radialGradient id="B" r="40.029" gradientUnits="userSpaceOnUse"><stop offset="0"/><stop stop-color="#666" offset="1"/></radialGradient><filter id="C"><feGaussianBlur stdDeviation="4"/></filter><linearGradient id="D" x1="17.949" x2="110.05" y1="40" y2="40" gradientUnits="userSpaceOnUse"><stop stop-color="#fff" offset="0"/><stop stop-color="#fff" stop-opacity="0" offset=".8"/></linearGradient><radialGradient id="E" cx="58" cy="58" r="48" gradientTransform="matrix(1.0833 0 0 1.0833 1.1667 1.1667)" gradientUnits="userSpaceOnUse"><stop stop-color="#fff" offset="0"/><stop stop-color="#fff" offset=".574"/><stop stop-color="#fbfbfb" offset=".684"/><stop stop-color="#eee" offset=".8"/><stop stop-color="#ddd" offset=".9"/><stop stop-color="#bbb" offset="1"/></radialGradient><linearGradient id="F" x1="58.001" x2="58.001" y1="116" gradientUnits="userSpaceOnUse"><stop stop-color="#555" offset="0"/><stop stop-color="#595959" offset=".274"/><stop stop-color="#666" offset=".562"/><stop stop-color="#7b7b7b" offset=".856"/><stop stop-color="#888" offset="1"/></linearGradient><radialGradient id="G" cx="80.342" cy="68.341" gradientTransform="matrix(.26311 4.7377e-8 -1.511e-8 .75193 58.861 12.612)" xlink:href="#B"/></defs><circle transform="matrix(1.1034 0 0 1.1034 0 -3e-6)" cx="58" cy="58" r="58" fill="url(#F)"/><g transform="matrix(1.0833 0 0 1.0833 1.1667 1.1667)" filter="url(#C)" opacity=".8"><path d="m10 58c0 26.467 21.533 48 48 48s48-21.533 48-48-21.533-48-48-48-48 21.533-48 48z"/></g><path d="m12 64c0 28.673 23.327 52 52 52s52-23.327 52-52-23.327-52-52-52-52 23.327-52 52z" fill="url(#E)"/><path d="M40 40l16 .39-.01 47.57L40.102 88 40 40z" fill="url(#A)"/><path d="M72 40l16 .39-.01 47.57L72.102 88 72 40z" fill="url(#G)"/><path d="M64 64c17.79 0 33.967-5.13 46.052-13.51C104.2 30.582 85.776 16 64 16S23.8 30.583 17.95 50.49C30.032 58.87 46.2 64 64 64z" fill="url(#D)" opacity=".5"/></svg>
