<svg xmlns="http://www.w3.org/2000/svg" width="128" height="128"><defs><radialGradient id="A" gradientTransform="matrix(0.7893271,4.7377213e-8,-4.5330742e-8,0.7519296,0.583528,12.61245)" cx="80.342" cy="68.341" fx="80.342" fy="68.341" gradientUnits="userSpaceOnUse" r="40.029"><stop offset="0"/><stop offset="1" stop-color="#666"/></radialGradient><filter id="B"><feGaussianBlur stdDeviation="4"/></filter><linearGradient id="C" x1="17.949" y1="40" x2="110.052" y2="40" gradientUnits="userSpaceOnUse"><stop offset="0" stop-color="#fff"/><stop offset=".8" stop-color="#fff" stop-opacity="0"/></linearGradient><radialGradient id="D" gradientTransform="matrix(1.0833333,0,0,1.0833333,1.1666673,1.1666673)" cx="58" cy="58" r="48" gradientUnits="userSpaceOnUse"><stop offset="0" stop-color="#fff"/><stop offset=".574" stop-color="#fff"/><stop offset=".684" stop-color="#fbfbfb"/><stop offset=".8" stop-color="#eee"/><stop offset=".9" stop-color="#ddd"/><stop offset="1" stop-color="#bbb"/></radialGradient><linearGradient id="E" gradientUnits="userSpaceOnUse" x1="58.001" y1="116" x2="58.001" y2="0"><stop offset="0" stop-color="#555"/><stop offset=".274" stop-color="#595959"/><stop offset=".562" stop-color="#666"/><stop offset=".856" stop-color="#7b7b7b"/><stop offset="1" stop-color="#888"/></linearGradient></defs><circle cx="58" cy="58" r="58" transform="matrix(1.103448 0 0 1.103448 0 -.000003)" fill="url(#E)"/><g transform="matrix(1.083333 0 0 1.083333 1.166669 1.166669)" filter="url(#B)" opacity=".8"><path d="M10 58c0 26.467 21.533 48 48 48s48-21.533 48-48-21.533-48-48-48-48 21.533-48 48z"/></g><path d="M12 64c0 28.673 23.327 52 52 52s52-23.327 52-52-23.327-52-52-52-52 23.327-52 52z" fill="url(#D)"/><path d="M40 40l48 .39-.032 47.57L40.305 88 40 40z" fill="url(#A)"/><path d="M64 64c17.79 0 33.967-5.13 46.052-13.51C104.2 30.582 85.776 16 64 16S23.8 30.583 17.95 50.49C30.032 58.87 46.2 64 64 64z" opacity=".5" fill="url(#C)"/></svg>