<svg xmlns="http://www.w3.org/2000/svg" width="128" height="128" viewBox="0 0 33.867 33.867"><defs><filter id="A"><feGaussianBlur stdDeviation="1.859"/></filter><linearGradient id="B" x1="6.544" y1="273.669" x2="43.284" y2="273.669" gradientUnits="userSpaceOnUse"><stop offset="0" stop-color="#8e79b9"/><stop offset="1" stop-color="#462886"/></linearGradient></defs><g transform="matrix(1.139215 0 0 1.139215 -2.314624 -302.139289)"><path transform="matrix(.382706 0 0 .382704 -14.358612 255.29933)" d="M48 42v52h12V74h36.094v8.063c.001.91.372 1.5.813 1.72.56.28 1.406.203 1.938-.187h.03l.03-.03 16.97-13.906c.03-.022.064-.04.094-.062.43-.33.75-.964.75-1.5s-.32-1.17-.75-1.5l-.187-.125-.125-.094-.03-.03-16.75-13.75h-.03c-.3-.222-.652-.36-1.03-.375-.9-.03-1.72.8-1.72 1.875V62H60V42z" opacity=".512" fill-opacity=".734" filter="url(#A)"/><path d="M3.482 270.608v19.9h4.592v-7.654h13.813v3.086c0 .35.142.574.31.658a.77.77 0 0 0 .741-.072h.012l6.4-5.262.012-.012.048-.036.036-.024c.01-.01.025-.016.036-.024.165-.126.287-.37.287-.574s-.123-.448-.287-.574l-.072-.048-.048-.036-.012-.012-6.4-5.262h-.012c-.114-.085-.25-.138-.395-.144-.345-.01-.66.306-.658.718v3.026H8.075v-7.654z" fill="url(#B)" transform="translate(.529 -.529)"/></g></svg>