<svg xmlns="http://www.w3.org/2000/svg" xmlns:xlink="http://www.w3.org/1999/xlink" width="128" height="128"><style><![CDATA[.G{color-interpolation-filters:sRGB}.H{fill:#fff}.I{fill:#363636}.J{filter:url(#a)}.K{fill-rule:evenodd}.L{stroke-linejoin:round}]]></style><defs><path id="A" d="M192 210.313c-.046.1-.084.132-.125.312-.057.253.015.896 0 1.28.46-.132.955.03 1.25.406 5.908 7.6 6.273 12.264 7.594 17.032.068.224.068.463 0 .687l-.47 1.344c.514.394 1.046.846 1.47 1.063.313.16.542.192.625.187l.125-3.375c-2.917-6.998-4.493-13.44-10.47-18.938z"/><path id="B" d="M210.03 276.656c-1.882.082-3.743.615-4.75 1.25-1.565.988-3.246 3.92-3.406 5.938-1.68 21.137-4.022 62.337-6.156 100l-4.78 78.312c.1.267.3.773.75 1.47.252.4.533.675.718.844 3.84-1.55 6.637-3.07 10.375-3.53 3.754-.462 8.3.407 15.313 2.843.26-.2.53-.363.844-.812.448-.645.655-1.445.656-1.594l-2-179.438c-.01-.495-.337-1.573-.906-2.5s-1.376-1.704-1.813-1.937c-1.023-.544-2.96-.925-4.844-.844z"/><linearGradient id="C" x1="244.142" x2="224.534" y1="77.923" y2="98.228" gradientUnits="userSpaceOnUse" xlink:href="#L"><stop offset="0"/><stop offset=".086" stop-color="#666"/><stop offset=".164"/><stop offset=".723"/><stop offset=".833" stop-color="#5a5a5a"/><stop offset=".903" stop-color="#4d4d4d"/><stop offset="1"/></linearGradient><linearGradient id="D" gradientUnits="userSpaceOnUse" y2="98.228" y1="77.923" x2="224.534" x1="244.142" spreadMethod="pad"><stop offset="0" stop-color="#810000"/><stop stop-color="#a40000" offset=".086"/><stop offset=".164" stop-color="#950000"/><stop offset=".723" stop-color="#b00000"/><stop stop-color="#de0000" offset=".833"/><stop stop-color="#d70000" offset=".903"/><stop offset="1" stop-color="#842222"/></linearGradient><path id="E" d="M217.183 52.615l2.232 3.033 1.724 7.814c.5 2.312 2.815 3.576 4.8 4.644 2.612 1.398 9.003 2.106 9.003 2.106l32.73 32.047c2.536 13.084-13.43 21.9-18.9 20.842l-32.95-31.82s-.162-5.193-1.2-7.298c-1.483-3.03-3.5-6.345-6.905-7.107l-7.095-1.582-2.535-2-.113-4.5 4.532-5.724 6.167-6.342 3.838-2.88z"/></defs><link type="text/css" rel="stylesheet" href=""/><linearGradient id="F" x1="148.569" x2="157.724" y1="7.523" y2="15.45" gradientUnits="userSpaceOnUse"><stop offset="0" stop-color="#fff" stop-opacity=".74"/><stop offset=".25" stop-color="#fff" stop-opacity="0"/><stop offset=".5" stop-color="#ccc" stop-opacity="0"/><stop offset="1" stop-color="#9a9a9a"/></linearGradient><linearGradient id="G" x1="161.939" x2="148.208" y1="16.742" y2="2.511" gradientUnits="userSpaceOnUse"><stop offset="0" stop-color="#fff"/><stop offset="1" stop-color="#393939"/></linearGradient><linearGradient id="H" x1="159.417" x2="141.782" y1="20.523" y2="2.247" gradientUnits="userSpaceOnUse"><stop offset="0" stop-color="#d3d6d6"/><stop offset="1" stop-color="#f7f7f7"/></linearGradient><linearGradient id="I" x1="176.247" x2="182.757" y1="39.148" y2="32.489" gradientUnits="userSpaceOnUse"><stop offset="0" stop-color="#979797"/><stop offset=".047" stop-color="#a2a2a2"/><stop offset=".199" stop-color="#e1e1e1"/><stop offset=".326" stop-color="#fff"/><stop offset=".482" stop-color="#cbcbcb"/><stop offset=".629" stop-color="#3d3d3d"/><stop offset=".742" stop-color="#f5f5f5"/><stop offset=".855" stop-color="#d6d6d6"/><stop offset="1" stop-color="#aeaeae"/></linearGradient><linearGradient x1="218.325" x2="211.786" y1="59.292" y2="66.064" gradientUnits="userSpaceOnUse"><stop offset="0" stop-color="#764d00"/><stop offset=".236" stop-color="#b96900"/><stop offset=".343" stop-color="#ff9a00"/><stop offset="1" stop-color="#ff9200"/></linearGradient><linearGradient id="J" x1="249.025" x2="242.358" y1="88.9" y2="95.804" gradientUnits="userSpaceOnUse"><stop stop-color="#760000" offset="0" stop-opacity=".785"/><stop stop-color="#cb1e00" offset=".236" stop-opacity=".984"/><stop stop-color="#e02d00" offset=".343"/><stop stop-color="#ad1300" offset="1"/></linearGradient><filter id="K" class="G"><feGaussianBlur stdDeviation="2.376"/></filter><linearGradient id="L" x1="307.689" x2="399.745" y1="397.966" y2="300.041" gradientUnits="userSpaceOnUse"><stop offset="0"/><stop offset="1" stop-opacity="0"/></linearGradient><filter id="M" width="1.544" height="1.756" x="-.272" y="-.378" class="G"><feGaussianBlur stdDeviation="1.398"/></filter><filter id="N" width="1.183" height="1.401" x="-.091" y="-.2" class="G"><feGaussianBlur stdDeviation="1.542"/></filter><filter id="O" width="1.416" height="1.021" x="-.208" y="-.011" class="G"><feGaussianBlur stdDeviation=".824"/></filter><filter id="P" width="1.48" height="1.026" x="-.24" y="-.013" class="G"><feGaussianBlur stdDeviation="1.151"/></filter><linearGradient id="Q" x1="195.938" x2="219.613" y1="370.557" y2="370.557" gradientUnits="userSpaceOnUse"><stop offset="0" stop-color="#bababa"/><stop offset="1" stop-color="#8c8c8c"/></linearGradient><filter id="R" class="G"><feGaussianBlur stdDeviation=".551"/></filter><linearGradient id="S" x1="223.019" x2="192.019" y1="375.131" y2="375.131" gradientUnits="userSpaceOnUse"><stop offset="0" stop-color="#ddd"/><stop offset="1" stop-color="#d9d9d9" stop-opacity="0"/></linearGradient><filter id="T" class="G"><feGaussianBlur stdDeviation=".576"/></filter><linearGradient id="U" x1="187.5" x2="223.019" y1="370.631" y2="370.631" gradientUnits="userSpaceOnUse"><stop offset="0" stop-color="#454545"/><stop offset="1" stop-color="#454545" stop-opacity="0"/></linearGradient><filter id="V" width="1.246" height="1.089" x="-.123" y="-.044" class="G"><feGaussianBlur stdDeviation=".889"/></filter><linearGradient id="W" x1="251.156" x2="189.156" y1="345.584" y2="345.584" gradientUnits="userSpaceOnUse"><stop offset="0" stop-color="#717171"/><stop offset="1" stop-color="#b5b5b5" stop-opacity="0"/></linearGradient><linearGradient id="X" x1="296.156" x2="214.656" y1="474.271" y2="221.271" gradientUnits="userSpaceOnUse"><stop offset="0" stop-color="#b2b2b2"/><stop offset=".116" stop-color="#b5b5b5"/><stop offset=".701" stop-color="#d0cfca"/><stop offset=".87" stop-color="#d1d1d1"/><stop offset=".943" stop-color="#a0a0a0"/><stop offset="1" stop-color="#838383"/></linearGradient><linearGradient id="Y" x1="222.623" x2="226.944" y1="207.193" y2="218.471" gradientUnits="userSpaceOnUse"><stop offset="0" stop-color="#6e6e6e"/><stop offset="1" stop-color="#e4e4e4"/></linearGradient><linearGradient id="Z" x1="177.563" x2="244.213" y1="216.016" y2="168.016" gradientUnits="userSpaceOnUse"><stop offset="0" stop-color="#b2b0a6"/><stop offset=".208" stop-color="#e3e4df"/><stop offset=".518" stop-color="#d8d8d6"/><stop offset="1" stop-color="#b0b1ac"/></linearGradient><filter id="a" width="1.42" height="1.2" x="-.21" y="-.1" class="G"><feGaussianBlur stdDeviation=".93"/></filter><linearGradient id="b" x1="175.999" x2="184.51" y1="192.611" y2="162.559" gradientUnits="userSpaceOnUse"><stop offset="0" stop-color="#e3e3e3"/><stop offset="1" stop-color="#c5c5c5"/></linearGradient><linearGradient id="c" x1="197.642" x2="203.294" y1="212.013" y2="231.05" gradientUnits="userSpaceOnUse"><stop offset="0" stop-color="#454545"/><stop offset=".396" stop-color="#fff"/><stop offset=".563" stop-color="#fff"/><stop offset="1" stop-color="#686868"/></linearGradient><filter id="d" class="G"><feGaussianBlur stdDeviation=".517"/></filter><radialGradient id="e" cx="198.458" cy="191.15" r="25.292" gradientTransform="matrix(0.99972,0.0238,-0.01977,0.8303,3.835,29.175)" gradientUnits="userSpaceOnUse"><stop offset="0" stop-color="#cdcdcd"/><stop offset="1" stop-color="#9a9a9a"/></radialGradient><linearGradient id="f" x1="197.357" x2="205.815" y1="208.887" y2="231.352" gradientUnits="userSpaceOnUse"><stop offset="0" stop-color="#525252"/><stop offset="1" stop-color="#363636" stop-opacity="0"/></linearGradient><filter id="g" width="1.218" height="1.062" x="-.109" y="-.031" class="G"><feGaussianBlur stdDeviation="4.67"/></filter><g transform="matrix(1.0379 .120839 -.120839 1.0379 6.331776 -9.011875)"><g transform="matrix(-1 0 0 1 129.04631 0)" class="K"><g transform="matrix(.321617 -.25702 .25702 .321617 -83.775472 12.481427)"><path d="M213.656 143.375c-1.778-.022-2.156 1.28-2.156 1.28l13.25 30.156-12.906 16.063-18.25-3.906-1.438-3.53-.093-.407-.032-.156-12.75-29.5-1.406 1.844-.562-1.5c-11.907 12.472-20.736 26.816-15.344 53.22l-9.063 2.718-2.093 2.53a210.92 210.92 0 0 0 9.187 9.125l-4.406 1.47c-1.5 3.03-2.722 6.024 3.156 8.28l7.78-2.25a45.36 45.36 0 0 1 1.22 1.688l.218.313c5.66 8.4 9.983 23.4 12.937 33 1.974 6.405 2.125 21.968 2.125 21.968.766 4.566-8.854 139.378-10.875 199-.18 5.33 4.275 14.6 9.094 17.28 10.403 5.808 12.6 5.146 15.25 5 .2.037.452.1.656.125 5.038.63 12.203-.976 16.5-3.53 4.6-2.74 11.072-8.306 11.25-13.438 2.53-72.656 1.4-220.056 2.125-222.03 1.047-9.858 6.144-21.032 9.563-25.97 3.48-5.023 9.588-12.048 12.97-17.655 3.752-6.225 8.606-15.3 10.062-22.72.123-.624.2-1.244.28-1.843 1.14-9.466-1.1-21.608-5.687-30.094-3.333-6.152-10.533-12.995-16.53-16.97-4.55-3.013-14.917-6.54-20.125-8.218l-.157-.28-1.03-.282c-1.142-.54-2.04-.773-2.72-.78zm-4.375 58.344l.03.125-29.593 9.28-.157-.406 29.72-9zm-43.656 3.875c.015.074.015.143.03.22l-.375.093zm33.78 252.094c8.783 0 15.906 10.283 15.906 22.968s-7.123 23-15.906 23-15.906-10.314-15.906-23 7.124-22.97 15.906-22.97z" opacity=".7" filter="url(#g)"/><path d="M183.574 211.416l29.04-9.692 9.55 34.016-27.243 10.007-11.346-34.33z" fill="url(#f)"/><path d="M174 211.362c-9.463-21.685-3.366-40.326 10-58l12 29.5 1 4 22 5-21 12.5z" fill="url(#e)" stroke="#8d8d8d"/></g><path d="M22.666 2.98c-.545.423-.324.934-.324.934l11.76 6.494.235 8.97-13.04 19.625.018 1.32s6.338.64 9.832 1.794l.15.044c3.872 1.33 9.042 5.112 12.402 7.48 2.244 1.582 6.3 6.55 6.3 6.55 1.405 1.283 33.137 46.972 47.85 66.637 1.315 1.757 5.044 3.658 7.195 3.357 5.418-.76 5.184-1.644 6.33-2.424 1.602-1.1 2.274-2.5 2.894-4.355.666-1.98.988-3.9-.282-5.588C96 89.784 57.676 42.515 57.383 41.706c-2.23-3.43-3.6-8.25-3.854-10.656-.26-2.447-.247-6.16-.687-8.772-.488-2.9-1.398-6.983-2.878-9.723a11.36 11.36 0 0 0-.383-.665c-2.1-3.324-5.894-6.697-9.45-8.34-2.576-1.192-12.646-1.25-15.455-1.103-1.088.056-1.683.28-2 .535zm13.668 19.824l11.077 7.782-6.06 9.75-11.7-7.44zm64.363 87.795c2.697-2.156 6.726-1.6 8.988 1.232s1.9 6.874-.788 9.03-6.72 1.608-8.98-1.223-1.918-6.884.78-9.04z" fill="#6a6a6a"/><path d="M14.3 15.115c-.4 7.06.656 13.963 9.65 21.345l1.068-14.468-.05-.042z" fill="#939393"/><path transform="matrix(.36845 -.294446 .294446 .36845 -98.508939 10.396532)" d="M192.088 181.035c-12.924 17.1-27.125 7.4-18.963 28.184l21.13-22.416z" opacity=".7" filter="url(#d)"/><g transform="matrix(.321617 -.25702 .25702 .321617 -83.775472 12.481427)"><path d="M183.574 216.916l35.677-12.946 7.004 19.846-38.15 14.468z" fill="url(#c)"/><path d="M184 153.375c-12.924 17.1-19.037 35.07-10.875 55.844l22.906-26.188-.03-.156z" fill="url(#b)" stroke="#f9f9f9" stroke-width="1.2"/></g><path d="M38.627 37.97c-1.792-1.35-3.07-2.76-6.985-3.85l-.063.854c-1.088-1.068-1.587-1.895-1.1-2.323 3.87.28 6.313 2.346 9.295 4.07l1.093 1.476c.044.9-1.195.707-1.866.722z" class="I"/><use xlink:href="#A" transform="matrix(.32133 -.25679 .27679 .34636 -89.073 9.684)" class="H J"/><path d="M44.125 29.035c-1.793-1.35-3.07-2.76-6.985-3.85l-.063.853c-1.088-1.068-1.587-1.895-1.1-2.322 3.868.28 6.313 2.345 9.294 4.068l1.093 1.476c.045.9-1.194.708-1.865.722z" class="I"/><use xlink:href="#A" transform="matrix(.32133 -.25679 .27679 .34636 -83.576 .75)" class="H J"/><g transform="matrix(.321617 -.25702 .25702 .321617 -83.775472 12.481427)"><path d="M217.094 143.72l12.72 31.125-15.563 16.97-54.188 17.875s12.625 12.16 17.594 19.625l11.625-3.907-5.03-14.687 28-9 4.25 14.594 43.156-14.47a25.94 25.94 0 0 0 .281-1.843c1.074-9.466-1.044-21.608-5.375-30.094-3.14-6.152-9.913-12.995-15.562-16.97-5.833-4.102-21.906-9.218-21.906-9.218z" fill="url(#Z)" stroke="url(#Y)"/><path d="M259.656 201.844l-43.156 14.47 4.97 16.968-26.28 9.313-5.907-17.188-11.625 3.906.22.313c5.426 8.367 9.605 23.344 12.438 32.906 1.9 6.387 2.03 21.907 2.03 21.906.735 4.553-9.594 140.364-11.53 199.813-.174 5.313 4.217 12.827 8 16.563 2.903 2.867 7.954 5.84 12 6.375 4.744.628 11.515-.977 15.562-3.532 4.343-2.74 10.425-8.305 10.594-13.437 2.384-72.656 1.316-220.056 2-222.03.986-9.858 5.78-21.032 9-25.97 3.276-5.023 9.035-12.048 12.22-17.655 3.534-6.225 8.097-15.3 9.468-22.72zM204.25 468.406c8.387 0 15.188 7.168 15.188 15.97s-6.8 15.938-15.188 15.938-15.188-7.137-15.188-15.938 6.8-15.97 15.188-15.97z" fill="url(#X)" stroke="url(#W)"/><path d="M214.96 191.813l15.9-16.97-13.435-31.113 2.475.707 12.375 29.345z" filter="url(#V)" class="H"/></g></g><g transform="matrix(-.321617 -.25702 -.25702 .321617 212.82178 12.481427)"><g fill="none" stroke-width="2"><path d="M188.5 462.655c1.56-14.28 7.632-136.6 11-179 .228-2.876 2.06-6.253 4.5-7.793 3.047-1.922 8.82-2.192 12-.5 2.022 1.075 3.95 4.2 4 6.5l2 179.5c-.006 1.83-1.77 4.396-3.5 5-15.457-5.588-17.066-2.8-25.975.647-2.274.267-4.025-4.354-4.025-4.354z" stroke="url(#U)" filter="url(#T)"/><use xlink:href="#B" stroke="url(#S)" filter="url(#R)"/></g><g class="K"><use xlink:href="#B" fill="url(#Q)" filter="url(#R)"/><path d="M187 245.362l5 14.5 1.5 15.5-10 178.5 4.5-43.5 7-134.5s-.18-11.87-1.5-16.732c-1.197-4.408-6.5-13.768-6.5-13.768z" filter="url(#P)" class="H"/><path d="M223 457.362l-3-183-11.4-2.646c5.436-2.764 13.182-.683 12.4 1.146 5.543 42.532 1.767 184.446 2 184.5z" fill="#e7e7e7" filter="url(#O)"/></g></g><g fill="none"><path d="M17.756 111.854c-2.263 2.832-1.9 6.876.8 9.033s6.722 1.6 8.985-1.223 1.9-6.876-.8-9.033-6.722-1.6-8.985 1.223z" stroke="#4f4f4f" stroke-width=".869" class="L"/><path transform="matrix(-.321617 -.25702 -.25702 .321617 212.82178 12.481427)" d="M184.5 488.362c13.312 26.9 31.767 14.96 38.5-.5" stroke="#fff" stroke-width="2" stroke-linecap="round" filter="url(#N)"/></g><g class="K"><path d="M89.044 35.735c1.793-1.348 3.07-2.76 6.985-3.85l.063.853c1.088-1.067 1.587-1.894 1.112-2.322-3.87.28-6.314 2.346-9.295 4.068l-1.093 1.476c-.044.9 1.195.708 1.865.723z" class="I"/><use xlink:href="#A" transform="matrix(-.32133 -.25679 -.27679 .34636 216.74531 7.45)" class="H J"/><path d="M87.67 33.502c1.792-1.35 3.07-2.76 6.985-3.85l.063.853c1.088-1.068 1.587-1.895 1.1-2.323-3.87.28-6.313 2.346-9.295 4.07l-1.092 1.476c-.045.9 1.194.707 1.865.722z" class="I"/><use xlink:href="#A" transform="matrix(-.32133 -.25679 -.27679 .34636 215.37031 5.217)" class="H J"/><path d="M86.296 31.268c1.792-1.348 3.07-2.76 6.985-3.848l.063.852c1.087-1.067 1.586-1.894 1.1-2.322-3.868.28-6.312 2.346-9.294 4.07l-1.093 1.475c-.044.9 1.195.708 1.866.723l.362-.95z" class="I"/><use xlink:href="#A" transform="matrix(-.32133 -.25679 -.27679 .34636 213.99631 2.983)" class="H J"/><path d="M102.188 40.38l1.37 2.188c-.32 1.34-.72 2.6-3.08 1.904L98.402 41.4c.658-.655 1.665-1.13 3.786-1.03z" fill="#575757"/><path transform="matrix(-.269227 -.215144 -.215144 .269227 171.81009 -9.657181)" d="M69 240.813a.71.71 0 0 0-.156.062L62.03 243.5a.71.71 0 0 0-.406.406L61 245.562c-.174.514-.34.873-.25 1.438.07.438.325.862.78 1.28s1.105.868 2.094 1.344a.71.71 0 0 0 .563 0l8.406-3.094a.71.71 0 0 0 .406-.969c-.536-1.163-1.15-2.76-3.47-4.593a.71.71 0 0 0-.531-.156z" fill="#dfdfdf" filter="url(#M)"/></g></g><g transform="translate(-140)"><path transform="matrix(-.97007 .04735 .04815 .98648 525.92631 -287.381)" d="M401.938 287.78l-8.594 4.906c-1.04 2.065-1.835 3.9-2.344 5.5l-.03.063-44.844 44.594c-1.958-1.698-3.608-2.863-4.562-3.22h-.032l-.28-.22-4.47-1.094-2.093 2.938-1.532 7.5c-.108.536-.32 1.046-.625 1.5-.15.22-.318.43-.5.625a7.04 7.04 0 0 1-.593.563l-.657.53c-.685.5-1.446.918-2.156 1.313-2.477 1.38-8.562 2.156-8.562 2.156L289.25 386.59l-.156 1.187-.063 1.125.03.844.032.53v.03l.093.782.188.968c.1.486.245.966.406 1.438.073.213.167.416.25.625l.47 1.125c.037.076.086.144.125.22l.312.593.438.72.844 1.218c.045.06.08.128.125.187.354.457.733.9 1.125 1.313 4.46 4.815 11.112 7.404 14.187 6.75l31.03-30.97s.048-4.97 1-7c1.372-2.924 3.247-6.124 6.5-6.906l6.782-1.625 2.375-1.97.062-4.28-.25-.313c-.317-.934-1.522-2.617-3.28-4.625l44.562-44.78.407-.25c1.573-.482 3.43-1.202 5.687-2.282l5.53-7.75-6.125-5.72z" opacity=".7" fill="url(#L)" filter="url(#K)"/><use xlink:href="#E" fill="url(#D)"/><path d="M263.484 115.802c3.17-3.54 5.227-8.18 4.2-13.534l-32.725-32.05s-6.4-.707-9.002-2.104c-1.996-1.068-4.3-2.333-4.8-4.646l-1.73-7.8-2.23-3.036-4.64 1.223-.673.505c8.646 25.707 32.595 42.27 51.623 61.454z" opacity=".11" stroke="#fff" stroke-width=".831" class="H"/><path d="M215.875 57.168c-3.294.96-5.816 2.664-6.104 6.525 0 0 1.823 2.17 3.02 2.918 7.06 4.417 6.368-6.273 5.475-7.133zm12.092 14.467a2.74 2.74 0 0 0-.879.127c-1.147.38-2.713 1.746-2.582 2.836.167 1.414-.02 2.687 1.092 4.47l36.2 35.258c4.736-.478 6.493-6.594 4.803-8.22L232.85 73.65s-2.728-2-4.88-2.014z" fill="url(#J)"/><path d="M198.225 69.207c-.66-.638 2.115-4.56 6.2-8.76s7.934-7.1 8.595-6.45-2.116 4.56-6.202 8.76-7.933 7.1-8.594 6.45z" fill="#a10000"/><path d="M201.262 66.084c-.292-.282 1.423-2.518 3.832-4.994s4.598-4.255 4.9-3.972-1.424 2.518-3.832 4.994-4.598 4.254-4.9 3.972z" fill="#750000"/><path d="M205.87 61.62a26.682 26.682 0 0 0 2.626-3.134l-48.62-46.816-.237-.337-5.796 5.95.42.282 48.335 46.975a32.984 32.984 0 0 0 3.273-2.922z" fill="url(#I)" stroke="#393939" stroke-width=".441"/><path d="M141.953 7.02l5.902 7.98c14.665 6.727 14.83 1.15 9.445-9.112L148.25.943z" fill="url(#H)" stroke="url(#G)" stroke-width=".429" stroke-dashoffset="1.08800006" class="L"/><path d="M143.195 7.34l5.1 6.9c12.676 5.814 12.82 1 8.164-7.877L148.637 2.1z" fill="url(#F)"/></g><use xlink:href="#E" x="100" fill="url(#C)"/></svg>