<svg width="128" height="128" xmlns="http://www.w3.org/2000/svg" xmlns:xlink="http://www.w3.org/1999/xlink"><style>.B{opacity:.7}.C{fill-rule:evenodd}.D{stroke-linejoin:round}.E{stroke-dashoffset:4}.G{fill-opacity:.394}.H{stroke-width:.752}</style><defs><linearGradient id="A" xlink:href="#a"><stop stop-color="#393a38" offset="0"/><stop stop-color="#393a38" stop-opacity="0" offset="1"/></linearGradient><linearGradient id="B" xlink:href="#a"><stop offset="0"/><stop stop-opacity="0" offset="1"/></linearGradient><linearGradient id="C" xlink:href="#a"><stop offset="0"/><stop stop-opacity=".68" offset=".41"/><stop stop-opacity=".49" offset=".45"/><stop stop-opacity=".36" offset=".5"/><stop stop-opacity=".15" offset=".71"/><stop stop-opacity="0" offset="1"/></linearGradient><linearGradient id="D" x1="-82.51" x2="-118.92" y1="64.06" y2="63.45" xlink:href="#C"/><linearGradient id="E" x1="-146.75" x2="-123.67" y1="74.96" y2="73.42" xlink:href="#C"/><linearGradient id="F" x1="-113.64" x2="-118.3" y1="78.29" y2="33.76" xlink:href="#B"/><linearGradient id="I" x1="109.9" x2="84.11" y1="54.22" y2="68.97" spreadMethod="reflect" xlink:href="#a"><stop stop-color="#9a7600" offset="0"/><stop stop-color="#e3ad00" offset=".09"/><stop stop-color="#ffcd2c" offset=".5"/><stop stop-color="#e3ad00" offset=".92"/><stop stop-color="#b98d00" offset="1"/></linearGradient><linearGradient id="J" x1="24.31" x2="59.25" y1="120.29" y2="95.26" xlink:href="#B"/><linearGradient id="L" x1="75.99" x2="122.07" y1="99.18" y2="67.63" xlink:href="#a"><stop stop-color="#fff" offset="0"/><stop stop-color="#fff" offset=".43"/><stop stop-color="#f1f1f1" offset=".59"/><stop stop-color="#eaeaea" offset=".8"/><stop stop-color="#dfdfdf" offset="1"/></linearGradient><linearGradient id="M" x1="95.28" x2="76.07" y1="127.47" y2="95.94" xlink:href="#A"/><linearGradient id="N" x1="87.28" x2="103.24" y1="156.98" y2="68.42" xlink:href="#A"/><linearGradient id="P" x1="98.67" x2="74.33" y1="117.44" y2="90.76" xlink:href="#a"><stop stop-opacity=".45" offset="0"/><stop stop-opacity=".13" offset=".5"/><stop stop-opacity="0" offset="1"/></linearGradient><linearGradient id="Q" x1="78.57" x2="41.44" y1="22.05" y2="59.81" xlink:href="#a"><stop offset="0"/><stop stop-opacity="0" offset="1"/></linearGradient><linearGradient id="R" x1="23.02" x2="22.67" y1="104.75" y2="135.74" xlink:href="#a"><stop offset="0"/><stop stop-opacity="0" offset="1"/></linearGradient><linearGradient id="S" x1="24.65" x2="24.95" y1="111.04" y2="122.54" xlink:href="#a"><stop stop-color="#fff" offset="0"/><stop stop-color="#fff" stop-opacity="0" offset="1"/></linearGradient><linearGradient id="a" gradientUnits="userSpaceOnUse"/><radialGradient id="G" cx="63.85" cy="121.47" r="63.85" fx="95.48" gradientTransform="matrix(1 0 0 .10227 0 109.05)" xlink:href="#a"><stop offset="0"/><stop stop-opacity="0" offset="1"/></radialGradient><radialGradient id="H" cx="-16.6" cy="73.86" r="4.39" gradientTransform="matrix(.96278 .1039 .10541 6.9789 33.03 -433.4)" xlink:href="#a"><stop stop-color="#fff" offset="0"/><stop stop-color="#fff" stop-opacity="0" offset="1"/></radialGradient><radialGradient id="K" cx="70.62" cy="53.38" r="53.56" fx="70.96" fy="76.7" gradientTransform="matrix(1.1264 -.578 .70669 1.3383 -56.18 13.71)" xlink:href="#a"><stop stop-color="#fff" stop-opacity="0" offset="0"/><stop stop-color="#7f7f7f" stop-opacity="0" offset=".5"/><stop offset="1"/></radialGradient><radialGradient id="O" cx="104.66" cy="65.85" r="30" fx="115.73" fy="56.28" gradientTransform="matrix(.45355 -.26129 1.0321 1.7915 -20.21 -24.28)" xlink:href="#a"><stop stop-color="#fff" offset="0"/><stop stop-color="#fff" stop-opacity="0" offset="1"/></radialGradient><radialGradient id="T" cx="29.96" cy="131.47" r="27.02" gradientTransform="matrix(.70974 -.01627 .00368 .16032 7.97 102.53)" xlink:href="#a"><stop stop-color="#fff" offset="0"/><stop stop-color="#fff" stop-opacity="0" offset="1"/></radialGradient><radialGradient id="U" cx="27.57" cy="130.94" r="27.02" gradientTransform="matrix(1 0 0 .28034 0 85.28)" xlink:href="#a"><stop offset="0"/><stop stop-opacity="0" offset="1"/></radialGradient><path id="V" d="m86.08 14.27 35.43 63.07c4.9 8.72-5.85 24-24 34.1s-36.83 11.22-41.73 2.5L20.36 50.85c-4.9-8.72 5.84-24 23.99-34.1s36.83-11.22 41.73-2.5z"/><path id="W" d="m86.08 13.96 35.42 63.07c4.9 8.72-5.84 24-23.98 34.1s-36.84 11.22-41.74 2.5L20.35 50.55c-4.9-8.72 5.85-24 24-34.1s36.83-11.22 41.73-2.5z"/><path id="X" d="M-84.36 47.98a33.5 23.88 0 1 1-67 0 33.5 23.88 0 1 1 67 0z"/><path id="Y" d="m59.47 68.01 24.84 41.9c14.85-6.67 32.33-22.26 35.16-32.6L95.28 34.67C92.3 49.84 74.12 61 59.48 68z"/><path id="Z" d="M19.57 44.08c-.28 2.33.02 4.49 1.03 6.33 4.74 8.7 22.32 6.56 40.34-2.67a61.24 61.24 0 0 0 9.84-6.32c-7.5-4.71-48.44-8.94-51.21 2.66z"/></defs><circle class="B" transform="rotate(150.28 95.38 80.39) scale(1.76434)" cx="93" cy="70.77" r="5.99" fill="#9f0"/><path class="B" d="M126.2 79.11a10.59 10.59 0 0 1-13 7.42 10.58 10.58 0 0 1-7.41-12.99 10.58 10.58 0 0 1 20.4 5.57z" fill="red"/><path class="B" d="M23.99 51.2A10.58 10.58 0 0 1 11 58.6a10.58 10.58 0 0 1-7.41-12.99 10.58 10.58 0 1 1 20.4 5.59z" fill="#0c0"/><path class="B" d="M118.82 59.13a10.57 10.57 0 1 1-5.37-20.45 10.56 10.56 0 1 1 5.37 20.44z" fill="#c09"/><path class="B" d="M35.05 32.23a10.57 10.57 0 1 1-14.88-15.02 10.57 10.57 0 1 1 14.88 15.02z" fill="#099"/><path class="B" d="M109.98 32.6A10.57 10.57 0 1 1 95.1 17.57a10.57 10.57 0 0 1 14.95.08 10.56 10.56 0 0 1-.07 14.95z" fill="#609"/><circle class="B" transform="rotate(150.28 95.38 80.39) scale(1.76434)" cx="56.23" cy="92" r="5.99" fill="#03c"/><path class="B" d="M89.06 14.05a10.58 10.58 0 1 1-20.42-5.6 10.58 10.58 0 0 1 20.42 5.6z" fill="#309"/><path class="C" d="M15.37 125.7c6.85.05 12.63-.71 14.04-.68 9.32.23 31.67-4.1 22.73-9.41-9.76-5.82-36.6-5.66-47.04-.06-11.4 6.12 3.43 10.09 10.27 10.14z" fill="url(#T)" opacity=".38" stroke="url(#U)" stroke-width="2.15"/><path d="M127.69 121.47a63.85 6.53 0 1 1-127.69 0 63.85 6.53 0 1 1 127.69 0z" fill="url(#G)" opacity=".36"/><path d="M-300.31-39.68v-2.8 2.8z" fill="#fff" fill-opacity=".76"/><g class="D E" fill="none" stroke="#000" style="stroke-opacity:.333"><use opacity=".25" stroke-width="2.98" xlink:href="#V"/><use opacity=".3" stroke-width="1.99" xlink:href="#V"/></g><use fill="url(#L)" xlink:href="#W"/><use fill="url(#K)" opacity=".41" xlink:href="#W"/><use fill="url(#J)" xlink:href="#W"/><use transform="matrix(.98119 -.54635 .37162 .66164 152.28 -63.94)" fill="url(#E)" opacity=".4" xlink:href="#X"/><g transform="matrix(.98119 -.54635 .37162 .66164 151.32 -64.05)"><use fill="url(#D)" opacity=".4" xlink:href="#X"/><use fill="url(#F)" opacity=".4" xlink:href="#X"/></g><path d="m86.17 14.14 1.6 2.83c4.9 8.72-5.82 24-23.96 34.1s-36.82 11.22-41.72 2.5l-1.91-3.41c.12 1.38.5 2.66 1.15 3.84 2.54 4.52 8.67 6.47 16.38 6s17.07-3.32 26.26-8.44S80.5 40.04 84.93 33.74s5.94-12.5 3.4-17.03a9.38 9.38 0 0 0-2.15-2.57z" fill="#cacaca"/><path d="M76.72 9.45c-8.27-.92-19.84 1.9-31.18 8.2-18.14 10.1-28.89 25.4-23.99 34.12.37.65.83 1.23 1.35 1.78a8.71 8.71 0 0 1-.74-1.07c-4.9-8.73 5.85-24.02 24-34.12 16.77-9.34 34.01-11 40.4-4.3-2.02-2.6-5.47-4.13-9.84-4.6z" fill="#babdb6" opacity=".4"/><use fill="url(#I)" xlink:href="#Y"/><use class="D E" transform="matrix(.97982 -.54651 .37112 .6616 151.13 -64.07)" fill="none" stroke="#fff" stroke-width="1.61" xlink:href="#X"/><use fill="#b70000" xlink:href="#Z"/><path class="G" d="M75.92 8.27c-1.6-.18-3.33-.2-5.17-.08-7.35.44-16.35 3.18-25.26 8.15S29.52 27.52 25.3 33.53a31.55 31.55 0 0 0-2.34 3.9c.59-1.1 1.3-2.2 2.08-3.32 4.23-6.01 11.3-12.26 20.2-17.23s17.91-7.7 25.27-8.14 13 1.36 15.34 5.52c1.6 2.86 1.46 6.5-.17 10.44 1.85-4.16 2.11-8 .43-10.99-1.74-3.12-5.37-4.92-10.17-5.44zm10.49 18.2a33.44 33.44 0 0 1-2.2 3.54c-4.45 6.33-11.79 12.77-21 17.9s-18.56 8.02-26.3 8.49-13.9-1.5-16.46-6.06c-1.76-3.14-1.58-7.1.16-11.3-1.96 4.43-2.27 8.56-.43 11.85 2.56 4.56 8.72 6.52 16.47 6.06s17.09-3.35 26.3-8.48 16.55-11.55 21-17.88a32.74 32.74 0 0 0 2.46-4.12z"/><path class="G" d="M76.45 8.04a30.83 30.83 0 0 0-5.17-.11c-7.34.44-16.35 3.17-25.26 8.14a69.59 69.59 0 0 0-14.55 10.7 70.57 70.57 0 0 1 13.76-9.9c8.9-4.96 17.9-7.7 25.26-8.14s13.12 1.4 15.31 5.63c2.08 4.03.47 9.78-3.76 15.8a43.45 43.45 0 0 1-5.22 6.1 45.2 45.2 0 0 0 6.02-6.9c4.23-6.02 6.03-11.51 3.7-15.67-1.75-3.12-5.28-5.12-10.08-5.65zM29.78 26.63a49.38 49.38 0 0 0-6.2 7.1c-4.45 6.33-5.99 12.58-3.43 17.15s8.72 6.52 16.46 6.06 17.12-3.34 26.34-8.48a71.42 71.42 0 0 0 15.62-11.61 72.56 72.56 0 0 1-14.83 10.8c-9.2 5.14-18.56 8.05-26.3 8.51s-13.9-1.53-16.46-6.09-1.02-10.82 3.43-17.15a48.1 48.1 0 0 1 5.37-6.3z"/><use fill="url(#O)" xlink:href="#Y"/><path d="m120.03 75.2 1.58 2.8c4.84 8.62-5.76 23.7-23.68 33.68s-36.38 11.09-41.22 2.47l-1.88-3.37a9.36 9.36 0 0 0 1.14 3.8c2.5 4.46 8.56 6.39 16.18 5.93s16.85-3.28 25.94-8.34 16.33-11.38 20.7-17.6 5.87-12.36 3.36-16.83a9.3 9.3 0 0 0-2.12-2.53z" fill="url(#N)" opacity=".78"/><path d="m119.58 74.69 1.58 2.8c4.84 8.6-5.75 23.7-23.68 33.67s-36.37 11.1-41.21 2.48l-1.89-3.37a9.36 9.36 0 0 0 1.14 3.8c2.51 4.46 8.56 6.38 16.18 5.92s16.87-3.28 25.94-8.33 16.33-11.38 20.7-17.6 5.88-12.37 3.37-16.83a9.3 9.3 0 0 0-2.13-2.54z" fill="url(#M)" opacity=".78"/><path class="C H" d="M15.37 125.7c6.85.05 12.63-.71 14.04-.68 9.32.23 31.67-4.1 22.73-9.41-9.76-5.82-36.6-5.66-47.04-.06-11.4 6.12 3.43 10.09 10.27 10.14z" fill="#b90000" stroke="#ae0000"/><path d="M15.32 126.05c6.85.06 12.65-.74 14.06-.7 9.41.32 32.49-4.15 23.02-10-9.67-5.97-36.85-5.91-47.66 0-11.35 6.21 3.74 10.65 10.58 10.7z" fill="none" opacity=".89" stroke="url(#R)" stroke-width=".08"/><path d="M84.31 109.91c14.85-6.67 32.33-22.26 35.16-32.6-17.46-30.25-50.43 6.26-35.16 32.6z" fill="url(#P)" opacity=".44"/><g class="C"><path d="M35.98 55.75c-5.73-.14-7.84 4.47-8.21 8.95-1.1 13.4 1.2 22.78.43 33.5-.16 2.17-4.03 4.36-4.48-.49-1.06-11.23.73-19.12-.53-34.64-.41-5.13-2-10.05-3.37-15.91" fill="#b70000" stroke="#000" stroke-width=".1"/><path d="M21.43 51.63c1.1 4.33 2.14 8.23 2.47 12.26 1.26 15.52-.53 23.41.52 34.65.06.64.2 1.16.36 1.57.44-.45.74-1.03.78-1.6.77-10.72-1.6-19.97-.5-33.37.29-3.5 1.52-8.09 4.88-9.06-2.85-1.48-5.77-2.9-8.5-4.44z" fill="url(#H)"/></g><use fill="url(#Q)" xlink:href="#Z"/><g fill="none" stroke="url(#R)"><path d="M15.32 126.05c6.85.06 12.65-.74 14.06-.7 9.41.32 32.41-4.07 22.94-9.92-9.66-5.98-36.72-5.9-47.53 0-11.35 6.22 3.69 10.57 10.53 10.62z" opacity=".63" stroke-width=".28"/><path d="M15.32 126.05c6.85.06 12.65-.74 14.06-.7 9.41.32 32.23-3.8 22.74-9.61-9.63-5.9-36.38-5.83-47.22-.01-11.4 6.11 3.57 10.27 10.42 10.32z" opacity=".25" stroke-width=".98"/></g><path d="M32.37 111.1c-7.9-.3-16.27.5-22.39 2.3-3.13 2.86 8.56 5.64 17.17 5.85 9.78.24 20.86-2.55 18.91-6.29a64.04 64.04 0 0 0-13.69-1.86z" fill="url(#S)" opacity=".82"/><path class="B C H" d="M15.37 125.7c6.85.05 12.63-.71 14.04-.68 9.32.23 31.67-4.1 22.73-9.41-9.76-5.82-36.6-5.66-47.04-.06-11.4 6.12 3.43 10.09 10.27 10.14z" fill="url(#T)" stroke="url(#U)"/></svg>