<svg xmlns="http://www.w3.org/2000/svg" xmlns:xlink="http://www.w3.org/1999/xlink" width="128" height="128" viewBox="0 0 112 112"><style><![CDATA[.B{fill-rule:evenodd}.C{stroke-linejoin:round}.D{stroke-width:8}.E{filter:url(#C)}.F{fill:url(#B)}]]></style><defs><linearGradient id="A" gradientUnits="userSpaceOnUse"><stop offset="0"/><stop offset="1" stop-opacity="0"/></linearGradient><linearGradient xlink:href="#S" id="B" x1="1.999" y1="55.862" x2="109.998" y2="55.862"/><filter id="C"><feGaussianBlur stdDeviation=".27"/></filter><linearGradient xlink:href="#T" id="D" x1="75.196" y1="-4" x2="94.433" y2="113.629"/><filter id="E"><feGaussianBlur stdDeviation="2.4"/></filter><linearGradient xlink:href="#A" id="F" x1="46.912" y1="116" x2="48.326" y2="-2.51"/><linearGradient xlink:href="#A" id="G" x1="46.912" y1="116" x2="48.326" y2="-2.51"/><linearGradient xlink:href="#T" id="H" x1="75.196" y1="-4" x2="94.433" y2="113.629"/><linearGradient xlink:href="#S" id="I" x1="35.196" y1="7.145" x2="70.372" y2="63.508"/><linearGradient id="J" x1="1.502" y1="29.898" x2="110.498" y2="29.898" gradientUnits="userSpaceOnUse"><stop offset="0" stop-color="#fff" stop-opacity="0"/><stop offset="1" stop-color="#fff" stop-opacity=".485"/></linearGradient><linearGradient id="K" x1="62.579" y1="127.771" x2="58.967" y2="-31.681" gradientUnits="userSpaceOnUse"><stop offset="0" stop-color="#00892c"/><stop offset=".079" stop-color="#259e34"/><stop offset=".168" stop-color="#48b23b"/><stop offset=".252" stop-color="#61c041"/><stop offset=".329" stop-color="#71c944"/><stop offset=".39" stop-color="#71d73a"/><stop offset="1" stop-color="#00892c"/></linearGradient><linearGradient xlink:href="#S" id="L" x1="23.533" y1="107.834" x2="28.681" y2="78.515"/><linearGradient xlink:href="#S" id="M" x1="1.999" y1="55.862" x2="109.998" y2="55.862"/><linearGradient xlink:href="#S" id="N" x1="63.871" y1="86.705" x2="109.998" y2="55.862"/><linearGradient xlink:href="#S" id="O" x1="45.84" y1="18.385" x2="109.998" y2="55.862"/><linearGradient xlink:href="#S" id="P" x1="63.871" y1="21.023" x2="109.998" y2="55.862"/><filter id="Q"><feGaussianBlur stdDeviation="1.12"/></filter><path id="R" d="M63.718 0C71.232 0 78.445.652 82 6s-6.022 8.84-3.355 13.46C85.2 22.815 101.277 22.06 112 22v31.376c-5.792 3.336-11.91-1.445-17-2.376-9.605 4.274-9.652 27.515 0 31.68 5.722.45 5.42-5.03 12-3.72 5.013 6.734 5 33.04 5 33.04H22s.422-28.435-2.462-31.318S14.483 85.954 7.26 84.4C2.943 82.345 0 78.605 0 68s2.812-15.3 7.068-17.684c6.567-1.386 7.63 7.063 11.1 3.584S22.07 34.826 22 22c10.448 0 23.674 2 30-3 .428-5.335-3.8-5.305-4-10 1.15-6.096 8.22-8.778 15.718-9z"/></defs><linearGradient gradientUnits="userSpaceOnUse" x1="65.537" y1="106.548" x2="65.537" y2="2.036"><stop offset="0" stop-color="#f8ffbf"/><stop offset=".4" stop-color="#fff"/><stop offset="1" stop-color="#f8ffbf"/></linearGradient><linearGradient id="S" gradientUnits="userSpaceOnUse"><stop offset="0" stop-color="#fff"/><stop offset="1" stop-color="#fff" stop-opacity="0"/></linearGradient><g transform="matrix(.875 0 0 .875 7 7)"><g transform="translate(0 -2)" opacity=".5" filter="url(#E)"><linearGradient y2="144.482" x2="126.742" y1="5.728" x1="19.756" gradientUnits="userSpaceOnUse" stroke="url(#F)"><stop offset="0" stop-color="#64ba32" class="C D"/><stop offset="1" stop-color="#00892c" class="C D"/></linearGradient><use xlink:href="#R" stroke="url(#G)" class="B C D"/></g><g transform="translate(0 -4)"><g fill="none"><linearGradient id="T" gradientUnits="userSpaceOnUse" stroke="url(#D)"><stop offset="0" stop-color="#64ba32" class="C D"/><stop offset="1" stop-color="#00892c" class="C D"/></linearGradient><use xlink:href="#R" stroke="url(#H)" class="C D"/></g><g filter="url(#Q)" fill="url(#K)"><linearGradient y2="144.482" x2="126.742" y1="5.728" x1="19.756" gradientUnits="userSpaceOnUse"><stop offset="0" stop-color="#76cc45"/><stop offset="1" stop-color="#00892c"/></linearGradient><use xlink:href="#R" class="B"/></g></g><path d="M108.48 18.045h-.022l-.642.008-7.135.062c-11.816 0-18.83-.886-22.746-2.876l-.528-.27-.3-.51c-1.8-3.096-.197-5.6 1.93-8.356 1.4-1.808 1.9-2.6 2-3.452a1.98 1.98 0 0 0-.052-.667 2.83 2.83 0 0 0-.414-.878c-2.84-4.23-8.738-5.102-16.783-5.104-2.753.087-11.872.83-13.697 6.682-.098.32-.117.66-.05.986.213 1.042.778 1.712 1.49 2.56 1.227 1.454 2.75 3.266 2.455 6.93l-.07.868-.69.54c-4.305 3.373-10.842 3.827-16.67 3.827-2.518 0-5.122-.102-7.698-.2l-3.05-.114c-.023 0-.045-.002-.07-.002-.52 0-1.022.2-1.4.56-.394.375-.615.89-.62 1.43C23.6 42.06 21.4 47.196 19.26 49.317c-.976.963-1.98 1.43-3.074 1.43-1.735 0-2.972-1.216-4.073-2.3l-.194-.188-.372-.36c-1.136-1.075-2.117-1.74-3.488-1.74-.4 0-.842.12-1.177.342-3.67 2.448-5.38 7.37-5.38 15.494a47.79 47.79 0 0 0 .032 1.783c29.683.313 68.5-5.752 108.963-29.914v-13.82a1.99 1.99 0 0 0-.599-1.423 2.03 2.03 0 0 0-1.419-.578z" fill="url(#I)" stroke="url(#J)" stroke-width="1.005" class="B"/><g transform="translate(0 -6)" class="E"><linearGradient gradientUnits="userSpaceOnUse" x1="73.623" y1="23.673" x2="118.991" y2="23.673" class="F"><stop offset="0" stop-color="#fff"/><stop offset="1"/></linearGradient><path d="M77.314 21.023a5.86 5.86 0 0 0 .599 1.437l.296.51.523.27c3.88 2 10.83 2.876 22.538 2.876l7.728-.07c.355 0 .698.102 1 .277v-.277a2 2 0 0 0-.594-1.423c-.373-.37-.88-.578-1.406-.578h-.022l-.636.008-7.07.062c-11.708 0-18.66-.886-22.538-2.876l-.418-.215z" fill="url(#P)" class="B"/></g><g transform="translate(2 -6)" class="E"><linearGradient gradientUnits="userSpaceOnUse" x1="86.693" y1="83.061" x2="111.906" y2="83.061" class="F"><stop offset="0" stop-color="#fff"/><stop offset="1"/></linearGradient><path d="M95.208 86.515l.305.133.33.024.8.033c2.942 0 4.622-1.334 5.97-2.404.98-.78 1.623-1.263 2.558-1.458a2.01 2.01 0 0 1 .405-.041c.5 0 .962.203 1.325.53l-.484-1.312a2 2 0 0 0-2.246-1.177c-.935.195-1.578.678-2.558 1.458-1.348 1.07-3.027 2.404-5.97 2.404-.257 0-.526-.01-.8-.033l-.33-.024-.305-.133c-2.372-1.022-4.156-2.855-5.463-5.1 1.335 3.144 3.418 5.787 6.463 7.1z" fill="url(#N)" class="B"/></g><g transform="translate(0 -6)" class="E"><linearGradient gradientUnits="userSpaceOnUse" x1="-3.991" y1="47.521" x2="69.619" y2="47.521" class="F"><stop offset="0" stop-color="#fff"/><stop offset="1"/></linearGradient><path d="M3 70c0-8.123 1.694-13.047 5.328-15.497.332-.222.77-.342 1.166-.342 1.358 0 2.33.665 3.456 1.74l.37.36.192.188c1.09 1.083 2.317 2.3 4.036 2.3 1.083 0 2.08-.47 3.046-1.432 2.12-2.12 4.3-7.255 4.41-29.25.004-.54.224-1.056.613-1.43a2.01 2.01 0 0 1 1.387-.559c.023 0 .045.002.068.002l3.023.114 7.628.2c5.773 0 12.25-.454 16.517-3.827l.685-.54.068-.868c.208-2.62-.505-4.284-1.372-5.556.316.96.487 2.1.372 3.556l-.068.868-.685.54c-4.266 3.373-10.743 3.827-16.517 3.827-2.495 0-5.075-.102-7.628-.2l-3.023-.114c-.023 0-.045-.002-.068-.002a2.01 2.01 0 0 0-1.387.559c-.4.375-.61.89-.613 1.43-.112 21.994-2.292 27.13-4.41 29.25-.967.963-1.963 1.43-3.046 1.43-1.72 0-2.945-1.216-4.036-2.3l-.192-.188-.37-.36c-1.126-1.075-2.098-1.74-3.456-1.74-.397 0-.834.12-1.166.342C3.693 54.953 2 59.877 2 68c0 5.927.972 9.338 2.33 11.438C3.52 77.32 3 74.334 3 70z" fill="url(#M)" class="B"/></g><g transform="translate(-2 -4)" class="E"><linearGradient gradientUnits="userSpaceOnUse" x1="21.681" y1="95.531" x2="25.875" y2="95.531" class="F"><stop offset="0" stop-color="#fff"/><stop offset="1"/></linearGradient><path d="M22.022 81.343c1.04 3.152 2.095 10.352 2.02 26.648-.002.53.207 1.04.582 1.418.125.125.27.225.42.312.083-21.55-1.822-27.05-3.02-28.378z" fill="url(#L)" class="B"/></g><g transform="translate(0 -6)" class="E"><linearGradient gradientUnits="userSpaceOnUse" x1="46.571" y1="6.822" x2="89.26" y2="6.822" class="F"><stop offset="0" stop-color="#fff"/><stop offset="1"/></linearGradient><path d="M51.082 11.643a2.01 2.01 0 0 1 .052-.959C52.942 4.832 61.98 4.09 64.706 4.002c7.497.002 13.1.774 16.094 4.385-.006-.135-.02-.27-.054-.402-.068-.278-.207-.572-.4-.878-2.814-4.23-8.658-5.102-16.63-5.104-2.728.087-11.764.83-13.572 6.682a2.02 2.02 0 0 0-.05.986c.16.8.523 1.37.998 1.972z" fill="url(#O)" class="B"/></g></g></svg>