<svg width="128" height="128" xmlns="http://www.w3.org/2000/svg" xmlns:xlink="http://www.w3.org/1999/xlink"><style>.G{color-interpolation-filters:sRGB}.H{fill:#fff}.I{fill:#363636}.J{filter:url(#a)}.K{fill-rule:evenodd}.L{stroke-linejoin:round}</style><defs><path id="A" d="M192 210.31c-.05.1-.08.13-.13.31-.05.26.02.9 0 1.28.46-.13.96.03 1.25.41 5.91 7.6 6.28 12.27 7.6 17.03.07.23.07.47 0 .69l-.47 1.34c.51.4 1.04.85 1.47 1.07.31.16.54.19.62.18l.13-3.37c-2.92-7-4.5-13.44-10.47-18.94z"/><path id="B" d="M210.03 276.66c-1.88.08-3.74.61-4.75 1.25-1.56.98-3.25 3.92-3.4 5.93-1.69 21.14-4.03 62.34-6.16 100l-4.78 78.32c.1.26.3.77.75 1.47.25.4.53.67.72.84 3.84-1.55 6.63-3.07 10.37-3.53 3.75-.46 8.3.4 15.31 2.84.26-.2.53-.36.85-.8.45-.65.65-1.45.65-1.6l-2-179.44c0-.5-.33-1.57-.9-2.5s-1.38-1.7-1.82-1.94a10.57 10.57 0 0 0-4.84-.84z"/><path id="E" d="m217.18 52.62 2.23 3.03 1.73 7.81c.5 2.31 2.81 3.58 4.8 4.65 2.61 1.4 9 2.1 9 2.1l32.73 32.05c2.54 13.08-13.43 21.9-18.9 20.84l-32.95-31.82s-.16-5.2-1.2-7.3c-1.48-3.03-3.5-6.34-6.9-7.1l-7.1-1.59-2.53-2-.12-4.5 4.54-5.72 6.16-6.34 3.84-2.88z"/><linearGradient id="C" x1="244.14" x2="224.53" y1="77.92" y2="98.23" gradientUnits="userSpaceOnUse" xlink:href="#L"><stop offset="0"/><stop stop-color="#666" offset=".09"/><stop offset=".16"/><stop offset=".72"/><stop stop-color="#5a5a5a" offset=".83"/><stop stop-color="#4d4d4d" offset=".9"/><stop offset="1"/></linearGradient><linearGradient id="D" x1="244.14" x2="224.53" y1="77.92" y2="98.23" gradientUnits="userSpaceOnUse"><stop stop-color="#810000" offset="0"/><stop stop-color="#a40000" offset=".09"/><stop stop-color="#950000" offset=".16"/><stop stop-color="#b00000" offset=".72"/><stop stop-color="#de0000" offset=".83"/><stop stop-color="#d70000" offset=".9"/><stop stop-color="#842222" offset="1"/></linearGradient></defs><linearGradient id="F" x1="148.57" x2="157.72" y1="7.52" y2="15.45" gradientUnits="userSpaceOnUse"><stop stop-color="#fff" stop-opacity=".74" offset="0"/><stop stop-color="#fff" stop-opacity="0" offset=".25"/><stop stop-color="#ccc" stop-opacity="0" offset=".5"/><stop stop-color="#9a9a9a" offset="1"/></linearGradient><linearGradient id="G" x1="161.94" x2="148.21" y1="16.74" y2="2.51" gradientUnits="userSpaceOnUse"><stop stop-color="#fff" offset="0"/><stop stop-color="#393939" offset="1"/></linearGradient><linearGradient id="H" x1="159.42" x2="141.78" y1="20.52" y2="2.25" gradientUnits="userSpaceOnUse"><stop stop-color="#d3d6d6" offset="0"/><stop stop-color="#f7f7f7" offset="1"/></linearGradient><linearGradient id="I" x1="176.25" x2="182.76" y1="39.15" y2="32.49" gradientUnits="userSpaceOnUse"><stop stop-color="#979797" offset="0"/><stop stop-color="#a2a2a2" offset=".05"/><stop stop-color="#e1e1e1" offset=".2"/><stop stop-color="#fff" offset=".33"/><stop stop-color="#cbcbcb" offset=".48"/><stop stop-color="#3d3d3d" offset=".63"/><stop stop-color="#f5f5f5" offset=".74"/><stop stop-color="#d6d6d6" offset=".85"/><stop stop-color="#aeaeae" offset="1"/></linearGradient><linearGradient id="J" x1="249.02" x2="242.36" y1="88.9" y2="95.8" gradientUnits="userSpaceOnUse"><stop stop-color="#760000" stop-opacity=".79" offset="0"/><stop stop-color="#cb1e00" stop-opacity=".98" offset=".24"/><stop stop-color="#e02d00" offset=".34"/><stop stop-color="#ad1300" offset="1"/></linearGradient><filter id="K" class="G"><feGaussianBlur stdDeviation="2.38"/></filter><linearGradient id="L" x1="307.69" x2="399.74" y1="397.97" y2="300.04" gradientUnits="userSpaceOnUse"><stop offset="0"/><stop stop-opacity="0" offset="1"/></linearGradient><filter id="M" class="G" x="-.27" y="-.38" width="1.54" height="1.76"><feGaussianBlur stdDeviation="1.4"/></filter><filter id="N" class="G" x="-.09" y="-.2" width="1.18" height="1.4"><feGaussianBlur stdDeviation="1.54"/></filter><filter id="O" class="G" x="-.21" y="-.01" width="1.42" height="1.02"><feGaussianBlur stdDeviation=".82"/></filter><filter id="P" class="G" x="-.24" y="-.01" width="1.48" height="1.03"><feGaussianBlur stdDeviation="1.15"/></filter><linearGradient id="Q" x1="195.94" x2="219.61" y1="370.56" y2="370.56" gradientUnits="userSpaceOnUse"><stop stop-color="#bababa" offset="0"/><stop stop-color="#8c8c8c" offset="1"/></linearGradient><filter id="R" class="G"><feGaussianBlur stdDeviation=".55"/></filter><linearGradient id="S" x1="223.02" x2="192.02" y1="375.13" y2="375.13" gradientUnits="userSpaceOnUse"><stop stop-color="#ddd" offset="0"/><stop stop-color="#d9d9d9" stop-opacity="0" offset="1"/></linearGradient><filter id="T" class="G"><feGaussianBlur stdDeviation=".58"/></filter><linearGradient id="U" x1="187.5" x2="223.02" y1="370.63" y2="370.63" gradientUnits="userSpaceOnUse"><stop stop-color="#454545" offset="0"/><stop stop-color="#454545" stop-opacity="0" offset="1"/></linearGradient><filter id="V" class="G" x="-.12" y="-.04" width="1.25" height="1.09"><feGaussianBlur stdDeviation=".89"/></filter><linearGradient id="W" x1="251.16" x2="189.16" y1="345.58" y2="345.58" gradientUnits="userSpaceOnUse"><stop stop-color="#717171" offset="0"/><stop stop-color="#b5b5b5" stop-opacity="0" offset="1"/></linearGradient><linearGradient id="X" x1="296.16" x2="214.66" y1="474.27" y2="221.27" gradientUnits="userSpaceOnUse"><stop stop-color="#b2b2b2" offset="0"/><stop stop-color="#b5b5b5" offset=".12"/><stop stop-color="#d0cfca" offset=".7"/><stop stop-color="#d1d1d1" offset=".87"/><stop stop-color="#a0a0a0" offset=".94"/><stop stop-color="#838383" offset="1"/></linearGradient><linearGradient id="Y" x1="222.62" x2="226.94" y1="207.19" y2="218.47" gradientUnits="userSpaceOnUse"><stop stop-color="#6e6e6e" offset="0"/><stop stop-color="#e4e4e4" offset="1"/></linearGradient><linearGradient id="Z" x1="177.56" x2="244.21" y1="216.02" y2="168.02" gradientUnits="userSpaceOnUse"><stop stop-color="#b2b0a6" offset="0"/><stop stop-color="#e3e4df" offset=".21"/><stop stop-color="#d8d8d6" offset=".52"/><stop stop-color="#b0b1ac" offset="1"/></linearGradient><filter id="a" class="G" x="-.21" width="1.42"><feGaussianBlur stdDeviation=".93"/></filter><linearGradient id="b" x1="176" x2="184.51" y1="192.61" y2="162.56" gradientUnits="userSpaceOnUse"><stop stop-color="#e3e3e3" offset="0"/><stop stop-color="#c5c5c5" offset="1"/></linearGradient><linearGradient id="c" x1="197.64" x2="203.29" y1="212.01" y2="231.05" gradientUnits="userSpaceOnUse"><stop stop-color="#454545" offset="0"/><stop stop-color="#fff" offset=".4"/><stop stop-color="#fff" offset=".56"/><stop stop-color="#686868" offset="1"/></linearGradient><filter id="d" class="G"><feGaussianBlur stdDeviation=".52"/></filter><radialGradient id="e" cx="198.46" cy="191.15" r="25.29" gradientTransform="matrix(.99972 .0238 -.01977 .8303 3.83 29.18)" gradientUnits="userSpaceOnUse"><stop stop-color="#cdcdcd" offset="0"/><stop stop-color="#9a9a9a" offset="1"/></radialGradient><linearGradient id="f" x1="197.36" x2="205.82" y1="208.89" y2="231.35" gradientUnits="userSpaceOnUse"><stop stop-color="#525252" offset="0"/><stop stop-color="#363636" stop-opacity="0" offset="1"/></linearGradient><filter id="g" class="G" x="-.11" y="-.03" width="1.22" height="1.06"><feGaussianBlur stdDeviation="4.67"/></filter><g class="K" transform="matrix(-1.0379 -.12084 -.12084 1.0379 140.27 6.58)"><path d="M213.66 143.38c-1.78-.03-2.16 1.28-2.16 1.28l13.25 30.15-12.9 16.06-18.26-3.9-1.43-3.53-.1-.4-.03-.17-12.75-29.5-1.4 1.85-.57-1.5c-11.9 12.47-20.73 26.81-15.34 53.22l-9.06 2.72-2.1 2.53a210.92 210.92 0 0 0 9.19 9.12l-4.4 1.47c-1.5 3.03-2.73 6.03 3.15 8.28l7.78-2.25a45.36 45.36 0 0 1 1.22 1.69l.22.31c5.66 8.4 9.98 23.4 12.94 33 1.97 6.4 2.12 21.97 2.12 21.97.77 4.57-8.85 139.38-10.87 199-.18 5.33 4.27 14.6 9.09 17.28 10.4 5.8 12.6 5.15 15.25 5 .2.04.45.1.66.13 5.03.63 12.2-.98 16.5-3.53 4.6-2.74 11.07-8.31 11.25-13.44 2.53-72.66 1.4-220.06 2.12-222.03 1.05-9.86 6.14-21.03 9.56-25.97 3.48-5.03 9.6-12.05 12.97-17.66 3.76-6.22 8.6-15.3 10.07-22.72.12-.62.2-1.24.28-1.84 1.13-9.47-1.1-21.6-5.7-30.1-3.33-6.15-10.53-12.99-16.52-16.96-4.55-3.02-14.92-6.54-20.13-8.22l-.15-.28-1.03-.28a6.84 6.84 0 0 0-2.72-.78zm-4.38 58.34.03.12-29.6 9.28-.15-.4 29.72-9zm-43.65 3.87c.01.08.01.15.03.22l-.38.1zm33.78 252.1c8.78 0 15.9 10.28 15.9 22.97s-7.12 23-15.9 23-15.91-10.32-15.91-23 7.12-22.97 15.9-22.97z" filter="url(#g)" opacity=".7" transform="rotate(-38.63 -24.08 125.75) scale(.4117)"/><path d="m183.57 211.42 29.04-9.7 9.55 34.02-27.24 10.01-11.35-34.33z" fill="url(#f)" transform="rotate(-38.63 -24.08 125.75) scale(.4117)"/><path d="M174 211.36c-9.46-21.68-3.37-40.33 10-58l12 29.5 1 4 22 5-21 12.5z" fill="url(#e)" stroke="#8d8d8d" transform="rotate(-38.63 -24.08 125.75) scale(.4117)"/><path d="M22.67 2.98c-.55.42-.33.93-.33.93l11.76 6.5.24 8.97L21.3 39l.01 1.32s6.34.64 9.84 1.8l.15.04c3.87 1.33 9.04 5.11 12.4 7.48 2.24 1.58 6.3 6.55 6.3 6.55 1.4 1.28 33.14 46.97 47.85 66.64 1.31 1.75 5.04 3.66 7.2 3.35 5.41-.76 5.18-1.64 6.32-2.42 1.6-1.1 2.28-2.5 2.9-4.35.66-1.98.99-3.9-.28-5.6-17.99-24.03-56.31-71.3-56.6-72.1a28.3 28.3 0 0 1-3.86-10.66c-.26-2.45-.25-6.16-.69-8.77-.49-2.9-1.4-6.98-2.88-9.72a11.36 11.36 0 0 0-.38-.67c-2.1-3.32-5.9-6.7-9.45-8.34-2.58-1.2-12.65-1.25-15.45-1.1-1.1.05-1.69.28-2 .53zM36.33 22.8l11.08 7.79-6.06 9.75-11.7-7.44zm64.37 87.8c2.7-2.16 6.72-1.6 8.98 1.23s1.9 6.88-.78 9.03-6.72 1.6-8.98-1.22-1.92-6.89.78-9.04z" fill="#6a6a6a"/><path d="M14.3 15.12c-.4 7.06.66 13.96 9.65 21.34l1.07-14.47-.05-.04z" fill="#939393"/><path transform="matrix(.36845 -.29445 .29445 .36845 -98.5 10.4)" d="M192.09 181.04c-12.92 17.1-27.13 7.4-18.96 28.18l21.13-22.41z" filter="url(#d)" opacity=".7"/><path d="m183.57 216.92 35.68-12.95 7 19.85-38.15 14.47z" fill="url(#c)" transform="rotate(-38.63 -24.08 125.75) scale(.4117)"/><path d="M184 153.38c-12.92 17.1-19.04 35.07-10.88 55.84l22.91-26.19-.03-.15z" fill="url(#b)" stroke="#f9f9f9" stroke-width="1.2" transform="rotate(-38.63 -24.08 125.75) scale(.4117)"/><path class="I" d="M38.63 37.97c-1.8-1.35-3.07-2.76-6.99-3.85l-.06.85c-1.09-1.06-1.59-1.9-1.1-2.32 3.87.28 6.31 2.35 9.3 4.07l1.09 1.48c.04.9-1.2.7-1.87.72z"/><use class="H J" transform="matrix(.32133 -.25679 .27679 .34636 -89.07 9.68)" xlink:href="#A"/><path class="I" d="M44.13 29.04c-1.8-1.35-3.08-2.76-6.99-3.85l-.06.85c-1.1-1.07-1.59-1.9-1.1-2.32 3.86.28 6.31 2.34 9.3 4.06l1.08 1.48c.05.9-1.19.7-1.86.72z"/><use class="H J" transform="matrix(.32133 -.25679 .27679 .34636 -83.58 .75)" xlink:href="#A"/><path d="m217.09 143.72 12.72 31.13-15.56 16.97-54.2 17.87s12.63 12.16 17.6 19.63l11.63-3.91-5.03-14.69 28-9 4.25 14.6 43.15-14.48a25.94 25.94 0 0 0 .29-1.84c1.07-9.46-1.05-21.6-5.38-30.1-3.14-6.14-9.91-12.99-15.56-16.96-5.84-4.1-21.9-9.22-21.9-9.22z" fill="url(#Z)" stroke="url(#Y)" transform="rotate(-38.63 -24.08 125.75) scale(.4117)"/><path d="m259.66 201.84-43.16 14.47 4.97 16.97-26.28 9.31-5.9-17.18-11.63 3.9.22.32c5.42 8.36 9.6 23.34 12.44 32.9 1.9 6.39 2.03 21.9 2.03 21.9.73 4.56-9.6 140.37-11.53 199.82-.18 5.31 4.21 12.83 8 16.56 2.9 2.87 7.95 5.84 12 6.38 4.74.63 11.51-.98 15.56-3.53 4.34-2.74 10.42-8.3 10.6-13.44 2.38-72.66 1.3-220.06 2-222.03.98-9.86 5.77-21.03 9-25.97 3.27-5.02 9.03-12.05 12.21-17.66 3.54-6.22 8.1-15.3 9.47-22.72zm-55.41 266.57c8.39 0 15.19 7.16 15.19 15.97s-6.8 15.93-15.19 15.93-15.19-7.13-15.19-15.93 6.8-15.97 15.19-15.97z" fill="url(#X)" stroke="url(#W)" transform="rotate(-38.63 -24.08 125.75) scale(.4117)"/><path class="H" d="m214.96 191.81 15.9-16.97-13.44-31.11 2.48.7 12.38 29.35z" filter="url(#V)" transform="rotate(-38.63 -24.08 125.75) scale(.4117)"/></g><g fill="none" stroke-width="2" transform="scale(-.4302 .4302) rotate(-45.27 -179.67 663.6)"><path d="M188.5 462.65c1.56-14.28 7.63-136.6 11-179 .23-2.87 2.06-6.25 4.5-7.79 3.05-1.92 8.82-2.19 12-.5 2.02 1.08 3.95 4.2 4 6.5l2 179.5c0 1.83-1.77 4.4-3.5 5-15.46-5.59-17.07-2.8-25.98.65-2.27.27-4.02-4.36-4.02-4.36z" filter="url(#T)" stroke="url(#U)"/><use filter="url(#R)" stroke="url(#S)" xlink:href="#B"/></g><g class="K" transform="scale(-.4302 .4302) rotate(-45.27 -179.67 663.6)"><use fill="url(#Q)" filter="url(#R)" xlink:href="#B"/><path class="H" d="m187 245.36 5 14.5 1.5 15.5-10 178.5 4.5-43.5 7-134.5s-.18-11.87-1.5-16.73c-1.2-4.41-6.5-13.77-6.5-13.77z" filter="url(#P)"/><path d="m223 457.36-3-183-11.4-2.65c5.44-2.76 13.18-.68 12.4 1.15 5.54 42.53 1.77 184.45 2 184.5z" fill="#e7e7e7" filter="url(#O)"/></g><g fill="none"><path class="L" d="M11.24 109.23c-2.69 2.66-2.8 6.9-.26 9.47s6.79 2.47 9.48-.18 2.8-6.91.26-9.48-6.79-2.47-9.48.19z" stroke="#4f4f4f" stroke-width=".91"/><path transform="scale(-.4302 .4302) rotate(-45.27 -179.67 663.6)" d="M184.5 488.36c13.31 26.9 31.77 14.96 38.5-.5" filter="url(#N)" stroke="#fff" stroke-linecap="round" stroke-width="2"/></g><g class="K" transform="rotate(6.64 80.83 50.06) scale(1.04491)"><path class="I" d="M89.04 35.73c1.8-1.34 3.07-2.75 6.99-3.84l.06.85c1.09-1.07 1.59-1.9 1.11-2.32-3.87.28-6.31 2.34-9.3 4.06l-1.08 1.48c-.05.9 1.2.7 1.86.72z"/><use class="H J" transform="matrix(-.32133 -.25679 -.27679 .34636 216.75 7.45)" xlink:href="#A"/><path class="I" d="M87.67 33.5c1.8-1.35 3.07-2.76 6.99-3.85l.06.86c1.09-1.07 1.59-1.9 1.1-2.33-3.87.28-6.31 2.35-9.3 4.07l-1.09 1.48c-.04.9 1.2.7 1.87.72z"/><use class="H J" transform="matrix(-.32133 -.25679 -.27679 .34636 215.37 5.22)" xlink:href="#A"/><path class="I" d="M86.3 31.27c1.79-1.35 3.07-2.76 6.98-3.85l.06.85c1.1-1.06 1.59-1.9 1.1-2.32-3.86.28-6.3 2.35-9.29 4.07l-1.1 1.48c-.04.9 1.2.7 1.87.72l.37-.95z"/><use class="H J" transform="matrix(-.32133 -.25679 -.27679 .34636 214 2.98)" xlink:href="#A"/><path d="m102.19 40.38 1.37 2.19c-.32 1.34-.72 2.6-3.08 1.9L98.4 41.4c.66-.66 1.67-1.13 3.79-1.03z" fill="#575757"/><path transform="scale(-.34463 .34463) rotate(-38.63 -289.24 697.22)" d="M69 240.81a.71.71 0 0 0-.16.06l-6.81 2.63a.71.71 0 0 0-.4.4l-.63 1.66c-.17.52-.34.88-.25 1.44.07.44.33.86.78 1.28s1.1.87 2.1 1.34a.71.71 0 0 0 .56 0l8.4-3.09a.71.71 0 0 0 .4-.97c-.53-1.16-1.14-2.76-3.46-4.6a.71.71 0 0 0-.53-.15z" fill="#dfdfdf" filter="url(#M)"/></g><g transform="translate(-140)"><path transform="matrix(-.97007 .04735 .04815 .98648 525.93 -287.38)" d="m401.94 287.78-8.6 4.9a38.72 38.72 0 0 0-2.34 5.5l-.03.07-44.84 44.6c-1.96-1.7-3.61-2.87-4.57-3.23h-.03l-.28-.22-4.47-1.1-2.1 2.95-1.52 7.5a4.16 4.16 0 0 1-1.13 2.12 7.04 7.04 0 0 1-.6.56l-.65.53c-.68.5-1.44.92-2.15 1.32-2.48 1.38-8.57 2.15-8.57 2.15l-30.81 31.16-.16 1.19-.06 1.12.03.85.03.53v.03l.1.78.18.97c.1.48.25.96.41 1.43.07.22.17.42.25.63l.47 1.12.13.22.3.6.45.72.84 1.22.12.18c.36.46.74.9 1.13 1.32 4.46 4.81 11.11 7.4 14.19 6.75l31.03-30.97s.04-4.97 1-7c1.37-2.93 3.24-6.13 6.5-6.91l6.78-1.63 2.37-1.97.07-4.28-.25-.3c-.32-.94-1.53-2.63-3.28-4.63l44.56-44.78.4-.25c1.58-.49 3.43-1.2 5.7-2.29l5.52-7.75-6.12-5.72z" fill="url(#L)" filter="url(#K)" opacity=".7"/><use fill="url(#D)" xlink:href="#E"/><path class="H" d="M263.48 115.8c3.17-3.54 5.23-8.18 4.2-13.53l-32.72-32.05s-6.4-.7-9-2.1c-2-1.07-4.3-2.34-4.8-4.65l-1.73-7.8-2.23-3.04-4.64 1.23-.68.5c8.65 25.7 32.6 42.27 51.63 61.45z" opacity=".11" stroke="#fff" stroke-width=".83"/><path d="M215.88 57.17c-3.3.96-5.82 2.66-6.1 6.52 0 0 1.81 2.17 3.01 2.92 7.06 4.42 6.37-6.27 5.48-7.13zm12.09 14.46a2.74 2.74 0 0 0-.88.13c-1.15.38-2.71 1.75-2.58 2.84.16 1.41-.02 2.69 1.09 4.47l36.2 35.26c4.73-.48 6.5-6.6 4.8-8.22l-33.75-32.46s-2.73-2-4.88-2.01z" fill="url(#J)"/><path d="M198.22 69.2c-.66-.63 2.12-4.55 6.2-8.75s7.94-7.1 8.6-6.45-2.12 4.56-6.2 8.76-7.94 7.1-8.6 6.45z" fill="#a10000"/><path d="M201.26 66.08c-.29-.28 1.43-2.51 3.83-4.99s4.6-4.25 4.9-3.97-1.42 2.52-3.83 5-4.6 4.25-4.9 3.96z" fill="#750000"/><path d="M205.87 61.62a26.68 26.68 0 0 0 2.63-3.13l-48.62-46.82-.24-.34-5.8 5.95.42.28 48.34 46.98a32.98 32.98 0 0 0 3.27-2.92z" fill="url(#I)" stroke="#393939" stroke-width=".44"/><path class="L" d="m141.95 7.02 5.9 7.98c14.67 6.73 14.83 1.15 9.45-9.11L148.25.94z" fill="url(#H)" stroke="url(#G)" stroke-dashoffset="1.09" stroke-width=".43"/><path d="m143.2 7.34 5.1 6.9c12.68 5.81 12.82 1 8.16-7.88l-7.82-4.26z" fill="url(#F)"/></g><use x="100" fill="url(#C)" xlink:href="#E"/></svg>