<svg xmlns="http://www.w3.org/2000/svg" xmlns:xlink="http://www.w3.org/1999/xlink" width="128" height="128"><style><![CDATA[.B{opacity:.7}.C{fill-rule:evenodd}.D{stroke-linejoin:round}.E{stroke-dashoffset:4}.F{stroke-opacity:.333}.G{fill-opacity:.394}.H{stroke-width:.752}]]></style><defs><linearGradient id="A" xlink:href="#a"><stop offset="0" stop-color="#393a38"/><stop offset="1" stop-color="#393a38" stop-opacity="0"/></linearGradient><linearGradient id="B" xlink:href="#a"><stop offset="0"/><stop offset="1" stop-opacity="0"/></linearGradient><linearGradient id="C" xlink:href="#a"><stop offset="0"/><stop offset=".407" stop-opacity=".682"/><stop offset=".453" stop-opacity=".487"/><stop offset=".5" stop-opacity=".36"/><stop offset=".706" stop-opacity=".152"/><stop offset="1" stop-opacity="0"/></linearGradient><linearGradient xlink:href="#C" id="D" x1="-82.51" y1="64.065" x2="-118.915" y2="63.447"/><linearGradient xlink:href="#C" id="E" x1="-146.752" y1="74.96" x2="-123.667" y2="73.415"/><linearGradient xlink:href="#B" id="F" x1="-113.643" y1="78.294" x2="-118.3" y2="33.764"/><radialGradient id="G" cx="63.847" cy="121.47" fx="95.481" fy="121.47" r="63.847" gradientTransform="matrix(1,0,0,0.102273,0,109.0471)" xlink:href="#a"><stop offset="0"/><stop offset="1" stop-opacity="0"/></radialGradient><radialGradient id="H" gradientTransform="matrix(0.962775,0.103895,0.105414,6.978879,33.03078,-433.3987)" cx="-16.603" cy="73.864" fx="-16.603" fy="73.864" r="4.391" xlink:href="#a"><stop offset="0" stop-color="#fff"/><stop offset="1" stop-color="#fff" stop-opacity="0"/></radialGradient><linearGradient id="I" x1="109.904" y1="54.221" x2="84.108" y2="68.975" spreadMethod="reflect" xlink:href="#a"><stop offset="0" stop-color="#9a7600"/><stop offset=".093" stop-color="#e3ad00"/><stop offset=".504" stop-color="#ffcd2c"/><stop offset=".916" stop-color="#e3ad00"/><stop offset="1" stop-color="#b98d00"/></linearGradient><linearGradient xlink:href="#B" id="J" x1="24.311" y1="120.291" x2="59.247" y2="95.263"/><radialGradient id="K" gradientTransform="matrix(1.126369,-0.578005,0.706687,1.338259,-56.17696,13.71076)" cx="70.624" cy="53.38" fx="70.964" fy="76.702" r="53.565" xlink:href="#a"><stop offset="0" stop-color="#fff" stop-opacity="0"/><stop offset=".5" stop-color="#7f7f7f" stop-opacity="0"/><stop offset="1"/></radialGradient><linearGradient id="L" x1="75.991" y1="99.182" x2="122.074" y2="67.631" xlink:href="#a"><stop offset="0" stop-color="#fff"/><stop offset=".426" stop-color="#fff"/><stop offset=".589" stop-color="#f1f1f1"/><stop offset=".802" stop-color="#eaeaea"/><stop offset="1" stop-color="#dfdfdf"/></linearGradient><linearGradient xlink:href="#A" id="M" x1="95.275" y1="127.471" x2="76.069" y2="95.936"/><linearGradient xlink:href="#A" id="N" x1="87.282" y1="156.984" x2="103.235" y2="68.424"/><radialGradient id="O" cx="104.66" cy="65.848" fx="115.729" fy="56.281" r="29.999" gradientTransform="matrix(0.453553,-0.261287,1.03209,1.791544,-20.21086,-24.28382)" xlink:href="#a"><stop offset="0" stop-color="#fff"/><stop offset="1" stop-color="#fff" stop-opacity="0"/></radialGradient><linearGradient id="P" x1="98.67" y1="117.437" x2="74.325" y2="90.759" xlink:href="#a"><stop offset="0" stop-opacity=".448"/><stop offset=".5" stop-opacity=".134"/><stop offset="1" stop-opacity="0"/></linearGradient><linearGradient id="Q" x1="78.569" y1="22.051" x2="41.438" y2="59.811" xlink:href="#a"><stop offset="0"/><stop offset="1" stop-opacity="0"/></linearGradient><linearGradient id="R" x1="23.023" y1="104.749" x2="22.669" y2="135.736" xlink:href="#a"><stop offset="0"/><stop offset="1" stop-opacity="0"/></linearGradient><linearGradient id="S" x1="24.651" y1="111.041" x2="24.946" y2="122.542" xlink:href="#a"><stop offset="0" stop-color="#fff"/><stop offset="1" stop-color="#fff" stop-opacity="0"/></linearGradient><radialGradient id="T" cx="29.962" cy="131.468" fx="29.962" fy="131.468" r="27.02" gradientTransform="matrix(0.709744,-1.62743e-2,3.676083e-3,0.160321,7.971984,102.5261)" xlink:href="#a"><stop offset="0" stop-color="#fff"/><stop offset="1" stop-color="#fff" stop-opacity="0"/></radialGradient><radialGradient id="U" cx="27.566" cy="130.943" fx="27.566" fy="130.943" r="27.02" gradientTransform="matrix(1,0,0,0.280337,0,85.27881)" xlink:href="#a"><stop offset="0"/><stop offset="1" stop-opacity="0"/></radialGradient><path id="V" d="M86.083 14.268l35.423 63.068c4.9 8.722-5.845 23.997-23.987 34.1s-36.838 11.22-41.736 2.497L20.36 50.864c-4.9-8.722 5.845-23.997 23.987-34.1s36.838-11.22 41.736-2.497z"/><path id="W" d="M86.08 13.96l35.423 63.068c4.9 8.722-5.845 23.997-23.987 34.1s-36.838 11.22-41.736 2.497L20.355 50.557c-4.9-8.722 5.845-23.997 23.987-34.1S81.18 5.238 86.08 13.96z"/><path id="X" d="M -84.361111 47.980999 A 33.496326 23.881639 0 1 1 -151.35376,47.980999 A 33.496326 23.881639 0 1 1 -84.361111 47.980999 z"/><path id="Y" d="M59.474 68.012l24.837 41.902c14.85-6.672 32.326-22.26 35.16-32.608l-24.19-42.64c-2.986 15.175-21.157 26.34-35.806 33.346z"/><path id="Z" d="M19.566 44.08c-.277 2.325.025 4.485 1.03 6.328 4.74 8.705 22.32 6.56 40.34-2.668 4.818-2.467 8.8-5.444 9.848-6.32-7.5-4.714-48.44-8.942-51.217 2.66z"/><linearGradient id="a" gradientUnits="userSpaceOnUse"/></defs><circle transform="matrix(-1.532253 .874618 -.874618 -1.532253 218.0578 102.9218)" cx="93.005" cy="70.773" r="5.992" fill="#9f0" class="B"/><path d="M126.2 79.113c-1.54 5.632-7.357 8.953-13 7.415a10.58 10.58 0 0 1-7.411-12.987c1.54-5.632 7.357-8.953 12.987-7.417 5.632 1.543 8.95 7.36 7.414 12.99z" fill="red" class="B"/><path d="M23.986 51.2A10.58 10.58 0 0 1 11 58.602a10.58 10.58 0 0 1-7.414-12.989c1.538-5.63 7.355-8.95 12.987-7.413s8.95 7.358 7.413 13z" fill="#0c0" class="B"/><path d="M118.82 59.126a10.57 10.57 0 1 1-5.373-20.446c5.65-1.488 11.432 1.887 12.912 7.54 1.485 5.647-1.892 11.424-7.54 12.905z" fill="#c09" class="B"/><path d="M35.054 32.234a10.57 10.57 0 1 1-14.883-15.023c4.152-4.115 10.846-4.078 14.956.07s4.077 10.84-.072 14.952z" fill="#099" class="B"/><path d="M109.978 32.598c-4.152 4.107-10.842 4.078-14.953-.074-4.108-4.146-4.074-10.843.08-14.952a10.57 10.57 0 0 1 14.945.073c4.117 4.15 4.083 10.848-.07 14.953z" fill="#609" class="B"/><circle transform="matrix(-1.532253 .874618 -.874618 -1.532253 218.0578 102.9218)" cx="56.226" cy="92.005" r="5.993" fill="#03c" class="B"/><path d="M89.06 14.046c-1.54 5.63-7.36 8.95-12.99 7.414s-8.95-7.358-7.414-12.99 7.358-8.95 12.99-7.414 8.95 7.358 7.414 12.99z" fill="#309" class="B"/><path d="M15.374 125.694c6.848.055 12.622-.705 14.032-.67 9.326.23 31.67-4.097 22.735-9.417-9.763-5.812-36.596-5.656-47.044-.052-11.402 6.116 3.43 10.084 10.276 10.14z" fill="url(#T)" stroke="url(#U)" stroke-width="2.152" opacity=".377" class="C"/><path d="M127.694 121.47A63.847 6.53 0 1 1 0 121.47a63.847 6.53 0 1 1 127.694 0z" opacity=".365" fill="url(#G)"/><path d="M-300.307-39.678v-2.795 2.795z" fill="#fff" fill-opacity=".757"/><g fill="none" stroke="#000" class="D E F"><use xlink:href="#V" opacity=".25" stroke-width="2.977"/><use xlink:href="#V" opacity=".3" stroke-width="1.985"/></g><use xlink:href="#W" fill="url(#L)"/><use xlink:href="#W" opacity=".406" fill="url(#K)"/><use xlink:href="#W" fill="url(#J)"/><use xlink:href="#X" transform="matrix(.981188 -.546351 .371618 .661637 152.2798 -63.94088)" opacity=".4" fill="url(#E)"/><g transform="matrix(.981188 -.546351 .371618 .661637 151.317 -64.04474)"><use xlink:href="#X" opacity=".4" fill="url(#D)"/><use xlink:href="#X" opacity=".4" fill="url(#F)"/></g><path d="M86.175 14.145l1.602 2.826c4.9 8.722-5.83 23.99-23.97 34.093s-36.82 11.228-41.72 2.506l-1.91-3.413c.126 1.383.5 2.663 1.154 3.845 2.538 4.52 8.668 6.464 16.377 6.002s17.07-3.322 26.26-8.44 16.527-11.522 20.958-17.82 5.94-12.513 3.402-17.033c-.553-.985-1.28-1.826-2.153-2.567z" fill="#cacaca"/><path d="M76.72 9.446c-8.27-.913-19.836 1.896-31.175 8.2C27.403 27.758 16.65 43.05 21.55 51.77c.368.654.832 1.232 1.348 1.776a8.71 8.71 0 0 1-.737-1.071c-4.9-8.722 5.853-24.013 23.995-34.115 16.773-9.34 34.017-11 40.396-4.305-2.016-2.593-5.46-4.127-9.832-4.6z" opacity=".4" fill="#babdb6"/><use xlink:href="#Y" fill="url(#I)"/><use xlink:href="#X" transform="matrix(.979816 -.546512 .371116 .661595 151.1312 -64.06692)" fill="none" stroke="#fff" stroke-width="1.613" class="D E"/><use xlink:href="#Z" fill="#b70000"/><path d="M75.92 8.268c-1.6-.174-3.33-.19-5.168-.078-7.348.442-16.353 3.177-25.26 8.145S29.52 27.518 25.297 33.53a31.55 31.55 0 0 0-2.344 3.903c.587-1.1 1.29-2.197 2.082-3.324 4.223-6.013 11.29-12.26 20.195-17.228S63.14 9.18 70.5 8.737s13 1.366 15.343 5.524c1.604 2.86 1.453 6.498-.173 10.436 1.846-4.153 2.114-8 .435-10.984-1.75-3.12-5.377-4.925-10.175-5.446zm10.488 18.205c-.622 1.172-1.365 2.348-2.2 3.535-4.45 6.334-11.785 12.77-20.996 17.91s-18.564 8.014-26.305 8.48-13.902-1.498-16.462-6.06c-1.76-3.137-1.574-7.1.16-11.3-1.96 4.43-2.262 8.567-.422 11.848 2.56 4.563 8.72 6.526 16.462 6.06s17.094-3.342 26.305-8.48S79.497 36.92 83.946 30.587c.964-1.373 1.782-2.764 2.46-4.115z" class="G"/><path d="M76.453 8.035a30.83 30.83 0 0 0-5.168-.11c-7.348.442-16.353 3.177-25.26 8.145-5.697 3.178-10.624 6.88-14.557 10.707 3.793-3.547 8.45-6.936 13.758-9.898 8.906-4.968 17.9-7.703 25.26-8.145S83.61 10.127 85.8 14.36c2.084 4.027.467 9.783-3.756 15.796-1.467 2.088-3.112 4.024-5.22 6.1 2.466-2.333 4.363-4.553 6.02-6.9 4.223-6.013 6.022-11.508 3.7-15.666-1.75-3.12-5.282-5.125-10.08-5.646zM29.785 26.626c-2.43 2.335-4.532 4.725-6.2 7.1-4.45 6.334-5.995 12.587-3.436 17.15s8.72 6.526 16.462 6.06 17.124-3.34 26.335-8.476C69.1 45.028 74.392 41.02 78.57 36.847c-4.044 3.88-9.07 7.595-14.826 10.805-9.21 5.137-18.564 8.046-26.305 8.512s-13.903-1.53-16.463-6.093-1.014-10.816 3.436-17.15c1.477-2.103 3.292-4.216 5.372-6.294z" class="G"/><use xlink:href="#Y" fill="url(#O)"/><path d="M120.027 75.206l1.583 2.792c4.84 8.617-5.758 23.7-23.68 33.68s-36.375 11.092-41.215 2.476l-1.886-3.372c.124 1.366.484 2.63 1.14 3.798 2.508 4.465 8.563 6.386 16.18 5.93S89 117.23 98.09 112.173s16.327-11.382 20.704-17.604 5.87-12.362 3.36-16.827c-.547-.973-1.265-1.804-2.127-2.536z" opacity=".783" fill="url(#N)"/><path d="M119.58 74.69l1.583 2.792c4.84 8.617-5.758 23.7-23.68 33.68s-36.375 11.092-41.215 2.476l-1.886-3.372c.124 1.366.484 2.63 1.14 3.798 2.508 4.465 8.563 6.386 16.18 5.93s16.864-3.282 25.943-8.337 16.327-11.382 20.704-17.604 5.868-12.362 3.36-16.827c-.547-.973-1.265-1.804-2.127-2.536z" opacity=".783" fill="url(#M)"/><path d="M15.374 125.694c6.848.055 12.622-.705 14.032-.67 9.326.23 31.67-4.097 22.735-9.417-9.763-5.812-36.596-5.656-47.044-.052-11.402 6.116 3.43 10.084 10.276 10.14z" fill="#b90000" stroke="#ae0000" class="C H"/><path d="M15.322 126.053c6.848.055 12.648-.743 14.058-.696 9.412.315 32.486-4.155 23.017-10.007-9.665-5.973-36.852-5.912-47.66 0-11.35 6.21 3.738 10.648 10.584 10.703z" opacity=".885" fill="none" stroke="url(#R)" stroke-width=".077"/><path d="M84.31 109.914c14.85-6.672 32.326-22.26 35.16-32.608-17.46-30.24-50.433 6.273-35.16 32.608z" opacity=".44" fill="url(#P)"/><g class="C"><path d="M35.982 55.748c-5.735-.137-7.844 4.47-8.212 8.95-1.1 13.395 1.195 22.784.427 33.5-.156 2.174-4.024 4.36-4.48-.483-1.055-11.237.738-19.123-.523-34.645-.417-5.127-2-10.052-3.37-15.913" fill="#b70000" stroke="#000" stroke-width=".1"/><path d="M21.433 51.632c1.1 4.327 2.14 8.23 2.468 12.256 1.262 15.522-.532 23.413.523 34.65.06.645.19 1.16.354 1.573.44-.45.745-1.027.787-1.6.768-10.717-1.605-19.975-.504-33.37.288-3.506 1.515-8.09 4.88-9.065-2.847-1.477-5.775-2.9-8.508-4.435z" fill="url(#H)"/></g><use xlink:href="#Z" fill="url(#Q)"/><g fill="none" stroke="url(#R)"><path d="M15.322 126.053c6.848.055 12.648-.743 14.058-.696 9.412.315 32.41-4.078 22.94-9.93-9.665-5.973-36.724-5.9-47.53.012-11.35 6.21 3.686 10.558 10.533 10.614z" opacity=".627" stroke-width=".277"/><path d="M15.322 126.053c6.848.055 12.648-.743 14.058-.696 9.412.315 32.234-3.8 22.74-9.622-9.635-5.898-36.378-5.822-47.223-.006-11.402 6.115 3.577 10.268 10.424 10.323z" opacity=".246" stroke-width=".977"/></g><path d="M32.37 111.103c-7.9-.298-16.27.5-22.385 2.296-3.135 2.86 8.558 5.642 17.163 5.855 9.784.24 20.86-2.558 18.916-6.29-3.945-1.05-8.713-1.673-13.693-1.86z" opacity=".82" fill="url(#S)"/><path d="M15.374 125.694c6.848.055 12.622-.705 14.032-.67 9.326.23 31.67-4.097 22.735-9.417-9.763-5.812-36.596-5.656-47.044-.052-11.402 6.116 3.43 10.084 10.276 10.14z" fill="url(#T)" stroke="url(#U)" class="B C H"/></svg>