<svg xmlns="http://www.w3.org/2000/svg" xmlns:xlink="http://www.w3.org/1999/xlink" width="320" height="320"><defs><filter id="A" x="0%" y="0%" width="100%" height="100%"><feColorMatrix in="SourceGraphic" values="0 0 0 0 1 0 0 0 0 1 0 0 0 0 1 0 0 0 1 0"/></filter><mask id="B"><g filter="url(#A)"><path d="M0 0h320v320H0z" fill="rgb(0%,0%,0%)" fill-opacity=".65" stroke="none"/></g></mask><linearGradient id="C" x1="23.996" y1="18.105" x2="41.048" y2="35.96" xlink:href="#P"><stop offset="0" stop-color="rgb(80.000001%,0%,0%)"/><stop offset="1" stop-color="rgb(70.19608%,0%,0%)"/></linearGradient><clipPath id="D"><path d="M0 0h320v320H0z"/></clipPath><g id="E" clip-path="url(#D)"><path d="M15.59.492h17.086l12.82 13.094V31.48L32.85 43.497H15.42L2.494 30.658V13.464zm0 0" transform="matrix(7.095185 0 0 7.095168 -10.283869 3.92776)" fill-rule="evenodd" fill="url(#C)" stroke-width="1" stroke-linecap="butt" stroke-linejoin="miter" stroke="rgb(52.549022%,0%,0%)" stroke-opacity="1" stroke-miterlimit="4"/></g><mask id="F"><g filter="url(#A)"><path d="M0 0h320v320H0z" fill="rgb(0%,0%,0%)" fill-opacity=".813" stroke="none"/></g></mask><linearGradient id="G" x1="15.737" y1="10.504" x2="53.57" y2="45.374" xlink:href="#P"><stop offset="0" stop-color="rgb(100%,54.509807%,54.509807%)"/><stop offset="1" stop-color="rgb(92.54902%,10.588235%,10.588235%)"/></linearGradient><clipPath id="H"><path d="M0 0h320v320H0z"/></clipPath><g id="I" clip-path="url(#H)"><path d="M16.02 1.5H32.25l12.248 12.422v17.114L32.64 42.488H15.87L3.51 30.21V13.846zm0 0" transform="matrix(7.095185 0 0 7.095168 -10.283869 3.92776)" fill="none" stroke-width="1" stroke-linecap="butt" stroke-linejoin="miter" stroke="url(#G)" stroke-miterlimit="4"/></g><mask id="J"><g filter="url(#A)"><path d="M0 0h320v320H0z" fill="rgb(0%,0%,0%)" fill-opacity=".137" stroke="none"/></g></mask><radialGradient id="K" cx="16.75" cy="10.666" fx="16.75" fy="10.666" r="21.25" gradientTransform="matrix(29.480188,0,0,22.695476,-385.232698,-162.87403)" xlink:href="#P"><stop offset="0" stop-color="rgb(100%,100%,100%)"/><stop offset="1" stop-color="rgb(100%,100%,100%)" stop-opacity="0"/></radialGradient><clipPath id="L"><path d="M0 0h320v320H0z"/></clipPath><g id="M" clip-path="url(#L)"><path d="M101.023 9.25L9.227 100.156v120.617l20.844 20.62c118.934.406 116.9-92.37 280.703-84.254v-56.098L220.754 9.25zm0 0" stroke="none" fill-rule="evenodd" fill="url(#K)"/></g><radialGradient id="N" cx="24.302" cy="33.302" fx="24.302" fy="33.302" r="12.302" gradientTransform="matrix(1.693981,0,0,1.693981,-16.86529,-25.111111)" xlink:href="#P"><stop offset="0" stop-color="rgb(100%,100%,100%)"/><stop offset="1" stop-color="rgb(85.882354%,85.882354%,85.882354%)"/></radialGradient><linearGradient id="O" x1="21.75" y1="13.802" x2="24.302" y2="33.052" xlink:href="#P"><stop offset="0" stop-color="rgb(100%,39.607844%,39.607844%)"/><stop offset="1" stop-color="rgb(100%,60.784316%,60.784316%)"/></linearGradient><linearGradient id="P" gradientUnits="userSpaceOnUse"/></defs><use xlink:href="#E" mask="url(#B)"/><use xlink:href="#I" mask="url(#F)"/><use xlink:href="#M" mask="url(#J)"/><path d="M16.767 10.5L12.5 14.767l7.535 7.535-7.535 7.535 4.267 4.267 7.535-7.535 7.535 7.535 4.267-4.267-7.535-7.535 7.535-7.535-4.267-4.267-7.535 7.535zm0 0" transform="matrix(7.095185 0 0 7.095168 -10.283869 3.92776)" fill-rule="evenodd" fill="url(#N)" stroke-linecap="round" stroke-linejoin="round" stroke="url(#O)"/></svg>