<svg width="320" height="320" xmlns="http://www.w3.org/2000/svg" xmlns:xlink="http://www.w3.org/1999/xlink"><defs><filter id="A" x="0%" y="0%" width="100%" height="100%"><feColorMatrix in="SourceGraphic" values="0 0 0 0 1 0 0 0 0 1 0 0 0 0 1 0 0 0 1 0"/></filter><mask id="B"><g filter="url(#A)"><path d="M0 0h320v320H0z" fill-opacity=".65"/></g></mask><linearGradient id="C" x1="23.996" x2="41.048" y1="18.105" y2="35.96" xlink:href="#P"><stop stop-color="#c00" offset="0"/><stop stop-color="#b30000" offset="1"/></linearGradient><clipPath id="D"><path d="M0 0h320v320H0z"/></clipPath><g id="E" clip-path="url(#D)"><path transform="matrix(7.0952 0 0 7.0952 -10.284 3.9278)" d="M15.59.492h17.086l12.82 13.094V31.48L32.85 43.497H15.42L2.494 30.658V13.464zm0 0" fill="url(#C)" fill-rule="evenodd" stroke="#860000"/></g><mask id="F"><g filter="url(#A)"><path d="M0 0h320v320H0z" fill-opacity=".813"/></g></mask><linearGradient id="G" x1="15.737" x2="53.57" y1="10.504" y2="45.374" xlink:href="#P"><stop stop-color="#ff8b8b" offset="0"/><stop stop-color="#ec1a1a" offset="1"/></linearGradient><clipPath id="H"><path d="M0 0h320v320H0z"/></clipPath><g id="I" clip-path="url(#H)"><path transform="matrix(7.0952 0 0 7.0952 -10.284 3.9278)" d="M16.02 1.5H32.25l12.248 12.422v17.114L32.64 42.488H15.87L3.51 30.21V13.846zm0 0" fill="none" stroke="url(#G)"/></g><mask id="J"><g filter="url(#A)"><path d="M0 0h320v320H0z" fill-opacity=".137"/></g></mask><radialGradient id="K" cx="16.75" cy="10.666" r="21.25" gradientTransform="matrix(29.48 0 0 22.695 -385.23 -162.87)" xlink:href="#P"><stop stop-color="#fff" offset="0"/><stop stop-color="#fff" stop-opacity="0" offset="1"/></radialGradient><clipPath id="L"><path d="M0 0h320v320H0z"/></clipPath><g id="M" clip-path="url(#L)"><path d="m101.02 9.25-91.796 90.906v120.62l20.844 20.62c118.93 0.406 116.9-92.37 280.7-84.254v-56.098l-90.02-91.791z" fill="url(#K)" fill-rule="evenodd"/></g><radialGradient id="N" cx="24.302" cy="33.302" r="12.302" gradientTransform="matrix(1.694 0 0 1.694 -16.865 -25.111)" xlink:href="#P"><stop stop-color="#fff" offset="0"/><stop stop-color="#dbdbdb" offset="1"/></radialGradient><linearGradient id="O" x1="21.75" x2="24.302" y1="13.802" y2="33.052" xlink:href="#P"><stop stop-color="#ff6565" offset="0"/><stop stop-color="#ff9b9b" offset="1"/></linearGradient><linearGradient id="P" gradientUnits="userSpaceOnUse"/></defs><use mask="url(#B)" xlink:href="#E"/><use mask="url(#F)" xlink:href="#I"/><use mask="url(#J)" xlink:href="#M"/><path transform="matrix(7.0952 0 0 7.0952 -10.284 3.9278)" d="m16.767 10.5-4.267 4.267 7.535 7.535-7.535 7.535 4.267 4.267 7.535-7.535 7.535 7.535 4.267-4.267-7.535-7.535 7.535-7.535-4.267-4.267-7.535 7.535zm0 0" fill="url(#N)" fill-rule="evenodd" stroke="url(#O)" stroke-linecap="round" stroke-linejoin="round"/></svg>
