<svg width="320" height="320" xmlns="http://www.w3.org/2000/svg"><path d="m30.883 0.918h249.36c16.57 0 30 13.43 30 30v247.6c0 16.57-13.43 30-30 30h-249.36c-16.566 0-30-13.43-30-30v-247.6c0-16.57 13.434-30 30-30z" fill-opacity=".584"/><path d="m235.55 13.438v222.11h-222.11v59.023h281.13v-281.13z" fill="#fff" fill-opacity=".995"/><path d="M235.547 13.438v222.11H13.438v59.023H294.57V13.438zm5.754 13.71h39.56v253.71H27.148V241.3H241.3zm0 0"/><path d="m51.578 10-42.422 42.422 85.195 85.234-43.672 43.672v31.016h160.9v-160.94h-30.977l-43.828 43.828zm0 0" fill="#fff" stroke="#000" stroke-linecap="round" stroke-linejoin="round" stroke-width="13.8"/></svg>
