<svg xmlns="http://www.w3.org/2000/svg" width="320" height="320"><path d="M30.883.918h249.36c16.57 0 30 13.43 30 30v247.6c0 16.57-13.43 30-30 30H30.883c-16.566 0-30-13.43-30-30v-247.6c0-16.57 13.434-30 30-30zm0 0" fill="rgb(0%,0%,0%)" fill-opacity=".584"/><path d="M235.547 13.438v222.11H13.438v59.023H294.57V13.438zm0 0" fill="rgb(100%,100%,100%)" fill-opacity=".995"/><path d="M235.547 13.438v222.11H13.438v59.023H294.57V13.438zm5.754 13.71h39.56v253.71H27.148V241.3H241.3zm0 0" fill="rgb(0%,0%,0%)"/><path d="M51.578 10L9.156 52.422l85.195 85.234-43.672 43.672v31.016h160.898V51.406h-30.977l-43.828 43.828zm0 0" fill="rgb(100%,100%,100%)" stroke-linecap="round" stroke-linejoin="round" stroke="rgb(0%,0%,0%)" stroke-width="13.8"/></svg>