<svg width="320px" height="320px" version="1.1" viewBox="0 0 320 320" xmlns="http://www.w3.org/2000/svg"><defs><linearGradient id="linear0" x1="24.2" x2="23.797" y1="41.695" y2="6.305" gradientTransform="matrix(6.3983 0 0 8.4793 7.4576 -44.519)" gradientUnits="userSpaceOnUse"><stop stop-color="#ffca37" offset="0"/><stop stop-color="#fff46f" offset="1"/></linearGradient></defs><g id="surface1"><path d="m54.125 5.4219h213.79c25.773 0 46.668 20.895 46.668 46.668v213.79c0 25.773-20.895 46.668-46.668 46.668h-213.79c-25.773 0-46.668-20.895-46.668-46.668v-213.79c0-25.773 20.895-46.668 46.668-46.668z" fill="url(#linear0)"/><path transform="scale(6.6667)" d="m5.0824 6.1225v27.039h1.7396v-27.039zm5.2184 0v13.52h1.7402v-13.52zm5.2189 0v13.52h1.7396v-13.52zm5.2184 0v13.52h1.7396v-13.52zm5.2184 0v13.52h1.7402v-13.52zm5.2189 0v20.277h1.7396v-20.277zm5.2184 0v13.52h1.7402v-13.52zm5.2184 0v13.52h1.7402v-13.52zm0 0" fill="#271e00" stroke="#271f00" stroke-linecap="round" stroke-linejoin="round" stroke-width=".48148"/></g></svg>
