<svg xmlns="http://www.w3.org/2000/svg" xmlns:xlink="http://www.w3.org/1999/xlink" height="320" width="320"><g stroke="#000" stroke-width="6.733"><path d="M18.128 72.557v179.862c0 12.094 9.946 21.934 22.17 21.934h239.427c12.224 0 22.17-9.84 22.17-21.934V72.557z" fill="#83a4ff"/><path d="M279.723 11.14H40.297c-12.224 0-22.17 9.84-22.17 21.934v39.482h283.765V33.075c0-12.094-9.946-21.934-22.17-21.934zM53.598 55.01c-7.346 0-13.3-5.892-13.3-13.16s5.955-13.16 13.3-13.16 13.3 5.892 13.3 13.16-5.955 13.16-13.3 13.16zm212.824 0c-7.346 0-13.3-5.892-13.3-13.16s5.955-13.16 13.3-13.16 13.3 5.892 13.3 13.16-5.955 13.16-13.3 13.16z" fill="#ad59ff"/></g><g fill="#545454"><use xlink:href="#B"/><use xlink:href="#B" x="212.824"/></g><path d="M78.133 95.148H230.7v157.905H78.133z" fill="#fff" fill-opacity=".79" paint-order="fill markers stroke"/><path d="M78.133 95.148H230.7v52.635H78.133z" fill="#59eaff" paint-order="stroke fill markers"/><use xlink:href="#C"/><use xlink:href="#D"/><use xlink:href="#E"/><path d="M203.408 117.006q0 3.615-.893 6.933-.893 3.318-2.807 5.955-1.914 2.595-4.89 4.338-2.977 1.744-7.146 2.212-.255-.766-.255-1.83 0-.213 0-.383 0-.17.042-.34 2.722-.298 4.85-1.32 2.127-1.02 3.7-2.595 1.616-1.616 2.637-3.7 1.02-2.084 1.53-4.508.085-.468.17-.893.085-.425.128-.893-1.063 2.042-3.147 3.36-2.084 1.32-4.934 1.32-1.616 0-3.233-.553-1.616-.553-2.892-1.7-1.276-1.19-2.084-3.02-.766-1.87-.766-4.466 0-2.467.85-4.338.85-1.914 2.254-3.2 1.404-1.276 3.147-1.914 1.786-.68 3.658-.68 2.254 0 4.126.638 1.87.638 3.2 2.084 1.32 1.446 2.042 3.785.723 2.34.723 5.7zm-10.336 4.934q1.404 0 2.68-.5 1.276-.553 2.254-1.49.978-.978 1.53-2.34.595-1.404.595-3.105 0-3.573-1.744-5.274-1.744-1.7-4.89-1.7-1.49 0-2.807.5-1.276.468-2.254 1.404-.936.893-1.49 2.254-.5 1.36-.5 3.105 0 1.914.5 3.275.553 1.36 1.446 2.212.893.85 2.084 1.276 1.233.383 2.595.383z"/><use xlink:href="#C" y="54"/><use xlink:href="#D" y="54"/><use xlink:href="#F"/><use xlink:href="#D" x="51.007" y="54"/><path d="M230.7 95.148v157.905M78.133 95.148v157.905m152.566 0H78.133M230.7 200.418H78.133M230.7 147.783H78.133M230.7 95.148H78.133" fill="none" stroke="#000" stroke-width="5" stroke-linecap="round" stroke-linejoin="round"/><use xlink:href="#C" y="108"/><use xlink:href="#D" y="108"/><use xlink:href="#F" y="54"/><use xlink:href="#E" x="25.504" y="108"/><path d="M151.75 114.326c-7.406 0-13.643 7.85-13.643 14.954v104.682c0-10.468-9.354-31.404-19.488-41.124-8.575-8.225-32.74-2.618-19.488 14.954 9.354 12.337 15.6 38.508 15.6 52.34 0 33.274 27.284 44.866 27.284 44.866v14.17h93.545v-14.17c12.863-16.077 11.694-15.328 11.694-52.34V207.79c0-7.103-6.238-14.954-13.643-14.954-5.01 0-9.48 3.426-11.85 7.84-.524-.23-1.12-.363-1.792-.363v-11.217c0-7.103-6.238-14.956-13.643-14.956-4.025 0-7.694 2.328-10.215 5.586-.625-1.145-1.838-1.847-3.426-1.847v-3.74c0-7.103-6.238-14.954-13.643-14.954-4.05 0-7.742 2.244-10.264 5.494-.64-1.09-1.833-1.755-3.38-1.755v-33.65c0-7.103-6.235-14.954-13.64-14.954z" fill="#fdc794" stroke="#000" stroke-width="2.607"/><path d="M192.325 302.508h-11.693c-2.34 0-3.898-1.495-3.898-3.74s1.56-3.74 3.898-3.74h11.693c2.34 0 3.898 1.495 3.898 3.74s-1.56 3.74-3.898 3.74m3.898 14.955h-19.5c-2.34 0-3.898-1.495-3.898-3.74s1.56-3.74 3.898-3.74h19.5c2.34 0 3.898 1.495 3.898 3.74s-1.56 3.74-3.898 3.74m-31.183-97.206c-2.34 0-3.898-1.495-3.898-3.74v-48.602c0-2.243 1.56-3.74 3.898-3.74s3.898 1.495 3.898 3.74v48.603c0 2.243-1.56 3.738-3.898 3.738m27.285 3.74c-2.34 0-3.898-1.495-3.898-3.74V182.87c0-2.243 1.56-3.74 3.898-3.74s3.898 1.495 3.898 3.74v37.387c0 2.243-1.56 3.74-3.898 3.74m27.285 7.476c-2.34 0-3.898-1.495-3.898-3.74V205.3c0-2.243 1.56-3.74 3.898-3.74s3.898 1.495 3.898 3.74v22.432c0 2.243-1.56 3.74-3.898 3.74" fill="#f9a671"/><defs ><path id="B" d="M53.598 48.43c-3.672 0-6.65-2.945-6.65-6.58V11.14c0-3.635 2.98-6.58 6.65-6.58s6.65 2.945 6.65 6.58v30.708c0 3.635-2.98 6.58-6.65 6.58z"/><path id="C" d="M107.248 134.785l8.847-10.59q.936-1.148 1.957-2.382 1.063-1.233 1.87-2.595.85-1.36 1.404-2.807.553-1.49.553-3.105 0-2.807-1.66-4.296-1.616-1.49-4.85-1.49-2 0-3.53.468-1.49.468-2.595.978-.298-.553-.553-1.19-.213-.68-.298-1.276.468-.255 1.19-.553.723-.298 1.66-.553.936-.255 2.042-.425 1.106-.213 2.34-.213 2.084 0 3.785.5 1.744.5 2.977 1.574 1.233 1.02 1.914 2.595.723 1.574.723 3.658 0 1.616-.425 3.105-.425 1.446-1.19 2.892-.766 1.446-1.87 2.935-1.063 1.49-2.424 3.062l-6.38 7.528h13.27q.085.68.085 1.36 0 .68-.085 1.36H107.46z"/><path id="D" d="M153.465 120.28q0 3.36-.638 6.2-.638 2.85-1.957 4.934-1.32 2.084-3.36 3.275-2.042 1.148-4.85 1.148-2.807 0-4.85-1.148-2.042-1.19-3.36-3.275-1.32-2.084-1.957-4.934-.638-2.85-.638-6.2 0-3.36.638-6.167.638-2.85 1.957-4.934 1.32-2.084 3.36-3.233 2.042-1.19 4.85-1.19 2.807 0 4.85 1.19 2.042 1.148 3.36 3.233 1.32 2.084 1.957 4.934.638 2.807.638 6.167zm-18.46 0q0 6.422 1.83 9.612 1.83 3.2 5.827 3.2 3.998 0 5.827-3.2 1.83-3.2 1.83-9.612 0-6.422-1.83-9.57-1.83-3.2-5.827-3.2-3.998 0-5.827 3.2-1.83 3.147-1.83 9.57z"/><path id="E" d="M167.952 132.743v-23.52l-6.678 3.275q-.383-.425-.638-.936-.255-.553-.468-1.148l10.42-5.36h.298v27.69h7.146q.043.34.043.68.042.298.042.638 0 .34-.042.638 0 .298-.043.638h-17.82q-.085-.34-.085-.638 0-.298 0-.638 0-.34 0-.638 0-.34.085-.68z"/><path id="F" d="M158.255 188.785l8.847-10.59q.936-1.148 1.957-2.382 1.063-1.233 1.87-2.595.85-1.36 1.404-2.807.553-1.49.553-3.105 0-2.807-1.66-4.296-1.616-1.49-4.85-1.49-2 0-3.53.468-1.49.468-2.595.978-.298-.553-.553-1.19-.213-.68-.298-1.276.468-.255 1.19-.553.723-.298 1.66-.553.936-.255 2.042-.425 1.106-.213 2.34-.213 2.084 0 3.785.5 1.744.5 2.977 1.574 1.233 1.02 1.914 2.595.723 1.574.723 3.658 0 1.616-.425 3.105-.425 1.446-1.19 2.892-.766 1.446-1.87 2.935-1.063 1.49-2.424 3.062l-6.38 7.528h13.27q.085.68.085 1.36 0 .68-.085 1.36h-18.544z"/></defs></svg>