<svg width="320" height="320" xmlns="http://www.w3.org/2000/svg"><defs><radialGradient id="A" cx="157.96" cy="207.8" r="84.59" gradientTransform="matrix(1 0 0 .93977 0 12.516)" gradientUnits="userSpaceOnUse"><stop stop-color="#fffe7c" offset="0"/><stop stop-color="#ffd46e" stop-opacity=".984" offset="1"/></radialGradient></defs><path d="m15.52 105.36v184.62c0 12.785 10.293 23.074 23.078 23.074h242.3c12.785 0 23.074-10.29 23.074-23.074v-180.66l-2.262-3.957z" fill="#404040"/><path d="m38.598 24.594a23.03 23.03 0 0 0-23.078 23.078v57.69h286.2l2.262-3.547v-54.143c0-12.785-10.29-23.078-23.074-23.078z" fill="#00950d"/><g fill="none" stroke="#000"><path d="m15.52 105.36h286.2m-263.12-80.77h242.3c12.785 0 23.074 10.293 23.074 23.078v242.31c0 12.785-10.29 23.078-23.074 23.078h-242.3a23.03 23.03 0 0 1-23.078-23.078v-242.31a23.03 23.03 0 0 1 23.078-23.078z" stroke-width="9.808"/><path d="m88.46 9.656v59.738m140.11-59.738v59.738" stroke-linecap="round" stroke-width="16.157"/></g><path d="M199.203 276.46c-6.203-3.868-11.646-8.089-18.085-12.466-5.979-4.066-10.748-7.883-20.086-8.262-6.672-.268-13.648 4.045-20.174 8.323-9.024 5.916-18.456 12.744-27.076 17.728-8.892 5.15-12.757-3.904-9.305-13.661 3.302-9.339 6.911-18.379 11.248-27.24 3.986-8.139.928-16.742-5.184-22.75-6.679-10.38-36.867-20.555-34.563-31.029 1.649-7.483 36.958-5.756 51.563-9.759 8.481-2.387 12.243-10.434 14.228-18.132 3.684-9.858 9.7-28.652 14.627-28.421 6.306.292 12.836 20.054 17.692 29.578 3.517 7.002 6.953 16.675 16.287 17.173 7.902.419 12.166.309 18.244-.211 11.32.042 30.353.246 31.381 6.011 1.214 6.797-21.04 20.996-29.973 29.636-5.6 5.422-6.169 9.788-5.516 16.313.344 3.44 1.235 7.138 2.249 9.685 3.095 7.78 6.757 15.325 10.453 22.814 3.67 7.447 8.008 17.189 2.262 21.699-5.618 4.407-14.211-3.263-20.273-7.04zm0 0" fill="url(#A)" stroke="#000" stroke-width="4.968"/></svg>
