<svg xmlns="http://www.w3.org/2000/svg" width="320" height="320"><path d="M15.52 105.363v184.62c0 12.785 10.293 23.074 23.078 23.074H280.9c12.785 0 23.074-10.29 23.074-23.074V109.32l-2.262-3.957zm0 0" fill="rgb(18.039216%,18.039216%,18.039216%)"/><path d="M38.598 24.594A23.03 23.03 0 0 0 15.52 47.672v57.69h286.203l2.262-3.547V47.672c0-12.785-10.29-23.078-23.074-23.078zm0 0" fill="rgb(0%,58.431375%,5.490196%)"/><g fill="none" stroke="rgb(0%,0%,0%)"><path d="M15.52 105.363h286.2m-263.12-80.77H280.9c12.785 0 23.074 10.293 23.074 23.078v242.313c0 12.785-10.29 23.078-23.074 23.078H38.598a23.03 23.03 0 0 1-23.078-23.078V47.672a23.03 23.03 0 0 1 23.078-23.078zm0 0" stroke-width="9.808"/><path d="M88.46 9.656v59.738M228.574 9.656v59.738" stroke-linecap="round" stroke-width="16.157"/></g><path d="M194.844 270.988c-5.848-3.672-10.98-7.68-17.05-11.836-5.637-3.86-10.133-7.484-18.937-7.844-6.29-.254-12.867 3.84-19.02 7.902-8.508 5.617-17.4 12.1-25.527 16.832-8.383 4.89-12.027-3.707-8.773-12.97 3.113-8.867 6.516-17.45 10.605-25.863 3.758-7.727.875-15.895-4.887-21.6-6.297-9.855-34.758-19.516-32.586-29.46 1.555-7.105 34.844-5.465 48.613-9.266 7.996-2.266 11.543-9.906 13.414-17.215 3.473-9.36 9.145-27.203 13.79-26.984 5.945.277 12.102 19.04 16.68 28.082 3.316 6.648 6.555 15.832 15.355 16.305 7.45.398 11.47.293 17.2-.2 10.672.04 28.617.234 29.586 5.707 1.145 6.453-19.836 19.934-28.258 28.137-5.28 5.148-5.816 9.293-5.2 15.488.324 3.266 1.164 6.777 2.12 9.195 2.918 7.387 6.37 14.55 9.855 21.66 3.46 7.07 7.55 16.32 2.133 20.602-5.297 4.184-13.398-3.098-19.113-6.684zm0 0" fill="rgb(99.215686%,94.117647%,58.039218%)"/></svg>