<?xml version="1.0" encoding="UTF-8" standalone="no"?>
<svg
   width="128"
   height="128"
   version="1.1"
   id="svg26"
   sodipodi:docname="status-icon-example.svg"
   inkscape:version="1.2.2 (b0a8486541, 2022-12-01)"
   xmlns:inkscape="http://www.inkscape.org/namespaces/inkscape"
   xmlns:sodipodi="http://sodipodi.sourceforge.net/DTD/sodipodi-0.dtd"
   xmlns="http://www.w3.org/2000/svg"
   xmlns:svg="http://www.w3.org/2000/svg">
  <sodipodi:namedview
     id="namedview28"
     pagecolor="#ffffff"
     bordercolor="#000000"
     borderopacity="0.25"
     inkscape:showpageshadow="2"
     inkscape:pageopacity="0.0"
     inkscape:pagecheckerboard="0"
     inkscape:deskcolor="#d1d1d1"
     showgrid="false"
     inkscape:zoom="1.84375"
     inkscape:cx="64"
     inkscape:cy="64.271186"
     inkscape:window-width="1920"
     inkscape:window-height="1133"
     inkscape:window-x="0"
     inkscape:window-y="0"
     inkscape:window-maximized="1"
     inkscape:current-layer="g24" />
  <defs
     id="defs8">
    <filter
       id="A"
       x="-0.036508707"
       width="1.0730172"
       y="-0.17598634"
       height="1.3391262"
       color-interpolation-filters="sRGB">
      <feGaussianBlur
         stdDeviation="6.36"
         id="feGaussianBlur2" />
    </filter>
    <filter
       id="B"
       color-interpolation-filters="sRGB"
       x="-0.031957872"
       y="-0.037650933"
       width="1.0639157"
       height="1.0753019">
      <feGaussianBlur
         stdDeviation="2.189"
         id="feGaussianBlur5" />
    </filter>
  </defs>
  <g
     transform="matrix(.25795 0 0 .25795 2.353442 2.209853)"
     id="g24">
    <path
       d="M1.365 118.22h477.27v360.745H1.365z"
       fill="#333"
       stroke="#000"
       stroke-width="2.731"
       id="path10" />
    <path
       d="M480 341.665s-15.54 43.348-37.398 59.326c-19.695 14.397-44.192 17.074-44.192 17.074s-10.886 23.213-24.618 36.49c-17.413 16.838-57.766 26.603-57.766 26.603s68.33 2.697 111.28-35.453c47.907-42.553 55.153-102.84 52.693-104.04z"
       opacity=".695"
       fill="#adadad"
       fill-rule="evenodd"
       filter="url(#B)"
       id="path12" />
    <g
       stroke="#000"
       id="g18">
      <path
         d="M.99.158H479.01v118.85H.99z"
         fill="green"
         stroke-width="1.982"
         id="path14" />
      <path
         transform="matrix(1.007361 0 0 .99993 .003022 .004187)"
         d="M12.188 103.96V9.796l452.52 2.63 1.18 90.07s-.844-30.444-7.778-52.828c-4.007-12.935-14.48-25.684-38.17-26.267-83.06.193-325.645-1.503-365.603-1.905C26.816 23.558 24.88 36.58 19.368 48.61c-5.628 12.284-5.716 35.965-7.18 55.35z"
         opacity=".473"
         fill-rule="evenodd"
         stroke-width="2.6"
         filter="url(#A)"
         id="path16" />
    </g>
    <text
       xml:space="preserve"
       transform="scale(0.99393719,1.0060998)"
       y="408.66199"
       x="427.62985"
       font-size="872.328px"
       letter-spacing="0"
       word-spacing="0"
       writing-mode="lr-tb"
       fill="#ffffff"
       id="text22"><tspan
         y="408.66199"
         x="222.0858"
         font-size="326.537px"
         font-weight="normal"
         text-anchor="middle"
         font-family="Sans"
         id="tspan20">15</tspan></text>
  </g>
</svg>
