<svg xmlns="http://www.w3.org/2000/svg" viewBox="0 0 512.001 512.001"><path d="M466.475 7.812L214.29 260.005l37.71 37.71L504.176 45.53c5.03-5.047 7.812-11.734 7.812-18.858s-2.78-13.812-7.812-18.86A26.51 26.51 0 0 0 485.317 0c-7.11 0-13.81 2.78-18.842 7.812z" fill="#f4be8e"/><path d="M153.963 508.863L3.133 358.04c-2.422-2.422-3.53-5.86-2.984-9.25.547-3.375 2.695-6.297 5.757-7.828 58.662-29.327 125.753-81.317 126.425-81.85a10.66 10.66 0 0 1 14.086.891L252 365.587c3.805 3.797 4.18 9.844.875 14.094-.516.672-52.498 67.763-81.833 126.417-1.53 3.062-4.445 5.22-7.827 5.766s-6.83-.563-9.25-3z" fill="#ffce54"/><path d="M20.468 375.384l15.43 15.422c9.96-5.344 42.74-23.328 64.123-39.296a10.69 10.69 0 0 0 2.156-14.938c-3.53-4.72-10.2-5.672-14.93-2.156-23.562 17.6-63.794 38.858-64.2 39.062-.977.515-1.836 1.156-2.578 1.906zm113.167 107.433c12.375-29.593 51.02-80.06 51.404-80.575a10.65 10.65 0 0 0-1.961-14.952c-4.67-3.578-11.367-2.703-14.952 1.97-1.586 2.062-37.63 49.138-52.42 81.355l15.633 15.625c.953-.953 1.742-2.093 2.296-3.422zM86.1 441.006l30.163-30.17c4.164-4.172 4.164-10.922 0-15.078a10.65 10.65 0 0 0-15.077 0l-30.17 30.155L86.1 441.006z" fill="#f6bb42"/><path d="M232.858 406.773l20.015-27.093c3.305-4.25 2.93-10.297-.875-14.094l-105.58-105.58a10.66 10.66 0 0 0-14.086-.891c-.266.22-10.82 8.39-27.1 20.04l127.627 127.62z" fill="#e6e9ed"/><path d="M146.417 305.262a10.68 10.68 0 0 1 0-15.093l7.546-7.53a10.65 10.65 0 0 1 15.078 0c4.17 4.156 4.17 10.906 0 15.078l-7.54 7.546a10.69 10.69 0 0 1-15.085 0zm30.17 30.154c-4.164-4.156-4.164-10.922 0-15.077l7.54-7.547a10.69 10.69 0 0 1 15.085 0 10.68 10.68 0 0 1 0 15.093l-7.546 7.53a10.65 10.65 0 0 1-15.078 0zm30.163 30.17c-4.164-4.172-4.164-10.92 0-15.077l7.54-7.547c4.172-4.172 10.922-4.172 15.085 0 4.164 4.156 4.164 10.922 0 15.078l-7.54 7.546a10.66 10.66 0 0 1-15.085 0z" fill="#ccd1d9"/><path d="M267.084 365.587a10.67 10.67 0 0 0 3.055-8.718l-7.54-67.872c-.266-2.406-1.344-4.656-3.062-6.36l-30.163-30.18c-1.71-1.72-3.953-2.797-6.367-3.062l-67.865-7.53a10.67 10.67 0 0 0-8.718 3.047l-23.75 21.515 122.902 122.9 21.507-23.75z" fill="#ed5564"/></svg>