<svg xmlns="http://www.w3.org/2000/svg" xmlns:xlink="http://www.w3.org/1999/xlink" width="128" height="128"><defs><linearGradient id="A" x1="68.043" y1="115.957" x2="13.05" y2="116.499" gradientUnits="userSpaceOnUse"><stop offset="0" stop-color="#004d00"/><stop offset="1" stop-color="#006b00"/></linearGradient><linearGradient id="B" gradientUnits="userSpaceOnUse"><stop offset="0" stop-color="#fff"/><stop offset=".426" stop-color="#fff"/><stop offset=".589" stop-color="#f1f1f1"/><stop offset=".802" stop-color="#eaeaea"/><stop offset="1" stop-color="#dfdfdf"/></linearGradient><radialGradient xlink:href="#B" id="C" cx="63.969" cy="66.125" fx="79.945" fy="81.962" r="44.044" gradientTransform="matrix(0.4860217,-0.7303873,1.1038346,0.7345247,-37.913114,62.14359)" spreadMethod="reflect"/><filter id="D"><feGaussianBlur stdDeviation=".611"/></filter><filter id="E"><feGaussianBlur stdDeviation=".408"/></filter><clipPath id="F"><path d="M-93.928 26.47c-1.53.043-2.96.686-4.03 1.78l-16.906 16.906-.094.063a5.81 5.81 0 0 0-2.062 2.594c-.72 1.777-.486 3.766.5 5.344.154.247.307.494.5.72l.375.406L-97.96 71.97c1.48 1.54 3.652 2.132 5.72 1.594s3.68-2.12 4.22-4.187-.053-4.27-1.594-5.75L-97.24 56h26.188c2.127.03 4.115-1.1 5.188-2.937s1.072-4.1 0-5.937-3.06-2.936-5.187-2.906H-97.24l7.625-7.625a5.92 5.92 0 0 0 1.313-6.531c-.947-2.235-3.2-3.66-5.625-3.594zm40.906 32c-.52-.006-1.046.053-1.562.188-2.066.54-3.65 2.152-4.187 4.22s.053 4.27 1.594 5.75l7.625 7.625H-75.74c-2.127-.03-4.115 1.07-5.187 2.906s-1.072 4.1 0 5.938 3.06 2.968 5.188 2.938h26.187l-7.625 7.625a5.92 5.92 0 0 0-1.312 6.531 5.9 5.9 0 0 0 5.594 3.594c1.53-.043 2.993-.686 4.063-1.78l16.875-16.906.094-.062a5.96 5.96 0 0 0 2.094-2.625c.72-1.777.486-3.735-.5-5.312-.154-.247-.307-.494-.5-.72l-.375-.406-17.688-17.687c-1.11-1.155-2.63-1.796-4.187-1.812z" fill="url(#G)" fill-opacity="1" fill-rule="evenodd" stroke="none"/></clipPath><radialGradient xlink:href="#B" id="G" gradientTransform="matrix(0.6328574,0.4211224,-0.6364423,0.9564376,-71.795444,-24.058106)" spreadMethod="reflect" cx="63.969" cy="66.125" fx="79.945" fy="81.962" r="44.044"/><clipPath id="H"><path d="M-189.508 26.47c-1.53.043-2.96.686-4.03 1.78l-16.906 16.906-.094.063a5.81 5.81 0 0 0-2.062 2.594c-.72 1.777-.486 3.766.5 5.344.154.247.307.494.5.72l.375.406 17.688 17.688c1.48 1.54 3.652 2.132 5.72 1.594s3.68-2.12 4.22-4.187-.053-4.27-1.594-5.75L-192.82 56h26.188c2.127.03 4.115-1.1 5.188-2.937s1.072-4.1 0-5.937-3.06-2.936-5.187-2.906h-26.187l7.625-7.625a5.92 5.92 0 0 0 1.313-6.531c-.947-2.235-3.2-3.66-5.625-3.594zm40.906 32c-.52-.006-1.046.053-1.562.188-2.066.54-3.65 2.152-4.187 4.22s.053 4.27 1.594 5.75l7.625 7.625h-26.187c-2.127-.03-4.115 1.07-5.187 2.906s-1.072 4.1 0 5.938 3.06 2.968 5.188 2.938h26.188l-7.625 7.625a5.92 5.92 0 0 0-1.312 6.531 5.9 5.9 0 0 0 5.594 3.594c1.53-.043 2.993-.686 4.063-1.78l16.875-16.906.094-.062a5.96 5.96 0 0 0 2.094-2.625c.72-1.777.486-3.735-.5-5.312-.154-.247-.307-.494-.5-.72l-.375-.406-17.688-17.687c-1.11-1.155-2.63-1.796-4.187-1.812z" fill="url(#I)" fill-opacity="1" fill-rule="evenodd" stroke="none"/></clipPath><radialGradient xlink:href="#B" id="I" gradientTransform="matrix(0.6328574,0.4211224,-0.6364423,0.9564376,-167.37518,-24.058106)" spreadMethod="reflect" cx="63.969" cy="66.125" fx="79.945" fy="81.962" r="44.044"/></defs><g transform="matrix(1.142857 0 0 1.142857 -9.192166 -9.09355)"><path d="M8.043 109.873V18.04A10.06 10.06 0 0 1 18.127 7.957h91.833a10.06 10.06 0 0 1 10.084 10.084v91.833a10.06 10.06 0 0 1-10.084 10.084H18.127a10.06 10.06 0 0 1-10.084-10.084z" fill="url(#A)"/><path d="M20.4 87.687c.05 1.766.792 3.418 2.056 4.653l19.512 19.512.072.108c.738 1.05 1.75 1.878 2.993 2.38 2.05.83 4.346.56 6.167-.577.285-.178.57-.355.83-.577l.47-.433L72.912 92.34c1.778-1.707 2.46-4.215 1.84-6.6s-2.448-4.247-4.833-4.87-4.93.062-6.636 1.84l-8.8 8.8V61.287a6.84 6.84 0 0 0-3.39-5.987 6.79 6.79 0 0 0-6.853 0c-2.12 1.237-3.39 3.533-3.354 5.987V91.5l-8.8-8.8c-1.958-2.003-4.96-2.607-7.538-1.515s-4.224 3.692-4.148 6.492zm36.932-47.2a6.86 6.86 0 0 0 .216 1.803c.622 2.385 2.484 4.21 4.87 4.833s4.93-.062 6.636-1.84l8.8-8.8v30.223c-.035 2.454 1.234 4.75 3.354 5.987a6.79 6.79 0 0 0 6.853 0 6.84 6.84 0 0 0 3.39-5.987V36.474l8.8 8.8c1.958 2.003 4.96 2.607 7.538 1.515a6.81 6.81 0 0 0 4.148-6.456 6.84 6.84 0 0 0-2.056-4.689L90.368 16.17l-.072-.108a6.88 6.88 0 0 0-3.03-2.416c-2.05-.83-4.3-.56-6.13.577-.285.178-.57.355-.83.577l-.47.433-20.413 20.413c-1.333 1.28-2.073 3.036-2.092 4.833z" fill="url(#C)" fill-rule="evenodd"/><g transform="matrix(0 -1.15411 1.15411 0 -11.047404 -20.776685)" opacity=".7" fill-rule="evenodd"><path d="M-93.937 25.52c-1.53.043-2.96.686-4.03 1.78l-16.906 16.906-.094.063a5.81 5.81 0 0 0-2.062 2.594c-.482 1.19-.532 2.462-.22 3.656a5.4 5.4 0 0 1 .219-.656 5.81 5.81 0 0 1 2.063-2.594l.094-.062L-97.97 30.3c1.07-1.095 2.5-1.74 4.03-1.78 2.426-.067 4.678 1.36 5.625 3.594.11.258.18.516.25.78.32-1.233.268-2.56-.25-3.78-.947-2.235-3.2-3.66-5.625-3.594zm-.312 17.75l-3 3h26.188c2.127-.03 4.115 1.07 5.188 2.906.268.46.49.938.625 1.438.39-1.49.174-3.07-.625-4.437-1.072-1.837-3.06-2.936-5.187-2.906zm41.22 14.25a5.94 5.94 0 0 0-1.562.188c-2.066.54-3.65 2.152-4.187 4.22-.258.992-.242 2.01 0 2.97.546-2.053 2.13-3.65 4.188-4.188a5.94 5.94 0 0 1 1.563-.187c1.557.017 3.078.657 4.188 1.813l17.47 17.47c.073.066.15.15.22.22.133.13.256.267.375.406.193.225.346.472.5.72a6.07 6.07 0 0 1 .719 1.688c.45-1.606.156-3.288-.72-4.687-.154-.247-.307-.494-.5-.72l-.375-.406-17.687-17.688c-1.11-1.155-2.63-1.796-4.187-1.812zm-44.22.53l7.625 7.625c.77.74 1.32 1.662 1.594 2.656.5-2.04-.076-4.2-1.594-5.656l-4.625-4.625zm21.5 17.25c-2.127-.03-4.115 1.07-5.187 2.906-.8 1.368-.985 2.948-.594 4.438a5.82 5.82 0 0 1 .594-1.437c1.072-1.837 3.06-2.936 5.188-2.906h26.188l-3-3zm23.188 14.78l-4.625 4.625a5.88 5.88 0 0 0-1.562 5.75c.264-1.023.775-1.98 1.563-2.75l7.625-7.625z" clip-path="url(#F)" fill="#313131" filter="url(#D)"/><path d="M-183.625 32.27c-.264 1.023-.775 1.98-1.562 2.75l-7.625 7.625h3l4.625-4.625a5.88 5.88 0 0 0 1.563-5.75zm-29.187 17.656a5.92 5.92 0 0 0 .719 4.656c.154.247.307.494.5.72l.375.406 17.688 17.688c1.48 1.54 3.652 2.132 5.72 1.594s3.68-2.12 4.22-4.187c.258-.992.242-2.01 0-2.97-.546 2.053-2.162 3.62-4.22 4.156-2.066.54-4.24-.053-5.72-1.594l-17.5-17.5c-.073-.066-.117-.117-.187-.187a5.91 5.91 0 0 1-.375-.406c-.193-.225-.346-.472-.5-.72-.323-.517-.564-1.073-.72-1.656zm51.97.125a5.82 5.82 0 0 1-.594 1.438c-1.072 1.837-3.06 2.968-5.187 2.938h-26.187l3 3h23.188c2.127.03 4.115-1.1 5.188-2.937.8-1.368.985-2.948.594-4.437zm6.5 14.313c-.512 2.05.068 4.223 1.594 5.688l4.625 4.625h3l-7.625-7.625c-.785-.754-1.325-1.67-1.594-2.687zm-22.78 17.72c-.39 1.49-.174 3.07.625 4.438 1.072 1.837 3.06 2.968 5.188 2.938h23.188l3-3h-26.187c-2.127.03-4.115-1.1-5.187-2.937-.268-.46-.49-.938-.625-1.437zm52 .094a5.45 5.45 0 0 1-.219.656 5.96 5.96 0 0 1-2.094 2.625l-.094.063-16.875 16.906c-1.07 1.095-2.532 1.74-4.062 1.78a5.9 5.9 0 0 1-5.594-3.594c-.11-.258-.18-.516-.25-.78-.328 1.24-.272 2.55.25 3.78a5.9 5.9 0 0 0 5.594 3.594c1.53-.043 2.993-.686 4.063-1.78l16.875-16.906.094-.062a5.96 5.96 0 0 0 2.094-2.625c.483-1.194.535-2.47.22-3.656z" clip-path="url(#H)" transform="translate(95.578)" fill="#fff" filter="url(#E)"/></g></g></svg>