<svg width="48" height="48" xmlns="http://www.w3.org/2000/svg" xmlns:xlink="http://www.w3.org/1999/xlink"><defs><radialGradient id="A" cx="15.414" cy="13.078" r="6.656" gradientTransform="matrix(2.7892 0 0 2.4226 -25.724 -20.247)" xlink:href="#O"><stop stop-color="#fff" offset="0"/><stop stop-color="#fff" stop-opacity=".248" offset="1"/></radialGradient><radialGradient id="B" cx="18.241" cy="21.818" r="8.309" xlink:href="#O"><stop stop-color="#729fcf" stop-opacity=".208" offset="0"/><stop stop-color="#729fcf" stop-opacity=".676" offset="1"/></radialGradient><linearGradient id="C" x1="54.113" x2="50.08" y1="12.847" y2="-3.881" xlink:href="#O"><stop stop-color="#babdb6" offset="0"/><stop stop-color="#888a85" offset="1"/></linearGradient><linearGradient id="D" x1="55.878" x2="52.5" y1="12.472" y2="-4.621" xlink:href="#O"><stop stop-color="#888a85" offset="0"/><stop stop-color="#babdb6" offset="1"/></linearGradient><linearGradient id="E" x1="32.534" x2="34.612" y1="31.375" y2="33.596" xlink:href="#O"><stop offset="0"/><stop stop-opacity="0" offset="1"/></linearGradient><radialGradient id="F" cx="45.095" cy="-2.694" r="10.498" gradientTransform="matrix(0 1.1434 -1.2472 -1.2486e-6 41.735 -54.257)" xlink:href="#O"><stop stop-color="#fff" offset="0"/><stop stop-color="#eeeeec" offset="1"/></radialGradient><linearGradient id="G" x1="32.985" x2="36.211" y1="32.046" y2="35.272" xlink:href="#O"><stop offset="0"/><stop stop-opacity="0" offset="1"/></linearGradient><linearGradient id="H" x1="39.25" x2="42.063" y1="41" y2="38.435" xlink:href="#O"><stop stop-color="#d3d7cf" stop-opacity=".2" offset="0"/><stop stop-color="#d3d7cf" offset="1"/></linearGradient><linearGradient id="I" x1="81.096" x2="83.629" y1="57.148" y2="54.615" xlink:href="#O"><stop stop-color="#2e3436" offset="0"/><stop stop-color="#555753" offset="1"/></linearGradient><linearGradient id="J" x1="81.332" x2="82.92" y1="55.107" y2="53.511" xlink:href="#O"><stop stop-color="#888a85" offset="0"/><stop stop-color="#a3a5a2" offset=".702"/><stop stop-color="#888a85" offset="1"/></linearGradient><radialGradient id="K" cx="59.787" cy="10.902" r="10.556" gradientTransform="matrix(0 -1.6866 1.6634 0 41.654 111.74)" xlink:href="#O"><stop stop-color="#fbfbfa" offset="0"/><stop stop-color="#d3d7cf" offset="1"/></radialGradient><filter id="L" x="-.089" y="-.384" width="1.177" height="1.767"><feGaussianBlur stdDeviation="1.598"/></filter><linearGradient id="M" x1="3.5" x2="46.779" y1="35.743" y2="45.743" xlink:href="#O"><stop stop-opacity="0" offset="0"/><stop stop-opacity="0" offset=".081"/><stop stop-opacity=".247" offset=".615"/><stop stop-opacity=".498" offset=".749"/><stop offset="1"/></linearGradient><path id="N" d="m62.5 4.5a10 10 0 1 1-20 0 10 10 0 1 1 20 0z"/><linearGradient id="O" gradientUnits="userSpaceOnUse"/></defs><path transform="matrix(1.0167 0 0 .9 -.55834 4.3316)" d="M21 35.743c-9.66 0-17.5 1.813-17.5 4.047s7.84 4.047 17.5 4.047c4.496 0 8.587-.395 11.688-1.041l.813.947a.43.43 0 0 0 .156.058l7.969 1.857c.357.083.883.101 1.531.072s1.412-.124 2.219-.311c.801-.185 1.206-.35 1.344-.499s.039-.28-.312-.361l-8.031-1.843c-.079-.018-.172-.032-.281-.036L34 42.493c2.79-.717 4.5-1.663 4.5-2.703 0-2.234-7.84-4.047-17.5-4.047z" fill="url(#M)" filter="url(#L)" opacity=".6"/><use transform="matrix(1.5086 0 0 1.5086 -58.2 12.212)" fill="none" stroke="url(#K)" stroke-width="1.875" xlink:href="#N"/><path transform="matrix(1.5441 0 0 1.536 -85.578 -44.445)" d="M74.853 50.354l2.591 2.669 5.181 5.213c.193.194.971.32 1.943-.656s.896-1.704.648-1.953l-5.181-5.208-2.591-2.604-2.591 2.539z" fill="url(#J)" stroke="url(#I)" stroke-linejoin="round" stroke-width=".677"/><path d="M31.453 32.922l3.454 3.558 7.5 7.549c.369.371.934.218 1.868-.716s1.175-1.401.711-1.868l-7.5-7.544-3.423-3.401-2.609 2.422z" fill="none" stroke="url(#H)"/><path d="M32.551 31.195c-.26.088-2.517 1.938-2.447 2.202l3.404 3.711a.52.52 0 0 0 .145.24l7.962 8.016c.357.357.895.462 1.544.336s1.412-.537 2.22-1.344c.801-.801 1.213-1.517 1.351-2.16s.014-1.232-.338-1.584l-8.01-7.968c-.079-.077-.18-.128-.29-.144l-3.751-3.367c-.095-.027-1.695 2.035-1.79 2.063z" fill="url(#G)" opacity=".153"/><use transform="matrix(1.55 0 0 1.55 -60.375 12.025)" fill="none" stroke="url(#F)" stroke-width=".645" xlink:href="#N"/><path d="M32.571 31.341c-.173.058-2.13 1.182-2.084 1.358l2.883 2.909c.017.061.05.116.096.16l3.288-3.299c-.052-.052-.136-.148-.209-.159l-2.517-2.578c-.045-.125-1.394 1.591-1.457 1.609z" fill="url(#E)" opacity=".369"/><g fill="none"><use transform="matrix(1.65 0 0 1.65 -65.654 11.575)" stroke="url(#D)" stroke-width=".606" xlink:href="#N"/><use transform="matrix(1.35 0 0 1.35 -49.875 12.925)" stroke="url(#C)" stroke-width=".741" xlink:href="#N"/></g><g fill-rule="evenodd"><path transform="matrix(1.5045 0 0 1.5045 -5.4627 -8.7999)" d="m25.898 18.478a8.31 8.31 0 0 1-12.463 7.196 8.31 8.31 0 0 1 0-14.393 8.31 8.31 0 0 1 12.463 7.196z" fill="url(#B)" stroke="#3063a3" stroke-miterlimit="10" stroke-width=".665"/><path d="M20.764 8.084c-5.602 0-10.138 4.536-10.138 10.138 0 1.618.452 3.106 1.126 4.464 1.347.497 2.778.834 4.297.834 6.638 0 11.939-5.23 12.349-11.765-1.862-2.2-4.529-3.671-7.635-3.671z" fill="url(#A)" opacity=".834"/></g></svg>
