<svg xmlns="http://www.w3.org/2000/svg" xmlns:xlink="http://www.w3.org/1999/xlink" width="128" height="128" viewBox="0 0 33.867 33.867"><defs><clipPath id="A"><path d="M273.22 117.094c-32.508 0-58.875 26.398-58.875 58.906s26.367 58.875 58.875 58.875 58.906-26.367 58.906-58.875-26.398-58.906-58.906-58.906zm-.25 15.03c24.068 0 43.594 19.557 43.594 43.625s-19.525 43.594-43.594 43.594-43.594-19.525-43.594-43.594 19.525-43.625 43.594-43.625z" fill="none" stroke="#000"/></clipPath><filter id="B"><feGaussianBlur stdDeviation="1.178"/></filter><clipPath id="C"><path d="m 223.5,176.375 a 46.875,46.875 0 1 1 -93.75,0 46.875,46.875 0 1 1 93.75,0 z" transform="translate(0 2.136)" opacity=".8" fill="none" stroke="#000" stroke-width="2.136"/></clipPath><filter id="D"><feGaussianBlur stdDeviation="1.649"/></filter><path id="E" d="M17.67 282.526a.798.798 0 1 1-1.595 0 .798.798 0 1 1 1.595 0z"/></defs><g transform="translate(0 -263.133)"><rect width="33.208" height="32.874" x=".334" y="263.658" rx="2.646" fill="#fff" paint-order="stroke fill markers"/><path d="M28.37 276.252a11.389 11.389 0 1 1-22.778 0 11.389 11.389 0 0 1 22.778 0z" fill="#007400"/><path d="M25.362 276.202a8.432 8.432 0 1 1-16.864 0 8.432 8.432 0 0 1 16.864 0z" fill="#fffffd"/><path d="M17.67 269.764a.798.798 0 1 1-1.595 0 .798.798 0 0 1 1.595 0z"/><use xlink:href="#E" fill="#0d0d0d"/><use xlink:href="#E" x="-6.37" y="-6.381"/><path d="M24.052 276.145a.798.798 0 0 1-1.595 0 .798.798 0 0 1 1.595 0z" fill="#141414"/><path clip-path="url(#A)" transform="matrix(.193385 0 0 .193383 -35.760249 242.21756)" d="M273.22 117.094c-32.508 0-58.875 26.398-58.875 58.906s26.367 58.875 58.875 58.875 58.906-26.367 58.906-58.875-26.398-58.906-58.906-58.906zm-.25 15.03c24.068 0 43.594 19.557 43.594 43.625s-19.525 43.594-43.594 43.594-43.594-19.525-43.594-43.594 19.525-43.625 43.594-43.625z" fill="none" stroke="#000" filter="url(#B)"/><path d="M14.018 269.557a.339.339 0 0 0-.236.477l2.163 4.89c-.365.276-.604.7-.604 1.203 0 .324.104.624.278.87a.509.509 0 0 0-.042.048l-2.067 3.016a.512.512 0 1 0 .846.574l2.067-3a.509.509 0 0 0 .03-.042c.128.035.266.06.405.06.835 0 1.51-.682 1.51-1.517a1.51 1.51 0 0 0-1.801-1.48l-2.176-4.883a.339.339 0 0 0-.169-.169.339.339 0 0 0-.205-.036zm2.84 5.723c.468 0 .846.38.846.846s-.38.846-.846.846a.85.85 0 0 1-.852-.846.85.85 0 0 1 .852-.846z"/><path d="M223.5 176.375c0 25.888-20.987 46.875-46.875 46.875s-46.875-20.987-46.875-46.875 20.987-46.875 46.875-46.875 46.875 20.987 46.875 46.875z" transform="matrix(.185221 0 0 -.185219 -15.696677 309.19576)" clip-path="url(#C)" opacity=".45" fill="none" stroke="#000" stroke-width="2.136" filter="url(#D)"/><g transform="matrix(1.185695 0 0 1.185695 -3.144438 -52.581761)" fill="#fafafa"><circle cx="16.91" cy="291.116" r="1.499" paint-order="stroke fill markers"/><circle cy="291.116" cx="10.913" r="1.499" paint-order="stroke fill markers"/><circle cy="291.116" cx="22.907" r="1.499" paint-order="stroke fill markers"/></g><path d="M8.228 289.96c-1.245 0-2.294.885-2.552 2.056H1.26v1.11h4.415c.256 1.172 1.306 2.056 2.552 2.056s2.296-.884 2.552-2.056h3.602a2.62 2.62 0 0 0 2.549 2.056c1.246 0 2.296-.884 2.552-2.056h3.605c.256 1.172 1.306 2.056 2.552 2.056a2.62 2.62 0 0 0 2.549-2.056h4.415v-1.11H28.2a2.62 2.62 0 0 0-2.549-2.056c-1.245 0-2.294.885-2.552 2.056h-3.607c-.258-1.17-1.307-2.056-2.552-2.056a2.62 2.62 0 0 0-2.549 2.056H10.78c-.258-1.17-1.307-2.056-2.552-2.056zm0 1.144a1.46 1.46 0 1 1 0 2.939 1.46 1.46 0 1 1 0-2.939zm8.704 0c.82 0 1.473.65 1.473 1.47s-.654 1.47-1.473 1.47a1.46 1.46 0 1 1 0-2.939zm8.7 0a1.46 1.46 0 1 1 0 2.939 1.46 1.46 0 1 1 0-2.939z" dominant-baseline="auto"/></g></svg>