<svg width="32" height="32" xmlns="http://www.w3.org/2000/svg" xmlns:xlink="http://www.w3.org/1999/xlink"><style><![CDATA[.B{fill:none}.C{stroke-linejoin:round}.D{stroke:#000}.E{fill:#000100}.F{stroke:#000100}.G{fill:#d3d7cf}.H{fill-rule:evenodd}.I{clip-path:url(#B)}.J{opacity:.726}.K{filter:url(#C)}.L{stroke-width:3.734}.M{stroke-width:1.726}]]></style><defs><linearGradient id="A" gradientUnits="userSpaceOnUse"><stop stop-color="#fff" offset="0"/><stop stop-color="#fff" stop-opacity="0" offset="1"/></linearGradient><clipPath id="B"><rect class="B D" x="5.31" y="1.232" width="13.278" height="22.634" ry="1.172" opacity=".626" stroke-width=".196"/></clipPath><filter id="C" x="-.2" y="-.118" width="1.401" height="1.237"><feGaussianBlur stdDeviation=".972"/></filter><radialGradient id="D" cx="10.275" cy="14.152" r="2.608" xlink:href="#A"/><linearGradient id="E" x1="9.154" x2="7.678" y1="3.249" y2="19.014" gradientUnits="userSpaceOnUse"><stop stop-color="#fff" offset="0"/><stop stop-color="#fff" stop-opacity="0" offset="1"/></linearGradient><radialGradient id="F" cx="10.857" cy="16.091" r="5.324" gradientTransform="matrix(1.1107 -.40365 .65164 1.7931 -9.2128 -4.7973)" spreadMethod="reflect" xlink:href="#A"/><linearGradient id="G" x1="18.18" x2="15.672" y1="14.206" y2="19.3" gradientUnits="userSpaceOnUse"><stop stop-color="#fff" offset="0"/><stop stop-color="#fff" stop-opacity="0" offset="1"/></linearGradient><radialGradient id="H" cx="13.332" cy="15.942" r="5.532" gradientTransform="matrix(.68936 -1.0863 .93195 2.4028 -10.716 -4.1511)" spreadMethod="reflect" xlink:href="#A"/><path id="I" d="M10.337 13.2L6 18.477l3.914.406 2.138 2.72 2.172-.672.038-4.265 2.386-1.837-6.31-1.627z"/><path id="J" d="M6 1.008l.03 16.154 3.933.452 2.908 2.112.948-.355.68-3.627 2.5-3.27L6 1.008z"/><path id="K" d="M6 1.08l-.094 15.926 4.043.358 2.86 2.485 1.09-.486.52-3.558 2.573-3.273L6 1.08z"/><path id="L" d="M5.998 1.172l-.094 15.832 4.074.345 2.845 2.457 1.168-.39.42-3.674 2.558-3.174L5.998 1.172z"/><path id="M" d="M6.715 2.923l.017 13.147 3.198.292 3.06 2.53.795-3.623 2.05-2.74-9.12-9.608z"/></defs><g transform="matrix(.63246 .159 -.2453 .40995 12.612 .51158)"><g class="H"><use class="D I J K" transform="matrix(1.0551 .005399 -.005399 1.0551 -.49689 -2.0741)" xlink:href="#I"/><use class="C E F L" xlink:href="#J"/><use class="G" xlink:href="#K"/><use fill="url(#F)" xlink:href="#L"/></g><use class="B M" stroke="url(#E)" xlink:href="#M"/></g><g transform="matrix(.63246 -.159 -.2453 -.40995 12.612 31.348)"><g class="H"><use class="D I J K" transform="matrix(1.0551 .005399 -.005399 1.0551 -.49689 -2.0741)" xlink:href="#I"/><use class="C E F L" xlink:href="#J"/><use class="G" xlink:href="#K"/><use fill="url(#F)" xlink:href="#L"/></g><use class="B M" stroke="url(#E)" xlink:href="#M"/></g><g transform="matrix(-.159 -.63246 -.40995 .2453 31.935 19.469)"><g class="H"><use class="D I J K" transform="matrix(1.0551 .005399 -.005399 1.0551 -.49689 -2.0741)" xlink:href="#I"/><use class="C E F L" xlink:href="#J"/><use class="G" xlink:href="#K"/><use fill="url(#F)" xlink:href="#L"/></g><use class="B M" stroke="url(#E)" xlink:href="#M"/></g><g transform="matrix(.159 -.63246 .40995 .2453 .6525 19.625)"><g class="H"><use class="D I J K" transform="matrix(1.0551 .005399 -.005399 1.0551 -.49689 -2.0741)" xlink:href="#I"/><use class="C E F L" xlink:href="#J"/><use class="G" xlink:href="#K"/><use fill="url(#H)" xlink:href="#L"/></g><use class="B M" stroke="url(#E)" xlink:href="#M"/></g><path class="C E F" d="M18.202 16.04c0 .93-.754 1.685-1.685 1.685s-1.685-.754-1.685-1.685.754-1.685 1.685-1.685 1.685.754 1.685 1.685z" stroke-width="2.137"/><path class="G" d="m18.236 16.04a1.72 1.72 0 0 1-1.719 1.719 1.72 1.72 0 0 1-1.719-1.719 1.72 1.72 0 0 1 1.719-1.719 1.72 1.72 0 0 1 1.719 1.719z"/><path transform="matrix(.78722 0 0 .78722 7.5779 6.2024)" d="M13.563 12.48c0 1.2-.973 2.174-2.174 2.174s-2.174-.973-2.174-2.174.973-2.174 2.174-2.174 2.174.973 2.174 2.174z" fill="url(#D)"/><path class="B C" transform="matrix(.7904 0 0 .7702 3.0931 3.1437)" d="m18.562 16.753a1.5468 1.5468 0 1 1-3.0936 0 1.5468 1.5468 0 1 1 3.0936 0z" opacity=".822" stroke="url(#G)" stroke-width="1.236"/></svg>
