<svg xmlns="http://www.w3.org/2000/svg" xmlns:xlink="http://www.w3.org/1999/xlink" width="32" height="32"><style><![CDATA[.B{fill:none}.C{stroke-linejoin:round}.D{stroke:#000}.E{fill:#000100}.F{stroke:#000100}.G{fill:#d3d7cf}.H{fill-rule:evenodd}.I{clip-path:url(#B)}.J{opacity:.726}.K{filter:url(#C)}.L{stroke-width:3.734}.M{stroke-width:1.726}]]></style><defs><linearGradient id="A" gradientUnits="userSpaceOnUse"><stop offset="0" stop-color="#fff"/><stop offset="1" stop-color="#fff" stop-opacity="0"/></linearGradient><clipPath id="B"><rect ry="1.172" y="1.232" x="5.31" height="22.634" width="13.278" opacity=".626" stroke-width=".196" stroke-linejoin="miter" stroke-miterlimit="4" stroke-dasharray="none" stroke-opacity="1" class="B D"/></clipPath><filter id="C" height="1.237" y="-.118" width="1.401" x="-.2"><feGaussianBlur stdDeviation=".972"/></filter><radialGradient xlink:href="#A" id="D" cx="10.275" cy="14.152" fx="10.275" fy="14.152" r="2.608"/><linearGradient id="E" x1="9.154" y1="3.249" x2="7.678" y2="19.014" gradientUnits="userSpaceOnUse"><stop offset="0" stop-color="#fff"/><stop offset="1" stop-color="#fff" stop-opacity="0"/></linearGradient><radialGradient xlink:href="#A" id="F" gradientTransform="matrix(1.1106976,-0.4036489,0.6516398,1.7930801,-9.2127514,-4.7972628)" spreadMethod="reflect" cx="10.857" cy="16.091" fx="10.857" fy="16.091" r="5.324"/><linearGradient id="G" x1="18.18" y1="14.206" x2="15.672" y2="19.3" gradientUnits="userSpaceOnUse"><stop offset="0" stop-color="#fff"/><stop offset="1" stop-color="#fff" stop-opacity="0"/></linearGradient><radialGradient xlink:href="#A" id="H" cx="13.332" cy="15.942" fx="13.332" fy="15.942" r="5.532" gradientTransform="matrix(0.6893609,-1.0862598,0.9319468,2.4028086,-10.716046,-4.1510534)" spreadMethod="reflect"/><path id="I" d="M10.337 13.2L6 18.477l3.914.406 2.138 2.72 2.172-.672.038-4.265 2.386-1.837-6.31-1.627z"/><path id="J" d="M6 1.008l.03 16.154 3.933.452 2.908 2.112.948-.355.68-3.627 2.5-3.27L6 1.008z"/><path id="K" d="M6 1.08l-.094 15.926 4.043.358 2.86 2.485 1.09-.486.52-3.558 2.573-3.273L6 1.08z"/><path id="L" d="M5.998 1.172l-.094 15.832 4.074.345 2.845 2.457 1.168-.39.42-3.674 2.558-3.174L5.998 1.172z"/><path id="M" d="M6.715 2.923l.017 13.147 3.198.292 3.06 2.53.795-3.623 2.05-2.74-9.12-9.608z"/></defs><g transform="matrix(.632462 .159004 -.245305 .409954 12.612173 .511582)"><g class="H"><use xlink:href="#I" transform="matrix(1.055116 .005399 -.005399 1.055116 -.496887 -2.074123)" class="D I J K"/><use xlink:href="#J" class="C E F L"/><use xlink:href="#K" class="G"/><use xlink:href="#L" fill="url(#F)"/></g><use xlink:href="#M" stroke="url(#E)" class="B M"/></g><g transform="matrix(.632462 -.159004 -.245305 -.409954 12.612173 31.347502)"><g class="H"><use xlink:href="#I" transform="matrix(1.055116 .005399 -.005399 1.055116 -.496887 -2.074123)" class="D I J K"/><use xlink:href="#J" class="C E F L"/><use xlink:href="#K" class="G"/><use xlink:href="#L" fill="url(#F)"/></g><use xlink:href="#M" stroke="url(#E)" class="B M"/></g><g transform="matrix(-.159004 -.632462 -.409954 .245305 31.935475 19.46873)"><g class="H"><use xlink:href="#I" transform="matrix(1.055116 .005399 -.005399 1.055116 -.496887 -2.074123)" class="D I J K"/><use xlink:href="#J" class="C E F L"/><use xlink:href="#K" class="G"/><use xlink:href="#L" fill="url(#F)"/></g><use xlink:href="#M" stroke="url(#E)" class="B M"/></g><g transform="matrix(.159004 -.632462 .409954 .245305 .652499 19.624691)"><g class="H"><use xlink:href="#I" transform="matrix(1.055116 .005399 -.005399 1.055116 -.496887 -2.074123)" class="D I J K"/><use xlink:href="#J" class="C E F L"/><use xlink:href="#K" class="G"/><use xlink:href="#L" fill="url(#H)"/></g><use xlink:href="#M" stroke="url(#E)" class="B M"/></g><path d="M18.202 16.04c0 .93-.754 1.685-1.685 1.685s-1.685-.754-1.685-1.685.754-1.685 1.685-1.685 1.685.754 1.685 1.685z" stroke-width="2.137" class="C E F"/><path d="M18.236 16.04a1.72 1.72 0 0 1-1.719 1.719 1.72 1.72 0 0 1-1.719-1.719 1.72 1.72 0 0 1 1.719-1.719 1.72 1.72 0 0 1 1.719 1.719z" class="G"/><path d="M13.563 12.48c0 1.2-.973 2.174-2.174 2.174s-2.174-.973-2.174-2.174.973-2.174 2.174-2.174 2.174.973 2.174 2.174z" transform="matrix(.787225 0 0 .787225 7.577852 6.202353)" fill="url(#D)"/><path d="M 18.561553 16.75301 A 1.5467961 1.5467961 0 1 1 15.467961,16.75301 A 1.5467961 1.5467961 0 1 1 18.561553 16.75301 z" transform="matrix(.790401 0 0 .770198 3.093109 3.14366)" opacity=".822" stroke="url(#G)" stroke-width="1.236" class="B C"/></svg>