<svg xmlns="http://www.w3.org/2000/svg" xmlns:xlink="http://www.w3.org/1999/xlink" width="48" height="48"><defs><radialGradient xlink:href="#B" id="A" gradientTransform="matrix(-2.774389,0,0,1.969706,112.7623,-872.8854)" cx="605.714" cy="486.648" fx="605.714" fy="486.648" r="117.143"/><linearGradient id="B" xlink:href="#M"><stop offset="0"/><stop offset="1" stop-opacity="0"/></linearGradient><radialGradient xlink:href="#B" id="C" gradientTransform="matrix(2.774389,0,0,1.969706,-1891.633,-872.8854)" cx="605.714" cy="486.648" fx="605.714" fy="486.648" r="117.143"/><linearGradient id="D" x1="-1051.935" y1="-150.697" x2="-1051.935" y2="327.66" xlink:href="#M"><stop offset="0" stop-opacity="0"/><stop offset=".5"/><stop offset="1" stop-opacity="0"/></linearGradient><linearGradient id="E" x1="23.772" y1="15.336" x2="23.938" y2="18.299" xlink:href="#M"><stop offset="0" stop-color="#eff3f4" stop-opacity="1"/><stop offset="1" stop-color="#939596" stop-opacity="1"/></linearGradient><linearGradient y2="10.567" x2="44.084" y1="10.567" x1="39.852" id="F" xlink:href="#M"><stop offset="0" stop-color="#babdb6" stop-opacity="1"/><stop offset="1" stop-color="#f1f5ec" stop-opacity="1"/></linearGradient><linearGradient y2="10.56" x2="44.081" y1="10.56" x1="4.169" id="G" xlink:href="#M"><stop offset="0" stop-color="#575955" stop-opacity="1"/><stop offset="1" stop-color="#7c7e79" stop-opacity="1"/></linearGradient><linearGradient id="H" x1="12.769" y1="28.188" x2="35.96" y2="32.085" xlink:href="#M"><stop offset="0" stop-color="#b5c051" stop-opacity="1"/><stop offset="1" stop-color="#858e3f" stop-opacity="1"/></linearGradient><linearGradient y2="44.763" x2="23.128" y1="19.661" x1="22.745" id="I" xlink:href="#M"><stop offset="0" stop-color="#616c08" stop-opacity="1"/><stop offset="1" stop-color="#495106" stop-opacity="1"/></linearGradient><linearGradient y2="50.6" x2="29.758" y1="12.465" x1="20.661" id="J" xlink:href="#M"><stop offset="0" stop-color="#fff" stop-opacity=".103"/><stop offset="1" stop-color="#fff" stop-opacity="0"/></linearGradient><linearGradient y2="19.414" x2="24.14" y1="32.05" x1="24.286" id="K" xlink:href="#M"><stop offset="0" stop-color="#fff"/><stop offset="1" stop-color="#fff" stop-opacity="0"/></linearGradient><linearGradient id="L" x1="22.8" y1="9.392" x2="23.342" y2="23.883" xlink:href="#M"><stop offset="0"/><stop offset="1" stop-opacity="0"/></linearGradient><linearGradient id="M" gradientUnits="userSpaceOnUse"/></defs><g transform="matrix(.022624 0 0 .019662 44.39519 41.98146)"><path d="M-1559.252-150.697H-219.62V327.66h-1339.634z" opacity=".402" fill="url(#D)"/><path d="M-219.62-150.68v478.33c142.874.9 345.4-107.17 345.4-239.196S-33.655-150.68-219.62-150.68z" opacity=".402" fill="url(#C)"/><path d="M-1559.252-150.68v478.33c-142.874.9-345.4-107.17-345.4-239.196s159.437-239.135 345.4-239.135z" opacity=".402" fill="url(#A)"/></g><path transform="matrix(.997091 0 0 1.011161 .175269 -.497829)" d="M3.837 16.8c-.044-.035 1.732 25.224 1.732 25.232.167 2.523 1.565 3.444 3.13 3.448l29.994-.006c2.636-.01 3.282-1.617 3.456-3.37.014-.035 1.79-25.27 1.803-25.303H3.837z" fill="url(#H)" fill-rule="evenodd" stroke="url(#I)" stroke-width=".996"/><path transform="matrix(1.007266 0 0 1.010724 -.252168 -.110549)" d="M43.188 18.93L7.2 18.908c27.114.63 32.44 3.61 35.747 3.457l.242-3.434z" fill="url(#L)"/><g fill="#fff" fill-opacity=".488" fill-rule="evenodd"><path d="M23.885 28.316l5.324.417 2.06-5.144-2.436 1.757s-1.044-2.5-1.795-2.7-3.954-.134-3.954-.134c1.02.26 1.81 2.055 1.823 2.075.318.532 1.208 2.323 1.208 2.323l-2.228 1.406z"/><path d="M24.544 24.757l-1.762 3.45-3.623-2.345s1.643-3.182 2.938-3.182c1.306 0 1.89 1.155 2.448 2.077z" fill-opacity=".3"/><path d="M27.138 32.95l-3.433 4.2 3.276 4.34.06-2.734s2.413.234 2.967-.324 2.858-3.37 2.858-3.37c-.74.764-2.648.538-2.672.538-.608.006-3.015-.05-3.015-.05l-.04-2.6z"/><path d="M30.36 35.13l-1.98-3.324 3.822-1.985s1.816 3.082 1.15 4.22c-.67 1.15-1.936 1.07-2.994 1.088z" fill-opacity=".3"/><path d="M21.136 32.705l-1.695-4.58-4.94.358L16.528 30s-1.4 2.03-1.206 2.8 1.294 3.964 1.294 3.964c-.276-1.04.867-2.624.878-2.645l1.547-2.657 2.094 1.242z"/><path d="M17.746 34.554l3.795-.102-.23 4.39s-3.508.078-4.14-1.082c-.636-1.17.062-2.256.575-3.206z" fill-opacity=".3"/></g><path transform="matrix(.997091 0 0 1.011161 .253928 -.654813)" d="M41.625 23.652c-5.325 2.334-12.62 4.67-18.57 4.72-6.54.055-11.36 3.16-16.24 5.544l.675 8.117c.132 1.61.638 1.57 2.94 1.57l28.258.013c1.76 0 1.56-1.252 1.655-2.45l1.28-17.513z" fill="url(#J)" fill-rule="evenodd"/><path transform="matrix(.997091 0 0 1.011161 .219976 -.497829)" d="M5.2 19.403c-.05 0 .84 12.676 1.547 21.566.183 2.282.554 3.21 1.99 3.21l29.268.083c2.775-.01 2.723-1.026 2.952-3.185.084-.786 1.537-21.586 1.523-21.586-9.93 0-25.012-.057-37.28-.088z" fill="none" stroke="url(#K)" stroke-width=".996" stroke-opacity=".286"/><g fill-rule="evenodd"><path d="M7.538 4.73c-1.044.002-1.918.026-2.394 1.014-.083.172-2.605 7.136-2.726 7.4-1.038 2.274-.08 5.138 1.924 5.118H44.46c1.707-.05 1.925-3.366 1.2-4.858l-3.54-7.893c-.402-.607-1.303-.873-1.972-.848-.132.005-32.47.065-32.6.065z" transform="matrix(1.021485 0 0 1.028865 -.537224 -.298421)" fill="url(#E)" stroke="#4d5506" stroke-width=".975"/><path d="M7.72 6.4c-.985-.013-1.05-.05-1.27.646l-2.194 6.74c-.275.836.114 1.057 1.068 1.04.338-.006 37.347 0 37.885 0 .764 0 1-.252.818-.845-.07-.24-2.94-7.005-3.018-7.125-.357-.538-.295-.536-.917-.544-.117-.001-32.255.09-32.37.087z" transform="matrix(1.005586 0 0 1.027013 -.134078 -.270972)" fill="url(#G)"/><path d="M7.098 6.273c-.373.03-.552.142-.708.644l-2.204 6.926c-.276.86.1 1.09 1.05 1.074h2.15l-.286-8.644z" fill="#2e3436"/><path d="M40.143 6.3c.45.004.583-.005.87.54.04.074 2.874 6.793 2.976 7.04.346.947-.313.927-1.36.955l-2.78-.022.29-8.51z" transform="matrix(1.005586 0 0 1.028865 -.134078 -.298421)" fill="url(#F)"/></g></svg>