<svg width="128" height="128" xmlns="http://www.w3.org/2000/svg" xmlns:xlink="http://www.w3.org/1999/xlink"><style><![CDATA[.B{opacity:.8}.C{stroke-opacity:.843}.D{fill:#fff}.E{fill:#696969}.F{fill:#dfbfff}]]></style><defs><linearGradient id="A" xlink:href="#Z"><stop stop-color="#ddd" offset="0"/><stop stop-color="#ddd" stop-opacity="0" offset="1"/></linearGradient><linearGradient id="C" xlink:href="#Z"><stop offset="0"/><stop stop-opacity="0" offset="1"/></linearGradient><linearGradient id="D" xlink:href="#Z"><stop offset="0"/><stop stop-color="#060" offset="1"/></linearGradient><linearGradient id="E" xlink:href="#Z"><stop stop-color="#fff" offset="0"/><stop stop-color="#555" offset="1"/></linearGradient><filter id="F"><feGaussianBlur stdDeviation="1.18"/></filter><radialGradient id="G" cx="48" cy="-.215" r="55.148" gradientTransform="matrix(1.3201 -5.425e-5 4.5328e-5 1.103 .63899 10.039)" xlink:href="#Z"><stop stop-color="#72d13d" offset="0"/><stop stop-color="#35ac1c" offset=".355"/><stop stop-color="#0f9508" offset=".619"/><stop stop-color="#008c00" offset=".757"/><stop stop-color="#007a00" offset="1"/></radialGradient><radialGradient id="H" cx="48.125" cy="8.625" r="49.875" gradientTransform="matrix(1.25 0 0 1 4 8.125)" xlink:href="#Z"><stop stop-color="#d6ffc0" offset="0"/><stop stop-color="#ccfab7" offset=".074"/><stop stop-color="#4cb544" offset=".611"/><stop stop-color="#008c00" offset=".757"/></radialGradient><clipPath id="I"><path class="D" d="M.13 40.84H127.87v89.032H.13z"/></clipPath><clipPath id="J"><path class="D" d="m-28.903-13.355h185.81v54.195h-185.81z"/></clipPath><linearGradient id="K" x1="118.05" x2="111.3" y1="118.53" y2="111.32" xlink:href="#Z"><stop stop-color="#a2a2a2" offset="0"/><stop stop-color="#fff" offset="1"/></linearGradient><linearGradient id="L" x1="27.937" x2="32.048" y1="31.109" y2="177.58" xlink:href="#Z"><stop stop-color="#fff" offset="0"/><stop stop-color="#eee" offset="1"/></linearGradient><filter id="M" x="-.129" y="-.129" width="1.258" height="1.258"><feGaussianBlur stdDeviation="1.141"/></filter><linearGradient id="N" x1="24" x2="24" y1="7.131" y2="-4.666" spreadMethod="reflect" xlink:href="#E"/><radialGradient id="O" cx="24" cy="17.364" r="10.84" gradientTransform="matrix(1.7135 0 0 .61393 -17.124 5.5555)" xlink:href="#D"/><radialGradient id="P" cx="24" cy="17.364" r="10.84" gradientTransform="matrix(1.7135 0 0 .61393 62.8 5.5555)" xlink:href="#D"/><linearGradient id="Q" x1="103.92" x2="103.92" y1="7.131" y2="-4.666" spreadMethod="reflect" xlink:href="#E"/><linearGradient id="R" x1="25.559" x2="25.559" y1="-.203" y2="4.003" xlink:href="#C"/><linearGradient id="S" x1="105.48" x2="105.48" y1="-.203" y2="4.003" xlink:href="#C"/><linearGradient id="T" x1="105.48" x2="105.48" y1="-18.605" y2="-13.182" xlink:href="#C"/><linearGradient id="U" x1="25.357" x2="25.357" y1="-18.605" y2="-13.182" xlink:href="#C"/><linearGradient id="V" x1="65.331" x2="65.331" y1="72" y2="80.061" spreadMethod="reflect" xlink:href="#Z"><stop stop-color="red" offset="0"/><stop stop-color="#8c0000" offset="1"/></linearGradient><linearGradient id="X" x1="29.548" x2="47.683" y1="51.488" y2="119.17" xlink:href="#A"/><linearGradient id="Y" x1="-54.968" x2="-42.878" y1="43.488" y2="111.17" xlink:href="#A"/><linearGradient id="Z" gradientUnits="userSpaceOnUse"/></defs><g transform="matrix(1.0333 0 0 1.0333 -2.1333 -2.2)"><path d="M4 8h120v116H4z" clip-path="url(#J)" fill="#003d00" filter="url(#F)"/><path d="M4 8h120v94.64c-6.212 7.723-12.68 15.19-20.444 21.36H4V8z" clip-path="url(#I)" filter="url(#F)" opacity=".5"/></g><path class="D" d="M4 8h120v96.063L104.47 124H4V8z"/><path d="M6.03 10.03H121.97v95.05l-17.097 16.894H6.03V10.03z" fill="url(#L)"/><g class="E"><path d="m104 48h1v68h-1z"/><path d="M112 112v1H16v-1z"/></g><path d="M4 8.125h120V40H4z" fill="url(#H)"/><path d="M5 10h118v30H5z" fill="url(#G)"/><g class="D C" stroke="#fff" stroke-width="1.2"><ellipse class="B" cx="94.951" cy="24.397" rx=".396" ry=".602"/><ellipse class="B" cx="94.692" cy="26.397" rx=".761" ry=".601"/><ellipse class="B" cx="94.624" cy="28.403" rx=".858" ry=".611"/><ellipse class="B" cx="94.637" cy="30.409" rx=".839" ry=".619"/><ellipse class="B" cx="85.086" cy="24.381" rx=".19" ry=".579"/><ellipse class="B" cx="86.946" cy="24.397" rx=".39" ry=".602"/><ellipse class="B" cx="88.984" cy="24.397" rx=".352" ry=".601"/><ellipse class="B" cx="90.881" cy="24.394" rx=".427" ry=".598"/><ellipse class="B" cx="92.958" cy="24.397" rx=".36" ry=".601"/><ellipse class="B" cx="82.947" cy="26.399" rx=".383" ry=".605"/><ellipse class="B" cx="84.941" cy="26.403" rx=".396" ry=".611"/><ellipse class="B" cx="86.947" cy="26.397" rx=".387" ry=".603"/><ellipse class="B" cx="88.668" cy="26.397" rx=".799" ry=".602"/><ellipse class="B" cx="90.724" cy="26.381" rx=".649" ry=".579"/><ellipse class="B" cx="92.654" cy="26.397" rx=".79" ry=".602"/><ellipse class="B" cx="82.651" cy="28.394" rx=".802" ry=".598"/><ellipse class="B" cx="84.679" cy="28.397" rx=".767" ry=".601"/><ellipse class="B" cx="86.664" cy="28.397" rx=".788" ry=".602"/><ellipse class="B" cx="88.681" cy="28.399" rx=".782" ry=".605"/><ellipse class="B" cx="90.624" cy="28.403" rx=".792" ry=".611"/><ellipse class="B" cx="92.652" cy="28.397" rx=".792" ry=".603"/><ellipse class="B" cx="82.717" cy="30.397" rx=".708" ry=".602"/><ellipse class="B" cx="84.622" cy="30.397" rx=".849" ry=".602"/><ellipse class="B" cx="86.642" cy="30.403" rx=".819" ry=".61"/><ellipse class="B" cx="88.626" cy="30.402" rx=".86" ry=".609"/><ellipse class="B" cx="90.601" cy="30.405" rx=".825" ry=".612"/><ellipse class="B" cx="92.615" cy="30.403" rx=".846" ry=".611"/><ellipse class="B" cx="82.618" cy="32.403" rx=".849" ry=".61"/><ellipse class="B" cx="84.619" cy="32.403" rx=".851" ry=".611"/><ellipse class="B" cx="86.618" cy="32.397" rx=".851" ry=".602"/><ellipse class="B" cx="88.738" cy="32.397" rx=".701" ry=".602"/><ellipse class="B" cx="110.95" cy="24.397" rx=".396" ry=".602"/><ellipse class="B" cx="110.69" cy="26.397" rx=".761" ry=".601"/><ellipse class="B" cx="110.62" cy="28.403" rx=".858" ry=".611"/><ellipse class="B" cx="110.64" cy="30.409" rx=".839" ry=".619"/><ellipse class="B" cx="101.09" cy="24.381" rx=".19" ry=".579"/><ellipse class="B" cx="102.95" cy="24.397" rx=".39" ry=".602"/><ellipse class="B" cx="104.98" cy="24.397" rx=".498" ry=".85"/><ellipse class="B" cx="106.88" cy="24.394" rx=".427" ry=".598"/><ellipse class="B" cx="108.96" cy="24.397" rx=".36" ry=".601"/><ellipse class="B" cx="98.947" cy="26.399" rx=".383" ry=".605"/><ellipse class="B" cx="100.94" cy="26.403" rx=".396" ry=".611"/><ellipse class="B" cx="102.95" cy="26.397" rx=".387" ry=".603"/><ellipse class="B" cx="104.67" cy="26.397" rx=".799" ry=".602"/><ellipse class="B" cx="106.72" cy="26.381" rx=".649" ry=".579"/><ellipse class="B" cx="108.65" cy="26.397" rx=".79" ry=".602"/><ellipse class="B" cx="98.651" cy="28.394" rx=".802" ry=".598"/><ellipse class="B" cx="100.68" cy="28.397" rx=".767" ry=".601"/><ellipse class="B" cx="102.66" cy="28.397" rx=".788" ry=".602"/><ellipse class="B" cx="104.68" cy="28.399" rx=".782" ry=".605"/><ellipse class="B" cx="106.62" cy="28.403" rx=".792" ry=".611"/><ellipse class="B" cx="108.65" cy="28.397" rx=".792" ry=".603"/><ellipse class="B" cx="98.717" cy="30.397" rx=".708" ry=".602"/><ellipse class="B" cx="100.62" cy="30.397" rx=".849" ry=".602"/><ellipse class="B" cx="102.64" cy="30.403" rx=".819" ry=".61"/><ellipse class="B" cx="104.63" cy="30.402" rx=".86" ry=".609"/><ellipse class="B" cx="106.6" cy="30.405" rx=".825" ry=".612"/><ellipse class="B" cx="108.62" cy="30.403" rx=".846" ry=".611"/><ellipse class="B" cx="98.618" cy="32.403" rx=".849" ry=".61"/><ellipse class="B" cx="100.62" cy="32.403" rx=".851" ry=".611"/><ellipse class="B" cx="102.62" cy="32.397" rx=".851" ry=".602"/><ellipse class="B" cx="104.74" cy="32.397" rx=".701" ry=".602"/></g><path d="m-106 64h8v8h-8zm12 0h8v8h-8zm12 0h8v8h-8zm12 0h8v8h-8zm12 0h8v8h-8zm12 0h8v8h-8z" fill="#ddd"/><path class="F" d="m-34 64h8v8h-8z"/><path d="m-106 52h8v8h-8z" fill="#eee"/><path d="m-94 52h8v8h-8zm12 0h8v8h-8zm12 0h8v8h-8zm12 0h8v8h-8zm12 0h8v8h-8z" fill="#ddd"/><path class="F" d="m-34 52h8v8h-8z"/><path d="m-106 76h8v8h-8zm12 0h8v8h-8zm12 0h8v8h-8zm12 0h8v8h-8zm12 0h8v8h-8zm12 0h8v8h-8z" fill="#ddd"/><path class="F" d="m-34 76h8v8h-8z"/><path d="m-106 88h8v8h-8zm12 0h8v8h-8zm12 0h8v8h-8zm12 0h8v8h-8zm12 0h8v8h-8zm12 0h8v8h-8z" fill="#ddd"/><path class="F" d="m-34 88h8v8h-8z"/><path d="m-106 100h8v8h-8zm12 0h8v8h-8zm12 0h8v8h-8zm12 0h8v8h-8z" fill="#ddd"/><path d="m-58 100h8v8h-8zm12 0h8v8h-8z" fill="#eee"/><path d="M104.81 122.58s6.06-5.446 9.418-8.805l8.805-8.81s-6.774-1.1-17.294.93c-1.623 9.505-.93 16.685-.93 16.685z" fill="#060606" filter="url(#M)" opacity=".486"/><path d="m104.14 123.99s7.276-6.055 10.635-9.413 9.413-10.635 9.413-10.635-9.817 3.97-16.077 3.97c0 6.26-3.97 16.077-3.97 16.077z" fill="url(#K)"/><rect x="92.07" y="10.143" width="23.708" height="8.494" rx="3.327" ry="3.043" fill="url(#P)"/><path d="m95.924 0h16v18.637h-16z" fill="url(#Q)"/><path d="M95.95-.203h15.975V4H95.95z" fill="url(#S)" opacity=".452"/><path transform="scale(1 -1)" d="M95.95-18.605h15.975v5.42H95.95z" fill="url(#T)" opacity=".638"/><rect x="12.146" y="10.143" width="23.708" height="8.494" rx="3.327" ry="3.043" fill="url(#O)"/><path d="M16 0h16v18.637H16z" fill="url(#N)"/><path d="M16.025-.203H32V4H16.025z" fill="url(#R)" opacity=".452"/><path transform="scale(1 -1)" d="M15.823-18.605h15.975v5.42H15.823z" fill="url(#U)" opacity=".638"/><path d="M16 48h24v64H16z" fill="url(#X)"/><path class="E" d="m16 48h1v68h-1z"/><path transform="rotate(270)" d="m-64 40h16v64h-16z" fill="url(#Y)"/><g class="E"><path d="M112 48v1H16v-1z"/><path d="m40 48h1v68h-1zm16 0h1v68h-1zm16 0h1v68h-1zm16 0h1v68h-1z"/><path d="M112 64v1H16v-1zm0 16v1H16v-1z"/></g><path transform="matrix(2 0 0 1 -72 -8)" d="M56 72h16v16H56z" fill="url(#V)"/><path class="D" d="M44 68h24v8H44z" opacity=".9"/><path transform="translate(16 8)" d="M56 72h16v16H56z" fill="url(#V)"/><path class="D" d="m76 84h8v8h-8z" opacity=".9"/><path class="E" d="M112 96v1H16v-1z"/><path transform="translate(32 24)" d="M56 72h16v16H56z" fill="url(#V)"/><path class="D" d="m92 100h8v8h-8z" opacity=".9"/></svg>
