<svg xmlns="http://www.w3.org/2000/svg" xmlns:xlink="http://www.w3.org/1999/xlink" width="128" height="128"><defs><linearGradient id="A" xlink:href="#M"><stop offset="0" stop-color="#ececec"/><stop offset="1" stop-color="#8696aa"/></linearGradient><filter id="B"><feGaussianBlur stdDeviation=".385"/></filter><linearGradient id="C" x1="87.231" y1="9.712" x2="114.639" y2="112" xlink:href="#M"><stop offset="0" stop-color="#2c72c7"/><stop offset="1" stop-color="#00438a"/></linearGradient><linearGradient id="D" x1="104" y1="108" x2="104" y2="19.847" xlink:href="#M"><stop offset="0" stop-color="#bbd6ff"/><stop offset="1" stop-color="#0057ae"/></linearGradient><linearGradient id="E" x1="104" y1="108.5" x2="104" y2="15.641" xlink:href="#M"><stop offset="0" stop-color="#fff"/><stop offset="1" stop-color="#fff" stop-opacity="0"/></linearGradient><linearGradient id="F" x1="95" y1="15.964" x2="95" y2="65.782" xlink:href="#M"><stop offset="0" stop-color="#d4e2f3"/><stop offset="1" stop-color="#fff" stop-opacity="0"/></linearGradient><radialGradient id="G" gradientTransform="matrix(1.1199097,0,0,2.4121533,-6.7149446,-93.702124)" cx="56" cy="66" fx="56" fy="66" r="48" xlink:href="#M"><stop offset="0" stop-color="#fff"/><stop offset="1" stop-color="#eee"/></radialGradient><filter id="H"><feGaussianBlur stdDeviation="2.2"/></filter><linearGradient xlink:href="#A" id="I" x1="72.074" y1="37.417" x2="72.074" y2="8.611"/><linearGradient xlink:href="#A" id="J" x1="72.074" y1="77.417" x2="72.074" y2="48.611"/><linearGradient xlink:href="#A" id="K" x1="72.074" y1="117.417" x2="72.074" y2="88.611"/><path id="L" d="M104 108L84 88h16V24h8v64h16l-20 20z"/><linearGradient id="M" gradientUnits="userSpaceOnUse"/></defs><g transform="translate(0 -3.5)"><path d="M8 7.5h96v116H8z" opacity=".45" stroke="#000" stroke-width="4" stroke-linejoin="round" filter="url(#H)"/><path d="M8 7.5h96v116H8z" fill="#fff"/><path d="M10 9.5h92v112H10z" fill="url(#G)"/></g><rect width="80" height="20" x="16" y="92" rx="3.052" opacity=".6" fill="url(#K)"/><rect rx="3.052" y="52" x="16" height="20" width="80" opacity=".6" fill="url(#J)"/><rect width="80" height="20" x="16" y="12" rx="3.052" opacity=".6" fill="url(#I)"/><g transform="translate(0 -4)"><use xlink:href="#L" fill="none" stroke="url(#C)" stroke-width="8" stroke-linejoin="round"/><use xlink:href="#L" fill="url(#D)" fill-rule="evenodd"/><use xlink:href="#L" opacity=".898" fill="none" stroke="url(#E)" filter="url(#B)"/><path d="M100 24v32.438l8-3.327V24h-8z" opacity=".973" fill="url(#F)" fill-rule="evenodd"/></g><path d="M48 20h16v4H48zm20 0h8v4h-8zm8 20H56v4h20zM48 60h16v4H48zm20 0h8v4h-8zm-20 44h16v-4H48zm20 0h8v-4h-8zm8-20H56v-4h20zM24 20h20v4H24zm28 20H36v4h16zm-20 0h-8v4h8zm-8 20h20v4H24zm0 44h20v-4H24zm28-20H36v-4h16zm-20 0h-8v-4h8z" opacity=".3"/></svg>