<svg xmlns="http://www.w3.org/2000/svg" xmlns:xlink="http://www.w3.org/1999/xlink" width="128" height="128"><style><![CDATA[.B{opacity:.8}.C{stroke-opacity:.843}.D{fill:#fff}.E{fill:#696969}.F{fill:#dfbfff}]]></style><defs><linearGradient id="A" xlink:href="#Z"><stop offset="0" stop-color="#ddd"/><stop offset="1" stop-color="#ddd" stop-opacity="0"/></linearGradient><linearGradient id="B" xlink:href="#Z"><stop offset="0" stop-color="red"/><stop offset="1" stop-color="#8c0000"/></linearGradient><linearGradient id="C" xlink:href="#Z"><stop offset="0"/><stop offset="1" stop-opacity="0"/></linearGradient><linearGradient id="D" xlink:href="#Z"><stop offset="0"/><stop offset="1" stop-color="#060"/></linearGradient><linearGradient id="E" xlink:href="#Z"><stop offset="0" stop-color="#fff"/><stop offset="1" stop-color="#555"/></linearGradient><filter id="F"><feGaussianBlur stdDeviation="1.18"/></filter><radialGradient id="G" gradientTransform="matrix(1.3200684,-5.4249581e-5,4.5327926e-5,1.1029756,0.6389866,10.038529)" fx="48" fy="-.215" r="55.148" cy="-.215" cx="48" xlink:href="#Z"><stop offset="0" stop-color="#72d13d"/><stop offset=".355" stop-color="#35ac1c"/><stop offset=".619" stop-color="#0f9508"/><stop offset=".757" stop-color="#008c00"/><stop offset="1" stop-color="#007a00"/></radialGradient><radialGradient id="H" gradientTransform="matrix(1.25,0,0,1,4.0000013,8.1249992)" r="49.875" cy="8.625" cx="48.125" xlink:href="#Z"><stop offset="0" stop-color="#d6ffc0"/><stop offset=".074" stop-color="#ccfab7"/><stop offset=".611" stop-color="#4cb544"/><stop offset=".757" stop-color="#008c00"/></radialGradient><clipPath id="I"><path d="M.13 40.84H127.87v89.032H.13z" opacity="1" fill-opacity="1" stroke="none" class="D"/></clipPath><clipPath id="J"><path d="M-28.903-13.355h185.806V40.84H-28.903z" opacity="1" fill-opacity="1" stroke="none" class="D"/></clipPath><linearGradient id="K" x1="118.047" y1="118.529" x2="111.304" y2="111.317" xlink:href="#Z"><stop offset="0" stop-color="#a2a2a2"/><stop offset="1" stop-color="#fff"/></linearGradient><linearGradient id="L" x1="27.937" y1="31.109" x2="32.048" y2="177.577" xlink:href="#Z"><stop offset="0" stop-color="#fff"/><stop offset="1" stop-color="#eee"/></linearGradient><filter x="-.129" width="1.258" y="-.129" height="1.258" id="M"><feGaussianBlur stdDeviation="1.141"/></filter><linearGradient xlink:href="#E" id="N" x1="24" y1="7.131" x2="24" y2="-4.666" spreadMethod="reflect"/><radialGradient xlink:href="#D" id="O" cx="24" cy="17.364" fx="24" fy="17.364" r="10.84" gradientTransform="matrix(1.7134983,0,0,0.6139271,-17.123959,5.5555333)"/><radialGradient xlink:href="#D" id="P" gradientTransform="matrix(1.7134983,0,0,0.6139271,62.799971,5.5555333)" cx="24" cy="17.364" fx="24" fy="17.364" r="10.84"/><linearGradient xlink:href="#E" id="Q" spreadMethod="reflect" x1="103.924" y1="7.131" x2="103.924" y2="-4.666"/><linearGradient xlink:href="#C" id="R" x1="25.559" y1="-.203" x2="25.559" y2="4.003"/><linearGradient xlink:href="#C" id="S" x1="105.483" y1="-.203" x2="105.483" y2="4.003"/><linearGradient xlink:href="#C" id="T" x1="105.483" y1="-18.605" x2="105.483" y2="-13.182"/><linearGradient xlink:href="#C" id="U" x1="25.357" y1="-18.605" x2="25.357" y2="-13.182"/><linearGradient xlink:href="#B" id="V" x1="65.331" y1="72" x2="65.331" y2="80.061" spreadMethod="reflect"/><linearGradient xlink:href="#B" id="W" spreadMethod="reflect" x1="65.331" y1="72" x2="65.331" y2="80.061"/><linearGradient xlink:href="#A" id="X" x1="29.548" y1="51.488" x2="47.683" y2="119.169"/><linearGradient xlink:href="#A" id="Y" x1="-54.968" y1="43.488" x2="-42.878" y2="111.169"/><linearGradient id="Z" gradientUnits="userSpaceOnUse"/></defs><g transform="matrix(1.033333 0 0 1.033333 -2.133333 -2.2)"><path clip-path="url(#J)" d="M4 8h120v116H4z" filter="url(#F)" fill="#003d00"/><path clip-path="url(#I)" d="M4 8h120v94.64c-6.212 7.723-12.68 15.19-20.444 21.36H4V8z" opacity=".5" filter="url(#F)"/></g><path d="M4 8h120v96.063L104.47 124H4V8z" class="D"/><path d="M6.03 10.03H121.97v95.05l-17.097 16.894H6.03V10.03z" fill="url(#L)"/><g class="E"><path d="M104 48h1v68h-1z"/><path d="M112 112v1H16v-1z"/></g><path d="M4 8.125h120V40H4z" fill="url(#H)"/><path d="M5 10h118v30H5z" fill="url(#G)"/><g stroke="#fff" stroke-width="1.2" class="D C"><ellipse ry=".602" rx=".396" cy="24.397" cx="94.951" class="B"/><ellipse ry=".601" rx=".761" cy="26.397" cx="94.692" class="B"/><ellipse ry=".611" rx=".858" cy="28.403" cx="94.624" class="B"/><ellipse ry=".619" rx=".839" cy="30.409" cx="94.637" class="B"/><ellipse ry=".579" rx=".19" cy="24.381" cx="85.086" class="B"/><ellipse ry=".602" rx=".39" cy="24.397" cx="86.946" class="B"/><ellipse ry=".601" rx=".352" cy="24.397" cx="88.984" class="B"/><ellipse ry=".598" rx=".427" cy="24.394" cx="90.881" class="B"/><ellipse ry=".601" rx=".36" cy="24.397" cx="92.958" class="B"/><ellipse ry=".605" rx=".383" cy="26.399" cx="82.947" class="B"/><ellipse ry=".611" rx=".396" cy="26.403" cx="84.941" class="B"/><ellipse ry=".603" rx=".387" cy="26.397" cx="86.947" class="B"/><ellipse ry=".602" rx=".799" cy="26.397" cx="88.668" class="B"/><ellipse ry=".579" rx=".649" cy="26.381" cx="90.724" class="B"/><ellipse ry=".602" rx=".79" cy="26.397" cx="92.654" class="B"/><ellipse ry=".598" rx=".802" cy="28.394" cx="82.651" class="B"/><ellipse ry=".601" rx=".767" cy="28.397" cx="84.679" class="B"/><ellipse ry=".602" rx=".788" cy="28.397" cx="86.664" class="B"/><ellipse ry=".605" rx=".782" cy="28.399" cx="88.681" class="B"/><ellipse ry=".611" rx=".792" cy="28.403" cx="90.624" class="B"/><ellipse ry=".603" rx=".792" cy="28.397" cx="92.652" class="B"/><ellipse ry=".602" rx=".708" cy="30.397" cx="82.717" class="B"/><ellipse ry=".602" rx=".849" cy="30.397" cx="84.622" class="B"/><ellipse ry=".61" rx=".819" cy="30.403" cx="86.642" class="B"/><ellipse ry=".609" rx=".86" cy="30.402" cx="88.626" class="B"/><ellipse ry=".612" rx=".825" cy="30.405" cx="90.601" class="B"/><ellipse ry=".611" rx=".846" cy="30.403" cx="92.615" class="B"/><ellipse ry=".61" rx=".849" cy="32.403" cx="82.618" class="B"/><ellipse ry=".611" rx=".851" cy="32.403" cx="84.619" class="B"/><ellipse ry=".602" rx=".851" cy="32.397" cx="86.618" class="B"/><ellipse ry=".602" rx=".701" cy="32.397" cx="88.738" class="B"/><ellipse ry=".602" rx=".396" cy="24.397" cx="110.951" class="B"/><ellipse ry=".601" rx=".761" cy="26.397" cx="110.692" class="B"/><ellipse ry=".611" rx=".858" cy="28.403" cx="110.624" class="B"/><ellipse ry=".619" rx=".839" cy="30.409" cx="110.637" class="B"/><ellipse ry=".579" rx=".19" cy="24.381" cx="101.086" class="B"/><ellipse ry=".602" rx=".39" cy="24.397" cx="102.946" class="B"/><ellipse ry=".85" rx=".498" cy="24.397" cx="104.984" class="B"/><ellipse ry=".598" rx=".427" cy="24.394" cx="106.881" class="B"/><ellipse ry=".601" rx=".36" cy="24.397" cx="108.958" class="B"/><ellipse ry=".605" rx=".383" cy="26.399" cx="98.947" class="B"/><ellipse ry=".611" rx=".396" cy="26.403" cx="100.941" class="B"/><ellipse ry=".603" rx=".387" cy="26.397" cx="102.947" class="B"/><ellipse ry=".602" rx=".799" cy="26.397" cx="104.668" class="B"/><ellipse ry=".579" rx=".649" cy="26.381" cx="106.724" class="B"/><ellipse ry=".602" rx=".79" cy="26.397" cx="108.654" class="B"/><ellipse ry=".598" rx=".802" cy="28.394" cx="98.651" class="B"/><ellipse ry=".601" rx=".767" cy="28.397" cx="100.679" class="B"/><ellipse ry=".602" rx=".788" cy="28.397" cx="102.664" class="B"/><ellipse ry=".605" rx=".782" cy="28.399" cx="104.681" class="B"/><ellipse ry=".611" rx=".792" cy="28.403" cx="106.624" class="B"/><ellipse ry=".603" rx=".792" cy="28.397" cx="108.652" class="B"/><ellipse ry=".602" rx=".708" cy="30.397" cx="98.717" class="B"/><ellipse ry=".602" rx=".849" cy="30.397" cx="100.622" class="B"/><ellipse ry=".61" rx=".819" cy="30.403" cx="102.642" class="B"/><ellipse ry=".609" rx=".86" cy="30.402" cx="104.626" class="B"/><ellipse ry=".612" rx=".825" cy="30.405" cx="106.601" class="B"/><ellipse ry=".611" rx=".846" cy="30.403" cx="108.615" class="B"/><ellipse ry=".61" rx=".849" cy="32.403" cx="98.618" class="B"/><ellipse ry=".611" rx=".851" cy="32.403" cx="100.619" class="B"/><ellipse ry=".602" rx=".851" cy="32.397" cx="102.618" class="B"/><ellipse ry=".602" rx=".701" cy="32.397" cx="104.738" class="B"/></g><path d="M-106 64h8v8h-8zm12 0h8v8h-8zm12 0h8v8h-8zm12 0h8v8h-8zm12 0h8v8h-8zm12 0h8v8h-8z" fill="#ddd"/><path d="M-34 64h8v8h-8z" class="F"/><path d="M-106 52h8v8h-8z" fill="#eee"/><path d="M-94 52h8v8h-8zm12 0h8v8h-8zm12 0h8v8h-8zm12 0h8v8h-8zm12 0h8v8h-8z" fill="#ddd"/><path d="M-34 52h8v8h-8z" class="F"/><path d="M-106 76h8v8h-8zm12 0h8v8h-8zm12 0h8v8h-8zm12 0h8v8h-8zm12 0h8v8h-8zm12 0h8v8h-8z" fill="#ddd"/><path d="M-34 76h8v8h-8z" class="F"/><path d="M-106 88h8v8h-8zm12 0h8v8h-8zm12 0h8v8h-8zm12 0h8v8h-8zm12 0h8v8h-8zm12 0h8v8h-8z" fill="#ddd"/><path d="M-34 88h8v8h-8z" class="F"/><path d="M-106 100h8v8h-8zm12 0h8v8h-8zm12 0h8v8h-8zm12 0h8v8h-8z" fill="#ddd"/><path d="M-58 100h8v8h-8zm12 0h8v8h-8z" fill="#eee"/><path d="M104.81 122.58s6.06-5.446 9.418-8.805l8.805-8.81s-6.774-1.1-17.294.93c-1.623 9.505-.93 16.685-.93 16.685z" opacity=".486" fill="#060606" filter="url(#M)"/><path d="M104.143 123.986s7.276-6.055 10.635-9.413 9.413-10.635 9.413-10.635-9.817 3.97-16.077 3.97c0 6.26-3.97 16.077-3.97 16.077z" fill="url(#K)"/><rect ry="3.043" rx="3.327" width="23.708" height="8.494" x="92.07" y="10.143" fill="url(#P)"/><path d="M95.924 0h16v18.637h-16z" fill="url(#Q)"/><path d="M95.95-.203h15.975V4H95.95z" opacity=".452" fill="url(#S)"/><path transform="scale(1 -1)" d="M95.95-18.605h15.975v5.42H95.95z" opacity=".638" fill="url(#T)"/><rect y="10.143" x="12.146" height="8.494" width="23.708" rx="3.327" ry="3.043" fill="url(#O)"/><path d="M16 0h16v18.637H16z" fill="url(#N)"/><path d="M16.025-.203H32V4H16.025z" opacity=".452" fill="url(#R)"/><path transform="scale(1 -1)" d="M15.823-18.605h15.975v5.42H15.823z" opacity=".638" fill="url(#U)"/><path d="M16 48h24v64H16z" fill="url(#X)"/><path d="M16 48h1v68h-1z" class="E"/><path transform="rotate(270)" d="M-64 40h16v64h-16z" fill="url(#Y)"/><g class="E"><path d="M112 48v1H16v-1z"/><path d="M40 48h1v68h-1zm16 0h1v68h-1zm16 0h1v68h-1zm16 0h1v68h-1z"/><path d="M112 64v1H16v-1zm0 16v1H16v-1z"/></g><path d="M56 72h16v16H56z" fill="url(#V)" transform="matrix(2 0 0 1 -72 -8)"/><path d="M44 68h24v8H44z" opacity=".9" class="D"/><path d="M56 72h16v16H56z" fill="url(#W)" transform="translate(16 8)"/><path d="M76 84h8v8h-8z" opacity=".9" class="D"/><path d="M112 96v1H16v-1z" class="E"/><path d="M56 72h16v16H56z" fill="url(#W)" transform="translate(32 24)"/><path d="M92 100h8v8h-8z" opacity=".9" class="D"/></svg>