<svg xmlns="http://www.w3.org/2000/svg" xmlns:xlink="http://www.w3.org/1999/xlink" width="128" height="128"><defs><linearGradient id="A" xlink:href="#b"><stop offset="0"/><stop offset="1" stop-opacity="0"/></linearGradient><linearGradient id="B" xlink:href="#b"><stop offset="0" stop-color="#fff"/><stop offset="1" stop-color="#fff" stop-opacity="0"/></linearGradient><linearGradient id="C" xlink:href="#b"><stop offset="0"/><stop offset="1" stop-opacity="0"/></linearGradient><linearGradient id="D" x1="64.089" y1="9.679" x2="64.089" y2="123.906" gradientTransform="matrix(0.9792,0,0,0.9725,133.0002,20.8762)" r="55.148" cy="-.215" cx="48" xlink:href="#b"><stop offset="0" stop-color="#008c00"/><stop offset=".355" stop-color="#35ac1c"/><stop offset=".619" stop-color="#0f9508"/><stop offset=".757" stop-color="#008c00"/><stop offset="1" stop-color="#004d00"/></linearGradient><radialGradient id="E" cx="67.094" cy="116.906" fx="67.094" fy="116.906" r="56" gradientTransform="matrix(1.2784101,0,0,1.2784101,-18.679575,-32.547876)" xlink:href="#b"><stop offset="0" stop-color="#0f0"/><stop offset=".355" stop-color="#35ac1c"/><stop offset=".619" stop-color="#0f9508"/><stop offset=".757" stop-color="#008c00"/><stop offset="1" stop-color="#004d00"/></radialGradient><radialGradient id="F" cx="99.726" cy="27.418" fx="64.69" fy="68.232" r="56" gradientTransform="matrix(0.693735,0.058671246,-0.036242796,0.4285387,33.939389,26.8809)" xlink:href="#b"><stop offset="0" stop-color="#0f0"/><stop offset="1" stop-color="#004d00" stop-opacity="0"/></radialGradient><linearGradient id="G" x1="75.094" y1="4.532" x2="75.094" y2="80.172" xlink:href="#b"><stop offset="0" stop-color="#bfffbf"/><stop offset="1" stop-color="#bfffbf" stop-opacity="0"/></linearGradient><linearGradient xlink:href="#B" id="H" x1="75.098" y1="4.534" x2="75.098" y2="80.174"/><linearGradient id="I" x1="71.594" y1="130.406" x2="71.594" y2="63.427" xlink:href="#b"><stop offset="0" stop-color="#f0ff80"/><stop offset="1" stop-color="#f0ff80" stop-opacity="0"/></linearGradient><radialGradient xlink:href="#C" id="J" cx="-10.165" cy="66.906" fx="-10.165" fy="66.906" r="59.995" gradientTransform="matrix(0.4582893,-2.1035589e-8,4.5903973e-8,1.0000813,20.447953,-0.0051974351)"/><radialGradient xlink:href="#C" id="K" gradientTransform="matrix(0.2676699,0.521376,-0.7037472,0.3612977,108.99386,-36.062981)" cx="167.67" cy="80.405" fx="167.67" fy="80.405" r="59.995"/><linearGradient xlink:href="#B" id="L" x1="120.063" y1="12.569" x2="125.304" y2="14.444" spreadMethod="reflect"/><filter x="-.151" width="1.302" y="-.137" height="1.275" id="M"><feGaussianBlur stdDeviation=".393"/></filter><radialGradient xlink:href="#C" id="N" gradientTransform="matrix(-2.3607361e-7,1.1093034,-1.0633726,-1.4106669e-7,156.30951,-2.406116)" cx="46.254" cy="86.725" fx="46.254" fy="86.725" r="59.995"/><radialGradient id="O" cx="66.015" cy="126.692" fx="66.015" fy="126.692" r="59.995" gradientTransform="matrix(0.675025,0,0,0.3583625,19.527377,41.004647)" xlink:href="#b"><stop offset="0" stop-color="#53be2c"/><stop offset="1" stop-color="#53be2c" stop-opacity="0"/></radialGradient><radialGradient xlink:href="#B" id="P" cx="64.089" cy="7.411" fx="64.089" fy="7.411" r="59.995" gradientTransform="matrix(0.3093869,0,0,0.4779247,44.260611,3.8644223)"/><linearGradient id="Q" spreadMethod="reflect" x1="120.063" y1="12.569" x2="125.304" y2="14.444" xlink:href="#b"><stop offset="0" stop-color="#baff63"/><stop offset="1" stop-color="#fff" stop-opacity="0"/></linearGradient><filter id="R"><feGaussianBlur stdDeviation="1.334"/></filter><radialGradient id="S" gradientTransform="matrix(0.6484284,0.1017206,-3.1257154e-2,0.1992521,-4.56257,53.15916)" cx="-112.172" cy="118.605" fx="-113.148" fy="59.708" r="59.995" xlink:href="#b"><stop offset="0" stop-color="#fff" stop-opacity="0"/><stop offset=".5" stop-color="#fff" stop-opacity=".187"/><stop offset="1" stop-color="#fff"/></radialGradient><linearGradient xlink:href="#A" id="T" x1="-151.439" y1="37.682" x2="-152.268" y2="57.25"/><linearGradient xlink:href="#A" id="U" x1="-132.51" y1="39.803" x2="-158.925" y2="72.882"/><linearGradient xlink:href="#A" id="V" x1="-83.013" y1="44.753" x2="-158.925" y2="72.882"/><mask maskUnits="userSpaceOnUse" id="W"><g transform="translate(248.016 30.885)" stroke="none"><path d="M-184.422-32.472c-33.125 0-64 32.375-64 65.5s31.375 64 64.5 64c30.29 0 55.337-26.216 59.406-55.344l-35.03-5.03c-1.625 11.96-11.93 20.97-24.375 20.97-13.572 0-22.094-11.522-22.094-25.094s6.022-20.094 19.594-20.094c6.786 0 9.92-2.235 14.375 2.22l-4.827 11.327c-2.056 2.056-2.244 3.306-1.68 4.616.51 1.18 1.52 2.526 4.2 2.526h43.953c3.846 0 6.46-2.654 6.46-6.25l-.07-44.078c0-2.48-.903-3.843-2.18-4.35-1.314-.52-3.033-.123-5.107 1.95l-10.195.195c-10.86-10.86-26.375-13.063-42.937-13.063z" opacity="1" fill="url(#S)" fill-opacity="1"/><g fill-rule="evenodd"><path d="M-161.5 34.5C-162 37-180 54-180 54l47.5 26 20.5-41.5-49.5-4z" fill="url(#T)" fill-opacity="1" filter="url(#R)"/><path d="M-161.5 34.5c-.5 2.5-19.778 19.89-19.778 19.89l29.65 43.203L-112 38.5l-49.5-4z" fill="url(#U)" fill-opacity="1" filter="url(#R)"/><path d="M-161.5 34.5c-.5 2.5-19.778 19.89-19.778 19.89l29.65 43.203L-112 38.5l-49.5-4z" fill="url(#V)" fill-opacity="1" filter="url(#R)"/></g></g></mask><filter id="X"><feGaussianBlur stdDeviation=".899"/></filter><filter id="Y"><feGaussianBlur stdDeviation=".565"/></filter><path id="Z" d="M64.094 3.906c-33.125 0-60 26.875-60 60s26.875 60 60 60c30.29 0 55.337-22.216 59.406-51.344l-35.03-5.03C86.844 79.492 76.54 88.5 64.094 88.5 50.522 88.5 39.5 77.478 39.5 63.906s11.022-24.594 24.594-24.594c6.786 0 12.92 2.765 17.375 7.22L71.142 56.858c-2.056 2.056-2.244 3.306-1.68 4.616.51 1.18 1.52 2.526 4.2 2.526h43.953c3.846 0 6.46-2.654 6.46-6.25l-.07-44.078c0-2.48-.903-3.843-2.18-4.35-1.314-.52-3.033-.123-5.107 1.95L106.53 21.47C95.672 10.61 80.656 3.906 64.094 3.906z"/><path id="a" d="M64.094 7.906c-30.962 0-56 25.038-56 56s25.038 56 56 56c26.933 0 49.122-18.807 54.53-44L91.5 72.03C88.06 83.93 77.06 92.5 64.094 92.5 48.356 92.5 35.5 79.644 35.5 63.906s12.856-28.594 28.594-28.594c7.872 0 15.052 3.208 20.22 8.375a4 4 0 0 1 0 5.688L73.688 60h43.938c2.005 0 2.47-.592 2.47-2.25L120 13.656l-10.625 10.656a4 4 0 0 1-5.687 0C93.55 14.175 79.577 7.906 64.094 7.906z"/><linearGradient id="b" gradientUnits="userSpaceOnUse"/></defs><g mask="url(#W)"><use xlink:href="#Z" fill="url(#D)"/><use xlink:href="#Z" opacity=".798" fill="url(#O)"/><use xlink:href="#Z" opacity=".69" fill="url(#K)"/><use xlink:href="#Z" fill="url(#J)"/><use xlink:href="#Z" opacity=".798" fill="url(#N)"/><path d="M64.094 4.206c-33.125 0-60 26.575-60 59.7s26.875 60 60 60c30.29 0 55.337-22.216 59.406-51.344l-35.03-5.03C86.844 79.492 76.54 88.5 64.094 88.5 50.522 88.5 39.5 77.478 39.5 63.906s11.022-24.594 24.594-24.594c6.786 0 12.92 2.765 17.375 7.22L71.142 56.858c-2.056 2.056-2.244 3.306-1.68 4.616.51 1.18 1.52 2.526 4.2 2.526h43.953c3.846 0 6.46-2.654 6.46-6.25l-.07-44.078c0-2.48-.903-3.843-2.18-4.35-1.314-.52-3.033-.123-5.107 1.95L106.53 21.47C95.672 10.61 80.656 4.206 64.094 4.206z" opacity=".745" fill="url(#P)" filter="url(#X)"/><g fill-rule="evenodd"><path d="M117.688 10.75l.938 4.375 1.25.875 4-2.625c.247-1.724-.35-3.347-1.937-4s-3.16.127-4.25 1.375z" fill="url(#L)" filter="url(#M)" opacity=".82"/><path transform="matrix(0 1 1 0 60.363582 -60.363586)" d="M117.688 10.75l2.188 3.125.5-.125 3.5-.375c.247-1.724-.35-3.347-1.937-4s-3.16.127-4.25 1.375z" opacity=".82" fill="url(#Q)" filter="url(#M)"/></g><use xlink:href="#a" fill="url(#E)"/><use xlink:href="#a" fill="url(#F)"/><path d="M64.094 7.906c-30.962 0-56 25.038-56 56a56.52 56.52 0 0 0 .031 1.688c5.99.678 12.14 1.15 18.406 1.406-.27-10.46 3.672-20.975 11.813-28.78 15.34-14.71 39.73-14.214 54.438 1.125 2.764 2.882 4.757 5.688 6.563 9.25L78.844 59H98c7.928-2.027 15.186-3.437 22.094-6.187L120 13.656l-10.625 10.656a4 4 0 0 1-5.687 0C93.55 14.175 79.577 7.906 64.094 7.906z" opacity=".833" fill="url(#G)"/><path d="M64.1 7.91c-30.962 0-56 25.038-56 56v.53c.253-30.744 25.196-55.53 56-55.53 15.483 0 29.456 6.27 39.594 16.406a4 4 0 0 0 5.688 0l10.125-10.156.494 37.55c-6.908 2.75-14.566 3.86-22.494 5.887l-18.656.406h19.156c7.928-2.027 15.186-3.437 22.094-6.187l-.094-39.156-.5.5-10.125 10.156a4 4 0 0 1-5.687 0l-.187-.187c-.574-.568-1.15-1.115-1.75-1.656-.082-.074-.168-.145-.25-.22-9.916-8.9-23-14.344-37.406-14.344zm-.656 19.22c-9.238.25-18.403 3.793-25.594 10.687-7.632 7.318-11.128 17.373-11.312 27.22.24-9.802 4.18-19.494 11.813-26.813 13.316-12.77 33.453-14.098 48.156-4.187-6.88-4.805-14.987-7.125-23.063-6.906z" fill="url(#H)"/><path d="M63.594 7.906c-30.962 0-56 25.038-56 56s25.038 56 56 56c26.933 0 49.122-18.807 54.53-44L91 72.03C87.56 83.93 76.56 92.5 63.594 92.5 47.856 92.5 35 79.644 35 63.906s12.856-28.594 28.594-28.594c7.872 0 15.052 3.208 20.22 8.375a4 4 0 0 1 0 5.688L73.188 60h43.938c2.005 0 2.47-.592 2.47-2.25l-.094-44.094-10.625 10.656a4 4 0 0 1-5.687 0C93.05 14.175 79.077 7.906 63.594 7.906z" fill="none" stroke="url(#I)" stroke-linejoin="round" stroke-dashoffset="1.08779998" filter="url(#Y)"/></g></svg>