<svg xmlns="http://www.w3.org/2000/svg" width="320" height="320"><style><![CDATA[.B{fill:rgb(100%,50.196081%,67.843139%)}.C{fill:rgb(100%,85.490197%,23.137255%)}.D{fill:rgb(28.627452%,85.490197%,100%)}.E{fill:rgb(59.215689%,100%,0.392157%)}]]></style><path d="M318.4 202.36a123.63 123.63 0 0 0-71.109-51.418c-29.223-7.773-60.285-4.562-87.305 9.02 16.62 25.258 41.918 43.55 71.11 51.418a123.63 123.63 0 0 0 87.305-9.02zm0 0" class="B"/><path d="M275.977 275.918a123.63 123.63 0 0 0-35.871-80.086 123.62 123.62 0 0 0-80.117-35.84c1.762 30.184 14.523 58.676 35.875 80.086a123.64 123.64 0 0 0 80.113 35.84zm0 0" fill="rgb(100%,21.568628%,21.568628%)"/><path d="M202.46 318.37c13.566-27.023 16.758-58.078 8.977-87.293a123.64 123.64 0 0 0-51.465-71.098C146.4 187.004 143.215 218.06 151 247.273a123.62 123.62 0 0 0 51.461 71.098zm0 0" class="B"/><path d="M161.63 160.434a1.69 1.69 0 1 1-3.266-.875 1.69 1.69 0 1 1 3.266.875zm0 0" fill="rgb(60.784316%,60.784316%,60.784316%)"/><path d="M117.68 318.4c25.258-16.617 43.547-41.918 51.418-71.11a123.65 123.65 0 0 0-9.02-87.305c-25.258 16.62-43.55 41.918-51.418 71.11a123.61 123.61 0 0 0 9.02 87.305zm0 0" class="C"/><path d="M44.12 275.977a123.62 123.62 0 0 0 80.082-35.871c21.344-21.426 34.094-49.926 35.844-80.117-30.184 1.762-58.676 14.523-80.086 35.875a123.62 123.62 0 0 0-35.84 80.113zm0 0" fill="rgb(100%,96.862745%,0.392157%)"/><path d="M1.668 202.46c27.02 13.566 58.074 16.758 87.29 8.973 29.2-7.88 54.492-26.187 71.098-51.46-27.02-13.566-58.074-16.758-87.29-8.973-29.195 7.88-54.492 26.188-71.098 51.46zm0 0" class="C"/><path d="M1.617 117.613a123.6 123.6 0 0 0 71.109 51.418 123.62 123.62 0 0 0 87.301-9.016 123.62 123.62 0 0 0-71.109-51.418 123.62 123.62 0 0 0-87.301 9.016zm0 0" class="D"/><path d="M44.047 44.06a123.64 123.64 0 0 0 35.875 80.082 123.62 123.62 0 0 0 80.117 35.84 123.65 123.65 0 0 0-35.875-80.082 123.62 123.62 0 0 0-80.117-35.84zm0 0" fill="rgb(0.392157%,27.450982%,100%)"/><path d="M117.566 1.605C104 28.625 100.81 59.68 108.6 88.895a123.63 123.63 0 0 0 51.465 71.098c13.563-27.02 16.758-58.074 8.973-87.29a123.64 123.64 0 0 0-51.461-71.098zm0 0" class="D"/><path d="M202.348 1.566a123.62 123.62 0 0 0-51.418 71.109c-7.773 29.223-4.562 60.28 9.02 87.3a123.62 123.62 0 0 0 51.418-71.109 123.62 123.62 0 0 0-9.02-87.301zm0 0" class="E"/><path d="M275.906 43.996c-30.184 1.762-58.676 14.527-80.082 35.875-21.344 21.422-34.098 49.926-35.844 80.117.012-.004.023-.004.03-.004-.004-.008-.008-.016-.016-.023 14.984-7.492 31.332-11.863 48.055-12.844 11.832-5.906 22.64-13.672 32.016-23.004a123.62 123.62 0 0 0 35.84-80.117zm0 0" fill="rgb(0%,100%,0%)"/><path d="M295.3 108.695c-21.023-5.71-43.184-5.766-64.234-.156A123.64 123.64 0 0 0 160 159.961a123.62 123.62 0 0 1 87.301-9.02c8.086 2.215 15.922 5.25 23.395 9.05 19.332-9.742 35.77-24.39 47.664-42.477-7.37-3.703-15.098-6.656-23.06-8.82zM159.996 159.96c-.008.012-.016.027-.027.043.03.012.06.023.086.035-.02-.027-.04-.05-.06-.078zm0 0" class="E"/></svg>