<svg xmlns="http://www.w3.org/2000/svg" xmlns:xlink="http://www.w3.org/1999/xlink" width="128" height="128"><style><![CDATA[.B{opacity:.645}.C{color-interpolation-filters:sRGB}.D{fill:#3f5e8d}.E{fill-opacity:.797}]]></style><defs><linearGradient id="A" xlink:href="#k"><stop offset="0" stop-color="#1b2533"/><stop offset="1" stop-color="#1b2533" stop-opacity="0"/></linearGradient><linearGradient xlink:href="#C" id="B" x1="179.293" y1="-50.328" x2="184.626" y2="-50.328"/><linearGradient id="C" x1="94.344" y1="102.345" x2="86.536" y2="94.537" xlink:href="#k"><stop offset="0" stop-color="#5c5c5c"/><stop offset=".314" stop-color="#eff0ef"/><stop offset=".729" stop-color="#aaaba9"/><stop offset="1" stop-color="#535551"/></linearGradient><linearGradient xlink:href="#C" id="D" x1="176.627" y1="-34.329" x2="187.293" y2="-34.329"/><radialGradient xlink:href="#C" id="E" gradientTransform="matrix(2.0000008,0,0,2.000001,-146.66311,-117.3337)" cx="146.663" cy="120" fx="146.663" fy="120" r="5.333"/><linearGradient id="F" x1="177.08" y1="-52.542" x2="188.722" y2="-9.09" xlink:href="#k"><stop offset="0" stop-color="#fff"/><stop offset="1" stop-color="#fff" stop-opacity="0"/></linearGradient><radialGradient id="G" cx="87.5" cy="35.875" fx="89.842" fy="49.578" r="19.872" gradientTransform="matrix(0.99150354,-0.13044703,0.1304408,0.9914561,-3.9361233,11.720628)" xlink:href="#k"><stop offset="0" stop-color="#d3fcff" stop-opacity="0"/><stop offset=".553" stop-color="#baf5fc" stop-opacity=".247"/><stop offset=".756" stop-color="#83b5eb" stop-opacity=".498"/><stop offset="1" stop-color="#537fc6" stop-opacity=".784"/></radialGradient><radialGradient id="H" cx="177.13" cy="42.658" fx="177.13" fy="42.658" r="32.513" gradientTransform="matrix(1.7311303,0.19371147,-0.19380456,1.7319623,-121.23783,-65.55117)" xlink:href="#k"><stop offset="0"/><stop offset="1" stop-opacity="0"/></radialGradient><filter id="I" class="C"><feGaussianBlur stdDeviation=".668"/></filter><radialGradient xlink:href="#K" id="J" gradientTransform="matrix(1,0,0,1.0004806,0,-0.03587834)" cx="199.997" cy="96.869" fx="199.997" fy="96.869" r="32.513"/><linearGradient id="K" xlink:href="#k"><stop offset="0" stop-color="#fff"/><stop offset="1" stop-color="#fff" stop-opacity="0"/></linearGradient><filter id="L" class="C"><feGaussianBlur stdDeviation="2.089"/></filter><linearGradient id="M" x1="165.648" y1="33.308" x2="198.182" y2="89.659" xlink:href="#k"><stop offset="0" stop-color="#fff"/><stop offset="1" stop-color="#555753"/></linearGradient><radialGradient xlink:href="#K" id="N" gradientTransform="matrix(1,0,0,1.0004806,0,-0.03587834)" cx="177.13" cy="42.658" fx="177.13" fy="42.658" r="32.513"/><linearGradient id="O" spreadMethod="reflect" x1="183.601" y1="77.034" x2="205.328" y2="114.667" xlink:href="#k"><stop offset="0" stop-color="#fff"/><stop offset=".2" stop-color="#fff" stop-opacity="0"/><stop offset="1" stop-color="#fff" stop-opacity="0"/></linearGradient><filter id="P" class="C"><feGaussianBlur stdDeviation=".192"/></filter><filter id="Q" class="C"><feGaussianBlur stdDeviation=".155"/></filter><linearGradient xlink:href="#K" id="R" x1="57.709" y1="7.762" x2="57.497" y2="49.791"/><radialGradient xlink:href="#T" id="S" cx="71.998" cy="40.002" fx="71.998" fy="40.002" r="5.333"/><linearGradient id="T" xlink:href="#k"><stop offset="0" stop-color="#fff"/><stop offset="1" stop-color="#fff" stop-opacity="0"/></linearGradient><radialGradient xlink:href="#T" id="U" cx="71.998" cy="40.002" fx="71.998" fy="40.002" r="5.333"/><linearGradient xlink:href="#A" id="V" x1="60.922" y1="24.003" x2="60.922" y2="26.669"/><linearGradient xlink:href="#A" id="W" x1="60.922" y1="24.003" x2="60.922" y2="29.336"/><linearGradient xlink:href="#A" id="X" x1="32.208" y1="55.999" x2="32.208" y2="58.665"/><linearGradient xlink:href="#A" id="Y" x1="32.208" y1="-63.998" x2="32.208" y2="-61.332"/><linearGradient xlink:href="#A" id="Z" x1="53.54" y1="55.999" x2="53.54" y2="58.665"/><linearGradient xlink:href="#A" id="a" x1="53.54" y1="-63.998" x2="53.54" y2="-61.332"/><linearGradient xlink:href="#A" id="b" x1="-40.412" y1="-77.331" x2="-40.412" y2="-74.665"/><linearGradient xlink:href="#A" id="c" x1="-40.412" y1="-77.331" x2="-40.412" y2="-71.998"/><linearGradient xlink:href="#A" id="d" x1="-40.412" y1="42.666" x2="-40.412" y2="47.999"/><linearGradient xlink:href="#A" id="e" x1="-40.412" y1="42.666" x2="-40.412" y2="45.332"/><linearGradient xlink:href="#A" id="f" x1="68.265" y1="37.336" x2="68.265" y2="40.002"/><linearGradient xlink:href="#A" id="g" x1="63.998" y1="37.336" x2="63.998" y2="42.669"/><linearGradient xlink:href="#A" id="h" x1="-55.999" y1="37.336" x2="-55.999" y2="42.669"/><linearGradient xlink:href="#A" id="i" x1="-51.732" y1="37.336" x2="-51.732" y2="40.002"/><path id="j" d="M77.33 40.002c0 2.945-2.388 5.333-5.333 5.333s-5.333-2.388-5.333-5.333 2.388-5.333 5.333-5.333 5.333 2.388 5.333 5.333z"/><linearGradient id="k" gradientUnits="userSpaceOnUse"/></defs><g transform="translate(8.776)"><g transform="matrix(.344262 -1.287016 1.295376 .344597 -107.78037 253.50492)"><g transform="matrix(.707107 .707107 -.707107 .707107 0 0)"><path d="M179.293-54.245h5.333v6.583h-5.333z" opacity=".97" fill="url(#B)"/><path d="M176.627-47.662h10.666v32h-10.666z" fill="url(#D)"/></g><path d="M157.33 122.667c0 2.945-2.388 5.333-5.333 5.333s-5.333-2.388-5.333-5.333h5.333z" transform="matrix(.707107 .707107 -.707107 .707107 119.10097 -76.725959)" fill="url(#E)"/><path transform="matrix(.707107 .707107 -.707107 .707107 0 0)" d="M179.293-47.662h2.667v32h-2.667z" opacity=".97" fill="url(#F)"/></g><path transform="matrix(1.579027 .239235 -.239235 1.579027 -79.561954 -35.53228)" d="M107.372 35.875c0 10.975-8.897 19.872-19.872 19.872S67.628 46.85 67.628 35.875 76.525 16.003 87.5 16.003s19.872 8.897 19.872 19.872z" fill="url(#G)"/><g transform="matrix(1.065904 .161493 -.161493 1.065904 -131.23625 -66.830742)"><path d="M181.344 43.188c-17.39 0-31.47 14.08-31.47 31.47s14.08 31.47 31.47 31.47 31.438-14.08 31.438-31.47-14.048-31.47-31.437-31.47zm0 1.625c16.483 0 29.844 13.36 29.844 29.844s-13.36 29.875-29.844 29.875S151.47 91.14 151.47 74.656s13.392-29.844 29.875-29.844z" transform="matrix(.916177 0 0 .916177 15.199521 6.258093)" fill="url(#H)" filter="url(#I)"/><path transform="matrix(.817127 0 0 .817127 33.160106 13.652997)" d="M181.344 42.094c-17.975 0-32.562 14.588-32.562 32.563s14.588 32.563 32.563 32.563 32.53-14.588 32.53-32.562-14.556-32.562-32.53-32.562zm0 3.813c15.898 0 28.75 12.852 28.75 28.75s-12.853 28.78-28.75 28.78-28.78-12.884-28.78-28.78 12.883-28.75 28.78-28.75z" opacity=".54" fill="url(#J)" filter="url(#L)"/><path d="M181.344 42.094c-17.977 0-32.562 14.585-32.562 32.563s14.585 32.563 32.563 32.563 32.53-14.586 32.53-32.562-14.554-32.562-32.53-32.562zm0 3.813c15.896 0 28.75 12.854 28.75 28.75s-12.855 28.78-28.75 28.78-28.78-12.886-28.78-28.78 12.885-28.75 28.78-28.75z" fill="url(#M)"/><path transform="matrix(1.031705 0 0 1.031705 -5.749097 -2.367073)" d="M181.344 43.375c-17.283 0-31.28 13.998-31.28 31.28s13.998 31.28 31.28 31.28 31.25-13.997 31.25-31.28-13.967-31.28-31.25-31.28zm0 1.25c16.59 0 30.03 13.442 30.03 30.03s-13.44 30.063-30.03 30.063-30.062-13.473-30.062-30.062 13.474-30.03 30.063-30.03z" opacity=".52" fill="url(#N)"/><path d="M181.344 42.97c-17.497 0-31.687 14.2-31.687 31.688s14.2 31.688 31.688 31.688S213 92.154 213 74.656 198.84 42.97 181.344 42.97zm0 2.063c16.375 0 29.625 13.25 29.625 29.625s-13.25 29.656-29.625 29.656-29.656-13.28-29.656-29.656 13.28-29.625 29.656-29.625z" fill="url(#O)" filter="url(#P)"/><path d="M181.344 43.72c-17.092 0-30.937 13.845-30.937 30.938s13.845 30.938 30.938 30.938S212.25 91.75 212.25 74.656 198.436 43.72 181.344 43.72zm0 .563c16.78 0 30.375 13.596 30.375 30.375s-13.594 30.406-30.375 30.406-30.406-13.626-30.406-30.406 13.627-30.375 30.406-30.375z" transform="matrix(.953529 0 0 .953529 8.426593 3.469478)" fill="url(#J)" filter="url(#Q)"/></g><path d="M50.406 12.544c-13.076-.066-27.05 10.525-27.095 19.35-.032 6.417 14.44 9.444 25.814 9.502 9.96.05 28.59-1.824 28.62-7.782.048-9.606-14.787-21.005-27.34-21.068z" fill="url(#R)"/><use xlink:href="#j" transform="matrix(1.5 0 0 1.5 -35.999099 -22.667702)" opacity=".525" fill="url(#S)"/><use xlink:href="#j" transform="translate(-46.585 15.469)" opacity=".525" fill="url(#U)"/></g><g opacity=".497" fill="azure"><path d="M42.666 45.335H77.33v2.667H42.666z" opacity=".818"/><path d="M42.666 37.336H40v10.666h2.667zm37.332 0H77.33v10.666h2.667z" opacity=".463"/></g><path d="M42.666 37.336H77.33v8H42.666z" class="B D E"/><path d="M42.666 37.336H56v5.333H42.666z" fill="url(#g)" class="B"/><path d="M42.666 37.336h14.84v2.667h-14.84z" fill="url(#f)" class="B"/><g transform="rotate(270)"><path d="M-45.335 42.666h8v2.667h-8z" fill="url(#e)" class="B"/><path d="M-45.335 42.666h8V48h-8z" fill="url(#d)" class="B"/></g><g transform="matrix(0 -1 -1 0 0 0)"><path d="M-45.335-77.33h8v5.333h-8z" fill="url(#c)" class="B"/><path d="M-45.335-77.33h8v2.667h-8z" fill="url(#b)" class="B"/></g><path d="M63.998 37.336V24.003h-8v13.333z" class="B D E"/><path transform="matrix(0 1 1 0 0 0)" d="M24.003 56h13.333v2.667H24.003z" fill="url(#X)" class="B"/><path d="M56 24.003h8v5.333h-8z" fill="url(#W)" class="B"/><path d="M56 24.003h8v2.667h-8z" fill="url(#V)" class="B"/><path d="M63.998 58.668V45.335h-8v13.333z" class="B D E"/><path transform="matrix(0 1 -1 0 0 0)" d="M24.003-63.998h13.333v2.667H24.003z" fill="url(#Y)" class="B"/><path transform="matrix(0 1 1 0 0 0)" d="M45.335 56h13.333v2.667H45.335z" fill="url(#Z)" class="B"/><path transform="matrix(0 1 -1 0 0 0)" d="M45.335-63.998h13.333v2.667H45.335z" fill="url(#a)" class="B"/><g transform="scale(-1 1)"><path d="M-77.33 37.336h13.333v5.333H-77.33z" fill="url(#h)" class="B"/><path d="M-77.33 37.336h14.84v2.667h-14.84z" fill="url(#i)" class="B"/></g><path d="M56 58.668h8v2.667h-8z" opacity=".79" fill="azure"/></svg>