<svg xmlns="http://www.w3.org/2000/svg" xmlns:xlink="http://www.w3.org/1999/xlink" width="320" height="320"><defs><symbol overflow="visible" id="A"><path d="M19.188-33.687v-5.11c0-4.738.992-8.72 2.984-11.937 1.988-3.227 5.398-6.598 10.234-10.11 4.258-3.03 7.313-5.656 9.156-7.875 1.852-2.227 2.78-4.86 2.78-7.89S43.227-81.937 41-83.5c-2.22-1.57-5.32-2.36-9.297-2.36A38.62 38.62 0 0 0 19.906-84c-3.887 1.23-7.87 2.887-11.953 4.97L.422-94.234c4.645-2.562 9.664-4.645 15.063-6.25 5.406-1.613 11.332-2.422 17.78-2.422 9.852 0 17.504 2.37 22.953 7.11 5.445 4.73 8.172 10.746 8.172 18.047 0 3.887-.62 7.25-1.86 10.094-1.23 2.844-3.078 5.477-5.547 7.89-2.46 2.418-5.53 4.996-9.22 7.734-2.75 2-4.887 3.71-6.406 5.125-1.512 1.418-2.527 2.793-3.047 4.125-.523 1.324-.78 2.98-.78 4.97v4.125zM16.922-9.953c0-4.352 1.18-7.406 3.547-9.156 2.363-1.758 5.254-2.64 8.672-2.64 3.313 0 6.148.883 8.516 2.64 2.375 1.75 3.563 4.805 3.563 9.156 0 4.168-1.187 7.18-3.562 9.03C35.29.922 32.453 1.844 29.14 1.844c-3.418 0-6.31-.922-8.672-2.766-2.367-1.852-3.547-4.863-3.547-9.03zm0 0" stroke="none"/></symbol></defs><path d="M36 0h248c19.883 0 36 16.117 36 36v248c0 19.883-16.117 36-36 36H36c-19.883 0-36-16.117-36-36V36C0 16.117 16.117 0 36 0zm0 0" fill="rgb(10.196079%,10.196079%,10.196079%)"/><g fill="rgb(60.000002%,60.000002%,60.000002%)"><path d="M118 18.262c-25.805 0-51.914 10.418-71.6 30.14-39.348 39.44-39.348 103.105 0 142.547 31.152 31.227 77.363 37.68 114.918 19.47.988-.48 2.164-1.37 3.14-1.887 6.094-2.4 21.414-6.86 29.512 1.258 6.008 6.02 4 14.023 13.188 23.234l61.543 61.54c.063-.062 11.852 12.04 23.86 0 12.06-12.086.176-24.27 0-24.488l-60.9-61.543c-9.187-9.207-16.602-7.164-22.605-13.187-9.902-9.926-.594-30.13 0-31.395 18.168-37.645 11.684-84.32-19.47-115.547C169.9 28.68 143.805 18.262 118 18.262zm0 25.746c41.734 0 75.355 34.148 75.355 75.98s-33.62 75.355-75.355 75.355-75.355-33.52-75.355-75.355S76.262 44.008 118 44.008zm0 0"/><use xlink:href="#A" x="84.863" y="170.67"/></g></svg>