<svg width="128" height="128" xmlns="http://www.w3.org/2000/svg" xmlns:xlink="http://www.w3.org/1999/xlink"><style><![CDATA[.B{opacity:.645}.C{color-interpolation-filters:sRGB}.D{fill:#3f5e8d}.E{fill-opacity:.797}]]></style><defs><linearGradient id="A" xlink:href="#k"><stop stop-color="#1b2533" offset="0"/><stop stop-color="#1b2533" stop-opacity="0" offset="1"/></linearGradient><linearGradient id="B" x1="179.29" x2="184.63" y1="-50.328" y2="-50.328" xlink:href="#C"/><linearGradient id="C" x1="94.344" x2="86.536" y1="102.34" y2="94.537" xlink:href="#k"><stop stop-color="#5c5c5c" offset="0"/><stop stop-color="#eff0ef" offset=".314"/><stop stop-color="#aaaba9" offset=".729"/><stop stop-color="#535551" offset="1"/></linearGradient><linearGradient id="D" x1="176.63" x2="187.29" y1="-34.329" y2="-34.329" xlink:href="#C"/><radialGradient id="E" cx="146.66" cy="120" r="5.333" gradientTransform="matrix(2 0 0 2 -146.66 -117.33)" xlink:href="#C"/><linearGradient id="F" x1="177.08" x2="188.72" y1="-52.542" y2="-9.09" xlink:href="#k"><stop stop-color="#fff" offset="0"/><stop stop-color="#fff" stop-opacity="0" offset="1"/></linearGradient><radialGradient id="G" cx="87.5" cy="35.875" r="19.872" fx="89.842" fy="49.578" gradientTransform="matrix(.9915 -.13045 .13044 .99146 -3.9361 11.721)" xlink:href="#k"><stop stop-color="#d3fcff" stop-opacity="0" offset="0"/><stop stop-color="#baf5fc" stop-opacity=".247" offset=".553"/><stop stop-color="#83b5eb" stop-opacity=".498" offset=".756"/><stop stop-color="#537fc6" stop-opacity=".784" offset="1"/></radialGradient><radialGradient id="H" cx="177.13" cy="42.658" r="32.513" gradientTransform="matrix(1.7311 .19371 -.1938 1.732 -121.24 -65.551)" xlink:href="#k"><stop offset="0"/><stop stop-opacity="0" offset="1"/></radialGradient><filter id="I" class="C"><feGaussianBlur stdDeviation=".668"/></filter><radialGradient id="J" cx="200" cy="96.869" r="32.513" gradientTransform="matrix(1 0 0 1.0005 0 -.035878)" xlink:href="#K"/><linearGradient id="K" xlink:href="#k"><stop stop-color="#fff" offset="0"/><stop stop-color="#fff" stop-opacity="0" offset="1"/></linearGradient><filter id="L" class="C"><feGaussianBlur stdDeviation="2.089"/></filter><linearGradient id="M" x1="165.65" x2="198.18" y1="33.308" y2="89.659" xlink:href="#k"><stop stop-color="#fff" offset="0"/><stop stop-color="#555753" offset="1"/></linearGradient><radialGradient id="N" cx="177.13" cy="42.658" r="32.513" gradientTransform="matrix(1 0 0 1.0005 0 -.035878)" xlink:href="#K"/><linearGradient id="O" x1="183.6" x2="205.33" y1="77.034" y2="114.67" spreadMethod="reflect" xlink:href="#k"><stop stop-color="#fff" offset="0"/><stop stop-color="#fff" stop-opacity="0" offset=".2"/><stop stop-color="#fff" stop-opacity="0" offset="1"/></linearGradient><filter id="P" class="C"><feGaussianBlur stdDeviation=".192"/></filter><filter id="Q" class="C"><feGaussianBlur stdDeviation=".155"/></filter><linearGradient id="R" x1="57.709" x2="57.497" y1="7.762" y2="49.791" xlink:href="#K"/><radialGradient id="S" cx="71.998" cy="40.002" r="5.333" xlink:href="#K"/><linearGradient id="V" x1="60.922" x2="60.922" y1="24.003" y2="26.669" xlink:href="#A"/><linearGradient id="W" x1="60.922" x2="60.922" y1="24.003" y2="29.336" xlink:href="#A"/><linearGradient id="X" x1="32.208" x2="32.208" y1="55.999" y2="58.665" xlink:href="#A"/><linearGradient id="Y" x1="32.208" x2="32.208" y1="-63.998" y2="-61.332" xlink:href="#A"/><linearGradient id="Z" x1="53.54" x2="53.54" y1="55.999" y2="58.665" xlink:href="#A"/><linearGradient id="a" x1="53.54" x2="53.54" y1="-63.998" y2="-61.332" xlink:href="#A"/><linearGradient id="b" x1="-40.412" x2="-40.412" y1="-77.331" y2="-74.665" xlink:href="#A"/><linearGradient id="c" x1="-40.412" x2="-40.412" y1="-77.331" y2="-71.998" xlink:href="#A"/><linearGradient id="d" x1="-40.412" x2="-40.412" y1="42.666" y2="47.999" xlink:href="#A"/><linearGradient id="e" x1="-40.412" x2="-40.412" y1="42.666" y2="45.332" xlink:href="#A"/><linearGradient id="f" x1="68.265" x2="68.265" y1="37.336" y2="40.002" xlink:href="#A"/><linearGradient id="g" x1="63.998" x2="63.998" y1="37.336" y2="42.669" xlink:href="#A"/><linearGradient id="h" x1="-55.999" x2="-55.999" y1="37.336" y2="42.669" xlink:href="#A"/><linearGradient id="i" x1="-51.732" x2="-51.732" y1="37.336" y2="40.002" xlink:href="#A"/><path id="j" d="m77.33 40.002c0 2.945-2.388 5.333-5.333 5.333s-5.333-2.388-5.333-5.333 2.388-5.333 5.333-5.333 5.333 2.388 5.333 5.333z"/><linearGradient id="k" gradientUnits="userSpaceOnUse"/></defs><g transform="translate(8.776)"><g transform="matrix(.34426 -1.287 1.2954 .3446 -107.78 253.5)"><g transform="matrix(.70711 .70711 -.70711 .70711 0 0)"><path d="m179.29-54.245h5.333v6.583h-5.333z" fill="url(#B)" opacity=".97"/><path d="m176.63-47.662h10.666v32h-10.666z" fill="url(#D)"/></g><path transform="matrix(.70711 .70711 -.70711 .70711 119.1 -76.726)" d="m157.33 122.67c0 2.945-2.388 5.333-5.333 5.333s-5.333-2.388-5.333-5.333h5.333z" fill="url(#E)"/><path transform="matrix(.70711 .70711 -.70711 .70711 0 0)" d="m179.29-47.662h2.667v32h-2.667z" fill="url(#F)" opacity=".97"/></g><path transform="matrix(1.579 .23924 -.23924 1.579 -79.562 -35.532)" d="M107.372 35.875c0 10.975-8.897 19.872-19.872 19.872S67.628 46.85 67.628 35.875 76.525 16.003 87.5 16.003s19.872 8.897 19.872 19.872z" fill="url(#G)"/><g transform="matrix(1.0659 .16149 -.16149 1.0659 -131.24 -66.831)"><path transform="matrix(.91618 0 0 .91618 15.2 6.2581)" d="m181.34 43.188c-17.39 0-31.47 14.08-31.47 31.47s14.08 31.47 31.47 31.47 31.438-14.08 31.438-31.47-14.048-31.47-31.437-31.47zm0 1.625c16.483 0 29.844 13.36 29.844 29.844s-13.36 29.875-29.844 29.875-29.874-13.392-29.874-29.876 13.392-29.844 29.875-29.844z" fill="url(#H)" filter="url(#I)"/><path transform="matrix(.81713 0 0 .81713 33.16 13.653)" d="m181.34 42.094c-17.975 0-32.562 14.588-32.562 32.563s14.588 32.563 32.563 32.563 32.53-14.588 32.53-32.562-14.556-32.562-32.53-32.562zm0 3.813c15.898 0 28.75 12.852 28.75 28.75s-12.853 28.78-28.75 28.78-28.78-12.884-28.78-28.78 12.883-28.75 28.78-28.75z" fill="url(#J)" filter="url(#L)" opacity=".54"/><path d="m181.34 42.094c-17.977 0-32.562 14.585-32.562 32.563s14.585 32.563 32.563 32.563 32.53-14.586 32.53-32.562-14.554-32.562-32.53-32.562zm0 3.813c15.896 0 28.75 12.854 28.75 28.75s-12.855 28.78-28.75 28.78-28.78-12.886-28.78-28.78 12.885-28.75 28.78-28.75z" fill="url(#M)"/><path transform="matrix(1.0317 0 0 1.0317 -5.7491 -2.3671)" d="m181.34 43.375c-17.283 0-31.28 13.998-31.28 31.28s13.998 31.28 31.28 31.28 31.25-13.997 31.25-31.28-13.967-31.28-31.25-31.28zm0 1.25c16.59 0 30.03 13.442 30.03 30.03s-13.44 30.063-30.03 30.063-30.062-13.473-30.062-30.062 13.474-30.03 30.063-30.03z" fill="url(#N)" opacity=".52"/><path d="M181.344 42.97c-17.497 0-31.687 14.2-31.687 31.688s14.2 31.688 31.688 31.688S213 92.154 213 74.656 198.84 42.97 181.344 42.97zm0 2.063c16.375 0 29.625 13.25 29.625 29.625s-13.25 29.656-29.625 29.656-29.656-13.28-29.656-29.656 13.28-29.625 29.656-29.625z" fill="url(#O)" filter="url(#P)"/><path transform="matrix(.95353 0 0 .95353 8.4266 3.4695)" d="m181.34 43.72c-17.092 0-30.937 13.845-30.937 30.938s13.845 30.938 30.938 30.938 30.905-13.846 30.905-30.94-13.814-30.936-30.906-30.936zm0 0.563c16.78 0 30.375 13.596 30.375 30.375s-13.594 30.406-30.375 30.406-30.406-13.626-30.406-30.406 13.627-30.375 30.406-30.375z" fill="url(#J)" filter="url(#Q)"/></g><path d="M50.406 12.544c-13.076-.066-27.05 10.525-27.095 19.35-.032 6.417 14.44 9.444 25.814 9.502 9.96.05 28.59-1.824 28.62-7.782.048-9.606-14.787-21.005-27.34-21.068z" fill="url(#R)"/><use transform="matrix(1.5 0 0 1.5 -35.999 -22.668)" fill="url(#S)" opacity=".525" xlink:href="#j"/><use transform="translate(-46.585 15.469)" fill="url(#S)" opacity=".525" xlink:href="#j"/></g><g fill="azure" opacity=".497"><path d="M42.666 45.335H77.33v2.667H42.666z" opacity=".818"/><path d="M42.666 37.336H40v10.666h2.667zm37.332 0H77.33v10.666h2.667z" opacity=".463"/></g><path class="B D E" d="M42.666 37.336H77.33v8H42.666z"/><path class="B" d="M42.666 37.336H56v5.333H42.666z" fill="url(#g)"/><path class="B" d="m42.666 37.336h14.84v2.667h-14.84z" fill="url(#f)"/><g transform="rotate(270)"><path class="B" d="m-45.335 42.666h8v2.667h-8z" fill="url(#e)"/><path class="B" d="M-45.335 42.666h8V48h-8z" fill="url(#d)"/></g><g transform="matrix(0 -1 -1 0 0 0)"><path class="B" d="m-45.335-77.33h8v5.333h-8z" fill="url(#c)"/><path class="B" d="m-45.335-77.33h8v2.667h-8z" fill="url(#b)"/></g><path class="B D E" d="M63.998 37.336V24.003h-8v13.333z"/><path class="B" transform="matrix(0 1 1 0 0 0)" d="M24.003 56h13.333v2.667H24.003z" fill="url(#X)"/><path class="B" d="m56 24.003h8v5.333h-8z" fill="url(#W)"/><path class="B" d="m56 24.003h8v2.667h-8z" fill="url(#V)"/><path class="B D E" d="M63.998 58.668V45.335h-8v13.333z"/><path class="B" transform="rotate(90)" d="M24.003-63.998h13.333v2.667H24.003z" fill="url(#Y)"/><path class="B" transform="matrix(0 1 1 0 0 0)" d="M45.335 56h13.333v2.667H45.335z" fill="url(#Z)"/><path class="B" transform="rotate(90)" d="M45.335-63.998h13.333v2.667H45.335z" fill="url(#a)"/><g transform="scale(-1 1)"><path class="B" d="M-77.33 37.336h13.333v5.333H-77.33z" fill="url(#h)"/><path class="B" d="m-77.33 37.336h14.84v2.667h-14.84z" fill="url(#i)"/></g><path d="m56 58.668h8v2.667h-8z" fill="azure" opacity=".79"/></svg>
