<!-- Created with Inkscape (http://www.inkscape.org/) -->
<svg id="svg2" width="320" height="320" version="1.1" xmlns="http://www.w3.org/2000/svg" xmlns:cc="http://creativecommons.org/ns#" xmlns:dc="http://purl.org/dc/elements/1.1/" xmlns:rdf="http://www.w3.org/1999/02/22-rdf-syntax-ns#"><metadata id="metadata7"><rdf:RDF><cc:Work rdf:about=""><dc:format>image/svg+xml</dc:format><dc:type rdf:resource="http://purl.org/dc/dcmitype/StillImage"/><dc:title/></cc:Work></rdf:RDF></metadata><path id="rectangle" style="fill:#000000;" d="m21.5 0c-11.819 0-21.5 9.6813-21.5 21.5v277c0 11.819 9.6813 21.5 21.5 21.5h277c11.819 0 21.5-9.6813 21.5-21.5v-277c0-11.819-9.6813-21.5-21.5-21.5zm138.5 48c61.856 0 112 50.144 112 112s-50.144 112-112 112-112-50.144-112-112 50.144-112 112-112z"/><path id="check" style="fill:#000000;" d="m256 160a96 96 0 0 1-96 96 96 96 0 0 1-96-96 96 96 0 0 1 96-96 96 96 0 0 1 96 96z"/></svg>
