<svg xmlns="http://www.w3.org/2000/svg" viewBox="0 0 511.943 511.943"><path d="M423.972 287.943c0 92.634-75.362 168-168 168s-168-75.366-168-168 75.362-168 168-168 168 75.367 168 168z" fill="#ffebb7"/><path d="M383.972 287.943c0 70.578-57.42 128-128 128s-128-57.422-128-128 57.42-128 128-128 128 57.422 128 128z" fill="#fff"/><path d="M345.83 113.37c2.883 0 5.664-1.56 7.094-4.28l16.414-31.29a8 8 0 0 0-3.367-10.801c-3.93-2.055-8.75-.54-10.805 3.37l-16.414 31.285a8 8 0 0 0 3.367 10.801c1.188.62 2.46.914 3.71.914z" fill="#5d647f"/><path d="M296.666 39.667c19-36.18 63.867-50.187 100.062-31.184 17.523 9.195 30.422 24.672 36.312 43.57s4.07 38.96-5.125 56.488c-1.43 2.727-4.21 4.28-7.094 4.28a7.95 7.95 0 0 1-3.711-.918L300.034 50.468a8.01 8.01 0 0 1-3.922-4.703 8.04 8.04 0 0 1 .554-6.098z" fill="#b4b6bc"/><path d="M396.7 8.466c.013.007.026.01.04.018 17.523 9.195 30.422 24.672 36.312 43.57s4.07 38.96-5.125 56.488c-1.43 2.727-4.21 4.28-7.094 4.28a7.95 7.95 0 0 1-3.711-.918l-58.575-30.738 38.154-72.7z" fill="#868491"/><path d="M165.894 113.37c-2.883 0-5.664-1.56-7.094-4.28l-16.414-31.3a8 8 0 0 1 3.367-10.801c3.93-2.055 8.75-.54 10.805 3.37l16.414 31.285a8 8 0 0 1-3.367 10.801c-1.188.62-2.46.914-3.7.914zm-37.93 398.573a7.98 7.98 0 0 1-4.07-1.117 8 8 0 0 1-2.805-10.961l23.703-40a8.01 8.01 0 0 1 10.961-2.805 8 8 0 0 1 2.805 10.961l-23.703 40c-1.493 2.524-4.157 3.922-6.9 3.922zm256.016 0c-2.734 0-5.398-1.398-6.9-3.922l-24-40.5a8 8 0 0 1 2.805-10.961c3.82-2.25 8.72-.996 10.96 2.805l24 40.5a8 8 0 0 1-2.805 10.961 7.97 7.97 0 0 1-4.07 1.117z" fill="#5d647f"/><path d="M255.972 79.943c-114.695 0-208 93.31-208 208s93.305 208 208 208 208-93.31 208-208-93.305-208-208-208zm160 208c0 88.223-71.773 160-160 160s-160-71.777-160-160 71.773-160 160-160 160 71.778 160 160z" fill="#60dc4d"/><path d="M255.753 447.932c-88.125-.12-159.78-71.84-159.78-159.99s71.656-159.87 159.78-159.99V79.95c-114.595.12-207.78 93.376-207.78 207.994s93.186 207.875 207.78 207.995v-48.006z" fill="#00c37a"/><path d="M151.972 295.943h-32a8 8 0 1 1 0-16h32a8 8 0 1 1 0 16zm240 0h-32a8 8 0 1 1 0-16h32a8 8 0 1 1 0 16zm-136 136a8 8 0 0 1-8-8v-32a8 8 0 0 1 16 0v32a8 8 0 0 1-8 8zm0-240a8 8 0 0 1-8-8v-32a8 8 0 1 1 16 0v32a8 8 0 0 1-8 8z" fill="#868491"/><path d="M215.058 39.667c-19-36.18-63.867-50.187-100.062-31.184-17.524 9.195-30.422 24.672-36.312 43.57s-4.07 38.96 5.125 56.488c1.43 2.727 4.21 4.28 7.094 4.28a7.95 7.95 0 0 0 3.711-.918L211.7 50.468a8.01 8.01 0 0 0 3.922-4.703 8.04 8.04 0 0 0-.554-6.098z" fill="#b4b6bc"/><path d="M231.972 295.943h-40a8 8 0 1 1 0-16h40a8 8 0 1 1 0 16zm24-16a8 8 0 0 1-8-8v-56a8 8 0 1 1 16 0v56a8 8 0 0 1-8 8z" fill="#5d647f"/><path d="M335.972 375.943a7.97 7.97 0 0 1-5.656-2.344l-80-80a8 8 0 0 1 11.313-11.312l80 80a8 8 0 0 1 0 11.313 7.98 7.98 0 0 1-5.657 2.343z" fill="#ff4f19"/><path d="M115.034 8.466c-.013.007-.026.01-.04.018-17.524 9.195-30.422 24.672-36.312 43.57s-4.07 38.96 5.125 56.488c1.43 2.727 4.21 4.28 7.094 4.28a7.95 7.95 0 0 0 3.711-.918l58.575-30.738-38.154-72.7z" fill="#868491"/><circle cx="255.972" cy="287.943" r="24" fill="#5c546a"/></svg>