<svg width="120" height="120" xmlns="http://www.w3.org/2000/svg" xmlns:xlink="http://www.w3.org/1999/xlink"><link href="" rel="stylesheet" type="text/css"/><defs><linearGradient id="A" xlink:href="#AU"><stop stop-color="#ff6134" offset="0"/><stop stop-color="red" offset="1"/></linearGradient><linearGradient id="B" xlink:href="#AU"><stop stop-color="#525252" offset="0"/><stop stop-color="#d9d9d9" offset="1"/></linearGradient><linearGradient id="C" xlink:href="#AU"><stop offset="0"/><stop stop-opacity="0" offset="1"/></linearGradient><linearGradient id="D" xlink:href="#AU"><stop stop-color="#fff" offset="0"/><stop stop-color="#fff" stop-opacity="0" offset="1"/></linearGradient><linearGradient id="E" xlink:href="#AU"><stop stop-color="#34abff" offset="0"/><stop stop-color="#0057ff" offset="1"/></linearGradient><radialGradient id="F" cx="457.14" cy="263.79" r="94.286" gradientTransform="matrix(.041415 -.0091969 .0091969 .041415 30.215 9.0653)" xlink:href="#D"/><radialGradient id="G" cx="457.14" cy="263.79" r="94.286" gradientTransform="matrix(.11833 -.026277 .026277 .11833 -9.451 -3.4161)" xlink:href="#D"/><radialGradient id="H" cx="480.13" cy="516.87" r="175.44" gradientTransform="matrix(.070161 -.04618 .065455 .099446 -19.028 23.518)" xlink:href="#D"/><radialGradient id="I" cx="480.13" cy="516.87" r="175.44" gradientTransform="matrix(.041814 -.027522 .03667 .055713 13.499 43.228)" xlink:href="#D"/><radialGradient id="J" cx="413.89" cy="440.37" r="359.54" gradientTransform="matrix(.096831 -.021503 .029652 .13353 .24902 -4.4661)" xlink:href="#AU"><stop stop-color="#00f1ff" stop-opacity="0" offset="0"/><stop stop-color="#00c9ff" stop-opacity="0" offset=".5"/><stop stop-color="#0065a6" stop-opacity="0" offset=".75"/><stop stop-color="#002454" offset="1"/></radialGradient><radialGradient id="K" cx="478.66" cy="290.04" r="372.49" gradientTransform="matrix(.096831 -.021503 .029652 .13353 .24902 -4.4661)" xlink:href="#AU"><stop stop-color="#00575f" stop-opacity="0" offset="0"/><stop stop-color="#0062ff" stop-opacity="0" offset=".5"/><stop stop-color="#002859" offset="1"/></radialGradient><radialGradient id="L" cx="462.46" cy="233.67" r="330.33" gradientTransform="matrix(.096831 -.021503 .029652 .13353 .24902 -4.4661)" xlink:href="#E"/><linearGradient id="M" x1="59.098" x2="58.263" y1="74.995" y2="79.733" xlink:href="#E"/><linearGradient id="N" x1="57.902" x2="58.15" y1="79.823" y2="78.633" xlink:href="#C"/><linearGradient id="O" x1="57.134" x2="59.436" y1="73.272" y2="79.818" xlink:href="#C"/><linearGradient id="P" x1="57.157" x2="59.256" y1="76.881" y2="77.151" xlink:href="#C"/><radialGradient id="Q" cx="378.57" cy="752.36" r="8.571" gradientTransform="matrix(.04687 -.017161 .034381 .093904 16.341 12.074)" xlink:href="#D"/><radialGradient id="R" cx="269.79" cy="1031.8" r="32.826" gradientTransform="matrix(.13309 -.020558 .010261 .047158 12.272 31.938)" xlink:href="#C"/><linearGradient id="S" x1="60.332" x2="60.772" y1="77.865" y2="109.3" xlink:href="#B"/><radialGradient id="T" cx="370.71" cy="771.55" r="27.48" gradientTransform="matrix(.10154 0 0 .098487 21.409 1.1006)" xlink:href="#B"/><linearGradient id="U" x1="56.246" x2="58.249" y1="77.15" y2="79.357" spreadMethod="reflect" xlink:href="#B"/><linearGradient id="V" x1="60.613" x2="58.278" y1="92.5" y2="92.567" spreadMethod="reflect" xlink:href="#B"/><linearGradient id="W" x1="59.058" x2="60.148" y1="75.308" y2="76.022" spreadMethod="reflect" xlink:href="#C"/><radialGradient id="X" cx="247.71" cy="1161.1" r="14.647" fy="1161.4" gradientTransform="matrix(.15804 0 0 .063275 21.409 1.7006)" xlink:href="#C"/><linearGradient id="Y" xlink:href="#AU"><stop stop-color="#ffff34" offset="0"/><stop stop-color="#ffc200" offset="1"/></linearGradient><radialGradient id="Z" cx="247.71" cy="1161.1" r="14.647" fy="1161.4" gradientTransform="matrix(.15726 -.015705 .0062879 .062962 3.2277 12.241)" xlink:href="#C"/><linearGradient id="a" x1="52.346" x2="51.919" y1="81.019" y2="86.232" spreadMethod="reflect" xlink:href="#B"/><linearGradient id="b" x1="48.005" x2="49.16" y1="81.743" y2="82.345" spreadMethod="reflect" xlink:href="#C"/><linearGradient id="c" x1="53.073" x2="55.423" y1="98.34" y2="97.717" spreadMethod="reflect" xlink:href="#B"/><radialGradient id="d" cx="370.71" cy="771.55" r="27.48" gradientTransform="matrix(.10103 -.01009 .0097869 .097999 3.1681 11.644)" xlink:href="#B"/><radialGradient id="e" cx="378.57" cy="752.36" r="8.571" gradientTransform="matrix(.044933 -.021733 .043543 .090022 -.78478 23.067)" xlink:href="#D"/><linearGradient id="f" x1="48.27" x2="50.385" y1="83.338" y2="83.716" xlink:href="#C"/><linearGradient id="g" x1="48.066" x2="50.652" y1="80.288" y2="85.812" xlink:href="#C"/><linearGradient id="h" x1="49.303" x2="49.432" y1="86.35" y2="85.141" xlink:href="#C"/><linearGradient id="i" x1="50.013" x2="49.653" y1="81.428" y2="86.225" xlink:href="#A"/><radialGradient id="j" cx="269.79" cy="1031.8" r="32.826" gradientTransform="matrix(.13039 -.033682 .014896 .045905 -.85885 43.237)" xlink:href="#C"/><radialGradient id="k" cx="413.89" cy="440.37" r="359.54" gradientTransform="matrix(.094214 -.031018 .042774 .12992 -16.44 8.2076)" xlink:href="#AU"><stop stop-color="red" stop-opacity="0" offset="0"/><stop stop-color="red" stop-opacity="0" offset=".5"/><stop stop-color="#a60000" stop-opacity="0" offset=".75"/><stop stop-color="#540000" offset="1"/></radialGradient><radialGradient id="l" cx="480.13" cy="516.87" r="175.44" gradientTransform="matrix(.038873 -.031541 .042025 .051793 1.484 54.349)" xlink:href="#D"/><radialGradient id="m" cx="480.13" cy="516.87" r="175.44" gradientTransform="matrix(.065225 -.052924 .075014 .092449 -32.841 37.969)" xlink:href="#D"/><radialGradient id="n" cx="457.14" cy="263.79" r="94.286" gradientTransform="matrix(.11513 -.037905 .037905 .11513 -25.988 10.216)" xlink:href="#D"/><radialGradient id="o" cx="457.14" cy="263.79" r="94.286" gradientTransform="matrix(.040297 -.013267 .013267 .040297 14.722 18.694)" xlink:href="#D"/><radialGradient id="p" cx="478.66" cy="290.04" r="372.49" gradientTransform="matrix(.094214 -.031018 .042774 .12992 -16.44 8.2076)" xlink:href="#AU"><stop stop-color="#5f0000" stop-opacity="0" offset="0"/><stop stop-color="red" stop-opacity="0" offset=".5"/><stop stop-color="#590000" offset="1"/></radialGradient><radialGradient id="q" cx="462.46" cy="233.67" r="330.33" gradientTransform="matrix(.094214 -.031018 .042774 .12992 -16.44 8.2076)" xlink:href="#A"/><linearGradient id="r" x1="51.527" x2="55.089" y1="84.161" y2="115.4" xlink:href="#B"/><radialGradient id="s" cx="247.71" cy="1161.1" r="14.647" fy="1161.4" gradientTransform="matrix(.14589 .060775 -.024333 .05841 68.762 -4.2126)" xlink:href="#C"/><linearGradient id="t" x1="72.41" x2="72.4" y1="77.62" y2="82.851" spreadMethod="reflect" xlink:href="#B"/><linearGradient id="u" x1="75.21" x2="75.941" y1="78.212" y2="79.291" spreadMethod="reflect" xlink:href="#C"/><linearGradient id="v" x1="70.096" x2="67.79" y1="94.705" y2="93.821" spreadMethod="reflect" xlink:href="#B"/><radialGradient id="w" cx="370.71" cy="771.55" r="27.48" gradientTransform="matrix(.093728 .039046 -.037874 .090913 68.993 -4.7664)" xlink:href="#B"/><radialGradient id="x" cx="378.57" cy="752.36" r="8.571" gradientTransform="matrix(.049865 .0021831 -.0043739 .099904 60.094 3.4141)" xlink:href="#D"/><linearGradient id="y" x1="72.849" x2="74.683" y1="78.934" y2="79.99" xlink:href="#C"/><linearGradient id="z" x1="73.528" x2="74.513" y1="77.247" y2="80.868" xlink:href="#C"/><linearGradient id="AA" x1="72.406" x2="73.093" y1="81.936" y2="80.933" xlink:href="#C"/><linearGradient id="AB" x1="75.366" x2="72.774" y1="77.441" y2="82.49" xlink:href="#Y"/><radialGradient id="AC" cx="269.79" cy="1031.8" r="32.826" gradientTransform="matrix(.13076 .032203 -.0086631 .047478 48.7 20.186)" xlink:href="#C"/><radialGradient id="AD" cx="413.89" cy="440.37" r="359.54" gradientTransform="matrix(.097653 .017388 -.023978 .13466 51.6 -18.042)" xlink:href="#AU"><stop stop-color="#ffdf00" stop-opacity="0" offset="0"/><stop stop-color="#ff9f00" stop-opacity="0" offset=".5"/><stop stop-color="#ff9a00" stop-opacity="0" offset=".75"/><stop stop-color="#793900" offset="1"/></radialGradient><radialGradient id="AE" cx="480.13" cy="516.87" r="175.44" gradientTransform="matrix(.049183 -.0093258 .012426 .065531 45.491 31.08)" xlink:href="#D"/><radialGradient id="AF" cx="480.13" cy="516.87" r="175.44" gradientTransform="matrix(.082525 -.015648 .022179 .11697 23.044 .37707)" xlink:href="#D"/><radialGradient id="AG" cx="457.14" cy="263.79" r="94.286" gradientTransform="matrix(.11934 .021248 -.021248 .11934 42.243 -20.803)" xlink:href="#D"/><radialGradient id="AH" cx="457.14" cy="263.79" r="94.286" gradientTransform="matrix(.041767 .0074369 -.0074369 .041767 74.059 5.9723)" xlink:href="#D"/><radialGradient id="AI" cx="478.66" cy="290.04" r="372.49" gradientTransform="matrix(.097653 .017388 -.023978 .13466 51.6 -18.042)" xlink:href="#AU"><stop stop-color="#5a5f00" stop-opacity="0" offset="0"/><stop stop-color="#ffde00" stop-opacity="0" offset=".5"/><stop stop-color="#cf9800" offset="1"/></radialGradient><radialGradient id="AJ" cx="462.46" cy="233.67" r="330.33" gradientTransform="matrix(.097653 .017388 -.023978 .13466 51.6 -18.042)" xlink:href="#Y"/><linearGradient id="AK" x1="75.402" x2="63.721" y1="117.04" y2="74.277" xlink:href="#B"/><path id="AL" d="M77.263 29.983C81.23 47.843 70.468 73.93 59.808 76.6c-10.38 2.598-31.574-16.978-35.54-34.838S28.954 6.76 43.58 3.513s29.716 8.61 33.682 26.47z"/><path id="AM" d="M58.684 75.224c-.594.365-1.54 1.73-1.818 2.424-.154.386-.91.505-1.313.707-.795.397-.374 1.11.404 1.11 1.036 0 2.027.001 3.03.202.756.15 1.543.1 2.323.1.794 0 .898-.528.707-.91-.174-.347-1.096-.777-1.313-1.212-.207-.413-.2-1.834-.707-2.222-.038-.03-.672-.596-1.313-.202z"/><path id="AN" d="M59.82 76.284c-.032.008-.063-.018-.094-.027.703.146.01-.015.118-.156-.03-.02-.01.01-.023.023l.4-.942c.2.122.396.187.508.406.466 1.194-.284 2.08-1.546 1.535-.86-.8-.537-1.793.635-1.875z"/><path id="AO" d="M109.444 43.374c-3.207 18.012-23.172 37.954-34.035 36.3C64.828 78.1 52.792 51.87 56 33.858S73.78 3.36 88.532 5.986s24.12 19.376 20.913 37.388z"/><path id="AP" d="M74.896 77.99c-.688.11-2.088 1.005-2.61 1.54-.29.297-1.033.117-1.484.148-.887.06-.772.882-.054 1.18.957.398 1.87.78 2.72 1.352.64.43 1.386.687 2.106.987.733.305 1.032-.142 1.002-.567-.027-.387-.713-1.138-.746-1.624-.032-.46.53-1.766.202-2.323-.024-.04-.39-.81-1.135-.69z"/><path id="AQ" d="M75.537 79.406c-.032-.005-.05-.04-.077-.06.593.405.016-.01.17-.098-.02-.03-.013.005-.03.012l.733-.716c.128.186.294.325.313.57-.03 1.28-1.062 1.81-2.017.823-.49-1.06.194-1.86 1.308-1.487z"/><path id="AR" d="M63.616 34.833c5.72 17.377-2.394 44.404-12.737 48.1C40.808 86.56 17.774 69.187 12.053 51.8s1.186-35.283 15.417-39.97 30.425 5.615 36.146 22.992z"/><path id="AS" d="M49.624 81.697c-.554.422-1.36 1.875-1.568 2.593-.115.4-.854.593-1.236.834-.75.474-.262 1.143.512 1.066 1.03-.103 2.018-.2 3.036-.1.768.075 1.546-.053 2.322-.13.8-.08.84-.614.613-.975-.207-.328-1.167-.664-1.427-1.076-.247-.39-.37-1.806-.924-2.14-.04-.025-.728-.527-1.327-.07z"/><path id="AT" d="M48.86 82.638c-.03.01-.064-.012-.096-.017.714.076.01-.016.102-.167-.03-.018-.01.01-.02.025l.306-.978c.2.103.413.146.546.354.583 1.142-.076 2.098-1.386 1.68-.933-.7-.712-1.73.446-1.93z"/><linearGradient id="AU" gradientUnits="userSpaceOnUse"/></defs><g fill-rule="evenodd"><path d="M58.385 76.335l4.033 39.916h.71L59.39 76.234z" fill="url(#S)"/><use fill="url(#L)" opacity=".75" xlink:href="#AL"/><use fill="url(#K)" xlink:href="#AL"/><path d="m55.48 14.92a4 4 0 1 1-7.81 1.734 4 4 0 1 1 7.81-1.734z" fill="url(#F)"/><path d="m62.73 13.31a11.43 11.43 0 0 1-8.679 13.634 11.43 11.43 0 0 1-13.634-8.679 11.43 11.43 0 0 1 8.679-13.634 11.43 11.43 0 0 1 13.634 8.679z" fill="url(#G)" opacity=".6"/><path d="M61.582 42.574c7.07 10.742 6.658 23.494-.92 28.483s-19.455.324-26.525-10.418-6.658-23.494.92-28.483 19.455-.324 26.525 10.418z" fill="url(#H)" opacity=".53"/><path d="M60.358 52.786c3.96 6.018 3.51 13.307-1.006 16.28s-11.4.504-15.35-5.514-3.51-13.307 1.006-16.28 11.4-.504 15.35 5.514z" fill="url(#I)" opacity=".3"/><use fill="url(#J)" xlink:href="#AL"/><path d="M63.135 74.376c.187.855-1.62 1.85-4.032 2.223s-4.52-.018-4.706-.874 1.62-1.85 4.032-2.223 4.52.018 4.706.874z" fill="url(#R)" opacity=".3"/><use fill="url(#M)" xlink:href="#AM"/><use fill="url(#N)" xlink:href="#AM"/><use fill="url(#O)" opacity=".468" xlink:href="#AM"/><use fill="url(#P)" opacity=".51" xlink:href="#AM"/><path d="M60.353 76.08c.163.445.115.87-.107.952s-.534-.213-.696-.658-.115-.87.107-.952.534.213.696.658z" fill="url(#Q)" opacity=".468"/></g><use fill="url(#T)" xlink:href="#AN"/><path d="M60.315 86.6c1.95 3.26-3.94 3.294-3.804 6.742.138 3.484 3.146 1.98 5.002 5.033l.136 1.21c-2.718-3.796-5.208-2.765-5.316-6.172s4.485-4.557 4.06-6.182z" fill="url(#V)"/><use fill="url(#W)" xlink:href="#AN"/><path d="M60.64 75.356c-.975 2.22-1.3.144-2.13.275-1.274-.002-3.213.63-3.9 1.656-.94 1.405-1.305 2.887-.567 4.775.743 1.9 2.943 2.57 5.35 3.927l.03.4c-1.827-1.43-4.877-1.492-5.894-3.65-1.03-2.188-.96-3.963 1.016-5.87 1.047-.974 2.283-1.762 3.75-1.794z" fill="url(#U)"/><path d="M60.64 75.356c-.975 2.22-1.3.144-2.13.275-1.274-.002-1.68-.524-.213-.556z" fill="url(#X)" opacity=".64"/><g fill-rule="evenodd"><path d="M74.562 79.056l-11.758 37.378 1.026.227 11.33-37.465z" fill="url(#AK)"/><use fill="url(#AJ)" opacity=".75" xlink:href="#AO"/><use fill="url(#AI)" xlink:href="#AO"/><path d="m95.13 21.09a4 4 0 1 1-7.876-1.402 4 4 0 1 1 7.876 1.402z" fill="url(#AH)"/><path d="m102.44 22.393a11.43 11.43 0 0 1-13.255 9.248 11.43 11.43 0 0 1-9.248-13.255 11.43 11.43 0 0 1 13.255-9.248 11.43 11.43 0 0 1 9.248 13.255z" fill="url(#AG)" opacity=".6"/><path d="m90.128 48.967c2.396 12.635-2.89 24.248-11.803 25.94s-18.083-7.182-20.48-19.817 2.89-24.248 11.803-25.94 18.083 7.182 20.48 19.817z" fill="url(#AF)" opacity=".53"/><path d="M85.07 57.923c1.342 7.08-1.877 13.634-7.19 14.64S67.173 68.65 65.83 61.57s1.877-13.634 7.19-14.64 10.708 3.914 12.05 10.993z" fill="url(#AE)" opacity=".3"/><use fill="url(#AD)" xlink:href="#AO"/><path d="M79.33 78.92c-.156.86-2.206 1.086-4.577.502s-4.166-1.755-4.008-2.616 2.206-1.086 4.577-.502 4.166 1.755 4.008 2.616z" fill="url(#AC)" opacity=".3"/><use fill="url(#AB)" xlink:href="#AP"/><use fill="url(#AA)" xlink:href="#AP"/><use fill="url(#z)" opacity=".468" xlink:href="#AP"/><use fill="url(#y)" opacity=".51" xlink:href="#AP"/><path d="M76.108 79.423c-.02.473-.23.848-.465.838s-.41-.402-.4-.875.23-.848.465-.838.41.402.4.875z" fill="url(#x)" opacity=".468"/></g><use fill="url(#w)" xlink:href="#AQ"/><path d="M72.098 89.148c.547 3.76-4.974 1.496-6.174 4.732-1.212 3.27 2.213 3.066 2.752 6.6l-.34 1.168c-1.05-4.55-3.815-4.585-2.604-7.77s5.963-2.453 6.196-4.116z" fill="url(#v)"/><use fill="url(#u)" xlink:href="#AQ"/><path d="M76.653 78.865c-1.753 1.673-1.255-.366-2.07-.565-1.175-.492-3.208-.653-4.236.03-1.408.935-2.315 2.163-2.36 4.2-.045 2.04 1.938 3.593 3.64 5.77l-.125.382c-1.137-2.023-4.14-3.34-4.247-5.724-.1-2.416.636-4.028 3.196-5.028 1.34-.497 2.785-.748 4.15-.214z" fill="url(#t)"/><path d="M76.653 78.865c-1.753 1.673-1.255-.366-2.07-.565-1.175-.492-1.348-1.13.017-.595z" fill="url(#s)" opacity=".64"/><g fill-rule="evenodd"><path d="M49.635 82.792l7.138 33.985.906.1-7.25-34.235z" fill="url(#r)"/><use fill="url(#q)" opacity=".75" xlink:href="#AR"/><use fill="url(#p)" xlink:href="#AR"/><path d="m40.443 22.008a4 4 0 1 1-7.599 2.502 4 4 0 1 1 7.599-2.502z" fill="url(#o)"/><path d="m47.5 19.685a11.43 11.43 0 0 1-7.281 14.429 11.43 11.43 0 0 1-14.429-7.281 11.43 11.43 0 0 1 7.281-14.429 11.43 11.43 0 0 1 14.429 7.281z" fill="url(#n)" opacity=".6"/><path d="m49.264 48.92c8.103 9.986 8.96 22.717 1.915 28.433s-19.326 2.256-27.43-7.73-8.96-22.717-1.915-28.433 19.326-2.256 27.43 7.73z" fill="url(#m)" opacity=".53"/><path d="M49.06 59.204c4.54 5.595 4.816 12.892.617 16.3s-11.283 1.634-15.823-3.96-4.816-12.892-.617-16.3 11.283-1.634 15.823 3.96z" fill="url(#l)" opacity=".3"/><use fill="url(#k)" xlink:href="#AR"/><path d="M53.97 80.41c.27.832-1.427 2.002-3.79 2.613s-4.5.43-4.77-.402 1.427-2.002 3.79-2.613 4.5-.43 4.77.402z" fill="url(#j)" opacity=".3"/><use fill="url(#i)" xlink:href="#AS"/><use fill="url(#h)" xlink:href="#AS"/><use fill="url(#g)" opacity=".468" xlink:href="#AS"/><use fill="url(#f)" opacity=".51" xlink:href="#AS"/><path d="M49.37 82.382c.206.426.2.855-.012.958s-.552-.16-.758-.585-.2-.855.012-.958.552.16.758.585z" fill="url(#e)" opacity=".468"/></g><use fill="url(#d)" xlink:href="#AT"/><path d="M51.456 90.806c-.944 3.68 4.987 3.817 5.835 7.163.857 3.38-2.85.212-3.764 3.668l.213 1.198c1.527-4.412 4.605-1.552 3.74-4.85s-5.868-4.874-5.922-6.552z" fill="url(#c)"/><use fill="url(#b)" xlink:href="#AT"/><path d="M48.014 81.906c1.607 1.814 1.28-.26 2.11-.4 1.212-.392 3.252-.383 4.22.383 1.325 1.05 2.126 2.35 2 4.372-.126 2.037-2.632 1.418-4.508 3.446l.093.39c1.302-1.92 4.804-.983 5.1-3.35.31-2.4-.298-4.067-2.764-5.278-1.295-.607-2.713-.978-4.118-.56z" fill="url(#a)"/><path d="M49.585 81.633c-.75 2.305-1.278.273-2.09.486-1.268.124-1.723-.355-.267-.532z" fill="url(#Z)" opacity=".64"/></svg>
