<svg xmlns="http://www.w3.org/2000/svg" xmlns:xlink="http://www.w3.org/1999/xlink" height="120" width="120"><link type="text/css" rel="stylesheet" href=""/><defs><linearGradient id="A" xlink:href="#AU"><stop offset="0" stop-color="#ff6134" stop-opacity="1"/><stop offset="1" stop-color="red" stop-opacity="1"/></linearGradient><linearGradient id="B" xlink:href="#AU"><stop offset="0" stop-color="#525252" stop-opacity="1"/><stop offset="1" stop-color="#d9d9d9" stop-opacity="1"/></linearGradient><linearGradient id="C" xlink:href="#AU"><stop offset="0" stop-opacity="1"/><stop offset="1" stop-opacity="0"/></linearGradient><linearGradient id="D" xlink:href="#AU"><stop offset="0" stop-color="#fff" stop-opacity="1"/><stop offset="1" stop-color="#fff" stop-opacity="0"/></linearGradient><linearGradient id="E" xlink:href="#AU"><stop offset="0" stop-color="#34abff" stop-opacity="1"/><stop offset="1" stop-color="#0057ff" stop-opacity="1"/></linearGradient><radialGradient cx="457.143" cy="263.791" fx="457.143" fy="263.791" id="F" r="94.286" xlink:href="#D" gradientTransform="matrix(0.04141548,-0.00919686,0.00919686,0.04141548,30.215335,9.0652721)"/><radialGradient cx="457.143" cy="263.791" fx="457.143" fy="263.791" id="G" r="94.286" xlink:href="#D" gradientTransform="matrix(0.11832975,-0.02627669,0.02627669,0.11832975,-9.4509842,-3.4160619)"/><radialGradient cx="480.134" cy="516.869" fx="480.134" fy="516.869" gradientTransform="matrix(0.07016133,-0.04618009,0.06545526,0.09944605,-19.028234,23.51834)" id="H" r="175.437" xlink:href="#D"/><radialGradient cx="480.134" cy="516.869" fx="480.134" fy="516.869" gradientTransform="matrix(0.04181444,-0.02752214,0.03667035,0.05571318,13.499436,43.227912)" id="I" r="175.437" xlink:href="#D"/><radialGradient cx="413.888" cy="440.374" fx="413.888" fy="440.374" gradientTransform="matrix(0.09683056,-0.02150259,0.02965189,0.13352875,0.24901579,-4.4661235)" id="J" r="359.535" xlink:href="#AU"><stop offset="0" stop-color="#00f1ff" stop-opacity="0"/><stop offset=".5" stop-color="#00c9ff" stop-opacity="0"/><stop offset=".75" stop-color="#0065a6" stop-opacity="0"/><stop offset="1" stop-color="#002454" stop-opacity="1"/></radialGradient><radialGradient cx="478.657" cy="290.044" fx="478.657" fy="290.044" gradientTransform="matrix(0.09683056,-0.02150259,0.02965189,0.13352875,0.24901579,-4.4661235)" id="K" r="372.486" xlink:href="#AU"><stop offset="0" stop-color="#00575f" stop-opacity="0"/><stop offset=".5" stop-color="#0062ff" stop-opacity="0"/><stop offset="1" stop-color="#002859" stop-opacity="1"/></radialGradient><radialGradient cx="462.465" cy="233.671" fx="462.465" fy="233.671" gradientTransform="matrix(0.09683056,-0.02150259,0.02965189,0.13352875,0.24901579,-4.4661235)" id="L" r="330.328" xlink:href="#E"/><linearGradient id="M" x1="59.098" x2="58.263" xlink:href="#E" y1="74.995" y2="79.733"/><linearGradient id="N" x1="57.902" x2="58.15" xlink:href="#C" y1="79.823" y2="78.633"/><linearGradient id="O" x1="57.134" x2="59.436" xlink:href="#C" y1="73.272" y2="79.818"/><linearGradient id="P" x1="57.157" x2="59.256" xlink:href="#C" y1="76.881" y2="77.151"/><radialGradient cx="378.571" cy="752.362" fx="378.571" fy="752.362" id="Q" r="8.571" xlink:href="#D" gradientTransform="matrix(0.04687038,-0.01716079,0.03438129,0.09390376,16.340576,12.074025)"/><radialGradient cx="269.789" cy="1031.84" fx="269.789" fy="1031.84" gradientTransform="matrix(0.13308912,-0.02055828,0.01026093,0.04715815,12.27245,31.937777)" id="R" r="32.826" xlink:href="#C"/><linearGradient id="S" spreadMethod="pad" x1="60.332" x2="60.772" xlink:href="#B" y1="77.865" y2="109.299"/><radialGradient cx="370.706" cy="771.549" fx="370.706" fy="771.549" gradientTransform="matrix(0.10153636,0,0,0.09848676,21.408984,1.1005793)" id="T" r="27.48" xlink:href="#B"/><linearGradient id="U" spreadMethod="reflect" x1="56.246" x2="58.249" xlink:href="#B" y1="77.15" y2="79.357"/><linearGradient id="V" spreadMethod="reflect" x1="60.613" x2="58.278" xlink:href="#B" y1="92.5" y2="92.567"/><linearGradient id="W" spreadMethod="reflect" x1="59.058" x2="60.148" xlink:href="#C" y1="75.308" y2="76.022"/><radialGradient cx="247.709" cy="1161.088" fx="247.709" fy="1161.419" gradientTransform="matrix(0.15803904,0,0,0.06327547,21.408984,1.7005791)" id="X" r="14.647" xlink:href="#C"/><linearGradient id="Y" xlink:href="#AU"><stop offset="0" stop-color="#ffff34" stop-opacity="1"/><stop offset="1" stop-color="#ffc200" stop-opacity="1"/></linearGradient><radialGradient cx="247.709" cy="1161.088" fx="247.709" fy="1161.419" gradientTransform="matrix(0.15725674,-0.01570479,0.00628788,0.06296227,3.2277013,12.241052)" id="Z" r="14.647" xlink:href="#C"/><linearGradient id="a" spreadMethod="reflect" x1="52.346" x2="51.919" xlink:href="#B" y1="81.019" y2="86.232"/><linearGradient id="b" spreadMethod="reflect" x1="48.005" x2="49.16" xlink:href="#C" y1="81.743" y2="82.345"/><linearGradient id="c" spreadMethod="reflect" x1="53.073" x2="55.423" xlink:href="#B" y1="98.34" y2="97.717"/><radialGradient cx="370.706" cy="771.549" fx="370.706" fy="771.549" gradientTransform="matrix(0.10103376,-0.01009,0.00978694,0.09799926,3.1680813,11.644032)" id="d" r="27.48" xlink:href="#B"/><radialGradient cx="378.571" cy="752.362" fx="378.571" fy="752.362" gradientTransform="matrix(0.04493308,-0.02173349,0.04354258,0.09002236,-0.78477711,23.066818)" id="e" r="8.571" xlink:href="#D"/><linearGradient id="f" x1="48.27" x2="50.385" xlink:href="#C" y1="83.338" y2="83.716"/><linearGradient id="g" x1="48.066" x2="50.652" xlink:href="#C" y1="80.288" y2="85.812"/><linearGradient id="h" x1="49.303" x2="49.432" xlink:href="#C" y1="86.35" y2="85.141"/><linearGradient id="i" x1="50.013" x2="49.653" xlink:href="#A" y1="81.428" y2="86.225"/><radialGradient cx="269.789" cy="1031.84" fx="269.789" fy="1031.84" gradientTransform="matrix(0.13038745,-0.03368199,0.01489639,0.04590508,-0.85884711,43.236509)" id="j" r="32.826" xlink:href="#C"/><radialGradient cx="413.888" cy="440.374" fx="413.888" fy="440.374" gradientTransform="matrix(0.09421446,-0.03101849,0.04277428,0.12992115,-16.440334,8.2076155)" id="k" r="359.535" xlink:href="#AU"><stop offset="0" stop-color="red" stop-opacity="0"/><stop offset=".5" stop-color="red" stop-opacity="0"/><stop offset=".75" stop-color="#a60000" stop-opacity="0"/><stop offset="1" stop-color="#540000" stop-opacity="1"/></radialGradient><radialGradient cx="480.134" cy="516.869" fx="480.134" fy="516.869" gradientTransform="matrix(0.03887258,-0.03154119,0.04202528,0.05179338,1.4840158,54.348825)" id="l" r="175.437" xlink:href="#D"/><radialGradient cx="480.134" cy="516.869" fx="480.134" fy="516.869" gradientTransform="matrix(0.06522497,-0.05292368,0.07501357,0.09244926,-32.841244,37.969192)" id="m" r="175.437" xlink:href="#D"/><radialGradient cx="457.143" cy="263.791" fx="457.143" fy="263.791" gradientTransform="matrix(0.11513285,-0.03790538,0.03790538,0.11513285,-25.987964,10.216403)" id="n" r="94.286" xlink:href="#D"/><radialGradient cx="457.143" cy="263.791" fx="457.143" fy="263.791" gradientTransform="matrix(0.04029658,-0.01326689,0.01326689,0.04029658,14.722316,18.694179)" id="o" r="94.286" xlink:href="#D"/><radialGradient cx="478.657" cy="290.044" fx="478.657" fy="290.044" gradientTransform="matrix(0.09421446,-0.03101849,0.04277428,0.12992115,-16.440334,8.2076155)" id="p" r="372.486" xlink:href="#AU"><stop offset="0" stop-color="#5f0000" stop-opacity="0"/><stop offset=".5" stop-color="red" stop-opacity="0"/><stop offset="1" stop-color="#590000" stop-opacity="1"/></radialGradient><radialGradient cx="462.465" cy="233.671" fx="462.465" fy="233.671" gradientTransform="matrix(0.09421446,-0.03101849,0.04277428,0.12992115,-16.440334,8.2076155)" id="q" r="330.328" xlink:href="#A"/><linearGradient id="r" spreadMethod="pad" x1="51.527" x2="55.089" xlink:href="#B" y1="84.161" y2="115.395"/><radialGradient cx="247.709" cy="1161.088" fx="247.709" fy="1161.419" gradientTransform="matrix(0.14588604,0.06077488,-0.02433299,0.05840968,68.761815,-4.2125526)" id="s" r="14.647" xlink:href="#C"/><linearGradient id="t" spreadMethod="reflect" x1="72.41" x2="72.4" xlink:href="#B" y1="77.62" y2="82.851"/><linearGradient id="u" spreadMethod="reflect" x1="75.21" x2="75.941" xlink:href="#C" y1="78.212" y2="79.291"/><linearGradient id="v" spreadMethod="reflect" x1="70.096" x2="67.79" xlink:href="#B" y1="94.705" y2="93.821"/><radialGradient cx="370.706" cy="771.549" fx="370.706" fy="771.549" gradientTransform="matrix(0.09372836,0.03904638,-0.03787368,0.09091326,68.992545,-4.7664123)" id="w" r="27.48" xlink:href="#B"/><radialGradient cx="378.571" cy="752.362" fx="378.571" fy="752.362" gradientTransform="matrix(0.04986538,0.00218314,-0.00437386,0.09990416,60.093989,3.4140964)" id="x" r="8.571" xlink:href="#D"/><linearGradient id="y" x1="72.849" x2="74.683" xlink:href="#C" y1="78.934" y2="79.99"/><linearGradient id="z" x1="73.528" x2="74.513" xlink:href="#C" y1="77.247" y2="80.868"/><linearGradient id="AA" x1="72.406" x2="73.093" xlink:href="#C" y1="81.936" y2="80.933"/><linearGradient id="AB" x1="75.366" x2="72.774" xlink:href="#Y" y1="77.441" y2="82.49"/><radialGradient cx="269.789" cy="1031.84" fx="269.789" fy="1031.84" gradientTransform="matrix(0.13076055,0.03220289,-0.00866312,0.04747768,48.699983,20.185929)" id="AC" r="32.826" xlink:href="#C"/><radialGradient cx="413.888" cy="440.374" fx="413.888" fy="440.374" gradientTransform="matrix(0.09765336,0.01738769,-0.02397759,0.13466335,51.600462,-18.042236)" id="AD" r="359.535" xlink:href="#AU"><stop offset="0" stop-color="#ffdf00" stop-opacity="0"/><stop offset=".5" stop-color="#ff9f00" stop-opacity="0"/><stop offset=".75" stop-color="#ff9a00" stop-opacity="0"/><stop offset="1" stop-color="#793900" stop-opacity="1"/></radialGradient><radialGradient cx="480.134" cy="516.869" fx="480.134" fy="516.869" gradientTransform="matrix(0.04918278,-0.00932575,0.0124256,0.06553067,45.490915,31.079704)" id="AE" r="175.437" xlink:href="#D"/><radialGradient cx="480.134" cy="516.869" fx="480.134" fy="516.869" gradientTransform="matrix(0.08252487,-0.01564789,0.02217929,0.11696995,23.044036,0.37707)" id="AF" r="175.437" xlink:href="#D"/><radialGradient cx="457.143" cy="263.791" fx="457.143" fy="263.791" gradientTransform="matrix(0.11933515,0.02124839,-0.02124839,0.11933515,42.242586,-20.803115)" id="AG" r="94.286" xlink:href="#D"/><radialGradient cx="457.143" cy="263.791" fx="457.143" fy="263.791" gradientTransform="matrix(0.04176738,0.00743694,-0.00743694,0.04176738,74.058823,5.9723364)" id="AH" r="94.286" xlink:href="#D"/><radialGradient cx="478.657" cy="290.044" fx="478.657" fy="290.044" gradientTransform="matrix(0.09765336,0.01738769,-0.02397759,0.13466335,51.600462,-18.042236)" id="AI" r="372.486" xlink:href="#AU"><stop offset="0" stop-color="#5a5f00" stop-opacity="0"/><stop offset=".5" stop-color="#ffde00" stop-opacity="0"/><stop offset="1" stop-color="#cf9800" stop-opacity="1"/></radialGradient><radialGradient cx="462.465" cy="233.671" fx="462.465" fy="233.671" gradientTransform="matrix(0.09765336,0.01738769,-0.02397759,0.13466335,51.600462,-18.042236)" id="AJ" r="330.328" xlink:href="#Y"/><linearGradient id="AK" spreadMethod="pad" x1="75.402" x2="63.721" xlink:href="#B" y1="117.035" y2="74.277"/><path id="AL" d="M77.263 29.983C81.23 47.843 70.468 73.93 59.808 76.6c-10.38 2.598-31.574-16.978-35.54-34.838S28.954 6.76 43.58 3.513s29.716 8.61 33.682 26.47z"/><path id="AM" d="M58.684 75.224c-.594.365-1.54 1.73-1.818 2.424-.154.386-.91.505-1.313.707-.795.397-.374 1.11.404 1.11 1.036 0 2.027.001 3.03.202.756.15 1.543.1 2.323.1.794 0 .898-.528.707-.91-.174-.347-1.096-.777-1.313-1.212-.207-.413-.2-1.834-.707-2.222-.038-.03-.672-.596-1.313-.202z"/><path id="AN" d="M59.82 76.284c-.032.008-.063-.018-.094-.027.703.146.01-.015.118-.156-.03-.02-.01.01-.023.023l.4-.942c.2.122.396.187.508.406.466 1.194-.284 2.08-1.546 1.535-.86-.8-.537-1.793.635-1.875z"/><path id="AO" d="M109.444 43.374c-3.207 18.012-23.172 37.954-34.035 36.3C64.828 78.1 52.792 51.87 56 33.858S73.78 3.36 88.532 5.986s24.12 19.376 20.913 37.388z"/><path id="AP" d="M74.896 77.99c-.688.11-2.088 1.005-2.61 1.54-.29.297-1.033.117-1.484.148-.887.06-.772.882-.054 1.18.957.398 1.87.78 2.72 1.352.64.43 1.386.687 2.106.987.733.305 1.032-.142 1.002-.567-.027-.387-.713-1.138-.746-1.624-.032-.46.53-1.766.202-2.323-.024-.04-.39-.81-1.135-.69z"/><path id="AQ" d="M75.537 79.406c-.032-.005-.05-.04-.077-.06.593.405.016-.01.17-.098-.02-.03-.013.005-.03.012l.733-.716c.128.186.294.325.313.57-.03 1.28-1.062 1.81-2.017.823-.49-1.06.194-1.86 1.308-1.487z"/><path id="AR" d="M63.616 34.833c5.72 17.377-2.394 44.404-12.737 48.1C40.808 86.56 17.774 69.187 12.053 51.8s1.186-35.283 15.417-39.97 30.425 5.615 36.146 22.992z"/><path id="AS" d="M49.624 81.697c-.554.422-1.36 1.875-1.568 2.593-.115.4-.854.593-1.236.834-.75.474-.262 1.143.512 1.066 1.03-.103 2.018-.2 3.036-.1.768.075 1.546-.053 2.322-.13.8-.08.84-.614.613-.975-.207-.328-1.167-.664-1.427-1.076-.247-.39-.37-1.806-.924-2.14-.04-.025-.728-.527-1.327-.07z"/><path id="AT" d="M48.86 82.638c-.03.01-.064-.012-.096-.017.714.076.01-.016.102-.167-.03-.018-.01.01-.02.025l.306-.978c.2.103.413.146.546.354.583 1.142-.076 2.098-1.386 1.68-.933-.7-.712-1.73.446-1.93z"/><linearGradient id="AU" gradientUnits="userSpaceOnUse"/></defs><g fill-rule="evenodd"><path d="M58.385 76.335l4.033 39.916h.71L59.39 76.234z" fill="url(#S)"/><use xlink:href="#AL" opacity=".75" fill="url(#L)"/><use xlink:href="#AL" fill="url(#K)"/><path d="M55.48 14.92a4 4 0 1 1-7.81 1.734 4 4 0 1 1 7.81-1.734z" fill="url(#F)"/><path d="M62.73 13.31a11.43 11.43 0 0 1-8.679 13.634 11.43 11.43 0 0 1-13.634-8.679 11.43 11.43 0 0 1 8.679-13.634 11.43 11.43 0 0 1 13.634 8.679z" opacity=".6" fill="url(#G)"/><path d="M61.582 42.574c7.07 10.742 6.658 23.494-.92 28.483s-19.455.324-26.525-10.418-6.658-23.494.92-28.483 19.455-.324 26.525 10.418z" opacity=".53" fill="url(#H)"/><path d="M60.358 52.786c3.96 6.018 3.51 13.307-1.006 16.28s-11.4.504-15.35-5.514-3.51-13.307 1.006-16.28 11.4-.504 15.35 5.514z" opacity=".3" fill="url(#I)"/><use xlink:href="#AL" fill="url(#J)"/><path d="M63.135 74.376c.187.855-1.62 1.85-4.032 2.223s-4.52-.018-4.706-.874 1.62-1.85 4.032-2.223 4.52.018 4.706.874z" opacity=".3" fill="url(#R)"/><use xlink:href="#AM" fill="url(#M)"/><use xlink:href="#AM" fill="url(#N)"/><use xlink:href="#AM" opacity=".468" fill="url(#O)"/><use xlink:href="#AM" opacity=".51" fill="url(#P)"/><path d="M60.353 76.08c.163.445.115.87-.107.952s-.534-.213-.696-.658-.115-.87.107-.952.534.213.696.658z" opacity=".468" fill="url(#Q)"/></g><use xlink:href="#AN" fill="url(#T)"/><path d="M60.315 86.6c1.95 3.26-3.94 3.294-3.804 6.742.138 3.484 3.146 1.98 5.002 5.033l.136 1.21c-2.718-3.796-5.208-2.765-5.316-6.172s4.485-4.557 4.06-6.182z" fill="url(#V)"/><use xlink:href="#AN" fill="url(#W)"/><path d="M60.64 75.356c-.975 2.22-1.3.144-2.13.275-1.274-.002-3.213.63-3.9 1.656-.94 1.405-1.305 2.887-.567 4.775.743 1.9 2.943 2.57 5.35 3.927l.03.4c-1.827-1.43-4.877-1.492-5.894-3.65-1.03-2.188-.96-3.963 1.016-5.87 1.047-.974 2.283-1.762 3.75-1.794z" fill="url(#U)"/><path d="M60.64 75.356c-.975 2.22-1.3.144-2.13.275-1.274-.002-1.68-.524-.213-.556z" opacity=".64" fill="url(#X)"/><g fill-rule="evenodd"><path d="M74.562 79.056l-11.758 37.378 1.026.227 11.33-37.465z" fill="url(#AK)"/><use xlink:href="#AO" opacity=".75" fill="url(#AJ)"/><use xlink:href="#AO" fill="url(#AI)"/><path d="M95.13 21.09a4 4 0 1 1-7.876-1.402 4 4 0 1 1 7.876 1.402z" fill="url(#AH)"/><path d="M102.442 22.393a11.43 11.43 0 0 1-13.255 9.248 11.43 11.43 0 0 1-9.248-13.255 11.43 11.43 0 0 1 13.255-9.248 11.43 11.43 0 0 1 9.248 13.255z" opacity=".6" fill="url(#AG)"/><path d="M90.128 48.967c2.396 12.635-2.89 24.248-11.803 25.94s-18.083-7.182-20.48-19.817 2.89-24.248 11.803-25.94 18.083 7.182 20.48 19.817z" opacity=".53" fill="url(#AF)"/><path d="M85.07 57.923c1.342 7.08-1.877 13.634-7.19 14.64S67.173 68.65 65.83 61.57s1.877-13.634 7.19-14.64 10.708 3.914 12.05 10.993z" opacity=".3" fill="url(#AE)"/><use xlink:href="#AO" fill="url(#AD)"/><path d="M79.33 78.92c-.156.86-2.206 1.086-4.577.502s-4.166-1.755-4.008-2.616 2.206-1.086 4.577-.502 4.166 1.755 4.008 2.616z" opacity=".3" fill="url(#AC)"/><use xlink:href="#AP" fill="url(#AB)"/><use xlink:href="#AP" fill="url(#AA)"/><use xlink:href="#AP" opacity=".468" fill="url(#z)"/><use xlink:href="#AP" opacity=".51" fill="url(#y)"/><path d="M76.108 79.423c-.02.473-.23.848-.465.838s-.41-.402-.4-.875.23-.848.465-.838.41.402.4.875z" opacity=".468" fill="url(#x)"/></g><use xlink:href="#AQ" fill="url(#w)"/><path d="M72.098 89.148c.547 3.76-4.974 1.496-6.174 4.732-1.212 3.27 2.213 3.066 2.752 6.6l-.34 1.168c-1.05-4.55-3.815-4.585-2.604-7.77s5.963-2.453 6.196-4.116z" fill="url(#v)"/><use xlink:href="#AQ" fill="url(#u)"/><path d="M76.653 78.865c-1.753 1.673-1.255-.366-2.07-.565-1.175-.492-3.208-.653-4.236.03-1.408.935-2.315 2.163-2.36 4.2-.045 2.04 1.938 3.593 3.64 5.77l-.125.382c-1.137-2.023-4.14-3.34-4.247-5.724-.1-2.416.636-4.028 3.196-5.028 1.34-.497 2.785-.748 4.15-.214z" fill="url(#t)"/><path d="M76.653 78.865c-1.753 1.673-1.255-.366-2.07-.565-1.175-.492-1.348-1.13.017-.595z" opacity=".64" fill="url(#s)"/><g fill-rule="evenodd"><path d="M49.635 82.792l7.138 33.985.906.1-7.25-34.235z" fill="url(#r)"/><use xlink:href="#AR" opacity=".75" fill="url(#q)"/><use xlink:href="#AR" fill="url(#p)"/><path d="M40.443 22.008a4 4 0 1 1-7.599 2.502 4 4 0 1 1 7.599-2.502z" fill="url(#o)"/><path d="M47.5 19.685a11.43 11.43 0 0 1-7.281 14.429 11.43 11.43 0 0 1-14.429-7.281 11.43 11.43 0 0 1 7.281-14.429 11.43 11.43 0 0 1 14.429 7.281z" opacity=".6" fill="url(#n)"/><path d="M49.264 48.92c8.103 9.986 8.96 22.717 1.915 28.433s-19.326 2.256-27.43-7.73-8.96-22.717-1.915-28.433 19.326-2.256 27.43 7.73z" opacity=".53" fill="url(#m)"/><path d="M49.06 59.204c4.54 5.595 4.816 12.892.617 16.3s-11.283 1.634-15.823-3.96-4.816-12.892-.617-16.3 11.283-1.634 15.823 3.96z" opacity=".3" fill="url(#l)"/><use xlink:href="#AR" fill="url(#k)"/><path d="M53.97 80.41c.27.832-1.427 2.002-3.79 2.613s-4.5.43-4.77-.402 1.427-2.002 3.79-2.613 4.5-.43 4.77.402z" opacity=".3" fill="url(#j)"/><use xlink:href="#AS" fill="url(#i)"/><use xlink:href="#AS" fill="url(#h)"/><use xlink:href="#AS" opacity=".468" fill="url(#g)"/><use xlink:href="#AS" opacity=".51" fill="url(#f)"/><path d="M49.37 82.382c.206.426.2.855-.012.958s-.552-.16-.758-.585-.2-.855.012-.958.552.16.758.585z" opacity=".468" fill="url(#e)"/></g><use xlink:href="#AT" fill="url(#d)"/><path d="M51.456 90.806c-.944 3.68 4.987 3.817 5.835 7.163.857 3.38-2.85.212-3.764 3.668l.213 1.198c1.527-4.412 4.605-1.552 3.74-4.85s-5.868-4.874-5.922-6.552z" fill="url(#c)"/><use xlink:href="#AT" fill="url(#b)"/><path d="M48.014 81.906c1.607 1.814 1.28-.26 2.11-.4 1.212-.392 3.252-.383 4.22.383 1.325 1.05 2.126 2.35 2 4.372-.126 2.037-2.632 1.418-4.508 3.446l.093.39c1.302-1.92 4.804-.983 5.1-3.35.31-2.4-.298-4.067-2.764-5.278-1.295-.607-2.713-.978-4.118-.56z" fill="url(#a)"/><path d="M49.585 81.633c-.75 2.305-1.278.273-2.09.486-1.268.124-1.723-.355-.267-.532z" opacity=".64" fill="url(#Z)"/></svg>