<svg xmlns="http://www.w3.org/2000/svg" width="320" height="320"><defs><radialGradient id="A" cx="49.984" cy="11.005" fx="49.984" fy="11.005" r="3.641" gradientTransform="matrix(0.42484515,-0.00367939,0.00865605,2.1079205,28.669419,-9.240359)" gradientUnits="userSpaceOnUse"><stop offset="0" stop-color="#fffffa"/><stop offset="1" stop-color="#f8ff8f" stop-opacity=".44"/></radialGradient><radialGradient id="B" cx="50" cy="14.525" fx="50" fy="14.525" r="1.5" gradientTransform="matrix(1,0,0,0.76836157,0,3.7646805)" gradientUnits="userSpaceOnUse"><stop offset="0" stop-color="#85d3ff"/><stop offset="1" stop-color="#85d3ff" stop-opacity="0"/></radialGradient><filter id="C" x="-.336" width="1.672" y="-.336" height="1.672" color-interpolation-filters="sRGB"><feGaussianBlur stdDeviation="1.26"/></filter><filter id="D" x="-.061" width="1.123" y="-.025" height="1.051" color-interpolation-filters="sRGB"><feGaussianBlur stdDeviation=".079"/></filter><linearGradient id="E" x1="145.821" y1="93.586" x2="174.182" y2="93.586" gradientUnits="userSpaceOnUse"><stop offset="0" stop-color="#a0ffff"/><stop offset="1" stop-color="#ceffff" stop-opacity=".965"/></linearGradient></defs><g transform="translate(0 -2)"><rect rx="32" width="320" height="366.607" y="2.63" fill="#4d4d4d" paint-order="stroke fill markers"/><path d="M160.007 59.98l-.003-8.15c-.004-.583-.15-1.485-.417-1.974" fill="none" stroke="#000" stroke-width=".64" stroke-linecap="round"/><path d="M80.8 122.7c-9.164 0-16.594 7.43-16.594 16.593v67.366H51.35a19.14 19.14 0 0 0-19.137 19.138v64.82h255.573v-64.82c0-10.57-8.568-19.138-19.138-19.138h-12.3v-67.366c0-9.165-7.43-16.593-16.594-16.593z" fill="#ffdd7b"/><g fill="#f7cf6d"><path d="M268.65 206.648h-16.793a19.14 19.14 0 0 1 19.137 19.137v64.822h16.793v-64.822a19.14 19.14 0 0 0-19.137-19.137z"/><path d="M239.754 122.69h-16.787c9.164 0 16.897 7.372 16.897 16.536v67.366l16.483.057v-67.366c.001-9.165-7.43-16.593-16.593-16.593z"/></g><path d="M281.89 318.824H38.11c-15.583 0-28.216-12.633-28.216-28.216h300.214c0 15.583-12.633 28.216-28.216 28.216z" fill="#d9d9db" stroke="#000" stroke-width=".586"/><path d="M29.63 290.935H9.893c0 15.2 12.633 27.505 28.216 27.505h19.736c-15.583 0-28.216-12.315-28.216-27.505z" fill="#e1e1e3"/><path d="M278.802 290.935c0 15.2-12.633 27.505-28.216 27.505h31.305c15.583 0 28.216-12.315 28.216-27.505zm-36.43 0c0 15.2-8.122 27.505-18.14 27.505h20.125c10.018 0 18.14-12.315 18.14-27.505z" fill="#c8c6cd"/><path d="M146.424 60.316h27.154v66.54h-27.154z" fill="url(#E)" stroke="#100c01" stroke-width="1.207" paint-order="stroke fill markers"/><path d="M239.754 122.69H80.8c-9.164 0-16.594 7.43-16.594 16.594v21.53h.28c10.668-.25 10.503-13.596 20.667-13.654 10.2-.057 14.018 15.865 24.46 15.894 10.507.03 14.537-16.074 25.444-16.167 10.64-.09 14.626 15.17 25.615 15.16 10.9-.01 15.4-15.004 25.452-14.7 9.85.288 12.278 14.89 22.133 15.18 10.123.297 14.994-14.895 25.452-14.7 10.29.18 12.333 15.717 22.357 15.867l.28-.02v-24.37c0-9.166-7.43-16.594-16.594-16.594z" fill="#ff8588"/><path d="M239.754 122.69h-16.787c9.164 0 16.897 7.372 16.897 16.536v10.905c5.553 4.38 8.56 13.426 16.2 13.54l.28-.02v-24.37c.001-9.165-7.43-16.594-16.593-16.594z" fill="#ef8990"/><path d="M268.643 206.648H51.345a19.14 19.14 0 0 0-19.137 19.137v19.965c10.384-.477 10.32-13.58 20.392-13.636 10.2-.058 14.02 15.865 24.46 15.894 10.507.03 14.537-16.074 25.444-16.167 10.64-.09 14.626 15.17 25.615 15.16 10.9-.01 15.4-15.004 25.452-14.7 9.85.288 12.278 14.89 22.133 15.18 10.123.297 14.994-14.895 25.452-14.7 10.29.18 12.728 14.1 22.752 14.24 10.9-.01 15.4-15.004 25.452-14.7 9.85.288 12.278 14.89 22.133 15.18 6.56.192 10.914-6.118 16.012-10.535l.277-.144v-11.006c.002-10.57-8.566-19.138-19.136-19.138z" fill="#ff8588"/><path d="M268.65 206.648h-16.793a19.14 19.14 0 0 1 19.137 19.137v21.653a9.57 9.57 0 0 0 .504.031c6.56.192 10.914-6.118 16.012-10.535l.277-.144v-11.006a19.14 19.14 0 0 0-19.137-19.137z" fill="#ef8990"/><g transform="matrix(3.59065 0 0 3.59065 -19.489438 -2.339846)"><circle cx="49.958" cy="12.294" r="4.5" transform="matrix(1.292848 0 0 1.292848 -14.697799 -3.973088)" opacity=".36" fill="#ffdf6f" paint-order="stroke fill markers" filter="url(#C)"/><path d="M51.547 13.952c0 1.453-.693 1.743-1.547 1.748-.956.006-1.55-.48-1.547-1.748.002-1.538.853-4.177 1.293-5.433.133-.382.375-.382.51 0 .44 1.256 1.292 3.895 1.292 5.433z" fill="url(#A)" filter="url(#D)"/><path d="M50 13.773a1.5 1.153 0 0 0-1.461.891c.192.737.713 1.04 1.46 1.035.685-.004 1.26-.2 1.463-1.023A1.5 1.153 0 0 0 50 13.773z" fill="url(#B)" paint-order="stroke fill markers"/></g></g></svg>