<svg width="120" height="120" xmlns="http://www.w3.org/2000/svg" xmlns:xlink="http://www.w3.org/1999/xlink"><defs><radialGradient id="l" cx="457.14" cy="263.79" r="94.29" gradientTransform="rotate(-12.53 56.45 -133.13) scale(.04243)" xlink:href="#a"/><radialGradient id="m" cx="457.14" cy="263.79" r="94.29" gradientTransform="rotate(-12.51 -20.3 41.37) scale(.12121)" xlink:href="#a"/><radialGradient id="n" cx="480.13" cy="516.87" r="175.44" gradientTransform="matrix(.07016 -.04618 .06545 .09945 -19.03 23.52)" xlink:href="#a"/><radialGradient id="o" cx="480.13" cy="516.87" r="175.44" gradientTransform="matrix(.04181 -.02752 .03667 .05571 13.5 43.23)" xlink:href="#a"/><radialGradient id="p" cx="413.89" cy="440.37" r="359.54" gradientTransform="matrix(.09683 -.0215 .02965 .13353 .25 -4.47)" xlink:href="#b"><stop stop-color="#00f1ff" stop-opacity="0" offset="0"/><stop stop-color="#00c9ff" stop-opacity="0" offset=".5"/><stop stop-color="#0065a6" stop-opacity="0" offset=".75"/><stop stop-color="#002454" offset="1"/></radialGradient><radialGradient id="k" cx="478.66" cy="290.04" r="372.49" gradientTransform="matrix(.09683 -.0215 .02965 .13353 .25 -4.47)" xlink:href="#b"><stop stop-color="#00575f" stop-opacity="0" offset="0"/><stop stop-color="#0062ff" stop-opacity="0" offset=".5"/><stop stop-color="#002859" offset="1"/></radialGradient><radialGradient id="i" cx="462.46" cy="233.67" r="330.33" gradientTransform="matrix(.09683 -.0215 .02965 .13353 .25 -4.47)" xlink:href="#c"/><radialGradient id="w" cx="378.57" cy="752.36" r="8.57" gradientTransform="matrix(.04687 -.01716 .03438 .0939 16.34 12.07)" xlink:href="#a"/><radialGradient id="q" cx="269.79" cy="1031.8" r="32.83" gradientTransform="matrix(.13309 -.02056 .01026 .04716 12.27 31.94)" xlink:href="#d"/><radialGradient id="x" cx="370.71" cy="771.55" r="27.48" gradientTransform="matrix(.10154 0 0 .09849 21.4 1.1)" xlink:href="#e"/><radialGradient id="C" cx="247.71" cy="1161.1" r="14.65" fy="1161.4" gradientTransform="matrix(.15804 0 0 .06327 21.4 1.7)" xlink:href="#d"/><radialGradient id="au" cx="247.71" cy="1161.1" r="14.65" fy="1161.4" gradientTransform="matrix(.15726 -.0157 .00629 .06296 3.23 12.24)" xlink:href="#d"/><radialGradient id="ap" cx="370.71" cy="771.55" r="27.48" gradientTransform="matrix(.10103 -.01009 .00979 .098 3.17 11.64)" xlink:href="#e"/><radialGradient id="ao" cx="378.57" cy="752.36" r="8.57" gradientTransform="matrix(.04493 -.02173 .04354 .09002 -.78 23.07)" xlink:href="#a"/><radialGradient id="ai" cx="269.79" cy="1031.8" r="32.83" gradientTransform="matrix(.13039 -.03368 .0149 .0459 -.86 43.24)" xlink:href="#d"/><radialGradient id="ah" cx="413.89" cy="440.37" r="359.54" gradientTransform="matrix(.09421 -.03102 .04277 .12992 -16.44 8.2)" xlink:href="#b"><stop stop-color="red" stop-opacity="0" offset="0"/><stop stop-color="red" stop-opacity="0" offset=".5"/><stop stop-color="#a60000" stop-opacity="0" offset=".75"/><stop stop-color="#540000" offset="1"/></radialGradient><radialGradient id="ag" cx="480.13" cy="516.87" r="175.44" gradientTransform="matrix(.03887 -.03154 .04202 .0518 1.48 54.35)" xlink:href="#a"/><radialGradient id="af" cx="480.13" cy="516.87" r="175.44" gradientTransform="matrix(.06523 -.05292 .07501 .09245 -32.84 37.97)" xlink:href="#a"/><radialGradient id="ae" cx="457.14" cy="263.79" r="94.29" gradientTransform="rotate(-18.22 18.85 86.13) scale(.12121)" xlink:href="#a"/><radialGradient id="ad" cx="457.14" cy="263.79" r="94.29" gradientTransform="rotate(-18.23 65.66 -36.53) scale(.04243)" xlink:href="#a"/><radialGradient id="ac" cx="478.66" cy="290.04" r="372.49" gradientTransform="matrix(.09421 -.03102 .04277 .12992 -16.44 8.2)" xlink:href="#b"><stop stop-color="#5f0000" stop-opacity="0" offset="0"/><stop stop-color="red" stop-opacity="0" offset=".5"/><stop stop-color="#590000" offset="1"/></radialGradient><radialGradient id="aa" cx="462.46" cy="233.67" r="330.33" gradientTransform="matrix(.09421 -.03102 .04277 .12992 -16.44 8.2)" xlink:href="#f"/><radialGradient id="Y" cx="247.71" cy="1161.1" r="14.65" fy="1161.4" gradientTransform="matrix(.14589 .06078 -.02433 .05841 68.76 -4.21)" xlink:href="#d"/><radialGradient id="T" cx="370.71" cy="771.55" r="27.48" gradientTransform="matrix(.09373 .03905 -.03787 .09091 69 -4.77)" xlink:href="#e"/><radialGradient id="S" cx="378.57" cy="752.36" r="8.57" gradientTransform="matrix(.04986 .00218 -.00437 .0999 60.1 3.41)" xlink:href="#a"/><radialGradient id="M" cx="269.79" cy="1031.8" r="32.83" gradientTransform="matrix(.13076 .0322 -.00866 .04748 48.7 20.19)" xlink:href="#d"/><radialGradient id="L" cx="413.89" cy="440.37" r="359.54" gradientTransform="matrix(.09765 .01739 -.02398 .13466 51.6 -18.04)" xlink:href="#b"><stop stop-color="#ffdf00" stop-opacity="0" offset="0"/><stop stop-color="#ff9f00" stop-opacity="0" offset=".5"/><stop stop-color="#ff9a00" stop-opacity="0" offset=".75"/><stop stop-color="#793900" offset="1"/></radialGradient><radialGradient id="K" cx="480.13" cy="516.87" r="175.44" gradientTransform="matrix(.04918 -.00933 .01243 .06553 45.5 31.08)" xlink:href="#a"/><radialGradient id="J" cx="480.13" cy="516.87" r="175.44" gradientTransform="matrix(.08253 -.01565 .02218 .11697 23.04 .38)" xlink:href="#a"/><radialGradient id="I" cx="457.14" cy="263.79" r="94.29" gradientTransform="rotate(10.1 138.88 228.73) scale(.12122)" xlink:href="#a"/><radialGradient id="H" cx="457.14" cy="263.79" r="94.29" gradientTransform="rotate(10.1 3.22 422.15) scale(.04242)" xlink:href="#a"/><radialGradient id="G" cx="478.66" cy="290.04" r="372.49" gradientTransform="matrix(.09765 .01739 -.02398 .13466 51.6 -18.04)" xlink:href="#b"><stop stop-color="#5a5f00" stop-opacity="0" offset="0"/><stop stop-color="#ffde00" stop-opacity="0" offset=".5"/><stop stop-color="#cf9800" offset="1"/></radialGradient><radialGradient id="E" cx="462.46" cy="233.67" r="330.33" gradientTransform="matrix(.09765 .01739 -.02398 .13466 51.6 -18.04)" xlink:href="#g"/><linearGradient id="f" xlink:href="#b"><stop stop-color="#ff6134" offset="0"/><stop stop-color="red" offset="1"/></linearGradient><linearGradient id="e" xlink:href="#b"><stop stop-color="#525252" offset="0"/><stop stop-color="#d9d9d9" offset="1"/></linearGradient><linearGradient id="d" xlink:href="#b"><stop offset="0"/><stop stop-opacity="0" offset="1"/></linearGradient><linearGradient id="a" xlink:href="#b"><stop stop-color="#fff" offset="0"/><stop stop-color="#fff" stop-opacity="0" offset="1"/></linearGradient><linearGradient id="c" xlink:href="#b"><stop stop-color="#34abff" offset="0"/><stop stop-color="#0057ff" offset="1"/></linearGradient><linearGradient id="r" x1="59.1" x2="58.26" y1="75" y2="79.73" xlink:href="#c"/><linearGradient id="t" x1="57.9" x2="58.15" y1="79.82" y2="78.63" xlink:href="#d"/><linearGradient id="u" x1="57.13" x2="59.44" y1="73.27" y2="79.82" xlink:href="#d"/><linearGradient id="v" x1="57.16" x2="59.26" y1="76.88" y2="77.15" xlink:href="#d"/><linearGradient id="h" x1="60.33" x2="60.77" y1="77.86" y2="109.3" xlink:href="#e"/><linearGradient id="B" x1="56.25" x2="58.25" y1="77.15" y2="79.36" spreadMethod="reflect" xlink:href="#e"/><linearGradient id="z" x1="60.61" x2="58.28" y1="92.5" y2="92.57" spreadMethod="reflect" xlink:href="#e"/><linearGradient id="A" x1="59.06" x2="60.15" y1="75.31" y2="76.02" spreadMethod="reflect" xlink:href="#d"/><linearGradient id="g" xlink:href="#b"><stop stop-color="#ffff34" offset="0"/><stop stop-color="#ffc200" offset="1"/></linearGradient><linearGradient id="at" x1="52.35" x2="51.92" y1="81.02" y2="86.23" spreadMethod="reflect" xlink:href="#e"/><linearGradient id="as" x1="48.01" x2="49.16" y1="81.74" y2="82.34" spreadMethod="reflect" xlink:href="#d"/><linearGradient id="ar" x1="53.07" x2="55.42" y1="98.34" y2="97.72" spreadMethod="reflect" xlink:href="#e"/><linearGradient id="an" x1="48.27" x2="50.38" y1="83.34" y2="83.72" xlink:href="#d"/><linearGradient id="am" x1="48.07" x2="50.65" y1="80.29" y2="85.81" xlink:href="#d"/><linearGradient id="al" x1="49.3" x2="49.43" y1="86.35" y2="85.14" xlink:href="#d"/><linearGradient id="aj" x1="50.01" x2="49.65" y1="81.43" y2="86.22" xlink:href="#f"/><linearGradient id="Z" x1="51.53" x2="55.09" y1="84.16" y2="115.4" xlink:href="#e"/><linearGradient id="X" x1="72.41" x2="72.4" y1="77.62" y2="82.85" spreadMethod="reflect" xlink:href="#e"/><linearGradient id="W" x1="75.21" x2="75.94" y1="78.21" y2="79.29" spreadMethod="reflect" xlink:href="#d"/><linearGradient id="V" x1="70.1" x2="67.79" y1="94.7" y2="93.82" spreadMethod="reflect" xlink:href="#e"/><linearGradient id="R" x1="72.85" x2="74.68" y1="78.93" y2="79.99" xlink:href="#d"/><linearGradient id="Q" x1="73.53" x2="74.51" y1="77.25" y2="80.87" xlink:href="#d"/><linearGradient id="P" x1="72.41" x2="73.09" y1="81.94" y2="80.93" xlink:href="#d"/><linearGradient id="N" x1="75.37" x2="72.77" y1="77.44" y2="82.49" xlink:href="#g"/><linearGradient id="D" x1="75.4" x2="63.72" y1="117.04" y2="74.28" xlink:href="#e"/><linearGradient id="b" gradientUnits="userSpaceOnUse"/><path id="j" d="M77.26 29.98c3.97 17.86-6.8 43.95-17.45 46.62-10.38 2.6-31.58-16.98-35.54-34.84s4.68-35 19.31-38.25 29.72 8.61 33.68 26.47z"/><path id="s" d="M58.68 75.22a6.88 6.88 0 0 0-1.81 2.43c-.16.38-.91.5-1.32.7-.8.4-.37 1.12.4 1.12 1.04 0 2.03 0 3.04.2.75.15 1.54.1 2.32.1.8 0 .9-.53.7-.91-.17-.35-1.09-.78-1.3-1.22-.21-.4-.2-1.83-.71-2.22-.04-.03-.68-.6-1.32-.2z"/><path id="y" d="M59.82 76.28c-.03.01-.06-.01-.1-.02.7.14.02-.02.12-.16-.03-.02 0 .01-.02.02l.4-.94c.2.12.4.19.5.4.48 1.2-.27 2.09-1.54 1.54-.86-.8-.53-1.79.64-1.87z"/><path id="F" d="M109.44 43.37c-3.2 18.02-23.17 37.96-34.03 36.3C64.83 78.1 52.79 51.87 56 33.86S73.78 3.36 88.53 5.99s24.12 19.37 20.91 37.38z"/><path id="O" d="M74.9 77.99c-.7.11-2.1 1-2.61 1.54-.3.3-1.04.12-1.49.15-.88.06-.77.88-.05 1.18.96.4 1.87.78 2.72 1.35.64.43 1.38.69 2.1.99.74.3 1.04-.15 1-.57-.02-.39-.7-1.14-.74-1.62-.03-.46.53-1.77.2-2.33-.02-.04-.39-.8-1.13-.69z"/><path id="U" d="M75.54 79.4c-.04 0-.05-.03-.08-.05.6.4.02-.01.17-.1-.02-.03-.01 0-.03.01l.73-.72c.13.19.3.33.32.57-.03 1.28-1.07 1.81-2.02.83-.5-1.06.2-1.86 1.3-1.49z"/><path id="ab" d="M63.62 34.83c5.72 17.38-2.4 44.4-12.74 48.1C40.8 86.56 17.78 69.2 12.05 51.8s1.19-35.28 15.42-39.97 30.43 5.61 36.15 23z"/><path id="ak" d="M49.62 81.7a6.9 6.9 0 0 0-1.56 2.59c-.12.4-.86.6-1.24.83-.75.48-.26 1.15.51 1.07 1.03-.1 2.02-.2 3.04-.1.77.08 1.54-.05 2.32-.13.8-.08.84-.61.61-.97-.2-.33-1.16-.67-1.42-1.08-.25-.4-.37-1.8-.93-2.14-.04-.03-.73-.53-1.32-.07z"/><path id="aq" d="m48.86 82.64-.1-.02c.72.08.01-.01.1-.17-.02-.01 0 .01-.01.03l.3-.98c.2.1.41.15.55.36.58 1.14-.08 2.1-1.39 1.68-.93-.7-.71-1.73.45-1.93z"/></defs><g fill-rule="evenodd"><path d="m58.38 76.33 4.04 39.92h.7L59.4 76.23z" fill="url(#h)"/><use fill="url(#i)" opacity=".75" xlink:href="#j"/><use fill="url(#k)" xlink:href="#j"/><path d="M55.48 14.92a4 4 0 1 1-7.81 1.73 4 4 0 1 1 7.81-1.73z" fill="url(#l)"/><path d="M62.73 13.31a11.43 11.43 0 0 1-8.68 13.63 11.43 11.43 0 0 1-13.63-8.67A11.43 11.43 0 0 1 49.1 4.63a11.43 11.43 0 0 1 13.63 8.68z" fill="url(#m)" opacity=".6"/><path d="M61.58 42.57c7.07 10.75 6.66 23.5-.92 28.49s-19.45.32-26.52-10.42-6.66-23.5.92-28.48 19.45-.33 26.52 10.41z" fill="url(#n)" opacity=".53"/><path d="M60.36 52.79c3.96 6.01 3.5 13.3-1 16.28s-11.4.5-15.36-5.52-3.5-13.3 1-16.28 11.4-.5 15.36 5.52z" fill="url(#o)" opacity=".3"/><use fill="url(#p)" xlink:href="#j"/><path d="M63.13 74.38c.2.85-1.62 1.85-4.03 2.22s-4.52-.02-4.7-.87 1.62-1.85 4.03-2.23 4.52.02 4.7.88z" fill="url(#q)" opacity=".3"/><use fill="url(#r)" xlink:href="#s"/><use fill="url(#t)" xlink:href="#s"/><use fill="url(#u)" opacity=".47" xlink:href="#s"/><use fill="url(#v)" opacity=".51" xlink:href="#s"/><path d="M60.35 76.08c.17.45.12.87-.1.95s-.54-.21-.7-.66-.11-.87.1-.95.54.21.7.66z" fill="url(#w)" opacity=".47"/></g><use fill="url(#x)" xlink:href="#y"/><path d="M60.31 86.6c1.95 3.26-3.94 3.3-3.8 6.74.14 3.49 3.15 1.98 5 5.03l.14 1.21c-2.72-3.8-5.2-2.76-5.32-6.17s4.49-4.55 4.06-6.18z" fill="url(#z)"/><use fill="url(#A)" xlink:href="#y"/><path d="M60.64 75.36c-.97 2.22-1.3.14-2.13.27-1.27 0-3.21.63-3.9 1.66a4.79 4.79 0 0 0-.57 4.77c.75 1.9 2.95 2.57 5.35 3.93l.03.4c-1.82-1.43-4.87-1.5-5.9-3.65-1.02-2.19-.95-3.96 1.03-5.87 1.04-.97 2.28-1.76 3.75-1.8z" fill="url(#B)"/><path d="M60.64 75.36c-.97 2.22-1.3.14-2.13.27-1.27 0-1.68-.52-.21-.55z" fill="url(#C)" opacity=".64"/><g fill-rule="evenodd"><path d="M74.56 79.06 62.8 116.43l1.03.23L75.16 79.2z" fill="url(#D)"/><use fill="url(#E)" opacity=".75" xlink:href="#F"/><use fill="url(#G)" xlink:href="#F"/><path d="M95.13 21.09a4 4 0 1 1-7.88-1.4 4 4 0 1 1 7.88 1.4z" fill="url(#H)"/><path d="M102.44 22.4a11.43 11.43 0 0 1-13.26 9.24 11.43 11.43 0 0 1-9.24-13.25 11.43 11.43 0 0 1 13.25-9.25 11.43 11.43 0 0 1 9.25 13.25z" fill="url(#I)" opacity=".6"/><path d="M90.13 48.97c2.4 12.63-2.9 24.25-11.8 25.94s-18.09-7.19-20.48-19.82 2.88-24.25 11.8-25.94 18.08 7.18 20.48 19.82z" fill="url(#J)" opacity=".53"/><path d="M85.07 57.92c1.34 7.08-1.88 13.64-7.19 14.64s-10.7-3.91-12.05-10.99 1.88-13.63 7.19-14.64 10.7 3.91 12.05 11z" fill="url(#K)" opacity=".3"/><use fill="url(#L)" xlink:href="#F"/><path d="M79.33 78.92c-.16.86-2.2 1.09-4.58.5s-4.16-1.75-4-2.61 2.2-1.09 4.57-.5 4.17 1.75 4.01 2.61z" fill="url(#M)" opacity=".3"/><use fill="url(#N)" xlink:href="#O"/><use fill="url(#P)" xlink:href="#O"/><use fill="url(#Q)" opacity=".47" xlink:href="#O"/><use fill="url(#R)" opacity=".51" xlink:href="#O"/><path d="M76.1 79.42c-.01.48-.22.85-.46.84s-.4-.4-.4-.87.23-.85.47-.84.4.4.4.87z" fill="url(#S)" opacity=".47"/></g><use fill="url(#T)" xlink:href="#U"/><path d="M72.1 89.15c.55 3.76-4.98 1.5-6.18 4.73-1.2 3.27 2.22 3.07 2.76 6.6l-.34 1.17c-1.05-4.55-3.82-4.59-2.6-7.77s5.95-2.45 6.19-4.12z" fill="url(#V)"/><use fill="url(#W)" xlink:href="#U"/><path d="M76.65 78.86c-1.75 1.68-1.25-.36-2.07-.56-1.17-.5-3.2-.65-4.23.03a4.8 4.8 0 0 0-2.36 4.2c-.05 2.04 1.94 3.6 3.64 5.77l-.13.38c-1.13-2.02-4.14-3.34-4.24-5.72-.1-2.42.63-4.03 3.2-5.03 1.33-.5 2.78-.75 4.14-.21z" fill="url(#X)"/><path d="M76.65 78.86c-1.75 1.68-1.25-.36-2.07-.56-1.17-.5-1.34-1.13.02-.6z" fill="url(#Y)" opacity=".64"/><g fill-rule="evenodd"><path d="m49.63 82.8 7.14 33.98.9.1-7.24-34.24z" fill="url(#Z)"/><use fill="url(#aa)" opacity=".75" xlink:href="#ab"/><use fill="url(#ac)" xlink:href="#ab"/><path d="M40.44 22a4 4 0 1 1-7.6 2.51 4 4 0 1 1 7.6-2.5z" fill="url(#ad)"/><path d="M47.5 19.68a11.43 11.43 0 0 1-7.28 14.43 11.43 11.43 0 0 1-14.43-7.28 11.43 11.43 0 0 1 7.28-14.43 11.43 11.43 0 0 1 14.43 7.28z" fill="url(#ae)" opacity=".6"/><path d="M49.26 48.92c8.1 9.99 8.96 22.72 1.92 28.43s-19.33 2.26-27.43-7.73-8.96-22.71-1.92-28.43 19.33-2.26 27.43 7.73z" fill="url(#af)" opacity=".53"/><path d="M49.06 59.2c4.54 5.6 4.82 12.9.62 16.3s-11.29 1.64-15.83-3.96-4.81-12.89-.61-16.3 11.28-1.63 15.82 3.96z" fill="url(#ag)" opacity=".3"/><use fill="url(#ah)" xlink:href="#ab"/><path d="M53.97 80.41c.27.83-1.43 2-3.79 2.61s-4.5.43-4.77-.4 1.43-2 3.79-2.61 4.5-.43 4.77.4z" fill="url(#ai)" opacity=".3"/><use fill="url(#aj)" xlink:href="#ak"/><use fill="url(#al)" xlink:href="#ak"/><use fill="url(#am)" opacity=".47" xlink:href="#ak"/><use fill="url(#an)" opacity=".51" xlink:href="#ak"/><path d="M49.37 82.38c.2.43.2.86-.01.96s-.55-.16-.76-.58-.2-.86.01-.96.55.16.76.58z" fill="url(#ao)" opacity=".47"/></g><use fill="url(#ap)" xlink:href="#aq"/><path d="M51.46 90.8c-.95 3.69 4.98 3.82 5.83 7.17.86 3.38-2.85.21-3.76 3.67l.21 1.2c1.53-4.42 4.6-1.56 3.74-4.86s-5.87-4.87-5.92-6.55z" fill="url(#ar)"/><use fill="url(#as)" xlink:href="#aq"/><path d="M48.01 81.9c1.61 1.82 1.28-.25 2.11-.4 1.22-.39 3.26-.38 4.22.39a4.79 4.79 0 0 1 2 4.37c-.12 2.04-2.63 1.42-4.5 3.45l.09.39c1.3-1.92 4.8-.99 5.1-3.35.3-2.4-.3-4.07-2.76-5.28-1.3-.6-2.72-.98-4.12-.56z" fill="url(#at)"/><path d="M49.59 81.63c-.76 2.3-1.28.28-2.1.49-1.26.12-1.72-.36-.26-.53z" fill="url(#au)" opacity=".64"/></svg>