<!-- Generator: Adobe Illustrator 19.0.0, SVG Export Plug-In . SVG Version: 6.00 Build 0)  -->
<svg id="Layer_1" width="320" height="320" version="1.1" viewBox="0 0 320 320" xml:space="preserve" xmlns="http://www.w3.org/2000/svg" xmlns:cc="http://creativecommons.org/ns#" xmlns:dc="http://purl.org/dc/elements/1.1/" xmlns:rdf="http://www.w3.org/1999/02/22-rdf-syntax-ns#"><metadata id="metadata49"><rdf:RDF><cc:Work rdf:about=""><dc:format>image/svg+xml</dc:format><dc:type rdf:resource="http://purl.org/dc/dcmitype/StillImage"/><dc:title/></cc:Work></rdf:RDF></metadata>




















<rect id="rect837" y="3.6769" width="320" height="313.34" rx="16.072" ry="17.408" fill="#aad2ff" style="paint-order:stroke fill markers"/><path id="path4" d="m14.144 183.3v77.796c0 5.521 5.786 10.038 12.858 10.038h267.44c7.0719 0 12.858-4.5171 12.858-10.038v-77.796z" fill="#333" stroke-width=".54364"/><path id="path2" d="m198.36 38.389h-77.209c-9.2262 0-16.995 6.0655-16.995 13.268v37.152h111.2v-37.152c-4.7e-4 -7.2029-7.7698-13.268-16.996-13.268zm2.4277 39.047h-82.065v-25.779c0-1.1374 0.97128-1.8953 2.4277-1.8953h77.209c1.4569 0 2.4277 0.75828 2.4277 1.8953v25.779z" fill="#333" stroke-width=".41062"/><path id="polygon6" d="m104.16 64.927v23.882h111.2v-23.882h-14.568v23.841h-82.065v-23.841z" fill="#ffd345" stroke-width=".41062"/><path id="path8" d="m302.16 72.885h-282.87c-7.0719 0-12.858 4.5171-12.858 10.038v95.363c0 5.521 5.786 10.038 12.858 10.038h282.87c7.0719 0 12.858-4.5171 12.858-10.038v-95.363c0-5.5211-5.786-10.038-12.858-10.038z" fill="#4d4d4d" stroke-width=".54364"/><path id="path10" d="m160.72 203.88c-9.6431 0-17.358-6.023-17.358-13.551v-2.0078h34.716v2.0078c0 7.5284-7.7149 13.551-17.358 13.551z" fill="#ffd345" stroke-width=".54364"/><path id="path12" d="m166.51 172.76h-10.929c-9.6431 0-17.358 6.023-17.358 13.551v2.0078h45.646v-2.0078c-6.2e-4 -7.5284-7.7155-13.551-17.359-13.551z" fill="#ffed6c" stroke-width=".54364"/>
</svg>
