<svg width="320" height="320" xmlns="http://www.w3.org/2000/svg" xmlns:xlink="http://www.w3.org/1999/xlink"><defs><linearGradient id="A" x1="10.178" x2="10.178" y1="7.508" y2="23.433" gradientUnits="userSpaceOnUse"><stop stop-color="#0d5206" offset="0"/><stop stop-color="#688963" offset="1"/></linearGradient><filter id="B" x="-.051" y="-.505" width="1.101" height="2.01"><feGaussianBlur stdDeviation=".421"/></filter><path id="C" d="M5.335 9.043c.127-.377.78-.928 1.282-1.143.36-.154.437-.238.52.173.186.93-1.03 2.653-1.524 3.395-.257.385-.436.713 0 .277.71-.71 2.064-1.9 3.153-1.628.066.016.018.037.035.07"/></defs><g transform="matrix(13.998 0 0 13.998 6.0202 4.7218)"><path transform="matrix(1.0381 0 0 .70551 -.41921 6.0457)" d="M1 17h20v2H1z" filter="url(#B)" opacity=".67"/><path d="M1 3h20v16H1z" fill="#6e4c13"/><path d="M2 4h18v14H2z" fill="#d8a756"/><path d="M3 5h16v12H3z" fill="url(#A)"/><path d="M3 16h16v1H3z" fill="#c4c4c4"/><path d="M3 5v11h.5V6h15v10h.5V5H4z" opacity=".595"/><g fill="none" stroke-linejoin="round"><g stroke="#fff"><g stroke-linecap="round"><use opacity=".9" xlink:href="#C"/><use x="8" opacity=".9" xlink:href="#C"/></g><path d="M10.806 9.665v1.22l-1.063.03c.013.04.515.042 1.063.03.012.27.06.544.125.78l-.062-.78 1.188-.03c.182 0 .397-.02.563-.062l-1.75.03z" opacity=".845"/></g><path transform="rotate(15)" d="m9.506 12.125h2v7h-2z" opacity=".395" stroke="#000"/></g><path d="M5.94 13.86l1.932.518-1.812 6.76-1.932-.518z" fill="#fff"/></g></svg>
