<svg xmlns="http://www.w3.org/2000/svg" xmlns:xlink="http://www.w3.org/1999/xlink" width="320" height="320"><style><![CDATA[.B{fill-rule:evenodd}.C{opacity:.61}.D{opacity:.644}.E{filter:url(#i)}.F{opacity:.772}.G{filter:url(#S)}.H{stroke-linejoin:round}.I{stroke-dashoffset:4}.J{filter:url(#e)}.K{filter:url(#g)}]]></style><defs><linearGradient id="A" xlink:href="#AI"><stop offset="0" stop-color="#7e0000"/><stop offset="1" stop-color="#673400" stop-opacity="0"/></linearGradient><linearGradient id="B" xlink:href="#AI"><stop offset="0" stop-color="#faff64"/><stop offset="1" stop-color="#faff64" stop-opacity="0"/></linearGradient><linearGradient id="C" xlink:href="#AI"><stop offset="0" stop-color="#fffc07"/><stop offset="1" stop-color="#fffc07" stop-opacity="0"/></linearGradient><linearGradient id="D" xlink:href="#AI"><stop offset="0" stop-color="#fff"/><stop offset="1" stop-color="#fff" stop-opacity="0"/></linearGradient><linearGradient id="E" xlink:href="#AI"><stop offset="0" stop-color="#f4ff3f"/><stop offset="1" stop-color="#fff" stop-opacity="0"/></linearGradient><linearGradient id="F" xlink:href="#AI"><stop offset="0" stop-color="#ff0"/><stop offset="1" stop-color="#f07800"/></linearGradient><linearGradient id="G" xlink:href="#AI"><stop offset="0" stop-color="#fff"/><stop offset="1" stop-color="#fff" stop-opacity="0"/></linearGradient><linearGradient id="H" x1="95.693" y1="141.174" x2="32.309" y2="77.789" xlink:href="#AI"><stop offset="0" stop-color="#ffc60a"/><stop offset="1" stop-color="#b03b00"/></linearGradient><radialGradient xlink:href="#F" id="I" cx="69.527" cy="60.116" fx="69.527" fy="89.656" r="111.654" gradientTransform="matrix(0.9439139,-0.3301918,0.332644,0.9509241,-16.097695,27.249949)"/><linearGradient xlink:href="#D" id="J" x1="123.18" y1="-126.417" x2="123.18" y2="94.254"/><linearGradient xlink:href="#G" id="K" x1="223.73" y1="77.531" x2="162.406" y2="30.989"/><linearGradient xlink:href="#D" id="L" x1="177.424" y1="22.378" x2="177.601" y2="93.023"/><linearGradient xlink:href="#C" id="M" x1="64.886" y1="122.587" x2="64.886" y2="37.97"/><filter id="N"><feGaussianBlur stdDeviation=".559"/></filter><filter id="O"><feGaussianBlur stdDeviation=".112"/></filter><linearGradient xlink:href="#D" id="P" x1="63.949" y1="12.034" x2="67.219" y2="12.034" spreadMethod="reflect"/><filter id="Q" x="-.178" width="1.356" y="-.155" height="1.31"><feGaussianBlur stdDeviation=".463"/></filter><linearGradient xlink:href="#B" id="R" x1="28.638" y1="120.85" x2="31.289" y2="122.087" spreadMethod="reflect"/><filter id="S"><feGaussianBlur stdDeviation=".183"/></filter><linearGradient xlink:href="#B" id="T" spreadMethod="reflect" x1="28.638" y1="120.85" x2="31.289" y2="122.087"/><radialGradient xlink:href="#A" id="U" cx="64.353" cy="98.207" fx="64.353" fy="98.207" r="60.701" gradientTransform="matrix(0.22839555,-7.4142215e-8,1.1301817e-7,0.34815316,146.03299,38.861884)"/><linearGradient xlink:href="#H" id="V" x1="160.54" y1="-232.359" x2="160.54" y2="104.32"/><filter id="W"><feGaussianBlur stdDeviation=".237"/></filter><radialGradient xlink:href="#H" id="X" cx="64.08" cy="66.197" fx="64.08" fy="66.197" r="60.701" gradientTransform="matrix(1,0,0,0.9554688,0,2.9478533)"/><radialGradient xlink:href="#A" id="Y" gradientTransform="matrix(0.4443044,1.2598841e-8,0,0.1825067,35.563425,89.646593)" cx="64.353" cy="106.713" fx="64.353" fy="106.713" r="60.701"/><filter id="Z"><feGaussianBlur stdDeviation=".266"/></filter><radialGradient xlink:href="#A" id="a" cx="26.574" cy="73.493" fx="35.588" fy="102.799" r="60.701" gradientTransform="matrix(4.6812453,-5.2700969e-7,3.571426e-8,0.3172375,-85.242554,44.725131)"/><filter id="b"><feGaussianBlur stdDeviation=".379"/></filter><radialGradient xlink:href="#E" id="c" cx="64.102" cy="48.703" fx="64.102" fy="48.703" r="56.812" gradientTransform="matrix(2.499994,0,0,1.6192206,0.34155458,-153.89466)"/><radialGradient xlink:href="#G" id="d" cx="121.586" cy="52.855" fx="121.586" fy="52.855" r="3.188" gradientTransform="matrix(2.2248115,-0.5961364,0.2773621,1.0351295,-163.57967,70.62501)"/><filter id="e" x="-.182" width="1.364" y="-.168" height="1.336"><feGaussianBlur stdDeviation=".408"/></filter><radialGradient xlink:href="#G" id="f" gradientTransform="matrix(1.2538745,-0.4598801,0.2575547,0.7022291,-43.321636,71.69735)" cx="122.694" cy="52.672" fx="122.558" fy="51.026" r="3.188"/><filter id="g" x="-.115" width="1.231" y="-.106" height="1.213"><feGaussianBlur stdDeviation=".258"/></filter><radialGradient xlink:href="#G" id="h" gradientTransform="matrix(2.2248115,-0.5961364,0.2773621,1.0351295,-163.57967,70.62501)" cx="121.586" cy="52.855" fx="121.586" fy="52.855" r="3.188"/><filter id="i"><feGaussianBlur stdDeviation=".242"/></filter><radialGradient xlink:href="#E" id="j" gradientTransform="matrix(1,0,0,0.75,0,9.9581557)" cx="41.233" cy="39.833" fx="41.41" fy="44.37" r="8.132"/><radialGradient xlink:href="#H" id="k" gradientTransform="matrix(1,0,0,0.9554688,0,2.9478533)" cx="64.08" cy="66.197" fx="64.08" fy="66.197" r="60.701"/><radialGradient xlink:href="#F" id="l" gradientTransform="matrix(0.9439139,-0.3301918,0.332644,0.9509241,-16.097695,27.249949)" cx="69.527" cy="60.116" fx="69.527" fy="89.656" r="111.654"/><linearGradient xlink:href="#D" id="m" x1="63.949" y1="12.034" x2="67.219" y2="12.034" spreadMethod="reflect"/><radialGradient xlink:href="#E" id="n" gradientTransform="matrix(2.499994,0,0,1.6192206,0.34155458,-153.89466)" cx="64.102" cy="48.703" fx="64.102" fy="48.703" r="56.812"/><linearGradient xlink:href="#D" id="o" x1="123.18" y1="-126.417" x2="123.18" y2="94.254"/><linearGradient xlink:href="#D" id="p" x1="177.424" y1="22.378" x2="177.601" y2="93.023"/><linearGradient xlink:href="#B" id="q" x1="28.638" y1="120.85" x2="31.289" y2="122.087" spreadMethod="reflect"/><radialGradient xlink:href="#A" id="r" gradientTransform="matrix(0.22839555,-7.4142215e-8,1.1301817e-7,0.34815316,146.03299,38.861884)" cx="64.353" cy="98.207" fx="64.353" fy="98.207" r="60.701"/><linearGradient xlink:href="#C" id="s" x1="64.886" y1="122.587" x2="64.886" y2="37.97"/><radialGradient xlink:href="#A" id="t" gradientTransform="matrix(4.6812453,-5.2700969e-7,3.571426e-8,0.3172375,-85.242554,44.725131)" cx="26.574" cy="73.493" fx="35.588" fy="102.799" r="60.701"/><path id="u" d="M64.03 8.2C56.163 8.2 46.83 34.754 40.47 39.388S5.984 44.776 3.563 52.263s19.903 24.55 22.344 32.03-5.497 34.446.875 39.063 29.507-11.334 37.375-11.344 31.046 15.883 37.406 11.25-1.672-31.576.75-39.062 24.722-24.614 22.28-32.094-30.566-8.164-36.937-12.78S71.9 8.2 64.03 8.2zm0 3.906c.177.14 1.537.806 3.125 2.75 1.815 2.222 3.875 5.554 5.906 9.094l6.03 10.563c1.98 3.264 3.66 6.016 6.313 7.938s5.782 2.666 9.5 3.53 7.9 1.6 11.906 2.438 7.792 1.748 10.47 2.78c2.342.904 3.437 2 3.625 2.125-.08.208-.33 1.67-1.687 3.78-1.552 2.413-4.073 5.412-6.812 8.438l-8.187 9c-2.492 2.89-4.586 5.354-5.594 8.47s-.733 6.322-.406 10.125.896 8.037 1.344 12.094.75 7.948.594 10.813c-.136 2.507-.815 3.847-.875 4.063-.224-.008-1.728.264-4.156-.375-2.775-.73-6.4-2.236-10.125-3.906l-11.094-5c-3.52-1.477-6.476-2.692-9.75-2.687s-6.265 1.233-9.78 2.72-7.343 3.352-11.062 5.03-7.352 3.17-10.125 3.906c-2.426.645-3.9.397-4.125.406-.058-.214-.764-1.556-.906-4.062-.163-2.864.125-6.755.563-10.812L30.03 93.23c.317-3.804.578-7.044-.437-10.156s-3.125-5.552-5.625-8.437-5.44-5.95-8.187-8.97-5.286-5.997-6.844-8.406C7.574 55.154 7.36 53.657 7.28 53.45c.015.088.987-1.123 3.563-2.125 2.674-1.04 6.506-1.975 10.5-2.812l11.906-2.437c3.716-.874 6.854-1.635 9.5-3.562s4.3-4.7 6.28-7.97 3.978-7.017 6-10.563 4.065-6.9 5.875-9.125c1.584-1.948 2.95-2.612 3.125-2.75z"/><path id="v" d="M153.094 94.714c-8.557 12.383-60.478-1.7-74.68 3.288s-45.91 48.446-60.333 44.134S1.01 84.092-8.122 72.127-68.384 43.434-68.74 28.385-18.813-5.787-10.255-18.17s8.667-66.18 22.87-71.168 47.928 36.924 62.35 41.236 65.62-12.208 74.75-.242-20.306 56.992-19.95 72.04 31.887 58.635 23.33 71.018z"/><path id="w" d="M160.42-176.79c-19.67.025-43.007 66.386-58.906 77.97S15.303-85.35 9.248-66.635s49.757 61.377 55.86 80.078-13.74 86.114 2.187 97.656 73.766-28.334 93.437-28.36 77.616 39.708 93.515 28.125-4.18-78.94 1.875-97.656 61.805-61.534 55.703-80.234-76.415-20.41-92.344-31.953-39.39-77.837-59.062-77.812zm0 9.766c.442.348 3.84 2.015 7.812 6.875 4.54 5.554 9.688 13.884 14.766 22.734L198.075-111c4.95 8.16 9.153 15.04 15.78 19.844s14.455 6.666 23.75 8.828 19.774 4.025 29.766 6.094 19.48 4.37 26.172 6.953c5.855 2.26 8.593 5.002 9.062 5.312-.2.52-.824 4.174-4.22 9.453-3.88 6.033-10.184 13.53-17.03 21.094l-20.47 22.5c-6.23 7.228-11.465 13.384-13.984 21.172s-1.832 15.804-1.016 25.312 2.24 20.093 3.36 30.234 1.873 19.87 1.484 27.03c-.34 6.267-2.037 9.618-2.187 10.156-.56-.02-4.32.66-10.39-.937-6.936-1.826-16.003-5.59-25.312-9.766l-27.734-12.5c-8.8-3.692-16.2-6.73-24.375-6.72s-15.662 3.083-24.453 6.797-18.357 8.38-27.656 12.578-18.38 7.922-25.312 9.766c-6.065 1.613-9.75.993-10.312 1.016-.146-.534-1.91-3.9-2.266-10.156-.407-7.16.312-16.887 1.406-27.03l3.28-30.234c.792-9.5 1.445-17.6-1.094-25.39s-7.814-13.88-14.062-21.094S46.66-25.573 39.795-33.12 26.58-48.112 22.685-54.135c-3.408-5.27-3.946-9.013-4.14-9.53.037.22 2.467-2.808 8.906-5.312 6.685-2.6 16.264-4.937 26.25-7.03l29.766-6.094C92.756-84.3 100.6-86.19 107.216-91s10.774-11.75 15.703-19.922 9.945-17.543 15-26.406 10.163-17.247 14.687-22.812c3.96-4.87 7.378-6.53 7.812-6.875z"/><path id="x" d="M60.988 9.47c1.86-1.257 3.902-1.45 6.23 0l-3.182 6.143z"/><path id="y" d="M160.44-167.026c-.434.346-3.854 2.005-7.812 6.875-4.524 5.566-9.632 13.95-14.687 22.812l-15 26.406C118-102.76 113.85-95.83 107.236-91s-14.46 6.72-23.75 8.906-19.78 4-29.766 6.094-19.565 4.43-26.25 7.03c-6.44 2.504-8.87 5.532-8.906 5.312.195.518.732 4.26 4.14 9.53 3.895 6.023 10.243 13.47 17.11 21.016l20.47 22.422c6.25 7.213 11.523 13.313 14.062 21.094.66 2.02 1.046 4.09 1.328 6.172l18.203.39c67.606 0 128.9-13.482 173.75-35.39l13.75-15c6.848-7.564 13.15-15.06 17.03-21.094 3.395-5.28 4.02-8.933 4.22-9.453-.47-.31-3.207-3.052-9.062-5.312-6.69-2.583-16.18-4.884-26.172-6.953l-29.766-6.094c-9.295-2.162-17.122-4.026-23.75-8.828S203.044-102.85 198.095-111s-10-17.556-15.078-26.406-10.227-17.18-14.766-22.734c-3.97-4.86-7.37-6.527-7.812-6.875z"/><path id="z" d="M44.96 33.934l-.78 1.27c-.004.007-.01.013-.014.02l-1.344 1.72-1.285 1.537c-.008.01-.017.02-.027.027l-1.47 1.22c-.015.012-.033.022-.05.03l-2.875 1.28c-.01.005-.02.01-.03.012l-3.21.9-.53 3.71c.594-.142 4.846-1.42 6.38-1.916 1.037-.565 5.085-3.67 6.072-4.656l3.193-5.068z"/><path id="AA" d="M196.344 11.906c-.174.138-1.54.802-3.125 2.75-1.8 2.226-3.853 5.58-5.875 9.125l-6 10.563c-1.97 3.27-3.635 6.04-6.28 7.97s-5.784 2.688-9.5 3.563-7.912 1.6-11.906 2.438-7.826 1.772-10.5 2.813c-2.576 1.002-3.548 2.213-3.562 2.125.03.08.122.39.25.813.416-.363 1.416-1.2 3.313-1.937 2.674-1.04 6.506-1.975 10.5-2.812l11.906-2.437c3.716-.874 6.854-1.635 9.5-3.562s4.3-4.7 6.28-7.97 3.978-7.017 6-10.562 4.065-6.9 5.875-9.125c1.584-1.948 2.95-2.612 3.125-2.75.177.14 1.537.806 3.125 2.75 1.815 2.222 3.875 5.554 5.906 9.094l6.03 10.563c1.98 3.264 3.66 6.016 6.313 7.938s5.782 2.666 9.5 3.53 7.9 1.6 11.906 2.438 7.792 1.748 10.47 2.78c1.92.74 2.976 1.58 3.406 1.938.134-.415.188-.733.22-.812-.188-.124-1.283-1.22-3.625-2.125-2.677-1.033-6.472-1.954-10.47-2.78L227.22 45.78c-3.718-.865-6.85-1.6-9.5-3.53s-4.333-4.674-6.312-7.937-4-7.023-6.03-10.562-4.09-6.872-5.906-9.094c-1.588-1.944-2.948-2.61-3.125-2.75z"/><path id="AB" d="M246.78 49.938l1.813.656c2.342.904 3.437 2 3.625 2.125-.08.208-.33 1.67-1.687 3.78-1.552 2.413-4.073 5.412-6.812 8.438l-5.5 6c-17.94 8.763-42.458 14.156-69.5 14.156-2.124 0-4.223-.054-6.312-.125.012.083.02.167.03.25l7.28.156c27.042 0 51.56-5.393 69.5-14.156l5.5-6c2.74-3.026 5.26-6.024 6.813-8.437 1.358-2.11 1.607-3.573 1.688-3.78-.188-.124-1.283-1.22-3.625-2.125-.835-.322-1.787-.636-2.812-.937z"/><path id="AC" d="M25.19 119.78c1.224 2.962 2.05 4.34 6.1 3.536l-.65-3.105-1.56.19-.818-1.825z"/><path id="AD" d="M65.42 38.833c-2.62 27.16-9.53 64.002 1.875 72.265 15.93 11.542 73.766-28.334 93.437-28.36s77.616 39.708 93.515 28.125c11.35-8.27 4.364-44.902 1.64-72.03H246.2c.835 8.643 2.052 17.944 3.047 26.953 1.12 10.14 1.873 19.87 1.484 27.03-.34 6.267-2.037 9.618-2.187 10.156-.56-.02-4.32.66-10.39-.937-6.936-1.826-16.003-5.59-25.312-9.766l-27.734-12.5c-8.8-3.692-16.2-6.73-24.375-6.72s-15.662 3.083-24.453 6.797-18.357 8.38-27.656 12.578-18.38 7.922-25.312 9.766c-6.065 1.613-9.75.993-10.312 1.016-.146-.534-1.91-3.9-2.266-10.156-.407-7.16.312-16.887 1.406-27.03l2.97-27.187z"/><path id="AE" d="M64.125 11.906c-.174.138-1.54.802-3.125 2.75-1.8 2.226-3.853 5.58-5.875 9.125l-6 10.563c-1.97 3.27-3.635 6.04-6.28 7.97s-5.784 2.688-9.5 3.563-7.912 1.6-11.906 2.438-7.826 1.772-10.5 2.813C8.362 52.127 7.4 53.338 7.375 53.25c.078.207.293 1.704 1.656 3.813 1.558 2.41 4.097 5.388 6.844 8.406l8.188 8.97c2.5 2.885 4.61 5.325 5.625 8.438s.754 6.352.438 10.156-.875 8.036-1.312 12.094-.725 7.948-.562 10.813c.142 2.506.848 3.85.906 4.063.224-.01 1.7.24 4.125-.406 2.773-.737 6.405-2.227 10.125-3.906l11.063-5.03c3.516-1.486 6.507-2.715 9.78-2.72s6.23 1.21 9.75 2.688 7.37 3.33 11.094 5 7.35 3.176 10.125 3.906c2.428.64 3.932.367 4.156.375.06-.215.74-1.556.875-4.062.156-2.865-.146-6.756-.594-10.812l-1.344-12.094c-.326-3.803-.602-7 .406-10.125s3.102-5.577 5.594-8.47 5.448-5.974 8.188-9 5.26-6.024 6.813-8.437c1.358-2.11 1.607-3.573 1.688-3.78-.188-.124-1.283-1.22-3.625-2.125-2.677-1.033-6.472-1.954-10.47-2.78L95 45.78c-3.718-.865-6.85-1.6-9.5-3.53s-4.333-4.674-6.312-7.937-4-7.023-6.03-10.562-4.09-6.872-5.906-9.094c-1.588-1.944-2.948-2.61-3.125-2.75z"/><path id="AF" d="M122.345 49.938l-3.447 3.005.707 2.033 4.33.795c.333-1.945 1.028-3.89-1.59-5.834z"/><path id="AG" d="M26.03 94.25c-1.047 10.864-3.812 25.6.75 28.906 6.372 4.617 29.507-12.334 37.375-12.344s31.046 16.883 37.406 12.25c4.54-3.308 1.746-17.96.656-28.812h-3.875c.334 3.457.82 7.178 1.22 10.78.448 4.057.75 7.948.594 10.813-.136 2.507-.815 3.847-.875 4.063-.224-.008-1.728.264-4.156-.375-2.775-.73-6.4-2.236-10.125-3.906l-11.094-5c-3.52-1.477-6.476-2.692-9.75-2.687s-6.265 1.233-9.78 2.72-7.343 3.352-11.062 5.03-7.352 3.17-10.125 3.906c-2.426.645-3.9.397-4.125.406-.058-.214-.764-1.556-.906-4.062-.163-2.864.125-6.755.563-10.812l1.188-10.875z"/><path id="AH" d="M3.97 51.25c-.162.263-.315.53-.406.813C1.4 58.714 18.792 72.917 24.406 81.25c.66.97 1.476 2.3 1.746 3.8 1.505-.302 3.424-2.41 2.754-3.8-1.138-2.374-2.894-4.454-4.937-6.812-2.5-2.885-5.44-5.95-8.187-8.97s-5.286-5.997-6.844-8.406C7.574 54.954 7.36 53.457 7.28 53.25c.014.084.915-1.027 3.25-2zm113.906 0c1.924.845 2.86 1.762 3.03 1.875-.08.208-.33 1.67-1.687 3.78-1.552 2.413-4.073 5.412-6.812 8.438l-8.187 9c-2.057 2.387-3.84 4.496-4.97 6.906-.86 2.44 1.94 3.5 2.84 3.58.33-1.456.986-2.53 1.66-3.58 5.533-8.336 23.02-22.674 20.844-29.344-.073-.225-.194-.443-.312-.656z"/><linearGradient id="AI" gradientUnits="userSpaceOnUse"/></defs><g transform="translate(0 192)"><use xlink:href="#u" transform="matrix(2.499994 0 0 2.499994 .341555 -196.79108)" fill="url(#k)" filter="url(#W)"/><use xlink:href="#v" transform="matrix(1.233551 .43151 -.43151 1.233551 106.28599 -72.020037)" fill="url(#l)"/><use xlink:href="#w" fill="url(#V)"/><use xlink:href="#x" transform="matrix(2.499994 0 0 2.499994 .341555 -196.79108)" fill="url(#m)" filter="url(#Q)" class="B"/><use xlink:href="#y" fill="url(#n)"/><use xlink:href="#z" transform="matrix(2.499994 0 0 2.499994 .341555 -196.04108)" fill="url(#j)" class="B D E"/><use xlink:href="#y" fill="url(#o)"/><use xlink:href="#z" transform="matrix(-2.499994 0 0 2.499994 320.65329 -196.04108)" fill="url(#j)" class="B D E"/><g transform="matrix(2.499994 0 0 2.499994 -330.40585 -196.79108)"><use xlink:href="#AA" fill="url(#p)"/><use xlink:href="#AB" fill="url(#K)"/></g><use xlink:href="#AC" transform="matrix(2.499994 0 0 2.499994 .341555 -196.79108)" fill="url(#q)" class="B F G"/><use xlink:href="#AD" fill="url(#r)"/><use xlink:href="#AE" transform="matrix(2.499994 0 0 2.499994 .341555 -196.79108)" fill="none" stroke="url(#s)" filter="url(#N)" class="H I"/><g transform="matrix(-2.499994 0 0 2.499994 320.77016 -196.79108)" class="B"><use xlink:href="#AF" fill="url(#h)" class="C J"/><use xlink:href="#AF" fill="url(#f)" class="C K"/></g><g transform="matrix(2.499994 0 0 2.499994 .341555 -196.79108)"><g class="B"><use xlink:href="#AF" fill="url(#h)" class="C J"/><use xlink:href="#AF" fill="url(#f)" class="C K"/></g><use xlink:href="#AE" fill="none" stroke="url(#s)" stroke-width=".6" filter="url(#O)" class="H I"/></g><use xlink:href="#AC" transform="matrix(-2.499994 0 0 2.499994 320.60366 -196.79108)" fill="url(#q)" class="B F G"/><g transform="matrix(2.499994 0 0 2.499994 .341555 -196.79108)"><use xlink:href="#AG" fill="url(#Y)" filter="url(#Z)"/><use xlink:href="#AH" opacity=".842" fill="url(#t)" filter="url(#b)"/><use xlink:href="#u" fill="url(#X)" filter="url(#W)"/></g><use xlink:href="#v" transform="matrix(1.233551 .43151 -.43151 1.233551 106.28599 -72.020037)" fill="url(#I)"/><use xlink:href="#w" fill="url(#V)"/><use xlink:href="#x" transform="matrix(2.499994 0 0 2.499994 .341555 -196.79108)" fill="url(#P)" filter="url(#Q)" class="B"/><use xlink:href="#y" fill="url(#c)"/><use xlink:href="#z" transform="matrix(2.499994 0 0 2.499994 .341555 -196.04108)" fill="url(#j)" class="B D E"/><use xlink:href="#y" fill="url(#J)"/><use xlink:href="#z" transform="matrix(-2.499994 0 0 2.499994 320.65329 -196.04108)" fill="url(#j)" class="B D E"/><g transform="matrix(2.499994 0 0 2.499994 -330.40585 -196.79108)"><use xlink:href="#AA" fill="url(#L)"/><use xlink:href="#AB" fill="url(#K)"/></g><use xlink:href="#AC" transform="matrix(2.499994 0 0 2.499994 .341555 -196.79108)" fill="url(#R)" class="B F G"/><use xlink:href="#AD" fill="url(#U)"/><use xlink:href="#AE" transform="matrix(2.499994 0 0 2.499994 .341555 -196.79108)" fill="none" stroke="url(#s)" filter="url(#N)" class="H I"/><g transform="matrix(-2.499994 0 0 2.499994 320.77016 -196.79108)" class="B"><use xlink:href="#AF" fill="url(#h)" class="C J"/><use xlink:href="#AF" fill="url(#f)" class="C K"/></g><g transform="matrix(2.499994 0 0 2.499994 .341555 -196.79108)"><g class="B"><use xlink:href="#AF" fill="url(#d)" class="C J"/><use xlink:href="#AF" fill="url(#f)" class="C K"/></g><use xlink:href="#AE" fill="none" stroke="url(#M)" stroke-width=".6" filter="url(#O)" class="H I"/></g><use xlink:href="#AC" transform="matrix(-2.499994 0 0 2.499994 320.60366 -196.79108)" fill="url(#T)" class="B F G"/><g transform="matrix(2.499994 0 0 2.499994 .341555 -196.79108)"><use xlink:href="#AG" fill="url(#Y)" filter="url(#Z)"/><use xlink:href="#AH" opacity=".842" fill="url(#a)" filter="url(#b)"/></g></g></svg>