<svg width="320" height="320" xmlns="http://www.w3.org/2000/svg" xmlns:xlink="http://www.w3.org/1999/xlink"><style>.B{fill-rule:evenodd}.C{opacity:.61}.D{opacity:.644}.E{filter:url(#i)}.F{opacity:.772}.G{filter:url(#S)}.H{stroke-linejoin:round}.I{stroke-dashoffset:4}.J{filter:url(#e)}.K{filter:url(#g)}</style><defs><path id="u" d="M64 8.2c-7.8 0-17.2 26.6-23.5 31.2S6 44.8 3.5 52.3s20 24.5 22.4 32-5.5 34.4.9 39S56.3 112 64.2 112s31 15.9 37.4 11.3-1.7-31.6.7-39.1 24.7-24.6 22.3-32-30.6-8.3-37-12.9S72 8.2 64 8.2zm0 4c.2 0 1.6.7 3.2 2.7a83 83 0 0 1 5.9 9l6 10.6c2 3.3 3.7 6 6.3 8s5.8 2.6 9.5 3.5 7.9 1.6 12 2.4 7.7 1.8 10.4 2.8c2.3.9 3.4 2 3.6 2.1 0 .2-.3 1.7-1.7 3.8-1.5 2.4-4 5.4-6.8 8.4l-8.2 9c-2.5 3-4.6 5.4-5.6 8.5s-.7 6.3-.4 10.1 1 8 1.4 12.1.7 8 .6 10.8c-.2 2.6-.9 3.9-1 4.1-.1 0-1.6.3-4-.4a73 73 0 0 1-10.2-3.9l-11-5c-3.6-1.5-6.6-2.7-9.8-2.7s-6.3 1.3-9.8 2.8l-11 5a65 65 0 0 1-10.2 3.9c-2.4.6-4 .4-4.1.4 0-.2-.8-1.6-1-4-.1-3 .2-6.8.6-10.9l1.3-12c.3-3.9.6-7.1-.4-10.2s-3.1-5.6-5.6-8.5-5.5-6-8.2-9-5.3-6-6.9-8.3c-1.3-2.1-1.5-3.6-1.6-3.8 0 0 1-1.2 3.5-2.2 2.7-1 6.5-2 10.5-2.8l12-2.4c3.7-.9 6.8-1.7 9.4-3.6s4.3-4.7 6.3-8L55 24c2-3.5 4-7 5.9-9.1 1.6-2 3-2.7 3.1-2.8z"/><path id="v" d="M153 94.7c-8.5 12.4-60.4-1.7-74.6 3.3s-45.9 48.4-60.3 44.1-17-58-26.2-70-60.3-28.7-60.6-43.7 49.9-34.2 58.4-46.6 8.7-66.2 23-71.1S60.4-52.4 75-48.1s65.6-12.2 74.7-.2-20.3 57-20 72 32 58.6 23.4 71z"/><path id="w" d="M160.4-176.8c-19.7 0-43 66.4-58.9 78S15.3-85.3 9.2-66.6s49.8 61.3 56 80-13.8 86.2 2.1 97.7 73.8-28.3 93.4-28.4 77.6 39.7 93.5 28.2-4.1-79 2-97.7 61.7-61.5 55.6-80.2-76.4-20.4-92.3-32-39.4-77.8-59-77.8zm0 9.8c.5.3 3.9 2 7.8 6.9 4.6 5.5 9.7 13.8 14.8 22.7l15 26.4c5 8.2 9.2 15 15.9 19.8s14.4 6.7 23.7 8.9 19.8 4 29.8 6 19.5 4.4 26.1 7c5.9 2.3 8.6 5 9.1 5.3-.2.6-.8 4.2-4.2 9.5a181 181 0 0 1-17 21l-20.5 22.6c-6.2 7.2-11.5 13.4-14 21.1s-1.8 15.9-1 25.4 2.2 20 3.3 30.2 2 19.9 1.5 27c-.3 6.3-2 9.6-2.2 10.2-.5 0-4.3.6-10.3-1-7-1.8-16-5.5-25.4-9.7l-27.7-12.5C176.3 76 169 73 160.7 73s-15.6 3-24.4 6.8-18.4 8.3-27.7 12.5-18.4 8-25.3 9.8c-6 1.6-9.7 1-10.3 1-.1-.5-2-3.9-2.3-10.1-.4-7.2.3-17 1.4-27l3.3-30.3c.8-9.5 1.5-17.6-1-25.4s-7.9-13.9-14.1-21-13.6-15-20.5-22.5-13.2-15-17.1-21c-3.4-5.3-4-9-4.2-9.6 0 .3 2.5-2.8 9-5.3 6.6-2.6 16.2-5 26.2-7l29.8-6.1c9.3-2.2 17.1-4 23.7-8.9s10.8-11.8 15.7-20 10-17.5 15-26.3 10.2-17.3 14.7-22.8c4-5 7.4-6.6 7.8-7z"/><path id="x" d="M61 9.5c1.8-1.3 3.9-1.5 6.2 0L64 15.6z"/><path id="y" d="M160.4-167c-.4.3-3.8 2-7.8 6.8a192 192 0 0 0-14.7 22.9L123-111c-4.9 8.1-9 15-15.7 19.9s-14.4 6.7-23.7 9-19.8 4-29.8 6-19.5 4.4-26.2 7c-6.5 2.5-8.9 5.6-9 5.3.3.6.8 4.3 4.2 9.6 3.9 6 10.2 13.4 17.1 21l20.5 22.4a63.5 63.5 0 0 1 14 21.1c.7 2 1 4 1.4 6.2l18.2.4c67.6 0 128.9-13.5 173.7-35.4l13.8-15c6.8-7.6 13.1-15 17-21.1 3.4-5.3 4-9 4.2-9.5-.4-.3-3.2-3-9-5.3-6.7-2.6-16.2-4.9-26.2-7l-29.8-6c-9.3-2.2-17-4-23.7-8.9s-11-11.5-16-19.7-10-17.6-15-26.4-10.3-17.2-14.8-22.7c-4-4.9-7.4-6.6-7.9-7z"/><path id="z" d="m45 34-.8 1.2-1.4 1.7-1.3 1.6-1.5 1.2-3 1.3-3.2 1-.6 3.7 6.4-2c1-.5 5.1-3.6 6.1-4.6l3.2-5z"/><path id="AA" d="M196.3 12c-.1 0-1.5.7-3 2.7a74 74 0 0 0-6 9l-6 10.6c-2 3.3-3.6 6-6.2 8s-5.8 2.7-9.5 3.6-8 1.6-12 2.4-7.8 1.8-10.4 2.8a9.2 9.2 0 0 0-3.6 2.2l.2.8c.5-.4 1.5-1.2 3.4-2 2.6-1 6.5-2 10.5-2.8l11.9-2.4c3.7-.9 6.8-1.7 9.5-3.6s4.3-4.7 6.2-8l6-10.5c2-3.5 4.1-7 6-9.1 1.5-2 2.9-2.7 3-2.8.2.2 1.6.8 3.2 2.8a83 83 0 0 1 5.9 9l6 10.6c2 3.3 3.7 6 6.3 8s5.8 2.6 9.5 3.5 8 1.6 12 2.4 7.7 1.8 10.4 2.8c2 .7 3 1.6 3.4 2l.2-.9c-.2 0-1.3-1.2-3.6-2a73 73 0 0 0-10.5-2.9l-11.9-2.4c-3.7-.9-6.8-1.6-9.5-3.5s-4.3-4.7-6.3-8l-6-10.5c-2-3.5-4.1-7-6-9.1-1.5-2-2.9-2.7-3-2.8z"/><path id="AB" d="m246.8 50 1.8.6c2.3.9 3.4 2 3.6 2.1 0 .2-.3 1.7-1.7 3.8-1.5 2.4-4 5.4-6.8 8.4l-5.5 6a162.2 162.2 0 0 1-75.8 14v.3l7.3.2c27 0 51.6-5.4 69.5-14.2l5.5-6c2.8-3 5.3-6 6.8-8.4 1.4-2.1 1.6-3.6 1.7-3.8-.2-.1-1.3-1.2-3.6-2.1l-2.8-1z"/><path id="AC" d="M25.2 119.8c1.2 3 2 4.3 6 3.5l-.6-3-1.5.1-.8-1.8z"/><path id="AD" d="M65.4 38.8c-2.6 27.2-9.5 64 1.9 72.3 16 11.5 73.8-28.3 93.4-28.4s77.6 39.7 93.5 28.2c11.4-8.3 4.4-45 1.7-72h-9.7c.8 8.6 2 17.9 3 26.9 1.2 10.1 2 19.9 1.5 27-.3 6.3-2 9.6-2.2 10.2-.5 0-4.3.6-10.3-1-7-1.8-16-5.6-25.4-9.7l-27.7-12.5C176.3 76 169 73 160.7 73s-15.6 3.1-24.4 6.8-18.4 8.4-27.7 12.6-18.4 8-25.3 9.8c-6 1.6-9.7 1-10.3 1-.1-.5-2-3.9-2.3-10.1-.4-7.2.3-17 1.4-27l3-27.3z"/><path id="AE" d="M64.1 12c-.1 0-1.5.7-3.1 2.7a74 74 0 0 0-5.9 9l-6 10.6c-2 3.3-3.6 6-6.3 8S37.1 45 33.3 46s-7.9 1.6-11.9 2.4-7.8 1.8-10.5 2.8c-2.5 1-3.5 2.2-3.5 2.1 0 .3.3 1.8 1.6 3.9 1.6 2.4 4.1 5.4 6.9 8.4l8.2 9c2.5 2.8 4.6 5.3 5.6 8.4s.7 6.3.4 10.1-.8 8-1.3 12.1-.7 8-.5 10.8c0 2.5.8 3.9.9 4.1.2 0 1.7.2 4-.4 2.9-.7 6.5-2.2 10.2-4l11-5c3.6-1.4 6.6-2.7 9.9-2.7s6.2 1.3 9.7 2.7 7.4 3.4 11.1 5 7.3 3.2 10.1 4c2.4.6 4 .3 4.2.3 0-.2.7-1.5.9-4 .1-3-.2-6.8-.6-10.9l-1.4-12c-.3-3.9-.6-7 .4-10.2s3.1-5.6 5.6-8.5 5.5-6 8.2-9 5.3-6 6.8-8.4c1.4-2.1 1.6-3.6 1.7-3.8-.2 0-1.3-1.2-3.6-2a73 73 0 0 0-10.5-2.9L95 45.8c-3.7-.9-6.8-1.6-9.5-3.5s-4.3-4.7-6.3-8l-6-10.5c-2-3.5-4.1-7-6-9.1-1.5-2-2.9-2.7-3-2.8z"/><path id="AF" d="m122.3 50-3.4 3 .7 2 4.3.8c.4-2 1-4-1.6-5.9z"/><path id="AG" d="M26 94.3c-1 10.8-3.8 25.6.8 28.9 6.4 4.6 29.5-12.4 37.4-12.4s31 16.9 37.4 12.3c4.5-3.3 1.7-18 .6-28.8h-3.9l1.3 10.7c.4 4 .7 8 .6 10.8-.2 2.6-.9 3.9-1 4.1-.1 0-1.6.3-4-.4a73 73 0 0 1-10.2-3.9l-11-5c-3.6-1.5-6.6-2.7-9.8-2.7s-6.3 1.3-9.8 2.8l-11 5a65 65 0 0 1-10.2 3.9c-2.4.6-4 .4-4.1.4 0-.2-.8-1.6-1-4-.1-3 .2-6.8.6-10.9L30 94.3z"/><path id="AH" d="m4 51.3-.4.8c-2.2 6.6 15.2 20.8 20.8 29.1.7 1 1.5 2.3 1.8 3.8 1.5-.3 3.4-2.4 2.7-3.8a31.9 31.9 0 0 0-5-6.8l-8.1-9a76 76 0 0 1-6.9-8.3c-1.3-2.1-1.5-3.6-1.6-3.9 0 .1.9-1 3.2-2zm113.9 0c1.9.8 2.8 1.7 3 1.8 0 .2-.3 1.7-1.7 3.8-1.5 2.4-4 5.4-6.8 8.4l-8.2 9c-2 2.4-3.8 4.5-5 7-.8 2.4 2 3.4 2.9 3.5.3-1.4 1-2.5 1.7-3.6 5.5-8.3 23-22.6 20.8-29.3l-.3-.7z"/><linearGradient id="A" xlink:href="#AI"><stop stop-color="#7e0000" offset="0"/><stop stop-color="#673400" stop-opacity="0" offset="1"/></linearGradient><linearGradient id="D" xlink:href="#AI"><stop stop-color="#fff" offset="0"/><stop stop-color="#fff" stop-opacity="0" offset="1"/></linearGradient><linearGradient id="E" xlink:href="#AI"><stop stop-color="#f4ff3f" offset="0"/><stop stop-color="#fff" stop-opacity="0" offset="1"/></linearGradient><linearGradient id="H" x1="95.7" x2="32.3" y1="141.2" y2="77.8" xlink:href="#AI"><stop stop-color="#ffc60a" offset="0"/><stop stop-color="#b03b00" offset="1"/></linearGradient><linearGradient id="J" x1="123.2" x2="123.2" y1="-126.4" y2="94.3" xlink:href="#D"/><linearGradient id="K" x1="223.7" x2="162.4" y1="77.5" y2="31" xlink:href="#D"/><linearGradient id="L" x1="177.4" x2="177.6" y1="22.4" y2="93" xlink:href="#D"/><linearGradient id="M" x1="64.9" x2="64.9" y1="122.6" y2="38" xlink:href="#AI"><stop stop-color="#fffc07" offset="0"/><stop stop-color="#fffc07" stop-opacity="0" offset="1"/></linearGradient><linearGradient id="P" x1="63.9" x2="67.2" y1="12" y2="12" spreadMethod="reflect" xlink:href="#D"/><linearGradient id="R" x1="28.6" x2="31.3" y1="120.8" y2="122.1" spreadMethod="reflect" xlink:href="#AI"><stop stop-color="#faff64" offset="0"/><stop stop-color="#faff64" stop-opacity="0" offset="1"/></linearGradient><linearGradient id="V" x1="160.5" x2="160.5" y1="-232.4" y2="104.3" xlink:href="#H"/><linearGradient id="AI" gradientUnits="userSpaceOnUse"/><filter id="N"><feGaussianBlur stdDeviation=".6"/></filter><filter id="O"><feGaussianBlur stdDeviation=".1"/></filter><filter id="Q" x="-.2" y="-.2" width="1.4" height="1.3"><feGaussianBlur stdDeviation=".5"/></filter><filter id="S"><feGaussianBlur stdDeviation=".2"/></filter><filter id="W"><feGaussianBlur stdDeviation=".2"/></filter><filter id="Z"><feGaussianBlur stdDeviation=".3"/></filter><filter id="b"><feGaussianBlur stdDeviation=".4"/></filter><filter id="e" x="-.2" y="-.2" width="1.4" height="1.3"><feGaussianBlur stdDeviation=".4"/></filter><filter id="g" x="-.1" y="-.1" width="1.2" height="1.2"><feGaussianBlur stdDeviation=".3"/></filter><filter id="i"><feGaussianBlur stdDeviation=".2"/></filter><radialGradient id="I" cx="69.5" cy="60.1" r="111.7" fy="89.7" gradientTransform="matrix(.94391 -.33019 .33264 .95092 -16.1 27.3)" xlink:href="#AI"><stop stop-color="#ff0" offset="0"/><stop stop-color="#f07800" offset="1"/></radialGradient><radialGradient id="U" cx="64.4" cy="98.2" r="60.7" gradientTransform="matrix(.2284 0 0 .34815 146 38.9)" xlink:href="#A"/><radialGradient id="X" cx="64.1" cy="66.2" r="60.7" gradientTransform="matrix(1 0 0 .95547 0 3)" xlink:href="#H"/><radialGradient id="Y" cx="64.4" cy="106.7" r="60.7" gradientTransform="matrix(.4443 0 0 .18251 35.6 89.6)" xlink:href="#A"/><radialGradient id="a" cx="26.6" cy="73.5" r="60.7" fx="35.6" fy="102.8" gradientTransform="matrix(4.6812 0 0 .31724 -85.2 44.7)" xlink:href="#A"/><radialGradient id="c" cx="64.1" cy="48.7" r="56.8" gradientTransform="matrix(2.5 0 0 1.6192 .3 -153.9)" xlink:href="#E"/><radialGradient id="d" cx="121.6" cy="52.9" r="3.2" gradientTransform="matrix(2.2248 -.59614 .27736 1.0351 -163.6 70.6)" xlink:href="#D"/><radialGradient id="f" cx="122.7" cy="52.7" r="3.2" fx="122.6" fy="51" gradientTransform="matrix(1.2539 -.45988 .25755 .70223 -43.3 71.7)" xlink:href="#D"/><radialGradient id="j" cx="41.2" cy="39.8" r="8.1" fx="41.4" fy="44.4" gradientTransform="matrix(1 0 0 .75 0 10)" xlink:href="#E"/></defs><g transform="translate(0 192)"><use transform="matrix(2.5 0 0 2.5 .3 -196.8)" fill="url(#X)" filter="url(#W)" xlink:href="#u"/><use transform="rotate(19.3 265.2 277) scale(1.3069)" fill="url(#I)" xlink:href="#v"/><use fill="url(#V)" xlink:href="#w"/><use class="B" transform="matrix(2.5 0 0 2.5 .3 -196.8)" fill="url(#P)" filter="url(#Q)" xlink:href="#x"/><use fill="url(#c)" xlink:href="#y"/><use class="B D E" transform="matrix(2.5 0 0 2.5 .3 -196)" fill="url(#j)" xlink:href="#z"/><use fill="url(#J)" xlink:href="#y"/><use class="B D E" transform="matrix(-2.5 0 0 2.5 320.6 -196)" fill="url(#j)" xlink:href="#z"/><g transform="matrix(2.5 0 0 2.5 -330.4 -196.8)"><use fill="url(#L)" xlink:href="#AA"/><use fill="url(#K)" xlink:href="#AB"/></g><use class="B F G" transform="matrix(2.5 0 0 2.5 .3 -196.8)" fill="url(#R)" xlink:href="#AC"/><use fill="url(#U)" xlink:href="#AD"/><use class="H I" transform="matrix(2.5 0 0 2.5 .3 -196.8)" fill="none" filter="url(#N)" stroke="url(#M)" xlink:href="#AE"/><g class="B" transform="matrix(-2.5 0 0 2.5 320.8 -196.8)"><use class="C J" fill="url(#d)" xlink:href="#AF"/><use class="C K" fill="url(#f)" xlink:href="#AF"/></g><g transform="matrix(2.5 0 0 2.5 .3 -196.8)"><g class="B"><use class="C J" fill="url(#d)" xlink:href="#AF"/><use class="C K" fill="url(#f)" xlink:href="#AF"/></g><use class="H I" fill="none" filter="url(#O)" stroke="url(#M)" stroke-width=".6" xlink:href="#AE"/></g><use class="B F G" transform="matrix(-2.5 0 0 2.5 320.6 -196.8)" fill="url(#R)" xlink:href="#AC"/><g transform="matrix(2.5 0 0 2.5 .3 -196.8)"><use fill="url(#Y)" filter="url(#Z)" xlink:href="#AG"/><use fill="url(#a)" filter="url(#b)" opacity=".8" xlink:href="#AH"/><use fill="url(#X)" filter="url(#W)" xlink:href="#u"/></g><use transform="rotate(19.3 265.2 277) scale(1.3069)" fill="url(#I)" xlink:href="#v"/><use fill="url(#V)" xlink:href="#w"/><use class="B" transform="matrix(2.5 0 0 2.5 .3 -196.8)" fill="url(#P)" filter="url(#Q)" xlink:href="#x"/><use fill="url(#c)" xlink:href="#y"/><use class="B D E" transform="matrix(2.5 0 0 2.5 .3 -196)" fill="url(#j)" xlink:href="#z"/><use fill="url(#J)" xlink:href="#y"/><use class="B D E" transform="matrix(-2.5 0 0 2.5 320.6 -196)" fill="url(#j)" xlink:href="#z"/><g transform="matrix(2.5 0 0 2.5 -330.4 -196.8)"><use fill="url(#L)" xlink:href="#AA"/><use fill="url(#K)" xlink:href="#AB"/></g><use class="B F G" transform="matrix(2.5 0 0 2.5 .3 -196.8)" fill="url(#R)" xlink:href="#AC"/><use fill="url(#U)" xlink:href="#AD"/><use class="H I" transform="matrix(2.5 0 0 2.5 .3 -196.8)" fill="none" filter="url(#N)" stroke="url(#M)" xlink:href="#AE"/><g class="B" transform="matrix(-2.5 0 0 2.5 320.8 -196.8)"><use class="C J" fill="url(#d)" xlink:href="#AF"/><use class="C K" fill="url(#f)" xlink:href="#AF"/></g><g transform="matrix(2.5 0 0 2.5 .3 -196.8)"><g class="B"><use class="C J" fill="url(#d)" xlink:href="#AF"/><use class="C K" fill="url(#f)" xlink:href="#AF"/></g><use class="H I" fill="none" filter="url(#O)" stroke="url(#M)" stroke-width=".6" xlink:href="#AE"/></g><use class="B F G" transform="matrix(-2.5 0 0 2.5 320.6 -196.8)" fill="url(#R)" xlink:href="#AC"/><g transform="matrix(2.5 0 0 2.5 .3 -196.8)"><use fill="url(#Y)" filter="url(#Z)" xlink:href="#AG"/><use fill="url(#a)" filter="url(#b)" opacity=".8" xlink:href="#AH"/></g></g></svg>