<svg xmlns="http://www.w3.org/2000/svg" xmlns:xlink="http://www.w3.org/1999/xlink" width="320" height="320"><defs><filter id="A" x="-.163" y="-.093" width="1.325" height="1.187"><feGaussianBlur stdDeviation=".362"/></filter><filter id="B" x="-.079" y="-.182" width="1.157" height="1.363"><feGaussianBlur stdDeviation=".362"/></filter><filter id="C" x="-.133" y="-.099" width="1.266" height="1.199"><feGaussianBlur stdDeviation=".362"/></filter><filter id="D" x="-.186" y="-.079" width="1.372" height="1.158"><feGaussianBlur stdDeviation=".362"/></filter><linearGradient id="E" gradientUnits="userSpaceOnUse"><stop stop-color="#7ed249" offset="0"/><stop stop-color="#286325" offset="1"/></linearGradient><linearGradient id="F" x1="30.194" x2="19.001" y1="42.934" y2="28.401" xlink:href="#E"/><linearGradient id="G" x1="16.829" x2="29.302" y1="31.991" y2="32.071" xlink:href="#E"/><linearGradient id="H" x1="32.674" x2="22.772" y1="29.947" y2="30.316" xlink:href="#E"/><linearGradient id="I" x1="45.106" x2="36.665" y1="32.119" y2="40.557" xlink:href="#E"/><linearGradient id="J" x1="13.164" x2="31.723" y1="33.927" y2="23.669" xlink:href="#E"/><linearGradient id="K" x1="10.656" x2="33.095" y1="28.932" y2="46.231" xlink:href="#E"/><linearGradient id="L" x1="14.623" x2="33.095" y1="22.236" y2="46.231" xlink:href="#E"/><linearGradient id="M" x1="32.924" x2="20.651" y1="32.868" y2="32.186" xlink:href="#E"/><linearGradient id="N" x1="31.534" x2="24.197" y1="31.664" y2="31.59" xlink:href="#E"/><path id="O" d="M26.863 25.18c.922 5.027.235 9.735-.842 14.316.156 0 6.053-5.8.842-14.316z"/></defs><g transform="matrix(7.614675 .048317 -.048317 7.614675 -25.106862 -21.737368)"><path d="M23.633 23.73c4.717 6.663 13.365 14.698 20.54 18.178.76-1.563 1.13-2.917.828-3.908-7.47-.953-13.98-9.146-19.41-15.115-.886-1.044-2.313-.536-1.96.845z" fill="url(#I)"/><path d="M24.96 23.597c-2.74 4.906-8.13 6.55-9.574 11.15-1.57 4.995.482 9.946 8.227 6.786 6.27 4.072 10.702-1.404 9.335-7.878-.742-3.515-7.32-6.735-7.988-10.06z" fill="url(#F)"/><path d="M24.706 25.787c.922 5.027.235 9.735-.842 14.316.156 0 6.053-5.81.842-14.316z" fill="url(#G)"/><g transform="matrix(.028213 -.9996 -.9996 -.028213 45.73 51.48)"><path d="M27.255 21.83c-3.5 1.117-8.268 7.71-9.713 12.3-1.57 4.995.482 9.946 8.227 6.786 5.704 3.704 9.933-.873 9.653-6.846-.195-4.16-3.868-8-8.167-12.25z" fill="url(#K)"/><use xlink:href="#O" fill="url(#N)"/></g><g transform="matrix(-.99819 .060081 -.060081 -.99819 53.445 45.028)"><path d="M27.256 22.996c-3.994 5.137-8.27 6.544-9.714 11.144-1.57 4.995.482 9.946 8.227 6.786 5.998 3.877 11.08-.7 9.792-6.797-.774-3.662-4.864-5.442-8.305-11.133z" fill="url(#L)"/><path d="M27 25.355c-1.518 4.88-1.4 9.637-.88 14.314-.155-.02-5.312-6.495.88-14.314z" fill="url(#M)"/></g><g transform="rotate(269.993 26.482 24.081)"><path d="M26.948 22.316c-2.573 3.39-7.96 7.225-9.406 11.824-1.57 4.995.482 9.946 8.227 6.786 6.198 4.024 10.024-1.806 8.757-8.38-.71-3.69-4.45-7.522-7.577-10.232z" fill="url(#J)"/><use xlink:href="#O" fill="url(#H)"/></g><g fill="#fff" fill-opacity=".665"><path d="M21.5 5c-5.786 2.42-4.83 5.932-4.687 9.313 0 0-3.25-8.25 4.688-9.312z" filter="url(#A)"/><path d="M11.375 15.5c-4.13 1.177-6.84 3.43-5.5 8.75-.135 0-4.443-7.812 5.5-8.75z" filter="url(#C)"/><path d="M16.062 41.188c-1.186-4.722 1.59-9.612 4-11 0 0-6.813 2.563-4 11z" filter="url(#D)"/><path d="M27.75 20.938c1.72-1.3 5.395-3.85 11.062-4.5-.552-.828-7.29-.058-11.062 4.5z" filter="url(#B)"/></g></g></svg>