<svg xmlns="http://www.w3.org/2000/svg" xmlns:xlink="http://www.w3.org/1999/xlink" viewBox="0 0 274.675 274.675" width="320" height="320"><use xlink:href="#B" fill="#ccc"/><path d="M93.902 213.315L92.5 217.1h13.1l1.393-3.777zm67.628 0l1.393 3.777h-13.1l-1.393-3.777z" fill="#b3b3b3"/><use xlink:href="#B" fill="none" stroke="#000" stroke-width=".819"/><path d="M91.87 38.012C53.57 25.567 12.436 46.532 0 84.824l38.873 12.633 38.742 3.71 22.202 16.1 38.873 12.625c12.436-38.3-8.52-79.426-46.82-91.87z" fill="#ffd039"/><path d="M102.488 19.923l-9.56 29.41c-.516 1.606-1.868 2.712-3.416 3.023l2.17.696-1.032 3.195L34.146 230.96l-8.578-2.777 57.536-177.9 2.237.72a4.42 4.42 0 0 1-.721-1.049c-.516-1.016-.647-2.237-.262-3.408l9.552-29.41a4.51 4.51 0 0 1 5.677-2.892c2.368.77 3.662 3.3 2.9 5.677z" fill="#3b9dff"/><path d="M90.65 56.248L69.62 121.28l-8.578-2.785 22.062-68.21 2.237.72a4.42 4.42 0 0 1-.721-1.049c2.343 1.442 4.35 3.58 6.03 6.292z" fill="#1e79c4"/><path d="M91.87 38.012c16.827 5.464 20.383 40.938 7.947 79.238L38.873 97.456c12.444-38.3 36.17-64.91 52.997-59.445z" fill="#ed2e2e"/><path d="M214.565 240.666l-9.836 8.295H0c0-3.242.68-6.315 1.9-9.102 1.142-2.627 2.77-5 4.767-6.986a22.66 22.66 0 0 1 16.088-6.667h181.974l9.286 13.653z" fill="#ffd039"/><path d="M214.565 240.666l-9.836 8.295H0c0-3.242.68-6.315 1.9-9.102h212.114z" fill="#eab932"/><path d="M350.885 248.79v.172H204.728v-22.755c4.056 1.996 8.12 3.992 16.24 3.992 16.24 0 16.24-7.984 32.48-7.984 16.232 0 16.232 7.984 32.47 7.984s16.24-7.984 32.487-7.984c9.642 0 13.56 2.814 18.55 5.102 8.435 3.865 13.93 12.194 13.93 21.472z" fill="#3b9dff"/><path d="M204.728 239.86h146.157v9.102H204.728z" fill="#1e79c4"/><defs ><path id="B" d="M178.924 201.026h-21.93l-5.08-13.74c-.893-2.41-3.187-4.014-5.76-4.014h-36.866c-2.572 0-4.875 1.606-5.768 4.014l-5.08 13.74h-8.946L70.85 175.17c-1.983-2.744-5.825-3.367-8.578-1.385a6.15 6.15 0 0 0-1.393 8.578l20.48 28.403c1.155 1.598 3.015 2.548 4.99 2.548h7.553L92.5 217.09l-2.917 7.88c-1.172 3.187.45 6.718 3.637 7.898a6.14 6.14 0 0 0 7.889-3.637l5.882-15.918h41.43l1.393 3.777 4.49 12.14c.918 2.482 3.27 4.014 5.768 4.014a6.28 6.28 0 0 0 2.13-.377 6.15 6.15 0 0 0 3.629-7.898l-4.31-11.658h17.393a6.15 6.15 0 0 0 6.144-6.144 6.15 6.15 0 0 0-6.144-6.144zm-67.375 0l2.015-5.464h28.305l2.024 5.464z"/></defs></svg>