<svg xmlns="http://www.w3.org/2000/svg" xmlns:xlink="http://www.w3.org/1999/xlink" width="64" height="64"><defs><filter id="A"><feGaussianBlur stdDeviation=".519"/></filter><filter id="B"><feGaussianBlur stdDeviation=".48"/></filter><linearGradient id="C" x1="32.733" y1="48.735" x2="32.733" y2="11.027" xlink:href="#J"><stop offset="0" stop-color="#e0e0e0"/><stop offset="1" stop-color="#fff"/></linearGradient><radialGradient id="D" gradientTransform="matrix(5.2819265,0,0,3.4253809,-149.07107,-283.12918)" cx="34.281" cy="91.998" fx="34.281" fy="91.998" r="6" xlink:href="#J"><stop offset="0" stop-color="#590000"/><stop offset="1" stop-color="#590000" stop-opacity="0"/></radialGradient><linearGradient id="E" x1="36.584" y1="3.072" x2="34.385" y2="40.173" xlink:href="#J"><stop offset="0" stop-color="#f9ccca"/><stop offset="1" stop-color="#f9ccca" stop-opacity="0"/></linearGradient><linearGradient id="F" x1="57.897" y1="37.148" x2="48.126" y2="15.534" xlink:href="#J"><stop offset="0" stop-color="#f9ccca"/><stop offset="1" stop-color="#f9ccca" stop-opacity="0"/></linearGradient><linearGradient id="G" x1="50.88" y1="-5.027" x2="62.802" y2="38.855" xlink:href="#J"><stop offset="0" stop-color="#f9ccca"/><stop offset="1" stop-color="#f9ccca" stop-opacity="0"/></linearGradient><linearGradient id="H" y1="70" y2="128.086" x2="343.999" x1="343.999" xlink:href="#J"><stop offset="0" stop-color="#e20800"/><stop offset="1" stop-color="#bf0303"/></linearGradient><radialGradient id="I" gradientTransform="matrix(0.852261,0,0,0.2449215,5.3207328,87.412258)" cx="36.014" cy="127.723" fx="36.014" fy="141.145" r="31.986" xlink:href="#J"><stop offset="0" stop-color="#f9ccca"/><stop offset="1" stop-color="#f9ccca" stop-opacity="0"/></radialGradient><linearGradient id="J" gradientUnits="userSpaceOnUse"/></defs><circle transform="matrix(-.858425 .230014 -.230014 -.858423 348.45859 31.850405)" cy="92" cx="343.999" r="36" fill="url(#H)"/><path transform="matrix(.862977 0 0 .862977 1.304674 -46.794743)" d="M35.702 123.75a31.92 31.92 0 0 1-7.969-1.094c-16.14-4.325-26.065-20.285-23.22-36.437 7.902-1.42 16.5-2.22 25.5-2.22 13.963 0 26.964 1.892 37.875 5.125.295 3.57.01 7.25-.97 10.906-3.857 14.393-16.972 23.858-31.22 23.72z" opacity=".9" fill="url(#I)" filter="url(#A)"/><path d="M31.767 4c-2.314.02-4.652.306-7 .88C10.62 8.363 1.915 21.21 4.412 34.214 11.342 35.358 18.883 36 26.78 36c12.248 0 23.65-1.523 33.22-4.126a23.64 23.64 0 0 0-.85-8.78C55.767 11.508 44.263 3.89 31.767 4z" fill="url(#G)"/><path d="M31.353 4c12.185.4 23.206 7.783 26.525 18.792.874 2.9 1.12 5.825.856 8.654-9.73 2.563-21.332 4.05-33.784 4.05-7.354 0-14.4-.53-20.95-1.484.012.068.015.134.028.2C11.007 35.358 18.6 36 26.55 36c12.333 0 23.816-1.523 33.453-4.126.26-2.874.01-5.836-.856-8.78C55.74 11.507 44.157 3.888 31.574 4 31.5 4 31.427 4 31.353 4z" fill="url(#F)"/><path d="M31.712 4a30.14 30.14 0 0 0-6.983.885C12.665 7.872 4.572 17.72 4 28.662 4.728 18.365 12.797 9.17 24.73 6.353c2.336-.55 4.67-.84 6.983-.86 12.484-.108 23.977 7.204 27.356 18.312.537 1.764.846 3.534.93 5.286a23.81 23.81 0 0 0-.931-5.893C55.69 11.55 44.196 3.888 31.712 4z" fill="url(#E)"/><path d="M28 12v28h8V12h-8zm0 32v8h8v-8h-8z" opacity=".7" fill="none" stroke="url(#D)" stroke-width="4" stroke-linejoin="round" filter="url(#B)"/><path d="M28 12v28h8V12h-8zm0 32v8h8v-8h-8z" fill="url(#C)"/></svg>