<svg xmlns="http://www.w3.org/2000/svg" xmlns:xlink="http://www.w3.org/1999/xlink" viewBox="0 0 224.053 224.053"><style><![CDATA[.B{fill:#e7b791}.C{fill:#f5f0f0}.D{fill:#323232}.E{fill:#5e3a1d}.F{fill:#1a1a1a}.G{fill:#c79369}.H{fill-rule:evenodd}]]></style><g class="H"><g class="B"><ellipse transform="matrix(.2257 -.9742 .9742 .2257 101.3705 223.315)" cx="191.17" cy="47.887" rx="5.761" ry="3.686"/><ellipse transform="matrix(-.2257 -.9742 .9742 -.2257 124.0508 189.5253)" cx="137.343" cy="45.465" rx="5.761" ry="3.686"/></g><path d="M141.877 78.294c-4.52 11.76-15.27 27.032-31.37 37.72l2.536 3.65c13.698-6.672 26.434-17.317 32.377-25.46 3.058-4.2.656-13.866-3.542-15.908zm29.058 5.218c12.08 3.577 31.555 17.058 43.48 32.264l3.438-2.816c-7.732-13.128-22.75-28.954-31.34-34.235-4.418-2.718-13.874.44-15.58 4.787z" class="F"/><g class="D"><path d="M166.575 200.157L163.2 127.88h15.568l-3.247 72.278h-8.956z"/><path d="M151.98 200.157l-3.365-72.278h15.57l-3.248 72.278h-8.956z"/></g><path d="M147.298 128.8h32.598v3.38h-32.598z" class="F"/><path d="M179.896 130.386l5.67-52.23-12.723-5.56H154.55c-4.24 1.853-10.14 3.375-12.723 5.56l5.47 52.23h32.598z" class="D"/><path d="M154.55 72.596l9.14 44.002 9.152-44.002z" class="C"/><g class="F"><path d="M154.55 72.596l-8.58 9.625 9.922 8.505-7.088 4.607 14.886 21.265z"/><path d="M172.842 72.596l8.568 9.625-9.923 8.505 7.088 4.607-14.885 21.265z"/><path d="M162.57 130.386h2.48v-15.73l-1.36 1.3-1.12-1.063z"/></g><path d="M157.993 59.004h11.633V75.42h-11.633z" class="G"/><g class="C"><path d="M154.55 72.596l3.655-3.962 5.604 3.962-7.59 8.017z"/><path d="M172.842 72.596l-3.765-4.31-5.268 4.31 7.406 8.017z"/></g><g class="D"><path d="M156.218 80.613l7.59-4.008 7.406 4.008-7.406-8.017z"/><path d="M163.81 72.596l-3.795 4.01 3.795 10.66 3.796-10.66z"/><path d="M162.45 83.447h2.523l3.293 11.15-4.576 22-4.57-22z"/></g><path d="M152.045 204.62c4.896 0 8.9-2.005 8.9-4.465s-3.993-4.465-8.9-4.465-8.9 2.005-8.9 4.465 3.995 4.465 8.9 4.465zm23.42 0c4.896 0 8.9-2.005 8.9-4.465s-3.993-4.465-8.9-4.465-8.9 2.005-8.9 4.465 3.994 4.465 8.9 4.465z" class="F"/><path d="M222.044 113.113c1.222 1.078 1.065 1.986.048 2.53 2 1.354 2.384 3.882 1.546 4.832-1.632 1.85-5 1.55-7.502-.666s-3.226-5.513-1.595-7.36 5-1.552 7.503.666zm-115.697 3.604c-1.222 1.078-1.065 1.986-.048 2.53-1.998 1.354-2.384 3.882-1.545 4.832 1.63 1.85 5 1.55 7.502-.667s3.225-5.513 1.594-7.36-4.992-1.55-7.503.667zM163.8 69.873c14.8 0 26.9-9.3 26.9-20.728s-12.08-20.727-26.9-20.727-26.9 9.312-26.9 20.727S149 69.873 163.8 69.873z" class="B"/><path d="M155.634 49.758c.823 0 1.494-1.175 1.494-2.615s-.67-2.615-1.494-2.615-1.494 1.175-1.494 2.615.67 2.615 1.494 2.615zm16.35 0c.823 0 1.494-1.175 1.494-2.615s-.67-2.615-1.494-2.615-1.494 1.175-1.494 2.615.672 2.615 1.494 2.615z" class="D"/><g class="E"><path d="M184.324 29.9c-13.328-.55-34.774 20.587-48.4 15.053 2.567-16.397 19.425-25.6 33.76-23.215 5.3.88 10.122 2.558 14.65 8.162z"/><path d="M174.222 24.297c-2.68 11.3 8.386 23.844 16.948 23.59 1.386-9.33-7.053-21.883-16.948-23.59z"/></g><path d="M172.683 56.85c-3.868.75-13.337.683-17.748 0 4.556 5.472 14.113 5.663 17.748 0z" class="G"/><path d="M63.42 25.7c24.945 0 45.366 30.695 47.06 69.56-12.913 10.176-29.268 16.262-47.06 16.262s-34.147-6.085-47.06-16.262C18.055 56.405 38.475 25.7 63.42 25.7z" fill="#d9eced"/><path d="M57.584 70.61h11.633v16.416H57.584z" class="G"/><g class="B"><path d="M77.207 84.337c8.898 9.437 14.507 25 29.697 35.082l-2.392 3.443c-12.923-6.295-24.94-16.338-30.546-24.02-2.884-3.95.22-17.707 3.24-14.504zm-13.812 4.415c-11.398 3.374-29.77 16.093-41.02 30.44l-3.244-2.657c7.296-12.386 21.464-27.317 29.567-32.3 4.168-2.563 13.1.418 14.698 4.517zm-2.7 111.658l3.175-68.2H49.172l3.063 68.2h8.45z"/><path d="M74.455 200.4l3.175-68.2H62.942l3.064 68.2h8.45zm-18.292-83.36l-6.67-33.215 8.1-3.536h11.633c2.696 1.382 6.357 2.317 8.1 4.145l-6.58 32.606H56.163z"/></g><g class="C"><use xlink:href="#B"/><use xlink:href="#B" x="-22.094"/></g><path d="M15.176 116.68c-1.152 1.017-1.005 1.874-.045 2.386-1.886 1.278-2.25 3.663-1.458 4.56 1.54 1.744 4.708 1.462 7.078-.63s3.043-5.2 1.504-6.945-4.7-1.462-7.08.63zm94.698 2.434c1.153 1.017 1.005 1.874.045 2.386 1.886 1.277 2.25 3.663 1.458 4.56-1.54 1.744-4.7 1.463-7.078-.63s-3.043-5.2-1.503-6.945 4.708-1.463 7.078.63z" class="B"/><g class="C"><path d="M54.02 117.05l-3.263-21.567c-.058-.264-.088-.535-.088-.81 0-2.803 3.082-5.076 6.884-5.076 2.482 0 4.656.97 5.868 2.42 1.21-1.452 3.386-2.42 5.867-2.42 3.802 0 6.884 2.273 6.884 5.076 0 .267-.028.53-.082.785L72.9 117.05H54.02z"/><path d="M63.42 114.587c24.945 0 45.366 30.695 47.06 69.56C97.568 194.325 81.213 200.4 63.42 200.4s-34.147-6.085-47.06-16.262c1.696-38.866 22.116-69.56 47.06-69.56z"/></g><path d="M63.42 57.576c8.547 0 15.518-6.9 15.518-15.362S71.968 26.85 63.42 26.85s-15.518 6.9-15.518 15.363 6.97 15.362 15.518 15.362z" class="E"/><path d="M63.42 57.576c9.66 0 17.54-5.383 17.54-11.98s-7.88-11.982-17.54-11.982-17.54 5.383-17.54 11.982 7.88 11.98 17.54 11.98z" class="C"/><path d="M63.42 57.576c10.745 0 19.508-4.888 19.508-10.88s-8.764-10.88-19.508-10.88-19.508 4.887-19.508 10.88 8.764 10.88 19.508 10.88z" class="E"/><path d="M63.294 78.114c12.15 0 22.062-8.785 22.062-19.555s-9.91-19.555-22.062-19.555S41.23 47.79 41.23 58.56s9.91 19.555 22.063 19.555z" class="B"/><g class="D"><use xlink:href="#C"/><use xlink:href="#C" x="-15.424"/></g><path d="M72.168 65.936c-3.868.75-13.336.683-17.748 0 4.555 5.472 14.113 5.663 17.748 0z" class="G"/><g class="B"><ellipse transform="matrix(-.2257 -.9742 .9742 -.2257 -6.9466 111.5962)" cx="40.876" cy="58.559" rx="5.761" ry="3.687"/><ellipse transform="matrix(.2257 -.9742 .9742 .2257 8.9174 128.8709)" cx="85.53" cy="58.826" rx="5.761" ry="3.687"/></g><g class="E"><path d="M68.244 38.166c10.675 6.343 14.64 22.517 21.09 20.562-.64-12.908-12.145-22.422-21.09-20.562z"/><path d="M79.615 40.967c-17.56-.955-28.43 22.897-42.588 16.98 1.378-19.217 23.286-27.67 42.588-16.98z"/></g></g><path d="M10.6 119.68c-3.724 5.33-5.1 13.523-3.768 22.833m6.414-21.72c-.85 6.445 1.7 14.35 7.17 22.003" fill="none" stroke="#f5f0f0" stroke-width="4.8" stroke-miterlimit="22.9256"/><g class="H"><path d="M27.284 115.832c-.188.225-.393.427-.6.607a4.73 4.73 0 0 1 .893 2.047 4.75 4.75 0 0 1-3.852 5.501 4.82 4.82 0 0 1-.858.073 4.73 4.73 0 0 1-.631 2.142 4.75 4.75 0 0 1-6.487 1.738c-.253-.146-.488-.313-.704-.496-.497.537-1.125.967-1.86 1.235a4.75 4.75 0 0 1-6.086-2.838c-.1-.275-.173-.554-.22-.833-.726.092-1.484.018-2.22-.25a4.75 4.75 0 0 1-2.838-6.087 4.88 4.88 0 0 1 .366-.779 4.73 4.73 0 0 1-1.54-1.618 4.75 4.75 0 0 1 1.738-6.487c.253-.146.515-.267.782-.362a4.74 4.74 0 0 1-.14-2.229 4.75 4.75 0 0 1 5.501-3.852 4.83 4.83 0 0 1 .832.225 4.73 4.73 0 0 1 1.326-1.797 4.75 4.75 0 0 1 6.69.585 4.77 4.77 0 0 1 .492.707 4.73 4.73 0 0 1 2.171-.524 4.75 4.75 0 0 1 4.749 4.748c0 .293-.027.58-.078.858.713.162 1.4.49 2 .994a4.75 4.75 0 0 1 .584 6.691z" class="C"/><g class="E"><path d="M184.324 30.38c-18.778-4.28-44.063 19.654-51.465-1.95 9.318 3.508 10.346.04 19.17-4.66 8.9-4.74 22.226-5.854 32.295 6.6z"/><path d="M186.674 35.044c-16.983-9.084-47.687 7.33-49.127-15.46 8.063 5.843 9.97 2.768 19.722.563 9.835-2.225 22.983.217 29.405 14.897z"/></g></g><defs ><path id="B" d="M74.392 204.62c4.62 0 8.387-1.893 8.387-4.213s-3.768-4.212-8.387-4.212-8.387 1.893-8.387 4.212 3.768 4.213 8.387 4.213z"/><path id="C" d="M71.006 60.464c.776 0 1.4-1.108 1.4-2.467s-.633-2.467-1.4-2.467-1.4 1.108-1.4 2.467.634 2.467 1.4 2.467z"/></defs></svg>