<svg xmlns="http://www.w3.org/2000/svg" width="320" height="320"><defs><filter id="A" height="1.1" y="-.05" width="1.302" x="-.151"><feGaussianBlur stdDeviation=".571"/></filter><clipPath id="B"><path d="M59.442-44.032l-4.846.784 2.177 17.16c.085 2.884 1.98 5.06 3.413 7.408 1-3.224 1.836-5.022 1.422-8.283l-2.165-17.068z" fill="none" stroke="#000" stroke-width=".457" stroke-linejoin="round" stroke-miterlimit="4" stroke-dasharray="none" stroke-dashoffset="4" stroke-opacity="1" filter="url(#A)"/></clipPath><linearGradient y2="70.266" x2="157.451" y1="74.219" x1="169.051" id="C" gradientUnits="userSpaceOnUse"><stop offset="0" stop-color="#a5a5a5"/><stop offset=".077" stop-color="#dfe1e1"/><stop offset=".5" stop-color="#e2dcdc"/><stop offset=".782" stop-color="#fff"/><stop offset=".901" stop-color="#dfd9df"/><stop offset="1" stop-color="#d5d5d5"/></linearGradient><radialGradient id="D" cx="68.272" cy="67.613" fx="68.272" fy="67.613" r="28.491" gradientTransform="matrix(0.90823973,-0.01309071,0.01319314,0.91534601,-241.80801,-24.370945)" gradientUnits="userSpaceOnUse"><stop offset="0" stop-color="#ff8585"/><stop offset="1" stop-color="#ed0000"/></radialGradient><clipPath id="E"><path d="M2360.45 1481.95c-1086.1-2-2142.266 512.9-2143.337 1095.04-1.062 582.24 879.507 1015.6 1965.597 1017.58 1086.1 2.02 1263.87-2110.54 177.74-2112.62z"/></clipPath><linearGradient id="F" spreadMethod="pad" gradientUnits="userSpaceOnUse" y2="1848.677" x2="1195.834" y1="1534.39" x1="927.48"><stop offset="0" stop-color="#e3c20a"/><stop offset="1" stop-color="#f7f78c"/></linearGradient><linearGradient id="G" spreadMethod="pad" gradientUnits="userSpaceOnUse" y2="221.825" x2="102.455" y1="-28.096" x1="342.645"><stop offset="0" stop-color="#f4f23b"/><stop offset="1" stop-color="#fece07"/></linearGradient></defs><g transform="matrix(1.110266 0 0 1.110266 -17.82001 -17.423855)"><path d="M38.92 223.037c.448-27.643 0-121.213 0-121.213h244.09v193.44l-229.827.478c-7.285-24.81-14.712-45.063-14.264-72.706z" fill="#bbbabb"/><g clip-path="url(#E)" transform="matrix(.064493 0 0 -.064493 25.185405 382.89232)"><path d="M2360.45 1481.95c-1086.1-2-2142.266 512.9-2143.337 1095.04-1.062 582.24 879.507 1015.6 1965.597 1017.58 1086.1 2.02 1263.87-2110.54 177.74-2112.62" fill="url(#F)"/></g><path d="M287.683 255.024c0 20.198 2.63 33.072 2.63 33.072l-118.894-.78c-17.015.03-35.015-5.006-57.152-14.895S85.904 246.23 85.904 246.23s-21.523 3.285-27.72 1.522c-15.046-1.737-25.23-18.208-25.262-34.428V32.73h254.76v222.293" fill="url(#G)"/><path d="M160 62.58l9.146 3.276-4.268 12.57c-.47 1.164-4.286 1.407-5.807.85s-3.85-2.952-3.316-4.193L160 62.58z" fill="url(#C)"/><path transform="matrix(-1.88886 -.546371 -.009079 .801872 271.88716 130.34357)" clip-path="url(#B)" d="M59.442-44.032l-4.846.784 2.177 17.16c.135.696 2.303 2.888 3 2.706.86-.228 1.925-3 1.845-3.58l-2.165-17.068z" opacity=".31" fill="none" stroke="#000" stroke-width=".457" stroke-linejoin="round" stroke-dashoffset="4" filter="url(#A)"/><circle transform="scale(-1 1)" r="23.306" cy="43.596" cx="-171.789" fill="url(#D)" paint-order="stroke fill markers"/></g></svg>