<svg width="320" height="320" xmlns="http://www.w3.org/2000/svg"><defs><filter id="A" x="-.151" y="-.05" width="1.302" height="1.1"><feGaussianBlur stdDeviation=".571"/></filter><clipPath id="B"><path d="M59.442-44.032l-4.846.784 2.177 17.16c.085 2.884 1.98 5.06 3.413 7.408 1-3.224 1.836-5.022 1.422-8.283l-2.165-17.068z" fill="none" filter="url(#A)" stroke="#000" stroke-dashoffset="4" stroke-linejoin="round" stroke-width=".457"/></clipPath><linearGradient id="C" x1="169.05" x2="157.45" y1="74.219" y2="70.266" gradientUnits="userSpaceOnUse"><stop stop-color="#a5a5a5" offset="0"/><stop stop-color="#dfe1e1" offset=".077"/><stop stop-color="#e2dcdc" offset=".5"/><stop stop-color="#fff" offset=".782"/><stop stop-color="#dfd9df" offset=".901"/><stop stop-color="#d5d5d5" offset="1"/></linearGradient><radialGradient id="D" cx="68.272" cy="67.613" r="28.491" gradientTransform="matrix(.90824 -.013091 .013193 .91535 -241.81 -24.371)" gradientUnits="userSpaceOnUse"><stop stop-color="#ff8585" offset="0"/><stop stop-color="#ed0000" offset="1"/></radialGradient><clipPath id="E"><path d="m2360.4 1482c-1086.1-2-2142.3 512.9-2143.3 1095-1.062 582.24 879.51 1015.6 1965.6 1017.6 1086.1 2.02 1263.9-2110.5 177.74-2112.6z"/></clipPath><linearGradient id="F" x1="927.48" x2="1195.8" y1="1534.4" y2="1848.7" gradientUnits="userSpaceOnUse"><stop stop-color="#e3c20a" offset="0"/><stop stop-color="#f7f78c" offset="1"/></linearGradient><linearGradient id="G" x1="342.64" x2="102.46" y1="-28.096" y2="221.82" gradientUnits="userSpaceOnUse"><stop stop-color="#f4f23b" offset="0"/><stop stop-color="#fece07" offset="1"/></linearGradient></defs><g transform="matrix(1.1103 0 0 1.1103 -17.82 -17.424)"><path d="m38.92 223.04c0.448-27.643 0-121.21 0-121.21h244.09v193.44l-229.83 0.478c-7.285-24.81-14.712-45.063-14.264-72.706z" fill="#bbbabb"/><g transform="matrix(.064493 0 0 -.064493 25.185 382.89)" clip-path="url(#E)"><path d="m2360.4 1482c-1086.1-2-2142.3 512.9-2143.3 1095-1.062 582.24 879.51 1015.6 1965.6 1017.6 1086.1 2.02 1263.9-2110.5 177.74-2112.6" fill="url(#F)"/></g><path d="M287.683 255.024c0 20.198 2.63 33.072 2.63 33.072l-118.894-.78c-17.015.03-35.015-5.006-57.152-14.895S85.904 246.23 85.904 246.23s-21.523 3.285-27.72 1.522c-15.046-1.737-25.23-18.208-25.262-34.428V32.73h254.76v222.293" fill="url(#G)"/><path d="M160 62.58l9.146 3.276-4.268 12.57c-.47 1.164-4.286 1.407-5.807.85s-3.85-2.952-3.316-4.193L160 62.58z" fill="url(#C)"/><path transform="matrix(-1.8889 -.54637 -.009079 .80187 271.89 130.34)" d="M59.442-44.032l-4.846.784 2.177 17.16c.135.696 2.303 2.888 3 2.706.86-.228 1.925-3 1.845-3.58l-2.165-17.068z" clip-path="url(#B)" fill="none" filter="url(#A)" opacity=".31" stroke="#000" stroke-dashoffset="4" stroke-linejoin="round" stroke-width=".457"/><circle transform="scale(-1 1)" cx="-171.79" cy="43.596" r="23.306" fill="url(#D)" paint-order="stroke fill markers"/></g></svg>
