<svg xmlns="http://www.w3.org/2000/svg" xmlns:xlink="http://www.w3.org/1999/xlink" width="32" height="32"><defs><linearGradient id="A" x1="8" y1="16" x2="15.5" y2="16" spreadMethod="reflect" xlink:href="#G"><stop offset="0" stop-color="#323232"/><stop offset="1" stop-color="#4d4d4d"/></linearGradient><linearGradient id="B" x1="15.5" y1="19" x2="22" y2="4" xlink:href="#G"><stop offset="0" stop-color="#0e87fd"/><stop offset="1" stop-color="#9dd3f0"/></linearGradient><linearGradient id="C" x1="17.5" y1="-1.429" x2="22.411" y2="13.626" xlink:href="#G"><stop offset="0" stop-color="#fff"/><stop offset="1" stop-color="#fff" stop-opacity="0"/></linearGradient><linearGradient id="D" x1="16.875" y1="28" x2="16.875" y2="18.667" xlink:href="#G"><stop offset="0" stop-color="#fff"/><stop offset="1" stop-color="#fff" stop-opacity="0"/></linearGradient><radialGradient id="E" cx="11" cy="8" fx="11" fy="8" r="5" gradientTransform="matrix(1.6,0,0,1.3,-1.6,9.1)" xlink:href="#G"><stop offset="0" stop-color="#fff"/><stop offset="1" stop-color="#fff" stop-opacity="0"/></radialGradient><path id="F" d="M23.5 2.302a.7.7 0 0 1-.698.698.7.7 0 0 1-.698-.698.7.7 0 0 1 .698-.698.7.7 0 0 1 .698.698z"/><linearGradient id="G" gradientUnits="userSpaceOnUse"/></defs><g fill-rule="evenodd"><path d="M8.547 1h13.906C23.3 1 24 1.7 24 2.547v25.906C24 29.3 23.3 30 22.453 30 22 30 21 31 16 31c-6 0-7-1-7.453-1C7.7 30 7 29.3 7 28.453V2.547C7 1.7 7.7 1 8.547 1z"/><path d="M8 2h15v26.5c-1 .5-3 1.5-7 1.5s-7-1-8-1.5V2z" fill="url(#A)"/><path d="M8 2h15v18H8z" fill="#6b6b6b"/><path d="M9 4h13v15H9z" fill="url(#B)"/><path d="M9.5 4.5V15c5.095 0 9.55-2.422 12-6.007V4.5h-12z" opacity=".546" fill="url(#C)"/><path d="M10 20h11v8H10z" opacity=".27" fill="url(#D)"/><path d="M10 25h11v-1H10z" fill="#252525"/></g><path d="M9.5 4.5h12v14h-12z" opacity=".58" fill="none" stroke="#001c3f"/><g fill-rule="evenodd"><g fill="#252525"><path d="M10 23h11v-1H10z"/><path d="M13 28h1v-8h-1zm4 0h1v-8h-1z"/><path d="M10 21h11v-1H10z"/></g><path d="M9 2.302A.7.7 0 0 1 8.302 3a.7.7 0 0 1-.698-.698.7.7 0 0 1 .698-.698.7.7 0 0 1 .698.698z" opacity=".64" fill="#fff"/><path d="M8 19h16v1H8z" opacity=".392" fill="url(#E)"/><g fill="#fff"><use xlink:href="#F" opacity=".407"/><use xlink:href="#F" x="-14.75" y="27.75" opacity=".3"/><use xlink:href="#F" x="0.25" y="27.75" opacity=".3"/></g><path d="M10 27h11v-1H10z" fill="#252525"/><path d="M11 2h9v1h-9z" opacity=".36"/><path d="M12 2h7v1h-7z" opacity=".508"/><path d="M13 2h5v1h-5z" opacity=".614"/><path d="M12 22h1v-1h-1zm4 0h1v-1h-1zm4 0h1v-1h-1zm-8 2h1v-1h-1zm4 0h1v-1h-1zm4 0h1v-1h-1zm-8 2h1v-1h-1zm4 0h1v-1h-1zm4 0h1v-1h-1zm-8 2h1v-1h-1zm4 0h1v-1h-1zm4 0h1v-1h-1z" opacity=".645" fill="#bfd9ff"/><path d="M13 2h1v1h-1zm2 0h1v1h-1zm2 0h1v1h-1z" opacity=".563" fill="#c3c3c3"/></g></svg>