<svg width="320" height="320" xmlns="http://www.w3.org/2000/svg"><style><![CDATA[.B{fill:#646464}.C{stroke-width:10.064}]]></style><rect x="8.914" y="8.914" width="302.54" height="302.54" rx="11.711" fill="#fff" stroke="#000" stroke-miterlimit="10" stroke-width="6.211"/><g transform="matrix(-1.1099 0 0 1.1099 293.59 49.92)"><g stroke="#000"><path class="B" d="M59.667 155.67L59 170.33 69.667 176l147.33.33 9 4s2 0 3-2-.666-4.667-.666-4.667l-11.334-3-145.33-1.333-12.003-13.66zM11.701 10.388s6.529-7.56 15.808-7.56 36.426 30.928 36.426 30.928L55 42.691S39.192 10.045 27.852 10.045s-11.34 4.124-11.34 4.124z"/><circle cx="10.483" cy="13.387" r="7.809" fill="#970000"/><path class="B" d="M54.656 176.98h5.499l4.811-17.52 121.654.04 3.09 17.83h5.84l.34-18.25-140.39.04z"/><circle cx="46.784" cy="195.96" r="17.182"/><circle cx="46.99" cy="195.96" r="13.058" fill="#0095ff" stroke-width=".76"/><path class="B" d="M54.656 177.74h5.499l-1.375 13.402-9.966 9.966s-4.811-.001-6.529-2.063.344-7.216.344-7.216l9.278-6.529z"/><circle cx="181.84" cy="195.96" r="17.183"/><circle cx="182.04" cy="195.96" r="13.058" fill="#0095ff" stroke-width=".76"/><path class="B" d="M189.71 177.74h5.499l-1.374 13.402-9.967 9.966s-4.811-.001-6.529-2.063.344-7.216.344-7.216l9.279-6.529 2.75-7.56z"/></g><g stroke="#646464"><path class="B" d="m55.344 33.756h9.278v125.77h-9.278z"/><path class="B" d="m55.344 154.38v5.15h143.07l2.4-5.15zm8.247-116.16 178.01 9.279 2.06-4.468-179.04-9.278z"/><path class="B" d="m198.99 159.53h-5.85l45.36-115.46 5.16-1.031z"/><g class="B" stroke-width="10"><path d="M91.167 38.667L91.833 156M118.17 39.334l.66 116.336M144.5 39.999l.67 116.331m26.66-116.331l.67 116.331"/><path d="m59.667 60.667 173 3.667"/></g><path class="B C" d="m60.333 95.667 158.34 5.663"/><path d="m60 133 144.67 4" fill="none" stroke-width="10"/><path class="B C" d="M199.33 44.334L199 136.67"/></g><path d="M55 42.333l.344 117.197H198.99l44.67-116.496L63 32.667" fill="none" stroke="#000"/></g></svg>
