<svg xmlns="http://www.w3.org/2000/svg" xmlns:xlink="http://www.w3.org/1999/xlink" width="320" height="320"><style><![CDATA[.B{fill-opacity:.717}.C{fill-opacity:.26}.D{opacity:.456}.E{fill-opacity:.416}.F{font-family:Brush Script Std}]]></style><defs><linearGradient id="A" xlink:href="#Q"><stop offset="0" stop-color="#eefcff"/><stop offset="1" stop-color="#eefcff" stop-opacity="0"/></linearGradient><linearGradient id="B" x1="126.619" y1="144.824" x2="99.003" y2="96.992" xlink:href="#Q"><stop offset="0" stop-color="#8c8c8c"/><stop offset=".25" stop-color="#a8a8a8"/><stop offset=".5" stop-color="#c5c5c5"/><stop offset=".75" stop-color="#e2e2e2"/><stop offset="1" stop-color="#fff"/></linearGradient><radialGradient xlink:href="#A" id="C" cx="106.664" cy="117.334" fx="106.664" fy="121.105" r="5.333" gradientTransform="matrix(0.50000015,-0.5000004,0.70710696,0.70710661,-29.635422,87.698281)"/><filter id="D"><feGaussianBlur stdDeviation=".202"/></filter><radialGradient xlink:href="#A" id="E" gradientTransform="matrix(0.50000015,-0.5000004,0.70710696,0.70710661,-29.635422,87.698281)" cx="106.664" cy="117.334" fx="106.664" fy="121.105" r="5.333"/><radialGradient id="F" gradientTransform="matrix(2.425942,0,0,2.5158062,-122.41014,-157.88666)" cx="91.455" cy="103.261" fx="91.455" fy="103.261" r="37.362" xlink:href="#Q"><stop offset="0" stop-color="#ededed"/><stop offset=".25" stop-color="#fff"/><stop offset=".5" stop-color="#f6f6f6"/><stop offset="1" stop-color="#eee"/></radialGradient><radialGradient id="G" gradientTransform="matrix(1.2207803,0,0,2.8952153,-5.540854,-129.01716)" cx="61.332" cy="49.168" fx="61.332" fy="49.168" r="50.665" xlink:href="#Q"><stop offset="0" stop-color="#b6e48d"/><stop offset=".355" stop-color="#caf1a8"/><stop offset=".619" stop-color="#60c40a"/><stop offset=".757" stop-color="#418c00"/><stop offset="1" stop-color="#173800"/></radialGradient><radialGradient id="H" gradientTransform="matrix(1.7333368,0,0,4.1107997,-36.97687,-210.05797)" cx="61.332" cy="66.668" fx="61.332" fy="66.668" r="50.665" xlink:href="#Q"><stop offset="0" stop-color="#3dbcd1"/><stop offset=".355" stop-color="#1c8dac"/><stop offset=".619" stop-color="#087795"/><stop offset=".757" stop-color="#00718c"/><stop offset="1" stop-color="#005d7a"/></radialGradient><linearGradient id="I" x1="90.204" y1="118.28" x2="90.204" y2="63.957" xlink:href="#Q"><stop offset="0" stop-color="#1b3800"/><stop offset="1" stop-color="#005367" stop-opacity="0"/></linearGradient><linearGradient id="J" xlink:href="#Q"><stop offset="0" stop-color="#fff"/><stop offset=".245" stop-color="#8b8b8b"/><stop offset=".324" stop-color="#a5a5a5"/><stop offset=".569" stop-color="#f4f4f4"/><stop offset=".682" stop-color="#bbb"/><stop offset="1" stop-color="#5a5a5a"/></linearGradient><linearGradient xlink:href="#J" id="K" x1="32" y1="0" x2="32" y2="24"/><linearGradient xlink:href="#J" id="L" x1="56" y1="0" x2="56" y2="24"/><linearGradient xlink:href="#J" id="M" x1="80" y1="0" x2="80" y2="24"/><linearGradient xlink:href="#J" id="N" x1="104" y1="0" x2="104" y2="24"/><path id="O" d="M111.997 117.334c0 2.945-2.388 5.333-5.333 5.333v-5.333z"/><path id="P" d="M53.423 53.01c0 1.007-.222 1.757-.666 2.25s-1.09.74-1.934.74c-.4 0-.76-.06-1.076-.18a2.02 2.02 0 0 1-.804-.553c-.217-.248-.384-.56-.5-.93s-.17-.817-.17-1.324c0-1.986.86-2.98 2.584-2.98.447 0 .833.062 1.156.186s.593.3.8.56.364.56.463.93.15.807.15 1.303m-1.007 0c0-.447-.036-.816-.107-1.106s-.17-.523-.304-.697-.293-.294-.485-.362-.408-.106-.65-.106-.467.037-.666.112a1.11 1.11 0 0 0-.501.372c-.14.174-.245.406-.32.697s-.107.654-.107 1.1c0 .447.04.817.117 1.112s.185.523.32.697a1.14 1.14 0 0 0 .485.367c.188.07.392.106.613.106.245 0 .467-.034.666-.1a1.12 1.12 0 0 0 .506-.367c.14-.174.245-.408.32-.702s.112-.665.112-1.112"/><linearGradient id="Q" gradientUnits="userSpaceOnUse"/></defs><g transform="matrix(2.430555 0 0 2.430555 -4.89999 4.60001)"><path d="M28 0c-6.71 0-12.25 5.54-12.25 12.25v106.406c0 5.242 4.352 9.594 9.594 9.594h85.313c5.242 0 9.594-4.352 9.594-9.594V12.25C120.25 5.54 114.71 0 108 0z" fill="url(#G)"/><path d="M28 42.094c-6.71 0-12.25 5.54-12.25 12.25v64.313c0 5.244 4.35 9.594 9.594 9.594h85.313c5.244 0 9.594-4.35 9.594-9.594V54.344c0-6.71-5.54-12.25-12.25-12.25z" fill="url(#I)"/><use xlink:href="#O" transform="matrix(-3.000076 0 0 3.000074 352.00016 -240.00946)" opacity=".633" fill="url(#E)" filter="url(#D)"/><use xlink:href="#O" transform="matrix(2.89138 0 0 2.916016 -204.33859 -230.14666)" opacity=".633" fill="url(#C)" filter="url(#D)"/><path d="M29.313 16C26.358 16 24 18.39 24 21.344v95.97C24 118.8 25.18 120 26.656 120h82.656a2.7 2.7 0 0 0 2.688-2.687v-95.97A5.34 5.34 0 0 0 106.656 16z" fill="url(#H)"/><path d="M24 16h88v104H24z" fill="url(#B)"/><path d="M32 24v88h72V24z" fill="url(#F)"/><rect width="8" height="24" x="29" rx="4" class="C"/><rect rx="4" x="24" height="24" width="8" fill="url(#K)"/><path d="M32.6 50.975l-.444 2.095h1.478v.613h-1.6l-.5 2.317H30.9l.5-2.317h-2.064L28.847 56h-.625l.478-2.317h-1.143v-.613h1.28l.444-2.095h-1.433v-.613h1.558l.506-2.317h.625l-.5 2.317H32.1l.5-2.317h.625l-.5 2.317h1.2v.613H32.6m-2.678 0l-.455 2.095h2.058l.444-2.095h-2.047M34.875 56v-.87h2.04v-6.155l-1.808 1.3V49.3L37 48h.944v7.13h1.95V56h-5.02m11.32-6.77v6.665h-1.012V49.23h-2.578v-.83h6.17v.83h-2.578" class="B"/><use xlink:href="#P" class="B"/><path d="M58.26 54.968c-.178.37-.414.633-.708.793s-.653.24-1.087.24c-.728 0-1.264-.245-1.61-.734s-.51-1.23-.51-2.223c0-2.007.707-3.01 2.12-3.01.437 0 .8.08 1.092.24s.526.413.703.76h.01l-.005-.165-.005-.24V48h.96v7.106l.01.35.01.277.01.16h-.916a1.64 1.64 0 0 1-.021-.149l-.016-.23-.01-.266-.005-.282h-.02m-2.91-1.957c0 .397.025.738.075 1.02s.13.518.24.702a1.03 1.03 0 0 0 .421.399c.17.085.378.128.623.128a1.69 1.69 0 0 0 .666-.122 1.11 1.11 0 0 0 .485-.394 2 2 0 0 0 .298-.718c.067-.294.1-.654.1-1.08 0-.408-.034-.752-.1-1.032s-.167-.512-.298-.686a1.1 1.1 0 0 0-.485-.372c-.188-.078-.407-.117-.655-.117-.234 0-.437.04-.607.122s-.313.213-.426.394-.2.417-.256.707-.08.637-.08 1.048" class="B"/><use xlink:href="#P" x="12.145" class="B"/><path d="M67.028 55.894V54.73h1.04v1.165h-1.04M32.32 91.253l-.42 1.98h1.4v.58h-1.52L31.306 96h-.6l.462-2.2h-1.95l-.45 2.2h-.6l.45-2.2h-1.08v-.58h1.2l.42-1.98H27.83v-.58h1.472l.478-2.2h.6l-.473 2.2h1.95l.473-2.2h.6l-.473 2.2h1.134v.58h-1.25m-2.53 0l-.43 1.98h1.945l.42-1.98H29.8M34.186 96v-.68c.183-.418.405-.787.666-1.105a7.72 7.72 0 0 1 .833-.869l.86-.724a9.34 9.34 0 0 0 .774-.665 3.14 3.14 0 0 0 .553-.697 1.64 1.64 0 0 0 .215-.826c0-.215-.032-.402-.097-.563s-.158-.302-.28-.413-.27-.193-.44-.247-.356-.086-.564-.086c-.193 0-.376.027-.548.08s-.32.134-.45.24-.242.24-.328.402a1.52 1.52 0 0 0-.16.553l-.988-.1a2.32 2.32 0 0 1 .226-.767c.12-.24.28-.45.5-.628s.457-.325.747-.43.632-.156 1.015-.156c.376 0 .7.045 1.005.134a1.99 1.99 0 0 1 .741.397 1.71 1.71 0 0 1 .467.649c.107.257.16.554.16.9a1.9 1.9 0 0 1-.14.724 2.82 2.82 0 0 1-.365.654c-.15.207-.326.408-.526.6l-.63.57-.66.547-.63.542a5.59 5.59 0 0 0-.52.558c-.153.2-.274.38-.36.585h3.95V96H34.2" class="B"/><path d="M79.992 40A7.95 7.95 0 0 0 72 47.992v16.016A7.95 7.95 0 0 0 79.992 72h16.016A7.95 7.95 0 0 0 104 64.008V47.992A7.95 7.95 0 0 0 96.008 40zm2.445 7.992h11.127a2.47 2.47 0 0 1 2.445 2.445v11.127a2.47 2.47 0 0 1-2.445 2.445H82.437a2.47 2.47 0 0 1-2.445-2.445V50.437a2.47 2.47 0 0 1 2.445-2.445zM79.992 80A7.95 7.95 0 0 0 72 87.992v16.016A7.95 7.95 0 0 0 79.992 112h16.016a7.95 7.95 0 0 0 7.992-7.992V87.992A7.95 7.95 0 0 0 96.008 80zm2.445 7.992h11.127a2.47 2.47 0 0 1 2.445 2.445v11.127a2.47 2.47 0 0 1-2.445 2.445H82.437a2.47 2.47 0 0 1-2.445-2.445V90.437a2.47 2.47 0 0 1 2.445-2.445z" fill="#356a00" class="B"/><path d="M66.72 97.23l17.984 19.61L113 88.543l-6.246-6.246-22.05 22.05L72.2 91.856z" fill="#636363"/><ellipse ry="5.413" rx="5.386" cx="27.886" cy="20.487" class="D E"/><path d="M46.194 89.23v6.665h-1.012V89.23h-2.578v-.83h6.17v.83h-2.578" class="B"/><use xlink:href="#P" y="40" class="B"/><path d="M58.26 94.968c-.178.37-.414.633-.708.793s-.653.24-1.087.24c-.728 0-1.264-.245-1.61-.734s-.51-1.23-.51-2.223c0-2.007.707-3.01 2.12-3.01.437 0 .8.08 1.092.24s.526.413.703.76h.01l-.005-.165-.005-.24V88h.96v7.106l.01.35.01.277.01.16h-.916a1.64 1.64 0 0 1-.021-.149l-.016-.23-.01-.266-.005-.282h-.02m-2.91-1.957c0 .397.025.738.075 1.02s.13.518.24.702a1.03 1.03 0 0 0 .421.399c.17.085.378.128.623.128a1.69 1.69 0 0 0 .666-.122 1.11 1.11 0 0 0 .485-.394 2 2 0 0 0 .298-.718c.067-.294.1-.654.1-1.08 0-.408-.034-.752-.1-1.032s-.167-.512-.298-.686a1.1 1.1 0 0 0-.485-.372c-.188-.078-.407-.117-.655-.117-.234 0-.437.04-.607.122s-.313.213-.426.394-.2.417-.256.707-.08.637-.08 1.048" class="B"/><use xlink:href="#P" x="12.145" y="40" class="B"/><path d="M67.028 95.894V94.73h1.04v1.165h-1.04" class="B"/><rect rx="4" x="53" height="24" width="8" class="C"/><rect width="8" height="24" x="48" rx="4" fill="url(#L)"/><ellipse ry="5.413" rx="5.386" cx="51.886" cy="20.487" class="D E"/><rect width="8" height="24" x="77" rx="4" class="C"/><rect rx="4" x="72" height="24" width="8" fill="url(#M)"/><ellipse ry="5.413" rx="5.386" cx="75.886" cy="20.487" class="D E"/><rect rx="4" x="101" height="24" width="8" class="C"/><rect width="8" height="24" x="96" rx="4" fill="url(#N)"/><ellipse ry="5.413" rx="5.386" cx="99.886" cy="20.487" class="D E"/></g></svg>