<svg xmlns="http://www.w3.org/2000/svg" width="320" height="320"><defs><linearGradient id="A" x1="160" y1="181.962" x2="160" y2="135.147" gradientUnits="userSpaceOnUse"><stop offset="0" stop-color="#a7ffad"/><stop offset="1" stop-color="#a7fbff" stop-opacity=".914"/></linearGradient></defs><ellipse cx="160" cy="159.984" rx="157.621" ry="157.637" fill="url(#A)" paint-order="stroke fill markers"/><rect rx="1.338" transform="matrix(.931074 -.364831 .931074 .364831 0 0)" y="202.623" x="-187.783" height="157.004" width="157.004" paint-order="stroke fill markers"/><path d="M85.1 170.3v40.804a74.981 14.766 0 0 0 0 .006 74.981 14.766 0 0 0 74.98 14.767 74.981 14.766 0 0 0 74.983-14.767 74.981 14.766 0 0 0 0-.006V170.3zm198.015-21.443h3.796v56.165h-3.796z" paint-order="stroke fill markers"/><ellipse ry="4.805" rx="5.512" cy="208.894" cx="284.958" paint-order="stroke fill markers"/><path d="M280.96 212.123s-4.623 13.756-5.77 20.888c-.144.892-.135 2.706-.135 2.706h19.868s-.025-1.875-.18-2.797c-1.19-7.09-5.725-20.797-5.725-20.797z"/><path d="M275.054 235.716l.014 1.428c0 .403.326.727.73.727h.344a.73.73 0 0 0 .318-.077v.378c0 .403.326.727.73.727h.347c.153 0 .287-.057.403-.136.028.377.333.676.72.676h.347c.244 0 .45-.127.582-.3a.72.72 0 0 0 .716.662h.344c.243 0 .447-.126.58-.307.063.338.344.597.702.597h.347c.275 0 .506-.155.63-.378a.72.72 0 0 0 .685.506h.347c.328 0 .593-.218.685-.514.092.296.356.514.685.514h.347c.4 0 .72-.32.727-.716.08.317.35.557.693.557h.347a.73.73 0 0 0 .673-.446c.134.152.326.253.545.253h.347c.378 0 .675-.287.713-.653a.72.72 0 0 0 .639.395h.347c.404 0 .727-.324.727-.727v-.77a.72.72 0 0 0 .713.642h.344c.404 0 .73-.324.73-.727v-.65a.72.72 0 0 0 .636.395h.346c.404 0 .73-.324.73-.727l.012-1.317z" paint-order="stroke fill markers"/><path d="M84.767 170.23l-.438 1.558 74.384 29.148a3.55 3.55 0 0 0 2.503 0l74.386-29.148-.44-1.558-74.384 29.148c-.367.144-1.258.144-1.625 0z" dominant-baseline="auto" paint-order="stroke fill markers" fill="#fff"/></svg>