<svg xmlns="http://www.w3.org/2000/svg" viewBox="482 846.5 250 175" width="250" height="175"><defs><filter id="A" x="-.01" width="1.02" y="-.015" height="1.029" color-interpolation-filters="sRGB"><feGaussianBlur stdDeviation="1.009"/></filter></defs><g transform="matrix(1.004586 0 0 1.004586 -3.464667 -3.079983)"><path d="M581.64 852.384a119.518 82.345 0 0 0-86.717 53.211H720.38a119.518 82.345 0 0 0-86.451-53.211zm-87.13 106.422a119.518 82.345 0 0 0 81.84 53.211h63.133a119.518 82.345 0 0 0 81.408-53.211z" fill="#239f40"/><path d="M494.936 905.594a119.518 82.345 0 0 0-6.777 27.053 119.518 82.345 0 0 0 6.348 26.158H720.89a119.518 82.345 0 0 0 6.305-26.158 119.518 82.345 0 0 0-6.779-27.053z" fill="#fff"/><path d="M494.506 958.805a119.518 82.345 0 0 0 81.836 53.209h63.154a119.518 82.345 0 0 0 81.395-53.209zm122.524-40.87s15.505 11.3 4.108 27.518c10.734-6.108 11.66-22.906-4.108-27.518zm-8.73-1.605c-2.468 2.6-6.7.016-5.25-2.807 2.55 4.257 5.25.818 5.25.818s2.7 3.44 5.25-.818c1.458 2.823-2.782 5.4-5.25 2.807zm0 35.17l-1.772-2.16s-4.174 1.296-9.674-.494c4.506 0 7.024-.74 7.95-1.172 0 0-10.204-5.12-10.006-15.548.596-10.55 6.626-13.76 6.626-13.76s-10.734 14.56 5.036 26.73l-.696-15.055v-11.06c.895-.2 2.534-1.96 2.534-1.96s1.64 1.76 2.534 1.96v11.06l-.696 15.055c15.77-12.17 5.035-26.732 5.035-26.732s6.03 3.208 6.626 13.76c.2 10.427-10.005 15.548-10.005 15.548.927.432 3.446 1.172 7.95 1.172-5.5 1.8-9.674.494-9.674.494l-1.772 2.16zm-8.73-33.565s-15.505 11.3-4.108 27.518c-10.734-6.108-11.662-22.906 4.108-27.518z" fill="#da0000"/><g fill="none"><path d="M502.966 959.16h10.667m-18.5 0h5.166m10.667 2.75v4.966m-2.667-2.484v2.484h5.333v-4.966m-8 4.966h-2.667v-2.484h5.333v-2.484m-9.033 4.967h1.033v-2.484h-2.667m-1.3-2.483h9.3m24-2.75H540.3m-24 0h10.667m10.667 2.75v4.966m-2.667-2.484v2.484h5.333v-4.966m-8 4.966h-2.667v-2.484h5.333v-2.484m-18.666 4.967v-2.484h5.333v2.484h5.333v-2.484H524.3m-8-2.483h16m157.334-2.75H700.3m-24 0h10.667m10.667 2.75v4.966m-2.667-2.484v2.484h5.333v-4.966m-8 4.966h-2.667v-2.484h5.333v-2.484m-18.666 4.967v-2.484h5.333v2.484h5.333v-2.484H684.3m-8-2.483h16m-29.333-2.75h10.667m-24 0H660.3m-8 7.715h.001m18.666-4.966v4.966m-2.667-2.484v2.484h5.333v-4.966m-8 4.966h-2.667v-2.484h5.333v-2.484m-18.666 4.967v-2.484h5.333v2.484h5.333v-2.484h-2.667m-8-2.483h16m50.666-2.75h4.267m-4.267 7.715v-2.484m-13.333-5.232h10.667m-10.667 7.715v-2.484h5.333v2.484h5.333v-2.484h-2.667m-8-2.483h16m-136-2.75h10.667m-24 0H580.3m-8 7.715h.001m18.666-4.966v4.966m-2.667-2.484v2.484h5.333v-4.966m-8 4.966h-2.667v-2.484h5.333v-2.484m-18.666 4.967v-2.484h5.333v2.484h5.333v-2.484h-2.667m-8-2.483h16m-29.334-2.75h10.667m-24 0h10.667m10.666 2.75v4.966m-2.666-2.484v2.484h5.333v-4.966m-8 4.966H556.3v-2.484h5.333v-2.484m-18.666 4.967v-2.484h5.333v2.484h5.333v-2.484h-2.667m-8-2.483h16m77.333-2.75h10.667m-24 0h10.667m10.666 2.75v4.966m-2.666-2.484v2.484h5.333v-4.966m-8 4.966H636.3v-2.484h5.333v-2.484m-18.666 4.967v-2.484h5.333v2.484h5.333v-2.484h-2.667m-8-2.483h16m-29.333-2.75H620.3m-24 0h10.667m10.667 2.75v4.966m-2.667-2.484v2.484h5.333v-4.966m-8 4.966h-2.667v-2.484h5.333v-2.484m-18.666 4.967v-2.484h5.333v2.484h5.333v-2.484H604.3m-8-2.483h16m-109.333-56.67h10.667m-18 0h4.666m-3.233-2.75h3.233v-2.484h-2.067m1.7-2.483h5.7m5.333 0v4.966m-2.667-2.484v2.484h5.333v-4.966m-8 4.966h-2.667v-2.484h5.333v-2.484m21.334 7.716H540.3m-24 0h10.667m10.667-7.715v4.966m-2.667-2.484v2.484h5.333v-4.966m-8 4.966h-2.667v-2.484h5.333v-2.484M516.3 902.49v-2.484h5.333v2.484h5.333v-2.484H524.3m-8-2.483h16m157.334 7.715H700.3m-24 0h10.667m10.667-7.715v4.966m-2.667-2.484v2.484h5.333v-4.966m-8 4.966h-2.667v-2.484h5.333v-2.484M676.3 902.49v-2.484h5.333v2.484h5.333v-2.484H684.3m-8-2.483h16m-29.333 7.715h10.667m-24 0H660.3m-8-2.75h.001m18.666-4.966v4.966m-2.667-2.484v2.484h5.333v-4.966m-8 4.966h-2.667v-2.484h5.333v-2.484m-18.666 4.967v-2.484h5.333v2.484h5.333v-2.484h-2.667m-8-2.483h16m50.666 7.715h3.567m-.9-2.75H716.3v-2.484m-13.333 5.233h10.667m-10.667-2.75v-2.484h5.333v2.484h5.333v-2.484h-2.667m-8-2.483h12.5m-132.5 7.715h10.667m-24 0H580.3m-8-2.75h.001m18.666-4.966v4.966m-2.667-2.484v2.484h5.333v-4.966m-8 4.966h-2.667v-2.484h5.333v-2.484m-18.666 4.967v-2.484h5.333v2.484h5.333v-2.484h-2.667m-8-2.483h16M556.3 905.24h10.667m-24 0h10.667m10.666-7.715v4.966m-2.666-2.484v2.484h5.333v-4.966m-8 4.966H556.3v-2.484h5.333v-2.484m-18.666 4.967v-2.484h5.333v2.484h5.333v-2.484h-2.667m-8-2.483h16m77.333 7.715h10.667m-24 0h10.667m10.666-7.715v4.966m-2.666-2.484v2.484h5.333v-4.966m-8 4.966H636.3v-2.484h5.333v-2.484m-18.666 4.967v-2.484h5.333v2.484h5.333v-2.484h-2.667m-8-2.483h16m-29.333 7.715H620.3m-24 0h10.667m10.667-7.715v4.966m-2.667-2.484v2.484h5.333v-4.966m-8 4.966h-2.667v-2.484h5.333v-2.484M596.3 902.49v-2.484h5.333v2.484h5.333v-2.484H604.3m-8-2.483h16" stroke="#fff" stroke-width="1.654" stroke-linecap="square"/><ellipse ry="82.345" rx="119.518" cy="932.646" cx="607.678" stroke="#a5a5a5" stroke-width="6.4" paint-order="stroke fill markers" filter="url(#A)"/></g></g></svg>