<svg xmlns="http://www.w3.org/2000/svg" width="128" height="128"><defs><filter id="A" x="-.033" width="1.067" y="-.158" height="1.316" color-interpolation-filters="sRGB"><feGaussianBlur stdDeviation="6.36"/></filter><filter id="B" color-interpolation-filters="sRGB"><feGaussianBlur stdDeviation="2.189"/></filter></defs><g transform="matrix(.25795 0 0 .25795 2.353442 2.209853)"><path d="M1.365 118.22h477.27v360.745H1.365z" fill="#333" stroke="#000" stroke-width="2.731"/><path d="M480 341.665s-15.54 43.348-37.398 59.326c-19.695 14.397-44.192 17.074-44.192 17.074s-10.886 23.213-24.618 36.49c-17.413 16.838-57.766 26.603-57.766 26.603s68.33 2.697 111.28-35.453c47.907-42.553 55.153-102.84 52.693-104.04z" opacity=".695" fill="#adadad" fill-rule="evenodd" filter="url(#B)"/><g stroke="#000"><path d="M.99.158H479.01v118.85H.99z" fill="green" stroke-width="1.982"/><path transform="matrix(1.007361 0 0 .99993 .003022 .004187)" d="M12.188 103.96V9.796l452.52 2.63 1.18 90.07s-.844-30.444-7.778-52.828c-4.007-12.935-14.48-25.684-38.17-26.267-83.06.193-325.645-1.503-365.603-1.905C26.816 23.558 24.88 36.58 19.368 48.61c-5.628 12.284-5.716 35.965-7.18 55.35z" opacity=".473" fill-rule="evenodd" stroke-width="2.6" filter="url(#A)"/></g><text xml:space="preserve" transform="scale(.99393719 1.0060998)" y="408.662" x="451.032" font-size="872.328" letter-spacing="0" word-spacing="0" writing-mode="lr-tb" fill="#fff"><tspan y="408.662" x="245.488" font-size="326.537" font-weight="normal" text-anchor="middle" font-family="Sans">TX</tspan></text></g></svg>