<svg xmlns="http://www.w3.org/2000/svg" width="128" height="128"><defs><filter id="A" x="-.033" width="1.067" y="-.158" height="1.316" color-interpolation-filters="sRGB"><feGaussianBlur stdDeviation="6.36"/></filter><filter id="B" color-interpolation-filters="sRGB"><feGaussianBlur stdDeviation="2.189"/></filter></defs><path d="M2.706 32.705h123.112v93.054H2.706z" fill="#333" stroke="#000" stroke-width=".704"/><path transform="matrix(.25795 0 0 .25795 2.353442 2.209853)" d="M480 341.665s-15.54 43.348-37.398 59.326c-19.695 14.397-44.192 17.074-44.192 17.074s-10.886 23.213-24.618 36.49c-17.413 16.838-57.766 26.603-57.766 26.603s68.33 2.697 111.28-35.453c47.907-42.553 55.153-102.84 52.693-104.04z" opacity=".695" fill="#adadad" fill-rule="evenodd" filter="url(#B)"/><g stroke="#000"><path d="M2.61 2.25h123.305v30.657H2.61z" fill="#a00" stroke-width=".511"/><path transform="matrix(.259849 0 0 .257932 2.354221 2.210933)" d="M12.188 103.96V9.796l452.52 2.63 1.18 90.07s-.844-30.444-7.778-52.828c-4.007-12.935-14.48-25.684-38.17-26.267-83.06.193-325.645-1.503-365.603-1.905C26.816 23.558 24.88 36.58 19.368 48.61c-5.628 12.284-5.716 35.965-7.18 55.35z" opacity=".473" fill-rule="evenodd" stroke-width="2.6" filter="url(#A)"/></g><text xml:space="preserve" transform="scale(.9939372 1.0060998)" y="107.611" x="118.711" font-size="225.017" letter-spacing="0" word-spacing="0" writing-mode="lr-tb" fill="#fff"><tspan y="107.611" x="65.692" font-size="84.23" font-weight="normal" text-anchor="middle" font-family="Sans">TX</tspan></text></svg>