<svg xmlns="http://www.w3.org/2000/svg" width="128" height="128"><rect width="128" height="128" rx="5" fill="#eee9e4"/><g transform="matrix(.932203 0 0 .932203 4.338983 6.61017)"><g fill="#3c3c3c"><rect ry="3.238" rx="3.2" y="53.534" x="5" height="73.466" width="118"/><path d="M24.7 0h18.4v9.5H24.7zm60.14 0h18.4v9.572h-18.4z"/></g><text y="116.9" x="64.233" xml:space="preserve" font-size="88.804" letter-spacing="0" word-spacing="0" writing-mode="lr-tb" text-anchor="middle" fill="#eee9e4" font-family="Terafik"><tspan y="116.9" x="64.233" font-weight="normal" writing-mode="lr-tb">TX</tspan></text><path d="M8.2 9.5h111.6c1.773 0 3.2 1.427 3.2 3.2v30.6c0 1.773-1.427 3.2-3.2 3.2H8.2c-1.773 0-3.2-1.427-3.2-3.2V12.7c0-1.773 1.427-3.2 3.2-3.2z" fill="#3c3c3c"/><path d="M24.7 9.5h18.4v18.417H24.7zm60.14 0h18.4v18.417h-18.4z" fill="#eee9e4"/></g></svg>