<svg xmlns="http://www.w3.org/2000/svg" width="128" height="128"><defs><filter id="A"><feGaussianBlur stdDeviation=".752"/></filter><filter id="B"><feGaussianBlur stdDeviation="5.243"/></filter></defs><path d="M2.706 32.705h123.112v93.054H2.706z" fill="#e6e6e6" stroke="#7f7f7f" stroke-width=".704"/><path transform="matrix(.25795 0 0 .25795 2.353442 2.209853)" d="M480 341.665s-15.54 43.348-37.398 59.326c-19.695 14.397-44.192 17.074-44.192 17.074s-10.886 23.213-24.618 36.49c-17.413 16.838-57.766 26.603-57.766 26.603s68.33 2.697 111.28-35.453c47.907-42.553 55.153-102.84 52.693-104.04z" opacity=".485" fill="#7d7d7d" fill-rule="evenodd" filter="url(#B)"/><path d="M2.61 2.25h123.305v30.657H2.61z" fill="#00e" stroke="#000" stroke-width=".511"/><path transform="matrix(.987751 0 0 1 .788498 0)" d="M2.396 29.026V2.59l123.626.738.323 25.287s-.23-8.547-2.125-14.83c-1.095-3.63-3.955-7.21-10.428-7.374-22.692.054-88.964-.422-99.88-.535-7.52.58-8.048 4.235-9.554 7.612-1.538 3.45-1.56 10.097-1.962 15.54z" opacity=".168" fill-rule="evenodd" filter="url(#A)"/><text xml:space="preserve" transform="scale(.99393719 1.0060998)" y="109.758" x="123.359" font-size="239.926" letter-spacing="0" word-spacing="0" writing-mode="lr-tb"><tspan y="109.758" x="66.826" font-size="89.811" font-weight="normal" text-anchor="middle" font-family="Sans">TX</tspan></text></svg>